<?xml version="1.0" encoding="utf-8"?>
<!-- Generator: Adobe Illustrator 24.0.1, SVG Export Plug-In . SVG Version: 6.00 Build 0)  -->
<svg version="1.1" id="Content" xmlns="http://www.w3.org/2000/svg" xmlns:xlink="http://www.w3.org/1999/xlink" x="0px" y="0px"
	 viewBox="0 0 1080 1920" style="enable-background:new 0 0 1080 1920;" xml:space="preserve">
<style type="text/css">
	.st0{enable-background:new    ;}
	.st1{fill:#9C5164;}
	.st2{fill:#B9932F;}
	.st3{fill:#DAAC35;}
	.st4{fill:#B8932E;}
	.st5{clip-path:url(#SVGID_2_);fill:url(#SVGID_3_);}
	.st6{clip-path:url(#SVGID_5_);fill:url(#SVGID_6_);}
	.st7{clip-path:url(#SVGID_8_);fill:url(#SVGID_9_);}
	.st8{clip-path:url(#SVGID_11_);fill:url(#SVGID_12_);}
	.st9{clip-path:url(#SVGID_14_);fill:url(#SVGID_15_);}
	.st10{clip-path:url(#SVGID_17_);fill:url(#SVGID_18_);}
	.st11{clip-path:url(#SVGID_20_);fill:url(#SVGID_21_);}
	.st12{clip-path:url(#SVGID_23_);fill:url(#SVGID_24_);}
	.st13{clip-path:url(#SVGID_26_);fill:url(#SVGID_27_);}
	.st14{clip-path:url(#SVGID_29_);fill:url(#SVGID_30_);}
	.st15{clip-path:url(#SVGID_32_);fill:url(#SVGID_33_);}
	.st16{fill:url(#SVGID_34_);}
</style>
<g class="st0">
	<path class="st1" d="M78.4,656.4v1.2c-1.7,0-3,0.5-3.6,1.4c-0.7,1-1,2.6-1,5.1v37.7c0,3.5-0.9,6.3-2.8,8.3c-1.9,2-4.3,3-7.4,3
		c-2.9,0-5.2-1.2-6.7-3.7l1-0.7c0.9,1.2,2.2,1.8,3.7,1.8c2,0,3.6-0.9,4.9-2.6c1.3-1.8,1.9-4.2,1.9-7.4v-36.4c0-2.5-0.3-4.2-1-5.1
		c-0.7-0.9-1.9-1.4-3.7-1.4v-1.2H78.4z"/>
	<path class="st1" d="M89.3,698.1c-2,0-3.7-0.7-5.1-2c-1.4-1.3-2.1-2.9-2.1-4.8c0-1.8,0.6-3.2,1.8-4.4c1.2-1.1,3.7-2.2,7.4-3.3
		c2.3-0.7,3.9-1.2,4.7-1.7v-1.9c0-1.8-0.5-3.3-1.5-4.4c-1-1.1-2.4-1.7-4.1-1.7c-1.6,0-2.9,0.5-4.1,1.5c-1.2,1-2.1,2.3-2.5,4
		l-1.3-0.3c0.5-2.3,1.6-4.2,3.3-5.6c1.7-1.4,3.7-2.1,6-2.1c2.7,0,4.9,0.8,6.6,2.5s2.5,3.9,2.5,6.8v10.8c0,1.5,0.1,2.6,0.3,3.1
		c0.2,0.5,0.6,0.8,1.1,0.8c0.4,0,0.7-0.2,0.9-0.5c0.2-0.3,0.5-1,0.8-2h1.2c-0.1,1.6-0.6,2.8-1.5,3.8c-0.9,0.9-2,1.4-3.4,1.4
		c-2.1,0-3.5-1.2-4.3-3.6c-1.3,1.4-2.4,2.3-3.3,2.8C91.7,697.8,90.6,698.1,89.3,698.1z M96.1,692.2v-8.6c-0.7,0.3-1.8,0.7-3.1,1.1
		c-2.5,0.9-4.1,1.7-4.9,2.6c-0.7,0.8-1.1,2-1.1,3.4c0,1.3,0.4,2.3,1.1,3.3c0.8,0.9,1.7,1.4,2.7,1.4c1,0,1.9-0.3,3-0.9
		C94.9,693.8,95.6,693.1,96.1,692.2z"/>
	<path class="st1" d="M114,652.5h1.2v22.6c1.1-1.2,2.4-2.1,3.9-2.8c1.5-0.7,3.1-1,4.6-1c3.3,0,6.1,1.2,8.3,3.6
		c2.3,2.4,3.4,5.3,3.4,8.8c0,4.1-1.5,7.4-4.6,10c-3.1,2.6-7.3,3.9-12.6,3.9c-2.1,0-4.7-0.3-7.8-0.8v-37.9c0-2-0.2-3.2-0.7-3.7
		c-0.5-0.5-1.7-0.7-3.7-0.7v-1.2L114,652.5z M115.2,676.9v14.4c0,1.9,0.3,3.2,1,3.9c0.6,0.7,1.8,1,3.3,1c3.3,0,5.9-1.1,7.8-3.2
		c1.9-2.1,2.9-5.1,2.9-8.9c0-3.2-0.8-5.8-2.5-7.8s-3.6-3-5.9-3C119.3,673.4,117.2,674.6,115.2,676.9z"/>
	<path class="st1" d="M172.7,671.3v7.8h-1.4c-0.2-2-0.9-3.5-2.1-4.6c-1.2-1.1-2.6-1.7-4.2-1.7c-1.3,0-2.3,0.3-3,0.9
		s-1.1,1.5-1.1,2.5c0,1,0.4,1.9,1.1,2.7c0.7,0.8,2.2,1.7,4.6,2.8c3.1,1.4,5.1,2.7,6.1,4c1,1.3,1.5,2.8,1.5,4.6
		c0,2.1-0.8,3.9-2.4,5.5c-1.6,1.5-3.4,2.3-5.6,2.3c-1.1,0-2.6-0.4-4.4-1.2c-1-0.4-1.7-0.7-2-0.7c-0.4,0-0.8,0.2-1.1,0.5
		c-0.3,0.3-0.5,0.7-0.5,1.2h-1.2v-8.6h1.2c0.4,2.3,1.4,4.1,2.9,5.4c1.5,1.3,3.2,2,5.2,2c1.3,0,2.3-0.4,3.2-1.3
		c0.8-0.8,1.3-1.9,1.3-3.1c0-1.2-0.4-2.2-1.2-3.1c-0.8-0.9-2.5-1.9-5.1-3c-2.9-1.3-4.8-2.5-5.8-3.6c-0.9-1.1-1.4-2.5-1.4-4
		c0-2,0.8-3.7,2.3-5.1s3.3-2.1,5.4-2.1c1,0,2,0.2,3.2,0.7c0.8,0.3,1.5,0.5,2,0.5c0.7,0,1.2-0.4,1.5-1.2H172.7z"/>
	<path class="st1" d="M185.6,698.1c-2,0-3.7-0.7-5.1-2c-1.4-1.3-2.1-2.9-2.1-4.8c0-1.8,0.6-3.2,1.8-4.4c1.2-1.1,3.7-2.2,7.4-3.3
		c2.3-0.7,3.9-1.2,4.7-1.7v-1.9c0-1.8-0.5-3.3-1.5-4.4c-1-1.1-2.4-1.7-4.1-1.7c-1.6,0-2.9,0.5-4.1,1.5c-1.2,1-2.1,2.3-2.5,4
		l-1.3-0.3c0.5-2.3,1.6-4.2,3.3-5.6c1.7-1.4,3.7-2.1,6-2.1c2.7,0,4.9,0.8,6.6,2.5s2.5,3.9,2.5,6.8v10.8c0,1.5,0.1,2.6,0.3,3.1
		c0.2,0.5,0.6,0.8,1.1,0.8c0.4,0,0.7-0.2,0.9-0.5c0.2-0.3,0.5-1,0.8-2h1.2c-0.1,1.6-0.6,2.8-1.5,3.8c-0.9,0.9-2,1.4-3.4,1.4
		c-2.1,0-3.5-1.2-4.3-3.6c-1.3,1.4-2.4,2.3-3.3,2.8C188.1,697.8,186.9,698.1,185.6,698.1z M192.4,692.2v-8.6
		c-0.7,0.3-1.8,0.7-3.1,1.1c-2.5,0.9-4.1,1.7-4.9,2.6c-0.7,0.8-1.1,2-1.1,3.4c0,1.3,0.4,2.3,1.1,3.3c0.8,0.9,1.7,1.4,2.7,1.4
		c1,0,1.9-0.3,3-0.9C191.2,693.8,192,693.1,192.4,692.2z"/>
	<path class="st1" d="M211.7,698.1c-2,0-3.7-0.7-5.1-2c-1.4-1.3-2.1-2.9-2.1-4.8c0-1.8,0.6-3.2,1.8-4.4c1.2-1.1,3.7-2.2,7.4-3.3
		c2.3-0.7,3.9-1.2,4.7-1.7v-1.9c0-1.8-0.5-3.3-1.5-4.4c-1-1.1-2.4-1.7-4.1-1.7c-1.6,0-2.9,0.5-4.1,1.5c-1.2,1-2.1,2.3-2.5,4
		l-1.3-0.3c0.5-2.3,1.6-4.2,3.3-5.6c1.7-1.4,3.7-2.1,6-2.1c2.7,0,4.9,0.8,6.6,2.5s2.5,3.9,2.5,6.8v10.8c0,1.5,0.1,2.6,0.3,3.1
		c0.2,0.5,0.6,0.8,1.1,0.8c0.4,0,0.7-0.2,0.9-0.5c0.2-0.3,0.5-1,0.8-2h1.2c-0.1,1.6-0.6,2.8-1.5,3.8c-0.9,0.9-2,1.4-3.4,1.4
		c-2.1,0-3.5-1.2-4.3-3.6c-1.3,1.4-2.4,2.3-3.3,2.8C214.1,697.8,213,698.1,211.7,698.1z M218.5,692.2v-8.6c-0.7,0.3-1.8,0.7-3.1,1.1
		c-2.5,0.9-4.1,1.7-4.9,2.6c-0.7,0.8-1.1,2-1.1,3.4c0,1.3,0.4,2.3,1.1,3.3c0.8,0.9,1.7,1.4,2.7,1.4c1,0,1.9-0.3,3-0.9
		C217.3,693.8,218,693.1,218.5,692.2z"/>
	<path class="st1" d="M237.2,663.5h1.2v8.5h8.8v1.8h-8.8v16.3c0,1.7,0.4,3,1.2,3.9c0.8,0.9,1.9,1.4,3.4,1.4c1.7,0,3.3-0.8,4.7-2.4
		l0.8,0.9c-2.2,2.8-4.7,4.2-7.6,4.2c-2.2,0-3.9-0.7-5.3-2.1c-1.3-1.4-2-3.1-2-5.3v-16.9h-4.8v-1.2
		C232.3,670.8,235.1,667.8,237.2,663.5z"/>
	<path class="st1" d="M270.4,692v-12.5c0-1.7-0.5-3-1.4-4c-0.9-1-2.2-1.5-3.7-1.5c-1.4,0-2.7,0.4-3.8,1.1s-2.3,2-3.5,3.7v13.9
		c0,1.3,0.3,2.2,0.9,2.7c0.6,0.5,1.7,0.7,3.3,0.7v1.2h-13.5v-1.2c1.9,0,3.2-0.4,3.7-0.9c0.5-0.6,0.8-1.9,0.8-3.9v-32.9
		c0-1.5-0.3-2.5-0.8-3c-0.5-0.5-1.8-0.8-3.7-0.8v-1.2l8.1-0.9h1.2v23.9c1.6-1.9,3.1-3.2,4.4-3.9c1.3-0.8,2.8-1.1,4.4-1.1
		c2.5,0,4.5,0.8,6.1,2.4c1.6,1.6,2.4,3.7,2.4,6.4v11.2c0,2,0.3,3.3,0.8,3.9c0.5,0.6,1.6,0.9,3.3,0.9v1.2h-13.1v-1.2
		c1.7,0,2.8-0.3,3.4-0.8C270.1,694.8,270.4,693.7,270.4,692z"/>
	<path class="st1" d="M317.7,692v-12.5c0-1.7-0.5-3-1.4-4c-0.9-1-2.2-1.5-3.7-1.5c-1.4,0-2.7,0.4-3.8,1.1s-2.3,2-3.5,3.7v13.9
		c0,1.3,0.3,2.2,0.9,2.7c0.6,0.5,1.7,0.7,3.3,0.7v1.2h-13.5v-1.2c1.9,0,3.2-0.4,3.7-0.9c0.5-0.6,0.8-1.9,0.8-3.9v-32.9
		c0-1.5-0.3-2.5-0.8-3c-0.5-0.5-1.8-0.8-3.7-0.8v-1.2l8.1-0.9h1.2v23.9c1.6-1.9,3.1-3.2,4.4-3.9c1.3-0.8,2.8-1.1,4.4-1.1
		c2.5,0,4.5,0.8,6.1,2.4c1.6,1.6,2.4,3.7,2.4,6.4v11.2c0,2,0.3,3.3,0.8,3.9c0.5,0.6,1.6,0.9,3.3,0.9v1.2h-13.1v-1.2
		c1.7,0,2.8-0.3,3.4-0.8C317.4,694.8,317.7,693.7,317.7,692z"/>
	<path class="st1" d="M357.2,684.7c0,3.8-1.3,7-4,9.5s-5.9,3.8-9.9,3.8c-3.9,0-7.2-1.3-9.9-3.8c-2.6-2.5-4-5.7-4-9.5
		c0-3.9,1.3-7.1,3.9-9.6c2.6-2.5,5.9-3.8,9.9-3.8s7.3,1.3,9.9,3.8C355.9,677.7,357.2,680.9,357.2,684.7z M351.9,684.8
		c0-3.6-0.8-6.5-2.3-8.7c-1.5-2.2-3.6-3.3-6.3-3.3s-4.7,1.1-6.3,3.2s-2.3,5.1-2.3,8.8c0,3.6,0.8,6.5,2.3,8.7s3.6,3.2,6.3,3.2
		c2.7,0,4.8-1.1,6.3-3.3C351.2,691.2,351.9,688.3,351.9,684.8z"/>
	<path class="st1" d="M385.7,671.3v4.2c1.6-1.6,3.1-2.7,4.4-3.3c1.3-0.6,2.8-1,4.4-1c3.3,0,6,1.2,8.2,3.7c2.2,2.5,3.2,5.6,3.2,9.4
		c0,3.9-1.2,7.1-3.6,9.7c-2.4,2.6-5.4,3.9-9,3.9c-2.5,0-5-1-7.6-3v16.6c0,1.7,0.3,2.8,0.9,3.4c0.6,0.5,1.7,0.8,3.3,0.8v1.2h-13.5
		v-1.2c1.7,0,2.9-0.2,3.5-0.7c0.6-0.5,0.9-1.4,0.9-2.8v-35.2c0-1.7-0.3-2.8-0.8-3.2c-0.5-0.5-1.7-0.7-3.7-0.7v-1.2l8.1-0.8H385.7z
		 M385.7,677.5v15.8c2,2.1,4.3,3.1,7,3.1c2.3,0,4.1-1.1,5.7-3.2c1.5-2.1,2.3-4.7,2.3-7.9c0-3.4-0.8-6.2-2.3-8.4
		c-1.5-2.2-3.5-3.3-5.8-3.3C390.1,673.7,387.9,674.9,385.7,677.5z"/>
	<path class="st1" d="M420.2,672.1v1.2c-1.4,0.2-2.1,0.9-2.1,2.2c0,0.5,0.1,1,0.4,1.7l6.1,14.3l4.4-13.3c0.3-1.1,0.5-2,0.5-2.6
		c0-1.4-0.8-2.1-2.5-2.2v-1.2h8.9v1.2c-1.3,0-2.5,0.5-3.3,1.4c-0.9,0.9-1.7,2.4-2.4,4.5L420.1,709c-1,2.8-2.2,5.1-3.7,6.7
		s-3.1,2.5-4.6,2.5c-0.9,0-2-0.4-3.1-1.1l1.6-4.4c0.9,0.4,1.7,0.6,2.4,0.6c1.5,0,2.8-0.5,3.8-1.4c1-1,1.9-2.5,2.7-4.8l3.2-9.2
		l-9.1-20.9c-0.7-1.5-1.3-2.5-2-3c-0.7-0.5-1.7-0.7-3.1-0.8v-1.2H420.2z"/>
	<path class="st1" d="M445.4,698.1c-2,0-3.7-0.7-5.1-2c-1.4-1.3-2.1-2.9-2.1-4.8c0-1.8,0.6-3.2,1.8-4.4c1.2-1.1,3.7-2.2,7.4-3.3
		c2.3-0.7,3.9-1.2,4.7-1.7v-1.9c0-1.8-0.5-3.3-1.5-4.4c-1-1.1-2.4-1.7-4.1-1.7c-1.6,0-2.9,0.5-4.1,1.5c-1.2,1-2.1,2.3-2.5,4
		l-1.3-0.3c0.5-2.3,1.6-4.2,3.3-5.6c1.7-1.4,3.7-2.1,6-2.1c2.7,0,4.9,0.8,6.6,2.5s2.5,3.9,2.5,6.8v10.8c0,1.5,0.1,2.6,0.3,3.1
		c0.2,0.5,0.6,0.8,1.1,0.8c0.4,0,0.7-0.2,0.9-0.5c0.2-0.3,0.5-1,0.8-2h1.2c-0.1,1.6-0.6,2.8-1.5,3.8c-0.9,0.9-2,1.4-3.4,1.4
		c-2.1,0-3.5-1.2-4.3-3.6c-1.3,1.4-2.4,2.3-3.3,2.8C447.8,697.8,446.7,698.1,445.4,698.1z M452.1,692.2v-8.6
		c-0.7,0.3-1.8,0.7-3.1,1.1c-2.5,0.9-4.1,1.7-4.9,2.6c-0.7,0.8-1.1,2-1.1,3.4c0,1.3,0.4,2.3,1.1,3.3c0.8,0.9,1.7,1.4,2.7,1.4
		c1,0,1.9-0.3,3-0.9C451,693.8,451.7,693.1,452.1,692.2z"/>
	<path class="st1" d="M471.4,698.1c-2,0-3.7-0.7-5.1-2c-1.4-1.3-2.1-2.9-2.1-4.8c0-1.8,0.6-3.2,1.8-4.4c1.2-1.1,3.7-2.2,7.4-3.3
		c2.3-0.7,3.9-1.2,4.7-1.7v-1.9c0-1.8-0.5-3.3-1.5-4.4c-1-1.1-2.4-1.7-4.1-1.7c-1.6,0-2.9,0.5-4.1,1.5c-1.2,1-2.1,2.3-2.5,4
		l-1.3-0.3c0.5-2.3,1.6-4.2,3.3-5.6c1.7-1.4,3.7-2.1,6-2.1c2.7,0,4.9,0.8,6.6,2.5s2.5,3.9,2.5,6.8v10.8c0,1.5,0.1,2.6,0.3,3.1
		c0.2,0.5,0.6,0.8,1.1,0.8c0.4,0,0.7-0.2,0.9-0.5c0.2-0.3,0.5-1,0.8-2h1.2c-0.1,1.6-0.6,2.8-1.5,3.8c-0.9,0.9-2,1.4-3.4,1.4
		c-2.1,0-3.5-1.2-4.3-3.6c-1.3,1.4-2.4,2.3-3.3,2.8C473.9,697.8,472.7,698.1,471.4,698.1z M478.2,692.2v-8.6
		c-0.7,0.3-1.8,0.7-3.1,1.1c-2.5,0.9-4.1,1.7-4.9,2.6c-0.7,0.8-1.1,2-1.1,3.4c0,1.3,0.4,2.3,1.1,3.3c0.8,0.9,1.7,1.4,2.7,1.4
		c1,0,1.9-0.3,3-0.9C477,693.8,477.7,693.1,478.2,692.2z"/>
	<path class="st1" d="M498.7,671.3v5.5c2.3-2,4.1-3.4,5.4-4.2c1.3-0.8,2.4-1.2,3.2-1.2c1.6,0,3.1,0.7,4.6,2l-1.9,4.5
		c-2.7-1.5-4.7-2.2-6-2.2c-1.4,0-3.2,1-5.4,3.1v13.9c0,1.4,0.3,2.3,0.9,2.8c0.6,0.5,1.7,0.7,3.3,0.7v1.2h-13.3v-1.2
		c1.8,0,2.9-0.3,3.5-0.8c0.5-0.6,0.8-1.9,0.8-4v-13.8c0-1.7-0.3-2.9-0.9-3.4s-2-0.8-4.3-0.8v-1.2l8.8-0.8H498.7z"/>
	<path class="st1" d="M550,676.4l-6.5,6l10.5,10.5c1.2,1.2,2.2,2,3,2.5c0.8,0.4,1.9,0.7,3.1,0.8v1.2h-8.3l-13.1-12.6
		c0,6.6,0.3,10.2,0.8,10.7c0.6,0.5,1.7,0.7,3.4,0.7v1.2h-13.6v-1.2c1.9,0,3.2-0.4,3.7-0.9c0.5-0.6,0.8-1.9,0.8-3.9V658
		c0-1.5-0.3-2.4-0.8-2.8s-1.8-0.6-3.7-0.6v-1.2l8.1-0.9h1.2v31.9l6.8-6.2c1.3-1.2,1.9-2.2,1.9-3.2c0-1.1-1-1.7-3.1-1.7v-1.2h13.8
		v1.2h-1.2C554.4,673.3,552.1,674.3,550,676.4z"/>
	<path class="st1" d="M569.3,698.1c-2,0-3.7-0.7-5.1-2c-1.4-1.3-2.1-2.9-2.1-4.8c0-1.8,0.6-3.2,1.8-4.4c1.2-1.1,3.7-2.2,7.4-3.3
		c2.3-0.7,3.9-1.2,4.7-1.7v-1.9c0-1.8-0.5-3.3-1.5-4.4c-1-1.1-2.4-1.7-4.1-1.7c-1.6,0-2.9,0.5-4.1,1.5c-1.2,1-2.1,2.3-2.5,4
		l-1.3-0.3c0.5-2.3,1.6-4.2,3.3-5.6c1.7-1.4,3.7-2.1,6-2.1c2.7,0,4.9,0.8,6.6,2.5c1.7,1.6,2.5,3.9,2.5,6.8v10.8
		c0,1.5,0.1,2.6,0.3,3.1c0.2,0.5,0.6,0.8,1.1,0.8c0.4,0,0.7-0.2,0.9-0.5c0.2-0.3,0.5-1,0.8-2h1.2c-0.1,1.6-0.6,2.8-1.5,3.8
		c-0.9,0.9-2,1.4-3.4,1.4c-2.1,0-3.5-1.2-4.3-3.6c-1.3,1.4-2.4,2.3-3.3,2.8C571.8,697.8,570.6,698.1,569.3,698.1z M576.1,692.2v-8.6
		c-0.7,0.3-1.8,0.7-3.1,1.1c-2.5,0.9-4.1,1.7-4.9,2.6c-0.7,0.8-1.1,2-1.1,3.4c0,1.3,0.4,2.3,1.1,3.3c0.8,0.9,1.7,1.4,2.7,1.4
		c1,0,2-0.3,3-0.9C574.9,693.8,575.6,693.1,576.1,692.2z"/>
	<path class="st1" d="M611.6,663.5h1.2v8.5h8.8v1.8h-8.8v16.3c0,1.7,0.4,3,1.2,3.9c0.8,0.9,1.9,1.4,3.4,1.4c1.7,0,3.3-0.8,4.7-2.4
		l0.8,0.9c-2.2,2.8-4.7,4.2-7.6,4.2c-2.2,0-3.9-0.7-5.3-2.1c-1.3-1.4-2-3.1-2-5.3v-16.9h-4.8v-1.2
		C606.7,670.8,609.5,667.8,611.6,663.5z"/>
	<path class="st1" d="M653,684.7c0,3.8-1.3,7-4,9.5s-5.9,3.8-9.9,3.8s-7.2-1.3-9.9-3.8s-4-5.7-4-9.5c0-3.9,1.3-7.1,3.9-9.6
		c2.6-2.5,5.9-3.8,9.9-3.8s7.3,1.3,9.9,3.8C651.7,677.7,653,680.9,653,684.7z M647.8,684.8c0-3.6-0.8-6.5-2.3-8.7
		c-1.5-2.2-3.6-3.3-6.3-3.3s-4.7,1.1-6.3,3.2s-2.3,5.1-2.3,8.8c0,3.6,0.8,6.5,2.3,8.7s3.6,3.2,6.3,3.2s4.8-1.1,6.3-3.3
		C647,691.2,647.8,688.3,647.8,684.8z"/>
	<path class="st1" d="M677.4,692v-12.5c0-1.7-0.5-3-1.4-4s-2.2-1.5-3.7-1.5c-1.4,0-2.7,0.4-3.8,1.1s-2.3,2-3.5,3.7v13.9
		c0,1.3,0.3,2.2,0.9,2.7c0.6,0.5,1.7,0.7,3.3,0.7v1.2h-13.5v-1.2c1.9,0,3.2-0.4,3.7-0.9s0.8-1.9,0.8-3.9v-32.9c0-1.5-0.3-2.5-0.8-3
		c-0.5-0.5-1.8-0.8-3.7-0.8v-1.2l8.1-0.9h1.2v23.9c1.6-1.9,3.1-3.2,4.4-3.9c1.3-0.8,2.8-1.1,4.4-1.1c2.5,0,4.5,0.8,6.1,2.4
		c1.6,1.6,2.4,3.7,2.4,6.4v11.2c0,2,0.3,3.3,0.8,3.9s1.6,0.9,3.3,0.9v1.2h-13.1v-1.2c1.7,0,2.8-0.3,3.4-0.8
		C677.2,694.8,677.4,693.7,677.4,692z"/>
	<path class="st1" d="M724.1,676.4l-6.5,6l10.5,10.5c1.2,1.2,2.2,2,3,2.5s1.9,0.7,3.1,0.8v1.2h-8.3l-13.1-12.6
		c0,6.6,0.3,10.2,0.8,10.7c0.6,0.5,1.7,0.7,3.4,0.7v1.2h-13.6v-1.2c2,0,3.2-0.4,3.7-0.9s0.8-1.9,0.8-3.9V658c0-1.5-0.3-2.4-0.8-2.8
		c-0.5-0.4-1.8-0.6-3.7-0.6v-1.2l8.1-0.9h1.2v31.9l6.8-6.2c1.3-1.2,1.9-2.2,1.9-3.2c0-1.1-1-1.7-3.1-1.7v-1.2h13.8v1.2H731
		C728.6,673.3,726.2,674.3,724.1,676.4z"/>
	<path class="st1" d="M747.3,672.1v1.2c-1.4,0.2-2.1,0.9-2.1,2.2c0,0.5,0.1,1,0.4,1.7l6.1,14.3l4.4-13.3c0.3-1.1,0.5-2,0.5-2.6
		c0-1.4-0.8-2.1-2.5-2.2v-1.2h8.9v1.2c-1.3,0-2.5,0.5-3.3,1.4c-0.9,0.9-1.7,2.4-2.4,4.5L747.2,709c-1,2.8-2.2,5.1-3.7,6.7
		s-3.1,2.5-4.6,2.5c-0.9,0-2-0.4-3.1-1.1l1.6-4.4c0.9,0.4,1.7,0.6,2.4,0.6c1.5,0,2.8-0.5,3.8-1.4c1-1,1.9-2.5,2.7-4.8l3.2-9.2
		l-9.1-20.9c-0.7-1.5-1.3-2.5-2-3c-0.7-0.5-1.7-0.7-3.1-0.8v-1.2H747.3z"/>
	<path class="st1" d="M772.4,698.1c-2,0-3.7-0.7-5.1-2c-1.4-1.3-2.1-2.9-2.1-4.8c0-1.8,0.6-3.2,1.8-4.4c1.2-1.1,3.7-2.2,7.4-3.3
		c2.3-0.7,3.9-1.2,4.7-1.7v-1.9c0-1.8-0.5-3.3-1.5-4.4c-1-1.1-2.4-1.7-4.1-1.7c-1.6,0-2.9,0.5-4.1,1.5c-1.2,1-2.1,2.3-2.5,4
		l-1.3-0.3c0.5-2.3,1.6-4.2,3.3-5.6c1.7-1.4,3.7-2.1,6-2.1c2.7,0,4.9,0.8,6.6,2.5c1.7,1.6,2.5,3.9,2.5,6.8v10.8
		c0,1.5,0.1,2.6,0.3,3.1c0.2,0.5,0.6,0.8,1.1,0.8c0.4,0,0.7-0.2,0.9-0.5c0.2-0.3,0.5-1,0.8-2h1.2c-0.1,1.6-0.6,2.8-1.5,3.8
		c-0.9,0.9-2,1.4-3.4,1.4c-2.1,0-3.5-1.2-4.3-3.6c-1.3,1.4-2.4,2.3-3.3,2.8C774.9,697.8,773.8,698.1,772.4,698.1z M779.2,692.2v-8.6
		c-0.7,0.3-1.8,0.7-3.1,1.1c-2.5,0.9-4.1,1.7-4.9,2.6c-0.7,0.8-1.1,2-1.1,3.4c0,1.3,0.4,2.3,1.1,3.3c0.8,0.9,1.7,1.4,2.7,1.4
		c1,0,2-0.3,3-0.9C778,693.8,778.8,693.1,779.2,692.2z"/>
	<path class="st1" d="M827.1,692v-12.5c0-1.7-0.5-3-1.4-4s-2.2-1.5-3.7-1.5c-1.4,0-2.7,0.4-3.8,1.1s-2.3,2-3.5,3.7v13.9
		c0,1.3,0.3,2.2,0.9,2.7c0.6,0.5,1.7,0.7,3.3,0.7v1.2h-13.5v-1.2c1.9,0,3.2-0.4,3.7-0.9s0.8-1.9,0.8-3.9v-32.9c0-1.5-0.3-2.5-0.8-3
		c-0.5-0.5-1.8-0.8-3.7-0.8v-1.2l8.1-0.9h1.2v23.9c1.6-1.9,3.1-3.2,4.4-3.9c1.3-0.8,2.8-1.1,4.4-1.1c2.5,0,4.5,0.8,6.1,2.4
		c1.6,1.6,2.4,3.7,2.4,6.4v11.2c0,2,0.3,3.3,0.8,3.9s1.6,0.9,3.3,0.9v1.2h-13.1v-1.2c1.7,0,2.8-0.3,3.4-0.8
		C826.8,694.8,827.1,693.7,827.1,692z"/>
	<path class="st1" d="M845.8,698.1c-2,0-3.7-0.7-5.1-2c-1.4-1.3-2.1-2.9-2.1-4.8c0-1.8,0.6-3.2,1.8-4.4c1.2-1.1,3.7-2.2,7.4-3.3
		c2.3-0.7,3.9-1.2,4.7-1.7v-1.9c0-1.8-0.5-3.3-1.5-4.4c-1-1.1-2.4-1.7-4.1-1.7c-1.6,0-2.9,0.5-4.1,1.5c-1.2,1-2.1,2.3-2.5,4
		l-1.3-0.3c0.5-2.3,1.6-4.2,3.3-5.6c1.7-1.4,3.7-2.1,6-2.1c2.7,0,4.9,0.8,6.6,2.5c1.7,1.6,2.5,3.9,2.5,6.8v10.8
		c0,1.5,0.1,2.6,0.3,3.1c0.2,0.5,0.6,0.8,1.1,0.8c0.4,0,0.7-0.2,0.9-0.5c0.2-0.3,0.5-1,0.8-2h1.2c-0.1,1.6-0.6,2.8-1.5,3.8
		c-0.9,0.9-2,1.4-3.4,1.4c-2.1,0-3.5-1.2-4.3-3.6c-1.3,1.4-2.4,2.3-3.3,2.8C848.2,697.8,847.1,698.1,845.8,698.1z M852.6,692.2v-8.6
		c-0.7,0.3-1.8,0.7-3.1,1.1c-2.5,0.9-4.1,1.7-4.9,2.6c-0.7,0.8-1.1,2-1.1,3.4c0,1.3,0.4,2.3,1.1,3.3c0.8,0.9,1.7,1.4,2.7,1.4
		c1,0,2-0.3,3-0.9C851.4,693.8,852.1,693.1,852.6,692.2z"/>
	<path class="st1" d="M871.9,671.3h1.2v21.3c0,1.4,0.3,2.3,0.9,2.8c0.6,0.5,1.7,0.7,3.3,0.7v1.2h-13.8v-1.2c2,0,3.3-0.2,3.9-0.7
		c0.6-0.5,0.9-1.4,0.9-2.8v-15.5c0-1.5-0.3-2.5-0.8-3c-0.5-0.5-1.9-0.7-4-0.7v-1.2L871.9,671.3z M870.8,658.3c0.9,0,1.6,0.3,2.2,0.9
		s0.9,1.3,0.9,2.2c0,0.9-0.3,1.6-0.9,2.2s-1.3,0.9-2.2,0.9c-0.9,0-1.6-0.3-2.2-0.9c-0.6-0.6-0.9-1.4-0.9-2.2c0-0.9,0.3-1.6,0.9-2.2
		C869.1,658.6,869.9,658.3,870.8,658.3z"/>
	<path class="st1" d="M911.6,673.9h-6.3v18.4c0,1.3,0.3,2.3,0.9,2.9c0.6,0.6,1.5,0.9,2.8,0.9h1.2v1.2h-14.3v-1.2h1.1
		c1.3,0,2.2-0.3,2.7-0.8s0.8-1.4,0.8-2.6v-18.8H897v-1.2c1.6-0.6,2.8-1.2,3.5-1.7v-5c0-3.9,1-7.2,2.9-9.7c1.9-2.6,4.6-3.8,7.9-3.8
		c2.9,0,5.3,0.7,7.1,2.1l-2.4,6.4h-1.2c0-0.4,0-0.7,0-1.1c0-1.9-0.4-3.3-1.3-4.3c-0.8-1-2-1.5-3.5-1.5c-1.5,0-2.6,0.5-3.4,1.6
		c-0.8,1-1.3,2.5-1.3,4.4v12.2h6.3V673.9z"/>
	<path class="st1" d="M922.8,671.3h1.2v21.3c0,1.4,0.3,2.3,0.9,2.8c0.6,0.5,1.7,0.7,3.3,0.7v1.2h-13.8v-1.2c2,0,3.3-0.2,3.9-0.7
		c0.6-0.5,0.9-1.4,0.9-2.8v-15.5c0-1.5-0.3-2.5-0.8-3c-0.5-0.5-1.9-0.7-4-0.7v-1.2L922.8,671.3z M921.7,658.3c0.9,0,1.6,0.3,2.2,0.9
		s0.9,1.3,0.9,2.2c0,0.9-0.3,1.6-0.9,2.2s-1.3,0.9-2.2,0.9c-0.9,0-1.6-0.3-2.2-0.9c-0.6-0.6-0.9-1.4-0.9-2.2c0-0.9,0.3-1.6,0.9-2.2
		C920,658.6,920.8,658.3,921.7,658.3z"/>
	<path class="st1" d="M951,676.4l-6.5,6l10.5,10.5c1.2,1.2,2.2,2,3,2.5s1.9,0.7,3.1,0.8v1.2h-8.3l-13.1-12.6
		c0,6.6,0.3,10.2,0.8,10.7c0.6,0.5,1.7,0.7,3.4,0.7v1.2h-13.6v-1.2c2,0,3.2-0.4,3.7-0.9s0.8-1.9,0.8-3.9V658c0-1.5-0.3-2.4-0.8-2.8
		c-0.5-0.4-1.8-0.6-3.7-0.6v-1.2l8.1-0.9h1.2v31.9l6.8-6.2c1.3-1.2,1.9-2.2,1.9-3.2c0-1.1-1-1.7-3.1-1.7v-1.2h13.8v1.2h-1.2
		C955.5,673.3,953.1,674.3,951,676.4z"/>
	<path class="st1" d="M970.3,698.1c-2,0-3.7-0.7-5.1-2c-1.4-1.3-2.1-2.9-2.1-4.8c0-1.8,0.6-3.2,1.8-4.4c1.2-1.1,3.7-2.2,7.4-3.3
		c2.3-0.7,3.9-1.2,4.7-1.7v-1.9c0-1.8-0.5-3.3-1.5-4.4c-1-1.1-2.4-1.7-4.1-1.7c-1.6,0-2.9,0.5-4.1,1.5c-1.2,1-2.1,2.3-2.5,4
		l-1.3-0.3c0.5-2.3,1.6-4.2,3.3-5.6c1.7-1.4,3.7-2.1,6-2.1c2.7,0,4.9,0.8,6.6,2.5c1.7,1.6,2.5,3.9,2.5,6.8v10.8
		c0,1.5,0.1,2.6,0.3,3.1c0.2,0.5,0.6,0.8,1.1,0.8c0.4,0,0.7-0.2,0.9-0.5c0.2-0.3,0.5-1,0.8-2h1.2c-0.1,1.6-0.6,2.8-1.5,3.8
		c-0.9,0.9-2,1.4-3.4,1.4c-2.1,0-3.5-1.2-4.3-3.6c-1.3,1.4-2.4,2.3-3.3,2.8C972.8,697.8,971.6,698.1,970.3,698.1z M977.1,692.2v-8.6
		c-0.7,0.3-1.8,0.7-3.1,1.1c-2.5,0.9-4.1,1.7-4.9,2.6c-0.7,0.8-1.1,2-1.1,3.4c0,1.3,0.4,2.3,1.1,3.3c0.8,0.9,1.7,1.4,2.7,1.4
		c1,0,2-0.3,3-0.9C975.9,693.8,976.6,693.1,977.1,692.2z"/>
	<path class="st1" d="M997.6,671.3v5.5c2.3-2,4.1-3.4,5.4-4.2c1.3-0.8,2.4-1.2,3.2-1.2c1.6,0,3.1,0.7,4.6,2l-1.9,4.5
		c-2.7-1.5-4.7-2.2-6-2.2c-1.4,0-3.2,1-5.4,3.1v13.9c0,1.4,0.3,2.3,0.9,2.8c0.6,0.5,1.7,0.7,3.3,0.7v1.2h-13.3v-1.2
		c1.8,0,2.9-0.3,3.5-0.8c0.5-0.6,0.8-1.9,0.8-4v-13.8c0-1.7-0.3-2.9-0.9-3.4c-0.6-0.5-2-0.8-4.3-0.8v-1.2l8.8-0.8H997.6z"/>
	<path class="st1" d="M1011.4,709.5v-1.2c1.9-1,3.2-2,3.9-3.2c0.7-1.2,1.1-2.8,1.1-4.8c0-0.5-0.1-0.9-0.2-1s-0.5-0.2-1.1-0.2
		c-1,0-1.9-0.3-2.6-1c-0.7-0.7-1.1-1.5-1.1-2.4c0-0.9,0.3-1.7,1-2.4c0.7-0.6,1.5-1,2.4-1c1.6,0,2.8,0.6,3.8,1.9
		c1,1.3,1.5,2.9,1.5,4.9c0,2.5-0.8,4.7-2.4,6.6C1016.1,707.7,1014,708.9,1011.4,709.5z"/>
</g>
<g class="st0">
	<path class="st1" d="M151,756.2h21.2v1.2l-16,22.7h7.9c2.6,0,4.6-0.5,5.7-1.5c1.2-1,1.8-2.7,1.9-4.9h1.2l-0.7,7.7h-21.8v-1.2
		l16-22.7h-7.1c-2.2,0-3.9,0.6-5.3,1.7c-1.4,1.1-2.2,2.6-2.4,4.5h-1.2L151,756.2z"/>
	<path class="st1" d="M183.7,755.4h1.2v21.3c0,1.4,0.3,2.3,0.9,2.8c0.6,0.5,1.7,0.7,3.3,0.7v1.2h-13.8v-1.2c2,0,3.3-0.2,3.9-0.7
		c0.6-0.5,0.9-1.4,0.9-2.8v-15.5c0-1.5-0.3-2.5-0.8-3c-0.5-0.5-1.9-0.7-4-0.7v-1.2L183.7,755.4z M182.6,742.4c0.9,0,1.6,0.3,2.2,0.9
		s0.9,1.3,0.9,2.2c0,0.9-0.3,1.6-0.9,2.2s-1.3,0.9-2.2,0.9c-0.9,0-1.6-0.3-2.2-0.9c-0.6-0.6-0.9-1.4-0.9-2.2c0-0.9,0.3-1.6,0.9-2.2
		C180.9,742.7,181.7,742.4,182.6,742.4z"/>
	<path class="st1" d="M200.4,755.4v5c2.9-3.4,6-5,9.1-5c2.4,0,4.5,0.8,6.1,2.5c1.6,1.7,2.4,3.9,2.4,6.6v11.4c0,1.7,0.3,2.9,0.9,3.5
		c0.6,0.6,1.7,0.8,3.4,0.8v1.2h-13.5v-1.2c1.7,0,2.8-0.2,3.4-0.6c0.6-0.4,0.9-1.3,0.9-2.5v-13.2c0-1.8-0.5-3.2-1.6-4.2
		c-1.1-1-2.4-1.6-4.1-1.6c-2.4,0-4.8,1.6-7.2,4.9v12.4c0,2.1,0.3,3.4,0.8,4c0.5,0.6,1.7,0.9,3.4,0.9v1.2h-13.3v-1.2
		c1.9,0,3.1-0.3,3.6-0.9s0.7-1.9,0.7-3.9v-14.3c0-1.5-0.3-2.5-0.8-3c-0.5-0.5-1.7-0.7-3.4-0.7v-1.2l7.9-0.8H200.4z"/>
	<path class="st1" d="M249.4,736.6h1.2v39.9c0,1.4,0.3,2.4,0.9,2.9c0.6,0.5,1.7,0.8,3.3,0.8v1.2h-14.7c-4.5,0-8.1-1.2-10.7-3.7
		s-4-5.6-4-9.4c0-3.6,1.2-6.6,3.5-9.1c2.3-2.5,5.1-3.7,8.4-3.7c2.6,0,5.5,1,8.5,3.1V743c0-1.7-0.2-2.8-0.7-3.4
		c-0.4-0.6-1.3-0.9-2.7-0.9H241v-1.2L249.4,736.6z M245.7,776.4v-15.2c-1-1.3-2.1-2.4-3.4-3.1c-1.3-0.8-2.6-1.1-3.9-1.1
		c-2.3,0-4.2,0.9-5.6,2.8c-1.4,1.9-2.1,4.4-2.1,7.4c0,3.9,1,7.1,2.9,9.5c1.9,2.4,4.6,3.6,8.1,3.6c1.4,0,2.4-0.3,3.1-0.9
		C245.4,778.7,245.7,777.7,245.7,776.4z"/>
	<path class="st1" d="M265.3,782.2c-2,0-3.7-0.7-5.1-2c-1.4-1.3-2.1-2.9-2.1-4.8c0-1.8,0.6-3.2,1.8-4.4c1.2-1.1,3.7-2.2,7.4-3.3
		c2.3-0.7,3.9-1.2,4.7-1.7v-1.9c0-1.8-0.5-3.3-1.5-4.4c-1-1.1-2.4-1.7-4.1-1.7c-1.6,0-2.9,0.5-4.1,1.5c-1.2,1-2.1,2.3-2.5,4
		l-1.3-0.3c0.5-2.3,1.6-4.2,3.3-5.6c1.7-1.4,3.7-2.1,6-2.1c2.7,0,4.9,0.8,6.6,2.5s2.5,3.9,2.5,6.8v10.8c0,1.5,0.1,2.6,0.3,3.1
		c0.2,0.5,0.6,0.8,1.1,0.8c0.4,0,0.7-0.2,0.9-0.5c0.2-0.3,0.5-1,0.8-2h1.2c-0.1,1.6-0.6,2.8-1.5,3.8c-0.9,0.9-2,1.4-3.4,1.4
		c-2.1,0-3.5-1.2-4.3-3.6c-1.3,1.4-2.4,2.3-3.3,2.8C267.7,781.9,266.6,782.2,265.3,782.2z M272.1,776.2v-8.6
		c-0.7,0.3-1.8,0.7-3.1,1.1c-2.5,0.9-4.1,1.7-4.9,2.6c-0.7,0.8-1.1,2-1.1,3.4c0,1.3,0.4,2.3,1.1,3.3c0.8,0.9,1.7,1.4,2.7,1.4
		c1,0,1.9-0.3,3-0.9C270.9,777.9,271.6,777.1,272.1,776.2z"/>
	<path class="st1" d="M302.7,755.7h8.1v2.9h-6.7c1.9,2.3,2.9,4.7,2.9,7.3c0,2.6-0.9,4.8-2.8,6.8c-1.8,2-4.1,3-6.6,3.2
		c-1.8,0.1-3.7,0.7-5.5,1.8c-1.8,1.1-2.7,2.1-2.7,2.9c0,0.9,0.5,1.6,1.4,2.1c1,0.5,3.2,1,6.8,1.6c3.9,0.7,6.7,1.4,8.2,1.9
		s2.7,1.4,3.6,2.5s1.3,2.3,1.3,3.7c0,3-1.5,5.5-4.5,7.5c-3,2-6.7,3.1-11,3.1c-3.7,0-6.7-0.7-9-2.1s-3.4-3.3-3.4-5.6
		c0-1.6,0.7-3,2-4.3s3.4-2.5,6.2-3.6v-0.1c-1.7-0.4-3.1-1-4-1.8c-1-0.8-1.5-1.8-1.5-2.8c0-2.8,2.6-5.1,7.8-6.9v-0.1
		c-2.5-0.7-4.5-1.8-5.9-3.5c-1.4-1.7-2.1-3.7-2.1-6c0-3,1-5.6,3-7.6c2-2,4.6-3,7.7-3c0.6,0,1.7,0,3.3,0.1
		C301.1,755.6,302.2,755.7,302.7,755.7z M308.2,794.6c0-1.6-1-2.9-3.1-3.8c-2.1-0.9-6-1.9-11.7-2.9c-4.9,1.3-7.3,3.3-7.3,6
		c0,1.8,1.2,3.3,3.6,4.5c2.4,1.2,5.4,1.8,9.1,1.8c2.8,0,5.1-0.5,6.9-1.6C307.3,797.7,308.2,796.3,308.2,794.6z M290,765.4
		c0,2.7,0.6,4.9,1.7,6.6c1.1,1.7,2.6,2.5,4.5,2.5c1.9,0,3.5-0.8,4.6-2.5s1.7-3.9,1.7-6.7c0-2.6-0.6-4.6-1.7-6.2s-2.6-2.4-4.5-2.4
		c-1.9,0-3.4,0.8-4.6,2.4C290.5,760.8,290,762.9,290,765.4z"/>
	<path class="st1" d="M322.6,755.4h1.2v21.3c0,1.4,0.3,2.3,0.9,2.8c0.6,0.5,1.7,0.7,3.3,0.7v1.2h-13.8v-1.2c2,0,3.3-0.2,3.9-0.7
		c0.6-0.5,0.9-1.4,0.9-2.8v-15.5c0-1.5-0.3-2.5-0.8-3c-0.5-0.5-1.9-0.7-4-0.7v-1.2L322.6,755.4z M321.4,742.4c0.9,0,1.6,0.3,2.2,0.9
		s0.9,1.3,0.9,2.2c0,0.9-0.3,1.6-0.9,2.2s-1.3,0.9-2.2,0.9c-0.9,0-1.6-0.3-2.2-0.9c-0.6-0.6-0.9-1.4-0.9-2.2c0-0.9,0.3-1.6,0.9-2.2
		C319.8,742.7,320.6,742.4,321.4,742.4z"/>
	<path class="st1" d="M366.8,760.4l-6.5,6l10.5,10.5c1.2,1.2,2.2,2,3,2.5c0.8,0.4,1.9,0.7,3.1,0.8v1.2h-8.3l-13.1-12.6
		c0,6.6,0.3,10.2,0.8,10.7c0.6,0.5,1.7,0.7,3.4,0.7v1.2h-13.6v-1.2c1.9,0,3.2-0.4,3.7-0.9c0.5-0.6,0.8-1.9,0.8-3.9v-33.2
		c0-1.5-0.3-2.4-0.8-2.8s-1.8-0.6-3.7-0.6v-1.2l8.1-0.9h1.2v31.9l6.8-6.2c1.3-1.2,1.9-2.2,1.9-3.2c0-1.1-1-1.7-3.1-1.7v-1.2h13.8
		v1.2h-1.2C371.3,757.4,369,758.4,366.8,760.4z"/>
	<path class="st1" d="M386.1,782.2c-2,0-3.7-0.7-5.1-2c-1.4-1.3-2.1-2.9-2.1-4.8c0-1.8,0.6-3.2,1.8-4.4c1.2-1.1,3.7-2.2,7.4-3.3
		c2.3-0.7,3.9-1.2,4.7-1.7v-1.9c0-1.8-0.5-3.3-1.5-4.4c-1-1.1-2.4-1.7-4.1-1.7c-1.6,0-2.9,0.5-4.1,1.5c-1.2,1-2.1,2.3-2.5,4
		l-1.3-0.3c0.5-2.3,1.6-4.2,3.3-5.6c1.7-1.4,3.7-2.1,6-2.1c2.7,0,4.9,0.8,6.6,2.5s2.5,3.9,2.5,6.8v10.8c0,1.5,0.1,2.6,0.3,3.1
		c0.2,0.5,0.6,0.8,1.1,0.8c0.4,0,0.7-0.2,0.9-0.5c0.2-0.3,0.5-1,0.8-2h1.2c-0.1,1.6-0.6,2.8-1.5,3.8c-0.9,0.9-2,1.4-3.4,1.4
		c-2.1,0-3.5-1.2-4.3-3.6c-1.3,1.4-2.4,2.3-3.3,2.8C388.6,781.9,387.4,782.2,386.1,782.2z M392.9,776.2v-8.6
		c-0.7,0.3-1.8,0.7-3.1,1.1c-2.5,0.9-4.1,1.7-4.9,2.6c-0.7,0.8-1.1,2-1.1,3.4c0,1.3,0.4,2.3,1.1,3.3c0.8,0.9,1.7,1.4,2.7,1.4
		c1,0,1.9-0.3,3-0.9C391.7,777.9,392.5,777.1,392.9,776.2z"/>
	<path class="st1" d="M440.8,776.1v-12.5c0-1.7-0.5-3-1.4-4c-0.9-1-2.2-1.5-3.7-1.5c-1.4,0-2.7,0.4-3.8,1.1s-2.3,2-3.5,3.7v13.9
		c0,1.3,0.3,2.2,0.9,2.7c0.6,0.5,1.7,0.7,3.3,0.7v1.2H419v-1.2c1.9,0,3.2-0.4,3.7-0.9c0.5-0.6,0.8-1.9,0.8-3.9v-32.9
		c0-1.5-0.3-2.5-0.8-3c-0.5-0.5-1.8-0.8-3.7-0.8v-1.2l8.1-0.9h1.2v23.9c1.6-1.9,3.1-3.2,4.4-3.9c1.3-0.8,2.8-1.1,4.4-1.1
		c2.5,0,4.5,0.8,6.1,2.4c1.6,1.6,2.4,3.7,2.4,6.4v11.2c0,2,0.3,3.3,0.8,3.9c0.5,0.6,1.6,0.9,3.3,0.9v1.2h-13.1v-1.2
		c1.7,0,2.8-0.3,3.4-0.8C440.5,778.8,440.8,777.7,440.8,776.1z"/>
	<path class="st1" d="M459.4,782.2c-2,0-3.7-0.7-5.1-2c-1.4-1.3-2.1-2.9-2.1-4.8c0-1.8,0.6-3.2,1.8-4.4c1.2-1.1,3.7-2.2,7.4-3.3
		c2.3-0.7,3.9-1.2,4.7-1.7v-1.9c0-1.8-0.5-3.3-1.5-4.4c-1-1.1-2.4-1.7-4.1-1.7c-1.6,0-2.9,0.5-4.1,1.5c-1.2,1-2.1,2.3-2.5,4
		l-1.3-0.3c0.5-2.3,1.6-4.2,3.3-5.6c1.7-1.4,3.7-2.1,6-2.1c2.7,0,4.9,0.8,6.6,2.5s2.5,3.9,2.5,6.8v10.8c0,1.5,0.1,2.6,0.3,3.1
		c0.2,0.5,0.6,0.8,1.1,0.8c0.4,0,0.7-0.2,0.9-0.5c0.2-0.3,0.5-1,0.8-2h1.2c-0.1,1.6-0.6,2.8-1.5,3.8c-0.9,0.9-2,1.4-3.4,1.4
		c-2.1,0-3.5-1.2-4.3-3.6c-1.3,1.4-2.4,2.3-3.3,2.8C461.9,781.9,460.8,782.2,459.4,782.2z M466.2,776.2v-8.6
		c-0.7,0.3-1.8,0.7-3.1,1.1c-2.5,0.9-4.1,1.7-4.9,2.6c-0.7,0.8-1.1,2-1.1,3.4c0,1.3,0.4,2.3,1.1,3.3c0.8,0.9,1.7,1.4,2.7,1.4
		c1,0,1.9-0.3,3-0.9C465,777.9,465.8,777.1,466.2,776.2z"/>
	<path class="st1" d="M494.9,755.4v7.8h-1.4c-0.2-2-0.9-3.5-2.1-4.6c-1.2-1.1-2.6-1.7-4.2-1.7c-1.3,0-2.3,0.3-3,0.9
		s-1.1,1.5-1.1,2.5c0,1,0.4,1.9,1.1,2.7c0.7,0.8,2.2,1.7,4.6,2.8c3.1,1.4,5.1,2.7,6.1,4c1,1.3,1.5,2.8,1.5,4.6
		c0,2.1-0.8,3.9-2.4,5.5c-1.6,1.5-3.4,2.3-5.6,2.3c-1.1,0-2.6-0.4-4.4-1.2c-1-0.4-1.7-0.7-2-0.7c-0.4,0-0.8,0.2-1.1,0.5
		c-0.3,0.3-0.5,0.7-0.5,1.2h-1.2v-8.6h1.2c0.4,2.3,1.4,4.1,2.9,5.4c1.5,1.3,3.2,2,5.2,2c1.3,0,2.3-0.4,3.2-1.3
		c0.8-0.8,1.3-1.9,1.3-3.1c0-1.2-0.4-2.2-1.2-3.1c-0.8-0.9-2.5-1.9-5.1-3c-2.9-1.3-4.8-2.5-5.8-3.6c-0.9-1.1-1.4-2.5-1.4-4
		c0-2,0.8-3.7,2.3-5.1s3.3-2.1,5.4-2.1c1,0,2,0.2,3.2,0.7c0.8,0.3,1.5,0.5,2,0.5c0.7,0,1.2-0.4,1.5-1.2H494.9z"/>
	<path class="st1" d="M525.1,774.9v1.8c-1.5,1.9-3.1,3.3-4.7,4.2c-1.6,0.8-3.5,1.3-5.7,1.3c-3.9,0-7.2-1.2-9.8-3.7
		c-2.6-2.5-3.8-5.6-3.8-9.4c0-3.8,1.2-7.1,3.7-9.7c2.4-2.6,5.4-3.9,9-3.9c2.9,0,5.5,1,7.7,3c2.2,2,3.3,4.3,3.3,7.1v0.5h-18.6v0.3
		c0,2.8,0.4,5.2,1.3,7.3c0.8,2.1,2.1,3.7,3.7,4.8c1.6,1.2,3.3,1.7,5.1,1.7c1.6,0,3.1-0.3,4.2-1C521.6,778.4,523.1,777,525.1,774.9z
		 M506.1,764.7h13.8v-0.5c0-2.3-0.6-4-1.9-5.4c-1.3-1.3-2.9-2-4.8-2c-2,0-3.7,0.7-4.9,2.1C506.9,760.4,506.2,762.3,506.1,764.7z"/>
	<path class="st1" d="M554,774.9v1.8c-1.5,1.9-3.1,3.3-4.7,4.2c-1.6,0.8-3.5,1.3-5.7,1.3c-3.9,0-7.2-1.2-9.8-3.7
		c-2.6-2.5-3.8-5.6-3.8-9.4c0-3.8,1.2-7.1,3.7-9.7c2.4-2.6,5.4-3.9,9-3.9c2.9,0,5.5,1,7.7,3c2.2,2,3.3,4.3,3.3,7.1v0.5H535v0.3
		c0,2.8,0.4,5.2,1.3,7.3c0.8,2.1,2.1,3.7,3.7,4.8c1.6,1.2,3.3,1.7,5.1,1.7c1.6,0,3.1-0.3,4.2-1C550.5,778.4,552.1,777,554,774.9z
		 M535,764.7h13.8v-0.5c0-2.3-0.6-4-1.9-5.4c-1.3-1.3-2.9-2-4.8-2c-2,0-3.7,0.7-4.9,2.1C535.9,760.4,535.2,762.3,535,764.7z"/>
	<path class="st1" d="M566.1,755.4v5c2.9-3.4,6-5,9.1-5c2.4,0,4.5,0.8,6.1,2.5s2.4,3.9,2.4,6.6v11.4c0,1.7,0.3,2.9,0.9,3.5
		s1.7,0.8,3.4,0.8v1.2h-13.5v-1.2c1.7,0,2.8-0.2,3.4-0.6c0.6-0.4,0.9-1.3,0.9-2.5v-13.2c0-1.8-0.5-3.2-1.6-4.2
		c-1.1-1-2.4-1.6-4.1-1.6c-2.4,0-4.8,1.6-7.2,4.9v12.4c0,2.1,0.3,3.4,0.8,4c0.5,0.6,1.7,0.9,3.4,0.9v1.2H557v-1.2
		c1.9,0,3.1-0.3,3.6-0.9c0.4-0.6,0.7-1.9,0.7-3.9v-14.3c0-1.5-0.3-2.5-0.8-3c-0.5-0.5-1.7-0.7-3.4-0.7v-1.2l7.9-0.8H566.1z"/>
	<path class="st1" d="M627,776.1v-12.5c0-1.7-0.5-3-1.4-4s-2.2-1.5-3.7-1.5c-1.4,0-2.7,0.4-3.8,1.1s-2.3,2-3.5,3.7v13.9
		c0,1.3,0.3,2.2,0.9,2.7c0.6,0.5,1.7,0.7,3.3,0.7v1.2h-13.5v-1.2c1.9,0,3.2-0.4,3.7-0.9c0.5-0.6,0.8-1.9,0.8-3.9v-32.9
		c0-1.5-0.3-2.5-0.8-3c-0.5-0.5-1.8-0.8-3.7-0.8v-1.2l8.1-0.9h1.2v23.9c1.6-1.9,3.1-3.2,4.4-3.9c1.3-0.8,2.8-1.1,4.4-1.1
		c2.5,0,4.5,0.8,6.1,2.4c1.6,1.6,2.4,3.7,2.4,6.4v11.2c0,2,0.3,3.3,0.8,3.9c0.5,0.6,1.6,0.9,3.3,0.9v1.2h-13.1v-1.2
		c1.7,0,2.8-0.3,3.4-0.8C626.7,778.8,627,777.7,627,776.1z"/>
	<path class="st1" d="M645.7,755.4h1.2v21.3c0,1.4,0.3,2.3,0.9,2.8c0.6,0.5,1.7,0.7,3.3,0.7v1.2h-13.8v-1.2c2,0,3.3-0.2,3.9-0.7
		c0.6-0.5,0.9-1.4,0.9-2.8v-15.5c0-1.5-0.3-2.5-0.8-3c-0.5-0.5-1.9-0.7-4-0.7v-1.2L645.7,755.4z M644.6,742.4c0.9,0,1.6,0.3,2.2,0.9
		s0.9,1.3,0.9,2.2c0,0.9-0.3,1.6-0.9,2.2s-1.3,0.9-2.2,0.9c-0.9,0-1.6-0.3-2.2-0.9s-0.9-1.4-0.9-2.2c0-0.9,0.3-1.6,0.9-2.2
		S643.7,742.4,644.6,742.4z"/>
	<path class="st1" d="M690.6,776.1v-12.5c0-1.7-0.5-3-1.4-4s-2.2-1.5-3.7-1.5c-1.4,0-2.7,0.4-3.8,1.1s-2.3,2-3.5,3.7v13.9
		c0,1.3,0.3,2.2,0.9,2.7c0.6,0.5,1.7,0.7,3.3,0.7v1.2h-13.5v-1.2c1.9,0,3.2-0.4,3.7-0.9s0.8-1.9,0.8-3.9v-32.9c0-1.5-0.3-2.5-0.8-3
		c-0.5-0.5-1.8-0.8-3.7-0.8v-1.2l8.1-0.9h1.2v23.9c1.6-1.9,3.1-3.2,4.4-3.9c1.3-0.8,2.8-1.1,4.4-1.1c2.5,0,4.5,0.8,6.1,2.4
		c1.6,1.6,2.4,3.7,2.4,6.4v11.2c0,2,0.3,3.3,0.8,3.9s1.6,0.9,3.3,0.9v1.2h-13.1v-1.2c1.7,0,2.8-0.3,3.4-0.8
		C690.3,778.8,690.6,777.7,690.6,776.1z"/>
	<path class="st1" d="M730.1,768.8c0,3.8-1.3,7-4,9.5s-5.9,3.8-9.9,3.8s-7.2-1.3-9.9-3.8s-4-5.7-4-9.5c0-3.9,1.3-7.1,3.9-9.6
		c2.6-2.5,5.9-3.8,9.9-3.8s7.3,1.3,9.9,3.8C728.8,761.8,730.1,765,730.1,768.8z M724.8,768.8c0-3.6-0.8-6.5-2.3-8.7
		c-1.5-2.2-3.6-3.3-6.3-3.3s-4.7,1.1-6.3,3.2s-2.3,5.1-2.3,8.8c0,3.6,0.8,6.5,2.3,8.7s3.6,3.2,6.3,3.2s4.8-1.1,6.3-3.3
		C724.1,775.3,724.8,772.4,724.8,768.8z"/>
	<path class="st1" d="M753.3,755.7h8.1v2.9h-6.7c1.9,2.3,2.9,4.7,2.9,7.3c0,2.6-0.9,4.8-2.8,6.8c-1.8,2-4.1,3-6.6,3.2
		c-1.8,0.1-3.7,0.7-5.5,1.8c-1.8,1.1-2.7,2.1-2.7,2.9c0,0.9,0.5,1.6,1.4,2.1c1,0.5,3.2,1,6.8,1.6c3.9,0.7,6.7,1.4,8.2,1.9
		s2.7,1.4,3.6,2.5s1.3,2.3,1.3,3.7c0,3-1.5,5.5-4.5,7.5c-3,2-6.7,3.1-11,3.1c-3.7,0-6.7-0.7-9-2.1c-2.3-1.4-3.4-3.3-3.4-5.6
		c0-1.6,0.7-3,2-4.3s3.4-2.5,6.2-3.6v-0.1c-1.7-0.4-3.1-1-4-1.8c-1-0.8-1.5-1.8-1.5-2.8c0-2.8,2.6-5.1,7.8-6.9v-0.1
		c-2.5-0.7-4.5-1.8-5.9-3.5c-1.4-1.7-2.1-3.7-2.1-6c0-3,1-5.6,3-7.6s4.6-3,7.7-3c0.6,0,1.7,0,3.3,0.1S752.8,755.7,753.3,755.7z
		 M758.8,794.6c0-1.6-1-2.9-3.1-3.8c-2.1-0.9-6-1.9-11.7-2.9c-4.9,1.3-7.3,3.3-7.3,6c0,1.8,1.2,3.3,3.6,4.5c2.4,1.2,5.4,1.8,9.1,1.8
		c2.8,0,5.1-0.5,6.9-1.6C757.9,797.7,758.8,796.3,758.8,794.6z M740.6,765.4c0,2.7,0.6,4.9,1.7,6.6c1.1,1.7,2.6,2.5,4.5,2.5
		c1.9,0,3.5-0.8,4.6-2.5s1.7-3.9,1.7-6.7c0-2.6-0.6-4.6-1.7-6.2c-1.1-1.6-2.6-2.4-4.5-2.4c-1.9,0-3.4,0.8-4.6,2.4
		C741.1,760.8,740.6,762.9,740.6,765.4z"/>
	<path class="st1" d="M771.7,782.2c-2,0-3.7-0.7-5.1-2c-1.4-1.3-2.1-2.9-2.1-4.8c0-1.8,0.6-3.2,1.8-4.4c1.2-1.1,3.7-2.2,7.4-3.3
		c2.3-0.7,3.9-1.2,4.7-1.7v-1.9c0-1.8-0.5-3.3-1.5-4.4c-1-1.1-2.4-1.7-4.1-1.7c-1.6,0-2.9,0.5-4.1,1.5c-1.2,1-2.1,2.3-2.5,4
		l-1.3-0.3c0.5-2.3,1.6-4.2,3.3-5.6c1.7-1.4,3.7-2.1,6-2.1c2.7,0,4.9,0.8,6.6,2.5c1.7,1.6,2.5,3.9,2.5,6.8v10.8
		c0,1.5,0.1,2.6,0.3,3.1c0.2,0.5,0.6,0.8,1.1,0.8c0.4,0,0.7-0.2,0.9-0.5c0.2-0.3,0.5-1,0.8-2h1.2c-0.1,1.6-0.6,2.8-1.5,3.8
		c-0.9,0.9-2,1.4-3.4,1.4c-2.1,0-3.5-1.2-4.3-3.6c-1.3,1.4-2.4,2.3-3.3,2.8C774.1,781.9,773,782.2,771.7,782.2z M778.4,776.2v-8.6
		c-0.7,0.3-1.8,0.7-3.1,1.1c-2.5,0.9-4.1,1.7-4.9,2.6c-0.7,0.8-1.1,2-1.1,3.4c0,1.3,0.4,2.3,1.1,3.3c0.8,0.9,1.7,1.4,2.7,1.4
		c1,0,2-0.3,3-0.9C777.3,777.9,778,777.1,778.4,776.2z"/>
	<path class="st1" d="M823.1,755.4v7.8h-1.4c-0.2-2-0.9-3.5-2.1-4.6c-1.2-1.1-2.6-1.7-4.2-1.7c-1.3,0-2.3,0.3-3,0.9
		c-0.8,0.6-1.1,1.5-1.1,2.5c0,1,0.4,1.9,1.1,2.7c0.7,0.8,2.2,1.7,4.6,2.8c3.1,1.4,5.1,2.7,6.1,4c1,1.3,1.5,2.8,1.5,4.6
		c0,2.1-0.8,3.9-2.4,5.5s-3.4,2.3-5.6,2.3c-1.1,0-2.6-0.4-4.4-1.2c-1-0.4-1.7-0.7-2-0.7c-0.4,0-0.8,0.2-1.1,0.5s-0.5,0.7-0.5,1.2
		h-1.2v-8.6h1.2c0.4,2.3,1.4,4.1,2.9,5.4c1.5,1.3,3.2,2,5.2,2c1.3,0,2.3-0.4,3.2-1.3c0.8-0.8,1.3-1.9,1.3-3.1c0-1.2-0.4-2.2-1.2-3.1
		c-0.8-0.9-2.5-1.9-5.1-3c-2.9-1.3-4.8-2.5-5.8-3.6c-0.9-1.1-1.4-2.5-1.4-4c0-2,0.8-3.7,2.3-5.1c1.5-1.4,3.3-2.1,5.4-2.1
		c1,0,2,0.2,3.2,0.7c0.8,0.3,1.5,0.5,2,0.5c0.7,0,1.2-0.4,1.5-1.2H823.1z"/>
	<path class="st1" d="M836.1,782.2c-2,0-3.7-0.7-5.1-2c-1.4-1.3-2.1-2.9-2.1-4.8c0-1.8,0.6-3.2,1.8-4.4c1.2-1.1,3.7-2.2,7.4-3.3
		c2.3-0.7,3.9-1.2,4.7-1.7v-1.9c0-1.8-0.5-3.3-1.5-4.4c-1-1.1-2.4-1.7-4.1-1.7c-1.6,0-2.9,0.5-4.1,1.5c-1.2,1-2.1,2.3-2.5,4
		l-1.3-0.3c0.5-2.3,1.6-4.2,3.3-5.6c1.7-1.4,3.7-2.1,6-2.1c2.7,0,4.9,0.8,6.6,2.5c1.7,1.6,2.5,3.9,2.5,6.8v10.8
		c0,1.5,0.1,2.6,0.3,3.1c0.2,0.5,0.6,0.8,1.1,0.8c0.4,0,0.7-0.2,0.9-0.5c0.2-0.3,0.5-1,0.8-2h1.2c-0.1,1.6-0.6,2.8-1.5,3.8
		c-0.9,0.9-2,1.4-3.4,1.4c-2.1,0-3.5-1.2-4.3-3.6c-1.3,1.4-2.4,2.3-3.3,2.8C838.5,781.9,837.4,782.2,836.1,782.2z M842.9,776.2v-8.6
		c-0.7,0.3-1.8,0.7-3.1,1.1c-2.5,0.9-4.1,1.7-4.9,2.6c-0.7,0.8-1.1,2-1.1,3.4c0,1.3,0.4,2.3,1.1,3.3c0.8,0.9,1.7,1.4,2.7,1.4
		c1,0,2-0.3,3-0.9C841.7,777.9,842.4,777.1,842.9,776.2z"/>
	<path class="st1" d="M869.5,758h-6.3v18.4c0,1.3,0.3,2.3,0.9,2.9c0.6,0.6,1.5,0.9,2.8,0.9h1.2v1.2h-14.3v-1.2h1.1
		c1.3,0,2.2-0.3,2.7-0.8s0.8-1.4,0.8-2.6V758h-3.5v-1.2c1.6-0.6,2.8-1.2,3.5-1.7v-5c0-3.9,1-7.2,2.9-9.7c1.9-2.6,4.6-3.8,7.9-3.8
		c2.9,0,5.3,0.7,7.1,2.1L874,745h-1.2c0-0.4,0-0.7,0-1.1c0-1.9-0.4-3.3-1.3-4.3c-0.8-1-2-1.5-3.5-1.5c-1.5,0-2.6,0.5-3.4,1.6
		c-0.8,1-1.3,2.5-1.3,4.4v12.2h6.3V758z"/>
	<path class="st1" d="M880.3,782.2c-2,0-3.7-0.7-5.1-2c-1.4-1.3-2.1-2.9-2.1-4.8c0-1.8,0.6-3.2,1.8-4.4c1.2-1.1,3.7-2.2,7.4-3.3
		c2.3-0.7,3.9-1.2,4.7-1.7v-1.9c0-1.8-0.5-3.3-1.5-4.4c-1-1.1-2.4-1.7-4.1-1.7c-1.6,0-2.9,0.5-4.1,1.5c-1.2,1-2.1,2.3-2.5,4
		l-1.3-0.3c0.5-2.3,1.6-4.2,3.3-5.6c1.7-1.4,3.7-2.1,6-2.1c2.7,0,4.9,0.8,6.6,2.5c1.7,1.6,2.5,3.9,2.5,6.8v10.8
		c0,1.5,0.1,2.6,0.3,3.1c0.2,0.5,0.6,0.8,1.1,0.8c0.4,0,0.7-0.2,0.9-0.5c0.2-0.3,0.5-1,0.8-2h1.2c-0.1,1.6-0.6,2.8-1.5,3.8
		c-0.9,0.9-2,1.4-3.4,1.4c-2.1,0-3.5-1.2-4.3-3.6c-1.3,1.4-2.4,2.3-3.3,2.8C882.8,781.9,881.6,782.2,880.3,782.2z M887.1,776.2v-8.6
		c-0.7,0.3-1.8,0.7-3.1,1.1c-2.5,0.9-4.1,1.7-4.9,2.6c-0.7,0.8-1.1,2-1.1,3.4c0,1.3,0.4,2.3,1.1,3.3c0.8,0.9,1.7,1.4,2.7,1.4
		c1,0,2-0.3,3-0.9C885.9,777.9,886.6,777.1,887.1,776.2z"/>
	<path class="st1" d="M907.6,755.4v5.5c2.3-2,4.1-3.4,5.4-4.2c1.3-0.8,2.4-1.2,3.2-1.2c1.6,0,3.1,0.7,4.6,2l-1.9,4.5
		c-2.7-1.5-4.7-2.2-6-2.2c-1.4,0-3.2,1-5.4,3.1v13.9c0,1.4,0.3,2.3,0.9,2.8c0.6,0.5,1.7,0.7,3.3,0.7v1.2h-13.3v-1.2
		c1.8,0,2.9-0.3,3.5-0.8c0.5-0.6,0.8-1.9,0.8-4v-13.8c0-1.7-0.3-2.9-0.9-3.4c-0.6-0.5-2-0.8-4.3-0.8v-1.2l8.8-0.8H907.6z"/>
	<path class="st1" d="M925.6,776.4c0.9,0,1.7,0.3,2.4,1c0.7,0.7,1,1.4,1,2.4c0,0.9-0.3,1.7-1,2.4c-0.7,0.7-1.4,1-2.3,1
		c-0.9,0-1.7-0.3-2.4-1c-0.7-0.7-1-1.5-1-2.4c0-0.9,0.3-1.7,1-2.4C923.8,776.7,924.6,776.4,925.6,776.4z"/>
</g>
<g class="st0">
	<path class="st1" d="M198.9,835.5v-3.1h11.6l3.1-14.5h3.1l-3.1,14.5h15.9l3.1-14.5h3.1l-3.1,14.5h7.3v3.1h-8l-3,14h11v3.1h-11.6
		l-3.1,14.5h-3.1l3.1-14.5h-15.9l-3.1,14.5h-3.1l3.1-14.5h-7.3v-3.1h8l3-14H198.9z M228.8,835.5h-15.9l-3,14h15.9L228.8,835.5z"/>
	<path class="st1" d="M275,830.4l-9.2,14.5v12.9c0,2.5,0.3,4.2,1,5.1c0.6,0.9,1.8,1.4,3.5,1.4v1.2h-14.9v-1.2c2,0,3.4-0.5,4-1.5
		c0.7-1,1-2.7,1-5v-12.9l-8.7-13.5c-1.4-2.3-2.6-3.7-3.5-4.4c-0.9-0.7-2.2-1.1-3.8-1.1v-1.2h16v1.2c-2.8,0-4.2,0.6-4.2,1.9
		c0,0.6,0.3,1.3,0.8,2.2l8.1,12.4l6.5-10.3c1-1.5,1.4-2.8,1.4-3.9c0-1.5-0.9-2.3-2.7-2.3v-1.2h11.2v1.2c-1.5,0.1-2.7,0.4-3.5,1
		C277.2,827.3,276.2,828.5,275,830.4z"/>
	<path class="st1" d="M302.1,859v1.8c-1.5,1.9-3.1,3.3-4.7,4.2c-1.6,0.8-3.5,1.3-5.7,1.3c-3.9,0-7.2-1.2-9.8-3.7
		c-2.6-2.5-3.8-5.6-3.8-9.4c0-3.8,1.2-7.1,3.7-9.7c2.4-2.6,5.4-3.9,9-3.9c2.9,0,5.5,1,7.7,3c2.2,2,3.3,4.3,3.3,7.1v0.5h-18.6v0.3
		c0,2.8,0.4,5.2,1.3,7.3c0.8,2.1,2.1,3.7,3.7,4.8c1.6,1.2,3.3,1.7,5.1,1.7c1.6,0,3.1-0.3,4.2-1C298.6,862.5,300.1,861.1,302.1,859z
		 M283.1,848.8h13.8v-0.5c0-2.3-0.6-4-1.9-5.4c-1.3-1.3-2.9-2-4.8-2c-2,0-3.7,0.7-4.9,2.1C283.9,844.5,283.2,846.4,283.1,848.8z"/>
	<path class="st1" d="M326.3,860.2v-12.5c0-1.7-0.5-3-1.4-4c-0.9-1-2.2-1.5-3.7-1.5c-1.4,0-2.7,0.4-3.8,1.1s-2.3,2-3.5,3.7v13.9
		c0,1.3,0.3,2.2,0.9,2.7c0.6,0.5,1.7,0.7,3.3,0.7v1.2h-13.5v-1.2c1.9,0,3.2-0.4,3.7-0.9c0.5-0.6,0.8-1.9,0.8-3.9v-32.9
		c0-1.5-0.3-2.5-0.8-3c-0.5-0.5-1.8-0.8-3.7-0.8v-1.2l8.1-0.9h1.2v23.9c1.6-1.9,3.1-3.2,4.4-3.9c1.3-0.8,2.8-1.1,4.4-1.1
		c2.5,0,4.5,0.8,6.1,2.4c1.6,1.6,2.4,3.7,2.4,6.4v11.2c0,2,0.3,3.3,0.8,3.9c0.5,0.6,1.6,0.9,3.3,0.9v1.2h-13.1v-1.2
		c1.7,0,2.8-0.3,3.4-0.8C326,862.9,326.3,861.8,326.3,860.2z"/>
	<path class="st1" d="M345,839.5h1.2v21.3c0,1.4,0.3,2.3,0.9,2.8c0.6,0.5,1.7,0.7,3.3,0.7v1.2h-13.8v-1.2c2,0,3.3-0.2,3.9-0.7
		c0.6-0.5,0.9-1.4,0.9-2.8v-15.5c0-1.5-0.3-2.5-0.8-3c-0.5-0.5-1.9-0.7-4-0.7v-1.2L345,839.5z M343.9,826.4c0.9,0,1.6,0.3,2.2,0.9
		s0.9,1.3,0.9,2.2c0,0.9-0.3,1.6-0.9,2.2s-1.3,0.9-2.2,0.9c-0.9,0-1.6-0.3-2.2-0.9c-0.6-0.6-0.9-1.4-0.9-2.2c0-0.9,0.3-1.6,0.9-2.2
		C342.3,826.7,343,826.4,343.9,826.4z"/>
	<path class="st1" d="M354.2,865.4v-1.2c1.8,0,3-0.5,3.6-1.4c0.7-1,1-2.6,1-5v-25.5c0-2.4-0.3-4.1-1-5.1c-0.7-1-1.9-1.4-3.6-1.4
		v-1.2h18.9c7,0,12.6,2,16.8,6c4.2,4,6.3,9,6.3,15.1c0,6-2,10.8-5.9,14.4c-4,3.6-9.5,5.4-16.6,5.4H354.2z M372,826.2h-7.8v30.2
		c0,2.9,0.3,4.9,1,6c0.7,1.1,2.1,1.6,4.2,1.6h4.2c5,0,9-1.6,11.8-4.9s4.3-7.7,4.3-13.2c0-5.9-1.6-10.7-4.7-14.3
		C382,827.9,377.6,826.2,372,826.2z"/>
	<path class="st1" d="M402.3,824.6h14.9c4.9,0,8.7,1.1,11.6,3.2c2.8,2.2,4.3,4.9,4.3,8.4c0,3.4-1.2,6-3.7,7.8
		c-2.5,1.8-6,2.7-10.7,2.7c-1.8,0-3.9-0.1-6.3-0.4v11.4c0,2.5,0.3,4.2,1,5.1c0.7,0.9,1.9,1.4,3.6,1.4v1.2h-14.7v-1.2
		c1.8,0,3-0.5,3.6-1.5c0.7-1,1-2.6,1-4.9v-25.6c0-2.4-0.3-4.1-1-5.1c-0.7-1-1.9-1.4-3.6-1.4V824.6z M417.4,826.2h-5v18.3
		c1.4,0.5,3.1,0.7,5,0.7c3.1,0,5.5-0.8,7.3-2.4c1.8-1.6,2.7-3.7,2.7-6.5c0-2.9-0.9-5.4-2.6-7.3C422.9,827.1,420.5,826.2,417.4,826.2
		z"/>
	<path class="st1" d="M458.5,845.7h-10.8v12.1c0,2.4,0.3,4.1,1,5.1s1.9,1.4,3.7,1.4v1.2h-14.7v-1.2c1.8,0,3-0.5,3.6-1.4
		c0.7-0.9,1-2.6,1-5.1v-25.5c0-2.5-0.3-4.2-1-5.1c-0.7-0.9-1.9-1.4-3.7-1.4v-1.2h28v7.2h-0.9c-0.4-2.2-1-3.6-1.7-4.2
		c-0.7-0.7-2.4-1-4.9-1h-10.4v17.1h10.7c1.4,0,2.5-0.4,3.2-1.1c0.7-0.7,1.1-2,1.4-3.7h1.1v11.5h-1.1
		C462.8,847.2,461.3,845.7,458.5,845.7z"/>
	<path class="st1" d="M495.9,852.9c0,3.8-1.3,7-4,9.5s-5.9,3.8-9.9,3.8c-3.9,0-7.2-1.3-9.9-3.8c-2.6-2.5-4-5.7-4-9.5
		c0-3.9,1.3-7.1,3.9-9.6c2.6-2.5,5.9-3.8,9.9-3.8s7.3,1.3,9.9,3.8C494.6,845.8,495.9,849,495.9,852.9z M490.6,852.9
		c0-3.6-0.8-6.5-2.3-8.7c-1.5-2.2-3.6-3.3-6.3-3.3s-4.7,1.1-6.3,3.2s-2.3,5.1-2.3,8.8c0,3.6,0.8,6.5,2.3,8.7s3.6,3.2,6.3,3.2
		c2.7,0,4.8-1.1,6.3-3.3C489.9,859.4,490.6,856.5,490.6,852.9z"/>
	<path class="st1" d="M508.9,839.5v5.5c2.3-2,4.1-3.4,5.4-4.2c1.3-0.8,2.4-1.2,3.2-1.2c1.6,0,3.1,0.7,4.6,2l-1.9,4.5
		c-2.7-1.5-4.7-2.2-6-2.2c-1.4,0-3.2,1-5.4,3.1v13.9c0,1.4,0.3,2.3,0.9,2.8c0.6,0.5,1.7,0.7,3.3,0.7v1.2h-13.3v-1.2
		c1.8,0,2.9-0.3,3.5-0.8c0.5-0.6,0.8-1.9,0.8-4v-13.8c0-1.7-0.3-2.9-0.9-3.4s-2-0.8-4.3-0.8v-1.2l8.8-0.8H508.9z"/>
	<path class="st1" d="M548.9,859v1.8c-1.5,1.9-3.1,3.3-4.7,4.2c-1.6,0.8-3.5,1.3-5.7,1.3c-3.9,0-7.2-1.2-9.8-3.7
		c-2.6-2.5-3.8-5.6-3.8-9.4c0-3.8,1.2-7.1,3.7-9.7c2.4-2.6,5.4-3.9,9-3.9c2.9,0,5.5,1,7.7,3c2.2,2,3.3,4.3,3.3,7.1v0.5h-18.6v0.3
		c0,2.8,0.4,5.2,1.3,7.3c0.8,2.1,2.1,3.7,3.7,4.8c1.6,1.2,3.3,1.7,5.1,1.7c1.6,0,3.1-0.3,4.2-1C545.3,862.5,546.9,861.1,548.9,859z
		 M529.9,848.8h13.8v-0.5c0-2.3-0.6-4-1.9-5.4s-2.9-2-4.8-2c-2,0-3.7,0.7-4.9,2.1C530.7,844.5,530,846.4,529.9,848.8z"/>
	<path class="st1" d="M563.4,840.3v1.2c-1.6,0.1-2.5,0.8-2.5,2.1c0,0.6,0.2,1.4,0.6,2.3l5.6,13.5l5-12.8c0.5-1.3,0.8-2.3,0.8-2.9
		c0-1.3-1.1-2-3.3-2.2v-1.2h9.3v1.2c-1.5,0.1-2.6,0.4-3.2,0.9c-0.6,0.5-1.2,1.4-1.7,2.7l-8.2,20.9h-1.2l-8.1-19.8
		c-0.8-2-1.5-3.3-2.1-3.8c-0.6-0.5-1.7-0.9-3.2-0.9v-1.2H563.4z"/>
	<path class="st1" d="M605,859v1.8c-1.5,1.9-3.1,3.3-4.7,4.2c-1.6,0.8-3.5,1.3-5.7,1.3c-3.9,0-7.2-1.2-9.8-3.7
		c-2.6-2.5-3.8-5.6-3.8-9.4c0-3.8,1.2-7.1,3.7-9.7c2.4-2.6,5.5-3.9,9-3.9c2.9,0,5.5,1,7.7,3c2.2,2,3.3,4.3,3.3,7.1v0.5H586v0.3
		c0,2.8,0.4,5.2,1.3,7.3c0.8,2.1,2.1,3.7,3.7,4.8c1.6,1.2,3.3,1.7,5.1,1.7c1.6,0,3.1-0.3,4.2-1C601.5,862.5,603.1,861.1,605,859z
		 M586,848.8h13.8v-0.5c0-2.3-0.6-4-1.9-5.4c-1.3-1.3-2.9-2-4.8-2c-2,0-3.7,0.7-4.9,2.1S586.2,846.4,586,848.8z"/>
	<path class="st1" d="M617.9,839.5v5.5c2.3-2,4.1-3.4,5.4-4.2c1.3-0.8,2.4-1.2,3.2-1.2c1.6,0,3.1,0.7,4.6,2l-1.9,4.5
		c-2.7-1.5-4.7-2.2-6-2.2c-1.4,0-3.2,1-5.4,3.1v13.9c0,1.4,0.3,2.3,0.9,2.8c0.6,0.5,1.7,0.7,3.3,0.7v1.2h-13.3v-1.2
		c1.8,0,2.9-0.3,3.5-0.8c0.5-0.6,0.8-1.9,0.8-4v-13.8c0-1.7-0.3-2.9-0.9-3.4s-2-0.8-4.3-0.8v-1.2l8.8-0.8H617.9z"/>
	<path class="st1" d="M657.3,866.2c-2,0-3.7-0.7-5.1-2c-1.4-1.3-2.1-2.9-2.1-4.8c0-1.8,0.6-3.2,1.8-4.4c1.2-1.1,3.7-2.2,7.4-3.3
		c2.3-0.7,3.9-1.2,4.7-1.7v-1.9c0-1.8-0.5-3.3-1.5-4.4c-1-1.1-2.4-1.7-4.1-1.7c-1.6,0-2.9,0.5-4.1,1.5c-1.2,1-2.1,2.3-2.5,4
		l-1.3-0.3c0.5-2.3,1.6-4.2,3.3-5.6c1.7-1.4,3.7-2.1,6-2.1c2.7,0,4.9,0.8,6.6,2.5c1.7,1.6,2.5,3.9,2.5,6.8v10.8
		c0,1.5,0.1,2.6,0.3,3.1c0.2,0.5,0.6,0.8,1.1,0.8c0.4,0,0.7-0.2,0.9-0.5c0.2-0.3,0.5-1,0.8-2h1.2c-0.1,1.6-0.6,2.8-1.5,3.8
		c-0.9,0.9-2,1.4-3.4,1.4c-2.1,0-3.5-1.2-4.3-3.6c-1.3,1.4-2.4,2.3-3.3,2.8C659.8,866,658.6,866.2,657.3,866.2z M664.1,860.3v-8.6
		c-0.7,0.3-1.8,0.7-3.1,1.1c-2.5,0.9-4.1,1.7-4.9,2.6c-0.7,0.8-1.1,2-1.1,3.4c0,1.3,0.4,2.3,1.1,3.3c0.8,0.9,1.7,1.4,2.7,1.4
		c1,0,1.9-0.3,3-0.9S663.6,861.2,664.1,860.3z"/>
	<path class="st1" d="M683.8,839.5v5c2.9-3.4,6-5,9.1-5c2.4,0,4.5,0.8,6.1,2.5s2.4,3.9,2.4,6.6V860c0,1.7,0.3,2.9,0.9,3.5
		c0.6,0.6,1.7,0.8,3.4,0.8v1.2h-13.5v-1.2c1.7,0,2.8-0.2,3.4-0.6c0.6-0.4,0.9-1.3,0.9-2.5v-13.2c0-1.8-0.5-3.2-1.6-4.2
		c-1.1-1-2.4-1.6-4.1-1.6c-2.4,0-4.8,1.6-7.2,4.9v12.4c0,2.1,0.3,3.4,0.8,4c0.5,0.6,1.7,0.9,3.4,0.9v1.2h-13.3v-1.2
		c1.9,0,3.1-0.3,3.6-0.9c0.4-0.6,0.7-1.9,0.7-3.9v-14.3c0-1.5-0.3-2.5-0.8-3c-0.5-0.5-1.7-0.7-3.4-0.7v-1.2l7.9-0.8H683.8z"/>
	<path class="st1" d="M732.8,820.7h1.2v39.9c0,1.4,0.3,2.4,0.9,2.9c0.6,0.5,1.7,0.8,3.3,0.8v1.2h-14.7c-4.5,0-8.1-1.2-10.7-3.7
		s-4-5.6-4-9.4c0-3.6,1.2-6.6,3.5-9.1c2.3-2.5,5.1-3.7,8.4-3.7c2.6,0,5.5,1,8.5,3.1v-15.5c0-1.7-0.2-2.8-0.7-3.4
		c-0.4-0.6-1.3-0.9-2.7-0.9h-1.4v-1.2L732.8,820.7z M729.1,860.5v-15.2c-1-1.3-2.1-2.4-3.4-3.1c-1.3-0.8-2.6-1.1-3.9-1.1
		c-2.3,0-4.2,0.9-5.6,2.8c-1.4,1.9-2.1,4.4-2.1,7.4c0,3.9,1,7.1,2.9,9.5c1.9,2.4,4.6,3.6,8.1,3.6c1.4,0,2.4-0.3,3.1-0.9
		C728.8,862.8,729.1,861.8,729.1,860.5z"/>
	<path class="st1" d="M764.7,866.2c-2,0-3.7-0.7-5.1-2c-1.4-1.3-2.1-2.9-2.1-4.8c0-1.8,0.6-3.2,1.8-4.4c1.2-1.1,3.7-2.2,7.4-3.3
		c2.3-0.7,3.9-1.2,4.7-1.7v-1.9c0-1.8-0.5-3.3-1.5-4.4c-1-1.1-2.4-1.7-4.1-1.7c-1.6,0-2.9,0.5-4.1,1.5c-1.2,1-2.1,2.3-2.5,4
		l-1.3-0.3c0.5-2.3,1.6-4.2,3.3-5.6c1.7-1.4,3.7-2.1,6-2.1c2.7,0,4.9,0.8,6.6,2.5c1.7,1.6,2.5,3.9,2.5,6.8v10.8
		c0,1.5,0.1,2.6,0.3,3.1c0.2,0.5,0.6,0.8,1.1,0.8c0.4,0,0.7-0.2,0.9-0.5c0.2-0.3,0.5-1,0.8-2h1.2c-0.1,1.6-0.6,2.8-1.5,3.8
		c-0.9,0.9-2,1.4-3.4,1.4c-2.1,0-3.5-1.2-4.3-3.6c-1.3,1.4-2.4,2.3-3.3,2.8C767.2,866,766,866.2,764.7,866.2z M771.5,860.3v-8.6
		c-0.7,0.3-1.8,0.7-3.1,1.1c-2.5,0.9-4.1,1.7-4.9,2.6c-0.7,0.8-1.1,2-1.1,3.4c0,1.3,0.4,2.3,1.1,3.3c0.8,0.9,1.7,1.4,2.7,1.4
		c1,0,2-0.3,3-0.9C770.3,862,771.1,861.2,771.5,860.3z"/>
	<path class="st1" d="M798.2,842.1h-6.3v18.4c0,1.3,0.3,2.3,0.9,2.9c0.6,0.6,1.5,0.9,2.8,0.9h1.2v1.2h-14.3v-1.2h1.1
		c1.3,0,2.2-0.3,2.7-0.8s0.8-1.4,0.8-2.6v-18.8h-3.5v-1.2c1.6-0.6,2.8-1.2,3.5-1.7v-5c0-3.9,1-7.2,2.9-9.7c1.9-2.6,4.6-3.8,7.9-3.8
		c2.9,0,5.3,0.7,7.1,2.1l-2.4,6.4h-1.2c0-0.4,0-0.7,0-1.1c0-1.9-0.4-3.3-1.3-4.3c-0.8-1-2-1.5-3.5-1.5c-1.5,0-2.6,0.5-3.4,1.6
		c-0.8,1-1.3,2.5-1.3,4.4v12.2h6.3V842.1z"/>
	<path class="st1" d="M809.5,831.6h1.2v8.5h8.8v1.8h-8.8v16.3c0,1.7,0.4,3,1.2,3.9c0.8,0.9,1.9,1.4,3.4,1.4c1.7,0,3.3-0.8,4.7-2.4
		l0.8,0.9c-2.2,2.8-4.7,4.2-7.6,4.2c-2.2,0-3.9-0.7-5.3-2.1c-1.3-1.4-2-3.1-2-5.3V842h-4.8v-1.2C804.6,839,807.4,836,809.5,831.6z"
		/>
	<path class="st1" d="M847.4,859v1.8c-1.5,1.9-3.1,3.3-4.7,4.2c-1.6,0.8-3.5,1.3-5.7,1.3c-3.9,0-7.2-1.2-9.8-3.7
		c-2.6-2.5-3.8-5.6-3.8-9.4c0-3.8,1.2-7.1,3.7-9.7c2.4-2.6,5.4-3.9,9-3.9c2.9,0,5.5,1,7.7,3c2.2,2,3.3,4.3,3.3,7.1v0.5h-18.6v0.3
		c0,2.8,0.4,5.2,1.3,7.3c0.8,2.1,2.1,3.7,3.7,4.8c1.6,1.2,3.3,1.7,5.1,1.7c1.6,0,3.1-0.3,4.2-1C843.9,862.5,845.4,861.1,847.4,859z
		 M828.4,848.8h13.8v-0.5c0-2.3-0.6-4-1.9-5.4c-1.3-1.3-2.9-2-4.8-2c-2,0-3.7,0.7-4.9,2.1C829.2,844.5,828.5,846.4,828.4,848.8z"/>
	<path class="st1" d="M860.3,839.5v5.5c2.3-2,4.1-3.4,5.4-4.2c1.3-0.8,2.4-1.2,3.2-1.2c1.6,0,3.1,0.7,4.6,2l-1.9,4.5
		c-2.7-1.5-4.7-2.2-6-2.2c-1.4,0-3.2,1-5.4,3.1v13.9c0,1.4,0.3,2.3,0.9,2.8c0.6,0.5,1.7,0.7,3.3,0.7v1.2h-13.3v-1.2
		c1.8,0,2.9-0.3,3.5-0.8c0.5-0.6,0.8-1.9,0.8-4v-13.8c0-1.7-0.3-2.9-0.9-3.4c-0.6-0.5-2-0.8-4.3-0.8v-1.2l8.8-0.8H860.3z"/>
	<path class="st1" d="M878.3,860.5c0.9,0,1.7,0.3,2.4,1c0.7,0.7,1,1.4,1,2.4c0,0.9-0.3,1.7-1,2.4c-0.7,0.7-1.4,1-2.3,1
		c-0.9,0-1.7-0.3-2.4-1c-0.7-0.7-1-1.5-1-2.4c0-0.9,0.3-1.7,1-2.4C876.5,860.8,877.3,860.5,878.3,860.5z"/>
</g>
<g class="st0">
	<path class="st2" d="M378.6,1004.3v1c-1.4,0-2.4,0.4-2.9,1.2c-0.6,0.8-0.8,2.1-0.8,4.1v30.5c0,2.9-0.8,5.1-2.3,6.7
		c-1.5,1.6-3.5,2.4-6,2.4c-2.4,0-4.2-1-5.4-3l0.8-0.6c0.8,1,1.7,1.5,3,1.5c1.6,0,2.9-0.7,4-2.1c1-1.4,1.5-3.4,1.5-6v-29.5
		c0-2-0.3-3.4-0.8-4.1c-0.5-0.8-1.5-1.1-3-1.1v-1H378.6z"/>
	<path class="st2" d="M387.3,1038.1c-1.6,0-3-0.5-4.1-1.6c-1.1-1.1-1.7-2.3-1.7-3.8c0-1.4,0.5-2.6,1.5-3.5c1-0.9,3-1.8,6-2.7
		c1.9-0.5,3.2-1,3.8-1.4v-1.5c0-1.5-0.4-2.7-1.2-3.6c-0.8-0.9-1.9-1.4-3.3-1.4c-1.3,0-2.4,0.4-3.4,1.2c-1,0.8-1.7,1.9-2.1,3.2
		l-1-0.3c0.4-1.9,1.3-3.4,2.7-4.6c1.4-1.1,3-1.7,4.9-1.7c2.2,0,4,0.7,5.3,2c1.4,1.3,2,3.2,2,5.5v8.8c0,1.2,0.1,2.1,0.2,2.5
		s0.5,0.7,0.9,0.7c0.3,0,0.5-0.1,0.7-0.4c0.2-0.3,0.4-0.8,0.6-1.6h1c-0.1,1.3-0.5,2.3-1.2,3s-1.6,1.1-2.8,1.1c-1.7,0-2.8-1-3.5-2.9
		c-1,1.1-1.9,1.9-2.7,2.3C389.3,1037.9,388.4,1038.1,387.3,1038.1z M392.8,1033.3v-6.9c-0.6,0.2-1.4,0.6-2.5,0.9
		c-2,0.7-3.4,1.4-3.9,2.1c-0.6,0.7-0.9,1.6-0.9,2.8c0,1,0.3,1.9,0.9,2.6c0.6,0.7,1.3,1.1,2.2,1.1c0.8,0,1.6-0.2,2.4-0.7
		S392.5,1034,392.8,1033.3z"/>
	<path class="st2" d="M408.8,1016.4v4.1c2.4-2.7,4.9-4.1,7.4-4.1c2,0,3.6,0.7,4.9,2c1.3,1.3,2,3.1,2,5.3v9.2c0,1.4,0.2,2.3,0.7,2.8
		c0.5,0.5,1.4,0.7,2.8,0.7v1h-10.9v-1c1.4,0,2.3-0.2,2.8-0.5c0.5-0.3,0.7-1,0.7-2v-10.7c0-1.4-0.4-2.6-1.3-3.4
		c-0.9-0.8-2-1.3-3.3-1.3c-1.9,0-3.9,1.3-5.8,4v10c0,1.7,0.2,2.8,0.7,3.2c0.4,0.5,1.4,0.7,2.8,0.7v1h-10.8v-1c1.6,0,2.5-0.3,2.9-0.8
		c0.4-0.5,0.5-1.6,0.5-3.2V1021c0-1.2-0.2-2-0.6-2.4s-1.4-0.6-2.8-0.6v-1l6.4-0.6H408.8z"/>
	<path class="st2" d="M448.6,1016.4h1v17.2c0,1.1,0.2,1.9,0.7,2.3s1.4,0.6,2.8,0.6v1l-7.4,0.4v-3.8h-0.1c-2,2.7-4.4,4-7.2,4
		c-2,0-3.6-0.7-4.8-2c-1.3-1.3-1.9-3-1.9-4.9v-10.5c0-1.1-0.3-1.8-0.8-2.1c-0.5-0.4-1.5-0.6-2.8-0.6v-1l6.6-0.6h1v14.6
		c0,1.4,0.4,2.6,1.3,3.4c0.8,0.8,2,1.2,3.4,1.2c2,0,3.8-1.1,5.4-3.4v-11c0-1.4-0.2-2.3-0.6-2.7c-0.4-0.4-1.5-0.6-3.3-0.6v-1
		L448.6,1016.4z"/>
	<path class="st2" d="M461.4,1038.1c-1.6,0-3-0.5-4.1-1.6c-1.1-1.1-1.7-2.3-1.7-3.8c0-1.4,0.5-2.6,1.5-3.5c1-0.9,3-1.8,6-2.7
		c1.9-0.5,3.2-1,3.8-1.4v-1.5c0-1.5-0.4-2.7-1.2-3.6c-0.8-0.9-1.9-1.4-3.3-1.4c-1.3,0-2.4,0.4-3.4,1.2c-1,0.8-1.7,1.9-2.1,3.2
		l-1-0.3c0.4-1.9,1.3-3.4,2.7-4.6c1.4-1.1,3-1.7,4.9-1.7c2.2,0,4,0.7,5.3,2c1.4,1.3,2,3.2,2,5.5v8.8c0,1.2,0.1,2.1,0.2,2.5
		s0.5,0.7,0.9,0.7c0.3,0,0.5-0.1,0.7-0.4c0.2-0.3,0.4-0.8,0.6-1.6h1c-0.1,1.3-0.5,2.3-1.2,3s-1.6,1.1-2.8,1.1c-1.7,0-2.8-1-3.5-2.9
		c-1,1.1-1.9,1.9-2.7,2.3C463.4,1037.9,462.4,1038.1,461.4,1038.1z M466.9,1033.3v-6.9c-0.6,0.2-1.4,0.6-2.5,0.9
		c-2,0.7-3.4,1.4-3.9,2.1c-0.6,0.7-0.9,1.6-0.9,2.8c0,1,0.3,1.9,0.9,2.6c0.6,0.7,1.3,1.1,2.2,1.1c0.8,0,1.6-0.2,2.4-0.7
		S466.5,1034,466.9,1033.3z"/>
	<path class="st2" d="M483.4,1016.4v4.4c1.9-1.6,3.3-2.8,4.4-3.4s1.9-1,2.6-1c1.3,0,2.5,0.5,3.8,1.6l-1.6,3.6
		c-2.2-1.2-3.8-1.8-4.9-1.8c-1.2,0-2.6,0.8-4.3,2.5v11.2c0,1.1,0.2,1.9,0.7,2.3c0.5,0.4,1.4,0.6,2.7,0.6v1h-10.8v-1
		c1.4,0,2.4-0.2,2.8-0.7c0.4-0.5,0.7-1.5,0.7-3.3v-11.2c0-1.4-0.2-2.3-0.7-2.7s-1.6-0.6-3.5-0.6v-1l7.2-0.6H483.4z"/>
	<path class="st2" d="M506.1,1017v1c-1.2,0.2-1.7,0.8-1.7,1.8c0,0.4,0.1,0.8,0.3,1.3l4.9,11.6l3.6-10.8c0.3-0.9,0.4-1.6,0.4-2.1
		c0-1.1-0.7-1.7-2.1-1.8v-1h7.2v1c-1.1,0-2,0.4-2.7,1.1c-0.7,0.7-1.4,2-1.9,3.7l-8.1,24.1c-0.8,2.3-1.8,4.1-3,5.4
		c-1.2,1.3-2.5,2-3.8,2c-0.8,0-1.6-0.3-2.5-0.9l1.3-3.5c0.7,0.3,1.4,0.5,2,0.5c1.2,0,2.2-0.4,3-1.2c0.8-0.8,1.5-2.1,2.2-3.9l2.6-7.4
		l-7.3-16.9c-0.5-1.2-1.1-2-1.6-2.4c-0.5-0.4-1.4-0.6-2.5-0.6v-1H506.1z"/>
	<path class="st2" d="M538.4,1035.1h16.3v2.4h-19v-1.2c5.2-5.3,8.8-9.6,10.9-12.9c2.1-3.3,3.2-6.3,3.2-9.1c0-2.4-0.5-4.2-1.6-5.6
		c-1.1-1.4-2.6-2-4.4-2c-1.7,0-3.1,0.5-4.2,1.6s-1.7,2.5-1.9,4.4h-1c0-1.4,0.4-2.8,1.3-4.3c0.8-1.5,1.9-2.7,3.2-3.6
		c1.3-0.8,2.7-1.3,4.3-1.3c2.3,0,4.3,0.9,5.9,2.7c1.6,1.8,2.4,4,2.4,6.6c0,3-1.2,6.2-3.5,9.6C548.1,1025.7,544.1,1030,538.4,1035.1z
		"/>
	<path class="st2" d="M565.8,1020.6v-1c6.8-1.2,10.2-4,10.2-8.4c0-1.6-0.5-3-1.6-4.1c-1.1-1.1-2.4-1.7-4-1.7c-1.1,0-2.2,0.3-3.1,0.9
		c-1,0.6-1.7,1.5-2.2,2.5l-0.9-0.4c0.5-1.5,1.5-2.8,2.9-3.7s3-1.4,4.8-1.4c2.3,0,4.2,0.7,5.7,2.1c1.5,1.4,2.3,3.2,2.3,5.3
		c0,1.6-0.5,3.1-1.5,4.5c-1,1.3-2.5,2.4-4.4,3.2v0.1c2.3,0.6,4.1,1.7,5.4,3.3s1.9,3.6,1.9,5.8c0,3-1,5.5-2.9,7.4
		c-1.9,1.9-4.4,2.8-7.5,2.8c-1.7,0-3.2-0.3-4.4-0.8c-1.2-0.5-2.5-1.5-3.9-2.8l0.7-0.7c2.2,1.8,4.4,2.7,6.5,2.7
		c2.1,0,3.9-0.6,5.2-1.9c1.4-1.3,2.1-3,2.1-5.1c0-2.3-0.7-4.4-2.2-6.2c-1.5-1.8-3.4-2.8-5.8-2.8L565.8,1020.6z"/>
	<path class="st2" d="M590.4,1047.4v-1c1.5-0.8,2.6-1.6,3.2-2.6c0.6-1,0.9-2.2,0.9-3.9c0-0.4-0.1-0.7-0.2-0.8
		c-0.1-0.1-0.4-0.2-0.9-0.2c-0.8,0-1.6-0.3-2.1-0.8s-0.9-1.2-0.9-2c0-0.8,0.3-1.4,0.8-1.9s1.2-0.8,2-0.8c1.3,0,2.3,0.5,3.1,1.6
		c0.8,1,1.2,2.4,1.2,4c0,2-0.7,3.8-2,5.4S592.5,1046.9,590.4,1047.4z"/>
	<path class="st2" d="M618.9,1035.1h16.3v2.4h-19v-1.2c5.2-5.3,8.8-9.6,10.9-12.9c2.1-3.3,3.2-6.3,3.2-9.1c0-2.4-0.5-4.2-1.6-5.6
		s-2.6-2-4.4-2c-1.7,0-3.1,0.5-4.2,1.6s-1.7,2.5-1.9,4.4h-1c0-1.4,0.4-2.8,1.3-4.3c0.8-1.5,1.9-2.7,3.2-3.6c1.3-0.8,2.7-1.3,4.3-1.3
		c2.3,0,4.3,0.9,5.9,2.7c1.6,1.8,2.4,4,2.4,6.6c0,3-1.2,6.2-3.5,9.6C628.6,1025.7,624.6,1030,618.9,1035.1z"/>
	<path class="st2" d="M664,1020.8c0,3.4-0.5,6.4-1.5,9c-1,2.6-2.4,4.6-4.2,6.1s-3.7,2.2-5.8,2.2c-2.1,0-4-0.7-5.9-2.2
		s-3.2-3.5-4.2-6.1s-1.5-5.6-1.5-9c0-3.3,0.5-6.3,1.5-8.9c1-2.6,2.4-4.6,4.2-6.1c1.8-1.5,3.8-2.2,5.8-2.2c2.1,0,4,0.7,5.8,2.2
		s3.2,3.5,4.1,6.1C663.5,1014.4,664,1017.4,664,1020.8z M659.6,1020.8c0-5-0.6-8.9-1.8-11.6c-1.2-2.8-3-4.1-5.2-4.1
		c-2.3,0-4,1.4-5.3,4.2c-1.2,2.8-1.8,6.7-1.8,11.6c0,5,0.6,8.8,1.9,11.6s3,4.2,5.2,4.2c2.3,0,4-1.4,5.2-4.1
		S659.6,1025.8,659.6,1020.8z"/>
	<path class="st2" d="M671.8,1035.1h16.3v2.4h-19v-1.2c5.2-5.3,8.8-9.6,10.9-12.9c2.1-3.3,3.2-6.3,3.2-9.1c0-2.4-0.5-4.2-1.6-5.6
		c-1.1-1.4-2.6-2-4.4-2c-1.7,0-3.1,0.5-4.2,1.6c-1.1,1.1-1.7,2.5-1.9,4.4h-1c0-1.4,0.4-2.8,1.3-4.3c0.8-1.5,1.9-2.7,3.2-3.6
		c1.3-0.8,2.7-1.3,4.3-1.3c2.3,0,4.3,0.9,5.9,2.7c1.6,1.8,2.4,4,2.4,6.6c0,3-1.2,6.2-3.5,9.6C681.5,1025.7,677.5,1030,671.8,1035.1z
		"/>
	<path class="st2" d="M698.3,1035.1h16.3v2.4h-19v-1.2c5.2-5.3,8.8-9.6,10.9-12.9c2.1-3.3,3.2-6.3,3.2-9.1c0-2.4-0.5-4.2-1.6-5.6
		c-1.1-1.4-2.6-2-4.4-2c-1.7,0-3.1,0.5-4.2,1.6s-1.7,2.5-1.9,4.4h-1c0-1.4,0.4-2.8,1.3-4.3s1.9-2.7,3.2-3.6c1.3-0.8,2.7-1.3,4.3-1.3
		c2.3,0,4.3,0.9,5.9,2.7c1.6,1.8,2.4,4,2.4,6.6c0,3-1.2,6.2-3.5,9.6C707.9,1025.7,703.9,1030,698.3,1035.1z"/>
</g>
<g class="st0">
	<path class="st2" d="M345,1107.4v-22.7c0-0.8-0.2-1.2-0.5-1.2c-0.1,0-0.3,0.1-0.7,0.2c-1.4,0.6-2.7,0.9-3.8,0.9v-1
		c4.2-2.2,6.8-4.1,7.8-5.6h1v29.3c0,1.5,0.2,2.5,0.6,3c0.4,0.5,1.3,0.7,2.8,0.7v0.9h-10.6v-0.9c1.4,0,2.4-0.2,2.8-0.7
		C344.8,1109.9,345,1108.9,345,1107.4z"/>
	<path class="st2" d="M365.9,1109.6h16.3v2.4h-19v-1.2c5.2-5.3,8.8-9.6,10.9-12.9c2.1-3.3,3.2-6.3,3.2-9.1c0-2.4-0.5-4.2-1.6-5.6
		c-1.1-1.4-2.6-2-4.4-2c-1.7,0-3.1,0.5-4.2,1.6s-1.7,2.5-1.9,4.4h-1c0-1.4,0.4-2.8,1.3-4.3c0.8-1.5,1.9-2.7,3.2-3.6
		c1.3-0.8,2.7-1.3,4.3-1.3c2.3,0,4.3,0.9,5.9,2.7c1.6,1.8,2.4,4,2.4,6.6c0,3-1.2,6.2-3.5,9.6
		C375.5,1100.3,371.5,1104.5,365.9,1109.6z"/>
	<path class="st2" d="M394.7,1093c0.8,0,1.4,0.3,1.9,0.8c0.5,0.5,0.8,1.2,0.8,1.9s-0.3,1.4-0.8,1.9c-0.5,0.5-1.2,0.8-1.9,0.8
		c-0.8,0-1.4-0.3-1.9-0.8c-0.5-0.5-0.8-1.2-0.8-1.9s0.3-1.4,0.8-1.9C393.3,1093.3,394,1093,394.7,1093z M394.7,1107.9
		c0.8,0,1.4,0.3,1.9,0.8c0.5,0.5,0.8,1.2,0.8,1.9s-0.3,1.4-0.8,1.9c-0.5,0.5-1.2,0.8-1.9,0.8c-0.8,0-1.4-0.3-1.9-0.8
		c-0.5-0.5-0.8-1.2-0.8-1.9c0-0.7,0.3-1.4,0.8-1.9C393.3,1108.2,394,1107.9,394.7,1107.9z"/>
	<path class="st2" d="M427.8,1095.3c0,3.4-0.5,6.4-1.5,9c-1,2.6-2.4,4.6-4.2,6.1s-3.7,2.2-5.8,2.2c-2.1,0-4-0.7-5.9-2.2
		s-3.2-3.5-4.2-6.1s-1.5-5.6-1.5-9c0-3.3,0.5-6.3,1.5-8.9c1-2.6,2.4-4.6,4.2-6.1c1.8-1.5,3.8-2.2,5.8-2.2c2.1,0,4,0.7,5.8,2.2
		c1.8,1.5,3.2,3.5,4.1,6.1C427.3,1089,427.8,1091.9,427.8,1095.3z M423.4,1095.3c0-5-0.6-8.9-1.8-11.6c-1.2-2.8-3-4.1-5.2-4.1
		c-2.3,0-4,1.4-5.3,4.2c-1.2,2.8-1.8,6.7-1.8,11.6c0,5,0.6,8.8,1.9,11.6c1.2,2.8,3,4.2,5.2,4.2c2.3,0,4-1.4,5.2-4.1
		C422.8,1104.3,423.4,1100.4,423.4,1095.3z"/>
	<path class="st2" d="M454.3,1095.3c0,3.4-0.5,6.4-1.5,9c-1,2.6-2.4,4.6-4.2,6.1s-3.7,2.2-5.8,2.2c-2.1,0-4-0.7-5.9-2.2
		s-3.2-3.5-4.2-6.1s-1.5-5.6-1.5-9c0-3.3,0.5-6.3,1.5-8.9c1-2.6,2.4-4.6,4.2-6.1c1.8-1.5,3.8-2.2,5.8-2.2c2.1,0,4,0.7,5.8,2.2
		c1.8,1.5,3.2,3.5,4.1,6.1C453.8,1089,454.3,1091.9,454.3,1095.3z M449.9,1095.3c0-5-0.6-8.9-1.8-11.6c-1.2-2.8-3-4.1-5.2-4.1
		c-2.3,0-4,1.4-5.3,4.2c-1.2,2.8-1.8,6.7-1.8,11.6c0,5,0.6,8.8,1.9,11.6c1.2,2.8,3,4.2,5.2,4.2c2.3,0,4-1.4,5.2-4.1
		C449.3,1104.3,449.9,1100.4,449.9,1095.3z"/>
	<path class="st2" d="M471.3,1078.9h12.1c3.9,0,7.1,0.9,9.4,2.6c2.3,1.7,3.5,4,3.5,6.8c0,2.7-1,4.9-3,6.3c-2,1.5-4.9,2.2-8.7,2.2
		c-1.4,0-3.1-0.1-5.1-0.3v9.3c0,2,0.3,3.4,0.8,4.1c0.5,0.8,1.5,1.1,2.9,1.1v1h-11.9v-1c1.4,0,2.4-0.4,2.9-1.2c0.5-0.8,0.8-2.1,0.8-4
		v-20.7c0-2-0.3-3.3-0.8-4.1c-0.5-0.8-1.5-1.2-2.9-1.2V1078.9z M483.5,1080.1h-4.1v14.8c1.1,0.4,2.5,0.6,4.1,0.6
		c2.5,0,4.4-0.6,5.9-1.9c1.4-1.3,2.2-3,2.2-5.2c0-2.4-0.7-4.4-2.1-5.9C488,1080.9,486,1080.1,483.5,1080.1z"/>
	<path class="st2" d="M531,1078.9h7.8v1c-2.5,0.1-3.7,1.5-3.7,4.4c0,0.2,0,0.5,0,0.8l1.7,20.4c0.2,2.2,0.6,3.6,1.1,4.3
		c0.6,0.7,1.6,1.1,3,1.3v1H529v-1c1.3-0.2,2.2-0.6,2.7-1.2c0.5-0.6,0.8-1.6,0.8-2.9c0-0.3,0-0.6,0-0.9l-1.8-21.4l-11.3,27.3h-0.9
		l-11.2-27.3l-1.9,20.3c0,0.3,0,0.6,0,0.9c0,2.9,1.4,4.5,4.3,5.1v1h-10.3v-1c1.4-0.2,2.4-0.7,3-1.5c0.6-0.8,1-2.3,1.3-4.6l2-22.8
		c-1.2-1.3-2.6-2-4.3-2.3v-1h8.4l10.6,26L531,1078.9z"/>
	<path class="st2" d="M558.9,1095.2c0-4.9,1.7-9,5.1-12.3c3.4-3.3,7.6-4.9,12.7-4.9c4.9,0,9.1,1.7,12.5,5c3.4,3.3,5.1,7.4,5.1,12.2
		c0,4.9-1.7,9.1-5.1,12.4c-3.4,3.4-7.6,5.1-12.6,5.1c-4.9,0-9.1-1.7-12.5-5.1S558.9,1100.2,558.9,1095.2z M564,1095.3
		c0,4.8,1.1,8.7,3.4,11.7s5.3,4.5,9,4.5c3.8,0,6.8-1.5,9.2-4.6c2.3-3,3.5-6.8,3.5-11.4c0-4.9-1.1-8.8-3.4-11.8
		c-2.3-3-5.3-4.4-8.9-4.4c-3.9,0-7,1.5-9.3,4.4C565.2,1086.6,564,1090.5,564,1095.3z"/>
	<path class="st2" d="M605.5,1090.9v4.1c2.4-2.7,4.9-4.1,7.4-4.1c2,0,3.6,0.7,4.9,2c1.3,1.3,2,3.1,2,5.3v9.2c0,1.4,0.2,2.3,0.7,2.8
		c0.5,0.5,1.4,0.7,2.8,0.7v1h-10.9v-1c1.4,0,2.3-0.2,2.8-0.5c0.5-0.3,0.7-1,0.7-2v-10.7c0-1.4-0.4-2.6-1.3-3.4
		c-0.9-0.8-2-1.3-3.3-1.3c-1.9,0-3.9,1.3-5.8,4v10c0,1.7,0.2,2.8,0.7,3.2c0.4,0.5,1.4,0.7,2.8,0.7v1h-10.8v-1c1.6,0,2.5-0.3,2.9-0.8
		c0.4-0.5,0.5-1.6,0.5-3.2v-11.5c0-1.2-0.2-2-0.6-2.4s-1.4-0.6-2.8-0.6v-1l6.4-0.6H605.5z"/>
	<path class="st2" d="M634.8,1091.6v1c-1.4,0-2.2,0.4-2.2,1.2c0,0.4,0.2,1,0.5,1.8l4.6,11.5l4.8-12.3c-0.4-0.8-0.8-1.4-1.2-1.7
		c-0.4-0.3-1-0.4-1.8-0.5v-1h9.9v1c-1.8,0-2.6,0.6-2.6,1.6c0,0.4,0.1,0.8,0.3,1.3l4.6,11.5l4.2-10.7c0.3-0.9,0.5-1.6,0.5-2.1
		c0-1.1-0.9-1.7-2.6-1.7v-1h8v1c-1.4,0-2.4,0.2-3,0.7c-0.5,0.4-1.1,1.5-1.8,3.1l-6.4,16.1h-1l-6.5-16.1l-6.4,16.1h-0.9l-7.2-17.6
		c-0.6-1.5-1.9-2.3-3.8-2.3v-1H634.8z"/>
	<path class="st2" d="M669.6,1112.6c-1.6,0-3-0.5-4.1-1.6c-1.1-1.1-1.7-2.3-1.7-3.8c0-1.4,0.5-2.6,1.5-3.5c1-0.9,3-1.8,6-2.7
		c1.9-0.5,3.2-1,3.8-1.4v-1.5c0-1.5-0.4-2.7-1.2-3.6c-0.8-0.9-1.9-1.4-3.3-1.4c-1.3,0-2.4,0.4-3.4,1.2c-1,0.8-1.7,1.9-2.1,3.2
		l-1-0.3c0.4-1.9,1.3-3.4,2.7-4.6c1.4-1.1,3-1.7,4.9-1.7c2.2,0,4,0.7,5.3,2c1.4,1.3,2,3.2,2,5.5v8.8c0,1.2,0.1,2.1,0.2,2.5
		c0.2,0.4,0.5,0.7,0.9,0.7c0.3,0,0.5-0.1,0.7-0.4c0.2-0.3,0.4-0.8,0.6-1.6h1c-0.1,1.3-0.5,2.3-1.2,3s-1.6,1.1-2.8,1.1
		c-1.7,0-2.8-1-3.5-2.9c-1,1.1-1.9,1.9-2.7,2.3S670.7,1112.6,669.6,1112.6z M675.1,1107.8v-6.9c-0.6,0.2-1.4,0.6-2.5,0.9
		c-2,0.7-3.4,1.4-3.9,2.1c-0.6,0.7-0.9,1.6-0.9,2.8c0,1,0.3,1.9,0.9,2.6c0.6,0.7,1.3,1.1,2.2,1.1c0.8,0,1.6-0.2,2.4-0.7
		C674.1,1109.1,674.7,1108.5,675.1,1107.8z"/>
	<path class="st2" d="M691.7,1090.9v4.4c1.9-1.6,3.3-2.8,4.4-3.4c1-0.7,1.9-1,2.6-1c1.3,0,2.5,0.5,3.8,1.6l-1.6,3.6
		c-2.2-1.2-3.8-1.8-4.9-1.8c-1.2,0-2.6,0.8-4.3,2.5v11.2c0,1.1,0.2,1.9,0.7,2.3c0.5,0.4,1.4,0.6,2.7,0.6v1h-10.8v-1
		c1.4,0,2.4-0.2,2.8-0.7s0.7-1.5,0.7-3.3v-11.2c0-1.4-0.2-2.3-0.7-2.7s-1.6-0.6-3.5-0.6v-1l7.2-0.6H691.7z"/>
	<path class="st2" d="M724.2,1075.7h1v32.3c0,1.1,0.2,1.9,0.7,2.3c0.5,0.4,1.4,0.6,2.7,0.6v1h-11.9c-3.7,0-6.6-1-8.7-3
		c-2.1-2-3.2-4.6-3.2-7.6c0-2.9,0.9-5.3,2.8-7.3s4.1-3,6.8-3c2.1,0,4.4,0.8,6.9,2.5v-12.6c0-1.4-0.2-2.3-0.5-2.8
		c-0.4-0.5-1.1-0.7-2.2-0.7h-1.2v-1L724.2,1075.7z M721.2,1107.9v-12.3c-0.8-1.1-1.7-1.9-2.8-2.5c-1.1-0.6-2.1-0.9-3.2-0.9
		c-1.9,0-3.4,0.8-4.5,2.3c-1.1,1.5-1.7,3.5-1.7,6c0,3.2,0.8,5.7,2.4,7.7c1.6,1.9,3.8,2.9,6.6,2.9c1.1,0,2-0.2,2.5-0.7
		C721,1109.8,721.2,1109,721.2,1107.9z"/>
	<path class="st2" d="M744.6,1090.9v6.3h-1.2c-0.2-1.6-0.8-2.8-1.7-3.8s-2.1-1.4-3.4-1.4c-1,0-1.8,0.3-2.5,0.8
		c-0.6,0.5-0.9,1.2-0.9,2c0,0.8,0.3,1.6,0.9,2.2s1.8,1.4,3.7,2.3c2.5,1.1,4.1,2.2,4.9,3.2c0.8,1,1.2,2.3,1.2,3.7
		c0,1.7-0.6,3.2-1.9,4.4c-1.3,1.3-2.8,1.9-4.5,1.9c-0.9,0-2.1-0.3-3.6-1c-0.8-0.4-1.3-0.5-1.6-0.5c-0.4,0-0.7,0.1-0.9,0.4
		c-0.2,0.3-0.4,0.6-0.4,1h-1v-7h1c0.4,1.8,1.1,3.3,2.4,4.4c1.2,1.1,2.6,1.6,4.2,1.6c1,0,1.9-0.3,2.6-1s1-1.5,1-2.5
		c0-1-0.3-1.8-0.9-2.5c-0.6-0.7-2-1.5-4.1-2.4c-2.4-1-3.9-2-4.7-2.9s-1.1-2-1.1-3.3c0-1.6,0.6-3,1.8-4.1s2.7-1.7,4.4-1.7
		c0.8,0,1.6,0.2,2.6,0.6c0.7,0.3,1.2,0.4,1.6,0.4c0.5,0,0.9-0.3,1.2-1H744.6z"/>
</g>
<g class="st0">
	<path class="st2" d="M391.9,1158.7h-7.3v8.1c0,1.6,0.2,2.8,0.7,3.4c0.5,0.6,1.3,1,2.5,1v0.8h-9.9v-0.8c1.2,0,2-0.3,2.4-1
		s0.7-1.8,0.7-3.4v-17.1c0-1.7-0.2-2.8-0.7-3.4s-1.3-1-2.5-1v-0.8h18.9v4.9h-0.6c-0.3-1.5-0.7-2.4-1.2-2.9s-1.6-0.7-3.3-0.7h-7v11.5
		h7.2c1,0,1.7-0.2,2.2-0.7s0.8-1.3,0.9-2.5h0.8v7.7h-0.8C394.8,1159.7,393.8,1158.7,391.9,1158.7z"/>
	<path class="st2" d="M417.1,1163.5c0,2.6-0.9,4.7-2.7,6.4s-4,2.6-6.6,2.6s-4.9-0.9-6.6-2.6s-2.7-3.8-2.7-6.4c0-2.6,0.9-4.7,2.6-6.5
		s4-2.6,6.7-2.6s4.9,0.9,6.7,2.6S417.1,1160.9,417.1,1163.5z M413.6,1163.5c0-2.4-0.5-4.4-1.5-5.9c-1-1.5-2.4-2.2-4.2-2.2
		s-3.2,0.7-4.2,2.2c-1,1.5-1.5,3.4-1.5,5.9c0,2.4,0.5,4.4,1.5,5.8s2.4,2.2,4.2,2.2s3.2-0.7,4.2-2.2S413.6,1165.9,413.6,1163.5z"/>
	<path class="st2" d="M428.9,1171.2h0.4v0.8h-9.5v-0.8h0.9c0.9,0,1.5-0.2,1.8-0.7c0.3-0.5,0.5-1.3,0.5-2.5v-22.4
		c0-0.9-0.2-1.5-0.5-1.8c-0.3-0.3-0.9-0.5-1.8-0.5h-1.1v-0.8l5.9-0.6h0.8v27c0,0.9,0.2,1.6,0.6,1.9
		C427.2,1171,427.9,1171.2,428.9,1171.2z"/>
	<path class="st2" d="M440.5,1171.2h0.4v0.8h-9.5v-0.8h0.9c0.9,0,1.5-0.2,1.8-0.7c0.3-0.5,0.5-1.3,0.5-2.5v-22.4
		c0-0.9-0.2-1.5-0.5-1.8c-0.3-0.3-0.9-0.5-1.8-0.5h-1.1v-0.8l5.9-0.6h0.8v27c0,0.9,0.2,1.6,0.6,1.9
		C438.7,1171,439.4,1171.2,440.5,1171.2z"/>
	<path class="st2" d="M462.1,1163.5c0,2.6-0.9,4.7-2.7,6.4s-4,2.6-6.6,2.6s-4.9-0.9-6.6-2.6s-2.7-3.8-2.7-6.4c0-2.6,0.9-4.7,2.6-6.5
		s4-2.6,6.7-2.6s4.9,0.9,6.7,2.6S462.1,1160.9,462.1,1163.5z M458.6,1163.5c0-2.4-0.5-4.4-1.5-5.9c-1-1.5-2.4-2.2-4.2-2.2
		s-3.2,0.7-4.2,2.2c-1,1.5-1.5,3.4-1.5,5.9c0,2.4,0.5,4.4,1.5,5.8s2.4,2.2,4.2,2.2s3.2-0.7,4.2-2.2S458.6,1165.9,458.6,1163.5z"/>
	<path class="st2" d="M471.3,1155v0.8c-1.2,0-1.8,0.4-1.8,1c0,0.3,0.1,0.8,0.4,1.5l3.8,9.5l4-10.2c-0.4-0.7-0.7-1.2-1-1.4
		s-0.8-0.4-1.5-0.4v-0.8h8.2v0.8c-1.5,0-2.2,0.5-2.2,1.3c0,0.3,0.1,0.7,0.3,1.1l3.8,9.6l3.5-8.9c0.3-0.7,0.4-1.3,0.4-1.7
		c0-0.9-0.7-1.4-2.1-1.4v-0.8h6.6v0.8c-1.2,0-2,0.2-2.5,0.6c-0.4,0.4-0.9,1.2-1.5,2.6l-5.3,13.4h-0.8l-5.4-13.4l-5.3,13.4h-0.8
		l-6-14.6c-0.5-1.3-1.5-1.9-3.1-1.9v-0.8H471.3z"/>
	<path class="st2" d="M510.6,1167.6v1.2c-1,1.3-2.1,2.3-3.2,2.8s-2.4,0.8-3.9,0.8c-2.7,0-4.8-0.8-6.6-2.5s-2.6-3.8-2.6-6.3
		c0-2.6,0.8-4.8,2.5-6.5s3.7-2.6,6.1-2.6c2,0,3.7,0.7,5.2,2s2.2,2.9,2.2,4.8v0.4h-12.5v0.2c0,1.9,0.3,3.5,0.9,4.9s1.4,2.5,2.5,3.2
		s2.2,1.2,3.4,1.2c1.1,0,2.1-0.2,2.8-0.7S509.3,1169,510.6,1167.6z M497.9,1160.8h9.3v-0.3c0-1.5-0.4-2.7-1.3-3.6s-1.9-1.3-3.2-1.3
		c-1.4,0-2.5,0.5-3.3,1.4S498,1159.1,497.9,1160.8z"/>
	<path class="st2" d="M529.8,1141.8h0.8v26.9c0,0.9,0.2,1.6,0.6,1.9c0.4,0.4,1.1,0.5,2.2,0.5v0.8h-9.9c-3,0-5.5-0.8-7.2-2.5
		s-2.7-3.8-2.7-6.3c0-2.4,0.8-4.4,2.3-6.1s3.4-2.5,5.6-2.5c1.8,0,3.7,0.7,5.7,2.1v-10.4c0-1.1-0.1-1.9-0.4-2.3s-0.9-0.6-1.8-0.6h-1
		v-0.8L529.8,1141.8z M527.3,1168.6v-10.2c-0.7-0.9-1.4-1.6-2.3-2.1s-1.8-0.8-2.6-0.8c-1.5,0-2.8,0.6-3.8,1.9s-1.4,2.9-1.4,5
		c0,2.6,0.7,4.8,2,6.4s3.1,2.4,5.5,2.4c1,0,1.6-0.2,2.1-0.6S527.3,1169.5,527.3,1168.6z"/>
	<path class="st2" d="M550.4,1141.8h0.8v15.2c0.7-0.8,1.6-1.4,2.6-1.9s2.1-0.7,3.1-0.7c2.2,0,4.1,0.8,5.6,2.4s2.3,3.6,2.3,5.9
		c0,2.7-1,5-3.1,6.7c-2.1,1.8-4.9,2.6-8.5,2.6c-1.4,0-3.2-0.2-5.3-0.5v-25.5c0-1.3-0.2-2.1-0.5-2.5s-1.2-0.5-2.5-0.5v-0.8
		L550.4,1141.8z M551.2,1158.3v9.7c0,1.3,0.2,2.1,0.6,2.6s1.2,0.7,2.2,0.7c2.2,0,4-0.7,5.2-2.1s1.9-3.4,1.9-6c0-2.1-0.6-3.9-1.7-5.3
		c-1.1-1.4-2.4-2-4-2C554,1155.9,552.5,1156.7,551.2,1158.3z"/>
	<path class="st2" d="M574.5,1155v0.8c-1,0.1-1.4,0.6-1.4,1.5c0,0.3,0.1,0.7,0.3,1.1l4.1,9.6l3-9c0.2-0.7,0.4-1.3,0.4-1.8
		c0-0.9-0.6-1.4-1.7-1.5v-0.8h6v0.8c-0.9,0-1.7,0.3-2.3,0.9s-1.1,1.6-1.6,3.1l-6.8,20c-0.7,1.9-1.5,3.4-2.5,4.5
		c-1,1.1-2.1,1.7-3.1,1.7c-0.6,0-1.3-0.2-2.1-0.7l1.1-2.9c0.6,0.3,1.1,0.4,1.6,0.4c1,0,1.9-0.3,2.5-1c0.7-0.6,1.3-1.7,1.8-3.2
		l2.2-6.2l-6.1-14.1c-0.5-1-0.9-1.7-1.3-2c-0.4-0.3-1.1-0.5-2.1-0.5v-0.8H574.5z"/>
	<path class="st2" d="M619.2,1166h0.8l-1.7,6h-19.9v-0.8c1.1,0,1.9-0.4,2.4-1.1s0.7-1.9,0.7-3.5v-17.3c0-1.5-0.2-2.5-0.7-3.1
		s-1.3-0.9-2.4-0.9v-0.8h9.8v0.8c-1.1,0-1.9,0.3-2.4,1s-0.7,1.8-0.7,3.3v18.4c0,1,0.2,1.7,0.6,2.1s1.3,0.6,2.5,0.6h5.5
		c1.7,0,2.9-0.3,3.5-0.9S618.6,1167.9,619.2,1166z"/>
	<path class="st2" d="M638,1154.5h0.8v14.3c0,0.9,0.2,1.6,0.6,1.9c0.4,0.3,1.2,0.5,2.3,0.5v0.8l-6.2,0.3v-3.1h-0.1
		c-1.7,2.2-3.7,3.3-6,3.3c-1.6,0-3-0.5-4-1.6s-1.6-2.5-1.6-4.1v-8.7c0-0.9-0.2-1.5-0.7-1.8c-0.4-0.3-1.2-0.5-2.4-0.5v-0.8l5.5-0.5
		h0.8v12.1c0,1.2,0.3,2.1,1,2.8s1.6,1,2.8,1c1.6,0,3.1-0.9,4.5-2.8v-9.2c0-1.2-0.2-1.9-0.5-2.2c-0.4-0.3-1.3-0.5-2.8-0.5v-0.8
		L638,1154.5z"/>
	<path class="st2" d="M648.9,1154.5v3.4c2-2.3,4-3.4,6.1-3.4c1.6,0,3,0.6,4.1,1.7c1.1,1.1,1.6,2.6,1.6,4.4v7.7
		c0,1.2,0.2,1.9,0.6,2.3c0.4,0.4,1.2,0.6,2.3,0.6v0.8h-9.1v-0.8c1.1,0,1.9-0.1,2.3-0.4c0.4-0.3,0.6-0.8,0.6-1.7v-8.9
		c0-1.2-0.4-2.1-1.1-2.8s-1.6-1.1-2.7-1.1c-1.6,0-3.2,1.1-4.8,3.3v8.3c0,1.4,0.2,2.3,0.5,2.7c0.4,0.4,1.1,0.6,2.3,0.6v0.8h-9v-0.8
		c1.3,0,2.1-0.2,2.4-0.6s0.4-1.3,0.4-2.6v-9.6c0-1-0.2-1.7-0.5-2s-1.1-0.5-2.3-0.5v-0.8l5.3-0.5H648.9z"/>
	<path class="st2" d="M681.5,1154.5v6h-0.8c-0.4-1.6-1-2.8-2.1-3.7s-2.2-1.4-3.6-1.4c-1.7,0-3.1,0.7-4.1,2s-1.6,3-1.6,5.1
		c0,2.3,0.6,4.3,1.9,6s2.8,2.5,4.5,2.5c1.2,0,2.3-0.3,3.4-0.9s2.1-1.5,2.9-2.6v1.2c-1.8,2.5-4.3,3.8-7.5,3.8c-2.5,0-4.6-0.8-6.2-2.4
		s-2.4-3.7-2.4-6.2c0-2.6,0.9-4.8,2.6-6.7s3.8-2.7,6.2-2.7c1.1,0,2.3,0.2,3.6,0.7c0.6,0.2,1,0.3,1.2,0.3c0.5,0,0.9-0.3,1.1-0.9
		H681.5z"/>
	<path class="st2" d="M698.5,1168.4v-8.4c0-1.1-0.3-2-0.9-2.7s-1.5-1-2.5-1c-1,0-1.8,0.2-2.6,0.7s-1.6,1.3-2.4,2.5v9.3
		c0,0.9,0.2,1.5,0.6,1.8s1.1,0.5,2.2,0.5v0.8h-9.1v-0.8c1.3,0,2.1-0.2,2.5-0.6c0.4-0.4,0.5-1.3,0.5-2.6v-22.1c0-1-0.2-1.7-0.6-2.1
		c-0.4-0.3-1.2-0.5-2.5-0.5v-0.8l5.5-0.6h0.8v16.1c1.1-1.3,2.1-2.1,3-2.6s1.9-0.8,3-0.8c1.7,0,3,0.5,4.1,1.6
		c1.1,1.1,1.6,2.5,1.6,4.3v7.5c0,1.3,0.2,2.2,0.5,2.6s1.1,0.6,2.2,0.6v0.8h-8.8v-0.8c1.2,0,1.9-0.2,2.3-0.5
		C698.3,1170.3,698.5,1169.5,698.5,1168.4z"/>
</g>
<g class="st0">
	<path class="st2" d="M339.3,1305h-8.7v9.8c0,2,0.3,3.3,0.8,4.1c0.5,0.8,1.5,1.1,3,1.1v1h-11.9v-1c1.4,0,2.4-0.4,2.9-1.1
		c0.5-0.8,0.8-2.1,0.8-4.1v-20.6c0-2-0.3-3.4-0.8-4.1s-1.5-1.1-3-1.1v-1h22.7v5.9h-0.8c-0.4-1.7-0.8-2.9-1.4-3.4
		c-0.6-0.5-1.9-0.8-4-0.8h-8.4v13.8h8.6c1.2,0,2-0.3,2.6-0.9c0.6-0.6,0.9-1.6,1.1-3h0.9v9.3h-0.9
		C342.8,1306.3,341.6,1305,339.3,1305z"/>
	<path class="st2" d="M353,1321.7c-1.6,0-3-0.5-4.1-1.6c-1.1-1.1-1.7-2.3-1.7-3.8c0-1.4,0.5-2.6,1.5-3.5c1-0.9,3-1.8,6-2.7
		c1.9-0.5,3.2-1,3.8-1.4v-1.5c0-1.5-0.4-2.7-1.2-3.6c-0.8-0.9-1.9-1.4-3.3-1.4c-1.3,0-2.4,0.4-3.4,1.2c-1,0.8-1.7,1.9-2.1,3.2
		l-1-0.3c0.4-1.9,1.3-3.4,2.7-4.6c1.4-1.1,3-1.7,4.9-1.7c2.2,0,4,0.7,5.3,2c1.4,1.3,2,3.2,2,5.5v8.8c0,1.2,0.1,2.1,0.2,2.5
		s0.5,0.7,0.9,0.7c0.3,0,0.5-0.1,0.7-0.4c0.2-0.3,0.4-0.8,0.6-1.6h1c-0.1,1.3-0.5,2.3-1.2,3s-1.6,1.1-2.8,1.1c-1.7,0-2.8-1-3.5-2.9
		c-1,1.1-1.9,1.9-2.7,2.3C355,1321.4,354.1,1321.7,353,1321.7z M358.5,1316.9v-6.9c-0.6,0.2-1.4,0.6-2.5,0.9c-2,0.7-3.4,1.4-3.9,2.1
		c-0.6,0.7-0.9,1.6-0.9,2.8c0,1,0.3,1.9,0.9,2.6c0.6,0.7,1.3,1.1,2.2,1.1c0.8,0,1.6-0.2,2.4-0.7S358.1,1317.6,358.5,1316.9z"/>
	<path class="st2" d="M375.1,1300v4.4c1.9-1.6,3.3-2.8,4.4-3.4s1.9-1,2.6-1c1.3,0,2.5,0.5,3.8,1.6l-1.6,3.6
		c-2.2-1.2-3.8-1.8-4.9-1.8c-1.2,0-2.6,0.8-4.3,2.5v11.2c0,1.1,0.2,1.9,0.7,2.3c0.5,0.4,1.4,0.6,2.7,0.6v1h-10.8v-1
		c1.4,0,2.4-0.2,2.8-0.7c0.4-0.5,0.7-1.5,0.7-3.3v-11.2c0-1.4-0.2-2.3-0.7-2.7s-1.6-0.6-3.5-0.6v-1l7.2-0.6H375.1z"/>
	<path class="st2" d="M395.2,1300h1v17.2c0,1.1,0.2,1.9,0.7,2.3c0.5,0.4,1.4,0.6,2.7,0.6v1h-11.2v-1c1.6,0,2.7-0.2,3.2-0.6
		c0.5-0.4,0.7-1.1,0.7-2.3v-12.6c0-1.2-0.2-2.1-0.6-2.5c-0.4-0.4-1.5-0.6-3.2-0.6v-1L395.2,1300z M394.3,1289.4
		c0.7,0,1.3,0.2,1.8,0.7s0.7,1.1,0.7,1.8c0,0.7-0.2,1.3-0.7,1.8c-0.5,0.5-1.1,0.7-1.7,0.7c-0.7,0-1.3-0.2-1.8-0.7
		c-0.5-0.5-0.8-1.1-0.8-1.8c0-0.7,0.2-1.3,0.7-1.8C393,1289.7,393.6,1289.4,394.3,1289.4z"/>
	<path class="st2" d="M411.5,1300.6v1c-1.2,0.2-1.7,0.8-1.7,1.8c0,0.4,0.1,0.8,0.3,1.3l4.9,11.6l3.6-10.8c0.3-0.9,0.4-1.6,0.4-2.1
		c0-1.1-0.7-1.7-2.1-1.8v-1h7.2v1c-1.1,0-2,0.4-2.7,1.1c-0.7,0.7-1.4,2-1.9,3.7l-8.1,24.1c-0.8,2.3-1.8,4.1-3,5.4
		c-1.2,1.3-2.5,2-3.8,2c-0.8,0-1.6-0.3-2.5-0.9l1.3-3.5c0.7,0.3,1.4,0.5,2,0.5c1.2,0,2.2-0.4,3-1.2c0.8-0.8,1.5-2.1,2.2-3.9l2.6-7.4
		l-7.3-16.9c-0.5-1.2-1.1-2-1.6-2.4c-0.5-0.4-1.4-0.6-2.5-0.6v-1H411.5z"/>
	<path class="st2" d="M431.9,1321.7c-1.6,0-3-0.5-4.1-1.6c-1.1-1.1-1.7-2.3-1.7-3.8c0-1.4,0.5-2.6,1.5-3.5c1-0.9,3-1.8,6-2.7
		c1.9-0.5,3.2-1,3.8-1.4v-1.5c0-1.5-0.4-2.7-1.2-3.6c-0.8-0.9-1.9-1.4-3.3-1.4c-1.3,0-2.4,0.4-3.4,1.2c-1,0.8-1.7,1.9-2.1,3.2
		l-1-0.3c0.4-1.9,1.3-3.4,2.7-4.6c1.4-1.1,3-1.7,4.9-1.7c2.2,0,4,0.7,5.3,2c1.4,1.3,2,3.2,2,5.5v8.8c0,1.2,0.1,2.1,0.2,2.5
		s0.5,0.7,0.9,0.7c0.3,0,0.5-0.1,0.7-0.4c0.2-0.3,0.4-0.8,0.6-1.6h1c-0.1,1.3-0.5,2.3-1.2,3s-1.6,1.1-2.8,1.1c-1.7,0-2.8-1-3.5-2.9
		c-1,1.1-1.9,1.9-2.7,2.3C433.9,1321.4,433,1321.7,431.9,1321.7z M437.4,1316.9v-6.9c-0.6,0.2-1.4,0.6-2.5,0.9
		c-2,0.7-3.4,1.4-3.9,2.1c-0.6,0.7-0.9,1.6-0.9,2.8c0,1,0.3,1.9,0.9,2.6c0.6,0.7,1.3,1.1,2.2,1.1c0.8,0,1.6-0.2,2.4-0.7
		S437,1317.6,437.4,1316.9z"/>
	<path class="st2" d="M460.6,1300v6.3h-1.2c-0.2-1.6-0.8-2.8-1.7-3.8s-2.1-1.4-3.4-1.4c-1,0-1.8,0.3-2.5,0.8c-0.6,0.5-0.9,1.2-0.9,2
		c0,0.8,0.3,1.6,0.9,2.2c0.6,0.6,1.8,1.4,3.7,2.3c2.5,1.1,4.1,2.2,4.9,3.2c0.8,1,1.2,2.3,1.2,3.7c0,1.7-0.6,3.2-1.9,4.4
		c-1.3,1.3-2.8,1.9-4.5,1.9c-0.9,0-2.1-0.3-3.6-1c-0.8-0.4-1.3-0.5-1.6-0.5c-0.4,0-0.7,0.1-0.9,0.4c-0.2,0.3-0.4,0.6-0.4,1h-1v-7h1
		c0.4,1.8,1.1,3.3,2.4,4.4c1.2,1.1,2.6,1.6,4.2,1.6c1,0,1.9-0.3,2.6-1c0.7-0.7,1-1.5,1-2.5c0-1-0.3-1.8-0.9-2.5s-2-1.5-4.1-2.4
		c-2.4-1-3.9-2-4.7-2.9s-1.1-2-1.1-3.3c0-1.6,0.6-3,1.8-4.1s2.7-1.7,4.4-1.7c0.8,0,1.6,0.2,2.6,0.6c0.7,0.3,1.2,0.4,1.6,0.4
		c0.5,0,0.9-0.3,1.2-1H460.6z"/>
	<path class="st2" d="M489.3,1305.7h-2.7v9.1c0,2,0.3,3.3,0.8,4.1c0.6,0.8,1.5,1.2,2.9,1.2v1h-11.9v-1c1.5,0,2.5-0.4,3-1.2
		c0.5-0.8,0.8-2.1,0.8-4.1V1294c0-2-0.3-3.3-0.8-4.1c-0.5-0.7-1.5-1.1-3-1.1v-1H492c3.3,0,6,0.8,8,2.4c2,1.6,3,3.7,3,6.2
		c0,4.1-2.3,6.8-6.8,8.1c1,0.6,2,1.5,2.9,2.6s2.2,3,3.7,5.6c1.7,2.9,3.1,4.8,4.1,5.7s2,1.4,3,1.5v1h-6.8c-1.4-1.7-3.1-4.1-5-7.4
		c-2.1-3.4-3.8-5.6-5-6.5C492,1306.2,490.7,1305.7,489.3,1305.7z M490.1,1289.2h-3.5v15.1h4.1c2.4,0,4.3-0.7,5.7-2.1
		c1.4-1.4,2.1-3.2,2.1-5.5c0-2.2-0.8-4-2.3-5.4C494.6,1289.9,492.6,1289.2,490.1,1289.2z"/>
	<path class="st2" d="M532.4,1315.8v1.5c-1.2,1.6-2.5,2.7-3.8,3.4c-1.3,0.7-2.8,1-4.6,1c-3.2,0-5.8-1-7.9-3c-2.1-2-3.1-4.5-3.1-7.6
		c0-3.1,1-5.7,3-7.8c2-2.1,4.4-3.2,7.3-3.2c2.4,0,4.4,0.8,6.2,2.4c1.8,1.6,2.7,3.5,2.7,5.7v0.4h-15v0.3c0,2.3,0.3,4.2,1,5.9
		c0.7,1.7,1.7,3,3,3.9c1.3,0.9,2.7,1.4,4.1,1.4c1.3,0,2.5-0.3,3.4-0.8C529.5,1318.6,530.8,1317.5,532.4,1315.8z M517,1307.6h11.1
		v-0.4c0-1.8-0.5-3.3-1.6-4.3c-1-1.1-2.3-1.6-3.9-1.6c-1.7,0-3,0.6-4,1.7C517.7,1304,517.1,1305.6,517,1307.6z"/>
	<path class="st2" d="M549.4,1300v6.3h-1.2c-0.2-1.6-0.8-2.8-1.7-3.8s-2.1-1.4-3.4-1.4c-1,0-1.8,0.3-2.5,0.8s-0.9,1.2-0.9,2
		c0,0.8,0.3,1.6,0.9,2.2c0.6,0.6,1.8,1.4,3.7,2.3c2.5,1.1,4.1,2.2,4.9,3.2c0.8,1,1.2,2.3,1.2,3.7c0,1.7-0.6,3.2-1.9,4.4
		c-1.3,1.3-2.8,1.9-4.5,1.9c-0.9,0-2.1-0.3-3.6-1c-0.8-0.4-1.3-0.5-1.6-0.5c-0.4,0-0.7,0.1-0.9,0.4c-0.2,0.3-0.4,0.6-0.4,1h-1v-7h1
		c0.4,1.8,1.1,3.3,2.4,4.4s2.6,1.6,4.2,1.6c1,0,1.9-0.3,2.6-1c0.7-0.7,1-1.5,1-2.5c0-1-0.3-1.8-0.9-2.5c-0.6-0.7-2-1.5-4.1-2.4
		c-2.4-1-3.9-2-4.7-2.9s-1.1-2-1.1-3.3c0-1.6,0.6-3,1.8-4.1s2.7-1.7,4.4-1.7c0.8,0,1.6,0.2,2.6,0.6c0.7,0.3,1.2,0.4,1.6,0.4
		c0.5,0,0.9-0.3,1.2-1H549.4z"/>
	<path class="st2" d="M576.8,1310.9c0,3.1-1.1,5.7-3.2,7.7c-2.1,2.1-4.8,3.1-8,3.1c-3.2,0-5.9-1-8-3.1c-2.1-2.1-3.2-4.6-3.2-7.7
		c0-3.1,1.1-5.7,3.2-7.8c2.1-2.1,4.8-3.1,8-3.1s5.9,1,8,3.1C575.7,1305.1,576.8,1307.7,576.8,1310.9z M572.5,1310.9
		c0-2.9-0.6-5.3-1.9-7.1s-2.9-2.7-5.1-2.7s-3.8,0.9-5.1,2.6s-1.9,4.1-1.9,7.1c0,2.9,0.6,5.3,1.8,7c1.2,1.8,2.9,2.6,5.1,2.6
		s3.9-0.9,5.1-2.7C571.9,1316.1,572.5,1313.8,572.5,1310.9z"/>
	<path class="st2" d="M587.4,1300v4.4c1.9-1.6,3.3-2.8,4.4-3.4c1-0.7,1.9-1,2.6-1c1.3,0,2.5,0.5,3.8,1.6l-1.6,3.6
		c-2.2-1.2-3.8-1.8-4.9-1.8c-1.2,0-2.6,0.8-4.3,2.5v11.2c0,1.1,0.2,1.9,0.7,2.3c0.5,0.4,1.4,0.6,2.7,0.6v1H580v-1
		c1.4,0,2.4-0.2,2.8-0.7c0.4-0.5,0.7-1.5,0.7-3.3v-11.2c0-1.4-0.2-2.3-0.7-2.7s-1.7-0.6-3.5-0.6v-1l7.2-0.6H587.4z"/>
	<path class="st2" d="M608.4,1293.6h1v6.9h7.1v1.5h-7.1v13.2c0,1.4,0.3,2.4,1,3.2c0.6,0.7,1.6,1.1,2.7,1.1c1.4,0,2.7-0.7,3.8-2
		l0.6,0.8c-1.8,2.3-3.8,3.4-6.2,3.4c-1.7,0-3.2-0.6-4.3-1.7s-1.6-2.5-1.6-4.3V1302h-3.9v-1C604.5,1299.6,606.7,1297.1,608.4,1293.6z
		"/>
	<path class="st2" d="M622.7,1330.9v-1c1.5-0.8,2.6-1.6,3.2-2.6c0.6-1,0.9-2.2,0.9-3.9c0-0.4-0.1-0.7-0.2-0.8s-0.4-0.2-0.9-0.2
		c-0.8,0-1.6-0.3-2.1-0.8s-0.9-1.2-0.9-2c0-0.8,0.3-1.4,0.8-1.9c0.5-0.5,1.2-0.8,2-0.8c1.3,0,2.3,0.5,3.1,1.6c0.8,1,1.2,2.4,1.2,4
		c0,2-0.7,3.8-2,5.4S624.8,1330.4,622.7,1330.9z"/>
	<path class="st2" d="M672.6,1313.8h1l-2,7.2h-24v-1c1.4,0,2.3-0.4,2.9-1.3c0.6-0.8,0.9-2.3,0.9-4.3v-20.8c0-1.8-0.3-3-0.8-3.7
		s-1.5-1.1-2.9-1.1v-1h11.8v1c-1.3,0-2.3,0.4-2.8,1.2c-0.6,0.8-0.9,2.1-0.9,4v22.1c0,1.2,0.3,2.1,0.8,2.5c0.5,0.5,1.5,0.7,3,0.7h6.6
		c2,0,3.5-0.4,4.3-1.1S671.9,1316.1,672.6,1313.8z"/>
	<path class="st2" d="M698.5,1310.9c0,3.1-1.1,5.7-3.2,7.7c-2.1,2.1-4.8,3.1-8,3.1c-3.2,0-5.9-1-8-3.1c-2.1-2.1-3.2-4.6-3.2-7.7
		c0-3.1,1.1-5.7,3.2-7.8c2.1-2.1,4.8-3.1,8-3.1c3.2,0,5.9,1,8,3.1C697.4,1305.1,698.5,1307.7,698.5,1310.9z M694.2,1310.9
		c0-2.9-0.6-5.3-1.9-7.1c-1.2-1.8-2.9-2.7-5.1-2.7s-3.8,0.9-5.1,2.6s-1.9,4.1-1.9,7.1c0,2.9,0.6,5.3,1.8,7c1.2,1.8,2.9,2.6,5.1,2.6
		c2.2,0,3.9-0.9,5.1-2.7C693.6,1316.1,694.2,1313.8,694.2,1310.9z"/>
	<path class="st2" d="M708.4,1300v4.1c2.4-2.7,4.9-4.1,7.4-4.1c2,0,3.6,0.7,4.9,2c1.3,1.3,2,3.1,2,5.3v9.2c0,1.4,0.2,2.3,0.7,2.8
		c0.5,0.5,1.4,0.7,2.8,0.7v1h-10.9v-1c1.4,0,2.3-0.2,2.8-0.5c0.5-0.3,0.7-1,0.7-2v-10.7c0-1.4-0.4-2.6-1.3-3.4
		c-0.9-0.8-2-1.3-3.3-1.3c-1.9,0-3.9,1.3-5.8,4v10c0,1.7,0.2,2.8,0.7,3.2c0.4,0.5,1.4,0.7,2.8,0.7v1H701v-1c1.6,0,2.5-0.3,2.9-0.8
		c0.4-0.5,0.5-1.6,0.5-3.2v-11.5c0-1.2-0.2-2-0.6-2.4s-1.4-0.6-2.8-0.6v-1l6.4-0.6H708.4z"/>
	<path class="st2" d="M734.5,1321.7c-1.6,0-3-0.5-4.1-1.6c-1.1-1.1-1.7-2.3-1.7-3.8c0-1.4,0.5-2.6,1.5-3.5s3-1.8,6-2.7
		c1.9-0.5,3.2-1,3.8-1.4v-1.5c0-1.5-0.4-2.7-1.2-3.6c-0.8-0.9-1.9-1.4-3.3-1.4c-1.3,0-2.4,0.4-3.4,1.2c-1,0.8-1.7,1.9-2.1,3.2
		l-1-0.3c0.4-1.9,1.3-3.4,2.7-4.6c1.4-1.1,3-1.7,4.9-1.7c2.2,0,4,0.7,5.3,2c1.4,1.3,2,3.2,2,5.5v8.8c0,1.2,0.1,2.1,0.2,2.5
		c0.2,0.4,0.5,0.7,0.9,0.7c0.3,0,0.5-0.1,0.7-0.4c0.2-0.3,0.4-0.8,0.6-1.6h1c-0.1,1.3-0.5,2.3-1.2,3s-1.6,1.1-2.8,1.1
		c-1.7,0-2.8-1-3.5-2.9c-1,1.1-1.9,1.9-2.7,2.3C736.5,1321.4,735.6,1321.7,734.5,1321.7z M740,1316.9v-6.9c-0.6,0.2-1.4,0.6-2.5,0.9
		c-2,0.7-3.4,1.4-3.9,2.1c-0.6,0.7-0.9,1.6-0.9,2.8c0,1,0.3,1.9,0.9,2.6c0.6,0.7,1.3,1.1,2.2,1.1c0.8,0,1.6-0.2,2.4-0.7
		C739,1318.2,739.6,1317.6,740,1316.9z"/>
	<path class="st2" d="M757.1,1300.6v1c-1.3,0.1-2,0.7-2,1.7c0,0.5,0.2,1.1,0.5,1.8l4.6,10.9l4-10.4c0.4-1,0.6-1.8,0.6-2.4
		c0-1-0.9-1.6-2.6-1.8v-1h7.5v1c-1.2,0.1-2.1,0.4-2.6,0.7c-0.5,0.4-0.9,1.1-1.4,2.2l-6.6,16.9h-1l-6.5-16c-0.7-1.6-1.2-2.6-1.7-3.1
		c-0.5-0.4-1.4-0.7-2.6-0.8v-1H757.1z"/>
	<path class="st2" d="M777.1,1321.7c-1.6,0-3-0.5-4.1-1.6c-1.1-1.1-1.7-2.3-1.7-3.8c0-1.4,0.5-2.6,1.5-3.5s3-1.8,6-2.7
		c1.9-0.5,3.2-1,3.8-1.4v-1.5c0-1.5-0.4-2.7-1.2-3.6c-0.8-0.9-1.9-1.4-3.3-1.4c-1.3,0-2.4,0.4-3.4,1.2c-1,0.8-1.7,1.9-2.1,3.2
		l-1-0.3c0.4-1.9,1.3-3.4,2.7-4.6c1.4-1.1,3-1.7,4.9-1.7c2.2,0,4,0.7,5.3,2c1.4,1.3,2,3.2,2,5.5v8.8c0,1.2,0.1,2.1,0.2,2.5
		c0.2,0.4,0.5,0.7,0.9,0.7c0.3,0,0.5-0.1,0.7-0.4c0.2-0.3,0.4-0.8,0.6-1.6h1c-0.1,1.3-0.5,2.3-1.2,3s-1.6,1.1-2.8,1.1
		c-1.7,0-2.8-1-3.5-2.9c-1,1.1-1.9,1.9-2.7,2.3S778.2,1321.7,777.1,1321.7z M782.6,1316.9v-6.9c-0.6,0.2-1.4,0.6-2.5,0.9
		c-2,0.7-3.4,1.4-3.9,2.1c-0.6,0.7-0.9,1.6-0.9,2.8c0,1,0.3,1.9,0.9,2.6c0.6,0.7,1.3,1.1,2.2,1.1c0.8,0,1.6-0.2,2.4-0.7
		C781.6,1318.2,782.2,1317.6,782.6,1316.9z"/>
	<path class="st2" d="M802.8,1320h0.5v1H792v-1h1c1.1,0,1.8-0.3,2.1-0.8s0.6-1.6,0.6-3v-27c0-1.1-0.2-1.8-0.6-2.2
		c-0.4-0.4-1.1-0.6-2.1-0.6h-1.3v-1l7.1-0.7h1v32.4c0,1.1,0.2,1.9,0.7,2.3C800.8,1319.8,801.6,1320,802.8,1320z"/>
	<path class="st2" d="M812.1,1321.7c-1.6,0-3-0.5-4.1-1.6c-1.1-1.1-1.7-2.3-1.7-3.8c0-1.4,0.5-2.6,1.5-3.5s3-1.8,6-2.7
		c1.9-0.5,3.2-1,3.8-1.4v-1.5c0-1.5-0.4-2.7-1.2-3.6c-0.8-0.9-1.9-1.4-3.3-1.4c-1.3,0-2.4,0.4-3.4,1.2c-1,0.8-1.7,1.9-2.1,3.2
		l-1-0.3c0.4-1.9,1.3-3.4,2.7-4.6c1.4-1.1,3-1.7,4.9-1.7c2.2,0,4,0.7,5.3,2c1.4,1.3,2,3.2,2,5.5v8.8c0,1.2,0.1,2.1,0.2,2.5
		c0.2,0.4,0.5,0.7,0.9,0.7c0.3,0,0.5-0.1,0.7-0.4c0.2-0.3,0.4-0.8,0.6-1.6h1c-0.1,1.3-0.5,2.3-1.2,3s-1.6,1.1-2.8,1.1
		c-1.7,0-2.8-1-3.5-2.9c-1,1.1-1.9,1.9-2.7,2.3S813.1,1321.7,812.1,1321.7z M817.6,1316.9v-6.9c-0.6,0.2-1.4,0.6-2.5,0.9
		c-2,0.7-3.4,1.4-3.9,2.1c-0.6,0.7-0.9,1.6-0.9,2.8c0,1,0.3,1.9,0.9,2.6c0.6,0.7,1.3,1.1,2.2,1.1c0.8,0,1.6-0.2,2.4-0.7
		C816.6,1318.2,817.2,1317.6,817.6,1316.9z"/>
</g>
<g>
	<path class="st3" d="M431,540.6c0.9-2.7,1.7-5.5,2.6-8.3s1.7-5.6,2.4-8.3c2.5-9.3,4.5-18.7,6.3-28.1c1.7-9.4,3.3-18.8,4.8-28.2
		c0.7-4.7,1.4-9.3,2-14s1.2-9.3,1.8-14c0-0.5,0.1-0.9,0.2-1.1c0.2-1.7,1.1-2.8,2.6-3.1c1.5-0.1,2.6,0.5,3.3,1.8c1,1.5,1,2.9,0,4.4
		c-0.5,0.7-0.7,1.5-0.7,2.2c-2.1,14.7-4.3,29.3-6.7,43.7c-2.4,14.4-5.6,28.7-9.5,43c-0.6,2.1-1.3,4.1-1.9,6.1c-0.7,2-1.4,4-2.1,6.1
		c-0.4,1-0.9,1.9-1.7,2.8c-0.7,0.9-1.8,1.3-3.1,1.5c-1.4,0.1-2.4-0.2-3-1c-0.7-0.8-1.3-1.7-1.9-2.7c-1.4-2.5-2.4-5-3.1-7.5
		c-0.7-2.6-1.4-5.2-2-7.9c-1.7-8.3-3-16.6-4-24.8c-0.9-8.2-1.4-16.6-1.6-25v-1.7c-0.6,0.9-1,1.5-1.3,1.8c-5,7.4-9.6,14.8-13.7,22.4
		c-4.1,7.5-8.1,15.2-12.1,23.1c-2.8,5.8-5.8,11.5-8.8,17.1c-0.7,1.2-1.6,2.4-2.5,3.5s-1.8,2.2-2.7,3.3c-0.5,0.6-1.2,1.2-2.2,1.7
		c-1.8,1.3-3.7,1.8-5.4,1.4c-1.8-0.4-3.3-1.6-4.5-3.4c-1-1.5-1.7-3.1-2.2-4.8s-0.9-3.4-1.1-5.2c-0.6-5.5-0.8-10.9-0.6-16.3
		c0.2-5.3,0.5-10.8,0.8-16.3c0.9-11.2,2.2-22.2,4-33c1.8-10.9,3.9-21.7,6.3-32.5c0-0.2,0-0.5,0.1-0.7s0.1-0.5,0.1-0.7
		c-1.5-0.7-2.4-1.4-2.7-2c-0.3-0.6-0.2-1.8,0.3-3.5c1.2-4.5,2.7-9,4.4-13.3c1.7-4.3,3.6-8.5,5.5-12.7c1-2.2,2.3-2.9,4-2.2
		c1.6,0.6,2.1,2,1.7,4.2c-1,3.6-1.9,7.1-2.8,10.7s-1.7,7.1-2.6,10.7c-2.8,11.4-5.3,22.8-7.4,34.2c-2.1,11.4-3.7,23-4.8,34.8
		c-0.5,5.3-0.9,10.5-1.2,15.6c-0.3,5.2-0.3,10.4-0.1,15.6c0.1,2.1,0.3,4.1,0.6,6.1c0.3,2,0.7,3.9,1.2,5.9c0.9,3.7,2.5,4,5,1.1
		c2-2.6,3.8-5.3,5.5-8.3c2.6-5.2,5.1-10.2,7.6-15.3c2.5-5,5.1-10.1,7.8-15.3c3.1-5.8,6.3-11.4,9.7-16.9c3.4-5.5,7-11,10.8-16.4
		l2.2-2.8c1.2-1.1,2.5-1.5,3.8-1.2s2.1,1.3,2.5,3c0.2,0.6,0.4,1.3,0.4,1.9c0,0.7,0,1.3,0,1.9c0,5.4,0.2,10.8,0.5,16.1
		c0.3,5.3,0.8,10.7,1.6,16.1c0.6,5,1.3,10,2.1,14.9c0.8,4.9,2,9.8,3.6,14.5c0.2,0.6,0.6,1.6,1.1,3
		C430.6,539.8,430.9,540.6,431,540.6z M500.6,491.6c0.7,1.7,0.6,3.4-0.4,5c-0.2,0.6-0.6,1.1-1.1,1.5s-0.9,0.7-1.3,1.1
		c-1.7,1.7-3.5,3.4-5.3,5s-3.7,3.1-5.5,4.6c-2.1,1.6-4.2,3.1-6.3,4.5c-2.1,1.4-4.4,2.6-6.9,3.6c-3.4,1.4-6.4,1.2-9-0.4
		c-2.6-1.6-4.2-4.2-4.8-7.7c-0.4-1.6-0.5-3.1-0.4-4.4c0-0.5,0-0.9,0.1-1.3s0.1-0.8,0.1-1.3c0-0.7-0.1-1.5-0.4-2.2
		c-0.4-1.2-0.2-2.4,0.6-3.5c0.4-0.6,0.7-1.2,1-1.7c0.3-0.6,0.6-1.1,0.8-1.7c1-3.1,2-6,3.1-8.9s2.5-5.7,4.2-8.6
		c0.6-1.1,1.3-2.2,2.2-3.2c0.9-1,1.8-2,2.8-2.9c1.3-1.1,2.8-1.5,4.2-1.2c1.5,0.3,2.5,1.2,3.1,2.7c0.2,0.6,0.4,1.4,0.5,2.2
		c0.1,0.9,0,1.6-0.3,2.2c-0.6,2.2-1.5,4.2-2.8,6.1c-3.3,4.8-6.9,9.7-10.9,14.7c-0.6,0.7-1.1,1.4-1.6,2.1c-0.4,0.7-0.6,1.5-0.6,2.5
		c-0.1,1.4-0.2,2.6-0.4,3.9c-0.1,1.2-0.1,2.5,0.2,3.7c0.2,1.8,0.9,3.1,2,3.8s2.5,0.6,4.2-0.1c4.7-2.2,9-5,13-8.3s7.8-6.7,11.5-10.1
		c0.6-0.6,1.3-1.2,2.1-1.8C499.3,490.6,500,490.7,500.6,491.6z M531.3,462.7c-1.2,7.7-2.4,15.4-3.4,23s-2.1,15.3-3,23
		c-0.7,5.8-1.2,11.5-1.5,17.1c-0.2,5.6-0.1,11.3,0.4,17.1c0.1,0.6,0.2,1.3,0.3,2s0.2,1.5,0.3,2.2c0.2-0.1,0.4-0.2,0.5-0.4
		c0.1-0.1,0.2-0.2,0.3-0.2c0.5-0.1,1-0.3,1.6-0.5s1-0.2,1.4,0.1c0.4,0.2,0.7,0.6,1.1,1c0.4,0.4,0.6,0.9,0.6,1.4
		c0,3.1-0.8,5.6-2.4,7.7c-0.9,1.3-2,1.9-3.3,1.7c-1.4-0.2-2.3-1-2.9-2.3c-1.2-2.6-2-5.4-2.4-8.5c-0.7-4.8-1.1-9.5-1.1-14.3
		c0-4.7,0.2-9.5,0.7-14.3c0.6-6.9,1.3-13.6,2.2-20.3c0.9-6.7,1.7-13.5,2.4-20.3c0-0.5-0.1-0.9-0.2-1.1c-0.2,0.2-0.4,0.5-0.5,0.8
		s-0.2,0.6-0.5,1c-2,3.9-3.9,7.9-5.8,11.8c-1.9,3.9-3.9,7.9-6,11.8c-1,1.6-2.1,3.1-3.2,4.6c-1.2,1.5-2.4,2.9-3.8,4.2
		c-1,1-2.1,1.7-3.3,2.1c-1.2,0.4-2.6,0.3-4-0.3c-1-0.4-1.6-1.1-1.9-2.2s-0.5-2.3-0.6-3.5c-0.1-1.3-0.1-2.9,0.2-4.6
		c1.1-6.1,2.6-11.8,4.5-17.1c1.9-5.3,4.4-10.6,7.6-15.8c1.1-1.7,2.2-3.1,3.3-4c3.9-4.3,8-4.4,12.3-0.4c0.2-0.2,0.5-0.7,0.7-1.3
		c1-2.3,1.9-4.6,2.9-6.8s1.7-4.5,2.5-7c0.9-2.5,1.6-5,2.1-7.5c0.6-2.6,1.1-5.2,1.7-7.7c1-3.7,2-7.4,2.9-11c1-3.7,2-7.3,2.9-10.9
		c0.2-1,0.6-1.9,0.9-2.8c0.4-0.9,0.8-1.7,1.3-2.6c1.1-1.6,2.5-2.2,4-1.8c0.7,0.2,1.3,0.7,1.8,1.3c0.5,0.6,0.7,1.4,0.6,2.4
		c-0.1,1.4-0.2,2.6-0.4,3.9c-0.1,1.2-0.4,2.5-0.7,3.9c-1.2,3.9-2.4,7.8-3.5,11.6c-1.1,3.8-2.4,7.6-3.9,11.4
		c-1.4,3.6-2.5,7.2-3.4,10.9C532.7,455.1,531.9,458.9,531.3,462.7z M517,475.8c0.5-1,0.7-2,0.6-2.9c-0.1-1-0.3-2-0.6-2.9
		c-1-2.2-2.2-2.5-3.7-0.7c-0.9,1-1.6,1.9-2.3,2.9c-0.7,0.9-1.3,1.9-1.9,3c-2.3,3.8-4.3,7.8-5.8,11.9s-2.8,8.3-3.8,12.6
		c0,0.2-0.1,0.8-0.4,1.6c-0.2,0.8-0.4,1.7-0.6,2.6c-0.1,0.9-0.2,1.7-0.3,2.5c-0.1,0.7,0.1,1.1,0.5,1.1c0.2,0.1,0.6-0.1,1-0.6
		c0.4-0.6,0.8-0.9,1-1.2c0.7-0.9,1.4-1.7,2.1-2.6s1.3-1.8,1.9-2.8c2.5-3.9,4.6-7.9,6.5-12C513.3,484.1,515.1,479.9,517,475.8z
		 M580.1,406.9c1-1.5,2.2-2,3.7-1.7c1.6,0.6,2.4,1.7,2.4,3.1c-0.1,1.1-0.2,2.2-0.4,3.2c-0.1,1-0.3,2.1-0.6,3
		c-0.9,3.2-1.8,6.4-2.8,9.7c-1,3.3-1.8,6.5-2.6,9.7c-1.6,7.5-2.9,15.2-3.9,23c-0.9,5.9-1.6,11.7-2.2,17.3
		c-0.6,5.6-1.2,11.4-1.8,17.3c-0.7,7.4-0.4,14.5,1.1,21.5c0,0.4,0,0.7,0.1,1s0.2,0.6,0.3,1c3.3-1.1,5,0,5,3.3c0.2,1.1,0.2,2.3,0,3.7
		c-0.4,2.1-1.4,3.3-2.9,3.7c-1.7,0.4-3.1-0.3-4.2-2c-1-1.5-1.8-3-2.4-4.7c-0.6-1.7-1.1-3.3-1.5-5.1c-0.9-4-1.3-8.1-1.4-12.1
		c-0.1-4,0.1-8.2,0.5-12.3c0.2-3.6,0.6-7.1,1-10.8c0.4-3.6,0.8-7.2,1.2-10.8c0-0.7-0.1-1.3-0.2-1.7c-0.2,0.5-0.4,0.9-0.6,1.3
		c-0.1,0.4-0.2,0.8-0.4,1.3c-2.1,5.3-4.2,10.5-6.4,15.6c-2.2,5.2-4.8,10.1-7.9,14.7c-1.1,1.7-2.3,3.4-3.7,5s-2.7,3.1-4,4.6
		c-1.5,1.8-3.4,2.8-5.9,2.8c-2.8-0.2-4.6-1.8-5.3-4.8c-0.5-1.7-0.7-3.3-0.7-4.9c0-1.5,0.1-3.2,0.4-4.9c0.6-3.9,1.4-7.7,2.3-11.4
		c0.9-3.7,2.2-7.2,4-10.7c0.6-1.3,1.3-2.6,2-3.9c0.7-1.2,1.6-2.3,2.6-3.3c1.5-1.6,2.9-2.5,4.4-2.9c1.5-0.3,2.9-0.2,4.2,0.2
		c1.3,0.4,2.5,1.2,3.6,2.4c1,1.2,1.7,2.4,2.1,3.8c0.1,0.2,0.2,0.5,0.2,0.8s0.1,0.6,0.4,1c0.2-0.7,0.4-1,0.4-0.9
		c2.3-6.3,4.6-12.5,6.9-18.7c2.3-6.2,4.4-12.5,6.5-18.9c1-2.8,1.7-5.7,2.1-8.7c0.4-3,0.9-6,1.6-8.9c0.2-1.3,0.5-2.7,0.8-4
		s0.6-2.6,1-4c0.1-0.4,0.3-0.7,0.5-1.1C579.6,407.7,579.8,407.3,580.1,406.9L580.1,406.9z M556.5,480.9c0-0.2,0.1-0.5,0.4-0.7
		c-1.4-0.2-2.2-0.8-2.5-1.7c-0.3-0.9-0.5-1.8-0.5-2.8c0-0.4,0-0.8,0-1.2c0-0.4-0.1-0.8-0.2-1.2c-0.2-0.6-0.5-1.2-0.8-1.8
		c-0.3-0.6-0.8-0.9-1.6-0.9c-0.5-0.1-1,0-1.5,0.4s-0.9,0.7-1.3,0.9c-0.5,0.5-0.9,1-1.3,1.6c-0.4,0.6-0.7,1.1-0.9,1.7
		c-0.6,1.1-1.2,2.2-1.7,3.3c-0.5,1.1-0.9,2.2-1.3,3.3c-1.2,3.3-2.2,6.6-2.9,9.9s-1.2,6.7-1.3,10.3c0,1.2,0.1,2.1,0.4,2.8
		c0.2,1.1,0.8,1.3,1.7,0.5s1.4-1.4,1.7-1.7c0.7-0.9,1.5-1.7,2.2-2.5s1.4-1.7,2-2.7s1.2-1.9,1.7-2.8c0.6-0.9,1.1-1.8,1.7-2.8
		c0.5-1,1-2,1.5-2.9c0.5-1,1-2,1.5-2.9c0.6-1,1.1-2,1.6-3C555.6,482.9,556,481.9,556.5,480.9z M615.2,490.9c1.3-1.7,2.8-2.1,4.2-1.1
		c0.6,0.5,0.8,1.4,0.5,2.7c-0.3,1.3-0.8,2.3-1.4,3c-0.6,0.9-2.3,2.9-5.1,6.2c-2.8,3.3-6.3,6.9-10.8,10.9c-1.1,1-2.2,1.9-3.4,2.7
		s-2.4,1.6-3.8,2.5c-0.6,0.5-1.3,0.8-1.9,1c-0.7,0.2-1.4,0.4-2.1,0.6c-3.2,0.6-5.6-0.8-7.2-4.2c-1.1-2.6-1.4-6.6-0.9-12
		c0.4-3.1,1-6.3,1.8-9.7c0.9-3.4,2-6.8,3.3-10.2c0.6-1.7,1.5-3.2,2.6-4.4c0.6-0.9,1.4-1.3,2.3-1.4c0.9-0.1,1.7,0.2,2.3,0.8
		c1.6,1.5,1.5,3-0.4,4.6c-0.5,0.4-0.9,0.9-1.1,1.5c-1.7,3.9-3.1,7.9-4,12.1c-1,4.1-1.4,8.3-1.3,12.6c0,0.6,0.1,1.2,0.2,1.7
		c0.1,0.6,0.2,1.1,0.4,1.7c0.1,0.7,0.6,1.1,1.4,1c0.8-0.1,1.6-0.3,2.5-0.8s1.7-1,2.4-1.7c0.7-0.6,1.2-1,1.5-1.3
		c1.7-1.7,3.3-3.2,4.7-4.6c1.4-1.3,2.9-2.9,4.5-4.6c1.3-1.5,2.3-2.5,2.9-3.1c0.6-0.6,1.1-1.2,1.6-1.7s1-1,1.6-1.7
		C612.9,493.6,613.9,492.5,615.2,490.9L615.2,490.9z M601.3,466c-0.7,1.2-1.8,1.5-3.1,0.9c-0.6-0.2-1.1-0.6-1.6-1.2
		c-0.4-0.6-0.5-1.1-0.3-1.7c0.6-1.6,1.1-2.9,1.4-4c0.3-1.1,0.8-2.5,1.4-4c0.2-0.9,0.8-1.4,1.6-1.6s1.5-0.2,2.1,0.1
		c1.5,0.5,1.9,1.8,1.3,3.9c-0.4,1.2-0.6,2.1-0.7,2.8c-0.1,0.6-0.4,1.5-0.9,2.8C602.1,464.8,601.7,465.5,601.3,466L601.3,466z
		 M646.5,476.7l-1.7,1.7c-4.5,5.2-8.6,10.5-12.3,16s-6.9,11.4-9.8,17.7l-2.8,6.1c-0.2,0.4-0.5,0.7-0.7,1.1c-0.2,0.4-0.5,0.7-0.7,1.1
		c-0.5,0.6-1,1.1-1.7,1.6c-0.6,0.4-1.4,0.5-2.2,0.3c-1.8-0.4-2.8-1.5-2.8-3.3c-0.1-1.3-0.2-2.7-0.2-4s0.1-2.7,0.4-4
		c1-4.3,2-8.6,3-12.8c1-4.2,2.1-8.5,3.2-12.8c0.1-0.6,0.2-1.2,0.4-1.7c0.1-0.5,0.3-1,0.6-1.7c0.2-0.6,0.4-1.3,0.5-1.9
		c0.1-0.7-0.2-1.3-0.6-1.9c-0.4-0.6-0.3-1.4,0.2-2.4c0.6-1.7,1.2-3.5,1.8-5.2c0.6-1.8,1.2-3.5,1.8-5.2c0.7-2,2-2.6,3.7-2
		c0.7,0.2,1.3,0.7,1.7,1.3c0.4,0.6,0.5,1.4,0.3,2.4c-1,3.9-1.9,7.8-2.9,11.5c-0.9,3.7-1.9,7.6-2.9,11.5c-0.6,2.6-1.3,5.2-2,7.7
		c-0.7,2.6-1.4,5.2-2,7.7c-0.2,0.7-0.3,1.4-0.2,2c0.1-0.2,0.2-0.5,0.4-0.7c0.1-0.2,0.2-0.5,0.4-0.7c3.1-6.1,6.5-11.9,10.3-17.4
		s8-10.6,12.7-15.6c0.9-1.1,2-2.1,3.3-2.9c1.3-0.9,2.7-1,4-0.6c1.3,0.5,2.1,1.5,2.3,3.1c0.5,2.2,0.6,4.7,0.2,7.5
		c-0.2,2.9-0.6,5.9-1.1,8.8s-0.9,5.9-1.1,8.8c-0.1,0.9-0.2,1.7-0.1,2.6c0.1,0.9,0.2,1.8,0.3,2.8s0.2,2,0.4,2.9c0.1,1,0.4,2,0.7,2.9
		c2.3-1.6,4.4-3.6,6.3-6.1c1.9-2.5,3.6-4.8,5.1-7c0.2-0.5,0.5-0.9,0.8-1.4c0.3-0.4,0.6-0.8,0.8-1.2c1-1.6,1.9-2.5,2.7-2.9
		c0.8-0.3,1.5-0.2,2.1,0.3s0.9,1.3,0.9,2.5s-0.3,2.2-0.9,3c-1.6,2.3-3,4.4-4.1,6.1c-1.2,1.7-2.6,3.6-4.3,5.7c-0.9,1-1.7,1.8-2.5,2.5
		s-1.7,1.4-2.7,2.3c-2,1.6-3.8,2.1-5.6,1.7c-1.8-0.5-3.2-1.9-4.1-4.2c-1-2.2-1.5-4.4-1.7-6.7c-0.1-2.3-0.1-4.6,0.2-6.9
		c0.2-2.9,0.6-5.9,1.1-8.7c0.5-2.9,0.9-5.8,1.3-8.7c0-0.4,0-0.8,0-1.3C646.7,477.3,646.6,476.9,646.5,476.7z M691.6,478
		c0.5-0.5,0.9-0.9,1.2-1.3s0.6-0.7,1-0.9c1-0.9,2-1.2,3.1-0.9c1.1,0.2,1.8,1,2.2,2.2c0.5,1.4,0.7,3,0.7,5c0,5.9-0.3,11.7-1,17.4
		c-0.7,5.7-1.5,11.5-2.5,17.4c-0.1,0.4-0.2,1-0.2,1.8c0.2-0.2,0.4-0.4,0.6-0.6c0.1-0.1,0.2-0.3,0.4-0.6c2.1-2.1,4.1-4.1,6.1-6.2
		c2-2,4-4.1,6.1-6.2c1-0.9,2-1.6,3-2.3c1-0.7,2.1-1.3,3-1.9c1.7-0.9,3.2-1,4.6-0.6c1,0.4,1.7,1,2.3,1.7c0.6,0.8,0.7,1.7,0.5,2.7
		s-0.8,1.7-1.6,2.1s-1.6,0.4-2.3-0.1c-0.6-0.5-1.1-0.6-1.6-0.5c-0.4,0.2-0.8,0.4-1.2,0.6c-1.5,1.4-3,2.7-4.5,4c-1.5,1.3-3,2.6-4.3,4
		c-1.7,1.7-3.3,3.5-4.9,5.4c-1.5,1.9-3.1,3.8-4.7,5.6c-1.6,1.8-2.8,3.8-3.7,5.8s-1.5,4.2-2,6.5c-1.6,7-3.4,13.9-5.4,20.7
		s-4.4,13.5-7.3,20.2c-0.4,1.1-0.9,2.2-1.7,3.3c-1.1,1.3-2.3,1.8-3.7,1.5c-1.7-0.4-2.6-1.4-2.6-2.9c-0.1-1.2-0.2-2.4-0.3-3.6
		c-0.1-1.2,0-2.4,0.1-3.6c0.6-4.7,1.6-9.2,2.9-13.6c1.3-4.4,2.9-8.8,4.9-13.1c1.3-2.8,2.7-5.5,4.1-8.1c1.4-2.6,2.8-5.2,4.1-7.9
		c0.5-0.9,0.9-1.8,1.1-2.8c1.5-7,2.7-14,3.7-20.9s1.7-14,2.2-21.1V485c-0.6,0.9-1,1.4-1.1,1.7c-1.4,2.3-2.7,4.6-4.1,6.7
		c-1.4,2.1-3.1,4.1-5.1,6c-1.1,1.1-2.3,2.1-3.6,2.9s-2.7,1.3-4.1,1.6c-4.2,1-7.1-0.5-8.8-4.4c-0.6-1.3-1-2.7-1.2-4.1
		s-0.2-2.8,0.1-4.1c1-8.6,3.9-16.3,8.8-23c0.9-1.5,2-2.7,3.5-3.7c1.7-1.3,3.5-1.9,5.2-1.7c1.8,0.2,3.4,1.1,4.9,2.7s2.4,3.3,2.9,5.1
		c0.4,1.8,0.5,3.7,0.3,5.8c0,0.2,0,0.5-0.1,0.8C691.6,477.3,691.6,477.6,691.6,478z M679.3,471.7c-3.8,5.5-6.3,11.7-7.4,18.6
		c0,0.6,0,1.2-0.1,1.7c-0.1,0.6-0.1,1.1-0.1,1.7c0,0.7,0.1,1.3,0.2,1.7c0.6,2.9,2.1,3.7,4.4,2.2c0.6-0.2,1.2-0.6,1.8-1.1
		s1.2-0.9,1.8-1.3c0.7-0.5,0.9-1.2,0.6-2.2c-0.1-0.4-0.1-0.8,0-1.3s0.2-1,0.4-1.5c0.2-0.6,0.6-1.3,0.9-1.9c0.4-0.7,0.7-1.3,0.9-1.9
		c0.9-2.1,1.6-4.1,2.2-6.1c0.6-2,1-4,1.3-6.1c0-2-0.5-3.6-1.5-5c-1-1.1-2-1.2-3.1-0.4c-0.5,0.5-0.9,0.9-1.3,1.3
		C680,470.6,679.7,471.1,679.3,471.7L679.3,471.7z"/>
</g>
<g>
	<path class="st2" d="M302.9,1298.6c0,2-0.5,3.9-1.5,5.7c-3.1,5.4-6.2,10.8-9.3,16.1c-0.4,0.8-1.2,0.8-1.7,0
		c-3.1-5.4-6.3-10.8-9.3-16.2c-4-7.1,0.5-16.1,8.6-17.1c6.5-0.9,12.4,3.8,13.1,10.3C302.9,1297.8,302.9,1298.2,302.9,1298.6
		 M291.3,1304.5c3.6,0,6.5-2.9,6.5-6.5s-2.9-6.5-6.5-6.5s-6.5,2.9-6.5,6.5S287.7,1304.5,291.3,1304.5"/>
</g>
<g>
	<polygon class="st4" points="270,1231 337.6,1230.5 405.3,1230.2 540.5,1230 675.8,1230.2 743.4,1230.5 811,1231 743.4,1231.5 
		675.8,1231.8 540.5,1232 405.3,1231.8 337.6,1231.5 	"/>
</g>
<g>
	<g>
		<defs>
			<path id="SVGID_1_" d="M480.9,206.2l-5,7.2l-5-7.2c-0.2-0.4-0.6-0.5-1-0.5c-0.3,0-0.6,0.1-0.7,0.3c-0.2,0.2-0.3,0.5-0.3,0.8
				c0,0.2,0.1,0.4,0.2,0.6l5.7,8v6.1c0,0.3,0.1,0.6,0.3,0.8c0.2,0.2,0.5,0.3,0.8,0.3s0.6-0.1,0.8-0.3c0.2-0.2,0.3-0.5,0.3-0.8v-6.1
				l5.7-8c0.1-0.2,0.2-0.4,0.2-0.6c0-0.3-0.1-0.6-0.3-0.8c-0.2-0.2-0.5-0.3-0.8-0.3C481.5,205.6,481.2,205.8,480.9,206.2"/>
		</defs>
		<clipPath id="SVGID_2_">
			<use xlink:href="#SVGID_1_"  style="overflow:visible;"/>
		</clipPath>
		
			<linearGradient id="SVGID_3_" gradientUnits="userSpaceOnUse" x1="37.1319" y1="-492.9886" x2="38.1319" y2="-492.9886" gradientTransform="matrix(13.9467 0 0 13.9467 -48.868 7089.564)">
			<stop  offset="0" style="stop-color:#D79617"/>
			<stop  offset="0" style="stop-color:#B46A11"/>
			<stop  offset="0.3198" style="stop-color:#D68D15"/>
			<stop  offset="0.6802" style="stop-color:#E7AC18"/>
			<stop  offset="1" style="stop-color:#F8C73D"/>
		</linearGradient>
		<rect x="469" y="205.6" class="st5" width="14" height="16.8"/>
	</g>
	<g>
		<defs>
			<path id="SVGID_4_" d="M485.7,213.3c0.3-0.5,0.8-0.9,1.3-1.2c0.5-0.2,1.1-0.4,1.6-0.4s1.1,0.1,1.6,0.4c0.5,0.2,1,0.6,1.3,1.2
				c0.4,0.5,0.6,1.2,0.6,2h-7C485.2,214.5,485.4,213.8,485.7,213.3 M485.4,210.8c-0.9,0.6-1.5,1.4-1.9,2.3c-0.4,1-0.6,2-0.6,3.1
				c0,2,0.5,3.5,1.6,4.7c1.1,1.1,2.6,1.7,4.5,1.7c1,0,1.7-0.1,2.3-0.3c0.6-0.2,1.2-0.4,1.8-0.8c0.4-0.2,0.6-0.5,0.6-0.9
				c0-0.3-0.1-0.5-0.3-0.7c-0.2-0.2-0.4-0.3-0.7-0.3c-0.2,0-0.3,0-0.4,0.1c-0.5,0.2-1,0.4-1.5,0.5s-1.1,0.2-1.7,0.2
				c-1.3,0-2.2-0.3-2.9-0.9c-0.7-0.6-1.1-1.5-1.2-2.6h8.1c0.3,0,0.6-0.1,0.8-0.3c0.2-0.2,0.3-0.5,0.3-0.8c0-1.1-0.2-2.1-0.7-3
				c-0.4-0.9-1.1-1.6-2-2.2c-0.9-0.5-1.9-0.8-3-0.8C487.4,210,486.3,210.3,485.4,210.8"/>
		</defs>
		<clipPath id="SVGID_5_">
			<use xlink:href="#SVGID_4_"  style="overflow:visible;"/>
		</clipPath>
		
			<linearGradient id="SVGID_6_" gradientUnits="userSpaceOnUse" x1="36.4763" y1="-500.5134" x2="37.4763" y2="-500.5134" gradientTransform="matrix(11.3518 0 0 11.3518 68.849 5898.0283)">
			<stop  offset="0" style="stop-color:#D79617"/>
			<stop  offset="0" style="stop-color:#B46A11"/>
			<stop  offset="0.3198" style="stop-color:#D68D15"/>
			<stop  offset="0.6802" style="stop-color:#E7AC18"/>
			<stop  offset="1" style="stop-color:#F8C73D"/>
		</linearGradient>
		<rect x="482.9" y="210" class="st6" width="11.4" height="12.6"/>
	</g>
	<g>
		<defs>
			<path id="SVGID_7_" d="M497.4,205.2c-0.2,0.2-0.3,0.5-0.3,0.8v15.4c0,0.3,0.1,0.6,0.3,0.8c0.2,0.2,0.5,0.3,0.8,0.3
				s0.6-0.1,0.8-0.3c0.2-0.2,0.3-0.5,0.3-0.8v-7.1c0.6-0.7,1.1-1.3,1.8-1.7c0.6-0.4,1.3-0.6,2.1-0.6c1.7,0,2.6,1,2.6,2.9v6.5
				c0,0.3,0.1,0.6,0.3,0.8c0.2,0.2,0.5,0.3,0.8,0.3s0.6-0.1,0.8-0.3c0.2-0.2,0.3-0.5,0.3-0.8v-6.8c0-0.9-0.2-1.6-0.5-2.4
				c-0.3-0.7-0.8-1.3-1.5-1.7c-0.6-0.4-1.4-0.6-2.3-0.6c-1,0-1.8,0.2-2.5,0.6c-0.7,0.4-1.3,0.9-2,1.6v-6.2c0-0.3-0.1-0.6-0.3-0.8
				c-0.2-0.2-0.5-0.3-0.8-0.3C497.9,204.9,497.6,205,497.4,205.2"/>
		</defs>
		<clipPath id="SVGID_8_">
			<use xlink:href="#SVGID_7_"  style="overflow:visible;"/>
		</clipPath>
		
			<linearGradient id="SVGID_9_" gradientUnits="userSpaceOnUse" x1="36.314" y1="-502.3811" x2="37.3141" y2="-502.3811" gradientTransform="matrix(10.8519 0 0 10.8519 103.0515 5665.4897)">
			<stop  offset="0" style="stop-color:#D79617"/>
			<stop  offset="0" style="stop-color:#B46A11"/>
			<stop  offset="0.3198" style="stop-color:#D68D15"/>
			<stop  offset="0.6802" style="stop-color:#E7AC18"/>
			<stop  offset="1" style="stop-color:#F8C73D"/>
		</linearGradient>
		<rect x="497.1" y="204.9" class="st7" width="10.9" height="17.6"/>
	</g>
	<g>
		<defs>
			<path id="SVGID_10_" d="M511.9,210.4c-0.2,0.2-0.3,0.5-0.3,0.8v10.2c0,0.3,0.1,0.6,0.3,0.8s0.5,0.3,0.8,0.3s0.6-0.1,0.8-0.3
				s0.3-0.5,0.3-0.8v-10.2c0-0.3-0.1-0.6-0.3-0.8s-0.5-0.3-0.8-0.3C512.4,210.1,512.1,210.2,511.9,210.4 M512.6,205.2
				c-0.3,0-0.6,0.1-0.9,0.4c-0.2,0.2-0.4,0.5-0.4,0.9v0.1c0,0.3,0.1,0.6,0.4,0.9c0.2,0.2,0.5,0.4,0.9,0.4h0.1c0.3,0,0.6-0.1,0.9-0.4
				s0.4-0.5,0.4-0.9v-0.1c0-0.3-0.1-0.6-0.4-0.9C513.4,205.4,513.1,205.2,512.6,205.2L512.6,205.2z"/>
		</defs>
		<clipPath id="SVGID_11_">
			<use xlink:href="#SVGID_10_"  style="overflow:visible;"/>
		</clipPath>
		
			<linearGradient id="SVGID_12_" gradientUnits="userSpaceOnUse" x1="24.4339" y1="-639.0287" x2="25.434" y2="-639.0287" gradientTransform="matrix(2.5697 0 0 2.5697 448.6423 1855.9622)">
			<stop  offset="0" style="stop-color:#D79617"/>
			<stop  offset="0" style="stop-color:#B46A11"/>
			<stop  offset="0.3198" style="stop-color:#D68D15"/>
			<stop  offset="0.6802" style="stop-color:#E7AC18"/>
			<stop  offset="1" style="stop-color:#F8C73D"/>
		</linearGradient>
		<rect x="511.4" y="205.2" class="st8" width="2.6" height="17.3"/>
	</g>
	<g>
		<defs>
			<path id="SVGID_13_" d="M563.1,250.7c-0.3,0-0.6,0.1-0.8,0.3s-0.3,0.5-0.3,0.8v14.6c0,0.3,0.1,0.6,0.3,0.8
				c0.2,0.2,0.5,0.3,0.8,0.3s0.6-0.1,0.8-0.3c0.2-0.2,0.3-0.5,0.3-0.8V260h7.4c0.3,0,0.5-0.1,0.7-0.3c0.2-0.2,0.3-0.4,0.3-0.7
				s-0.1-0.5-0.3-0.7s-0.4-0.3-0.7-0.3h-7.4v-5.3h8.2c0.3,0,0.5-0.1,0.7-0.3s0.3-0.4,0.3-0.7s-0.1-0.5-0.3-0.7s-0.4-0.3-0.7-0.3
				H563.1z"/>
		</defs>
		<clipPath id="SVGID_14_">
			<use xlink:href="#SVGID_13_"  style="overflow:visible;"/>
		</clipPath>
		
			<linearGradient id="SVGID_15_" gradientUnits="userSpaceOnUse" x1="36.4926" y1="-500.3522" x2="37.4925" y2="-500.3522" gradientTransform="matrix(11.4011 0 0 11.4011 145.9447 5963.665)">
			<stop  offset="0" style="stop-color:#D79617"/>
			<stop  offset="0" style="stop-color:#B46A11"/>
			<stop  offset="0.3198" style="stop-color:#D68D15"/>
			<stop  offset="0.6802" style="stop-color:#E7AC18"/>
			<stop  offset="1" style="stop-color:#F8C73D"/>
		</linearGradient>
		<rect x="562" y="250.7" class="st9" width="11.4" height="16.8"/>
	</g>
	<g>
		<defs>
			<path id="SVGID_16_" d="M578.6,265.2c-0.6-0.3-1.1-0.8-1.5-1.4c-0.4-0.7-0.6-1.5-0.6-2.5s0.2-1.8,0.6-2.5
				c0.4-0.7,0.9-1.1,1.5-1.4s1.2-0.4,1.9-0.4s1.3,0.1,1.9,0.4c0.6,0.3,1.1,0.8,1.5,1.4c0.4,0.7,0.6,1.5,0.6,2.5s-0.2,1.8-0.6,2.5
				c-0.4,0.7-0.9,1.1-1.5,1.4s-1.2,0.5-1.9,0.5C579.8,265.6,579.2,265.5,578.6,265.2 M577.3,255.7c-0.9,0.5-1.6,1.3-2.1,2.2
				c-0.5,1-0.8,2.1-0.8,3.3c0,1.2,0.3,2.3,0.8,3.3s1.2,1.7,2.1,2.2c0.9,0.5,2,0.8,3.2,0.8s2.3-0.3,3.2-0.8s1.6-1.3,2.2-2.2
				c0.5-1,0.8-2.1,0.8-3.3c0-1.2-0.3-2.3-0.8-3.3s-1.2-1.7-2.2-2.2c-0.9-0.5-2-0.8-3.2-0.8C579.3,255,578.2,255.2,577.3,255.7"/>
		</defs>
		<clipPath id="SVGID_17_">
			<use xlink:href="#SVGID_16_"  style="overflow:visible;"/>
		</clipPath>
		
			<linearGradient id="SVGID_18_" gradientUnits="userSpaceOnUse" x1="36.7319" y1="-497.5786" x2="37.7319" y2="-497.5786" gradientTransform="matrix(12.2376 0 0 12.2376 124.89 6350.5176)">
			<stop  offset="0" style="stop-color:#D79617"/>
			<stop  offset="0" style="stop-color:#B46A11"/>
			<stop  offset="0.3198" style="stop-color:#D68D15"/>
			<stop  offset="0.6802" style="stop-color:#E7AC18"/>
			<stop  offset="1" style="stop-color:#F8C73D"/>
		</linearGradient>
		<rect x="574.4" y="255" class="st10" width="12.2" height="12.7"/>
	</g>
	<g>
		<defs>
			<path id="SVGID_19_" d="M595.6,255c-1.4,0-2.6,0.7-3.8,2.2v-1c0-0.3-0.1-0.6-0.3-0.8s-0.5-0.3-0.8-0.3s-0.6,0.1-0.8,0.3
				s-0.3,0.5-0.3,0.8v10.3c0,0.3,0.1,0.6,0.3,0.8c0.2,0.2,0.5,0.3,0.8,0.3s0.6-0.1,0.8-0.3c0.2-0.2,0.3-0.5,0.3-0.8v-7.3
				c0.4-0.7,1-1.2,1.6-1.5c0.6-0.4,1.3-0.6,2.1-0.6h0.1c0.3,0,0.6-0.1,0.8-0.3c0.2-0.2,0.3-0.4,0.3-0.7c0-0.3-0.1-0.6-0.3-0.8
				S596,255,595.6,255L595.6,255z"/>
		</defs>
		<clipPath id="SVGID_20_">
			<use xlink:href="#SVGID_19_"  style="overflow:visible;"/>
		</clipPath>
		
			<linearGradient id="SVGID_21_" gradientUnits="userSpaceOnUse" x1="34.3651" y1="-524.79" x2="35.3653" y2="-524.79" gradientTransform="matrix(7.0987 0 0 7.0987 345.7192 3986.5767)">
			<stop  offset="0" style="stop-color:#D79617"/>
			<stop  offset="0" style="stop-color:#B46A11"/>
			<stop  offset="0.3198" style="stop-color:#D68D15"/>
			<stop  offset="0.6802" style="stop-color:#E7AC18"/>
			<stop  offset="1" style="stop-color:#F8C73D"/>
		</linearGradient>
		<rect x="589.7" y="255" class="st11" width="7.1" height="12.5"/>
	</g>
	<g>
		<defs>
			<path id="SVGID_22_" d="M600.5,258.3c0.4-0.5,0.8-0.9,1.3-1.2c0.5-0.2,1.1-0.4,1.6-0.4s1.1,0.1,1.6,0.4c0.5,0.2,1,0.6,1.3,1.2
				c0.4,0.5,0.6,1.2,0.6,2h-7.1C600,259.5,600.2,258.9,600.5,258.3 M600.3,255.8c-0.9,0.6-1.5,1.4-1.9,2.3c-0.4,1-0.6,2-0.6,3.1
				c0,2,0.5,3.6,1.6,4.7s2.6,1.7,4.6,1.7c1,0,1.7-0.1,2.3-0.3c0.6-0.2,1.2-0.4,1.8-0.8c0.4-0.2,0.6-0.5,0.6-0.9
				c0-0.3-0.1-0.5-0.3-0.7s-0.4-0.3-0.7-0.3c-0.2,0-0.3,0-0.4,0.1c-0.5,0.2-1,0.4-1.5,0.6c-0.5,0.1-1.1,0.2-1.8,0.2
				c-1.3,0-2.2-0.3-2.9-0.9s-1.1-1.5-1.2-2.6h8.1c0.3,0,0.6-0.1,0.8-0.3c0.2-0.2,0.3-0.5,0.3-0.8c0-1.1-0.2-2.1-0.7-3
				c-0.4-0.9-1.1-1.7-2-2.2c-0.9-0.6-1.9-0.8-3.1-0.8C602.2,255,601.1,255.3,600.3,255.8"/>
		</defs>
		<clipPath id="SVGID_23_">
			<use xlink:href="#SVGID_22_"  style="overflow:visible;"/>
		</clipPath>
		
			<linearGradient id="SVGID_24_" gradientUnits="userSpaceOnUse" x1="36.4919" y1="-500.3433" x2="37.4917" y2="-500.3433" gradientTransform="matrix(11.4022 0 0 11.4022 181.6335 5966.3647)">
			<stop  offset="0" style="stop-color:#D79617"/>
			<stop  offset="0" style="stop-color:#B46A11"/>
			<stop  offset="0.3198" style="stop-color:#D68D15"/>
			<stop  offset="0.6802" style="stop-color:#E7AC18"/>
			<stop  offset="1" style="stop-color:#F8C73D"/>
		</linearGradient>
		<rect x="597.7" y="255" class="st12" width="11.4" height="12.7"/>
	</g>
	<g>
		<defs>
			<path id="SVGID_25_" d="M620.4,255.3c-0.2,0.1-0.3,0.3-0.4,0.4l-3.7,9.3l-3.7-9.3c-0.1-0.2-0.2-0.3-0.4-0.4
				c-0.2-0.1-0.4-0.2-0.6-0.2c-0.3,0-0.6,0.1-0.8,0.3s-0.3,0.5-0.3,0.8c0,0.1,0,0.3,0.1,0.5l4.2,9.9c0.1,0.3,0.3,0.5,0.5,0.6
				c0.2,0.2,0.5,0.3,0.8,0.3h0.2c0.3,0,0.5-0.1,0.8-0.3c0.2-0.2,0.4-0.4,0.5-0.6l4.2-9.9c0.1-0.2,0.1-0.4,0.1-0.5
				c0-0.3-0.1-0.6-0.3-0.8s-0.5-0.3-0.8-0.3C620.7,255.1,620.6,255.1,620.4,255.3"/>
		</defs>
		<clipPath id="SVGID_26_">
			<use xlink:href="#SVGID_25_"  style="overflow:visible;"/>
		</clipPath>
		
			<linearGradient id="SVGID_27_" gradientUnits="userSpaceOnUse" x1="36.4986" y1="-500.2614" x2="37.4987" y2="-500.2614" gradientTransform="matrix(11.4254 0 0 11.4254 193.5886 5976.9868)">
			<stop  offset="0" style="stop-color:#D79617"/>
			<stop  offset="0" style="stop-color:#B46A11"/>
			<stop  offset="0.3198" style="stop-color:#D68D15"/>
			<stop  offset="0.6802" style="stop-color:#E7AC18"/>
			<stop  offset="1" style="stop-color:#F8C73D"/>
		</linearGradient>
		<rect x="610.6" y="255.1" class="st13" width="11.4" height="12.4"/>
	</g>
	<g>
		<defs>
			<path id="SVGID_28_" d="M626.4,258.3c0.3-0.5,0.8-0.9,1.3-1.2c0.5-0.2,1.1-0.4,1.6-0.4s1.1,0.1,1.6,0.4c0.5,0.2,1,0.6,1.3,1.2
				c0.4,0.5,0.6,1.2,0.6,2h-7.1C625.9,259.5,626.1,258.9,626.4,258.3 M626.2,255.8c-0.9,0.6-1.5,1.4-1.9,2.3c-0.4,1-0.6,2-0.6,3.1
				c0,2,0.5,3.6,1.6,4.7s2.6,1.7,4.6,1.7c1,0,1.7-0.1,2.3-0.3c0.6-0.2,1.2-0.4,1.8-0.8c0.4-0.2,0.6-0.5,0.6-0.9
				c0-0.3-0.1-0.5-0.3-0.7s-0.4-0.3-0.7-0.3c-0.2,0-0.3,0-0.4,0.1c-0.5,0.2-1,0.4-1.5,0.6c-0.5,0.1-1.1,0.2-1.8,0.2
				c-1.3,0-2.2-0.3-2.9-0.9s-1.1-1.5-1.2-2.6h8.1c0.3,0,0.6-0.1,0.8-0.3c0.2-0.2,0.3-0.5,0.3-0.8c0-1.1-0.2-2.1-0.7-3
				c-0.4-0.9-1.1-1.7-2-2.2c-0.9-0.6-1.9-0.8-3.1-0.8C628.1,255,627,255.3,626.2,255.8"/>
		</defs>
		<clipPath id="SVGID_29_">
			<use xlink:href="#SVGID_28_"  style="overflow:visible;"/>
		</clipPath>
		
			<linearGradient id="SVGID_30_" gradientUnits="userSpaceOnUse" x1="36.492" y1="-500.3433" x2="37.4918" y2="-500.3433" gradientTransform="matrix(11.4022 0 0 11.4022 207.5432 5966.3647)">
			<stop  offset="0" style="stop-color:#D79617"/>
			<stop  offset="0" style="stop-color:#B46A11"/>
			<stop  offset="0.3198" style="stop-color:#D68D15"/>
			<stop  offset="0.6802" style="stop-color:#E7AC18"/>
			<stop  offset="1" style="stop-color:#F8C73D"/>
		</linearGradient>
		<rect x="623.6" y="255" class="st14" width="11.4" height="12.7"/>
	</g>
	<g>
		<defs>
			<path id="SVGID_31_" d="M643.8,255c-1.4,0-2.6,0.7-3.8,2.2v-1c0-0.3-0.1-0.6-0.3-0.8s-0.5-0.3-0.8-0.3s-0.6,0.1-0.8,0.3
				s-0.3,0.5-0.3,0.8v10.3c0,0.3,0.1,0.6,0.3,0.8c0.2,0.2,0.5,0.3,0.8,0.3s0.6-0.1,0.8-0.3c0.2-0.2,0.3-0.5,0.3-0.8v-7.3
				c0.4-0.7,1-1.2,1.6-1.5c0.6-0.4,1.3-0.6,2.1-0.6h0.1c0.3,0,0.6-0.1,0.8-0.3c0.2-0.2,0.3-0.4,0.3-0.7c0-0.3-0.1-0.6-0.3-0.8
				S644.1,255,643.8,255L643.8,255z"/>
		</defs>
		<clipPath id="SVGID_32_">
			<use xlink:href="#SVGID_31_"  style="overflow:visible;"/>
		</clipPath>
		
			<linearGradient id="SVGID_33_" gradientUnits="userSpaceOnUse" x1="34.365" y1="-524.79" x2="35.3652" y2="-524.79" gradientTransform="matrix(7.0987 0 0 7.0987 393.9533 3986.5767)">
			<stop  offset="0" style="stop-color:#D79617"/>
			<stop  offset="0" style="stop-color:#B46A11"/>
			<stop  offset="0.3198" style="stop-color:#D68D15"/>
			<stop  offset="0.6802" style="stop-color:#E7AC18"/>
			<stop  offset="1" style="stop-color:#F8C73D"/>
		</linearGradient>
		<rect x="637.9" y="255" class="st15" width="7.1" height="12.5"/>
	</g>
	<linearGradient id="SVGID_34_" gradientUnits="userSpaceOnUse" x1="452.8119" y1="233.1982" x2="628.3907" y2="233.1982">
		<stop  offset="0" style="stop-color:#B76D11"/>
		<stop  offset="1" style="stop-color:#F7C53B"/>
	</linearGradient>
	<path class="st16" d="M516.7,306.6c0,0,6.4-8.2,6.4-49.6v-71.8c0,0-1.1-29.8,25.1-44.4c26.2-14.6,64.3-6.1,76.8,28
		c12.5,34-13.2,56.3-13.2,56.3s-14.3,15-33,15h-20.1v39.9c0,0,0.7,32.6-28.7,46.7c-29.4,14.1-57-1.2-65.8-13.9
		c-8.7-12.7-11.4-22.6-11.4-32.6c0-10,3.4-28.9,19.1-41.3c15.7-12.5,36.2-11.9,43.7-10.5v10.5c0,0-20-1.2-32.6,7.5
		c-12.6,8.7-17.8,19.8-17.8,36.9s17,36.9,42.9,36.9c18.2,0,28.8-15.1,28.8-15.1s8.2-8,8.2-27.3s0-91.4,0-91.4s-0.7-19.8,20.1-27.3
		c0,0-6.7,11.3-6.7,25.9s0,41.5,0,41.5h19.7c0,0,36.1-3,36.1-39.3s-33.1-40.5-39.9-40.5s-16.8,2.1-24,8.7
		c-7.2,6.5-14.9,15.4-14.9,27.3c0,11.9,0,42.2,0,42.2s1.4,2.9,4.6,5.2c0,0-0.6,11.2-4.7,16.8v30.7
		C535.3,277.4,536.3,298.9,516.7,306.6z"/>
</g>
</svg>
