<?xml version="1.0" encoding="utf-8"?>
<!-- Generator: Adobe Illustrator 24.0.1, SVG Export Plug-In . SVG Version: 6.00 Build 0)  -->
<svg version="1.1" id="Content" xmlns="http://www.w3.org/2000/svg" xmlns:xlink="http://www.w3.org/1999/xlink" x="0px" y="0px"
	 viewBox="0 0 1080 1920" style="enable-background:new 0 0 1080 1920;" xml:space="preserve">
<style type="text/css">
	.st0{clip-path:url(#SVGID_2_);fill:url(#SVGID_3_);}
	.st1{clip-path:url(#SVGID_5_);fill:url(#SVGID_6_);}
	.st2{clip-path:url(#SVGID_8_);fill:url(#SVGID_9_);}
	.st3{clip-path:url(#SVGID_11_);fill:url(#SVGID_12_);}
	.st4{clip-path:url(#SVGID_14_);fill:url(#SVGID_15_);}
	.st5{clip-path:url(#SVGID_17_);fill:url(#SVGID_18_);}
	.st6{clip-path:url(#SVGID_20_);fill:url(#SVGID_21_);}
	.st7{clip-path:url(#SVGID_23_);fill:url(#SVGID_24_);}
	.st8{clip-path:url(#SVGID_26_);fill:url(#SVGID_27_);}
	.st9{clip-path:url(#SVGID_29_);fill:url(#SVGID_30_);}
	.st10{clip-path:url(#SVGID_32_);fill:url(#SVGID_33_);}
	.st11{fill:url(#SVGID_34_);}
	.st12{enable-background:new    ;}
	.st13{fill:#B9932F;}
	.st14{fill:#DAAC35;}
	.st15{fill:#9C5164;}
	.st16{fill:#B8932E;}
</style>
<g>
	<g>
		<defs>
			<path id="SVGID_1_" d="M480.9,246.2l-5,7.2l-5-7.2c-0.2-0.4-0.6-0.5-1-0.5c-0.3,0-0.6,0.1-0.7,0.3c-0.2,0.2-0.3,0.5-0.3,0.8
				c0,0.2,0.1,0.4,0.2,0.6l5.7,8v6.1c0,0.3,0.1,0.6,0.3,0.8c0.2,0.2,0.5,0.3,0.8,0.3s0.6-0.1,0.8-0.3c0.2-0.2,0.3-0.5,0.3-0.8v-6.1
				l5.7-8c0.1-0.2,0.2-0.4,0.2-0.6c0-0.3-0.1-0.6-0.3-0.8c-0.2-0.2-0.5-0.3-0.8-0.3C481.5,245.6,481.2,245.8,480.9,246.2"/>
		</defs>
		<clipPath id="SVGID_2_">
			<use xlink:href="#SVGID_1_"  style="overflow:visible;"/>
		</clipPath>
		
			<linearGradient id="SVGID_3_" gradientUnits="userSpaceOnUse" x1="37.1319" y1="-490.1205" x2="38.1319" y2="-490.1205" gradientTransform="matrix(13.9467 0 0 13.9467 -48.868 7089.564)">
			<stop  offset="0" style="stop-color:#D79617"/>
			<stop  offset="0" style="stop-color:#B46A11"/>
			<stop  offset="0.3198" style="stop-color:#D68D15"/>
			<stop  offset="0.6802" style="stop-color:#E7AC18"/>
			<stop  offset="1" style="stop-color:#F8C73D"/>
		</linearGradient>
		<rect x="469" y="245.6" class="st0" width="14" height="16.8"/>
	</g>
	<g>
		<defs>
			<path id="SVGID_4_" d="M485.7,253.3c0.3-0.5,0.8-0.9,1.3-1.2c0.5-0.2,1.1-0.4,1.6-0.4s1.1,0.1,1.6,0.4c0.5,0.2,1,0.6,1.3,1.2
				c0.4,0.5,0.6,1.2,0.6,2h-7C485.2,254.5,485.4,253.8,485.7,253.3 M485.4,250.8c-0.9,0.6-1.5,1.4-1.9,2.3c-0.4,1-0.6,2-0.6,3.1
				c0,2,0.5,3.5,1.6,4.7c1.1,1.1,2.6,1.7,4.5,1.7c1,0,1.7-0.1,2.3-0.3c0.6-0.2,1.2-0.4,1.8-0.8c0.4-0.2,0.6-0.5,0.6-0.9
				c0-0.3-0.1-0.5-0.3-0.7c-0.2-0.2-0.4-0.3-0.7-0.3c-0.2,0-0.3,0-0.4,0.1c-0.5,0.2-1,0.4-1.5,0.5s-1.1,0.2-1.7,0.2
				c-1.3,0-2.2-0.3-2.9-0.9c-0.7-0.6-1.1-1.5-1.2-2.6h8.1c0.3,0,0.6-0.1,0.8-0.3c0.2-0.2,0.3-0.5,0.3-0.8c0-1.1-0.2-2.1-0.7-3
				c-0.4-0.9-1.1-1.6-2-2.2c-0.9-0.5-1.9-0.8-3-0.8C487.4,250,486.3,250.3,485.4,250.8"/>
		</defs>
		<clipPath id="SVGID_5_">
			<use xlink:href="#SVGID_4_"  style="overflow:visible;"/>
		</clipPath>
		
			<linearGradient id="SVGID_6_" gradientUnits="userSpaceOnUse" x1="36.4763" y1="-496.9897" x2="37.4763" y2="-496.9897" gradientTransform="matrix(11.3518 0 0 11.3518 68.849 5898.0283)">
			<stop  offset="0" style="stop-color:#D79617"/>
			<stop  offset="0" style="stop-color:#B46A11"/>
			<stop  offset="0.3198" style="stop-color:#D68D15"/>
			<stop  offset="0.6802" style="stop-color:#E7AC18"/>
			<stop  offset="1" style="stop-color:#F8C73D"/>
		</linearGradient>
		<rect x="482.9" y="250" class="st1" width="11.4" height="12.6"/>
	</g>
	<g>
		<defs>
			<path id="SVGID_7_" d="M497.4,245.2c-0.2,0.2-0.3,0.5-0.3,0.8v15.4c0,0.3,0.1,0.6,0.3,0.8c0.2,0.2,0.5,0.3,0.8,0.3
				s0.6-0.1,0.8-0.3c0.2-0.2,0.3-0.5,0.3-0.8v-7.1c0.6-0.7,1.1-1.3,1.8-1.7c0.6-0.4,1.3-0.6,2.1-0.6c1.7,0,2.6,1,2.6,2.9v6.5
				c0,0.3,0.1,0.6,0.3,0.8c0.2,0.2,0.5,0.3,0.8,0.3s0.6-0.1,0.8-0.3c0.2-0.2,0.3-0.5,0.3-0.8v-6.8c0-0.9-0.2-1.6-0.5-2.4
				c-0.3-0.7-0.8-1.3-1.5-1.7c-0.6-0.4-1.4-0.6-2.3-0.6c-1,0-1.8,0.2-2.5,0.6c-0.7,0.4-1.3,0.9-2,1.6v-6.2c0-0.3-0.1-0.6-0.3-0.8
				c-0.2-0.2-0.5-0.3-0.8-0.3C497.9,244.9,497.6,245,497.4,245.2"/>
		</defs>
		<clipPath id="SVGID_8_">
			<use xlink:href="#SVGID_7_"  style="overflow:visible;"/>
		</clipPath>
		
			<linearGradient id="SVGID_9_" gradientUnits="userSpaceOnUse" x1="36.314" y1="-498.6951" x2="37.3141" y2="-498.6951" gradientTransform="matrix(10.8519 0 0 10.8519 103.0515 5665.4897)">
			<stop  offset="0" style="stop-color:#D79617"/>
			<stop  offset="0" style="stop-color:#B46A11"/>
			<stop  offset="0.3198" style="stop-color:#D68D15"/>
			<stop  offset="0.6802" style="stop-color:#E7AC18"/>
			<stop  offset="1" style="stop-color:#F8C73D"/>
		</linearGradient>
		<rect x="497.1" y="244.9" class="st2" width="10.9" height="17.6"/>
	</g>
	<g>
		<defs>
			<path id="SVGID_10_" d="M511.9,250.4c-0.2,0.2-0.3,0.5-0.3,0.8v10.2c0,0.3,0.1,0.6,0.3,0.8c0.2,0.2,0.5,0.3,0.8,0.3
				s0.6-0.1,0.8-0.3c0.2-0.2,0.3-0.5,0.3-0.8v-10.2c0-0.3-0.1-0.6-0.3-0.8s-0.5-0.3-0.8-0.3C512.4,250.1,512.1,250.2,511.9,250.4
				 M512.6,245.2c-0.3,0-0.6,0.1-0.9,0.4c-0.2,0.2-0.4,0.5-0.4,0.9v0.1c0,0.3,0.1,0.6,0.4,0.9c0.2,0.2,0.5,0.4,0.9,0.4h0.1
				c0.3,0,0.6-0.1,0.9-0.4s0.4-0.5,0.4-0.9v-0.1c0-0.3-0.1-0.6-0.4-0.9C513.4,245.4,513.1,245.2,512.6,245.2L512.6,245.2z"/>
		</defs>
		<clipPath id="SVGID_11_">
			<use xlink:href="#SVGID_10_"  style="overflow:visible;"/>
		</clipPath>
		
			<linearGradient id="SVGID_12_" gradientUnits="userSpaceOnUse" x1="24.4339" y1="-623.4627" x2="25.434" y2="-623.4627" gradientTransform="matrix(2.5697 0 0 2.5697 448.6423 1855.9622)">
			<stop  offset="0" style="stop-color:#D79617"/>
			<stop  offset="0" style="stop-color:#B46A11"/>
			<stop  offset="0.3198" style="stop-color:#D68D15"/>
			<stop  offset="0.6802" style="stop-color:#E7AC18"/>
			<stop  offset="1" style="stop-color:#F8C73D"/>
		</linearGradient>
		<rect x="511.4" y="245.2" class="st3" width="2.6" height="17.3"/>
	</g>
	<g>
		<defs>
			<path id="SVGID_13_" d="M563.1,290.7c-0.3,0-0.6,0.1-0.8,0.3s-0.3,0.5-0.3,0.8v14.6c0,0.3,0.1,0.6,0.3,0.8
				c0.2,0.2,0.5,0.3,0.8,0.3s0.6-0.1,0.8-0.3c0.2-0.2,0.3-0.5,0.3-0.8V300h7.4c0.3,0,0.5-0.1,0.7-0.3c0.2-0.2,0.3-0.4,0.3-0.7
				s-0.1-0.5-0.3-0.7s-0.4-0.3-0.7-0.3h-7.4v-5.3h8.2c0.3,0,0.5-0.1,0.7-0.3s0.3-0.4,0.3-0.7c0-0.3-0.1-0.5-0.3-0.7
				s-0.4-0.3-0.7-0.3H563.1z"/>
		</defs>
		<clipPath id="SVGID_14_">
			<use xlink:href="#SVGID_13_"  style="overflow:visible;"/>
		</clipPath>
		
			<linearGradient id="SVGID_15_" gradientUnits="userSpaceOnUse" x1="36.4926" y1="-496.8438" x2="37.4925" y2="-496.8438" gradientTransform="matrix(11.4011 0 0 11.4011 145.9447 5963.665)">
			<stop  offset="0" style="stop-color:#D79617"/>
			<stop  offset="0" style="stop-color:#B46A11"/>
			<stop  offset="0.3198" style="stop-color:#D68D15"/>
			<stop  offset="0.6802" style="stop-color:#E7AC18"/>
			<stop  offset="1" style="stop-color:#F8C73D"/>
		</linearGradient>
		<rect x="562" y="290.7" class="st4" width="11.4" height="16.8"/>
	</g>
	<g>
		<defs>
			<path id="SVGID_16_" d="M578.6,305.2c-0.6-0.3-1.1-0.8-1.5-1.4c-0.4-0.7-0.6-1.5-0.6-2.5s0.2-1.8,0.6-2.5
				c0.4-0.7,0.9-1.1,1.5-1.4s1.2-0.4,1.9-0.4s1.3,0.1,1.9,0.4c0.6,0.3,1.1,0.8,1.5,1.4c0.4,0.7,0.6,1.5,0.6,2.5s-0.2,1.8-0.6,2.5
				c-0.4,0.7-0.9,1.1-1.5,1.4s-1.2,0.5-1.9,0.5C579.8,305.6,579.2,305.5,578.6,305.2 M577.3,295.7c-0.9,0.5-1.6,1.3-2.1,2.2
				c-0.5,1-0.8,2.1-0.8,3.3c0,1.2,0.3,2.3,0.8,3.3s1.2,1.7,2.1,2.2c0.9,0.5,2,0.8,3.2,0.8s2.3-0.3,3.2-0.8s1.6-1.3,2.2-2.2
				c0.5-1,0.8-2.1,0.8-3.3c0-1.2-0.3-2.3-0.8-3.3s-1.2-1.7-2.2-2.2c-0.9-0.5-2-0.8-3.2-0.8C579.3,295,578.2,295.2,577.3,295.7"/>
		</defs>
		<clipPath id="SVGID_17_">
			<use xlink:href="#SVGID_16_"  style="overflow:visible;"/>
		</clipPath>
		
			<linearGradient id="SVGID_18_" gradientUnits="userSpaceOnUse" x1="36.7319" y1="-494.3099" x2="37.7319" y2="-494.3099" gradientTransform="matrix(12.2376 0 0 12.2376 124.89 6350.5176)">
			<stop  offset="0" style="stop-color:#D79617"/>
			<stop  offset="0" style="stop-color:#B46A11"/>
			<stop  offset="0.3198" style="stop-color:#D68D15"/>
			<stop  offset="0.6802" style="stop-color:#E7AC18"/>
			<stop  offset="1" style="stop-color:#F8C73D"/>
		</linearGradient>
		<rect x="574.4" y="295" class="st5" width="12.2" height="12.7"/>
	</g>
	<g>
		<defs>
			<path id="SVGID_19_" d="M595.6,295c-1.4,0-2.6,0.7-3.8,2.2v-1c0-0.3-0.1-0.6-0.3-0.8c-0.2-0.2-0.5-0.3-0.8-0.3s-0.6,0.1-0.8,0.3
				c-0.2,0.2-0.3,0.5-0.3,0.8v10.3c0,0.3,0.1,0.6,0.3,0.8c0.2,0.2,0.5,0.3,0.8,0.3s0.6-0.1,0.8-0.3c0.2-0.2,0.3-0.5,0.3-0.8v-7.3
				c0.4-0.7,1-1.2,1.6-1.5c0.6-0.4,1.3-0.6,2.1-0.6h0.1c0.3,0,0.6-0.1,0.8-0.3c0.2-0.2,0.3-0.4,0.3-0.7s-0.1-0.6-0.3-0.8
				C596.2,295.1,596,295,595.6,295L595.6,295z"/>
		</defs>
		<clipPath id="SVGID_20_">
			<use xlink:href="#SVGID_19_"  style="overflow:visible;"/>
		</clipPath>
		
			<linearGradient id="SVGID_21_" gradientUnits="userSpaceOnUse" x1="34.3651" y1="-519.1552" x2="35.3653" y2="-519.1552" gradientTransform="matrix(7.0987 0 0 7.0987 345.7192 3986.5767)">
			<stop  offset="0" style="stop-color:#D79617"/>
			<stop  offset="0" style="stop-color:#B46A11"/>
			<stop  offset="0.3198" style="stop-color:#D68D15"/>
			<stop  offset="0.6802" style="stop-color:#E7AC18"/>
			<stop  offset="1" style="stop-color:#F8C73D"/>
		</linearGradient>
		<rect x="589.7" y="295" class="st6" width="7.1" height="12.5"/>
	</g>
	<g>
		<defs>
			<path id="SVGID_22_" d="M600.5,298.3c0.4-0.5,0.8-0.9,1.3-1.2c0.5-0.2,1.1-0.4,1.6-0.4s1.1,0.1,1.6,0.4c0.5,0.2,1,0.6,1.3,1.2
				c0.4,0.5,0.6,1.2,0.6,2h-7.1C600,299.5,600.2,298.9,600.5,298.3 M600.3,295.8c-0.9,0.6-1.5,1.4-1.9,2.3c-0.4,1-0.6,2-0.6,3.1
				c0,2,0.5,3.6,1.6,4.7s2.6,1.7,4.6,1.7c1,0,1.7-0.1,2.3-0.3c0.6-0.2,1.2-0.4,1.8-0.8c0.4-0.2,0.6-0.5,0.6-0.9
				c0-0.3-0.1-0.5-0.3-0.7s-0.4-0.3-0.7-0.3c-0.2,0-0.3,0-0.4,0.1c-0.5,0.2-1,0.4-1.5,0.6c-0.5,0.1-1.1,0.2-1.8,0.2
				c-1.3,0-2.2-0.3-2.9-0.9s-1.1-1.5-1.2-2.6h8.1c0.3,0,0.6-0.1,0.8-0.3c0.2-0.2,0.3-0.5,0.3-0.8c0-1.1-0.2-2.1-0.7-3
				c-0.4-0.9-1.1-1.7-2-2.2c-0.9-0.6-1.9-0.8-3.1-0.8C602.2,295,601.1,295.3,600.3,295.8"/>
		</defs>
		<clipPath id="SVGID_23_">
			<use xlink:href="#SVGID_22_"  style="overflow:visible;"/>
		</clipPath>
		
			<linearGradient id="SVGID_24_" gradientUnits="userSpaceOnUse" x1="36.4919" y1="-496.8352" x2="37.4917" y2="-496.8352" gradientTransform="matrix(11.4022 0 0 11.4022 181.6335 5966.3647)">
			<stop  offset="0" style="stop-color:#D79617"/>
			<stop  offset="0" style="stop-color:#B46A11"/>
			<stop  offset="0.3198" style="stop-color:#D68D15"/>
			<stop  offset="0.6802" style="stop-color:#E7AC18"/>
			<stop  offset="1" style="stop-color:#F8C73D"/>
		</linearGradient>
		<rect x="597.7" y="295" class="st7" width="11.4" height="12.7"/>
	</g>
	<g>
		<defs>
			<path id="SVGID_25_" d="M620.4,295.3c-0.2,0.1-0.3,0.3-0.4,0.4l-3.7,9.3l-3.7-9.3c-0.1-0.2-0.2-0.3-0.4-0.4
				c-0.2-0.1-0.4-0.2-0.6-0.2c-0.3,0-0.6,0.1-0.8,0.3c-0.2,0.2-0.3,0.5-0.3,0.8c0,0.1,0,0.3,0.1,0.5l4.2,9.9
				c0.1,0.3,0.3,0.5,0.5,0.6c0.2,0.2,0.5,0.3,0.8,0.3h0.2c0.3,0,0.5-0.1,0.8-0.3c0.2-0.2,0.4-0.4,0.5-0.6l4.2-9.9
				c0.1-0.2,0.1-0.4,0.1-0.5c0-0.3-0.1-0.6-0.3-0.8c-0.2-0.2-0.5-0.3-0.8-0.3C620.7,295.1,620.6,295.1,620.4,295.3"/>
		</defs>
		<clipPath id="SVGID_26_">
			<use xlink:href="#SVGID_25_"  style="overflow:visible;"/>
		</clipPath>
		
			<linearGradient id="SVGID_27_" gradientUnits="userSpaceOnUse" x1="36.4986" y1="-496.7604" x2="37.4987" y2="-496.7604" gradientTransform="matrix(11.4254 0 0 11.4254 193.5886 5976.9868)">
			<stop  offset="0" style="stop-color:#D79617"/>
			<stop  offset="0" style="stop-color:#B46A11"/>
			<stop  offset="0.3198" style="stop-color:#D68D15"/>
			<stop  offset="0.6802" style="stop-color:#E7AC18"/>
			<stop  offset="1" style="stop-color:#F8C73D"/>
		</linearGradient>
		<rect x="610.6" y="295.1" class="st8" width="11.4" height="12.4"/>
	</g>
	<g>
		<defs>
			<path id="SVGID_28_" d="M626.4,298.3c0.3-0.5,0.8-0.9,1.3-1.2c0.5-0.2,1.1-0.4,1.6-0.4s1.1,0.1,1.6,0.4c0.5,0.2,1,0.6,1.3,1.2
				c0.4,0.5,0.6,1.2,0.6,2h-7.1C625.9,299.5,626.1,298.9,626.4,298.3 M626.2,295.8c-0.9,0.6-1.5,1.4-1.9,2.3c-0.4,1-0.6,2-0.6,3.1
				c0,2,0.5,3.6,1.6,4.7s2.6,1.7,4.6,1.7c1,0,1.7-0.1,2.3-0.3c0.6-0.2,1.2-0.4,1.8-0.8c0.4-0.2,0.6-0.5,0.6-0.9
				c0-0.3-0.1-0.5-0.3-0.7s-0.4-0.3-0.7-0.3c-0.2,0-0.3,0-0.4,0.1c-0.5,0.2-1,0.4-1.5,0.6c-0.5,0.1-1.1,0.2-1.8,0.2
				c-1.3,0-2.2-0.3-2.9-0.9s-1.1-1.5-1.2-2.6h8.1c0.3,0,0.6-0.1,0.8-0.3c0.2-0.2,0.3-0.5,0.3-0.8c0-1.1-0.2-2.1-0.7-3
				c-0.4-0.9-1.1-1.7-2-2.2c-0.9-0.6-1.9-0.8-3.1-0.8C628.1,295,627,295.3,626.2,295.8"/>
		</defs>
		<clipPath id="SVGID_29_">
			<use xlink:href="#SVGID_28_"  style="overflow:visible;"/>
		</clipPath>
		
			<linearGradient id="SVGID_30_" gradientUnits="userSpaceOnUse" x1="36.492" y1="-496.8352" x2="37.4918" y2="-496.8352" gradientTransform="matrix(11.4022 0 0 11.4022 207.5432 5966.3647)">
			<stop  offset="0" style="stop-color:#D79617"/>
			<stop  offset="0" style="stop-color:#B46A11"/>
			<stop  offset="0.3198" style="stop-color:#D68D15"/>
			<stop  offset="0.6802" style="stop-color:#E7AC18"/>
			<stop  offset="1" style="stop-color:#F8C73D"/>
		</linearGradient>
		<rect x="623.6" y="295" class="st9" width="11.4" height="12.7"/>
	</g>
	<g>
		<defs>
			<path id="SVGID_31_" d="M643.8,295c-1.4,0-2.6,0.7-3.8,2.2v-1c0-0.3-0.1-0.6-0.3-0.8c-0.2-0.2-0.5-0.3-0.8-0.3s-0.6,0.1-0.8,0.3
				c-0.2,0.2-0.3,0.5-0.3,0.8v10.3c0,0.3,0.1,0.6,0.3,0.8c0.2,0.2,0.5,0.3,0.8,0.3s0.6-0.1,0.8-0.3c0.2-0.2,0.3-0.5,0.3-0.8v-7.3
				c0.4-0.7,1-1.2,1.6-1.5c0.6-0.4,1.3-0.6,2.1-0.6h0.1c0.3,0,0.6-0.1,0.8-0.3c0.2-0.2,0.3-0.4,0.3-0.7s-0.1-0.6-0.3-0.8
				C644.4,295.1,644.1,295,643.8,295L643.8,295z"/>
		</defs>
		<clipPath id="SVGID_32_">
			<use xlink:href="#SVGID_31_"  style="overflow:visible;"/>
		</clipPath>
		
			<linearGradient id="SVGID_33_" gradientUnits="userSpaceOnUse" x1="34.365" y1="-519.1552" x2="35.3652" y2="-519.1552" gradientTransform="matrix(7.0987 0 0 7.0987 393.9533 3986.5767)">
			<stop  offset="0" style="stop-color:#D79617"/>
			<stop  offset="0" style="stop-color:#B46A11"/>
			<stop  offset="0.3198" style="stop-color:#D68D15"/>
			<stop  offset="0.6802" style="stop-color:#E7AC18"/>
			<stop  offset="1" style="stop-color:#F8C73D"/>
		</linearGradient>
		<rect x="637.9" y="295" class="st10" width="7.1" height="12.5"/>
	</g>
	<linearGradient id="SVGID_34_" gradientUnits="userSpaceOnUse" x1="452.8119" y1="273.1982" x2="628.3907" y2="273.1982">
		<stop  offset="0" style="stop-color:#B76D11"/>
		<stop  offset="1" style="stop-color:#F7C53B"/>
	</linearGradient>
	<path class="st11" d="M516.7,346.6c0,0,6.4-8.2,6.4-49.6v-71.8c0,0-1.1-29.8,25.1-44.4c26.2-14.6,64.3-6.1,76.8,28
		c12.5,34-13.2,56.3-13.2,56.3s-14.3,15-33,15h-20.1v39.9c0,0,0.7,32.6-28.7,46.7c-29.4,14.1-57-1.2-65.8-13.9
		c-8.7-12.7-11.4-22.6-11.4-32.6c0-10,3.4-28.9,19.1-41.3s36.2-11.9,43.7-10.5v10.5c0,0-20-1.2-32.6,7.5
		c-12.6,8.7-17.8,19.8-17.8,36.9s17,36.9,42.9,36.9c18.2,0,28.8-15.1,28.8-15.1s8.2-8,8.2-27.3s0-91.4,0-91.4s-0.7-19.8,20.1-27.3
		c0,0-6.7,11.3-6.7,25.9s0,41.5,0,41.5h19.7c0,0,36.1-3,36.1-39.3s-33.1-40.5-39.9-40.5s-16.8,2.1-24,8.7
		c-7.2,6.5-14.9,15.4-14.9,27.3c0,11.9,0,42.2,0,42.2s1.4,2.9,4.6,5.2c0,0-0.6,11.2-4.7,16.8v30.7
		C535.3,317.4,536.3,338.9,516.7,346.6z"/>
</g>
<g class="st12">
	<path class="st13" d="M378.6,1104.3v1c-1.4,0-2.4,0.4-2.9,1.2c-0.6,0.8-0.8,2.1-0.8,4.1v30.5c0,2.9-0.8,5.1-2.3,6.7
		c-1.5,1.6-3.5,2.4-6,2.4c-2.4,0-4.2-1-5.4-3l0.8-0.6c0.8,1,1.7,1.5,3,1.5c1.6,0,2.9-0.7,4-2.1c1-1.4,1.5-3.4,1.5-6v-29.5
		c0-2-0.3-3.4-0.8-4.1c-0.5-0.8-1.5-1.1-3-1.1v-1H378.6z"/>
	<path class="st13" d="M387.3,1138.1c-1.6,0-3-0.5-4.1-1.6c-1.1-1.1-1.7-2.3-1.7-3.8c0-1.4,0.5-2.6,1.5-3.5c1-0.9,3-1.8,6-2.7
		c1.9-0.5,3.2-1,3.8-1.4v-1.5c0-1.5-0.4-2.7-1.2-3.6c-0.8-0.9-1.9-1.4-3.3-1.4c-1.3,0-2.4,0.4-3.4,1.2c-1,0.8-1.7,1.9-2.1,3.2
		l-1-0.3c0.4-1.9,1.3-3.4,2.7-4.6c1.4-1.1,3-1.7,4.9-1.7c2.2,0,4,0.7,5.3,2c1.4,1.3,2,3.2,2,5.5v8.8c0,1.2,0.1,2.1,0.2,2.5
		s0.5,0.7,0.9,0.7c0.3,0,0.5-0.1,0.7-0.4c0.2-0.3,0.4-0.8,0.6-1.6h1c-0.1,1.3-0.5,2.3-1.2,3s-1.6,1.1-2.8,1.1c-1.7,0-2.8-1-3.5-2.9
		c-1,1.1-1.9,1.9-2.7,2.3C389.3,1137.9,388.4,1138.1,387.3,1138.1z M392.8,1133.3v-6.9c-0.6,0.2-1.4,0.6-2.5,0.9
		c-2,0.7-3.4,1.4-3.9,2.1c-0.6,0.7-0.9,1.6-0.9,2.8c0,1,0.3,1.9,0.9,2.6c0.6,0.7,1.3,1.1,2.2,1.1c0.8,0,1.6-0.2,2.4-0.7
		S392.5,1134,392.8,1133.3z"/>
	<path class="st13" d="M408.8,1116.4v4.1c2.4-2.7,4.9-4.1,7.4-4.1c2,0,3.6,0.7,4.9,2c1.3,1.3,2,3.1,2,5.3v9.2c0,1.4,0.2,2.3,0.7,2.8
		c0.5,0.5,1.4,0.7,2.8,0.7v1h-10.9v-1c1.4,0,2.3-0.2,2.8-0.5c0.5-0.3,0.7-1,0.7-2v-10.7c0-1.4-0.4-2.6-1.3-3.4
		c-0.9-0.8-2-1.3-3.3-1.3c-1.9,0-3.9,1.3-5.8,4v10c0,1.7,0.2,2.8,0.7,3.2c0.4,0.5,1.4,0.7,2.8,0.7v1h-10.8v-1c1.6,0,2.5-0.3,2.9-0.8
		c0.4-0.5,0.5-1.6,0.5-3.2V1121c0-1.2-0.2-2-0.6-2.4s-1.4-0.6-2.8-0.6v-1l6.4-0.6H408.8z"/>
	<path class="st13" d="M448.6,1116.4h1v17.2c0,1.1,0.2,1.9,0.7,2.3s1.4,0.6,2.8,0.6v1l-7.4,0.4v-3.8h-0.1c-2,2.7-4.4,4-7.2,4
		c-2,0-3.6-0.7-4.8-2c-1.3-1.3-1.9-3-1.9-4.9v-10.5c0-1.1-0.3-1.8-0.8-2.1c-0.5-0.4-1.5-0.6-2.8-0.6v-1l6.6-0.6h1v14.6
		c0,1.4,0.4,2.6,1.3,3.4c0.8,0.8,2,1.2,3.4,1.2c2,0,3.8-1.1,5.4-3.4v-11c0-1.4-0.2-2.3-0.6-2.7c-0.4-0.4-1.5-0.6-3.3-0.6v-1
		L448.6,1116.4z"/>
	<path class="st13" d="M461.4,1138.1c-1.6,0-3-0.5-4.1-1.6c-1.1-1.1-1.7-2.3-1.7-3.8c0-1.4,0.5-2.6,1.5-3.5c1-0.9,3-1.8,6-2.7
		c1.9-0.5,3.2-1,3.8-1.4v-1.5c0-1.5-0.4-2.7-1.2-3.6c-0.8-0.9-1.9-1.4-3.3-1.4c-1.3,0-2.4,0.4-3.4,1.2c-1,0.8-1.7,1.9-2.1,3.2
		l-1-0.3c0.4-1.9,1.3-3.4,2.7-4.6c1.4-1.1,3-1.7,4.9-1.7c2.2,0,4,0.7,5.3,2c1.4,1.3,2,3.2,2,5.5v8.8c0,1.2,0.1,2.1,0.2,2.5
		s0.5,0.7,0.9,0.7c0.3,0,0.5-0.1,0.7-0.4c0.2-0.3,0.4-0.8,0.6-1.6h1c-0.1,1.3-0.5,2.3-1.2,3s-1.6,1.1-2.8,1.1c-1.7,0-2.8-1-3.5-2.9
		c-1,1.1-1.9,1.9-2.7,2.3C463.4,1137.9,462.4,1138.1,461.4,1138.1z M466.9,1133.3v-6.9c-0.6,0.2-1.4,0.6-2.5,0.9
		c-2,0.7-3.4,1.4-3.9,2.1c-0.6,0.7-0.9,1.6-0.9,2.8c0,1,0.3,1.9,0.9,2.6c0.6,0.7,1.3,1.1,2.2,1.1c0.8,0,1.6-0.2,2.4-0.7
		S466.5,1134,466.9,1133.3z"/>
	<path class="st13" d="M483.4,1116.4v4.4c1.9-1.6,3.3-2.8,4.4-3.4s1.9-1,2.6-1c1.3,0,2.5,0.5,3.8,1.6l-1.6,3.6
		c-2.2-1.2-3.8-1.8-4.9-1.8c-1.2,0-2.6,0.8-4.3,2.5v11.2c0,1.1,0.2,1.9,0.7,2.3c0.5,0.4,1.4,0.6,2.7,0.6v1h-10.8v-1
		c1.4,0,2.4-0.2,2.8-0.7c0.4-0.5,0.7-1.5,0.7-3.3v-11.2c0-1.4-0.2-2.3-0.7-2.7s-1.6-0.6-3.5-0.6v-1l7.2-0.6H483.4z"/>
	<path class="st13" d="M506.1,1117v1c-1.2,0.2-1.7,0.8-1.7,1.8c0,0.4,0.1,0.8,0.3,1.3l4.9,11.6l3.6-10.8c0.3-0.9,0.4-1.6,0.4-2.1
		c0-1.1-0.7-1.7-2.1-1.8v-1h7.2v1c-1.1,0-2,0.4-2.7,1.1c-0.7,0.7-1.4,2-1.9,3.7l-8.1,24.1c-0.8,2.3-1.8,4.1-3,5.4
		c-1.2,1.3-2.5,2-3.8,2c-0.8,0-1.6-0.3-2.5-0.9l1.3-3.5c0.7,0.3,1.4,0.5,2,0.5c1.2,0,2.2-0.4,3-1.2c0.8-0.8,1.5-2.1,2.2-3.9l2.6-7.4
		l-7.3-16.9c-0.5-1.2-1.1-2-1.6-2.4c-0.5-0.4-1.4-0.6-2.5-0.6v-1H506.1z"/>
	<path class="st13" d="M538.4,1135.1h16.3v2.4h-19v-1.2c5.2-5.3,8.8-9.6,10.9-12.9c2.1-3.3,3.2-6.3,3.2-9.1c0-2.4-0.5-4.2-1.6-5.6
		c-1.1-1.4-2.6-2-4.4-2c-1.7,0-3.1,0.5-4.2,1.6s-1.7,2.5-1.9,4.4h-1c0-1.4,0.4-2.8,1.3-4.3c0.8-1.5,1.9-2.7,3.2-3.6
		c1.3-0.8,2.7-1.3,4.3-1.3c2.3,0,4.3,0.9,5.9,2.7c1.6,1.8,2.4,4,2.4,6.6c0,3-1.2,6.2-3.5,9.6C548.1,1125.7,544.1,1130,538.4,1135.1z
		"/>
	<path class="st13" d="M564.9,1135.1h16.3v2.4h-19v-1.2c5.2-5.3,8.8-9.6,10.9-12.9c2.1-3.3,3.2-6.3,3.2-9.1c0-2.4-0.5-4.2-1.6-5.6
		c-1.1-1.4-2.6-2-4.4-2c-1.7,0-3.1,0.5-4.2,1.6c-1.1,1.1-1.7,2.5-1.9,4.4h-1c0-1.4,0.4-2.8,1.3-4.3c0.8-1.5,1.9-2.7,3.2-3.6
		c1.3-0.8,2.7-1.3,4.3-1.3c2.3,0,4.3,0.9,5.9,2.7c1.6,1.8,2.4,4,2.4,6.6c0,3-1.2,6.2-3.5,9.6C574.5,1125.7,570.5,1130,564.9,1135.1z
		"/>
	<path class="st13" d="M590.4,1147.4v-1c1.5-0.8,2.6-1.6,3.2-2.6c0.6-1,0.9-2.2,0.9-3.9c0-0.4-0.1-0.7-0.2-0.8
		c-0.1-0.1-0.4-0.2-0.9-0.2c-0.8,0-1.6-0.3-2.1-0.8s-0.9-1.2-0.9-2c0-0.8,0.3-1.4,0.8-1.9s1.2-0.8,2-0.8c1.3,0,2.3,0.5,3.1,1.6
		c0.8,1,1.2,2.4,1.2,4c0,2-0.7,3.8-2,5.4S592.5,1146.9,590.4,1147.4z"/>
	<path class="st13" d="M618.9,1135.1h16.3v2.4h-19v-1.2c5.2-5.3,8.8-9.6,10.9-12.9c2.1-3.3,3.2-6.3,3.2-9.1c0-2.4-0.5-4.2-1.6-5.6
		s-2.6-2-4.4-2c-1.7,0-3.1,0.5-4.2,1.6s-1.7,2.5-1.9,4.4h-1c0-1.4,0.4-2.8,1.3-4.3c0.8-1.5,1.9-2.7,3.2-3.6c1.3-0.8,2.7-1.3,4.3-1.3
		c2.3,0,4.3,0.9,5.9,2.7c1.6,1.8,2.4,4,2.4,6.6c0,3-1.2,6.2-3.5,9.6C628.6,1125.7,624.6,1130,618.9,1135.1z"/>
	<path class="st13" d="M664,1120.8c0,3.4-0.5,6.4-1.5,9c-1,2.6-2.4,4.6-4.2,6.1s-3.7,2.2-5.8,2.2c-2.1,0-4-0.7-5.9-2.2
		s-3.2-3.5-4.2-6.1s-1.5-5.6-1.5-9c0-3.3,0.5-6.3,1.5-8.9c1-2.6,2.4-4.6,4.2-6.1c1.8-1.5,3.8-2.2,5.8-2.2c2.1,0,4,0.7,5.8,2.2
		s3.2,3.5,4.1,6.1C663.5,1114.4,664,1117.4,664,1120.8z M659.6,1120.8c0-5-0.6-8.9-1.8-11.6c-1.2-2.8-3-4.1-5.2-4.1
		c-2.3,0-4,1.4-5.3,4.2c-1.2,2.8-1.8,6.7-1.8,11.6c0,5,0.6,8.8,1.9,11.6s3,4.2,5.2,4.2c2.3,0,4-1.4,5.2-4.1
		S659.6,1125.8,659.6,1120.8z"/>
	<path class="st13" d="M671.8,1135.1h16.3v2.4h-19v-1.2c5.2-5.3,8.8-9.6,10.9-12.9c2.1-3.3,3.2-6.3,3.2-9.1c0-2.4-0.5-4.2-1.6-5.6
		c-1.1-1.4-2.6-2-4.4-2c-1.7,0-3.1,0.5-4.2,1.6c-1.1,1.1-1.7,2.5-1.9,4.4h-1c0-1.4,0.4-2.8,1.3-4.3c0.8-1.5,1.9-2.7,3.2-3.6
		c1.3-0.8,2.7-1.3,4.3-1.3c2.3,0,4.3,0.9,5.9,2.7c1.6,1.8,2.4,4,2.4,6.6c0,3-1.2,6.2-3.5,9.6C681.5,1125.7,677.5,1130,671.8,1135.1z
		"/>
	<path class="st13" d="M698.3,1135.1h16.3v2.4h-19v-1.2c5.2-5.3,8.8-9.6,10.9-12.9c2.1-3.3,3.2-6.3,3.2-9.1c0-2.4-0.5-4.2-1.6-5.6
		c-1.1-1.4-2.6-2-4.4-2c-1.7,0-3.1,0.5-4.2,1.6s-1.7,2.5-1.9,4.4h-1c0-1.4,0.4-2.8,1.3-4.3s1.9-2.7,3.2-3.6c1.3-0.8,2.7-1.3,4.3-1.3
		c2.3,0,4.3,0.9,5.9,2.7c1.6,1.8,2.4,4,2.4,6.6c0,3-1.2,6.2-3.5,9.6C707.9,1125.7,703.9,1130,698.3,1135.1z"/>
</g>
<g class="st12">
	<path class="st13" d="M349.5,1186.2h-1l1.8-8.5h1c0.2,0.5,0.5,0.8,0.7,0.9c0.3,0.1,0.6,0.2,1.1,0.2h18.3v1.1l-11.4,32.4h-4.1
		l12.8-30.3h-14.5c-1,0-1.8,0.2-2.3,0.7C351.3,1183.3,350.5,1184.5,349.5,1186.2z"/>
	<path class="st13" d="M381.5,1193c0.8,0,1.4,0.3,1.9,0.8c0.5,0.5,0.8,1.2,0.8,1.9s-0.3,1.4-0.8,1.9c-0.5,0.5-1.2,0.8-1.9,0.8
		c-0.8,0-1.4-0.3-1.9-0.8c-0.5-0.5-0.8-1.2-0.8-1.9s0.3-1.4,0.8-1.9C380.1,1193.3,380.8,1193,381.5,1193z M381.5,1207.9
		c0.8,0,1.4,0.3,1.9,0.8c0.5,0.5,0.8,1.2,0.8,1.9s-0.3,1.4-0.8,1.9c-0.5,0.5-1.2,0.8-1.9,0.8c-0.8,0-1.4-0.3-1.9-0.8
		c-0.5-0.5-0.8-1.2-0.8-1.9c0-0.7,0.3-1.4,0.8-1.9C380.1,1208.2,380.8,1207.9,381.5,1207.9z"/>
	<path class="st13" d="M414.6,1195.3c0,3.4-0.5,6.4-1.5,9c-1,2.6-2.4,4.6-4.2,6.1s-3.7,2.2-5.8,2.2c-2.1,0-4-0.7-5.9-2.2
		s-3.2-3.5-4.2-6.1s-1.5-5.6-1.5-9c0-3.3,0.5-6.3,1.5-8.9c1-2.6,2.4-4.6,4.2-6.1c1.8-1.5,3.8-2.2,5.8-2.2c2.1,0,4,0.7,5.8,2.2
		c1.8,1.5,3.2,3.5,4.1,6.1C414.1,1189,414.6,1191.9,414.6,1195.3z M410.2,1195.3c0-5-0.6-8.9-1.8-11.6c-1.2-2.8-3-4.1-5.2-4.1
		c-2.3,0-4,1.4-5.3,4.2c-1.2,2.8-1.8,6.7-1.8,11.6c0,5,0.6,8.8,1.9,11.6c1.2,2.8,3,4.2,5.2,4.2c2.3,0,4-1.4,5.2-4.1
		C409.6,1204.3,410.2,1200.4,410.2,1195.3z"/>
	<path class="st13" d="M441,1195.3c0,3.4-0.5,6.4-1.5,9c-1,2.6-2.4,4.6-4.2,6.1s-3.7,2.2-5.8,2.2c-2.1,0-4-0.7-5.9-2.2
		s-3.2-3.5-4.2-6.1s-1.5-5.6-1.5-9c0-3.3,0.5-6.3,1.5-8.9c1-2.6,2.4-4.6,4.2-6.1c1.8-1.5,3.8-2.2,5.8-2.2c2.1,0,4,0.7,5.8,2.2
		c1.8,1.5,3.2,3.5,4.1,6.1C440.6,1189,441,1191.9,441,1195.3z M436.7,1195.3c0-5-0.6-8.9-1.8-11.6c-1.2-2.8-3-4.1-5.2-4.1
		c-2.3,0-4,1.4-5.3,4.2c-1.2,2.8-1.8,6.7-1.8,11.6c0,5,0.6,8.8,1.9,11.6c1.2,2.8,3,4.2,5.2,4.2c2.3,0,4-1.4,5.2-4.1
		C436.1,1204.3,436.7,1200.4,436.7,1195.3z"/>
	<path class="st13" d="M458.1,1178.9h12.1c3.9,0,7.1,0.9,9.4,2.6c2.3,1.7,3.5,4,3.5,6.8c0,2.7-1,4.9-3,6.3c-2,1.5-4.9,2.2-8.7,2.2
		c-1.4,0-3.1-0.1-5.1-0.3v9.3c0,2,0.3,3.4,0.8,4.1c0.5,0.8,1.5,1.1,2.9,1.1v1h-11.9v-1c1.4,0,2.4-0.4,2.9-1.2c0.5-0.8,0.8-2.1,0.8-4
		v-20.7c0-2-0.3-3.3-0.8-4.1c-0.5-0.8-1.5-1.2-2.9-1.2V1178.9z M470.3,1180.1h-4.1v14.8c1.1,0.4,2.5,0.6,4.1,0.6
		c2.5,0,4.4-0.6,5.9-1.9c1.4-1.3,2.2-3,2.2-5.2c0-2.4-0.7-4.4-2.1-5.9C474.8,1180.9,472.8,1180.1,470.3,1180.1z"/>
	<path class="st13" d="M517.8,1178.9h7.8v1c-2.5,0.1-3.7,1.5-3.7,4.4c0,0.2,0,0.5,0,0.8l1.7,20.4c0.2,2.2,0.6,3.6,1.1,4.3
		c0.6,0.7,1.6,1.1,3,1.3v1h-11.9v-1c1.3-0.2,2.2-0.6,2.7-1.2c0.5-0.6,0.8-1.6,0.8-2.9c0-0.3,0-0.6,0-0.9l-1.8-21.4l-11.3,27.3h-0.9
		l-11.2-27.3l-1.9,20.3c0,0.3,0,0.6,0,0.9c0,2.9,1.4,4.5,4.3,5.1v1h-10.3v-1c1.4-0.2,2.4-0.7,3-1.5c0.6-0.8,1-2.3,1.3-4.6l2-22.8
		c-1.2-1.3-2.6-2-4.3-2.3v-1h8.4l10.6,26L517.8,1178.9z"/>
	<path class="st13" d="M545.7,1195.2c0-4.9,1.7-9,5.1-12.3c3.4-3.3,7.6-4.9,12.7-4.9c4.9,0,9.1,1.7,12.5,5c3.4,3.3,5.1,7.4,5.1,12.2
		c0,4.9-1.7,9.1-5.1,12.4s-7.6,5.1-12.6,5.1c-4.9,0-9.1-1.7-12.5-5.1S545.7,1200.2,545.7,1195.2z M550.8,1195.3
		c0,4.8,1.1,8.7,3.4,11.7c2.3,3,5.3,4.5,9,4.5c3.8,0,6.8-1.5,9.2-4.6c2.3-3,3.5-6.8,3.5-11.4c0-4.9-1.1-8.8-3.4-11.8
		c-2.3-3-5.3-4.4-8.9-4.4c-3.9,0-7,1.5-9.3,4.4C551.9,1186.6,550.8,1190.5,550.8,1195.3z"/>
	<path class="st13" d="M592.3,1190.9v4.1c2.4-2.7,4.9-4.1,7.4-4.1c2,0,3.6,0.7,4.9,2c1.3,1.3,2,3.1,2,5.3v9.2c0,1.4,0.2,2.3,0.7,2.8
		s1.4,0.7,2.8,0.7v1h-10.9v-1c1.4,0,2.3-0.2,2.8-0.5c0.5-0.3,0.7-1,0.7-2v-10.7c0-1.4-0.4-2.6-1.3-3.4s-2-1.3-3.3-1.3
		c-1.9,0-3.9,1.3-5.8,4v10c0,1.7,0.2,2.8,0.7,3.2c0.4,0.5,1.4,0.7,2.8,0.7v1H585v-1c1.6,0,2.5-0.3,2.9-0.8c0.4-0.5,0.5-1.6,0.5-3.2
		v-11.5c0-1.2-0.2-2-0.6-2.4c-0.4-0.4-1.4-0.6-2.8-0.6v-1l6.4-0.6H592.3z"/>
	<path class="st13" d="M621.6,1191.6v1c-1.4,0-2.2,0.4-2.2,1.2c0,0.4,0.2,1,0.5,1.8l4.6,11.5l4.8-12.3c-0.4-0.8-0.8-1.4-1.2-1.7
		c-0.4-0.3-1-0.4-1.8-0.5v-1h9.9v1c-1.8,0-2.6,0.6-2.6,1.6c0,0.4,0.1,0.8,0.3,1.3l4.6,11.5l4.2-10.7c0.3-0.9,0.5-1.6,0.5-2.1
		c0-1.1-0.9-1.7-2.6-1.7v-1h8v1c-1.4,0-2.4,0.2-3,0.7c-0.5,0.4-1.1,1.5-1.8,3.1l-6.4,16.1h-1l-6.5-16.1l-6.4,16.1h-0.9l-7.2-17.6
		c-0.6-1.5-1.9-2.3-3.8-2.3v-1H621.6z"/>
	<path class="st13" d="M656.4,1212.6c-1.6,0-3-0.5-4.1-1.6c-1.1-1.1-1.7-2.3-1.7-3.8c0-1.4,0.5-2.6,1.5-3.5s3-1.8,6-2.7
		c1.9-0.5,3.2-1,3.8-1.4v-1.5c0-1.5-0.4-2.7-1.2-3.6c-0.8-0.9-1.9-1.4-3.3-1.4c-1.3,0-2.4,0.4-3.4,1.2c-1,0.8-1.7,1.9-2.1,3.2
		l-1-0.3c0.4-1.9,1.3-3.4,2.7-4.6c1.4-1.1,3-1.7,4.9-1.7c2.2,0,4,0.7,5.3,2c1.4,1.3,2,3.2,2,5.5v8.8c0,1.2,0.1,2.1,0.2,2.5
		c0.2,0.4,0.5,0.7,0.9,0.7c0.3,0,0.5-0.1,0.7-0.4c0.2-0.3,0.4-0.8,0.6-1.6h1c-0.1,1.3-0.5,2.3-1.2,3s-1.6,1.1-2.8,1.1
		c-1.7,0-2.8-1-3.5-2.9c-1,1.1-1.9,1.9-2.7,2.3S657.4,1212.6,656.4,1212.6z M661.9,1207.8v-6.9c-0.6,0.2-1.4,0.6-2.5,0.9
		c-2,0.7-3.4,1.4-3.9,2.1c-0.6,0.7-0.9,1.6-0.9,2.8c0,1,0.3,1.9,0.9,2.6c0.6,0.7,1.3,1.1,2.2,1.1c0.8,0,1.6-0.2,2.4-0.7
		S661.5,1208.5,661.9,1207.8z"/>
	<path class="st13" d="M678.5,1190.9v4.4c1.9-1.6,3.3-2.8,4.4-3.4c1-0.7,1.9-1,2.6-1c1.3,0,2.5,0.5,3.8,1.6l-1.6,3.6
		c-2.2-1.2-3.8-1.8-4.9-1.8c-1.2,0-2.6,0.8-4.3,2.5v11.2c0,1.1,0.2,1.9,0.7,2.3c0.5,0.4,1.4,0.6,2.7,0.6v1h-10.8v-1
		c1.4,0,2.4-0.2,2.8-0.7c0.4-0.5,0.7-1.5,0.7-3.3v-11.2c0-1.4-0.2-2.3-0.7-2.7s-1.6-0.6-3.5-0.6v-1l7.2-0.6H678.5z"/>
	<path class="st13" d="M710.9,1175.7h1v32.3c0,1.1,0.2,1.9,0.7,2.3c0.5,0.4,1.4,0.6,2.7,0.6v1h-11.9c-3.7,0-6.6-1-8.7-3
		c-2.1-2-3.2-4.6-3.2-7.6c0-2.9,0.9-5.3,2.8-7.3s4.1-3,6.8-3c2.1,0,4.4,0.8,6.9,2.5v-12.6c0-1.4-0.2-2.3-0.5-2.8
		c-0.4-0.5-1.1-0.7-2.2-0.7h-1.2v-1L710.9,1175.7z M708,1207.9v-12.3c-0.8-1.1-1.7-1.9-2.8-2.5c-1.1-0.6-2.1-0.9-3.2-0.9
		c-1.9,0-3.4,0.8-4.5,2.3c-1.1,1.5-1.7,3.5-1.7,6c0,3.2,0.8,5.7,2.4,7.7s3.8,2.9,6.6,2.9c1.1,0,2-0.2,2.5-0.7S708,1209,708,1207.9z"
		/>
	<path class="st13" d="M731.4,1190.9v6.3h-1.2c-0.2-1.6-0.8-2.8-1.7-3.8s-2.1-1.4-3.4-1.4c-1,0-1.8,0.3-2.5,0.8
		c-0.6,0.5-0.9,1.2-0.9,2c0,0.8,0.3,1.6,0.9,2.2c0.6,0.6,1.8,1.4,3.7,2.3c2.5,1.1,4.1,2.2,4.9,3.2s1.2,2.3,1.2,3.7
		c0,1.7-0.6,3.2-1.9,4.4c-1.3,1.3-2.8,1.9-4.5,1.9c-0.9,0-2.1-0.3-3.6-1c-0.8-0.4-1.3-0.5-1.6-0.5c-0.4,0-0.7,0.1-0.9,0.4
		c-0.2,0.3-0.4,0.6-0.4,1h-1v-7h1c0.4,1.8,1.1,3.3,2.4,4.4s2.6,1.6,4.2,1.6c1,0,1.9-0.3,2.6-1c0.7-0.7,1-1.5,1-2.5
		c0-1-0.3-1.8-0.9-2.5s-2-1.5-4.1-2.4c-2.4-1-3.9-2-4.7-2.9c-0.8-0.9-1.1-2-1.1-3.3c0-1.6,0.6-3,1.8-4.1c1.2-1.2,2.7-1.7,4.4-1.7
		c0.8,0,1.6,0.2,2.6,0.6c0.7,0.3,1.2,0.4,1.6,0.4c0.5,0,0.9-0.3,1.2-1H731.4z"/>
</g>
<g class="st12">
	<path class="st13" d="M339.3,1345h-8.7v9.8c0,2,0.3,3.3,0.8,4.1c0.5,0.8,1.5,1.1,3,1.1v1h-11.9v-1c1.4,0,2.4-0.4,2.9-1.1
		c0.5-0.8,0.8-2.1,0.8-4.1v-20.6c0-2-0.3-3.4-0.8-4.1s-1.5-1.1-3-1.1v-1h22.7v5.9h-0.8c-0.4-1.7-0.8-2.9-1.4-3.4
		c-0.6-0.5-1.9-0.8-4-0.8h-8.4v13.8h8.6c1.2,0,2-0.3,2.6-0.9c0.6-0.6,0.9-1.6,1.1-3h0.9v9.3h-0.9
		C342.7,1346.2,341.5,1345,339.3,1345z"/>
	<path class="st13" d="M352.9,1361.6c-1.6,0-3-0.5-4.1-1.6c-1.1-1.1-1.7-2.3-1.7-3.8c0-1.4,0.5-2.6,1.5-3.5c1-0.9,3-1.8,6-2.7
		c1.9-0.5,3.2-1,3.8-1.4v-1.5c0-1.5-0.4-2.7-1.2-3.6c-0.8-0.9-1.9-1.4-3.3-1.4c-1.3,0-2.4,0.4-3.4,1.2c-1,0.8-1.7,1.9-2.1,3.2
		l-1-0.3c0.4-1.9,1.3-3.4,2.7-4.6c1.4-1.1,3-1.7,4.9-1.7c2.2,0,4,0.7,5.3,2c1.4,1.3,2,3.2,2,5.5v8.8c0,1.2,0.1,2.1,0.2,2.5
		s0.5,0.7,0.9,0.7c0.3,0,0.5-0.1,0.7-0.4c0.2-0.3,0.4-0.8,0.6-1.6h1c-0.1,1.3-0.5,2.3-1.2,3s-1.6,1.1-2.8,1.1c-1.7,0-2.8-1-3.5-2.9
		c-1,1.1-1.9,1.9-2.7,2.3C354.9,1361.4,354,1361.6,352.9,1361.6z M358.4,1356.8v-6.9c-0.6,0.2-1.4,0.6-2.5,0.9
		c-2,0.7-3.4,1.4-3.9,2.1c-0.6,0.7-0.9,1.6-0.9,2.8c0,1,0.3,1.9,0.9,2.6c0.6,0.7,1.3,1.1,2.2,1.1c0.8,0,1.6-0.2,2.4-0.7
		S358.1,1357.6,358.4,1356.8z"/>
	<path class="st13" d="M375,1340v4.4c1.9-1.6,3.3-2.8,4.4-3.4s1.9-1,2.6-1c1.3,0,2.5,0.5,3.8,1.6l-1.6,3.6c-2.2-1.2-3.8-1.8-4.9-1.8
		c-1.2,0-2.6,0.8-4.3,2.5v11.2c0,1.1,0.2,1.9,0.7,2.3c0.5,0.4,1.4,0.6,2.7,0.6v1h-10.8v-1c1.4,0,2.4-0.2,2.8-0.7
		c0.4-0.5,0.7-1.5,0.7-3.3v-11.2c0-1.4-0.2-2.3-0.7-2.7s-1.6-0.6-3.5-0.6v-1l7.2-0.6H375z"/>
	<path class="st13" d="M395.1,1340h1v17.2c0,1.1,0.2,1.9,0.7,2.3c0.5,0.4,1.4,0.6,2.7,0.6v1h-11.2v-1c1.6,0,2.7-0.2,3.2-0.6
		c0.5-0.4,0.7-1.1,0.7-2.3v-12.6c0-1.2-0.2-2.1-0.6-2.5c-0.4-0.4-1.5-0.6-3.2-0.6v-1L395.1,1340z M394.2,1329.4
		c0.7,0,1.3,0.2,1.8,0.7s0.7,1.1,0.7,1.8c0,0.7-0.2,1.3-0.7,1.8c-0.5,0.5-1.1,0.7-1.7,0.7c-0.7,0-1.3-0.2-1.8-0.7
		c-0.5-0.5-0.8-1.1-0.8-1.8c0-0.7,0.2-1.3,0.7-1.8C392.9,1329.6,393.5,1329.4,394.2,1329.4z"/>
	<path class="st13" d="M411.5,1340.6v1c-1.2,0.2-1.7,0.8-1.7,1.8c0,0.4,0.1,0.8,0.3,1.3l4.9,11.6l3.6-10.8c0.3-0.9,0.4-1.6,0.4-2.1
		c0-1.1-0.7-1.7-2.1-1.8v-1h7.2v1c-1.1,0-2,0.4-2.7,1.1c-0.7,0.7-1.4,2-1.9,3.7l-8.1,24.1c-0.8,2.3-1.8,4.1-3,5.4
		c-1.2,1.3-2.5,2-3.8,2c-0.8,0-1.6-0.3-2.5-0.9l1.3-3.5c0.7,0.3,1.4,0.5,2,0.5c1.2,0,2.2-0.4,3-1.2c0.8-0.8,1.5-2.1,2.2-3.9l2.6-7.4
		l-7.3-16.9c-0.5-1.2-1.1-2-1.6-2.4c-0.5-0.4-1.4-0.6-2.5-0.6v-1H411.5z"/>
	<path class="st13" d="M431.8,1361.6c-1.6,0-3-0.5-4.1-1.6c-1.1-1.1-1.7-2.3-1.7-3.8c0-1.4,0.5-2.6,1.5-3.5c1-0.9,3-1.8,6-2.7
		c1.9-0.5,3.2-1,3.8-1.4v-1.5c0-1.5-0.4-2.7-1.2-3.6c-0.8-0.9-1.9-1.4-3.3-1.4c-1.3,0-2.4,0.4-3.4,1.2c-1,0.8-1.7,1.9-2.1,3.2
		l-1-0.3c0.4-1.9,1.3-3.4,2.7-4.6c1.4-1.1,3-1.7,4.9-1.7c2.2,0,4,0.7,5.3,2c1.4,1.3,2,3.2,2,5.5v8.8c0,1.2,0.1,2.1,0.2,2.5
		s0.5,0.7,0.9,0.7c0.3,0,0.5-0.1,0.7-0.4c0.2-0.3,0.4-0.8,0.6-1.6h1c-0.1,1.3-0.5,2.3-1.2,3s-1.6,1.1-2.8,1.1c-1.7,0-2.8-1-3.5-2.9
		c-1,1.1-1.9,1.9-2.7,2.3C433.8,1361.4,432.9,1361.6,431.8,1361.6z M437.3,1356.8v-6.9c-0.6,0.2-1.4,0.6-2.5,0.9
		c-2,0.7-3.4,1.4-3.9,2.1c-0.6,0.7-0.9,1.6-0.9,2.8c0,1,0.3,1.9,0.9,2.6c0.6,0.7,1.3,1.1,2.2,1.1c0.8,0,1.6-0.2,2.4-0.7
		S437,1357.6,437.3,1356.8z"/>
	<path class="st13" d="M460.5,1340v6.3h-1.2c-0.2-1.6-0.8-2.8-1.7-3.8s-2.1-1.4-3.4-1.4c-1,0-1.8,0.3-2.5,0.8
		c-0.6,0.5-0.9,1.2-0.9,2c0,0.8,0.3,1.6,0.9,2.2c0.6,0.6,1.8,1.4,3.7,2.3c2.5,1.1,4.1,2.2,4.9,3.2c0.8,1,1.2,2.3,1.2,3.7
		c0,1.7-0.6,3.2-1.9,4.4c-1.3,1.3-2.8,1.9-4.5,1.9c-0.9,0-2.1-0.3-3.6-1c-0.8-0.4-1.3-0.5-1.6-0.5c-0.4,0-0.7,0.1-0.9,0.4
		c-0.2,0.3-0.4,0.6-0.4,1h-1v-7h1c0.4,1.8,1.1,3.3,2.4,4.4c1.2,1.1,2.6,1.6,4.2,1.6c1,0,1.9-0.3,2.6-1c0.7-0.7,1-1.5,1-2.5
		c0-1-0.3-1.8-0.9-2.5s-2-1.5-4.1-2.4c-2.4-1-3.9-2-4.7-2.9s-1.1-2-1.1-3.3c0-1.6,0.6-3,1.8-4.1s2.7-1.7,4.4-1.7
		c0.8,0,1.6,0.2,2.6,0.6c0.7,0.3,1.2,0.4,1.6,0.4c0.5,0,0.9-0.3,1.2-1H460.5z"/>
	<path class="st13" d="M489.2,1345.7h-2.7v9.1c0,2,0.3,3.3,0.8,4.1c0.6,0.8,1.5,1.2,2.9,1.2v1h-11.9v-1c1.5,0,2.5-0.4,3-1.2
		c0.5-0.8,0.8-2.1,0.8-4.1V1334c0-2-0.3-3.3-0.8-4.1c-0.5-0.7-1.5-1.1-3-1.1v-1H492c3.3,0,6,0.8,8,2.4c2,1.6,3,3.7,3,6.2
		c0,4.1-2.3,6.8-6.8,8.1c1,0.6,2,1.5,2.9,2.6s2.2,3,3.7,5.6c1.7,2.9,3.1,4.8,4.1,5.7s2,1.4,3,1.5v1h-6.8c-1.4-1.7-3.1-4.1-5-7.4
		c-2.1-3.4-3.8-5.6-5-6.5C492,1346.1,490.7,1345.7,489.2,1345.7z M490,1329.2h-3.5v15.1h4.1c2.4,0,4.3-0.7,5.7-2.1
		c1.4-1.4,2.1-3.2,2.1-5.5c0-2.2-0.8-4-2.3-5.4C494.6,1329.9,492.5,1329.2,490,1329.2z"/>
	<path class="st13" d="M532.3,1355.7v1.5c-1.2,1.6-2.5,2.7-3.8,3.4c-1.3,0.7-2.8,1-4.6,1c-3.2,0-5.8-1-7.9-3c-2.1-2-3.1-4.5-3.1-7.6
		c0-3.1,1-5.7,3-7.8c2-2.1,4.4-3.2,7.3-3.2c2.4,0,4.4,0.8,6.2,2.4c1.8,1.6,2.7,3.5,2.7,5.7v0.4h-15v0.3c0,2.3,0.3,4.2,1,5.9
		c0.7,1.7,1.7,3,3,3.9c1.3,0.9,2.7,1.4,4.1,1.4c1.3,0,2.5-0.3,3.4-0.8C529.5,1358.6,530.7,1357.5,532.3,1355.7z M517,1347.5h11.1
		v-0.4c0-1.8-0.5-3.3-1.6-4.3c-1-1.1-2.3-1.6-3.9-1.6c-1.7,0-3,0.6-4,1.7C517.6,1344,517.1,1345.5,517,1347.5z"/>
	<path class="st13" d="M549.4,1340v6.3h-1.2c-0.2-1.6-0.8-2.8-1.7-3.8s-2.1-1.4-3.4-1.4c-1,0-1.8,0.3-2.5,0.8s-0.9,1.2-0.9,2
		c0,0.8,0.3,1.6,0.9,2.2c0.6,0.6,1.8,1.4,3.7,2.3c2.5,1.1,4.1,2.2,4.9,3.2c0.8,1,1.2,2.3,1.2,3.7c0,1.7-0.6,3.2-1.9,4.4
		c-1.3,1.3-2.8,1.9-4.5,1.9c-0.9,0-2.1-0.3-3.6-1c-0.8-0.4-1.3-0.5-1.6-0.5c-0.4,0-0.7,0.1-0.9,0.4c-0.2,0.3-0.4,0.6-0.4,1h-1v-7h1
		c0.4,1.8,1.1,3.3,2.4,4.4c1.2,1.1,2.6,1.6,4.2,1.6c1,0,1.9-0.3,2.6-1c0.7-0.7,1-1.5,1-2.5c0-1-0.3-1.8-0.9-2.5
		c-0.6-0.7-2-1.5-4.1-2.4c-2.4-1-3.9-2-4.7-2.9s-1.1-2-1.1-3.3c0-1.6,0.6-3,1.8-4.1s2.7-1.7,4.4-1.7c0.8,0,1.6,0.2,2.6,0.6
		c0.7,0.3,1.2,0.4,1.6,0.4c0.5,0,0.9-0.3,1.2-1H549.4z"/>
	<path class="st13" d="M576.7,1350.8c0,3.1-1.1,5.7-3.2,7.7c-2.1,2.1-4.8,3.1-8,3.1c-3.2,0-5.9-1-8-3.1c-2.1-2.1-3.2-4.6-3.2-7.7
		c0-3.1,1.1-5.7,3.2-7.8c2.1-2.1,4.8-3.1,8-3.1s5.9,1,8,3.1C575.7,1345.1,576.7,1347.7,576.7,1350.8z M572.5,1350.8
		c0-2.9-0.6-5.3-1.9-7.1s-2.9-2.7-5.1-2.7s-3.8,0.9-5.1,2.6s-1.9,4.1-1.9,7.1c0,2.9,0.6,5.3,1.8,7c1.2,1.8,2.9,2.6,5.1,2.6
		s3.9-0.9,5.1-2.7C571.8,1356.1,572.5,1353.7,572.5,1350.8z"/>
	<path class="st13" d="M587.3,1340v4.4c1.9-1.6,3.3-2.8,4.4-3.4c1-0.7,1.9-1,2.6-1c1.3,0,2.5,0.5,3.8,1.6l-1.6,3.6
		c-2.2-1.2-3.8-1.8-4.9-1.8c-1.2,0-2.6,0.8-4.3,2.5v11.2c0,1.1,0.2,1.9,0.7,2.3c0.5,0.4,1.4,0.6,2.7,0.6v1h-10.8v-1
		c1.4,0,2.4-0.2,2.8-0.7c0.4-0.5,0.7-1.5,0.7-3.3v-11.2c0-1.4-0.2-2.3-0.7-2.7s-1.7-0.6-3.5-0.6v-1l7.2-0.6H587.3z"/>
	<path class="st13" d="M608.4,1333.6h1v6.9h7.1v1.5h-7.1v13.2c0,1.4,0.3,2.4,1,3.2c0.6,0.7,1.6,1.1,2.7,1.1c1.4,0,2.7-0.7,3.8-2
		l0.6,0.8c-1.8,2.3-3.8,3.4-6.2,3.4c-1.7,0-3.2-0.6-4.3-1.7s-1.6-2.5-1.6-4.3V1342h-3.9v-1C604.4,1339.6,606.7,1337.1,608.4,1333.6z
		"/>
	<path class="st13" d="M622.6,1370.9v-1c1.5-0.8,2.6-1.6,3.2-2.6c0.6-1,0.9-2.2,0.9-3.9c0-0.4-0.1-0.7-0.2-0.8s-0.4-0.2-0.9-0.2
		c-0.8,0-1.6-0.3-2.1-0.8s-0.9-1.2-0.9-2c0-0.8,0.3-1.4,0.8-1.9c0.5-0.5,1.2-0.8,2-0.8c1.3,0,2.3,0.5,3.1,1.6c0.8,1,1.2,2.4,1.2,4
		c0,2-0.7,3.8-2,5.4S624.7,1370.4,622.6,1370.9z"/>
	<path class="st13" d="M672.6,1353.8h1l-2,7.2h-24v-1c1.4,0,2.3-0.4,2.9-1.3c0.6-0.8,0.9-2.3,0.9-4.3v-20.8c0-1.8-0.3-3-0.8-3.7
		s-1.5-1.1-2.9-1.1v-1h11.8v1c-1.3,0-2.3,0.4-2.8,1.2c-0.6,0.8-0.9,2.1-0.9,4v22.1c0,1.2,0.3,2.1,0.8,2.5c0.5,0.5,1.5,0.7,3,0.7h6.6
		c2,0,3.5-0.4,4.3-1.1S671.9,1356.1,672.6,1353.8z"/>
	<path class="st13" d="M698.4,1350.8c0,3.1-1.1,5.7-3.2,7.7c-2.1,2.1-4.8,3.1-8,3.1c-3.2,0-5.9-1-8-3.1c-2.1-2.1-3.2-4.6-3.2-7.7
		c0-3.1,1.1-5.7,3.2-7.8c2.1-2.1,4.8-3.1,8-3.1c3.2,0,5.9,1,8,3.1C697.3,1345.1,698.4,1347.7,698.4,1350.8z M694.1,1350.8
		c0-2.9-0.6-5.3-1.9-7.1c-1.2-1.8-2.9-2.7-5.1-2.7s-3.8,0.9-5.1,2.6s-1.9,4.1-1.9,7.1c0,2.9,0.6,5.3,1.8,7c1.2,1.8,2.9,2.6,5.1,2.6
		c2.2,0,3.9-0.9,5.1-2.7C693.5,1356.1,694.1,1353.7,694.1,1350.8z"/>
	<path class="st13" d="M708.4,1340v4.1c2.4-2.7,4.9-4.1,7.4-4.1c2,0,3.6,0.7,4.9,2c1.3,1.3,2,3.1,2,5.3v9.2c0,1.4,0.2,2.3,0.7,2.8
		c0.5,0.5,1.4,0.7,2.8,0.7v1h-10.9v-1c1.4,0,2.3-0.2,2.8-0.5c0.5-0.3,0.7-1,0.7-2v-10.7c0-1.4-0.4-2.6-1.3-3.4
		c-0.9-0.8-2-1.3-3.3-1.3c-1.9,0-3.9,1.3-5.8,4v10c0,1.7,0.2,2.8,0.7,3.2c0.4,0.5,1.4,0.7,2.8,0.7v1H701v-1c1.6,0,2.5-0.3,2.9-0.8
		c0.4-0.5,0.5-1.6,0.5-3.2v-11.5c0-1.2-0.2-2-0.6-2.4s-1.4-0.6-2.8-0.6v-1l6.4-0.6H708.4z"/>
	<path class="st13" d="M734.4,1361.6c-1.6,0-3-0.5-4.1-1.6c-1.1-1.1-1.7-2.3-1.7-3.8c0-1.4,0.5-2.6,1.5-3.5s3-1.8,6-2.7
		c1.9-0.5,3.2-1,3.8-1.4v-1.5c0-1.5-0.4-2.7-1.2-3.6c-0.8-0.9-1.9-1.4-3.3-1.4c-1.3,0-2.4,0.4-3.4,1.2c-1,0.8-1.7,1.9-2.1,3.2
		l-1-0.3c0.4-1.9,1.3-3.4,2.7-4.6c1.4-1.1,3-1.7,4.9-1.7c2.2,0,4,0.7,5.3,2c1.4,1.3,2,3.2,2,5.5v8.8c0,1.2,0.1,2.1,0.2,2.5
		c0.2,0.4,0.5,0.7,0.9,0.7c0.3,0,0.5-0.1,0.7-0.4c0.2-0.3,0.4-0.8,0.6-1.6h1c-0.1,1.3-0.5,2.3-1.2,3s-1.6,1.1-2.8,1.1
		c-1.7,0-2.8-1-3.5-2.9c-1,1.1-1.9,1.9-2.7,2.3C736.4,1361.4,735.5,1361.6,734.4,1361.6z M739.9,1356.8v-6.9
		c-0.6,0.2-1.4,0.6-2.5,0.9c-2,0.7-3.4,1.4-3.9,2.1c-0.6,0.7-0.9,1.6-0.9,2.8c0,1,0.3,1.9,0.9,2.6c0.6,0.7,1.3,1.1,2.2,1.1
		c0.8,0,1.6-0.2,2.4-0.7C739,1358.2,739.6,1357.6,739.9,1356.8z"/>
	<path class="st13" d="M757.1,1340.6v1c-1.3,0.1-2,0.7-2,1.7c0,0.5,0.2,1.1,0.5,1.8l4.6,10.9l4-10.4c0.4-1,0.6-1.8,0.6-2.4
		c0-1-0.9-1.6-2.6-1.8v-1h7.5v1c-1.2,0.1-2.1,0.4-2.6,0.7c-0.5,0.4-0.9,1.1-1.4,2.2l-6.6,16.9h-1l-6.5-16c-0.7-1.6-1.2-2.6-1.7-3.1
		c-0.5-0.4-1.4-0.7-2.6-0.8v-1H757.1z"/>
	<path class="st13" d="M777,1361.6c-1.6,0-3-0.5-4.1-1.6c-1.1-1.1-1.7-2.3-1.7-3.8c0-1.4,0.5-2.6,1.5-3.5s3-1.8,6-2.7
		c1.9-0.5,3.2-1,3.8-1.4v-1.5c0-1.5-0.4-2.7-1.2-3.6c-0.8-0.9-1.9-1.4-3.3-1.4c-1.3,0-2.4,0.4-3.4,1.2c-1,0.8-1.7,1.9-2.1,3.2
		l-1-0.3c0.4-1.9,1.3-3.4,2.7-4.6c1.4-1.1,3-1.7,4.9-1.7c2.2,0,4,0.7,5.3,2c1.4,1.3,2,3.2,2,5.5v8.8c0,1.2,0.1,2.1,0.2,2.5
		c0.2,0.4,0.5,0.7,0.9,0.7c0.3,0,0.5-0.1,0.7-0.4c0.2-0.3,0.4-0.8,0.6-1.6h1c-0.1,1.3-0.5,2.3-1.2,3s-1.6,1.1-2.8,1.1
		c-1.7,0-2.8-1-3.5-2.9c-1,1.1-1.9,1.9-2.7,2.3S778.1,1361.6,777,1361.6z M782.5,1356.8v-6.9c-0.6,0.2-1.4,0.6-2.5,0.9
		c-2,0.7-3.4,1.4-3.9,2.1c-0.6,0.7-0.9,1.6-0.9,2.8c0,1,0.3,1.9,0.9,2.6c0.6,0.7,1.3,1.1,2.2,1.1c0.8,0,1.6-0.2,2.4-0.7
		C781.6,1358.2,782.2,1357.6,782.5,1356.8z"/>
	<path class="st13" d="M802.8,1360h0.5v1h-11.4v-1h1c1.1,0,1.8-0.3,2.1-0.8s0.6-1.6,0.6-3v-27c0-1.1-0.2-1.8-0.6-2.2
		c-0.4-0.4-1.1-0.6-2.1-0.6h-1.3v-1l7.1-0.7h1v32.4c0,1.1,0.2,1.9,0.7,2.3C800.7,1359.8,801.6,1360,802.8,1360z"/>
	<path class="st13" d="M812,1361.6c-1.6,0-3-0.5-4.1-1.6c-1.1-1.1-1.7-2.3-1.7-3.8c0-1.4,0.5-2.6,1.5-3.5s3-1.8,6-2.7
		c1.9-0.5,3.2-1,3.8-1.4v-1.5c0-1.5-0.4-2.7-1.2-3.6c-0.8-0.9-1.9-1.4-3.3-1.4c-1.3,0-2.4,0.4-3.4,1.2c-1,0.8-1.7,1.9-2.1,3.2
		l-1-0.3c0.4-1.9,1.3-3.4,2.7-4.6c1.4-1.1,3-1.7,4.9-1.7c2.2,0,4,0.7,5.3,2c1.4,1.3,2,3.2,2,5.5v8.8c0,1.2,0.1,2.1,0.2,2.5
		c0.2,0.4,0.5,0.7,0.9,0.7c0.3,0,0.5-0.1,0.7-0.4c0.2-0.3,0.4-0.8,0.6-1.6h1c-0.1,1.3-0.5,2.3-1.2,3s-1.6,1.1-2.8,1.1
		c-1.7,0-2.8-1-3.5-2.9c-1,1.1-1.9,1.9-2.7,2.3S813.1,1361.6,812,1361.6z M817.5,1356.8v-6.9c-0.6,0.2-1.4,0.6-2.5,0.9
		c-2,0.7-3.4,1.4-3.9,2.1c-0.6,0.7-0.9,1.6-0.9,2.8c0,1,0.3,1.9,0.9,2.6c0.6,0.7,1.3,1.1,2.2,1.1c0.8,0,1.6-0.2,2.4-0.7
		C816.6,1358.2,817.2,1357.6,817.5,1356.8z"/>
</g>
<g class="st12">
	<path class="st14" d="M278.7,460c-6.6,1.1-13.4,2.4-20.1,3.3c-8.1,1.1-16.2,2.2-24.3,3.3c-1.3,0.2-1.8,0.6-2.2,2
		c-4.8,17.1-8.5,34.6-11.2,52.1c-3.3,19.3-5.9,38.5-8.6,57.8c-0.2,0.6-0.2,1.3-0.4,2c-0.6,1.3-1.5,2.2-3.1,2
		c-1.5-0.2-2.4-0.9-2.6-2.6c-0.2-0.7-0.2-1.7,0-2.4c2.9-25,6.8-49.9,11.8-74.5c2.4-11.4,5.2-22.6,7.7-33.9c0-0.4,0-0.9,0-1.5
		c-5.3,0.7-10.7,1.5-16.2,2c-7.9,0.9-15.8,1.7-23.7,2.4c-1.5,0-3.1,0-4.6-0.4c-1.8-0.2-2.9-1.5-2.9-3.1c0-1.5,1.1-2.8,2.9-3.1
		c2.2-0.4,4.6-1.1,6.8-0.7c11,1.5,21.5-1.7,32.2-2.4c2-0.2,4.2-0.7,6.4-0.9c0.9,0,1.3-0.6,1.7-1.5c0.9-2.8,2-5.7,3.1-8.5
		c0.4-1.1,0.9-2,1.5-2.9c2.2-3.1,5.2-4.2,8.6-3.1c2.8,0.9,5.7,2,8.5,3.1c5.5,2,11,3.3,16.9,3.7c3.9,0.2,7.5,0.4,11.2,0.6
		c3.3,0.2,4.8,1.3,5,3.5C283.3,458.2,281.8,459.6,278.7,460z M256.9,457.4c-0.9-0.6-1.8-0.7-2.8-1.1c-4.6-1.7-9.4-3.1-14-5
		c-1.1-0.4-2-0.2-2.4,0.9c-1.3,2.6-2.2,5.2-3.5,8.3C242.2,459.5,249.6,458.4,256.9,457.4z"/>
	<path class="st14" d="M294.8,539.3c2.6-3.3,4.4-9,7.4-8.3c1.5,0.4,1.3,2.8,0.6,4.4c-1.7,4-5.2,9.4-8.5,12.5c-0.7,0.7-2,1.5-3.1,1.5
		c-3.1,0.6-5.3-1.3-7-3.7c-2.6-3.9-3.5-8.3-4.2-12.9c-0.7-5.9-1.3-11.8-2-17.7c-0.2-1.8-0.7-3.5-1.1-5.3c-0.4,0-0.6-0.2-0.7-0.2
		c-0.9,1.1-1.8,2-2.6,3.1c-4,5.3-7,11.2-9.4,17.3c-3.7,9.4-6.8,19-10.3,28.3c-0.4,1.3-0.9,2.6-1.7,3.7c-0.7,1.3-1.8,2-3.5,1.7
		s-2.4-1.5-2.4-2.9c-0.2-2.4-0.2-4.6-0.2-6.8c1.1-22.3,2.8-44.4,5.9-66.6c0-0.7,0-1.3-0.9-1.8c-1.3-0.7-1.3-2.2-1.5-3.5
		c-0.9-8.5,0.9-16.6,3.9-24.5c1.5-3.9,2.9-7.7,4.6-11.4c0.2-0.6,0.4-0.9,0.7-1.3c0.7-1.1,1.7-1.7,2.9-1.3c1.3,0.2,2.2,1.1,2.2,2.4
		c0,1.7-0.2,3.3-0.4,4.8c-5.9,30.5-9.4,61.5-11.2,92.4c0,0.2,0,0.4,0.4,0.6c0.2-0.6,0.4-1.1,0.6-1.7c3.3-9.6,7.2-18.8,12.3-27.6
		c1.5-2.4,3.3-4.8,5-7c0.4-0.7,1.1-1.3,1.7-1.8c3.7-2.9,7.9-2,9.6,2.2c1.1,3.3,1.7,6.8,2.2,10.1c0.9,6.3,1.7,12.5,2.6,18.8
		c0.4,1.5,0.7,2.9,1.5,4.2c0.4,0.6,1.1,1.8,2.2,3.1C292.1,543.2,293.9,540.8,294.8,539.3z"/>
	<path class="st14" d="M332.2,519.8c-0.2,1.1-1.1,2.6-2,3.1c-2.2,1.1-3.9-1.1-3.5-4c0.4-2.4,0.4-4.8,0.6-7.2c0-0.4,0-0.6-0.2-1.1
		c-0.7,0.6-1.5,0.9-2,1.5c-3.3,3.1-5.9,7.2-8.1,11.4c-4.8,8.6-7.7,18-10.5,27.4c-0.9,2.9-1.8,5.9-2.8,8.8c-0.2,0.9-0.7,1.8-1.1,2.8
		c-0.7,1.3-1.8,2-3.3,1.7c-1.3-0.2-2-1.3-2.2-2.8c-0.2-1.1-0.2-2.6-0.2-3.7c0.9-7.2,1.8-14.2,2.8-21.2c0,0,0.4-4.4,0.7-6.8
		c0.2-0.6,0.2-0.9,0.2-1.5c0.4-2.4,0.7-4.8,1.3-7.2c0-0.4,0.2-0.7,0.2-1.3c0.9-5,1.8-9.9,2.6-14.9c0.2-1.3,0.7-2.4,1.3-3.5
		c0.7-1.3,1.8-1.8,3.3-1.7c1.3,0.4,2.4,1.7,2.2,3.1c-0.4,2.6-0.2,5.5-1.3,7.5c-1.3,2.6-2.2,9-2.4,9.9c-0.7,4.2-2.2,14.2-2,14.2
		c0.6-1.7,1.1-3.1,1.8-4.8c2.6-6.4,5.7-12.7,9.9-18c1.8-2.4,4-4.6,6.4-6.4c4.4-3.3,8.3-1.3,8.8,4.4
		C333.1,513,332.8,516.5,332.2,519.8z"/>
	<path class="st14" d="M376,536.6c-0.6,1.1-1.7,1.8-2.4,2.6c-3.5,3.5-7.2,6.6-10.9,9.6c-4.2,3.1-8.5,6.3-13.3,8.1
		c-6.8,2.6-12.7-0.9-13.8-8.1c-0.4-1.5-0.6-2.9-0.4-4.4c0-0.9,0.2-1.7,0.2-2.6c0-0.7-0.2-1.7-0.4-2.2c-0.4-1.3-0.2-2.4,0.6-3.5
		c0.7-1.1,1.5-2.2,1.8-3.5c1.8-6.1,4-12,7.4-17.5c1.3-2.2,2.9-4.4,5-6.1c2.6-2.2,6.3-1.5,7.4,1.5c0.6,1.3,0.7,3.1,0.2,4.4
		c-0.6,2.2-1.5,4.2-2.8,6.1c-3.5,5-7.2,9.9-10.9,14.7c-1.1,1.5-2.2,2.8-2.2,4.6c-0.2,2.6-0.6,5.2-0.2,7.5c0.4,3.7,2.9,5.2,6.3,3.7
		c9.2-4.4,17.1-11.6,24.5-18.4c1.1-1.1,2.9-3.1,4.2-1.5C377.1,533.3,376.9,535.1,376,536.6z"/>
	<path class="st14" d="M395.3,508.8c0.9-1.7,2.4-2.4,3.9-1.7c1.5,0.6,2,2,1.5,3.9c-2.4,8.5-3.9,16.9-4.8,25.6
		c-0.2,2.2-0.2,4.6-0.2,6.8c0,1.1-0.6,7.4,1.1,7.4c1.5,0.2,10.9-12,16.9-19.9c0.6-0.7,1.3-1.5,2-2c1.3-1.1,2.9-0.9,3.9,0.2
		c0.9,1.1-0.4,3.5-1.1,4.8c-1.1,1.5-6.8,8.5-9.9,12.7c-2,2.8-4.4,5-6.6,7.5c-0.9,0.9-2,1.7-3.1,2.4c-2.8,1.7-5.7,0.9-7.2-2
		c-0.9-1.7-1.3-3.9-1.7-5.9c-0.7-5.5,0.2-11.2,0.7-16.7c0-0.4,0-0.6-0.2-0.9c-0.2,0.6-0.6,0.9-0.7,1.5c-2.8,5.3-5.5,10.7-9.4,15.3
		c-1.3,1.7-2.9,3.1-4.8,4.4c-3.5,2.4-7.4,0.6-7.7-3.9c-0.2-2.2,0.2-4.6,0.7-6.8c2.2-8.8,5.5-17.5,11.2-24.8c0.9-1.1,2-2.2,3.1-3.1
		c3.3-2.6,6.4-2.8,10.3-0.6C394,511.4,394.8,510.1,395.3,508.8z M375.6,544.5c6.1-7.4,9.8-16,13.8-24.5c0.9-1.7-1.1-3.9-2.8-2.2
		c-1.5,1.5-3.1,3.1-4.4,5c-3.9,6.1-6.3,12.7-8.1,19.5c-0.2,0.9-0.6,2-0.6,2.9c0,0.4,0,0.6,0.2,0.7
		C374.2,546.5,375.1,545.2,375.6,544.5z"/>
	<path class="st14" d="M464.7,449.7c-0.2,2.6-0.4,5.2-1.1,7.7c-2.4,7.7-4.6,15.5-7.4,23c-2.8,7.2-4.6,14.7-5.7,22.3
		c-2.4,15.5-4.6,30.7-6.4,46c-1.5,11.4-2,22.8-1.1,34.2c0.2,1.3,0.4,2.8,0.6,4.2c0.4-0.2,0.6-0.4,0.7-0.6c0.9-0.2,2.2-0.7,2.9-0.4
		c0.7,0.4,1.7,1.5,1.7,2.4c0,2.8-0.7,5.5-2.4,7.7c-1.7,2.6-5.2,2.2-6.3-0.6c-1.3-2.8-2-5.7-2.4-8.5c-1.5-9.6-1.3-19-0.4-28.5
		c1.3-13.6,3.1-27.1,4.6-40.7c0-0.4,0-0.7-0.2-1.1c-0.4,0.6-0.6,1.3-0.9,1.8c-3.9,7.7-7.5,15.8-11.8,23.6c-1.8,3.1-4.4,6.1-7,8.8
		c-2,2-4.4,3.1-7.4,1.8c-3.7-1.7-2.4-10.3-2.4-10.3c2.2-12.1,5.7-22.5,12.1-32.9c0.9-1.5,2-2.8,3.3-4c4-4.4,7.9-4.6,12.3-0.2
		c0.4-0.6,0.6-0.9,0.7-1.5c1.8-4.6,3.9-9,5.3-13.8c1.7-5,2.6-10.1,3.9-15.3c1.8-7.4,3.9-14.7,5.9-21.9c0.4-1.8,1.3-3.7,2.2-5.3
		c1.1-1.7,2.6-2.2,4-1.8S464.9,447.9,464.7,449.7z M436,509.9c-0.9-2-2-2.4-3.5-0.7c-1.7,1.8-3.1,3.7-4.4,5.9
		c-4.4,7.5-7.4,15.8-9.4,24.5c-0.2,0.7-2,7.7-0.7,7.9c0.6,0,1.7-1.5,2-1.8c1.5-1.8,2.8-3.7,4-5.5c4.8-7.7,8.5-16,12.1-24.3
		C437.1,513.7,436.9,511.9,436,509.9z"/>
	<path class="st14" d="M498.2,535.1c3.9-20.8,11-40.3,22.8-58.2c4.2-6.6,9.2-12.9,15.5-17.9c3.3-2.8,6.8-5,10.9-5.7
		c6.8-1.5,12.3,2,14.2,8.6c1.3,5.2,0.7,10.1,0,15.3c-1.5,8.8-4.4,17.1-9,24.7c-0.7,1.3-1.8,2.4-3.1,3.1c-1.3,0.9-3.1,0.2-3.9-1.1
		c-0.7-1.3-0.4-2.6,0.9-3.7c0.6-0.4,0.9-0.7,1.3-1.3c5.5-9.8,8.8-20.1,8.8-31.3c0-2-0.6-4-1.3-5.7c-0.7-2.4-2.9-3.5-5.5-3.3
		c-2.6,0.2-4.8,1.3-6.8,2.8c-5.3,3.5-9.6,8.1-13.3,13.1c-9.8,12.9-16.4,27.2-21.2,42.7c-4,12.5-6.6,25.4-7,38.6
		c-0.2,6.8,0.2,13.6,2.9,19.9c4.2,9.8,13.6,13.3,23.2,8.7c6.3-3.1,10.7-8.5,14.4-14.2c2.2-3.5,4-6.8,5.2-10.7c0.2-0.9,1.3-1.8,2-2.2
		c1.3-0.6,2.4,0,3.1,1.1c0.6,0.7,1.1,1.5,1.5,2.4c0.6,1.3,0,2.6-1.3,3.5c-0.7,0.4-1.3,1.1-1.7,1.8c-3.5,7.2-7.7,13.6-13.8,18.8
		c-5.2,4.2-10.9,7.2-17.5,7c-9.2,0-15.6-4.6-19.7-12.7c-2-4-3.1-8.5-3.7-12.9C495.1,555.9,496.2,545.4,498.2,535.1z"/>
	<path class="st14" d="M594.6,521.7c-2.9,6.1-5.5,12-8.6,17.9c-1.8,3.5-4.4,6.8-6.8,9.9c-0.9,1.3-2.4,2.4-3.7,3.3
		c-4.6,3.3-9.4,1.7-11.2-3.7c-0.2-0.7-0.4-1.5-0.6-2c-0.2-1.1-0.4-1.7-1.5-2.2c-1.3-0.6-2-2.6-0.9-3.5c2.6-2.9,2.2-6.4,2.9-9.8
		c0.9-3.9,2-7.5,3.1-11.2c0.4-1.3,1.5-2.6,2.4-3.5c1.1-1.5,2.9-2,4.6-1.3c1.8,0.7,2.8,2.2,2.8,4c0,1.5-0.2,3.1-0.7,4.4
		c-2,4.8-4.2,9.6-6.4,14.4c-1.7,3.3-1.1,6.3,0,9.4c0.4,1.1,1.3,1.1,2,0.6c1.3-1.3,3.1-2.6,4-4c2.9-4.8,5.9-9.4,8.5-14.4
		c4.2-8.5,8.1-17.1,12.3-25.6c0.7-1.5,1.5-2.8,2.4-4.2c0.9-1.3,2-2,3.7-1.8c1.7,0.4,2.8,1.7,2.8,3.1c0.2,2.6,0.2,5.2,0.2,7.5
		c-0.2,2.6-0.6,5.2-0.7,7.5c-0.2,0.7-0.2,1.3,0.2,1.8c0.2-0.4,0.6-0.9,0.7-1.3c4.2-8.5,9.2-16.4,16.4-22.6c1.7-1.5,3.3-2.6,5.2-3.7
		c2-1.1,4-1.1,5.7,0.6c1.8,1.5,2.2,3.5,1.5,5.7c-0.6,2-1.7,3.1-3.3,2.9c-1.5-0.2-2.2-1.1-2.6-3.5c-1.1,0.9-2,1.7-2.9,2.6
		c-5,4.4-8.8,9.8-12.1,15.6c-5.5,9.8-9.9,20.2-12.3,31.3c-1.3,5.7-1.8,11.6-2.8,17.3c0,0.6-0.2,1.1-0.4,1.5c-0.6,1.3-1.5,2-2.9,1.8
		c-1.3-0.2-2.4-0.9-2.4-2.2c-0.2-2.2-0.2-4.6,0.2-6.8c1.3-8.1,2.8-16.4,4-24.5c1.1-7.2,1.8-14.5,2.8-21.7c-0.2,0-0.4,0-0.6,0
		C597.8,514.9,596.3,518.2,594.6,521.7z"/>
	<path class="st14" d="M671.7,536.6c-0.6,1.1-1.7,1.8-2.4,2.6c-3.5,3.5-7.2,6.6-10.9,9.6c-4.2,3.1-8.5,6.3-13.3,8.1
		c-6.8,2.6-12.7-0.9-13.8-8.1c-0.4-1.5-0.6-2.9-0.4-4.4c0-0.9,0.2-1.7,0.2-2.6c0-0.7-0.2-1.7-0.4-2.2c-0.4-1.3-0.2-2.4,0.6-3.5
		c0.7-1.1,1.5-2.2,1.8-3.5c1.8-6.1,4-12,7.4-17.5c1.3-2.2,2.9-4.4,5-6.1c2.6-2.2,6.3-1.5,7.4,1.5c0.6,1.3,0.7,3.1,0.2,4.4
		c-0.6,2.2-1.5,4.2-2.8,6.1c-3.5,5-7.2,9.9-10.9,14.7c-1.1,1.5-2.2,2.8-2.2,4.6c-0.2,2.6-0.6,5.2-0.2,7.5c0.4,3.7,2.9,5.2,6.3,3.7
		c9.2-4.4,17.1-11.6,24.5-18.4c1.1-1.1,2.9-3.1,4.2-1.5C672.8,533.3,672.7,535.1,671.7,536.6z"/>
	<path class="st14" d="M720.9,535.1c-3.1,5.2-6.1,10.3-9.2,15.5c-1.1,1.7-2,3.5-3.1,5c-1.7,2.2-3.3,2.9-5,2.4
		c-1.8-0.6-2.9-2.2-2.8-4.8c0.4-4.2,0.7-8.3,1.3-12.3c1.5-10.1,3.3-20.1,5-30c0.2-1.5,0.2-4.2-0.2-4.8c-0.9,0.7-1.3,1.5-3.5,3.9
		c-6.6,7.4-11.8,15.8-16.4,24.7c-2.9,5.9-6.1,11.8-9,17.7c-0.9,1.7-2,3.1-2.9,4.8c-0.6,0.7-1.3,1.5-2,2.2c-2.6,2.4-5.9,1.5-6.6-2
		c-0.4-1.8-0.4-3.7-0.4-5.5c0.7-8.5,1.7-16.9,2.4-25.4c0.4-4.4,0.9-8.8,1.3-13.3c0.2-1.1,0.4-2.4,0.9-3.3c0.7-1.8,2.8-2.6,4.2-1.7
		c1.7,0.9,2,2.9,1.1,4.6c-0.4,0.6-0.6,1.1-0.7,1.7c-1.1,12-2.2,23.7-3.5,35.7c0,0.2,0,0.6,0.4,0.9c0.2-0.6,0.6-0.9,0.9-1.5
		c3.9-7.5,7.7-15.1,11.8-22.6c4.6-8.5,9.9-16.4,16.6-23.2c1.3-1.3,2.6-2.4,3.9-3.1c3.3-2,6.8-0.6,7.4,3.3c0.4,2.9,0.4,6.1-0.2,9.2
		c-1.3,8.6-2.8,17.3-4.2,25.9c-0.6,2.6-0.9,5.2-0.9,7.7c0.2-0.4,0.6-0.7,0.7-1.3c3.3-5.2,6.3-10.3,9.6-15.5c1.3-2,2.9-3.7,4.6-5.3
		c0.6-0.7,1.3-1.3,2-1.8c2.8-1.8,5.9-0.7,6.6,2.4c0.6,2.6,0.7,5.2,0.7,7.7c-0.2,5.2-0.7,10.3-0.9,15.6c0,3.9,0.4,7.7,0.6,11.6
		c0,0.7,0.6,1.5,0.9,2.2c1.1,1.5,0.9,3.7-0.6,5c-1.7,1.3-4,0.7-4.8-1.7c-0.9-3.3-1.7-6.8-1.7-10.3c-0.2-6.3,0.4-12.7,0.6-19
		c0.2-2.4,0.2-7.5-0.4-7.4C723.8,531,722.3,532.9,720.9,535.1z"/>
	<path class="st14" d="M781.6,527c0,0.7-0.6,1.7-1.1,2.2c-0.6,0.4-4.6,1.1-5.5,1.1c-5.9,0.2-8.5,0.2-11.4-0.7
		c-0.2,3.1-0.4,6.1-0.7,9c-1.3,8.1-4.2,15.6-10.3,21.7c-1.5,1.5-3.5,2.6-5.3,3.5c-3.3,1.3-6.4,0.2-8.3-2.9c-1.8-3.1-2-6.6-1.8-10.1
		c0.4-8.1,2.6-15.6,5-23.4c1.1-3.7,2.6-7.4,3.9-11c0.2-0.7,0.2-1.3,0.2-2c-0.4-2.4-1.1-4.6-1.3-7c-0.4-3.9,2.6-5.9,6.1-4.2
		c5.2,2.2,8.5,6.3,10.3,11.6c0.9,2.6,1.3,5.3,1.8,8.1c0.2,0.6,0.2,1.3,0.4,2.2c4.8,1.1,12.7,0.4,13.3,0.2c1.1,0,2.4-0.2,3.5-0.2
		C781,525.2,781.8,526.1,781.6,527z M755.3,526.6c-2.2-0.9-4-2.9-6.1-4.6c-2.9,9.2-6.1,18.4-6.8,28.2c0,2.4,0.2,4.6,0.7,6.8
		c0.4,2.2,1.7,2.6,3.3,1.3c2-1.5,3.9-3.3,5.2-5.3c4.6-6.3,6.1-13.4,6.6-21C758.4,529.4,757.9,527.7,755.3,526.6z M757.7,521.8
		c-0.6-2.2-1.1-4.2-1.8-6.3c0-0.2-0.4-0.4-0.6-0.4c-0.9-0.2-1.7-0.4-2.6-0.6C751.8,516.1,754.4,520.4,757.7,521.8z"/>
	<path class="st14" d="M805.2,518.3c-9,10.1-16.6,21.2-22.1,33.7c-0.9,2-1.8,4-2.8,6.1c-0.6,0.7-0.9,1.5-1.5,2.2
		c-0.9,1.3-2.2,2.2-3.9,1.8c-1.8-0.4-2.8-1.7-2.8-3.3c-0.2-2.8-0.4-5.5,0.2-8.1c1.8-8.7,4-17.1,6.3-25.6c0.2-1.1,0.6-2.2,0.9-3.3
		c0.4-1.3,0.7-2.6-0.2-3.9c-0.4-0.6-0.2-1.7,0.2-2.4c1.1-3.5,2.4-7,3.7-10.5c0.7-1.8,2.2-2.6,3.7-2c1.5,0.4,2.6,1.8,2,3.7
		c-1.8,7.7-3.9,15.3-5.7,23c-1.3,5.2-2.8,10.3-4,15.5c-0.2,0.6-0.4,1.3-0.2,2c0.2-0.6,0.6-1.1,0.7-1.5c6.1-12.1,13.6-23.2,23-32.9
		c0.9-1.1,2.2-2.2,3.3-2.9c2.8-1.7,5.7-0.6,6.3,2.6c0.6,2.4,0.6,5,0.2,7.5c-0.6,5.9-1.7,11.8-2.2,17.7c-0.2,1.7,0,3.5,0.2,5.3
		c0.2,2,0.4,4,1.1,5.9c4.6-3.1,8.5-8.6,11.4-13.1c0.6-0.9,1.1-1.8,1.7-2.6c2-3.1,3.5-3.5,4.8-2.6c1.3,0.9,1.1,3.9,0,5.5
		c-3.1,4.6-5,7.5-8.5,11.8c-1.7,2-3.3,3.1-5.2,4.8c-3.9,3.1-7.9,2-9.8-2.6c-1.8-4.4-1.8-9-1.5-13.6c0.6-5.9,1.7-11.6,2.4-17.5
		c0-0.7,0-2-0.2-2.4C806.3,517.2,805.7,517.8,805.2,518.3z"/>
	<path class="st14" d="M865.9,513.4c-5.2,6.3-10.1,12.7-15.5,18.8c-3.3,3.9-7,7.5-10.9,11.2c-1.8,1.8-4,3.1-6.8,3.5
		c-3.7,0.6-6.6-1.3-7.5-5.2c-0.7-3.3-0.4-6.4,0.2-9.8c0.4-2,0.9-4.2,1.5-6.4c0-0.4,0-1.1-0.2-1.3c-1.5-1.3-1.5-2.9-0.9-4.4
		c1.5-3.3,2.8-6.6,4.4-9.9c1.7-3.7,3.7-7.2,5.5-10.7c1.1-2,2.6-2.8,4.2-2c1.5,0.7,2,2.4,1.1,4.4c-4.8,9.9-7.9,20.4-9.9,31.1
		c-0.4,2.4-0.4,4.8-0.4,7c0,1.7,0.7,2.2,2.2,1.3c2.2-1.5,4.6-2.9,6.4-5c4.4-4.8,8.5-10.1,12.7-15.1c3.9-4.4,7.5-8.8,11.4-13.3
		c1.3-1.3,2.8-2.6,4.2-3.5c2.9-1.8,6.1-0.7,6.8,2.6c0.6,2.9,0.6,6.1,0.4,9.2c-0.6,8.5-2,16.7-3.9,25c-0.2,0.6-0.7,2.2-0.9,3.1
		c0.6-0.6,15.3-9.9,19.3-12.9c0.7-0.4,1.5-0.7,2-1.1c1.7-0.6,3.1-0.2,4,0.9c0.7,1.1,0.7,2.8-0.4,4c-0.7,0.7-1.7,1.3-2.8,1.8
		c-0.9,0.6-2.2,0.7-3.1,1.5c-5.5,4-15.5,10.1-20.2,15.1c-0.7,0.7-1.3,2-1.7,3.1c-5.7,20.8-12.1,36.8-19.7,57.1
		c-1.1,2.8-2.4,5.3-3.9,8.1c-0.7,1.1-1.7,2.4-2.8,3.3c-2,1.7-5,1.1-6.1-1.5c-0.6-1.3-0.7-2.6-0.9-4c-0.4-10.1,1.3-18.6,4.4-28.2
		c4.8-13.6,11.4-23,20.4-34.4c2.6-3.5,4.4-7,5.3-11.4c2.4-10.9,4.6-21.9,5.2-33.1c0-0.7,0-1.5,0-2c0-0.2-0.2-0.2-0.4-0.2
		C867.9,511.2,866.8,512.3,865.9,513.4z M839.9,617c7.4-17.5,12.3-30.9,18-48.8C846.7,584,839.9,596.9,839.9,617z"/>
</g>
<g class="st12">
	<path class="st15" d="M386.8,718.4h-3.3v11.2c0,2.4,0.3,4.1,1,5.1c0.7,1,1.9,1.4,3.6,1.4v1.2h-14.7v-1.2c1.8,0,3-0.5,3.7-1.4
		c0.6-1,1-2.6,1-5.1V704c0-2.4-0.3-4.1-0.9-5c-0.6-0.9-1.9-1.4-3.7-1.4v-1.2h16.7c4.1,0,7.4,1,9.9,3c2.5,2,3.7,4.6,3.7,7.7
		c0,5-2.8,8.4-8.4,10c1.2,0.8,2.4,1.9,3.6,3.3c1.2,1.4,2.7,3.7,4.6,6.9c2.1,3.6,3.8,5.9,5,7c1.2,1.1,2.5,1.7,3.7,1.8v1.2H404
		c-1.7-2.1-3.8-5.1-6.2-9.1c-2.6-4.2-4.6-6.9-6.1-8.1S388.5,718.4,386.8,718.4z M387.7,698h-4.3v18.7h5c3,0,5.3-0.9,7.1-2.6
		c1.7-1.7,2.6-4,2.6-6.8c0-2.8-0.9-5-2.8-6.7C393.3,698.9,390.8,698,387.7,698z"/>
	<path class="st15" d="M422.8,711.3h1.2v21.3c0,1.4,0.3,2.3,0.9,2.8c0.6,0.5,1.7,0.7,3.3,0.7v1.2h-13.8v-1.2c2,0,3.3-0.2,3.9-0.7
		c0.6-0.5,0.9-1.4,0.9-2.8v-15.5c0-1.5-0.3-2.5-0.8-3c-0.5-0.5-1.9-0.7-4-0.7v-1.2L422.8,711.3z M421.7,698.3c0.9,0,1.6,0.3,2.2,0.9
		s0.9,1.3,0.9,2.2c0,0.9-0.3,1.6-0.9,2.2s-1.3,0.9-2.2,0.9c-0.9,0-1.6-0.3-2.2-0.9c-0.6-0.6-0.9-1.4-0.9-2.2c0-0.9,0.3-1.6,0.9-2.2
		C420,698.6,420.8,698.3,421.7,698.3z"/>
	<path class="st15" d="M448.4,711.3v7.8H447c-0.2-2-0.9-3.5-2.1-4.6c-1.2-1.1-2.6-1.7-4.2-1.7c-1.3,0-2.3,0.3-3,0.9
		s-1.1,1.5-1.1,2.5c0,1,0.4,1.9,1.1,2.7c0.7,0.8,2.2,1.7,4.6,2.8c3.1,1.4,5.1,2.7,6.1,4c1,1.3,1.5,2.8,1.5,4.6
		c0,2.1-0.8,3.9-2.4,5.5c-1.6,1.5-3.4,2.3-5.6,2.3c-1.1,0-2.6-0.4-4.4-1.2c-1-0.4-1.7-0.7-2-0.7c-0.4,0-0.8,0.2-1.1,0.5
		c-0.3,0.3-0.5,0.7-0.5,1.2h-1.2v-8.6h1.2c0.4,2.3,1.4,4.1,2.9,5.4c1.5,1.3,3.2,2,5.2,2c1.3,0,2.3-0.4,3.2-1.3
		c0.8-0.8,1.3-1.9,1.3-3.1c0-1.2-0.4-2.2-1.2-3.1c-0.8-0.9-2.5-1.9-5.1-3c-2.9-1.3-4.8-2.5-5.8-3.6c-0.9-1.1-1.4-2.5-1.4-4
		c0-2,0.8-3.7,2.3-5.1s3.3-2.1,5.4-2.1c1,0,2,0.2,3.2,0.7c0.8,0.3,1.5,0.5,2,0.5c0.7,0,1.2-0.4,1.5-1.2H448.4z"/>
	<path class="st15" d="M473.9,732v-12.5c0-1.7-0.5-3-1.4-4c-0.9-1-2.2-1.5-3.7-1.5c-1.4,0-2.7,0.4-3.8,1.1s-2.3,2-3.5,3.7v13.9
		c0,1.3,0.3,2.2,0.9,2.7c0.6,0.5,1.7,0.7,3.3,0.7v1.2h-13.5v-1.2c1.9,0,3.2-0.4,3.7-0.9c0.5-0.6,0.8-1.9,0.8-3.9v-32.9
		c0-1.5-0.3-2.5-0.8-3c-0.5-0.5-1.8-0.8-3.7-0.8v-1.2l8.1-0.9h1.2v23.9c1.6-1.9,3.1-3.2,4.4-3.9c1.3-0.8,2.8-1.1,4.4-1.1
		c2.5,0,4.5,0.8,6.1,2.4c1.6,1.6,2.4,3.7,2.4,6.4v11.2c0,2,0.3,3.3,0.8,3.9c0.5,0.6,1.6,0.9,3.3,0.9v1.2h-13.1v-1.2
		c1.7,0,2.8-0.3,3.4-0.8C473.6,734.8,473.9,733.7,473.9,732z"/>
	<path class="st15" d="M492.8,703.5h1.2v8.5h8.8v1.8H494v16.3c0,1.7,0.4,3,1.2,3.9c0.8,0.9,1.9,1.4,3.4,1.4c1.7,0,3.3-0.8,4.7-2.4
		l0.8,0.9c-2.2,2.8-4.7,4.2-7.6,4.2c-2.2,0-3.9-0.7-5.3-2.1c-1.3-1.4-2-3.1-2-5.3v-16.9h-4.8v-1.2
		C487.9,710.8,490.7,707.8,492.8,703.5z"/>
	<path class="st15" d="M534.2,724.7c0,3.8-1.3,7-4,9.5s-5.9,3.8-9.9,3.8c-3.9,0-7.2-1.3-9.9-3.8c-2.6-2.5-4-5.7-4-9.5
		c0-3.9,1.3-7.1,3.9-9.6c2.6-2.5,5.9-3.8,9.9-3.8s7.3,1.3,9.9,3.8C532.9,717.7,534.2,720.9,534.2,724.7z M529,724.8
		c0-3.6-0.8-6.5-2.3-8.7c-1.5-2.2-3.6-3.3-6.3-3.3s-4.7,1.1-6.3,3.2s-2.3,5.1-2.3,8.8c0,3.6,0.8,6.5,2.3,8.7s3.6,3.2,6.3,3.2
		c2.7,0,4.8-1.1,6.3-3.3C528.2,731.2,529,728.3,529,724.8z"/>
	<path class="st15" d="M546.5,711.3v5c2.9-3.4,6-5,9.1-5c2.4,0,4.5,0.8,6.1,2.5s2.4,3.9,2.4,6.6v11.4c0,1.7,0.3,2.9,0.9,3.5
		c0.6,0.6,1.7,0.8,3.4,0.8v1.2H555v-1.2c1.7,0,2.8-0.2,3.4-0.6c0.6-0.4,0.9-1.3,0.9-2.5v-13.2c0-1.8-0.5-3.2-1.6-4.2
		c-1.1-1-2.4-1.6-4.1-1.6c-2.4,0-4.8,1.6-7.2,4.9v12.4c0,2.1,0.3,3.4,0.8,4c0.5,0.6,1.7,0.9,3.4,0.9v1.2h-13.3v-1.2
		c1.9,0,3.1-0.3,3.6-0.9c0.4-0.6,0.7-1.9,0.7-3.9V717c0-1.5-0.3-2.5-0.8-3c-0.5-0.5-1.7-0.7-3.4-0.7v-1.2l7.9-0.8H546.5z"/>
	<path class="st15" d="M606.7,716.4l-6.5,6l10.5,10.5c1.2,1.2,2.2,2,3,2.5s1.9,0.7,3.1,0.8v1.2h-8.3l-13.1-12.6
		c0,6.6,0.3,10.2,0.8,10.7c0.6,0.5,1.7,0.7,3.4,0.7v1.2h-13.6v-1.2c1.9,0,3.2-0.4,3.7-0.9s0.8-1.9,0.8-3.9V698
		c0-1.5-0.3-2.4-0.8-2.8c-0.5-0.4-1.8-0.6-3.7-0.6v-1.2l8.1-0.9h1.2v31.9l6.8-6.2c1.3-1.2,1.9-2.2,1.9-3.2c0-1.1-1-1.7-3.1-1.7v-1.2
		h13.8v1.2h-1.2C611.2,713.3,608.9,714.3,606.7,716.4z"/>
	<path class="st15" d="M626.1,711.3h1.2v21.3c0,1.4,0.3,2.3,0.9,2.8c0.6,0.5,1.7,0.7,3.3,0.7v1.2h-13.8v-1.2c2,0,3.3-0.2,3.9-0.7
		s0.9-1.4,0.9-2.8v-15.5c0-1.5-0.3-2.5-0.8-3c-0.5-0.5-1.9-0.7-4-0.7v-1.2L626.1,711.3z M625,698.3c0.9,0,1.6,0.3,2.2,0.9
		s0.9,1.3,0.9,2.2c0,0.9-0.3,1.6-0.9,2.2s-1.3,0.9-2.2,0.9c-0.9,0-1.6-0.3-2.2-0.9s-0.9-1.4-0.9-2.2c0-0.9,0.3-1.6,0.9-2.2
		S624.1,698.3,625,698.3z"/>
	<path class="st15" d="M675.2,692.5h1.2v39.9c0,1.4,0.3,2.4,0.9,2.9c0.6,0.5,1.7,0.8,3.3,0.8v1.2h-14.7c-4.5,0-8.1-1.2-10.7-3.7
		s-4-5.6-4-9.4c0-3.6,1.2-6.6,3.5-9.1c2.3-2.5,5.1-3.7,8.4-3.7c2.6,0,5.5,1,8.5,3.1v-15.5c0-1.7-0.2-2.8-0.7-3.4
		c-0.4-0.6-1.3-0.9-2.7-0.9h-1.4v-1.2L675.2,692.5z M671.5,732.3v-15.2c-1-1.3-2.1-2.4-3.4-3.1c-1.3-0.8-2.6-1.1-3.9-1.1
		c-2.3,0-4.2,0.9-5.6,2.8c-1.4,1.9-2.1,4.4-2.1,7.4c0,3.9,1,7.1,2.9,9.5c1.9,2.4,4.6,3.6,8.1,3.6c1.4,0,2.4-0.3,3.1-0.9
		C671.2,734.6,671.5,733.6,671.5,732.3z"/>
	<path class="st15" d="M711.9,724.7c0,3.8-1.3,7-4,9.5s-5.9,3.8-9.9,3.8s-7.2-1.3-9.9-3.8s-4-5.7-4-9.5c0-3.9,1.3-7.1,3.9-9.6
		s5.9-3.8,9.9-3.8s7.3,1.3,9.9,3.8C710.6,717.7,711.9,720.9,711.9,724.7z M706.6,724.8c0-3.6-0.8-6.5-2.3-8.7
		c-1.5-2.2-3.6-3.3-6.3-3.3s-4.7,1.1-6.3,3.2s-2.3,5.1-2.3,8.8c0,3.6,0.8,6.5,2.3,8.7s3.6,3.2,6.3,3.2c2.7,0,4.8-1.1,6.3-3.3
		C705.9,731.2,706.6,728.3,706.6,724.8z"/>
	<path class="st15" d="M724.9,711.3v5.5c2.3-2,4.1-3.4,5.4-4.2c1.3-0.8,2.4-1.2,3.2-1.2c1.6,0,3.1,0.7,4.6,2l-1.9,4.5
		c-2.7-1.5-4.7-2.2-6-2.2c-1.4,0-3.2,1-5.4,3.1v13.9c0,1.4,0.3,2.3,0.9,2.8c0.6,0.5,1.7,0.7,3.3,0.7v1.2h-13.3v-1.2
		c1.8,0,2.9-0.3,3.5-0.8c0.5-0.6,0.8-1.9,0.8-4v-13.8c0-1.7-0.3-2.9-0.9-3.4s-2-0.8-4.3-0.8v-1.2l8.8-0.8H724.9z"/>
	<path class="st15" d="M749.8,711.3h1.2v21.3c0,1.4,0.3,2.3,0.9,2.8c0.6,0.5,1.7,0.7,3.3,0.7v1.2h-13.8v-1.2c2,0,3.3-0.2,3.9-0.7
		c0.6-0.5,0.9-1.4,0.9-2.8v-15.5c0-1.5-0.3-2.5-0.8-3c-0.5-0.5-1.9-0.7-4-0.7v-1.2L749.8,711.3z M748.7,698.3c0.9,0,1.6,0.3,2.2,0.9
		s0.9,1.3,0.9,2.2c0,0.9-0.3,1.6-0.9,2.2s-1.3,0.9-2.2,0.9c-0.9,0-1.6-0.3-2.2-0.9c-0.6-0.6-0.9-1.4-0.9-2.2c0-0.9,0.3-1.6,0.9-2.2
		C747,698.6,747.8,698.3,748.7,698.3z"/>
</g>
<g class="st12">
	<path class="st15" d="M195.5,776.6h1.2v22.6c1.1-1.2,2.4-2.1,3.9-2.8c1.5-0.7,3.1-1,4.6-1c3.3,0,6.1,1.2,8.3,3.6
		c2.3,2.4,3.4,5.3,3.4,8.8c0,4.1-1.5,7.4-4.6,10c-3.1,2.6-7.3,3.9-12.6,3.9c-2.1,0-4.7-0.3-7.8-0.8V783c0-2-0.2-3.2-0.7-3.7
		c-0.5-0.5-1.7-0.7-3.7-0.7v-1.2L195.5,776.6z M196.7,801v14.4c0,1.9,0.3,3.2,1,3.9c0.6,0.7,1.8,1,3.3,1c3.3,0,5.9-1.1,7.8-3.2
		c1.9-2.1,2.9-5.1,2.9-8.9c0-3.2-0.8-5.8-2.5-7.8s-3.6-3-5.9-3C200.8,797.5,198.6,798.7,196.7,801z"/>
	<path class="st15" d="M228.7,822.2c-2,0-3.7-0.7-5.1-2c-1.4-1.3-2.1-2.9-2.1-4.8c0-1.8,0.6-3.2,1.8-4.4c1.2-1.1,3.7-2.2,7.4-3.3
		c2.3-0.7,3.9-1.2,4.7-1.7v-1.9c0-1.8-0.5-3.3-1.5-4.4c-1-1.1-2.4-1.7-4.1-1.7c-1.6,0-2.9,0.5-4.1,1.5c-1.2,1-2.1,2.3-2.5,4
		l-1.3-0.3c0.5-2.3,1.6-4.2,3.3-5.6c1.7-1.4,3.7-2.1,6-2.1c2.7,0,4.9,0.8,6.6,2.5s2.5,3.9,2.5,6.8v10.8c0,1.5,0.1,2.6,0.3,3.1
		c0.2,0.5,0.6,0.8,1.1,0.8c0.4,0,0.7-0.2,0.9-0.5c0.2-0.3,0.5-1,0.8-2h1.2c-0.1,1.6-0.6,2.8-1.5,3.8c-0.9,0.9-2,1.4-3.4,1.4
		c-2.1,0-3.5-1.2-4.3-3.6c-1.3,1.4-2.4,2.3-3.3,2.8C231.2,821.9,230,822.2,228.7,822.2z M235.5,816.2v-8.6c-0.7,0.3-1.8,0.7-3.1,1.1
		c-2.5,0.9-4.1,1.7-4.9,2.6c-0.7,0.8-1.1,2-1.1,3.4c0,1.3,0.4,2.3,1.1,3.3c0.8,0.9,1.7,1.4,2.7,1.4c1,0,1.9-0.3,3-0.9
		C234.3,817.9,235,817.1,235.5,816.2z"/>
	<path class="st15" d="M254.7,822.2c-2,0-3.7-0.7-5.1-2c-1.4-1.3-2.1-2.9-2.1-4.8c0-1.8,0.6-3.2,1.8-4.4c1.2-1.1,3.7-2.2,7.4-3.3
		c2.3-0.7,3.9-1.2,4.7-1.7v-1.9c0-1.8-0.5-3.3-1.5-4.4c-1-1.1-2.4-1.7-4.1-1.7c-1.6,0-2.9,0.5-4.1,1.5c-1.2,1-2.1,2.3-2.5,4
		l-1.3-0.3c0.5-2.3,1.6-4.2,3.3-5.6c1.7-1.4,3.7-2.1,6-2.1c2.7,0,4.9,0.8,6.6,2.5s2.5,3.9,2.5,6.8v10.8c0,1.5,0.1,2.6,0.3,3.1
		c0.2,0.5,0.6,0.8,1.1,0.8c0.4,0,0.7-0.2,0.9-0.5c0.2-0.3,0.5-1,0.8-2h1.2c-0.1,1.6-0.6,2.8-1.5,3.8c-0.9,0.9-2,1.4-3.4,1.4
		c-2.1,0-3.5-1.2-4.3-3.6c-1.3,1.4-2.4,2.3-3.3,2.8C257.2,821.9,256.1,822.2,254.7,822.2z M261.5,816.2v-8.6
		c-0.7,0.3-1.8,0.7-3.1,1.1c-2.5,0.9-4.1,1.7-4.9,2.6c-0.7,0.8-1.1,2-1.1,3.4c0,1.3,0.4,2.3,1.1,3.3c0.8,0.9,1.7,1.4,2.7,1.4
		c1,0,1.9-0.3,3-0.9C260.3,817.9,261.1,817.1,261.5,816.2z"/>
	<path class="st15" d="M281.2,795.4v5c2.9-3.4,6-5,9.1-5c2.4,0,4.5,0.8,6.1,2.5c1.6,1.7,2.4,3.9,2.4,6.6v11.4c0,1.7,0.3,2.9,0.9,3.5
		c0.6,0.6,1.7,0.8,3.4,0.8v1.2h-13.5v-1.2c1.7,0,2.8-0.2,3.4-0.6c0.6-0.4,0.9-1.3,0.9-2.5v-13.2c0-1.8-0.5-3.2-1.6-4.2
		c-1.1-1-2.4-1.6-4.1-1.6c-2.4,0-4.8,1.6-7.2,4.9v12.4c0,2.1,0.3,3.4,0.8,4c0.5,0.6,1.7,0.9,3.4,0.9v1.2h-13.3v-1.2
		c1.9,0,3.1-0.3,3.6-0.9s0.7-1.9,0.7-3.9v-14.3c0-1.5-0.3-2.5-0.8-3c-0.5-0.5-1.7-0.7-3.4-0.7v-1.2l7.9-0.8H281.2z"/>
	<path class="st15" d="M330.2,776.6h1.2v39.9c0,1.4,0.3,2.4,0.9,2.9c0.6,0.5,1.7,0.8,3.3,0.8v1.2h-14.7c-4.5,0-8.1-1.2-10.7-3.7
		s-4-5.6-4-9.4c0-3.6,1.2-6.6,3.5-9.1c2.3-2.5,5.1-3.7,8.4-3.7c2.6,0,5.5,1,8.5,3.1V783c0-1.7-0.2-2.8-0.7-3.4
		c-0.4-0.6-1.3-0.9-2.7-0.9h-1.4v-1.2L330.2,776.6z M326.6,816.4v-15.2c-1-1.3-2.1-2.4-3.4-3.1c-1.3-0.8-2.6-1.1-3.9-1.1
		c-2.3,0-4.2,0.9-5.6,2.8c-1.4,1.9-2.1,4.4-2.1,7.4c0,3.9,1,7.1,2.9,9.5c1.9,2.4,4.6,3.6,8.1,3.6c1.4,0,2.4-0.3,3.1-0.9
		C326.3,818.7,326.6,817.7,326.6,816.4z"/>
	<path class="st15" d="M358.7,816.1v-12.5c0-1.7-0.5-3-1.4-4c-0.9-1-2.2-1.5-3.7-1.5c-1.4,0-2.7,0.4-3.8,1.1s-2.3,2-3.5,3.7v13.9
		c0,1.3,0.3,2.2,0.9,2.7c0.6,0.5,1.7,0.7,3.3,0.7v1.2h-13.5v-1.2c1.9,0,3.2-0.4,3.7-0.9c0.5-0.6,0.8-1.9,0.8-3.9v-32.9
		c0-1.5-0.3-2.5-0.8-3c-0.5-0.5-1.8-0.8-3.7-0.8v-1.2l8.1-0.9h1.2v23.9c1.6-1.9,3.1-3.2,4.4-3.9c1.3-0.8,2.8-1.1,4.4-1.1
		c2.5,0,4.5,0.8,6.1,2.4c1.6,1.6,2.4,3.7,2.4,6.4v11.2c0,2,0.3,3.3,0.8,3.9c0.5,0.6,1.6,0.9,3.3,0.9v1.2h-13.1v-1.2
		c1.7,0,2.8-0.3,3.4-0.8C358.4,818.8,358.7,817.7,358.7,816.1z"/>
	<path class="st15" d="M394.6,814.9v1.8c-1.5,1.9-3.1,3.3-4.7,4.2c-1.6,0.8-3.5,1.3-5.7,1.3c-3.9,0-7.2-1.2-9.8-3.7
		c-2.6-2.5-3.8-5.6-3.8-9.4c0-3.8,1.2-7.1,3.7-9.7c2.4-2.6,5.4-3.9,9-3.9c2.9,0,5.5,1,7.7,3c2.2,2,3.3,4.3,3.3,7.1v0.5h-18.6v0.3
		c0,2.8,0.4,5.2,1.3,7.3c0.8,2.1,2.1,3.7,3.7,4.8c1.6,1.2,3.3,1.7,5.1,1.7c1.6,0,3.1-0.3,4.2-1C391.1,818.4,392.7,817,394.6,814.9z
		 M375.6,804.7h13.8v-0.5c0-2.3-0.6-4-1.9-5.4c-1.3-1.3-2.9-2-4.8-2c-2,0-3.7,0.7-4.9,2.1C376.5,800.4,375.8,802.3,375.6,804.7z"/>
	<path class="st15" d="M406.7,795.4v5c2.9-3.4,6-5,9.1-5c2.4,0,4.5,0.8,6.1,2.5c1.6,1.7,2.4,3.9,2.4,6.6v11.4c0,1.7,0.3,2.9,0.9,3.5
		c0.6,0.6,1.7,0.8,3.4,0.8v1.2h-13.5v-1.2c1.7,0,2.8-0.2,3.4-0.6c0.6-0.4,0.9-1.3,0.9-2.5v-13.2c0-1.8-0.5-3.2-1.6-4.2
		c-1.1-1-2.4-1.6-4.1-1.6c-2.4,0-4.8,1.6-7.2,4.9v12.4c0,2.1,0.3,3.4,0.8,4c0.5,0.6,1.7,0.9,3.4,0.9v1.2h-13.3v-1.2
		c1.9,0,3.1-0.3,3.6-0.9s0.7-1.9,0.7-3.9v-14.3c0-1.5-0.3-2.5-0.8-3c-0.5-0.5-1.7-0.7-3.4-0.7v-1.2l7.9-0.8H406.7z"/>
	<path class="st15" d="M450.4,795.7h8.1v2.9h-6.7c1.9,2.3,2.9,4.7,2.9,7.3c0,2.6-0.9,4.8-2.8,6.8c-1.8,2-4.1,3-6.6,3.2
		c-1.8,0.1-3.7,0.7-5.5,1.8c-1.8,1.1-2.7,2.1-2.7,2.9c0,0.9,0.5,1.6,1.4,2.1c1,0.5,3.2,1,6.8,1.6c3.9,0.7,6.7,1.4,8.2,1.9
		s2.7,1.4,3.6,2.5s1.3,2.3,1.3,3.7c0,3-1.5,5.5-4.5,7.5c-3,2-6.7,3.1-11,3.1c-3.7,0-6.7-0.7-9-2.1s-3.4-3.3-3.4-5.6
		c0-1.6,0.7-3,2-4.3s3.4-2.5,6.2-3.6v-0.1c-1.7-0.4-3.1-1-4-1.8c-1-0.8-1.5-1.8-1.5-2.8c0-2.8,2.6-5.1,7.8-6.9v-0.1
		c-2.5-0.7-4.5-1.8-5.9-3.5c-1.4-1.7-2.1-3.7-2.1-6c0-3,1-5.6,3-7.6c2-2,4.6-3,7.7-3c0.6,0,1.7,0,3.3,0.1
		C448.7,795.6,449.8,795.7,450.4,795.7z M455.8,834.6c0-1.6-1-2.9-3.1-3.8c-2.1-0.9-6-1.9-11.7-2.9c-4.9,1.3-7.3,3.3-7.3,6
		c0,1.8,1.2,3.3,3.6,4.5c2.4,1.2,5.4,1.8,9.1,1.8c2.8,0,5.1-0.5,6.9-1.6C454.9,837.7,455.8,836.3,455.8,834.6z M437.6,805.4
		c0,2.7,0.6,4.9,1.7,6.6c1.1,1.7,2.6,2.5,4.5,2.5c1.9,0,3.5-0.8,4.6-2.5s1.7-3.9,1.7-6.7c0-2.6-0.6-4.6-1.7-6.2s-2.6-2.4-4.5-2.4
		c-1.9,0-3.4,0.8-4.6,2.4C438.2,800.8,437.6,802.9,437.6,805.4z"/>
	<path class="st15" d="M485.9,814.9v1.8c-1.5,1.9-3.1,3.3-4.7,4.2c-1.6,0.8-3.5,1.3-5.7,1.3c-3.9,0-7.2-1.2-9.8-3.7
		c-2.6-2.5-3.8-5.6-3.8-9.4c0-3.8,1.2-7.1,3.7-9.7c2.4-2.6,5.4-3.9,9-3.9c2.9,0,5.5,1,7.7,3c2.2,2,3.3,4.3,3.3,7.1v0.5H467v0.3
		c0,2.8,0.4,5.2,1.3,7.3c0.8,2.1,2.1,3.7,3.7,4.8c1.6,1.2,3.3,1.7,5.1,1.7c1.6,0,3.1-0.3,4.2-1C482.4,818.4,484,817,485.9,814.9z
		 M467,804.7h13.8v-0.5c0-2.3-0.6-4-1.9-5.4c-1.3-1.3-2.9-2-4.8-2c-2,0-3.7,0.7-4.9,2.1C467.8,800.4,467.1,802.3,467,804.7z"/>
	<path class="st15" d="M514.9,795.4v5.5c2.3-2,4.1-3.4,5.4-4.2c1.3-0.8,2.4-1.2,3.2-1.2c1.6,0,3.1,0.7,4.6,2l-1.9,4.5
		c-2.7-1.5-4.7-2.2-6-2.2c-1.4,0-3.2,1-5.4,3.1v13.9c0,1.4,0.3,2.3,0.9,2.8c0.6,0.5,1.7,0.7,3.3,0.7v1.2h-13.3v-1.2
		c1.8,0,2.9-0.3,3.5-0.8c0.5-0.6,0.8-1.9,0.8-4v-13.8c0-1.7-0.3-2.9-0.9-3.4s-2-0.8-4.3-0.8v-1.2l8.8-0.8H514.9z"/>
	<path class="st15" d="M554.8,814.9v1.8c-1.5,1.9-3.1,3.3-4.7,4.2c-1.6,0.8-3.5,1.3-5.7,1.3c-3.9,0-7.2-1.2-9.8-3.7
		c-2.6-2.5-3.8-5.6-3.8-9.4c0-3.8,1.2-7.1,3.7-9.7c2.4-2.6,5.4-3.9,9-3.9c2.9,0,5.5,1,7.7,3c2.2,2,3.3,4.3,3.3,7.1v0.5h-18.6v0.3
		c0,2.8,0.4,5.2,1.3,7.3c0.8,2.1,2.1,3.7,3.7,4.8c1.6,1.2,3.3,1.7,5.1,1.7c1.6,0,3.1-0.3,4.2-1C551.3,818.4,552.8,817,554.8,814.9z
		 M535.8,804.7h13.8v-0.5c0-2.3-0.6-4-1.9-5.4s-2.9-2-4.8-2c-2,0-3.7,0.7-4.9,2.1C536.6,800.4,536,802.3,535.8,804.7z"/>
	<path class="st15" d="M575.8,795.4v7.8h-1.4c-0.2-2-0.9-3.5-2.1-4.6c-1.2-1.1-2.6-1.7-4.2-1.7c-1.3,0-2.3,0.3-3,0.9
		c-0.8,0.6-1.1,1.5-1.1,2.5c0,1,0.4,1.9,1.1,2.7c0.7,0.8,2.2,1.7,4.6,2.8c3.1,1.4,5.1,2.7,6.1,4c1,1.3,1.5,2.8,1.5,4.6
		c0,2.1-0.8,3.9-2.4,5.5c-1.6,1.5-3.4,2.3-5.6,2.3c-1.1,0-2.6-0.4-4.4-1.2c-1-0.4-1.7-0.7-2-0.7c-0.4,0-0.8,0.2-1.1,0.5
		c-0.3,0.3-0.5,0.7-0.5,1.2h-1.2v-8.6h1.2c0.4,2.3,1.4,4.1,2.9,5.4s3.2,2,5.2,2c1.3,0,2.3-0.4,3.2-1.3c0.8-0.8,1.3-1.9,1.3-3.1
		c0-1.2-0.4-2.2-1.2-3.1s-2.5-1.9-5.1-3c-2.9-1.3-4.8-2.5-5.8-3.6c-0.9-1.1-1.4-2.5-1.4-4c0-2,0.8-3.7,2.3-5.1s3.3-2.1,5.4-2.1
		c1,0,2,0.2,3.2,0.7c0.8,0.3,1.5,0.5,2,0.5c0.7,0,1.2-0.4,1.5-1.2H575.8z"/>
	<path class="st15" d="M601.3,816.1v-12.5c0-1.7-0.5-3-1.4-4c-0.9-1-2.2-1.5-3.7-1.5c-1.4,0-2.7,0.4-3.8,1.1s-2.3,2-3.5,3.7v13.9
		c0,1.3,0.3,2.2,0.9,2.7c0.6,0.5,1.7,0.7,3.3,0.7v1.2h-13.5v-1.2c1.9,0,3.2-0.4,3.7-0.9s0.8-1.9,0.8-3.9v-32.9c0-1.5-0.3-2.5-0.8-3
		c-0.5-0.5-1.8-0.8-3.7-0.8v-1.2l8.1-0.9h1.2v23.9c1.6-1.9,3.1-3.2,4.4-3.9c1.3-0.8,2.8-1.1,4.4-1.1c2.5,0,4.5,0.8,6.1,2.4
		c1.6,1.6,2.4,3.7,2.4,6.4v11.2c0,2,0.3,3.3,0.8,3.9c0.5,0.6,1.6,0.9,3.3,0.9v1.2h-13.1v-1.2c1.7,0,2.8-0.3,3.4-0.8
		C601.1,818.8,601.3,817.7,601.3,816.1z"/>
	<path class="st15" d="M620,822.2c-2,0-3.7-0.7-5.1-2c-1.4-1.3-2.1-2.9-2.1-4.8c0-1.8,0.6-3.2,1.8-4.4c1.2-1.1,3.7-2.2,7.4-3.3
		c2.3-0.7,3.9-1.2,4.7-1.7v-1.9c0-1.8-0.5-3.3-1.5-4.4c-1-1.1-2.4-1.7-4.1-1.7c-1.6,0-2.9,0.5-4.1,1.5c-1.2,1-2.1,2.3-2.5,4
		l-1.3-0.3c0.5-2.3,1.6-4.2,3.3-5.6c1.7-1.4,3.7-2.1,6-2.1c2.7,0,4.9,0.8,6.6,2.5c1.7,1.6,2.5,3.9,2.5,6.8v10.8
		c0,1.5,0.1,2.6,0.3,3.1c0.2,0.5,0.6,0.8,1.1,0.8c0.4,0,0.7-0.2,0.9-0.5c0.2-0.3,0.5-1,0.8-2h1.2c-0.1,1.6-0.6,2.8-1.5,3.8
		c-0.9,0.9-2,1.4-3.4,1.4c-2.1,0-3.5-1.2-4.3-3.6c-1.3,1.4-2.4,2.3-3.3,2.8C622.5,821.9,621.3,822.2,620,822.2z M626.8,816.2v-8.6
		c-0.7,0.3-1.8,0.7-3.1,1.1c-2.5,0.9-4.1,1.7-4.9,2.6c-0.7,0.8-1.1,2-1.1,3.4c0,1.3,0.4,2.3,1.1,3.3c0.8,0.9,1.7,1.4,2.7,1.4
		c1,0,1.9-0.3,3-0.9S626.4,817.1,626.8,816.2z"/>
	<path class="st15" d="M647.2,795.4v5.3h0.1c1-1.6,2.4-2.9,4-3.8c1.6-1,3.3-1.4,5-1.4c1.8,0,3.5,0.5,4.9,1.5s2.4,2.4,3,4.2
		c2.7-3.8,5.8-5.7,9.3-5.7c2.5,0,4.5,0.8,6.1,2.3c1.6,1.5,2.4,3.6,2.4,6.2v12.7c0,1.4,0.3,2.3,0.9,2.8c0.6,0.5,1.7,0.7,3.3,0.7v1.3
		H673v-1.3c1.8,0,3-0.3,3.5-0.9c0.5-0.6,0.8-1.9,0.8-3.9v-12c0-1.6-0.5-2.9-1.5-3.8c-1-0.9-2.3-1.4-4-1.4c-2.6,0-5,1.6-7.1,4.9v13.5
		c0,1.4,0.3,2.4,0.9,2.9c0.6,0.5,1.7,0.7,3.3,0.7v1.3h-13.3v-1.3c1.9,0,3.1-0.3,3.5-0.9c0.5-0.6,0.7-1.9,0.7-3.9v-11.7
		c0-1.7-0.5-3-1.5-4c-1-1-2.3-1.5-3.9-1.5c-1.4,0-2.7,0.4-4,1.3s-2.4,2.1-3.3,3.6v13.7c0,1.3,0.3,2.2,0.9,2.7s1.7,0.8,3.3,0.8v1.2
		h-13.4v-1.3c1.9,0,3-0.3,3.5-0.9s0.7-1.6,0.7-3.2v-15c0-1.3-0.3-2.2-0.8-2.8c-0.5-0.6-1.4-0.9-2.7-0.9h-1.6v-1.2l8.7-0.8H647.2z"/>
	<path class="st15" d="M713.4,822.2c-2,0-3.7-0.7-5.1-2c-1.4-1.3-2.1-2.9-2.1-4.8c0-1.8,0.6-3.2,1.8-4.4c1.2-1.1,3.7-2.2,7.4-3.3
		c2.3-0.7,3.9-1.2,4.7-1.7v-1.9c0-1.8-0.5-3.3-1.5-4.4c-1-1.1-2.4-1.7-4.1-1.7c-1.6,0-2.9,0.5-4.1,1.5c-1.2,1-2.1,2.3-2.5,4
		l-1.3-0.3c0.5-2.3,1.6-4.2,3.3-5.6c1.7-1.4,3.7-2.1,6-2.1c2.7,0,4.9,0.8,6.6,2.5c1.7,1.6,2.5,3.9,2.5,6.8v10.8
		c0,1.5,0.1,2.6,0.3,3.1c0.2,0.5,0.6,0.8,1.1,0.8c0.4,0,0.7-0.2,0.9-0.5c0.2-0.3,0.5-1,0.8-2h1.2c-0.1,1.6-0.6,2.8-1.5,3.8
		c-0.9,0.9-2,1.4-3.4,1.4c-2.1,0-3.5-1.2-4.3-3.6c-1.3,1.4-2.4,2.3-3.3,2.8C715.9,821.9,714.7,822.2,713.4,822.2z M720.2,816.2v-8.6
		c-0.7,0.3-1.8,0.7-3.1,1.1c-2.5,0.9-4.1,1.7-4.9,2.6c-0.7,0.8-1.1,2-1.1,3.4c0,1.3,0.4,2.3,1.1,3.3c0.8,0.9,1.7,1.4,2.7,1.4
		c1,0,2-0.3,3-0.9C719,817.9,719.8,817.1,720.2,816.2z"/>
	<path class="st15" d="M756.4,795.4h1.2v21.2c0,1.4,0.3,2.3,0.9,2.8c0.6,0.5,1.7,0.7,3.5,0.7v1.2l-9.2,0.5v-4.6h-0.1
		c-2.5,3.3-5.5,4.9-8.8,4.9c-2.4,0-4.4-0.8-5.9-2.4c-1.5-1.6-2.3-3.6-2.3-6.1v-12.9c0-1.3-0.3-2.2-1-2.7c-0.7-0.5-1.8-0.7-3.5-0.7
		v-1.2l8.1-0.8h1.2v18c0,1.8,0.5,3.2,1.5,4.2s2.4,1.5,4.2,1.5c2.4,0,4.6-1.4,6.7-4.1v-13.6c0-1.7-0.3-2.8-0.8-3.3
		c-0.5-0.4-1.9-0.7-4.1-0.7v-1.2L756.4,795.4z"/>
	<path class="st15" d="M773.3,795.4v5.5c2.3-2,4.1-3.4,5.4-4.2c1.3-0.8,2.4-1.2,3.2-1.2c1.6,0,3.1,0.7,4.6,2l-1.9,4.5
		c-2.7-1.5-4.7-2.2-6-2.2c-1.4,0-3.2,1-5.4,3.1v13.9c0,1.4,0.3,2.3,0.9,2.8c0.6,0.5,1.7,0.7,3.3,0.7v1.2h-13.3v-1.2
		c1.8,0,2.9-0.3,3.5-0.8c0.5-0.6,0.8-1.9,0.8-4v-13.8c0-1.7-0.3-2.9-0.9-3.4c-0.6-0.5-2-0.8-4.3-0.8v-1.2l8.8-0.8H773.3z"/>
	<path class="st15" d="M813.3,795.4v4.2c1.6-1.6,3.1-2.7,4.4-3.3s2.8-1,4.4-1c3.3,0,6,1.2,8.2,3.7c2.2,2.5,3.2,5.6,3.2,9.4
		c0,3.9-1.2,7.1-3.6,9.7s-5.4,3.9-9,3.9c-2.5,0-5-1-7.6-3v16.6c0,1.7,0.3,2.8,0.9,3.4c0.6,0.5,1.7,0.8,3.3,0.8v1.2H804V840
		c1.7,0,2.9-0.2,3.5-0.7c0.6-0.5,0.9-1.4,0.9-2.8v-35.2c0-1.7-0.3-2.8-0.8-3.2c-0.5-0.5-1.7-0.7-3.7-0.7v-1.2l8.1-0.8H813.3z
		 M813.3,801.5v15.8c2,2.1,4.3,3.1,7,3.1c2.3,0,4.1-1.1,5.7-3.2s2.3-4.7,2.3-7.9c0-3.4-0.8-6.2-2.3-8.4s-3.5-3.3-5.8-3.3
		C817.8,797.7,815.5,799,813.3,801.5z"/>
	<path class="st15" d="M847.9,796.2v1.2c-1.4,0.2-2.1,0.9-2.1,2.2c0,0.5,0.1,1,0.4,1.7l6.1,14.3l4.4-13.3c0.3-1.1,0.5-2,0.5-2.6
		c0-1.4-0.8-2.1-2.5-2.2v-1.2h8.9v1.2c-1.3,0-2.5,0.5-3.3,1.4c-0.9,0.9-1.7,2.4-2.4,4.5l-10.1,29.8c-1,2.8-2.2,5.1-3.7,6.7
		s-3.1,2.5-4.6,2.5c-0.9,0-2-0.4-3.1-1.1l1.6-4.4c0.9,0.4,1.7,0.6,2.4,0.6c1.5,0,2.8-0.5,3.8-1.4c1-1,1.9-2.5,2.7-4.8l3.2-9.2
		l-9.1-20.9c-0.7-1.5-1.3-2.5-2-3c-0.7-0.5-1.7-0.7-3.1-0.8v-1.2H847.9z"/>
	<path class="st15" d="M873,822.2c-2,0-3.7-0.7-5.1-2c-1.4-1.3-2.1-2.9-2.1-4.8c0-1.8,0.6-3.2,1.8-4.4c1.2-1.1,3.7-2.2,7.4-3.3
		c2.3-0.7,3.9-1.2,4.7-1.7v-1.9c0-1.8-0.5-3.3-1.5-4.4c-1-1.1-2.4-1.7-4.1-1.7c-1.6,0-2.9,0.5-4.1,1.5c-1.2,1-2.1,2.3-2.5,4
		l-1.3-0.3c0.5-2.3,1.6-4.2,3.3-5.6c1.7-1.4,3.7-2.1,6-2.1c2.7,0,4.9,0.8,6.6,2.5c1.7,1.6,2.5,3.9,2.5,6.8v10.8
		c0,1.5,0.1,2.6,0.3,3.1c0.2,0.5,0.6,0.8,1.1,0.8c0.4,0,0.7-0.2,0.9-0.5c0.2-0.3,0.5-1,0.8-2h1.2c-0.1,1.6-0.6,2.8-1.5,3.8
		c-0.9,0.9-2,1.4-3.4,1.4c-2.1,0-3.5-1.2-4.3-3.6c-1.3,1.4-2.4,2.3-3.3,2.8C875.5,821.9,874.3,822.2,873,822.2z M879.8,816.2v-8.6
		c-0.7,0.3-1.8,0.7-3.1,1.1c-2.5,0.9-4.1,1.7-4.9,2.6c-0.7,0.8-1.1,2-1.1,3.4c0,1.3,0.4,2.3,1.1,3.3c0.8,0.9,1.7,1.4,2.7,1.4
		c1,0,2-0.3,3-0.9C878.6,817.9,879.3,817.1,879.8,816.2z"/>
	<path class="st15" d="M899,822.2c-2,0-3.7-0.7-5.1-2c-1.4-1.3-2.1-2.9-2.1-4.8c0-1.8,0.6-3.2,1.8-4.4c1.2-1.1,3.7-2.2,7.4-3.3
		c2.3-0.7,3.9-1.2,4.7-1.7v-1.9c0-1.8-0.5-3.3-1.5-4.4c-1-1.1-2.4-1.7-4.1-1.7c-1.6,0-2.9,0.5-4.1,1.5c-1.2,1-2.1,2.3-2.5,4
		l-1.3-0.3c0.5-2.3,1.6-4.2,3.3-5.6c1.7-1.4,3.7-2.1,6-2.1c2.7,0,4.9,0.8,6.6,2.5c1.7,1.6,2.5,3.9,2.5,6.8v10.8
		c0,1.5,0.1,2.6,0.3,3.1c0.2,0.5,0.6,0.8,1.1,0.8c0.4,0,0.7-0.2,0.9-0.5c0.2-0.3,0.5-1,0.8-2h1.2c-0.1,1.6-0.6,2.8-1.5,3.8
		c-0.9,0.9-2,1.4-3.4,1.4c-2.1,0-3.5-1.2-4.3-3.6c-1.3,1.4-2.4,2.3-3.3,2.8C901.5,821.9,900.4,822.2,899,822.2z M905.8,816.2v-8.6
		c-0.7,0.3-1.8,0.7-3.1,1.1c-2.5,0.9-4.1,1.7-4.9,2.6c-0.7,0.8-1.1,2-1.1,3.4c0,1.3,0.4,2.3,1.1,3.3c0.8,0.9,1.7,1.4,2.7,1.4
		c1,0,2-0.3,3-0.9C904.6,817.9,905.4,817.1,905.8,816.2z"/>
	<path class="st15" d="M926.3,795.4v5.5c2.3-2,4.1-3.4,5.4-4.2c1.3-0.8,2.4-1.2,3.2-1.2c1.6,0,3.1,0.7,4.6,2l-1.9,4.5
		c-2.7-1.5-4.7-2.2-6-2.2c-1.4,0-3.2,1-5.4,3.1v13.9c0,1.4,0.3,2.3,0.9,2.8c0.6,0.5,1.7,0.7,3.3,0.7v1.2h-13.3v-1.2
		c1.8,0,2.9-0.3,3.5-0.8c0.5-0.6,0.8-1.9,0.8-4v-13.8c0-1.7-0.3-2.9-0.9-3.4c-0.6-0.5-2-0.8-4.3-0.8v-1.2l8.8-0.8H926.3z"/>
</g>
<g class="st12">
	<path class="st15" d="M437.7,884.5l-6.5,6l10.5,10.5c1.2,1.2,2.2,2,3,2.5c0.8,0.4,1.9,0.7,3.1,0.8v1.2h-8.3l-13.1-12.6
		c0,6.6,0.3,10.2,0.8,10.7c0.6,0.5,1.7,0.7,3.4,0.7v1.2h-13.6v-1.2c1.9,0,3.2-0.4,3.7-0.9c0.5-0.6,0.8-1.9,0.8-3.9v-33.2
		c0-1.5-0.3-2.4-0.8-2.8s-1.8-0.6-3.7-0.6v-1.2l8.1-0.9h1.2v31.9l6.8-6.2c1.3-1.2,1.9-2.2,1.9-3.2c0-1.1-1-1.7-3.1-1.7v-1.2h13.8
		v1.2h-1.2C442.2,881.4,439.9,882.5,437.7,884.5z"/>
	<path class="st15" d="M473.2,899v1.8c-1.5,1.9-3.1,3.3-4.7,4.2c-1.6,0.8-3.5,1.3-5.7,1.3c-3.9,0-7.2-1.2-9.8-3.7
		c-2.6-2.5-3.8-5.6-3.8-9.4c0-3.8,1.2-7.1,3.7-9.7c2.4-2.6,5.4-3.9,9-3.9c2.9,0,5.5,1,7.7,3c2.2,2,3.3,4.3,3.3,7.1v0.5h-18.6v0.3
		c0,2.8,0.4,5.2,1.3,7.3c0.8,2.1,2.1,3.7,3.7,4.8c1.6,1.2,3.3,1.7,5.1,1.7c1.6,0,3.1-0.3,4.2-1C469.7,902.5,471.3,901.1,473.2,899z
		 M454.3,888.8H468v-0.5c0-2.3-0.6-4-1.9-5.4c-1.3-1.3-2.9-2-4.8-2c-2,0-3.7,0.7-4.9,2.1C455.1,884.5,454.4,886.4,454.3,888.8z"/>
	<path class="st15" d="M517.7,860.7h1.2v39.9c0,1.4,0.3,2.4,0.9,2.9c0.6,0.5,1.7,0.8,3.3,0.8v1.2h-14.7c-4.5,0-8.1-1.2-10.7-3.7
		s-4-5.6-4-9.4c0-3.6,1.2-6.6,3.5-9.1c2.3-2.5,5.1-3.7,8.4-3.7c2.6,0,5.5,1,8.5,3.1v-15.5c0-1.7-0.2-2.8-0.7-3.4
		c-0.4-0.6-1.3-0.9-2.7-0.9h-1.4v-1.2L517.7,860.7z M514.1,900.5v-15.2c-1-1.3-2.1-2.4-3.4-3.1c-1.3-0.8-2.6-1.1-3.9-1.1
		c-2.3,0-4.2,0.9-5.6,2.8c-1.4,1.9-2.1,4.4-2.1,7.4c0,3.9,1,7.1,2.9,9.5c1.9,2.4,4.6,3.6,8.1,3.6c1.4,0,2.4-0.3,3.1-0.9
		C513.8,902.8,514.1,901.8,514.1,900.5z"/>
	<path class="st15" d="M546.2,900.2v-12.5c0-1.7-0.5-3-1.4-4s-2.2-1.5-3.7-1.5c-1.4,0-2.7,0.4-3.8,1.1s-2.3,2-3.5,3.7v13.9
		c0,1.3,0.3,2.2,0.9,2.7c0.6,0.5,1.7,0.7,3.3,0.7v1.2h-13.5v-1.2c1.9,0,3.2-0.4,3.7-0.9c0.5-0.6,0.8-1.9,0.8-3.9v-32.9
		c0-1.5-0.3-2.5-0.8-3c-0.5-0.5-1.8-0.8-3.7-0.8v-1.2l8.1-0.9h1.2v23.9c1.6-1.9,3.1-3.2,4.4-3.9c1.3-0.8,2.8-1.1,4.4-1.1
		c2.5,0,4.5,0.8,6.1,2.4c1.6,1.6,2.4,3.7,2.4,6.4v11.2c0,2,0.3,3.3,0.8,3.9c0.5,0.6,1.6,0.9,3.3,0.9v1.2H542v-1.2
		c1.7,0,2.8-0.3,3.4-0.8C545.9,902.9,546.2,901.8,546.2,900.2z"/>
	<path class="st15" d="M564.9,906.2c-2,0-3.7-0.7-5.1-2c-1.4-1.3-2.1-2.9-2.1-4.8c0-1.8,0.6-3.2,1.8-4.4c1.2-1.1,3.7-2.2,7.4-3.3
		c2.3-0.7,3.9-1.2,4.7-1.7v-1.9c0-1.8-0.5-3.3-1.5-4.4c-1-1.1-2.4-1.7-4.1-1.7c-1.6,0-2.9,0.5-4.1,1.5c-1.2,1-2.1,2.3-2.5,4
		l-1.3-0.3c0.5-2.3,1.6-4.2,3.3-5.6c1.7-1.4,3.7-2.1,6-2.1c2.7,0,4.9,0.8,6.6,2.5s2.5,3.9,2.5,6.8v10.8c0,1.5,0.1,2.6,0.3,3.1
		c0.2,0.5,0.6,0.8,1.1,0.8c0.4,0,0.7-0.2,0.9-0.5c0.2-0.3,0.5-1,0.8-2h1.2c-0.1,1.6-0.6,2.8-1.5,3.8c-0.9,0.9-2,1.4-3.4,1.4
		c-2.1,0-3.5-1.2-4.3-3.6c-1.3,1.4-2.4,2.3-3.3,2.8C567.3,906,566.2,906.2,564.9,906.2z M571.6,900.3v-8.6c-0.7,0.3-1.8,0.7-3.1,1.1
		c-2.5,0.9-4.2,1.7-4.9,2.6c-0.7,0.8-1.1,2-1.1,3.4c0,1.3,0.4,2.3,1.1,3.3c0.8,0.9,1.7,1.4,2.7,1.4c1,0,2-0.3,3-0.9
		C570.5,902,571.2,901.2,571.6,900.3z"/>
	<path class="st15" d="M602.3,879.8h8.1v2.9h-6.7c1.9,2.3,2.9,4.7,2.9,7.3c0,2.6-0.9,4.8-2.8,6.8c-1.8,2-4.1,3-6.6,3.2
		c-1.8,0.1-3.7,0.7-5.5,1.8c-1.8,1.1-2.7,2.1-2.7,2.9c0,0.9,0.5,1.6,1.4,2.1c1,0.5,3.2,1,6.8,1.6c3.9,0.7,6.7,1.4,8.2,1.9
		s2.7,1.4,3.6,2.5c0.9,1.1,1.3,2.3,1.3,3.7c0,3-1.5,5.5-4.5,7.5c-3,2-6.7,3.1-11,3.1c-3.7,0-6.7-0.7-9-2.1s-3.4-3.3-3.4-5.6
		c0-1.6,0.7-3,2-4.3c1.3-1.2,3.4-2.5,6.2-3.6v-0.1c-1.7-0.4-3.1-1-4-1.8s-1.5-1.8-1.5-2.8c0-2.8,2.6-5.1,7.8-6.9v-0.1
		c-2.5-0.7-4.5-1.8-5.9-3.5c-1.4-1.7-2.1-3.7-2.1-6c0-3,1-5.6,3-7.6s4.6-3,7.7-3c0.6,0,1.7,0,3.3,0.1
		C600.7,879.7,601.8,879.8,602.3,879.8z M607.8,918.7c0-1.6-1-2.9-3.1-3.8s-6-1.9-11.7-2.9c-4.9,1.3-7.3,3.3-7.3,6
		c0,1.8,1.2,3.3,3.6,4.5s5.4,1.8,9.1,1.8c2.8,0,5.1-0.5,6.9-1.6C606.9,921.7,607.8,920.4,607.8,918.7z M589.5,889.5
		c0,2.7,0.6,4.9,1.7,6.6c1.1,1.7,2.6,2.5,4.5,2.5c1.9,0,3.5-0.8,4.6-2.5c1.1-1.6,1.7-3.9,1.7-6.7c0-2.6-0.6-4.6-1.7-6.2
		s-2.6-2.4-4.5-2.4c-1.9,0-3.4,0.8-4.6,2.4C590.1,884.9,589.5,886.9,589.5,889.5z"/>
	<path class="st15" d="M641.5,892.9c0,3.8-1.3,7-4,9.5s-5.9,3.8-9.9,3.8c-3.9,0-7.2-1.3-9.9-3.8c-2.6-2.5-4-5.7-4-9.5
		c0-3.9,1.3-7.1,3.9-9.6c2.6-2.5,5.9-3.8,9.9-3.8c4,0,7.3,1.3,9.9,3.8C640.2,885.8,641.5,889,641.5,892.9z M636.2,892.9
		c0-3.6-0.8-6.5-2.3-8.7c-1.5-2.2-3.6-3.3-6.3-3.3s-4.7,1.1-6.3,3.2s-2.3,5.1-2.3,8.8c0,3.6,0.8,6.5,2.3,8.7s3.6,3.2,6.3,3.2
		s4.8-1.1,6.3-3.3C635.4,899.4,636.2,896.5,636.2,892.9z"/>
	<path class="st15" d="M678.7,879.5v7.8h-1.4c-0.2-2-0.9-3.5-2.1-4.6c-1.2-1.1-2.6-1.7-4.2-1.7c-1.3,0-2.3,0.3-3,0.9
		c-0.8,0.6-1.2,1.5-1.2,2.5c0,1,0.4,1.9,1.1,2.7c0.7,0.8,2.2,1.7,4.6,2.8c3.1,1.4,5.1,2.7,6.1,4c1,1.3,1.5,2.8,1.5,4.6
		c0,2.1-0.8,3.9-2.4,5.5c-1.6,1.5-3.4,2.3-5.6,2.3c-1.1,0-2.6-0.4-4.4-1.2c-1-0.4-1.7-0.7-2-0.7c-0.4,0-0.8,0.2-1.1,0.5
		s-0.5,0.7-0.5,1.2h-1.2v-8.6h1.2c0.4,2.3,1.4,4.1,2.9,5.4c1.5,1.3,3.2,2,5.2,2c1.3,0,2.3-0.4,3.2-1.3c0.8-0.8,1.3-1.9,1.3-3.1
		c0-1.2-0.4-2.2-1.2-3.1c-0.8-0.9-2.5-1.9-5.1-3c-2.9-1.3-4.8-2.5-5.8-3.6c-0.9-1.1-1.4-2.5-1.4-4c0-2,0.8-3.7,2.3-5.1
		s3.3-2.1,5.4-2.1c1,0,2,0.2,3.2,0.7c0.8,0.3,1.5,0.5,2,0.5c0.7,0,1.2-0.4,1.5-1.2H678.7z"/>
	<path class="st15" d="M709,899v1.8c-1.5,1.9-3.1,3.3-4.7,4.2c-1.6,0.8-3.5,1.3-5.7,1.3c-3.9,0-7.2-1.2-9.8-3.7
		c-2.6-2.5-3.8-5.6-3.8-9.4c0-3.8,1.2-7.1,3.7-9.7c2.4-2.6,5.5-3.9,9-3.9c2.9,0,5.5,1,7.7,3c2.2,2,3.3,4.3,3.3,7.1v0.5H690v0.3
		c0,2.8,0.4,5.2,1.3,7.3c0.8,2.1,2.1,3.7,3.7,4.8c1.6,1.2,3.3,1.7,5.1,1.7c1.6,0,3.1-0.3,4.2-1C705.4,902.5,707,901.1,709,899z
		 M690,888.8h13.8v-0.5c0-2.3-0.6-4-1.9-5.4c-1.3-1.3-2.9-2-4.8-2c-2,0-3.7,0.7-4.9,2.1S690.1,886.4,690,888.8z"/>
</g>
<g>
	<g>
		<path class="st13" d="M302.9,1338.6c0,2-0.5,3.9-1.5,5.7c-3.1,5.4-6.2,10.8-9.3,16.1c-0.4,0.8-1.2,0.8-1.7,0
			c-3.1-5.4-6.3-10.8-9.3-16.2c-4-7.1,0.5-16.1,8.6-17.1c6.5-0.9,12.4,3.8,13.1,10.3C302.9,1337.8,302.9,1338.2,302.9,1338.6
			 M291.3,1344.5c3.6,0,6.5-2.9,6.5-6.5s-2.9-6.5-6.5-6.5s-6.5,2.9-6.5,6.5S287.7,1344.5,291.3,1344.5"/>
	</g>
	<g>
		<polygon class="st16" points="272,1271 339.6,1270.5 407.3,1270.2 542.5,1270 677.8,1270.2 745.4,1270.5 813,1271 745.4,1271.5 
			677.8,1271.8 542.5,1272 407.3,1271.8 339.6,1271.5 		"/>
	</g>
</g>
</svg>
