<?xml version="1.0" encoding="utf-8"?>
<!-- Generator: Adobe Illustrator 24.0.1, SVG Export Plug-In . SVG Version: 6.00 Build 0)  -->
<svg version="1.1" id="Content" xmlns="http://www.w3.org/2000/svg" xmlns:xlink="http://www.w3.org/1999/xlink" x="0px" y="0px"
	 viewBox="0 0 1080 1920" style="enable-background:new 0 0 1080 1920;" xml:space="preserve">
<style type="text/css">
	.st0{fill:#FFFFFF;}
	.st1{fill:#F1CF28;}
	.st2{fill:#E1C6C4;}
	.st3{clip-path:url(#SVGID_2_);fill:url(#SVGID_3_);}
	.st4{clip-path:url(#SVGID_5_);fill:url(#SVGID_6_);}
	.st5{clip-path:url(#SVGID_8_);fill:url(#SVGID_9_);}
	.st6{clip-path:url(#SVGID_11_);fill:url(#SVGID_12_);}
	.st7{clip-path:url(#SVGID_14_);fill:url(#SVGID_15_);}
	.st8{clip-path:url(#SVGID_17_);fill:url(#SVGID_18_);}
	.st9{clip-path:url(#SVGID_20_);fill:url(#SVGID_21_);}
	.st10{clip-path:url(#SVGID_23_);fill:url(#SVGID_24_);}
	.st11{clip-path:url(#SVGID_26_);fill:url(#SVGID_27_);}
	.st12{clip-path:url(#SVGID_29_);fill:url(#SVGID_30_);}
	.st13{clip-path:url(#SVGID_32_);fill:url(#SVGID_33_);}
	.st14{fill:url(#SVGID_34_);}
</style>
<g>
	<path class="st0" d="M193.5,678.4h-3.3v11.2c0,2.4,0.3,4.1,1,5.1c0.7,1,1.9,1.4,3.6,1.4v1.2h-14.7v-1.2c1.8,0,3-0.5,3.7-1.4
		c0.6-1,1-2.6,1-5.1V664c0-2.4-0.3-4.1-0.9-5c-0.6-0.9-1.9-1.4-3.7-1.4v-1.2h16.7c4.1,0,7.4,1,9.9,3c2.5,2,3.7,4.6,3.7,7.7
		c0,5-2.8,8.4-8.4,10c1.2,0.8,2.4,1.9,3.6,3.3c1.2,1.4,2.7,3.7,4.6,6.9c2.1,3.6,3.8,5.9,5,7c1.2,1.1,2.5,1.7,3.7,1.8v1.2h-8.4
		c-1.7-2.1-3.8-5.1-6.2-9.1c-2.6-4.2-4.6-6.9-6.1-8.1C196.9,678.9,195.3,678.4,193.5,678.4z M194.5,658h-4.3v18.7h5
		c3,0,5.3-0.9,7.1-2.6c1.7-1.7,2.6-4,2.6-6.8c0-2.8-0.9-5-2.8-6.7C200.1,658.8,197.6,658,194.5,658z"/>
	<path class="st0" d="M229.4,698.1c-2,0-3.7-0.7-5.1-2c-1.4-1.3-2.1-2.9-2.1-4.8c0-1.8,0.6-3.2,1.8-4.4c1.2-1.1,3.7-2.2,7.4-3.3
		c2.3-0.6,3.9-1.2,4.7-1.7v-1.9c0-1.8-0.5-3.3-1.5-4.4c-1-1.1-2.4-1.7-4.1-1.7c-1.6,0-2.9,0.5-4.1,1.5s-2.1,2.3-2.5,4l-1.3-0.3
		c0.5-2.3,1.6-4.2,3.3-5.6c1.7-1.4,3.7-2.1,6-2.1c2.7,0,4.9,0.8,6.6,2.5s2.5,3.9,2.5,6.8v10.8c0,1.5,0.1,2.6,0.3,3.1
		c0.2,0.5,0.6,0.8,1.1,0.8c0.4,0,0.7-0.2,0.9-0.5c0.2-0.3,0.5-1,0.8-2h1.2c-0.1,1.6-0.6,2.8-1.5,3.8s-2,1.4-3.4,1.4
		c-2.1,0-3.5-1.2-4.3-3.6c-1.3,1.4-2.4,2.3-3.3,2.8C231.9,697.8,230.8,698.1,229.4,698.1z M236.2,692.2v-8.6
		c-0.7,0.3-1.8,0.7-3.1,1.1c-2.5,0.9-4.1,1.7-4.9,2.6c-0.7,0.8-1.1,2-1.1,3.4c0,1.3,0.4,2.3,1.1,3.3c0.8,0.9,1.7,1.4,2.7,1.4
		c1,0,1.9-0.3,3-0.9C235,693.8,235.8,693.1,236.2,692.2z"/>
	<path class="st0" d="M264.9,671.3v7.8h-1.4c-0.2-2-0.9-3.5-2.1-4.6c-1.2-1.1-2.6-1.7-4.2-1.7c-1.3,0-2.3,0.3-3,0.9
		c-0.8,0.6-1.1,1.5-1.1,2.5c0,1,0.4,1.9,1.1,2.7c0.7,0.8,2.2,1.7,4.6,2.8c3.1,1.4,5.1,2.7,6.1,4c1,1.3,1.5,2.8,1.5,4.6
		c0,2.1-0.8,3.9-2.4,5.5c-1.6,1.5-3.4,2.3-5.6,2.3c-1.1,0-2.6-0.4-4.4-1.2c-1-0.4-1.7-0.7-2-0.7c-0.4,0-0.8,0.2-1.1,0.5
		c-0.3,0.3-0.5,0.7-0.5,1.2h-1.2v-8.6h1.2c0.4,2.3,1.4,4.1,2.9,5.4c1.5,1.3,3.2,2,5.2,2c1.3,0,2.3-0.4,3.2-1.3
		c0.8-0.8,1.3-1.9,1.3-3.1c0-1.2-0.4-2.2-1.2-3.1c-0.8-0.9-2.5-1.9-5.1-3c-2.9-1.3-4.8-2.5-5.8-3.6c-0.9-1.1-1.4-2.5-1.4-4
		c0-2,0.8-3.7,2.3-5.1c1.5-1.4,3.3-2.1,5.4-2.1c1,0,2,0.2,3.2,0.7c0.8,0.3,1.5,0.5,2,0.5c0.7,0,1.2-0.4,1.5-1.2H264.9z"/>
	<path class="st0" d="M277.8,698.1c-2,0-3.7-0.7-5.1-2c-1.4-1.3-2.1-2.9-2.1-4.8c0-1.8,0.6-3.2,1.8-4.4c1.2-1.1,3.7-2.2,7.4-3.3
		c2.3-0.6,3.9-1.2,4.7-1.7v-1.9c0-1.8-0.5-3.3-1.5-4.4c-1-1.1-2.4-1.7-4.1-1.7c-1.6,0-2.9,0.5-4.1,1.5s-2.1,2.3-2.5,4l-1.3-0.3
		c0.5-2.3,1.6-4.2,3.3-5.6c1.7-1.4,3.7-2.1,6-2.1c2.7,0,4.9,0.8,6.6,2.5s2.5,3.9,2.5,6.8v10.8c0,1.5,0.1,2.6,0.3,3.1
		c0.2,0.5,0.6,0.8,1.1,0.8c0.4,0,0.7-0.2,0.9-0.5c0.2-0.3,0.5-1,0.8-2h1.2c-0.1,1.6-0.6,2.8-1.5,3.8s-2,1.4-3.4,1.4
		c-2.1,0-3.5-1.2-4.3-3.6c-1.3,1.4-2.4,2.3-3.3,2.8C280.3,697.8,279.1,698.1,277.8,698.1z M284.6,692.2v-8.6
		c-0.7,0.3-1.8,0.7-3.1,1.1c-2.5,0.9-4.1,1.7-4.9,2.6c-0.7,0.8-1.1,2-1.1,3.4c0,1.3,0.4,2.3,1.1,3.3c0.8,0.9,1.7,1.4,2.7,1.4
		c1,0,1.9-0.3,3-0.9C283.4,693.8,284.2,693.1,284.6,692.2z"/>
	<path class="st0" d="M305,671.3v5.3h0.1c1-1.6,2.4-2.9,4-3.8c1.6-1,3.3-1.4,5-1.4c1.8,0,3.5,0.5,4.9,1.5c1.4,1,2.4,2.4,3,4.2
		c2.7-3.8,5.8-5.7,9.3-5.7c2.5,0,4.5,0.8,6.1,2.3c1.6,1.5,2.4,3.6,2.4,6.2v12.7c0,1.4,0.3,2.3,0.9,2.8c0.6,0.5,1.7,0.7,3.3,0.7v1.3
		h-13.4V696c1.8,0,3-0.3,3.5-0.9c0.5-0.6,0.8-1.9,0.8-3.9v-12c0-1.6-0.5-2.9-1.5-3.8c-1-0.9-2.3-1.4-4-1.4c-2.6,0-5,1.6-7.1,4.9
		v13.5c0,1.4,0.3,2.4,0.9,2.9c0.6,0.5,1.7,0.7,3.3,0.7v1.3h-13.3V696c1.9,0,3.1-0.3,3.5-0.9c0.5-0.6,0.7-1.9,0.7-3.9v-11.7
		c0-1.7-0.5-3-1.5-4c-1-1-2.3-1.5-3.9-1.5c-1.4,0-2.7,0.4-4,1.3c-1.3,0.9-2.4,2.1-3.3,3.6v13.7c0,1.3,0.3,2.2,0.9,2.7
		c0.6,0.5,1.7,0.8,3.3,0.8v1.2h-13.4V696c1.9,0,3-0.3,3.5-0.9c0.5-0.6,0.7-1.6,0.7-3.2v-15c0-1.3-0.3-2.2-0.8-2.8
		c-0.5-0.6-1.4-0.9-2.7-0.9h-1.6v-1.2l8.7-0.8H305z"/>
	<path class="st0" d="M377.6,678.4h-3.3v11.2c0,2.4,0.3,4.1,1,5.1c0.7,1,1.9,1.4,3.6,1.4v1.2h-14.7v-1.2c1.8,0,3-0.5,3.7-1.4
		c0.6-1,1-2.6,1-5.1V664c0-2.4-0.3-4.1-0.9-5c-0.6-0.9-1.9-1.4-3.7-1.4v-1.2h16.7c4.1,0,7.4,1,9.9,3c2.5,2,3.7,4.6,3.7,7.7
		c0,5-2.8,8.4-8.4,10c1.2,0.8,2.4,1.9,3.6,3.3c1.2,1.4,2.7,3.7,4.6,6.9c2.1,3.6,3.8,5.9,5,7c1.2,1.1,2.5,1.7,3.7,1.8v1.2h-8.4
		c-1.7-2.1-3.8-5.1-6.2-9.1c-2.6-4.2-4.6-6.9-6.1-8.1C381.1,678.9,379.4,678.4,377.6,678.4z M378.6,658h-4.3v18.7h5
		c3,0,5.3-0.9,7.1-2.6c1.7-1.7,2.6-4,2.6-6.8c0-2.8-0.9-5-2.8-6.7C384.2,658.8,381.7,658,378.6,658z"/>
	<path class="st0" d="M413.6,671.3h1.2v21.3c0,1.4,0.3,2.3,0.9,2.8c0.6,0.5,1.7,0.7,3.3,0.7v1.2h-13.8v-1.2c2,0,3.3-0.2,3.9-0.7
		c0.6-0.5,0.9-1.4,0.9-2.8v-15.5c0-1.5-0.3-2.5-0.8-3c-0.5-0.5-1.9-0.7-4-0.7v-1.2L413.6,671.3z M412.5,658.3c0.9,0,1.6,0.3,2.2,0.9
		c0.6,0.6,0.9,1.3,0.9,2.2c0,0.9-0.3,1.6-0.9,2.2s-1.3,0.9-2.2,0.9c-0.9,0-1.6-0.3-2.2-0.9c-0.6-0.6-0.9-1.4-0.9-2.2
		c0-0.9,0.3-1.6,0.9-2.2C410.9,658.6,411.7,658.3,412.5,658.3z"/>
	<path class="st0" d="M433.9,672.1v1.2c-1.6,0.1-2.5,0.8-2.5,2.1c0,0.6,0.2,1.4,0.6,2.3l5.6,13.5l5-12.8c0.5-1.3,0.8-2.3,0.8-2.9
		c0-1.3-1.1-2-3.3-2.2v-1.2h9.3v1.2c-1.5,0.1-2.6,0.4-3.2,0.9c-0.6,0.5-1.2,1.4-1.7,2.7l-8.2,20.9h-1.2l-8.1-19.8
		c-0.8-2-1.5-3.3-2.1-3.8c-0.6-0.5-1.7-0.9-3.2-0.9v-1.2H433.9z"/>
	<path class="st0" d="M458.6,698.1c-2,0-3.7-0.7-5.1-2c-1.4-1.3-2.1-2.9-2.1-4.8c0-1.8,0.6-3.2,1.8-4.4c1.2-1.1,3.7-2.2,7.4-3.3
		c2.3-0.6,3.9-1.2,4.7-1.7v-1.9c0-1.8-0.5-3.3-1.5-4.4c-1-1.1-2.4-1.7-4.1-1.7c-1.6,0-2.9,0.5-4.1,1.5s-2.1,2.3-2.5,4l-1.3-0.3
		c0.5-2.3,1.6-4.2,3.3-5.6c1.7-1.4,3.7-2.1,6-2.1c2.7,0,4.9,0.8,6.6,2.5s2.5,3.9,2.5,6.8v10.8c0,1.5,0.1,2.6,0.3,3.1
		c0.2,0.5,0.6,0.8,1.1,0.8c0.4,0,0.7-0.2,0.9-0.5c0.2-0.3,0.5-1,0.8-2h1.2c-0.1,1.6-0.6,2.8-1.5,3.8s-2,1.4-3.4,1.4
		c-2.1,0-3.5-1.2-4.3-3.6c-1.3,1.4-2.4,2.3-3.3,2.8C461.1,697.8,459.9,698.1,458.6,698.1z M465.4,692.2v-8.6
		c-0.7,0.3-1.8,0.7-3.1,1.1c-2.5,0.9-4.1,1.7-4.9,2.6c-0.7,0.8-1.1,2-1.1,3.4c0,1.3,0.4,2.3,1.1,3.3c0.8,0.9,1.7,1.4,2.7,1.4
		c1,0,1.9-0.3,3-0.9C464.2,693.8,464.9,693.1,465.4,692.2z"/>
	<path class="st0" d="M485.1,671.3h1.2v29.9c0,8.7-4.4,13-13.2,13h-0.7v-1.2h0.2c3.2,0,5.4-0.9,6.8-2.6c1.4-1.7,2.1-4.6,2.1-8.5
		v-25.5c0-1.3-0.3-2.2-1-2.6c-0.6-0.4-1.9-0.6-3.8-0.6v-1.2L485.1,671.3z M483.6,658.3c0.9,0,1.6,0.3,2.2,0.9
		c0.6,0.6,0.9,1.3,0.9,2.2c0,0.9-0.3,1.6-0.9,2.2s-1.3,0.9-2.2,0.9c-0.9,0-1.6-0.3-2.2-0.9c-0.6-0.6-0.9-1.4-0.9-2.2
		c0-0.9,0.3-1.6,0.9-2.2C482,658.6,482.7,658.3,483.6,658.3z"/>
	<path class="st0" d="M529.6,692v-12.5c0-1.7-0.5-3-1.4-4c-0.9-1-2.2-1.5-3.7-1.5c-1.4,0-2.7,0.4-3.8,1.1s-2.3,2-3.5,3.7v13.9
		c0,1.3,0.3,2.2,0.9,2.7c0.6,0.5,1.7,0.7,3.3,0.7v1.2h-13.5v-1.2c1.9,0,3.2-0.4,3.7-0.9c0.5-0.6,0.8-1.9,0.8-3.9v-32.9
		c0-1.5-0.3-2.6-0.8-3c-0.5-0.5-1.8-0.7-3.7-0.7v-1.2l8.1-0.9h1.2v23.9c1.6-1.9,3.1-3.2,4.4-3.9c1.3-0.8,2.8-1.1,4.4-1.1
		c2.5,0,4.5,0.8,6.1,2.4c1.6,1.6,2.4,3.7,2.4,6.4v11.2c0,2,0.3,3.3,0.8,3.9c0.5,0.6,1.6,0.9,3.3,0.9v1.2h-13.1v-1.2
		c1.7,0,2.8-0.3,3.4-0.8C529.3,694.8,529.6,693.7,529.6,692z"/>
	<path class="st0" d="M569.1,684.7c0,3.8-1.3,7-4,9.5s-5.9,3.8-9.9,3.8s-7.2-1.3-9.9-3.8s-4-5.7-4-9.5c0-3.9,1.3-7.1,3.9-9.6
		c2.6-2.5,5.9-3.8,9.9-3.8s7.3,1.3,9.9,3.8C567.8,677.7,569.1,680.9,569.1,684.7z M563.8,684.8c0-3.6-0.8-6.5-2.3-8.7
		c-1.5-2.2-3.6-3.3-6.3-3.3s-4.7,1.1-6.3,3.2c-1.5,2.2-2.3,5.1-2.3,8.8c0,3.6,0.8,6.5,2.3,8.7c1.5,2.2,3.6,3.2,6.3,3.2
		s4.8-1.1,6.3-3.3C563,691.2,563.8,688.3,563.8,684.8z"/>
	<path class="st0" d="M613.2,671.3v8.9H612c-0.5-2.3-1.6-4.2-3.1-5.5c-1.5-1.3-3.3-2-5.4-2c-2.5,0-4.5,1-6.1,2.9
		c-1.6,2-2.4,4.5-2.4,7.6c0,3.4,0.9,6.4,2.8,8.9c1.9,2.5,4.1,3.8,6.7,3.8c1.7,0,3.4-0.5,5.1-1.4c1.7-0.9,3.1-2.2,4.3-3.9v1.8
		c-2.7,3.7-6.5,5.6-11.1,5.6c-3.7,0-6.8-1.2-9.1-3.6c-2.4-2.4-3.5-5.4-3.5-9.2c0-3.9,1.3-7.2,3.8-9.9c2.5-2.7,5.6-4.1,9.2-4.1
		c1.6,0,3.4,0.3,5.4,1c0.9,0.3,1.5,0.4,1.8,0.4c0.7,0,1.3-0.5,1.7-1.4H613.2z"/>
	<path class="st0" d="M638.4,692v-12.5c0-1.7-0.5-3-1.4-4s-2.2-1.5-3.7-1.5c-1.4,0-2.7,0.4-3.8,1.1s-2.3,2-3.5,3.7v13.9
		c0,1.3,0.3,2.2,0.9,2.7c0.6,0.5,1.7,0.7,3.3,0.7v1.2h-13.5v-1.2c1.9,0,3.2-0.4,3.7-0.9s0.8-1.9,0.8-3.9v-32.9c0-1.5-0.3-2.6-0.8-3
		c-0.5-0.5-1.8-0.7-3.7-0.7v-1.2l8.1-0.9h1.2v23.9c1.6-1.9,3.1-3.2,4.4-3.9c1.3-0.8,2.8-1.1,4.4-1.1c2.5,0,4.5,0.8,6.1,2.4
		c1.6,1.6,2.4,3.7,2.4,6.4v11.2c0,2,0.3,3.3,0.8,3.9c0.5,0.6,1.6,0.9,3.3,0.9v1.2h-13.1v-1.2c1.7,0,2.8-0.3,3.4-0.8
		C638.1,694.8,638.4,693.7,638.4,692z"/>
	<path class="st0" d="M674,671.3h1.2v21.2c0,1.4,0.3,2.3,0.9,2.8c0.6,0.5,1.7,0.7,3.5,0.7v1.2l-9.2,0.5v-4.6h-0.1
		c-2.5,3.3-5.5,4.9-8.8,4.9c-2.4,0-4.4-0.8-5.9-2.4c-1.5-1.6-2.3-3.6-2.3-6.1v-12.9c0-1.3-0.3-2.2-1-2.6c-0.7-0.5-1.8-0.7-3.5-0.7
		v-1.2l8.1-0.8h1.2v18c0,1.8,0.5,3.2,1.5,4.2c1,1,2.4,1.5,4.2,1.5c2.4,0,4.6-1.4,6.7-4.1v-13.6c0-1.7-0.3-2.8-0.8-3.3
		c-0.5-0.4-1.9-0.7-4.1-0.7v-1.2L674,671.3z"/>
	<path class="st0" d="M701.6,676.4l-6.5,6l10.5,10.5c1.2,1.2,2.2,2,3,2.5c0.8,0.4,1.9,0.7,3.1,0.8v1.2h-8.3l-13.1-12.6
		c0,6.6,0.3,10.2,0.8,10.7c0.6,0.5,1.7,0.7,3.4,0.7v1.2H681v-1.2c2,0,3.2-0.4,3.7-0.9c0.5-0.6,0.8-1.9,0.8-3.9V658
		c0-1.5-0.3-2.4-0.8-2.8c-0.5-0.4-1.8-0.6-3.7-0.6v-1.2l8.1-0.9h1.2v31.9l6.8-6.2c1.3-1.2,1.9-2.3,1.9-3.2c0-1.1-1-1.7-3.1-1.7v-1.2
		h13.8v1.2h-1.2C706.1,673.3,703.8,674.3,701.6,676.4z"/>
	<path class="st0" d="M721,671.3h1.2v21.3c0,1.4,0.3,2.3,0.9,2.8c0.6,0.5,1.7,0.7,3.3,0.7v1.2h-13.8v-1.2c2,0,3.3-0.2,3.9-0.7
		c0.6-0.5,0.9-1.4,0.9-2.8v-15.5c0-1.5-0.3-2.5-0.8-3c-0.5-0.5-1.9-0.7-4-0.7v-1.2L721,671.3z M719.9,658.3c0.9,0,1.6,0.3,2.2,0.9
		c0.6,0.6,0.9,1.3,0.9,2.2c0,0.9-0.3,1.6-0.9,2.2s-1.3,0.9-2.2,0.9c-0.9,0-1.6-0.3-2.2-0.9c-0.6-0.6-0.9-1.4-0.9-2.2
		c0-0.9,0.3-1.6,0.9-2.2C718.3,658.6,719,658.3,719.9,658.3z"/>
	<path class="st0" d="M753.9,671.3v4.2c1.6-1.6,3.1-2.7,4.4-3.3s2.8-1,4.4-1c3.3,0,6,1.2,8.2,3.7c2.2,2.5,3.2,5.6,3.2,9.4
		c0,3.9-1.2,7.1-3.6,9.7c-2.4,2.6-5.4,3.9-9,3.9c-2.5,0-5-1-7.6-3v16.6c0,1.7,0.3,2.8,0.9,3.4c0.6,0.5,1.7,0.8,3.3,0.8v1.2h-13.5
		v-1.2c1.7,0,2.9-0.2,3.5-0.7c0.6-0.5,0.9-1.4,0.9-2.8v-35.2c0-1.7-0.3-2.8-0.8-3.2c-0.5-0.5-1.7-0.7-3.7-0.7v-1.2l8.1-0.8H753.9z
		 M753.9,677.5v15.8c2,2.1,4.3,3.1,7,3.1c2.3,0,4.1-1.1,5.7-3.2c1.5-2.1,2.3-4.7,2.3-7.9c0-3.4-0.8-6.2-2.3-8.4
		c-1.5-2.2-3.5-3.3-5.8-3.3C758.4,673.7,756.1,674.9,753.9,677.5z"/>
	<path class="st0" d="M806.8,684.7c0,3.8-1.3,7-4,9.5s-5.9,3.8-9.9,3.8s-7.2-1.3-9.9-3.8s-4-5.7-4-9.5c0-3.9,1.3-7.1,3.9-9.6
		c2.6-2.5,5.9-3.8,9.9-3.8s7.3,1.3,9.9,3.8C805.5,677.7,806.8,680.9,806.8,684.7z M801.6,684.8c0-3.6-0.8-6.5-2.3-8.7
		c-1.5-2.2-3.6-3.3-6.3-3.3s-4.7,1.1-6.3,3.2c-1.5,2.2-2.3,5.1-2.3,8.8c0,3.6,0.8,6.5,2.3,8.7c1.5,2.2,3.6,3.2,6.3,3.2
		s4.8-1.1,6.3-3.3C800.8,691.2,801.6,688.3,801.6,684.8z"/>
	<path class="st0" d="M839.5,684.7c0,3.8-1.3,7-4,9.5s-5.9,3.8-9.9,3.8s-7.2-1.3-9.9-3.8s-4-5.7-4-9.5c0-3.9,1.3-7.1,3.9-9.6
		c2.6-2.5,5.9-3.8,9.9-3.8s7.3,1.3,9.9,3.8C838.2,677.7,839.5,680.9,839.5,684.7z M834.2,684.8c0-3.6-0.8-6.5-2.3-8.7
		c-1.5-2.2-3.6-3.3-6.3-3.3s-4.7,1.1-6.3,3.2c-1.5,2.2-2.3,5.1-2.3,8.8c0,3.6,0.8,6.5,2.3,8.7c1.5,2.2,3.6,3.2,6.3,3.2
		s4.8-1.1,6.3-3.3C833.5,691.2,834.2,688.3,834.2,684.8z"/>
	<path class="st0" d="M852.6,671.3v5.5c2.3-2,4.1-3.4,5.4-4.2c1.3-0.8,2.4-1.2,3.2-1.2c1.6,0,3.1,0.7,4.6,2l-1.9,4.5
		c-2.7-1.5-4.7-2.2-6-2.2c-1.4,0-3.2,1-5.4,3.1v13.9c0,1.4,0.3,2.3,0.9,2.8c0.6,0.5,1.7,0.7,3.3,0.7v1.2h-13.3v-1.2
		c1.8,0,2.9-0.3,3.5-0.8c0.5-0.6,0.8-1.9,0.8-4v-13.8c0-1.7-0.3-2.9-0.9-3.4c-0.6-0.5-2-0.8-4.3-0.8v-1.2l8.8-0.8H852.6z"/>
	<path class="st0" d="M877.3,671.3h1.2v21.3c0,1.4,0.3,2.3,0.9,2.8c0.6,0.5,1.7,0.7,3.3,0.7v1.2h-13.8v-1.2c2,0,3.3-0.2,3.9-0.7
		c0.6-0.5,0.9-1.4,0.9-2.8v-15.5c0-1.5-0.3-2.5-0.8-3c-0.5-0.5-1.9-0.7-4-0.7v-1.2L877.3,671.3z M876.2,658.3c0.9,0,1.6,0.3,2.2,0.9
		c0.6,0.6,0.9,1.3,0.9,2.2c0,0.9-0.3,1.6-0.9,2.2s-1.3,0.9-2.2,0.9c-0.9,0-1.6-0.3-2.2-0.9c-0.6-0.6-0.9-1.4-0.9-2.2
		c0-0.9,0.3-1.6,0.9-2.2C874.6,658.6,875.3,658.3,876.2,658.3z"/>
	<path class="st0" d="M890.5,709.5v-1.2c1.9-1,3.2-2,3.9-3.2c0.7-1.2,1.1-2.8,1.1-4.8c0-0.5-0.1-0.9-0.2-1c-0.2-0.2-0.5-0.2-1.1-0.2
		c-1,0-1.9-0.3-2.6-1c-0.7-0.7-1.1-1.5-1.1-2.4c0-0.9,0.3-1.7,1-2.4c0.7-0.6,1.5-1,2.4-1c1.6,0,2.8,0.6,3.8,1.9
		c1,1.3,1.5,2.9,1.5,4.9c0,2.5-0.8,4.7-2.4,6.6C895.2,707.7,893.1,708.9,890.5,709.5z"/>
</g>
<g>
	<path class="st0" d="M248.3,755.4v4.2c1.6-1.6,3.1-2.7,4.4-3.3c1.3-0.6,2.8-1,4.4-1c3.3,0,6,1.2,8.2,3.7c2.2,2.5,3.2,5.6,3.2,9.4
		c0,3.9-1.2,7.1-3.6,9.7c-2.4,2.6-5.4,3.9-9,3.9c-2.5,0-5-1-7.6-3v16.6c0,1.7,0.3,2.8,0.9,3.4c0.6,0.5,1.7,0.8,3.3,0.8v1.2H239V800
		c1.7,0,2.9-0.2,3.5-0.7c0.6-0.5,0.9-1.4,0.9-2.8v-35.2c0-1.7-0.3-2.8-0.8-3.2c-0.5-0.5-1.7-0.7-3.7-0.7v-1.2l8.1-0.8H248.3z
		 M248.3,761.5v15.8c2,2.1,4.3,3.1,7,3.1c2.3,0,4.1-1.1,5.7-3.2c1.5-2.1,2.3-4.7,2.3-7.9c0-3.4-0.8-6.2-2.3-8.4
		c-1.5-2.2-3.5-3.3-5.8-3.3C252.7,757.7,250.5,759,248.3,761.5z"/>
	<path class="st0" d="M280.3,782.2c-2,0-3.7-0.7-5.1-2c-1.4-1.3-2.1-2.9-2.1-4.8c0-1.8,0.6-3.2,1.8-4.4c1.2-1.1,3.7-2.2,7.4-3.3
		c2.3-0.6,3.9-1.2,4.7-1.7v-1.9c0-1.8-0.5-3.3-1.5-4.4c-1-1.1-2.4-1.7-4.1-1.7c-1.6,0-2.9,0.5-4.1,1.5s-2.1,2.3-2.5,4l-1.3-0.3
		c0.5-2.3,1.6-4.2,3.3-5.6c1.7-1.4,3.7-2.1,6-2.1c2.7,0,4.9,0.8,6.6,2.5s2.5,3.9,2.5,6.8v10.8c0,1.5,0.1,2.6,0.3,3.1
		c0.2,0.5,0.6,0.8,1.1,0.8c0.4,0,0.7-0.2,0.9-0.5c0.2-0.3,0.5-1,0.8-2h1.2c-0.1,1.6-0.6,2.8-1.5,3.8s-2,1.4-3.4,1.4
		c-2.1,0-3.5-1.2-4.3-3.6c-1.3,1.4-2.4,2.3-3.3,2.8C282.8,781.9,281.7,782.2,280.3,782.2z M287.1,776.2v-8.6
		c-0.7,0.3-1.8,0.7-3.1,1.1c-2.5,0.9-4.1,1.7-4.9,2.6c-0.7,0.8-1.1,2-1.1,3.4c0,1.3,0.4,2.3,1.1,3.3c0.8,0.9,1.7,1.4,2.7,1.4
		c1,0,1.9-0.3,3-0.9C286,777.9,286.7,777.1,287.1,776.2z"/>
	<path class="st0" d="M307.6,755.4v5.5c2.3-2,4.1-3.4,5.4-4.2c1.3-0.8,2.4-1.2,3.2-1.2c1.6,0,3.1,0.7,4.6,2l-1.9,4.5
		c-2.7-1.5-4.7-2.2-6-2.2c-1.4,0-3.2,1-5.4,3.1v13.9c0,1.4,0.3,2.3,0.9,2.8c0.6,0.5,1.7,0.7,3.3,0.7v1.2h-13.3v-1.2
		c1.8,0,2.9-0.3,3.5-0.8c0.5-0.6,0.8-1.9,0.8-4v-13.8c0-1.7-0.3-2.9-0.9-3.4c-0.6-0.5-2-0.8-4.3-0.8v-1.2l8.8-0.8H307.6z"/>
	<path class="st0" d="M333.6,747.5h1.2v8.5h8.8v1.8h-8.8v16.3c0,1.7,0.4,3,1.2,3.9c0.8,0.9,1.9,1.4,3.4,1.4c1.7,0,3.3-0.8,4.7-2.4
		l0.8,0.9c-2.2,2.8-4.7,4.2-7.6,4.2c-2.2,0-3.9-0.7-5.3-2.1c-1.3-1.4-2-3.1-2-5.3v-16.9h-4.8v-1.2
		C328.7,754.9,331.5,751.9,333.6,747.5z"/>
	<path class="st0" d="M358.2,756.2v1.2c-1.4,0.2-2.1,0.9-2.1,2.2c0,0.5,0.1,1,0.4,1.7l6.1,14.3l4.4-13.3c0.3-1.1,0.5-2,0.5-2.6
		c0-1.4-0.8-2.1-2.5-2.2v-1.2h8.9v1.2c-1.3,0-2.5,0.5-3.3,1.4c-0.9,0.9-1.7,2.4-2.4,4.5L358,793.1c-1,2.8-2.2,5.1-3.7,6.7
		c-1.5,1.6-3.1,2.5-4.6,2.5c-0.9,0-2-0.4-3.1-1.1l1.6-4.4c0.9,0.4,1.7,0.6,2.4,0.6c1.5,0,2.8-0.5,3.8-1.4c1-1,1.9-2.5,2.7-4.8
		l3.2-9.2l-9.1-20.9c-0.7-1.5-1.3-2.5-2-3c-0.7-0.5-1.7-0.7-3.1-0.8v-1.2H358.2z"/>
	<path class="st0" d="M412,760.4l-6.5,6l10.5,10.5c1.2,1.2,2.2,2,3,2.5c0.8,0.4,1.9,0.7,3.1,0.8v1.2h-8.3l-13.1-12.6
		c0,6.6,0.3,10.2,0.8,10.7c0.6,0.5,1.7,0.7,3.4,0.7v1.2h-13.6v-1.2c1.9,0,3.2-0.4,3.7-0.9c0.5-0.6,0.8-1.9,0.8-3.9v-33.2
		c0-1.5-0.3-2.4-0.8-2.8c-0.5-0.4-1.8-0.6-3.7-0.6v-1.2l8.1-0.9h1.2v31.9l6.8-6.2c1.3-1.2,1.9-2.3,1.9-3.2c0-1.1-1-1.7-3.1-1.7v-1.2
		h13.8v1.2h-1.2C416.5,757.4,414.1,758.4,412,760.4z"/>
	<path class="st0" d="M447.5,774.9v1.8c-1.5,2-3.1,3.3-4.7,4.2c-1.6,0.8-3.5,1.3-5.7,1.3c-3.9,0-7.2-1.2-9.8-3.7
		c-2.6-2.5-3.8-5.6-3.8-9.4c0-3.8,1.2-7.1,3.7-9.7c2.4-2.6,5.4-3.9,9-3.9c2.9,0,5.5,1,7.7,3c2.2,2,3.3,4.3,3.3,7.1v0.5h-18.6v0.3
		c0,2.8,0.4,5.2,1.3,7.3c0.8,2.1,2.1,3.7,3.7,4.8c1.6,1.2,3.3,1.7,5.1,1.7c1.6,0,3.1-0.3,4.2-1C444,778.4,445.5,777,447.5,774.9z
		 M428.5,764.7h13.8v-0.5c0-2.3-0.6-4-1.9-5.4c-1.3-1.3-2.9-2-4.8-2c-2,0-3.7,0.7-4.9,2.1C429.3,760.4,428.6,762.3,428.5,764.7z"/>
	<path class="st0" d="M473.9,736.6h1.2v22.6c1.1-1.2,2.4-2.1,3.9-2.8s3.1-1,4.6-1c3.3,0,6.1,1.2,8.3,3.6c2.3,2.4,3.4,5.3,3.4,8.8
		c0,4.1-1.5,7.4-4.6,10c-3.1,2.6-7.3,3.9-12.6,3.9c-2.1,0-4.7-0.3-7.8-0.8V743c0-2-0.2-3.2-0.7-3.7c-0.5-0.5-1.7-0.7-3.7-0.7v-1.2
		L473.9,736.6z M475.1,761v14.4c0,1.9,0.3,3.2,1,3.9c0.6,0.7,1.8,1,3.3,1c3.3,0,5.9-1.1,7.8-3.2c1.9-2.1,2.9-5.1,2.9-8.9
		c0-3.2-0.8-5.8-2.5-7.8c-1.7-2-3.6-3-5.9-3C479.2,757.5,477.1,758.7,475.1,761z"/>
	<path class="st0" d="M507.2,755.4h1.2v21.3c0,1.4,0.3,2.3,0.9,2.8c0.6,0.5,1.7,0.7,3.3,0.7v1.2h-13.8v-1.2c2,0,3.3-0.2,3.9-0.7
		c0.6-0.5,0.9-1.4,0.9-2.8v-15.5c0-1.5-0.3-2.5-0.8-3c-0.5-0.5-1.9-0.7-4-0.7v-1.2L507.2,755.4z M506.1,742.4c0.9,0,1.6,0.3,2.2,0.9
		c0.6,0.6,0.9,1.3,0.9,2.2c0,0.9-0.3,1.6-0.9,2.2s-1.3,0.9-2.2,0.9c-0.9,0-1.6-0.3-2.2-0.9c-0.6-0.6-0.9-1.4-0.9-2.2
		c0-0.9,0.3-1.6,0.9-2.2C504.5,742.7,505.2,742.4,506.1,742.4z"/>
	<path class="st0" d="M523.9,755.4v5c2.9-3.4,6-5,9.1-5c2.4,0,4.5,0.8,6.1,2.5s2.4,3.9,2.4,6.6v11.4c0,1.7,0.3,2.9,0.9,3.5
		c0.6,0.6,1.7,0.8,3.4,0.8v1.2h-13.5v-1.2c1.7,0,2.8-0.2,3.4-0.6c0.6-0.4,0.9-1.3,0.9-2.5v-13.2c0-1.8-0.5-3.2-1.6-4.2
		c-1.1-1-2.4-1.6-4.1-1.6c-2.4,0-4.8,1.6-7.2,4.9v12.4c0,2.1,0.3,3.4,0.8,4c0.5,0.6,1.7,0.9,3.4,0.9v1.2h-13.3v-1.2
		c1.9,0,3.1-0.3,3.6-0.9c0.4-0.6,0.7-1.9,0.7-3.9v-14.3c0-1.5-0.3-2.5-0.8-3c-0.5-0.5-1.7-0.7-3.4-0.7v-1.2l7.9-0.8H523.9z"/>
	<path class="st0" d="M556.1,782.2c-2,0-3.7-0.7-5.1-2c-1.4-1.3-2.1-2.9-2.1-4.8c0-1.8,0.6-3.2,1.8-4.4c1.2-1.1,3.7-2.2,7.4-3.3
		c2.3-0.6,3.9-1.2,4.7-1.7v-1.9c0-1.8-0.5-3.3-1.5-4.4c-1-1.1-2.4-1.7-4.1-1.7c-1.6,0-2.9,0.5-4.1,1.5c-1.2,1-2.1,2.3-2.5,4
		l-1.3-0.3c0.5-2.3,1.6-4.2,3.3-5.6c1.7-1.4,3.7-2.1,6-2.1c2.7,0,4.9,0.8,6.6,2.5c1.7,1.6,2.5,3.9,2.5,6.8v10.8
		c0,1.5,0.1,2.6,0.3,3.1s0.6,0.8,1.1,0.8c0.4,0,0.7-0.2,0.9-0.5c0.2-0.3,0.5-1,0.8-2h1.2c-0.1,1.6-0.6,2.8-1.5,3.8
		c-0.9,0.9-2,1.4-3.4,1.4c-2.1,0-3.5-1.2-4.3-3.6c-1.3,1.4-2.4,2.3-3.3,2.8C558.6,781.9,557.5,782.2,556.1,782.2z M562.9,776.2v-8.6
		c-0.7,0.3-1.8,0.7-3.1,1.1c-2.5,0.9-4.1,1.7-4.9,2.6c-0.7,0.8-1.1,2-1.1,3.4c0,1.3,0.4,2.3,1.1,3.3c0.8,0.9,1.7,1.4,2.7,1.4
		c1,0,2-0.3,3-0.9C561.7,777.9,562.5,777.1,562.9,776.2z"/>
	<path class="st0" d="M610.1,760.4l-6.5,6l10.5,10.5c1.2,1.2,2.2,2,3,2.5c0.8,0.4,1.9,0.7,3.1,0.8v1.2H612l-13.1-12.6
		c0,6.6,0.3,10.2,0.8,10.7c0.6,0.5,1.7,0.7,3.4,0.7v1.2h-13.6v-1.2c2,0,3.2-0.4,3.7-0.9c0.5-0.6,0.8-1.9,0.8-3.9v-33.2
		c0-1.5-0.3-2.4-0.8-2.8c-0.5-0.4-1.8-0.6-3.7-0.6v-1.2l8.1-0.9h1.2v31.9l6.8-6.2c1.3-1.2,1.9-2.3,1.9-3.2c0-1.1-1-1.7-3.1-1.7v-1.2
		h13.8v1.2h-1.2C614.6,757.4,612.3,758.4,610.1,760.4z"/>
	<path class="st0" d="M642,776.1v-12.5c0-1.7-0.5-3-1.4-4s-2.2-1.5-3.7-1.5c-1.4,0-2.7,0.4-3.8,1.1s-2.3,2-3.5,3.7v13.9
		c0,1.3,0.3,2.2,0.9,2.7c0.6,0.5,1.7,0.7,3.3,0.7v1.2h-13.5v-1.2c1.9,0,3.2-0.4,3.7-0.9s0.8-1.9,0.8-3.9v-32.9c0-1.5-0.3-2.6-0.8-3
		c-0.5-0.5-1.8-0.7-3.7-0.7v-1.2l8.1-0.9h1.2v23.9c1.6-1.9,3.1-3.2,4.4-3.9c1.3-0.8,2.8-1.1,4.4-1.1c2.5,0,4.5,0.8,6.1,2.4
		c1.6,1.6,2.4,3.7,2.4,6.4v11.2c0,2,0.3,3.3,0.8,3.9c0.5,0.6,1.6,0.9,3.3,0.9v1.2h-13.1v-1.2c1.7,0,2.8-0.3,3.4-0.8
		C641.8,778.8,642,777.7,642,776.1z"/>
	<path class="st0" d="M677.6,755.4h1.2v21.2c0,1.4,0.3,2.3,0.9,2.8c0.6,0.5,1.7,0.7,3.5,0.7v1.2l-9.2,0.5v-4.6h-0.1
		c-2.5,3.3-5.5,4.9-8.8,4.9c-2.4,0-4.4-0.8-5.9-2.4c-1.5-1.6-2.3-3.6-2.3-6.1v-12.9c0-1.3-0.3-2.2-1-2.6c-0.7-0.5-1.8-0.7-3.5-0.7
		v-1.2l8.1-0.8h1.2v18c0,1.8,0.5,3.2,1.5,4.2c1,1,2.4,1.5,4.2,1.5c2.4,0,4.6-1.4,6.7-4.1v-13.6c0-1.7-0.3-2.8-0.8-3.3
		c-0.5-0.4-1.9-0.7-4.1-0.7v-1.2L677.6,755.4z"/>
	<path class="st0" d="M702.7,755.4v7.8h-1.4c-0.2-2-0.9-3.5-2.1-4.6c-1.2-1.1-2.6-1.7-4.2-1.7c-1.3,0-2.3,0.3-3,0.9
		c-0.8,0.6-1.1,1.5-1.1,2.5c0,1,0.4,1.9,1.1,2.7c0.7,0.8,2.2,1.7,4.6,2.8c3.1,1.4,5.1,2.7,6.1,4c1,1.3,1.5,2.8,1.5,4.6
		c0,2.1-0.8,3.9-2.4,5.5s-3.4,2.3-5.6,2.3c-1.1,0-2.6-0.4-4.4-1.2c-1-0.4-1.7-0.7-2-0.7c-0.4,0-0.8,0.2-1.1,0.5s-0.5,0.7-0.5,1.2
		h-1.2v-8.6h1.2c0.4,2.3,1.4,4.1,2.9,5.4c1.5,1.3,3.2,2,5.2,2c1.3,0,2.3-0.4,3.2-1.3c0.8-0.8,1.3-1.9,1.3-3.1c0-1.2-0.4-2.2-1.2-3.1
		c-0.8-0.9-2.5-1.9-5.1-3c-2.9-1.3-4.8-2.5-5.8-3.6c-0.9-1.1-1.4-2.5-1.4-4c0-2,0.8-3.7,2.3-5.1c1.5-1.4,3.3-2.1,5.4-2.1
		c1,0,2,0.2,3.2,0.7c0.8,0.3,1.5,0.5,2,0.5c0.7,0,1.2-0.4,1.5-1.2H702.7z"/>
	<path class="st0" d="M728.3,776.1v-12.5c0-1.7-0.5-3-1.4-4s-2.2-1.5-3.7-1.5c-1.4,0-2.7,0.4-3.8,1.1s-2.3,2-3.5,3.7v13.9
		c0,1.3,0.3,2.2,0.9,2.7c0.6,0.5,1.7,0.7,3.3,0.7v1.2h-13.5v-1.2c1.9,0,3.2-0.4,3.7-0.9s0.8-1.9,0.8-3.9v-32.9c0-1.5-0.3-2.6-0.8-3
		c-0.5-0.5-1.8-0.7-3.7-0.7v-1.2l8.1-0.9h1.2v23.9c1.6-1.9,3.1-3.2,4.4-3.9c1.3-0.8,2.8-1.1,4.4-1.1c2.5,0,4.5,0.8,6.1,2.4
		c1.6,1.6,2.4,3.7,2.4,6.4v11.2c0,2,0.3,3.3,0.8,3.9c0.5,0.6,1.6,0.9,3.3,0.9v1.2H724v-1.2c1.7,0,2.8-0.3,3.4-0.8
		C728,778.8,728.3,777.7,728.3,776.1z"/>
	<path class="st0" d="M747,755.4h1.2v21.3c0,1.4,0.3,2.3,0.9,2.8c0.6,0.5,1.7,0.7,3.3,0.7v1.2h-13.8v-1.2c2,0,3.3-0.2,3.9-0.7
		c0.6-0.5,0.9-1.4,0.9-2.8v-15.5c0-1.5-0.3-2.5-0.8-3c-0.5-0.5-1.9-0.7-4-0.7v-1.2L747,755.4z M745.9,742.4c0.9,0,1.6,0.3,2.2,0.9
		c0.6,0.6,0.9,1.3,0.9,2.2c0,0.9-0.3,1.6-0.9,2.2s-1.3,0.9-2.2,0.9c-0.9,0-1.6-0.3-2.2-0.9c-0.6-0.6-0.9-1.4-0.9-2.2
		c0-0.9,0.3-1.6,0.9-2.2C744.2,742.7,745,742.4,745.9,742.4z"/>
	<path class="st0" d="M767.2,756.2v1.2c-1.4,0.2-2.1,0.9-2.1,2.2c0,0.5,0.1,1,0.4,1.7l6.1,14.3l4.4-13.3c0.3-1.1,0.5-2,0.5-2.6
		c0-1.4-0.8-2.1-2.5-2.2v-1.2h8.9v1.2c-1.3,0-2.5,0.5-3.3,1.4c-0.9,0.9-1.7,2.4-2.4,4.5L767,793.1c-1,2.8-2.2,5.1-3.7,6.7
		c-1.5,1.6-3.1,2.5-4.6,2.5c-0.9,0-2-0.4-3.1-1.1l1.6-4.4c0.9,0.4,1.7,0.6,2.4,0.6c1.5,0,2.8-0.5,3.8-1.4c1-1,1.9-2.5,2.7-4.8
		l3.2-9.2l-9.1-20.9c-0.7-1.5-1.3-2.5-2-3c-0.7-0.5-1.7-0.7-3.1-0.8v-1.2H767.2z"/>
	<path class="st0" d="M792.3,782.2c-2,0-3.7-0.7-5.1-2c-1.4-1.3-2.1-2.9-2.1-4.8c0-1.8,0.6-3.2,1.8-4.4c1.2-1.1,3.7-2.2,7.4-3.3
		c2.3-0.6,3.9-1.2,4.7-1.7v-1.9c0-1.8-0.5-3.3-1.5-4.4c-1-1.1-2.4-1.7-4.1-1.7c-1.6,0-2.9,0.5-4.1,1.5c-1.2,1-2.1,2.3-2.5,4
		l-1.3-0.3c0.5-2.3,1.6-4.2,3.3-5.6c1.7-1.4,3.7-2.1,6-2.1c2.7,0,4.9,0.8,6.6,2.5c1.7,1.6,2.5,3.9,2.5,6.8v10.8
		c0,1.5,0.1,2.6,0.3,3.1s0.6,0.8,1.1,0.8c0.4,0,0.7-0.2,0.9-0.5c0.2-0.3,0.5-1,0.8-2h1.2c-0.1,1.6-0.6,2.8-1.5,3.8
		c-0.9,0.9-2,1.4-3.4,1.4c-2.1,0-3.5-1.2-4.3-3.6c-1.3,1.4-2.4,2.3-3.3,2.8C794.8,781.9,793.7,782.2,792.3,782.2z M799.1,776.2v-8.6
		c-0.7,0.3-1.8,0.7-3.1,1.1c-2.5,0.9-4.1,1.7-4.9,2.6c-0.7,0.8-1.1,2-1.1,3.4c0,1.3,0.4,2.3,1.1,3.3c0.8,0.9,1.7,1.4,2.7,1.4
		c1,0,2-0.3,3-0.9C798,777.9,798.7,777.1,799.1,776.2z"/>
	<path class="st0" d="M818.8,755.4v5c2.9-3.4,6-5,9.1-5c2.4,0,4.5,0.8,6.1,2.5s2.4,3.9,2.4,6.6v11.4c0,1.7,0.3,2.9,0.9,3.5
		c0.6,0.6,1.7,0.8,3.4,0.8v1.2h-13.5v-1.2c1.7,0,2.8-0.2,3.4-0.6c0.6-0.4,0.9-1.3,0.9-2.5v-13.2c0-1.8-0.5-3.2-1.6-4.2
		s-2.4-1.6-4.1-1.6c-2.4,0-4.8,1.6-7.2,4.9v12.4c0,2.1,0.3,3.4,0.8,4c0.5,0.6,1.7,0.9,3.4,0.9v1.2h-13.3v-1.2c1.9,0,3.1-0.3,3.6-0.9
		c0.4-0.6,0.7-1.9,0.7-3.9v-14.3c0-1.5-0.3-2.5-0.8-3c-0.5-0.5-1.7-0.7-3.4-0.7v-1.2l7.9-0.8H818.8z"/>
</g>
<g>
	<path class="st0" d="M295.9,839.5v5.5c2.3-2,4.1-3.4,5.4-4.2c1.3-0.8,2.4-1.2,3.2-1.2c1.6,0,3.1,0.7,4.6,2l-1.9,4.5
		c-2.7-1.5-4.7-2.2-6-2.2c-1.4,0-3.2,1-5.4,3.1v13.9c0,1.4,0.3,2.3,0.9,2.8c0.6,0.5,1.7,0.7,3.3,0.7v1.2h-13.3v-1.2
		c1.8,0,2.9-0.3,3.5-0.8c0.5-0.6,0.8-1.9,0.8-4v-13.8c0-1.7-0.3-2.9-0.9-3.4c-0.6-0.5-2-0.8-4.3-0.8v-1.2l8.8-0.8H295.9z"/>
	<path class="st0" d="M335.9,859v1.8c-1.5,2-3.1,3.3-4.7,4.2c-1.6,0.8-3.5,1.3-5.7,1.3c-3.9,0-7.2-1.2-9.8-3.7
		c-2.6-2.5-3.8-5.6-3.8-9.4c0-3.8,1.2-7.1,3.7-9.7c2.4-2.6,5.4-3.9,9-3.9c2.9,0,5.5,1,7.7,3c2.2,2,3.3,4.3,3.3,7.1v0.5h-18.6v0.3
		c0,2.8,0.4,5.2,1.3,7.3c0.8,2.1,2.1,3.7,3.7,4.8c1.6,1.2,3.3,1.7,5.1,1.7c1.6,0,3.1-0.3,4.2-1C332.3,862.5,333.9,861.1,335.9,859z
		 M316.9,848.8h13.8v-0.5c0-2.3-0.6-4-1.9-5.4c-1.3-1.3-2.9-2-4.8-2c-2,0-3.7,0.7-4.9,2.1C317.7,844.5,317,846.4,316.9,848.8z"/>
	<path class="st0" d="M360.1,860.2v-12.5c0-1.7-0.5-3-1.4-4c-0.9-1-2.2-1.5-3.7-1.5c-1.4,0-2.7,0.4-3.8,1.1s-2.3,2-3.5,3.7v13.9
		c0,1.3,0.3,2.2,0.9,2.7c0.6,0.5,1.7,0.7,3.3,0.7v1.2h-13.5v-1.2c1.9,0,3.2-0.4,3.7-0.9c0.5-0.6,0.8-1.9,0.8-3.9v-32.9
		c0-1.5-0.3-2.6-0.8-3c-0.5-0.5-1.8-0.7-3.7-0.7v-1.2l8.1-0.9h1.2v23.9c1.6-1.9,3.1-3.2,4.4-3.9c1.3-0.8,2.8-1.1,4.4-1.1
		c2.5,0,4.5,0.8,6.1,2.4c1.6,1.6,2.4,3.7,2.4,6.4v11.2c0,2,0.3,3.3,0.8,3.9c0.5,0.6,1.6,0.9,3.3,0.9v1.2h-13.1v-1.2
		c1.7,0,2.8-0.3,3.4-0.8C359.8,862.9,360.1,861.8,360.1,860.2z"/>
	<path class="st0" d="M395.3,839.5h1.2v29.9c0,8.7-4.4,13-13.2,13h-0.7v-1.2h0.2c3.2,0,5.4-0.9,6.8-2.6c1.4-1.7,2.1-4.6,2.1-8.5
		v-25.5c0-1.3-0.3-2.2-1-2.6c-0.6-0.4-1.9-0.6-3.8-0.6v-1.2L395.3,839.5z M393.8,826.4c0.9,0,1.6,0.3,2.2,0.9
		c0.6,0.6,0.9,1.3,0.9,2.2c0,0.9-0.3,1.6-0.9,2.2s-1.3,0.9-2.2,0.9c-0.9,0-1.6-0.3-2.2-0.9c-0.6-0.6-0.9-1.4-0.9-2.2
		c0-0.9,0.3-1.6,0.9-2.2C392.1,826.7,392.9,826.4,393.8,826.4z"/>
	<path class="st0" d="M411.1,866.2c-2,0-3.7-0.7-5.1-2c-1.4-1.3-2.1-2.9-2.1-4.8c0-1.8,0.6-3.2,1.8-4.4c1.2-1.1,3.7-2.2,7.4-3.3
		c2.3-0.6,3.9-1.2,4.7-1.7v-1.9c0-1.8-0.5-3.3-1.5-4.4c-1-1.1-2.4-1.7-4.1-1.7c-1.6,0-2.9,0.5-4.1,1.5s-2.1,2.3-2.5,4l-1.3-0.3
		c0.5-2.3,1.6-4.2,3.3-5.6c1.7-1.4,3.7-2.1,6-2.1c2.7,0,4.9,0.8,6.6,2.5s2.5,3.9,2.5,6.8v10.8c0,1.5,0.1,2.6,0.3,3.1
		c0.2,0.5,0.6,0.8,1.1,0.8c0.4,0,0.7-0.2,0.9-0.5c0.2-0.3,0.5-1,0.8-2h1.2c-0.1,1.6-0.6,2.8-1.5,3.8s-2,1.4-3.4,1.4
		c-2.1,0-3.5-1.2-4.3-3.6c-1.3,1.4-2.4,2.3-3.3,2.8C413.6,866,412.5,866.2,411.1,866.2z M417.9,860.3v-8.6c-0.7,0.3-1.8,0.7-3.1,1.1
		c-2.5,0.9-4.1,1.7-4.9,2.6c-0.7,0.8-1.1,2-1.1,3.4c0,1.3,0.4,2.3,1.1,3.3c0.8,0.9,1.7,1.4,2.7,1.4c1,0,1.9-0.3,3-0.9
		C416.7,862,417.5,861.2,417.9,860.3z"/>
	<path class="st0" d="M438.6,840.3v1.2c-1.4,0.2-2.1,0.9-2.1,2.2c0,0.5,0.1,1,0.4,1.7l6.1,14.3l4.4-13.3c0.3-1.1,0.5-2,0.5-2.6
		c0-1.4-0.8-2.1-2.5-2.2v-1.2h8.9v1.2c-1.3,0-2.5,0.5-3.3,1.4c-0.9,0.9-1.7,2.4-2.4,4.5l-10.1,29.8c-1,2.8-2.2,5.1-3.7,6.7
		c-1.5,1.6-3.1,2.5-4.6,2.5c-0.9,0-2-0.4-3.1-1.1l1.6-4.4c0.9,0.4,1.7,0.6,2.4,0.6c1.5,0,2.8-0.5,3.8-1.4c1-1,1.9-2.5,2.7-4.8
		l3.2-9.2l-9.1-20.9c-0.7-1.5-1.3-2.5-2-3c-0.7-0.5-1.7-0.7-3.1-0.8v-1.2H438.6z"/>
	<path class="st0" d="M480.6,859v1.8c-1.5,2-3.1,3.3-4.7,4.2c-1.6,0.8-3.5,1.3-5.7,1.3c-3.9,0-7.2-1.2-9.8-3.7
		c-2.6-2.5-3.8-5.6-3.8-9.4c0-3.8,1.2-7.1,3.7-9.7c2.4-2.6,5.4-3.9,9-3.9c2.9,0,5.5,1,7.7,3c2.2,2,3.3,4.3,3.3,7.1v0.5h-18.6v0.3
		c0,2.8,0.4,5.2,1.3,7.3c0.8,2.1,2.1,3.7,3.7,4.8c1.6,1.2,3.3,1.7,5.1,1.7c1.6,0,3.1-0.3,4.2-1C477.1,862.5,478.7,861.1,480.6,859z
		 M461.7,848.8h13.8v-0.5c0-2.3-0.6-4-1.9-5.4c-1.3-1.3-2.9-2-4.8-2c-2,0-3.7,0.7-4.9,2.1C462.5,844.5,461.8,846.4,461.7,848.8z"/>
	<path class="st0" d="M492.8,839.5v5c2.9-3.4,6-5,9.1-5c2.4,0,4.5,0.8,6.1,2.5c1.6,1.7,2.4,3.9,2.4,6.6V860c0,1.7,0.3,2.9,0.9,3.5
		c0.6,0.6,1.7,0.8,3.4,0.8v1.2h-13.5v-1.2c1.7,0,2.8-0.2,3.4-0.6c0.6-0.4,0.9-1.3,0.9-2.5v-13.2c0-1.8-0.5-3.2-1.6-4.2
		c-1.1-1-2.4-1.6-4.1-1.6c-2.4,0-4.8,1.6-7.2,4.9v12.4c0,2.1,0.3,3.4,0.8,4c0.5,0.6,1.7,0.9,3.4,0.9v1.2h-13.3v-1.2
		c1.9,0,3.1-0.3,3.6-0.9c0.4-0.6,0.7-1.9,0.7-3.9v-14.3c0-1.5-0.3-2.5-0.8-3c-0.5-0.5-1.7-0.7-3.4-0.7v-1.2l7.9-0.8H492.8z"/>
	<path class="st0" d="M536.4,839.8h8.1v2.9h-6.7c1.9,2.3,2.9,4.7,2.9,7.3c0,2.6-0.9,4.8-2.8,6.8s-4.1,3-6.6,3.2
		c-1.8,0.1-3.7,0.7-5.5,1.8c-1.8,1.1-2.7,2.1-2.7,2.9c0,0.9,0.5,1.6,1.4,2.1c1,0.5,3.2,1,6.8,1.6c3.9,0.7,6.7,1.4,8.2,1.9
		c1.5,0.6,2.7,1.4,3.6,2.5c0.9,1.1,1.3,2.3,1.3,3.7c0,3-1.5,5.5-4.5,7.5c-3,2-6.7,3.1-11,3.1c-3.7,0-6.7-0.7-9-2.1s-3.4-3.3-3.4-5.6
		c0-1.6,0.7-3,2-4.3c1.3-1.2,3.4-2.5,6.2-3.6v-0.1c-1.7-0.4-3.1-1-4-1.8c-1-0.8-1.5-1.8-1.5-2.8c0-2.8,2.6-5.1,7.8-6.9v-0.1
		c-2.5-0.7-4.5-1.8-5.9-3.5c-1.4-1.7-2.1-3.7-2.1-6c0-3,1-5.6,3-7.6c2-2,4.6-3,7.7-3c0.6,0,1.7,0,3.3,0.1
		C534.7,839.7,535.8,839.8,536.4,839.8z M541.8,878.7c0-1.6-1-2.9-3.1-3.8c-2.1-0.9-6-1.9-11.7-2.9c-4.9,1.3-7.3,3.3-7.3,6
		c0,1.8,1.2,3.3,3.6,4.5c2.4,1.2,5.4,1.8,9.1,1.8c2.8,0,5.1-0.5,6.9-1.6C540.9,881.7,541.8,880.4,541.8,878.7z M523.6,849.5
		c0,2.7,0.6,4.9,1.7,6.6c1.1,1.7,2.6,2.5,4.5,2.5c1.9,0,3.5-0.8,4.6-2.5s1.7-3.9,1.7-6.7c0-2.6-0.6-4.6-1.7-6.2
		c-1.1-1.6-2.6-2.4-4.5-2.4c-1.9,0-3.4,0.8-4.6,2.4C524.2,844.9,523.6,846.9,523.6,849.5z"/>
	<path class="st0" d="M556.2,839.5h1.2v21.3c0,1.4,0.3,2.3,0.9,2.8c0.6,0.5,1.7,0.7,3.3,0.7v1.2h-13.8v-1.2c2,0,3.3-0.2,3.9-0.7
		c0.6-0.5,0.9-1.4,0.9-2.8v-15.5c0-1.5-0.3-2.5-0.8-3c-0.5-0.5-1.9-0.7-4-0.7v-1.2L556.2,839.5z M555.1,826.4c0.9,0,1.6,0.3,2.2,0.9
		c0.6,0.6,0.9,1.3,0.9,2.2c0,0.9-0.3,1.6-0.9,2.2s-1.3,0.9-2.2,0.9c-0.9,0-1.6-0.3-2.2-0.9c-0.6-0.6-0.9-1.4-0.9-2.2
		c0-0.9,0.3-1.6,0.9-2.2C553.4,826.7,554.2,826.4,555.1,826.4z"/>
	<path class="st0" d="M588.5,866.2c-2,0-3.7-0.7-5.1-2c-1.4-1.3-2.1-2.9-2.1-4.8c0-1.8,0.6-3.2,1.8-4.4c1.2-1.1,3.7-2.2,7.4-3.3
		c2.3-0.6,3.9-1.2,4.7-1.7v-1.9c0-1.8-0.5-3.3-1.5-4.4c-1-1.1-2.4-1.7-4.1-1.7c-1.6,0-2.9,0.5-4.1,1.5c-1.2,1-2.1,2.3-2.5,4
		l-1.3-0.3c0.5-2.3,1.6-4.2,3.3-5.6c1.7-1.4,3.7-2.1,6-2.1c2.7,0,4.9,0.8,6.6,2.5c1.7,1.6,2.5,3.9,2.5,6.8v10.8
		c0,1.5,0.1,2.6,0.3,3.1s0.6,0.8,1.1,0.8c0.4,0,0.7-0.2,0.9-0.5c0.2-0.3,0.5-1,0.8-2h1.2c-0.1,1.6-0.6,2.8-1.5,3.8
		c-0.9,0.9-2,1.4-3.4,1.4c-2.1,0-3.5-1.2-4.3-3.6c-1.3,1.4-2.4,2.3-3.3,2.8C591,866,589.8,866.2,588.5,866.2z M595.3,860.3v-8.6
		c-0.7,0.3-1.8,0.7-3.1,1.1c-2.5,0.9-4.1,1.7-4.9,2.6c-0.7,0.8-1.1,2-1.1,3.4c0,1.3,0.4,2.3,1.1,3.3c0.8,0.9,1.7,1.4,2.7,1.4
		c1,0,2-0.3,3-0.9C594.1,862,594.9,861.2,595.3,860.3z"/>
	<path class="st0" d="M631.3,820.7h1.2v39.9c0,1.4,0.3,2.4,0.9,2.9c0.6,0.5,1.7,0.8,3.3,0.8v1.2H622c-4.5,0-8.1-1.2-10.7-3.7
		c-2.6-2.5-4-5.6-4-9.4c0-3.6,1.2-6.6,3.5-9.1c2.3-2.5,5.1-3.7,8.4-3.7c2.6,0,5.5,1,8.5,3.1v-15.5c0-1.7-0.2-2.8-0.7-3.4
		c-0.4-0.6-1.3-0.9-2.7-0.9h-1.4v-1.2L631.3,820.7z M627.7,860.5v-15.2c-1-1.3-2.1-2.4-3.4-3.1s-2.6-1.1-3.9-1.1
		c-2.3,0-4.2,0.9-5.6,2.8c-1.4,1.9-2.1,4.4-2.1,7.4c0,3.9,1,7.1,2.9,9.5c1.9,2.4,4.6,3.6,8.1,3.6c1.4,0,2.4-0.3,3.1-0.9
		C627.4,862.8,627.7,861.8,627.7,860.5z"/>
	<path class="st0" d="M659.8,860.2v-12.5c0-1.7-0.5-3-1.4-4s-2.2-1.5-3.7-1.5c-1.4,0-2.7,0.4-3.8,1.1s-2.3,2-3.5,3.7v13.9
		c0,1.3,0.3,2.2,0.9,2.7c0.6,0.5,1.7,0.7,3.3,0.7v1.2H638v-1.2c1.9,0,3.2-0.4,3.7-0.9s0.8-1.9,0.8-3.9v-32.9c0-1.5-0.3-2.6-0.8-3
		c-0.5-0.5-1.8-0.7-3.7-0.7v-1.2l8.1-0.9h1.2v23.9c1.6-1.9,3.1-3.2,4.4-3.9c1.3-0.8,2.8-1.1,4.4-1.1c2.5,0,4.5,0.8,6.1,2.4
		c1.6,1.6,2.4,3.7,2.4,6.4v11.2c0,2,0.3,3.3,0.8,3.9c0.5,0.6,1.6,0.9,3.3,0.9v1.2h-13.1v-1.2c1.7,0,2.8-0.3,3.4-0.8
		C659.5,862.9,659.8,861.8,659.8,860.2z"/>
	<path class="st0" d="M699.3,852.9c0,3.8-1.3,7-4,9.5s-5.9,3.8-9.9,3.8s-7.2-1.3-9.9-3.8s-4-5.7-4-9.5c0-3.9,1.3-7.1,3.9-9.6
		c2.6-2.5,5.9-3.8,9.9-3.8s7.3,1.3,9.9,3.8C698,845.8,699.3,849,699.3,852.9z M694,852.9c0-3.6-0.8-6.5-2.3-8.7
		c-1.5-2.2-3.6-3.3-6.3-3.3s-4.7,1.1-6.3,3.2c-1.5,2.2-2.3,5.1-2.3,8.8c0,3.6,0.8,6.5,2.3,8.7c1.5,2.2,3.6,3.2,6.3,3.2
		s4.8-1.1,6.3-3.3C693.3,859.4,694,856.5,694,852.9z"/>
	<path class="st0" d="M731.9,852.9c0,3.8-1.3,7-4,9.5s-5.9,3.8-9.9,3.8s-7.2-1.3-9.9-3.8s-4-5.7-4-9.5c0-3.9,1.3-7.1,3.9-9.6
		c2.6-2.5,5.9-3.8,9.9-3.8s7.3,1.3,9.9,3.8C730.6,845.8,731.9,849,731.9,852.9z M726.7,852.9c0-3.6-0.8-6.5-2.3-8.7
		c-1.5-2.2-3.6-3.3-6.3-3.3s-4.7,1.1-6.3,3.2c-1.5,2.2-2.3,5.1-2.3,8.8c0,3.6,0.8,6.5,2.3,8.7c1.5,2.2,3.6,3.2,6.3,3.2
		s4.8-1.1,6.3-3.3C725.9,859.4,726.7,856.5,726.7,852.9z"/>
	<path class="st0" d="M745,839.5v5.5c2.3-2,4.1-3.4,5.4-4.2c1.3-0.8,2.4-1.2,3.2-1.2c1.6,0,3.1,0.7,4.6,2l-1.9,4.5
		c-2.7-1.5-4.7-2.2-6-2.2c-1.4,0-3.2,1-5.4,3.1v13.9c0,1.4,0.3,2.3,0.9,2.8c0.6,0.5,1.7,0.7,3.3,0.7v1.2h-13.3v-1.2
		c1.8,0,2.9-0.3,3.5-0.8c0.5-0.6,0.8-1.9,0.8-4v-13.8c0-1.7-0.3-2.9-0.9-3.4c-0.6-0.5-2-0.8-4.3-0.8v-1.2l8.8-0.8H745z"/>
	<path class="st0" d="M769.8,839.5h1.2v21.3c0,1.4,0.3,2.3,0.9,2.8c0.6,0.5,1.7,0.7,3.3,0.7v1.2h-13.8v-1.2c2,0,3.3-0.2,3.9-0.7
		c0.6-0.5,0.9-1.4,0.9-2.8v-15.5c0-1.5-0.3-2.5-0.8-3c-0.5-0.5-1.9-0.7-4-0.7v-1.2L769.8,839.5z M768.6,826.4c0.9,0,1.6,0.3,2.2,0.9
		c0.6,0.6,0.9,1.3,0.9,2.2c0,0.9-0.3,1.6-0.9,2.2s-1.3,0.9-2.2,0.9c-0.9,0-1.6-0.3-2.2-0.9c-0.6-0.6-0.9-1.4-0.9-2.2
		c0-0.9,0.3-1.6,0.9-2.2C767,826.7,767.8,826.4,768.6,826.4z"/>
	<path class="st0" d="M787.1,860.5c0.9,0,1.7,0.3,2.4,1s1,1.4,1,2.4c0,0.9-0.3,1.7-1,2.4c-0.7,0.7-1.4,1-2.3,1c-0.9,0-1.7-0.3-2.4-1
		c-0.7-0.7-1-1.5-1-2.4c0-0.9,0.3-1.7,1-2.4C785.4,860.8,786.2,860.5,787.1,860.5z"/>
</g>
<g>
	<path class="st0" d="M327,1015.8v1.2c-1.8,0-3.1,0.4-3.9,1.2c-0.8,0.8-1.2,2.3-1.2,4.3v11c-1,0.3-2.7,0.5-5.3,0.7
		c-2.6,0.2-4.6,0.3-6.1,0.3c-7.5,0-13.4-1.9-17.6-5.6c-4.2-3.7-6.3-8.6-6.3-14.7c0-4.2,0.9-8.1,2.8-11.5c1.8-3.4,4.4-6.1,7.7-8.1
		c3.3-2,6.8-3,10.5-3c2.2,0,4.7,0.4,7.3,1.2c1.7,0.5,2.9,0.7,3.8,0.7c1.2,0,1.9-0.5,2.3-1.4h1.3v12h-1.1c-0.5-3.3-2-6-4.5-8
		c-2.6-2-5.6-3-9-3c-4.3,0-7.9,1.7-10.6,5.2c-2.8,3.4-4.1,7.9-4.1,13.4c0,6,1.6,11,4.8,14.9c3.2,3.9,7.2,5.9,12,5.9
		c4.6,0,6.9-1.5,6.9-4.4v-4.4c0-2.5-0.3-4.3-1-5.3c-0.7-1-1.8-1.5-3.5-1.5h-1.6v-1.2H327z"/>
	<path class="st0" d="M355.7,1027v1.8c-1.5,1.9-3.1,3.3-4.7,4.2c-1.6,0.8-3.5,1.3-5.7,1.3c-3.9,0-7.2-1.2-9.8-3.7
		c-2.6-2.5-3.8-5.6-3.8-9.4c0-3.8,1.2-7.1,3.7-9.7c2.4-2.6,5.4-3.9,9-3.9c2.9,0,5.5,1,7.7,3c2.2,2,3.3,4.3,3.3,7.1v0.5h-18.6v0.3
		c0,2.8,0.4,5.2,1.3,7.3c0.8,2.1,2.1,3.7,3.7,4.8c1.6,1.2,3.3,1.7,5.1,1.7c1.6,0,3.1-0.3,4.2-1
		C352.2,1030.6,353.8,1029.2,355.7,1027z M336.7,1016.9h13.8v-0.5c0-2.3-0.6-4-1.9-5.4c-1.3-1.3-2.9-2-4.8-2c-2,0-3.7,0.7-4.9,2.1
		C337.6,1012.6,336.9,1014.5,336.7,1016.9z"/>
	<path class="st0" d="M367.6,999.7h1.2v8.5h8.8v1.8h-8.8v16.3c0,1.7,0.4,3,1.2,3.9c0.8,0.9,1.9,1.4,3.4,1.4c1.7,0,3.3-0.8,4.7-2.4
		l0.8,0.9c-2.2,2.8-4.7,4.2-7.6,4.2c-2.2,0-3.9-0.7-5.3-2.1c-1.3-1.4-2-3.1-2-5.3v-16.9h-4.8v-1.2
		C362.7,1007.1,365.5,1004.1,367.6,999.7z"/>
	<path class="st0" d="M410.7,1014.6h-3.3v11.2c0,2.4,0.3,4.1,1,5.1c0.7,1,1.9,1.4,3.6,1.4v1.2h-14.7v-1.2c1.8,0,3-0.5,3.7-1.4
		c0.6-1,1-2.6,1-5.1v-25.6c0-2.4-0.3-4.1-0.9-5c-0.6-0.9-1.9-1.4-3.7-1.4v-1.2h16.7c4.1,0,7.4,1,9.9,3c2.5,2,3.7,4.6,3.7,7.7
		c0,5-2.8,8.4-8.4,10c1.2,0.8,2.4,1.9,3.6,3.3c1.2,1.4,2.7,3.7,4.6,6.9c2.1,3.6,3.8,5.9,5,7c1.2,1.1,2.5,1.7,3.7,1.8v1.2h-8.4
		c-1.7-2.1-3.8-5.1-6.2-9.1c-2.6-4.2-4.6-6.9-6.1-8.1S412.5,1014.6,410.7,1014.6z M411.7,994.2h-4.3v18.7h5c3,0,5.3-0.9,7.1-2.6
		c1.7-1.7,2.6-4,2.6-6.8c0-2.8-0.9-5-2.8-6.7C417.3,995.1,414.8,994.2,411.7,994.2z"/>
	<path class="st0" d="M463.9,1027v1.8c-1.5,1.9-3.1,3.3-4.7,4.2c-1.6,0.8-3.5,1.3-5.7,1.3c-3.9,0-7.2-1.2-9.8-3.7
		c-2.6-2.5-3.8-5.6-3.8-9.4c0-3.8,1.2-7.1,3.7-9.7c2.4-2.6,5.4-3.9,9-3.9c2.9,0,5.5,1,7.7,3c2.2,2,3.3,4.3,3.3,7.1v0.5h-18.6v0.3
		c0,2.8,0.4,5.2,1.3,7.3c0.8,2.1,2.1,3.7,3.7,4.8c1.6,1.2,3.3,1.7,5.1,1.7c1.6,0,3.1-0.3,4.2-1C460.4,1030.6,462,1029.2,463.9,1027z
		 M444.9,1016.9h13.8v-0.5c0-2.3-0.6-4-1.9-5.4c-1.3-1.3-2.9-2-4.8-2c-2,0-3.7,0.7-4.9,2.1C445.8,1012.6,445.1,1014.5,444.9,1016.9z
		"/>
	<path class="st0" d="M475.6,1034.3c-2,0-3.7-0.7-5.1-2c-1.4-1.3-2.1-2.9-2.1-4.8c0-1.8,0.6-3.2,1.8-4.4c1.2-1.1,3.7-2.2,7.4-3.3
		c2.3-0.7,3.9-1.2,4.7-1.7v-1.9c0-1.8-0.5-3.3-1.5-4.4c-1-1.1-2.4-1.7-4.1-1.7c-1.6,0-2.9,0.5-4.1,1.5c-1.2,1-2.1,2.3-2.5,4
		l-1.3-0.3c0.5-2.3,1.6-4.2,3.3-5.6c1.7-1.4,3.7-2.1,6-2.1c2.7,0,4.9,0.8,6.6,2.5s2.5,3.9,2.5,6.8v10.8c0,1.5,0.1,2.6,0.3,3.1
		c0.2,0.5,0.6,0.8,1.1,0.8c0.4,0,0.7-0.2,0.9-0.5c0.2-0.3,0.5-1,0.8-2h1.2c-0.1,1.6-0.6,2.8-1.5,3.8c-0.9,0.9-2,1.4-3.4,1.4
		c-2.1,0-3.5-1.2-4.3-3.6c-1.3,1.4-2.4,2.3-3.3,2.8C478,1034.1,476.9,1034.3,475.6,1034.3z M482.4,1028.4v-8.6
		c-0.7,0.3-1.8,0.7-3.1,1.1c-2.5,0.9-4.1,1.7-4.9,2.6c-0.7,0.8-1.1,2-1.1,3.4c0,1.3,0.4,2.3,1.1,3.3c0.8,0.9,1.7,1.4,2.7,1.4
		c1,0,1.9-0.3,3-0.9C481.2,1030.1,481.9,1029.3,482.4,1028.4z"/>
	<path class="st0" d="M518.4,988.7h1.2v39.9c0,1.4,0.3,2.4,0.9,2.9c0.6,0.5,1.7,0.8,3.3,0.8v1.2h-14.7c-4.5,0-8.1-1.2-10.7-3.7
		s-4-5.6-4-9.4c0-3.6,1.2-6.6,3.5-9.1c2.3-2.5,5.1-3.7,8.4-3.7c2.6,0,5.5,1,8.5,3.1v-15.5c0-1.7-0.2-2.8-0.7-3.4
		c-0.4-0.6-1.3-0.9-2.7-0.9H510v-1.2L518.4,988.7z M514.8,1028.5v-15.2c-1-1.3-2.1-2.4-3.4-3.1c-1.3-0.8-2.6-1.1-3.9-1.1
		c-2.3,0-4.2,0.9-5.6,2.8c-1.4,1.9-2.1,4.4-2.1,7.4c0,3.9,1,7.1,2.9,9.5c1.9,2.4,4.6,3.6,8.1,3.6c1.4,0,2.4-0.3,3.1-0.9
		C514.4,1030.9,514.8,1029.9,514.8,1028.5z"/>
	<path class="st0" d="M537.2,1008.3v1.2c-1.4,0.2-2.1,0.9-2.1,2.2c0,0.5,0.1,1,0.4,1.7l6.1,14.3l4.4-13.3c0.3-1.1,0.5-2,0.5-2.6
		c0-1.4-0.8-2.1-2.5-2.2v-1.2h8.9v1.2c-1.3,0-2.5,0.5-3.3,1.4c-0.9,0.9-1.7,2.4-2.4,4.5l-10.1,29.8c-1,2.8-2.2,5.1-3.7,6.7
		s-3.1,2.5-4.6,2.5c-0.9,0-2-0.4-3.1-1.1l1.6-4.4c0.9,0.4,1.7,0.6,2.4,0.6c1.5,0,2.8-0.5,3.8-1.4c1-1,1.9-2.5,2.7-4.8l3.2-9.2
		l-9.1-20.9c-0.7-1.5-1.3-2.5-2-3c-0.7-0.5-1.7-0.7-3.1-0.8v-1.2H537.2z"/>
	<path class="st0" d="M579.2,999.7h1.2v8.5h8.8v1.8h-8.8v16.3c0,1.7,0.4,3,1.2,3.9c0.8,0.9,1.9,1.4,3.4,1.4c1.7,0,3.3-0.8,4.7-2.4
		l0.8,0.9c-2.2,2.8-4.7,4.2-7.6,4.2c-2.2,0-3.9-0.7-5.3-2.1c-1.3-1.4-2-3.1-2-5.3v-16.9h-4.8v-1.2
		C574.3,1007.1,577.1,1004.1,579.2,999.7z"/>
	<path class="st0" d="M620.7,1021c0,3.8-1.3,7-4,9.5s-5.9,3.8-9.9,3.8s-7.2-1.3-9.9-3.8s-4-5.7-4-9.5c0-3.9,1.3-7.1,3.9-9.6
		c2.6-2.5,5.9-3.8,9.9-3.8s7.3,1.3,9.9,3.8C619.3,1013.9,620.7,1017.1,620.7,1021z M615.4,1021c0-3.6-0.8-6.5-2.3-8.7
		c-1.5-2.2-3.6-3.3-6.3-3.3s-4.7,1.1-6.3,3.2s-2.3,5.1-2.3,8.8c0,3.6,0.8,6.5,2.3,8.7s3.6,3.2,6.3,3.2s4.8-1.1,6.3-3.3
		C614.6,1027.5,615.4,1024.6,615.4,1021z"/>
	<path class="st0" d="M641.9,992.7h14.9c4.9,0,8.7,1.1,11.6,3.2c2.8,2.2,4.3,4.9,4.3,8.4c0,3.4-1.2,6-3.7,7.8
		c-2.5,1.8-6,2.7-10.7,2.7c-1.8,0-3.9-0.1-6.3-0.4v11.4c0,2.5,0.3,4.2,1,5.1c0.7,0.9,1.9,1.4,3.6,1.4v1.2h-14.7v-1.2
		c1.8,0,3-0.5,3.6-1.5c0.7-1,1-2.6,1-4.9v-25.6c0-2.4-0.3-4.1-1-5.1c-0.7-1-1.9-1.4-3.6-1.4V992.7z M657,994.2h-5v18.3
		c1.4,0.5,3.1,0.7,5,0.7c3.1,0,5.5-0.8,7.3-2.4c1.8-1.6,2.7-3.7,2.7-6.5c0-2.9-0.9-5.4-2.6-7.3C662.6,995.2,660.1,994.2,657,994.2z"
		/>
	<path class="st0" d="M682.5,1034.3c-2,0-3.7-0.7-5.1-2c-1.4-1.3-2.1-2.9-2.1-4.8c0-1.8,0.6-3.2,1.8-4.4c1.2-1.1,3.7-2.2,7.4-3.3
		c2.3-0.7,3.9-1.2,4.7-1.7v-1.9c0-1.8-0.5-3.3-1.5-4.4c-1-1.1-2.4-1.7-4.1-1.7c-1.6,0-2.9,0.5-4.1,1.5c-1.2,1-2.1,2.3-2.5,4
		l-1.3-0.3c0.5-2.3,1.6-4.2,3.3-5.6c1.7-1.4,3.7-2.1,6-2.1c2.7,0,4.9,0.8,6.6,2.5c1.7,1.6,2.5,3.9,2.5,6.8v10.8
		c0,1.5,0.1,2.6,0.3,3.1c0.2,0.5,0.6,0.8,1.1,0.8c0.4,0,0.7-0.2,0.9-0.5c0.2-0.3,0.5-1,0.8-2h1.2c-0.1,1.6-0.6,2.8-1.5,3.8
		c-0.9,0.9-2,1.4-3.4,1.4c-2.1,0-3.5-1.2-4.3-3.6c-1.3,1.4-2.4,2.3-3.3,2.8C685,1034.1,683.8,1034.3,682.5,1034.3z M689.3,1028.4
		v-8.6c-0.7,0.3-1.8,0.7-3.1,1.1c-2.5,0.9-4.1,1.7-4.9,2.6c-0.7,0.8-1.1,2-1.1,3.4c0,1.3,0.4,2.3,1.1,3.3c0.8,0.9,1.7,1.4,2.7,1.4
		c1,0,2-0.3,3-0.9C688.1,1030.1,688.8,1029.3,689.3,1028.4z"/>
	<path class="st0" d="M709.8,1007.6v5.5c2.3-2,4.1-3.4,5.4-4.2c1.3-0.8,2.4-1.2,3.2-1.2c1.6,0,3.1,0.7,4.6,2l-1.9,4.5
		c-2.7-1.5-4.7-2.2-6-2.2c-1.4,0-3.2,1-5.4,3.1v13.9c0,1.4,0.3,2.3,0.9,2.8c0.6,0.5,1.7,0.7,3.3,0.7v1.2h-13.3v-1.2
		c1.8,0,2.9-0.3,3.5-0.8c0.5-0.6,0.8-1.9,0.8-4v-13.8c0-1.7-0.3-2.9-0.9-3.4c-0.6-0.5-2-0.8-4.3-0.8v-1.2l8.8-0.8H709.8z"/>
	<path class="st0" d="M735.8,999.7h1.2v8.5h8.8v1.8H737v16.3c0,1.7,0.4,3,1.2,3.9c0.8,0.9,1.9,1.4,3.4,1.4c1.7,0,3.3-0.8,4.7-2.4
		l0.8,0.9c-2.2,2.8-4.7,4.2-7.6,4.2c-2.2,0-3.9-0.7-5.3-2.1c-1.3-1.4-2-3.1-2-5.3v-16.9h-4.8v-1.2
		C730.9,1007.1,733.7,1004.1,735.8,999.7z"/>
	<path class="st0" d="M760.3,1008.3v1.2c-1.4,0.2-2.1,0.9-2.1,2.2c0,0.5,0.1,1,0.4,1.7l6.1,14.3l4.4-13.3c0.3-1.1,0.5-2,0.5-2.6
		c0-1.4-0.8-2.1-2.5-2.2v-1.2h8.9v1.2c-1.3,0-2.5,0.5-3.3,1.4c-0.9,0.9-1.7,2.4-2.4,4.5l-10.1,29.8c-1,2.8-2.2,5.1-3.7,6.7
		s-3.1,2.5-4.6,2.5c-0.9,0-2-0.4-3.1-1.1l1.6-4.4c0.9,0.4,1.7,0.6,2.4,0.6c1.5,0,2.8-0.5,3.8-1.4c1-1,1.9-2.5,2.7-4.8l3.2-9.2
		l-9.1-20.9c-0.7-1.5-1.3-2.5-2-3c-0.7-0.5-1.7-0.7-3.1-0.8v-1.2H760.3z"/>
	<path class="st0" d="M787.2,1027.6c0.9,0,1.7,0.3,2.4,1c0.7,0.6,1,1.4,1,2.4c0,0.9-0.3,1.8-1,2.4c-0.7,0.7-1.4,1-2.4,1
		c-0.9,0-1.7-0.3-2.4-1c-0.7-0.7-1-1.5-1-2.4c0-0.9,0.3-1.7,1-2.3C785.5,1028,786.3,1027.6,787.2,1027.6z M790,998.2l-2.2,25.6h-1.1
		l-1.9-25.6c-0.1-2.2-0.2-3.5-0.2-4.1c0-1.1,0.3-1.9,0.8-2.6s1.2-1,2-1c0.9,0,1.6,0.3,2.1,1c0.5,0.7,0.8,1.5,0.8,2.6
		c0,0.6-0.1,1.6-0.2,3L790,998.2z"/>
</g>
<g>
	<path class="st1" d="M678.3,1199.1v0.9c-1.3,0-2.3,0.4-2.8,1.1c-0.5,0.7-0.8,2-0.8,3.9v29.1c0,2.7-0.7,4.9-2.2,6.4
		s-3.3,2.3-5.7,2.3c-2.3,0-4-0.9-5.2-2.8l0.8-0.5c0.7,0.9,1.7,1.4,2.8,1.4c1.5,0,2.8-0.7,3.8-2s1.5-3.3,1.5-5.7v-28.1
		c0-1.9-0.3-3.2-0.8-3.9s-1.5-1.1-2.8-1.1v-0.9H678.3z"/>
	<path class="st1" d="M686.7,1231.3c-1.5,0-2.8-0.5-3.9-1.5s-1.6-2.2-1.6-3.7c0-1.4,0.5-2.5,1.4-3.4c0.9-0.9,2.9-1.7,5.7-2.5
		c1.8-0.5,3-0.9,3.7-1.3v-1.5c0-1.4-0.4-2.6-1.2-3.4c-0.8-0.9-1.8-1.3-3.2-1.3c-1.2,0-2.3,0.4-3.2,1.1c-0.9,0.8-1.6,1.8-2,3.1
		l-1-0.3c0.4-1.8,1.3-3.3,2.6-4.4c1.3-1.1,2.9-1.6,4.6-1.6c2.1,0,3.8,0.6,5.1,1.9c1.3,1.3,1.9,3,1.9,5.3v8.4c0,1.2,0.1,2,0.2,2.4
		s0.4,0.6,0.9,0.6c0.3,0,0.5-0.1,0.7-0.4s0.4-0.7,0.6-1.5h0.9c-0.1,1.2-0.5,2.2-1.1,2.9c-0.7,0.7-1.6,1.1-2.6,1.1
		c-1.6,0-2.7-0.9-3.3-2.8c-1,1.1-1.8,1.8-2.6,2.2C688.6,1231.1,687.7,1231.3,686.7,1231.3z M691.9,1226.7v-6.6
		c-0.6,0.2-1.4,0.5-2.4,0.9c-2,0.7-3.2,1.3-3.7,2c-0.5,0.7-0.8,1.5-0.8,2.6c0,1,0.3,1.8,0.9,2.5c0.6,0.7,1.3,1.1,2.1,1.1
		c0.7,0,1.5-0.2,2.3-0.7C691,1228,691.6,1227.4,691.9,1226.7z"/>
	<path class="st1" d="M707.1,1210.6v3.9c2.3-2.6,4.6-3.9,7-3.9c1.9,0,3.4,0.6,4.7,1.9c1.3,1.3,1.9,3,1.9,5.1v8.8
		c0,1.3,0.2,2.2,0.7,2.7c0.4,0.4,1.3,0.6,2.6,0.6v0.9h-10.4v-0.9c1.3,0,2.2-0.2,2.6-0.5c0.5-0.3,0.7-1,0.7-1.9v-10.2
		c0-1.4-0.4-2.4-1.2-3.3c-0.8-0.8-1.9-1.2-3.1-1.2c-1.8,0-3.7,1.3-5.5,3.8v9.5c0,1.6,0.2,2.6,0.6,3.1s1.3,0.7,2.6,0.7v0.9h-10.3
		v-0.9c1.5,0,2.4-0.2,2.7-0.7c0.3-0.5,0.5-1.5,0.5-3v-11c0-1.2-0.2-1.9-0.6-2.3c-0.4-0.4-1.3-0.6-2.6-0.6v-0.9l6.1-0.6H707.1z"/>
	<path class="st1" d="M745,1210.6h0.9v16.4c0,1.1,0.2,1.8,0.7,2.2c0.5,0.4,1.3,0.6,2.7,0.6v0.9l-7.1,0.4v-3.6h-0.1
		c-2,2.5-4.2,3.8-6.8,3.8c-1.9,0-3.4-0.6-4.6-1.9s-1.8-2.8-1.8-4.7v-10c0-1-0.3-1.7-0.8-2c-0.5-0.4-1.4-0.5-2.7-0.5v-0.9l6.3-0.6
		h0.9v13.9c0,1.4,0.4,2.4,1.2,3.2c0.8,0.8,1.9,1.2,3.2,1.2c1.9,0,3.6-1.1,5.2-3.2v-10.5c0-1.3-0.2-2.2-0.6-2.5
		c-0.4-0.3-1.5-0.5-3.2-0.6v-0.9L745,1210.6z"/>
	<path class="st1" d="M757.2,1231.3c-1.5,0-2.8-0.5-3.9-1.5s-1.6-2.2-1.6-3.7c0-1.4,0.5-2.5,1.4-3.4c0.9-0.9,2.9-1.7,5.7-2.5
		c1.8-0.5,3-0.9,3.7-1.3v-1.5c0-1.4-0.4-2.6-1.2-3.4c-0.8-0.9-1.8-1.3-3.2-1.3c-1.2,0-2.3,0.4-3.2,1.1c-0.9,0.8-1.6,1.8-2,3.1
		l-1-0.3c0.4-1.8,1.3-3.3,2.6-4.4c1.3-1.1,2.9-1.6,4.6-1.6c2.1,0,3.8,0.6,5.1,1.9c1.3,1.3,1.9,3,1.9,5.3v8.4c0,1.2,0.1,2,0.2,2.4
		s0.4,0.6,0.9,0.6c0.3,0,0.5-0.1,0.7-0.4s0.4-0.7,0.6-1.5h0.9c-0.1,1.2-0.5,2.2-1.1,2.9c-0.7,0.7-1.6,1.1-2.6,1.1
		c-1.6,0-2.7-0.9-3.3-2.8c-1,1.1-1.8,1.8-2.6,2.2C759.1,1231.1,758.2,1231.3,757.2,1231.3z M762.4,1226.7v-6.6
		c-0.6,0.2-1.4,0.5-2.4,0.9c-2,0.7-3.2,1.3-3.7,2c-0.5,0.7-0.8,1.5-0.8,2.6c0,1,0.3,1.8,0.9,2.5c0.6,0.7,1.3,1.1,2.1,1.1
		c0.7,0,1.5-0.2,2.3-0.7C761.5,1228,762.1,1227.4,762.4,1226.7z"/>
	<path class="st1" d="M778.2,1210.6v4.2c1.8-1.6,3.2-2.7,4.2-3.3c1-0.6,1.8-0.9,2.5-0.9c1.2,0,2.4,0.5,3.6,1.5l-1.5,3.5
		c-2.1-1.1-3.6-1.7-4.6-1.7c-1.1,0-2.5,0.8-4.1,2.4v10.7c0,1.1,0.2,1.8,0.7,2.2c0.4,0.4,1.3,0.6,2.6,0.6v0.9h-10.3v-0.9
		c1.4,0,2.3-0.2,2.7-0.6c0.4-0.4,0.6-1.5,0.6-3.1v-10.6c0-1.3-0.2-2.2-0.7-2.6c-0.5-0.4-1.6-0.6-3.3-0.6v-0.9l6.8-0.6H778.2z"/>
	<path class="st1" d="M799.8,1211.2v0.9c-1.1,0.2-1.7,0.7-1.7,1.7c0,0.4,0.1,0.8,0.3,1.3l4.7,11l3.4-10.3c0.3-0.8,0.4-1.5,0.4-2
		c0-1-0.7-1.6-2-1.7v-0.9h6.9v0.9c-1,0-1.9,0.4-2.6,1.1c-0.7,0.7-1.3,1.9-1.9,3.5l-7.8,23c-0.8,2.2-1.7,3.9-2.9,5.2
		c-1.2,1.3-2.4,1.9-3.6,1.9c-0.7,0-1.5-0.3-2.4-0.8l1.3-3.4c0.7,0.3,1.3,0.5,1.9,0.5c1.2,0,2.1-0.4,2.9-1.1c0.8-0.7,1.5-2,2.1-3.7
		l2.5-7.1l-7-16.1c-0.5-1.2-1-2-1.5-2.3c-0.5-0.4-1.3-0.6-2.4-0.6v-0.9H799.8z"/>
	<path class="st1" d="M830.6,1228.4h15.5v2.3H828v-1.1c4.9-5.1,8.4-9.2,10.4-12.3c2-3.1,3.1-6,3.1-8.6c0-2.3-0.5-4-1.5-5.3
		c-1-1.3-2.4-1.9-4.2-1.9c-1.6,0-2.9,0.5-4,1.5c-1,1-1.7,2.4-1.8,4.2H829c0-1.3,0.4-2.7,1.2-4.1s1.8-2.6,3-3.4
		c1.2-0.8,2.6-1.2,4.1-1.2c2.2,0,4.1,0.8,5.7,2.5c1.5,1.7,2.3,3.8,2.3,6.3c0,2.8-1.1,5.9-3.4,9.1
		C839.8,1219.5,835.9,1223.5,830.6,1228.4z"/>
	<path class="st1" d="M856.7,1214.6v-0.9c6.4-1.1,9.7-3.8,9.7-8c0-1.5-0.5-2.8-1.5-3.9c-1-1.1-2.3-1.6-3.8-1.6c-1.1,0-2.1,0.3-3,0.9
		c-0.9,0.6-1.6,1.4-2.1,2.4l-0.9-0.4c0.5-1.5,1.4-2.6,2.8-3.5c1.3-0.9,2.9-1.3,4.6-1.3c2.2,0,4,0.7,5.5,2s2.2,3,2.2,5
		c0,1.6-0.5,3-1.4,4.3c-1,1.3-2.3,2.3-4.2,3v0.1c2.2,0.6,3.9,1.6,5.1,3.2s1.9,3.4,1.9,5.5c0,2.9-0.9,5.2-2.8,7
		c-1.8,1.8-4.2,2.7-7.1,2.7c-1.6,0-3-0.3-4.2-0.8s-2.4-1.4-3.7-2.7l0.7-0.7c2.1,1.7,4.2,2.6,6.2,2.6c2,0,3.7-0.6,5-1.9
		c1.3-1.2,2-2.9,2-4.9c0-2.2-0.7-4.2-2.1-5.9c-1.4-1.8-3.3-2.6-5.5-2.6L856.7,1214.6z"/>
	<path class="st1" d="M880.1,1240.1v-0.9c1.4-0.7,2.4-1.6,3-2.5c0.6-0.9,0.9-2.1,0.9-3.7c0-0.4-0.1-0.7-0.2-0.8s-0.4-0.2-0.8-0.2
		c-0.8,0-1.5-0.3-2-0.8c-0.6-0.5-0.8-1.1-0.8-1.9c0-0.7,0.3-1.3,0.8-1.8c0.5-0.5,1.1-0.8,1.9-0.8c1.2,0,2.2,0.5,2.9,1.5
		c0.8,1,1.1,2.2,1.1,3.8c0,1.9-0.6,3.6-1.9,5.1C883.7,1238.7,882.1,1239.6,880.1,1240.1z"/>
	<path class="st1" d="M907.3,1228.4h15.5v2.3h-18.1v-1.1c4.9-5.1,8.4-9.2,10.4-12.3c2-3.1,3.1-6,3.1-8.6c0-2.3-0.5-4-1.5-5.3
		c-1-1.3-2.4-1.9-4.2-1.9c-1.6,0-2.9,0.5-4,1.5c-1,1-1.7,2.4-1.8,4.2h-0.9c0-1.3,0.4-2.7,1.2-4.1s1.8-2.6,3-3.4
		c1.2-0.8,2.6-1.2,4.1-1.2c2.2,0,4.1,0.8,5.7,2.5c1.5,1.7,2.3,3.8,2.3,6.3c0,2.8-1.1,5.9-3.4,9.1
		C916.5,1219.5,912.7,1223.5,907.3,1228.4z"/>
	<path class="st1" d="M950.3,1214.8c0,3.2-0.5,6.1-1.4,8.5c-0.9,2.5-2.3,4.4-4,5.8s-3.6,2.1-5.5,2.1c-2,0-3.8-0.7-5.6-2.1
		s-3.1-3.4-4-5.8c-0.9-2.5-1.4-5.4-1.4-8.6c0-3.2,0.5-6,1.4-8.4c0.9-2.5,2.3-4.4,4-5.8c1.7-1.4,3.6-2.1,5.6-2.1c2,0,3.8,0.7,5.5,2.1
		c1.7,1.4,3,3.4,4,5.8C949.8,1208.7,950.3,1211.6,950.3,1214.8z M946.1,1214.8c0-4.7-0.6-8.4-1.7-11.1s-2.8-4-5-4s-3.8,1.3-5,4
		c-1.2,2.7-1.8,6.3-1.8,11c0,4.7,0.6,8.4,1.8,11.1s2.8,4,5,4c2.2,0,3.8-1.3,5-3.9C945.5,1223.3,946.1,1219.6,946.1,1214.8z"/>
	<path class="st1" d="M957.7,1228.4h15.5v2.3h-18.1v-1.1c4.9-5.1,8.4-9.2,10.4-12.3c2-3.1,3.1-6,3.1-8.6c0-2.3-0.5-4-1.5-5.3
		c-1-1.3-2.4-1.9-4.2-1.9c-1.6,0-2.9,0.5-4,1.5c-1,1-1.7,2.4-1.8,4.2h-0.9c0-1.3,0.4-2.7,1.2-4.1s1.8-2.6,3-3.4
		c1.2-0.8,2.6-1.2,4.1-1.2c2.2,0,4.1,0.8,5.7,2.5c1.5,1.7,2.3,3.8,2.3,6.3c0,2.8-1.1,5.9-3.4,9.1
		C966.9,1219.5,963.1,1223.5,957.7,1228.4z"/>
	<path class="st1" d="M982.9,1228.4h15.5v2.3h-18.1v-1.1c4.9-5.1,8.4-9.2,10.4-12.3c2-3.1,3.1-6,3.1-8.6c0-2.3-0.5-4-1.5-5.3
		c-1-1.3-2.4-1.9-4.2-1.9c-1.6,0-2.9,0.5-4,1.5c-1,1-1.7,2.4-1.8,4.2h-0.9c0-1.3,0.4-2.7,1.2-4.1s1.8-2.6,3-3.4
		c1.2-0.8,2.6-1.2,4.1-1.2c2.2,0,4.1,0.8,5.7,2.5c1.5,1.7,2.3,3.8,2.3,6.3c0,2.8-1.1,5.9-3.4,9.1
		C992.1,1219.5,988.3,1223.5,982.9,1228.4z"/>
</g>
<g>
	<path class="st1" d="M654.5,1293.8c0,2.4-0.9,4.4-2.7,6c-1.8,1.6-4,2.5-6.6,2.5c-2.7,0-4.8-0.7-6.5-2.2c-1.7-1.4-2.5-3.3-2.5-5.6
		c0-1.7,0.5-3.3,1.6-4.6s2.8-2.7,5.3-4.1c-1.9-1-3.4-2.3-4.4-3.7c-1-1.5-1.5-3.1-1.5-4.9c0-2.3,0.8-4.2,2.4-5.6
		c1.6-1.5,3.6-2.2,6.1-2.2c2.3,0,4.3,0.7,5.9,2.1c1.6,1.4,2.3,3.1,2.3,5.1c0,3-1.8,5.5-5.5,7.6
		C652.4,1287,654.5,1290.2,654.5,1293.8z M639.2,1293.9c0,1.9,0.6,3.6,1.8,4.9c1.2,1.3,2.7,2,4.5,2c1.6,0,3-0.5,4.1-1.5
		c1.1-1,1.6-2.3,1.6-3.9c0-3.1-2.4-5.9-7.2-8.5C640.9,1288.3,639.2,1290.6,639.2,1293.9z M640,1275.4c0,1.4,0.6,2.7,1.7,3.9
		c1.1,1.2,3,2.6,5.6,4.1c2.4-1.2,3.6-3.3,3.6-6.2c0-2-0.5-3.6-1.6-4.8c-1.1-1.2-2.4-1.8-4.1-1.8c-1.5,0-2.7,0.5-3.7,1.4
		C640.5,1272.9,640,1274,640,1275.4z"/>
	<path class="st1" d="M666.2,1283.6c0.7,0,1.3,0.3,1.8,0.8c0.5,0.5,0.8,1.1,0.8,1.8s-0.3,1.3-0.8,1.8c-0.5,0.5-1.1,0.8-1.8,0.8
		c-0.7,0-1.3-0.3-1.9-0.8c-0.5-0.5-0.8-1.1-0.8-1.8s0.3-1.3,0.8-1.8C664.9,1283.8,665.5,1283.6,666.2,1283.6z M666.2,1297.8
		c0.7,0,1.3,0.3,1.8,0.8c0.5,0.5,0.8,1.1,0.8,1.8s-0.3,1.3-0.8,1.9s-1.1,0.8-1.8,0.8c-0.7,0-1.3-0.3-1.9-0.8s-0.8-1.1-0.8-1.9
		c0-0.7,0.3-1.3,0.8-1.8S665.5,1297.8,666.2,1297.8z"/>
	<path class="st1" d="M697.8,1285.8c0,3.2-0.5,6.1-1.4,8.5c-0.9,2.5-2.3,4.4-4,5.8s-3.6,2.1-5.5,2.1c-2,0-3.8-0.7-5.6-2.1
		s-3.1-3.4-4-5.8c-0.9-2.5-1.4-5.4-1.4-8.6c0-3.2,0.5-6,1.4-8.4c0.9-2.5,2.3-4.4,4-5.8c1.7-1.4,3.6-2.1,5.6-2.1c2,0,3.8,0.7,5.5,2.1
		c1.7,1.4,3,3.4,4,5.8C697.3,1279.7,697.8,1282.6,697.8,1285.8z M693.6,1285.8c0-4.7-0.6-8.4-1.7-11.1s-2.8-4-5-4s-3.8,1.3-5,4
		c-1.2,2.7-1.8,6.3-1.8,11c0,4.7,0.6,8.4,1.8,11.1s2.8,4,5,4c2.2,0,3.8-1.3,5-3.9C693,1294.3,693.6,1290.6,693.6,1285.8z"/>
	<path class="st1" d="M723,1285.8c0,3.2-0.5,6.1-1.4,8.5c-0.9,2.5-2.3,4.4-4,5.8s-3.6,2.1-5.5,2.1c-2,0-3.8-0.7-5.6-2.1
		s-3.1-3.4-4-5.8c-0.9-2.5-1.4-5.4-1.4-8.6c0-3.2,0.5-6,1.4-8.4c0.9-2.5,2.3-4.4,4-5.8c1.7-1.4,3.6-2.1,5.6-2.1c2,0,3.8,0.7,5.5,2.1
		c1.7,1.4,3,3.4,4,5.8C722.5,1279.7,723,1282.6,723,1285.8z M718.8,1285.8c0-4.7-0.6-8.4-1.7-11.1s-2.8-4-5-4s-3.8,1.3-5,4
		c-1.2,2.7-1.8,6.3-1.8,11c0,4.7,0.6,8.4,1.8,11.1s2.8,4,5,4c2.2,0,3.8-1.3,5-3.9C718.2,1294.3,718.8,1290.6,718.8,1285.8z"/>
	<path class="st1" d="M739.2,1270.1h11.5c3.8,0,6.7,0.8,8.9,2.5c2.2,1.7,3.3,3.8,3.3,6.4c0,2.6-1,4.6-2.9,6
		c-1.9,1.4-4.7,2.1-8.3,2.1c-1.4,0-3-0.1-4.8-0.3v8.8c0,1.9,0.3,3.2,0.8,3.9c0.5,0.7,1.4,1.1,2.8,1.1v0.9h-11.3v-0.9
		c1.4,0,2.3-0.4,2.8-1.1c0.5-0.8,0.8-2,0.8-3.8v-19.8c0-1.9-0.3-3.2-0.8-3.9c-0.5-0.7-1.4-1.1-2.8-1.1V1270.1z M750.8,1271.3h-3.9
		v14.1c1.1,0.4,2.4,0.5,3.9,0.5c2.4,0,4.2-0.6,5.6-1.8c1.4-1.2,2.1-2.9,2.1-5c0-2.3-0.7-4.2-2-5.6
		C755.1,1272.1,753.2,1271.3,750.8,1271.3z"/>
	<path class="st1" d="M796.1,1270.1h7.4v0.9c-2.4,0.1-3.5,1.5-3.5,4.2c0,0.2,0,0.5,0,0.7l1.6,19.4c0.2,2.1,0.5,3.4,1.1,4.1
		c0.5,0.7,1.5,1.1,2.9,1.2v0.9h-11.3v-0.9c1.2-0.2,2.1-0.6,2.5-1.2c0.5-0.6,0.7-1.5,0.7-2.7c0-0.3,0-0.5,0-0.8l-1.7-20.4l-10.8,26.1
		h-0.8l-10.7-26l-1.8,19.4c0,0.3,0,0.6,0,0.9c0,2.7,1.4,4.3,4.1,4.8v0.9H766v-0.9c1.3-0.2,2.3-0.6,2.8-1.4c0.6-0.7,1-2.2,1.2-4.4
		l1.9-21.7c-1.1-1.2-2.5-1.9-4.1-2.2v-0.9h8l10.1,24.8L796.1,1270.1z"/>
	<path class="st1" d="M822.7,1285.7c0-4.7,1.6-8.6,4.8-11.7c3.2-3.1,7.2-4.7,12.1-4.7c4.7,0,8.6,1.6,11.9,4.8
		c3.2,3.2,4.9,7.1,4.9,11.6c0,4.7-1.6,8.6-4.9,11.9c-3.3,3.2-7.2,4.8-12,4.8c-4.7,0-8.7-1.6-11.9-4.8
		C824.3,1294.4,822.7,1290.4,822.7,1285.7z M827.5,1285.8c0,4.6,1.1,8.3,3.3,11.2c2.2,2.8,5.1,4.3,8.6,4.3c3.6,0,6.5-1.5,8.7-4.4
		c2.2-2.9,3.3-6.5,3.3-10.9c0-4.7-1.1-8.4-3.3-11.2c-2.2-2.8-5-4.2-8.5-4.2c-3.7,0-6.6,1.4-8.9,4.2
		C828.6,1277.5,827.5,1281.2,827.5,1285.8z"/>
	<path class="st1" d="M867.1,1281.6v3.9c2.3-2.6,4.6-3.9,7-3.9c1.9,0,3.4,0.6,4.7,1.9c1.3,1.3,1.9,3,1.9,5.1v8.8
		c0,1.3,0.2,2.2,0.7,2.7c0.4,0.4,1.3,0.6,2.6,0.6v0.9h-10.4v-0.9c1.3,0,2.2-0.2,2.6-0.5c0.5-0.3,0.7-1,0.7-1.9v-10.2
		c0-1.4-0.4-2.4-1.2-3.3c-0.8-0.8-1.9-1.2-3.1-1.2c-1.8,0-3.7,1.3-5.5,3.8v9.5c0,1.6,0.2,2.6,0.6,3.1s1.3,0.7,2.6,0.7v0.9h-10.3
		v-0.9c1.5,0,2.4-0.2,2.7-0.7c0.3-0.5,0.5-1.5,0.5-3v-11c0-1.2-0.2-1.9-0.6-2.3c-0.4-0.4-1.3-0.6-2.6-0.6v-0.9l6.1-0.6H867.1z"/>
	<path class="st1" d="M895,1282.2v0.9c-1.4,0-2,0.4-2,1.2c0,0.4,0.2,0.9,0.5,1.7l4.4,10.9l4.6-11.7c-0.4-0.8-0.8-1.3-1.2-1.6
		s-0.9-0.4-1.7-0.4v-0.9h9.4v0.9c-1.7,0-2.5,0.5-2.5,1.5c0,0.3,0.1,0.8,0.3,1.3l4.3,11l4-10.2c0.3-0.8,0.5-1.5,0.5-2
		c0-1-0.8-1.6-2.5-1.6v-0.9h7.6v0.9c-1.4,0-2.3,0.2-2.8,0.6c-0.5,0.4-1.1,1.4-1.7,2.9l-6.1,15.4h-0.9l-6.2-15.4l-6.1,15.4H896
		l-6.9-16.8c-0.6-1.4-1.8-2.2-3.6-2.2v-0.9H895z"/>
	<path class="st1" d="M928.2,1302.3c-1.5,0-2.8-0.5-3.9-1.5s-1.6-2.2-1.6-3.7c0-1.4,0.5-2.5,1.4-3.4c0.9-0.9,2.9-1.7,5.7-2.5
		c1.8-0.5,3-0.9,3.7-1.3v-1.5c0-1.4-0.4-2.6-1.2-3.4c-0.8-0.9-1.8-1.3-3.2-1.3c-1.2,0-2.3,0.4-3.2,1.1c-0.9,0.8-1.6,1.8-2,3.1
		l-1-0.3c0.4-1.8,1.3-3.3,2.6-4.4c1.3-1.1,2.9-1.6,4.6-1.6c2.1,0,3.8,0.6,5.1,1.9c1.3,1.3,1.9,3,1.9,5.3v8.4c0,1.2,0.1,2,0.2,2.4
		s0.4,0.6,0.9,0.6c0.3,0,0.5-0.1,0.7-0.4s0.4-0.7,0.6-1.5h0.9c-0.1,1.2-0.5,2.2-1.1,2.9c-0.7,0.7-1.6,1.1-2.6,1.1
		c-1.6,0-2.7-0.9-3.3-2.8c-1,1.1-1.8,1.8-2.6,2.2C930.1,1302.1,929.2,1302.3,928.2,1302.3z M933.4,1297.7v-6.6
		c-0.6,0.2-1.4,0.5-2.4,0.9c-2,0.7-3.2,1.3-3.7,2c-0.5,0.7-0.8,1.5-0.8,2.6c0,1,0.3,1.8,0.9,2.5c0.6,0.7,1.3,1.1,2.1,1.1
		c0.7,0,1.5-0.2,2.3-0.7C932.5,1299,933.1,1298.4,933.4,1297.7z"/>
	<path class="st1" d="M949.2,1281.6v4.2c1.8-1.6,3.2-2.7,4.2-3.3c1-0.6,1.8-0.9,2.5-0.9c1.2,0,2.4,0.5,3.6,1.5l-1.5,3.5
		c-2.1-1.1-3.6-1.7-4.6-1.7c-1.1,0-2.5,0.8-4.1,2.4v10.7c0,1.1,0.2,1.8,0.7,2.2c0.4,0.4,1.3,0.6,2.6,0.6v0.9h-10.3v-0.9
		c1.4,0,2.3-0.2,2.7-0.6c0.4-0.4,0.6-1.5,0.6-3.1v-10.6c0-1.3-0.2-2.2-0.7-2.6c-0.5-0.4-1.6-0.6-3.3-0.6v-0.9l6.8-0.6H949.2z"/>
	<path class="st1" d="M980.2,1267.1h0.9v30.8c0,1.1,0.2,1.8,0.7,2.2s1.3,0.6,2.6,0.6v0.9H973c-3.5,0-6.3-1-8.3-2.9
		c-2-1.9-3-4.3-3-7.3c0-2.7,0.9-5.1,2.7-7c1.8-1.9,3.9-2.9,6.5-2.9c2,0,4.2,0.8,6.6,2.4v-12c0-1.3-0.2-2.2-0.5-2.7
		c-0.3-0.5-1-0.7-2.1-0.7h-1.1v-0.9L980.2,1267.1z M977.3,1297.8v-11.7c-0.8-1-1.6-1.8-2.6-2.4c-1-0.6-2-0.9-3-0.9
		c-1.8,0-3.2,0.7-4.3,2.2c-1.1,1.5-1.6,3.4-1.6,5.7c0,3,0.7,5.5,2.2,7.3c1.5,1.8,3.6,2.8,6.3,2.8c1.1,0,1.9-0.2,2.4-0.7
		C977.1,1299.6,977.3,1298.8,977.3,1297.8z"/>
	<path class="st1" d="M999.6,1281.6v6h-1.1c-0.2-1.5-0.7-2.7-1.6-3.6s-2-1.3-3.3-1.3c-1,0-1.7,0.2-2.3,0.7c-0.6,0.5-0.9,1.1-0.9,1.9
		c0,0.8,0.3,1.5,0.8,2.1c0.5,0.6,1.7,1.3,3.6,2.2c2.4,1.1,3.9,2.1,4.7,3.1c0.8,1,1.1,2.2,1.1,3.5c0,1.6-0.6,3-1.8,4.2
		c-1.2,1.2-2.7,1.8-4.3,1.8c-0.9,0-2-0.3-3.4-0.9c-0.8-0.3-1.3-0.5-1.5-0.5c-0.3,0-0.6,0.1-0.9,0.4c-0.2,0.3-0.4,0.6-0.4,0.9h-0.9
		v-6.6h0.9c0.3,1.7,1.1,3.1,2.3,4.2s2.5,1.5,4,1.5c1,0,1.8-0.3,2.4-1c0.7-0.6,1-1.4,1-2.4c0-0.9-0.3-1.7-0.9-2.4
		c-0.6-0.7-1.9-1.4-3.9-2.3c-2.3-1-3.7-1.9-4.5-2.8c-0.7-0.9-1.1-1.9-1.1-3.1c0-1.5,0.6-2.8,1.8-3.9s2.6-1.7,4.2-1.7
		c0.8,0,1.6,0.2,2.4,0.5c0.6,0.3,1.1,0.4,1.5,0.4c0.5,0,0.9-0.3,1.2-0.9H999.6z"/>
</g>
<g>
	<path class="st1" d="M723.4,1428.4H715v9.3c0,1.9,0.3,3.2,0.8,3.9c0.5,0.7,1.5,1.1,2.8,1.1v0.9h-11.3v-0.9c1.4,0,2.3-0.4,2.8-1.1
		s0.8-2,0.8-3.9v-19.7c0-1.9-0.3-3.2-0.8-3.9c-0.5-0.7-1.4-1.1-2.8-1.1v-0.9h21.6v5.6h-0.7c-0.3-1.7-0.8-2.8-1.3-3.3
		s-1.8-0.8-3.8-0.8h-8v13.2h8.2c1.1,0,1.9-0.3,2.5-0.8c0.5-0.6,0.9-1.5,1-2.9h0.9v8.9h-0.9C726.7,1429.6,725.5,1428.4,723.4,1428.4z
		"/>
	<path class="st1" d="M736.4,1444.3c-1.5,0-2.8-0.5-3.9-1.5s-1.6-2.2-1.6-3.7c0-1.4,0.5-2.5,1.4-3.4c0.9-0.9,2.9-1.7,5.7-2.5
		c1.8-0.5,3-0.9,3.7-1.3v-1.5c0-1.4-0.4-2.6-1.2-3.4c-0.8-0.9-1.8-1.3-3.2-1.3c-1.2,0-2.3,0.4-3.2,1.1c-0.9,0.8-1.6,1.8-2,3.1
		l-1-0.3c0.4-1.8,1.3-3.3,2.6-4.4c1.3-1.1,2.9-1.6,4.6-1.6c2.1,0,3.8,0.6,5.1,1.9c1.3,1.3,1.9,3,1.9,5.3v8.4c0,1.2,0.1,2,0.2,2.4
		s0.4,0.6,0.9,0.6c0.3,0,0.5-0.1,0.7-0.4s0.4-0.7,0.6-1.5h0.9c-0.1,1.2-0.5,2.2-1.1,2.9c-0.7,0.7-1.6,1.1-2.6,1.1
		c-1.6,0-2.7-0.9-3.3-2.8c-1,1.1-1.8,1.8-2.6,2.2C738.4,1444.1,737.5,1444.3,736.4,1444.3z M741.7,1439.7v-6.6
		c-0.6,0.2-1.4,0.5-2.4,0.9c-2,0.7-3.2,1.3-3.7,2c-0.5,0.7-0.8,1.5-0.8,2.6c0,1,0.3,1.8,0.9,2.5c0.6,0.7,1.3,1.1,2.1,1.1
		c0.7,0,1.5-0.2,2.3-0.7C740.8,1441,741.3,1440.4,741.7,1439.7z"/>
	<path class="st1" d="M757.5,1423.6v4.2c1.8-1.6,3.2-2.7,4.2-3.3c1-0.6,1.8-0.9,2.5-0.9c1.2,0,2.4,0.5,3.6,1.5l-1.5,3.5
		c-2.1-1.1-3.6-1.7-4.6-1.7c-1.1,0-2.5,0.8-4.1,2.4v10.7c0,1.1,0.2,1.8,0.7,2.2c0.4,0.4,1.3,0.6,2.6,0.6v0.9h-10.3v-0.9
		c1.4,0,2.3-0.2,2.7-0.6c0.4-0.4,0.6-1.5,0.6-3.1v-10.6c0-1.3-0.2-2.2-0.7-2.6c-0.5-0.4-1.6-0.6-3.3-0.6v-0.9l6.8-0.6H757.5z"/>
	<path class="st1" d="M776.7,1423.6h0.9v16.4c0,1.1,0.2,1.8,0.7,2.2c0.5,0.4,1.3,0.5,2.6,0.5v0.9h-10.7v-0.9c1.6,0,2.6-0.2,3-0.5
		s0.7-1.1,0.7-2.2v-12c0-1.2-0.2-2-0.6-2.3c-0.4-0.4-1.4-0.6-3.1-0.6v-0.9L776.7,1423.6z M775.8,1413.5c0.7,0,1.2,0.2,1.7,0.7
		c0.5,0.5,0.7,1,0.7,1.7c0,0.7-0.2,1.2-0.7,1.7c-0.5,0.5-1,0.7-1.7,0.7c-0.7,0-1.2-0.2-1.7-0.7c-0.5-0.5-0.7-1-0.7-1.7
		c0-0.7,0.2-1.2,0.7-1.7C774.5,1413.8,775.1,1413.5,775.8,1413.5z"/>
	<path class="st1" d="M792.2,1424.2v0.9c-1.1,0.2-1.7,0.7-1.7,1.7c0,0.4,0.1,0.8,0.3,1.3l4.7,11l3.4-10.3c0.3-0.8,0.4-1.5,0.4-2
		c0-1-0.7-1.6-2-1.7v-0.9h6.9v0.9c-1,0-1.9,0.4-2.6,1.1c-0.7,0.7-1.3,1.9-1.9,3.5l-7.8,23c-0.8,2.2-1.7,3.9-2.9,5.2
		c-1.2,1.3-2.4,1.9-3.6,1.9c-0.7,0-1.5-0.3-2.4-0.8l1.3-3.4c0.7,0.3,1.3,0.5,1.9,0.5c1.2,0,2.1-0.4,2.9-1.1c0.8-0.7,1.5-2,2.1-3.7
		l2.5-7.1l-7-16.1c-0.5-1.2-1-2-1.5-2.3c-0.5-0.4-1.3-0.6-2.4-0.6v-0.9H792.2z"/>
	<path class="st1" d="M811.7,1444.3c-1.5,0-2.8-0.5-3.9-1.5s-1.6-2.2-1.6-3.7c0-1.4,0.5-2.5,1.4-3.4c0.9-0.9,2.9-1.7,5.7-2.5
		c1.8-0.5,3-0.9,3.7-1.3v-1.5c0-1.4-0.4-2.6-1.2-3.4c-0.8-0.9-1.8-1.3-3.2-1.3c-1.2,0-2.3,0.4-3.2,1.1c-0.9,0.8-1.6,1.8-2,3.1
		l-1-0.3c0.4-1.8,1.3-3.3,2.6-4.4c1.3-1.1,2.9-1.6,4.6-1.6c2.1,0,3.8,0.6,5.1,1.9c1.3,1.3,1.9,3,1.9,5.3v8.4c0,1.2,0.1,2,0.2,2.4
		s0.4,0.6,0.9,0.6c0.3,0,0.5-0.1,0.7-0.4s0.4-0.7,0.6-1.5h0.9c-0.1,1.2-0.5,2.2-1.1,2.9c-0.7,0.7-1.6,1.1-2.6,1.1
		c-1.6,0-2.7-0.9-3.3-2.8c-1,1.1-1.8,1.8-2.6,2.2C813.6,1444.1,812.7,1444.3,811.7,1444.3z M816.9,1439.7v-6.6
		c-0.6,0.2-1.4,0.5-2.4,0.9c-2,0.7-3.2,1.3-3.7,2c-0.5,0.7-0.8,1.5-0.8,2.6c0,1,0.3,1.8,0.9,2.5c0.6,0.7,1.3,1.1,2.1,1.1
		c0.7,0,1.5-0.2,2.3-0.7C816,1441,816.6,1440.4,816.9,1439.7z"/>
	<path class="st1" d="M839,1423.6v6h-1.1c-0.2-1.5-0.7-2.7-1.6-3.6s-2-1.3-3.3-1.3c-1,0-1.7,0.2-2.3,0.7c-0.6,0.5-0.9,1.1-0.9,1.9
		c0,0.8,0.3,1.5,0.8,2.1c0.5,0.6,1.7,1.3,3.6,2.2c2.4,1.1,3.9,2.1,4.7,3.1c0.8,1,1.1,2.2,1.1,3.5c0,1.6-0.6,3-1.8,4.2
		c-1.2,1.2-2.7,1.8-4.3,1.8c-0.9,0-2-0.3-3.4-0.9c-0.8-0.3-1.3-0.5-1.5-0.5c-0.3,0-0.6,0.1-0.9,0.4c-0.2,0.3-0.4,0.6-0.4,0.9h-0.9
		v-6.6h0.9c0.3,1.7,1.1,3.1,2.3,4.2s2.5,1.5,4,1.5c1,0,1.8-0.3,2.4-1c0.7-0.6,1-1.4,1-2.4c0-0.9-0.3-1.7-0.9-2.4
		c-0.6-0.7-1.9-1.4-3.9-2.3c-2.3-1-3.7-1.9-4.5-2.8c-0.7-0.9-1.1-1.9-1.1-3.1c0-1.5,0.6-2.8,1.8-3.9s2.6-1.7,4.2-1.7
		c0.8,0,1.6,0.2,2.4,0.5c0.6,0.3,1.1,0.4,1.5,0.4c0.5,0,0.9-0.3,1.2-0.9H839z"/>
	<path class="st1" d="M866.3,1429h-2.6v8.7c0,1.9,0.3,3.2,0.8,3.9c0.5,0.7,1.5,1.1,2.8,1.1v0.9h-11.3v-0.9c1.4,0,2.3-0.4,2.8-1.1
		c0.5-0.7,0.7-2,0.7-3.9V1418c0-1.9-0.2-3.2-0.7-3.9c-0.5-0.7-1.4-1.1-2.8-1.1v-0.9H869c3.2,0,5.7,0.8,7.6,2.3s2.9,3.5,2.9,5.9
		c0,3.9-2.2,6.4-6.5,7.7c1,0.6,1.9,1.4,2.8,2.5c0.9,1.1,2.1,2.8,3.6,5.3c1.6,2.7,2.9,4.5,3.9,5.4s1.9,1.3,2.9,1.4v0.9h-6.5
		c-1.3-1.6-2.9-3.9-4.8-7c-2-3.3-3.6-5.3-4.7-6.2S867.7,1429,866.3,1429z M867.1,1413.3h-3.3v14.4h3.9c2.3,0,4.1-0.7,5.4-2
		c1.3-1.3,2-3.1,2-5.3c0-2.1-0.7-3.9-2.2-5.2C871.4,1414,869.5,1413.3,867.1,1413.3z"/>
	<path class="st1" d="M907.4,1438.6v1.4c-1.2,1.5-2.4,2.6-3.6,3.2c-1.2,0.6-2.7,1-4.4,1c-3,0-5.6-1-7.5-2.9s-3-4.3-3-7.3
		c0-3,0.9-5.4,2.8-7.5c1.9-2,4.2-3,6.9-3c2.3,0,4.2,0.8,5.9,2.3c1.7,1.5,2.5,3.3,2.5,5.5v0.4h-14.3v0.3c0,2.1,0.3,4,1,5.6
		c0.7,1.6,1.6,2.8,2.9,3.7c1.3,0.9,2.6,1.3,3.9,1.3c1.3,0,2.4-0.3,3.3-0.8S905.9,1440.3,907.4,1438.6z M892.8,1430.8h10.6v-0.4
		c0-1.7-0.5-3.1-1.5-4.1c-1-1-2.2-1.5-3.7-1.5c-1.6,0-2.8,0.5-3.8,1.6C893.4,1427.5,892.9,1428.9,892.8,1430.8z"/>
	<path class="st1" d="M923.6,1423.6v6h-1.1c-0.2-1.5-0.7-2.7-1.6-3.6s-2-1.3-3.3-1.3c-1,0-1.7,0.2-2.3,0.7c-0.6,0.5-0.9,1.1-0.9,1.9
		c0,0.8,0.3,1.5,0.8,2.1c0.5,0.6,1.7,1.3,3.6,2.2c2.4,1.1,3.9,2.1,4.7,3.1c0.8,1,1.1,2.2,1.1,3.5c0,1.6-0.6,3-1.8,4.2
		c-1.2,1.2-2.7,1.8-4.3,1.8c-0.9,0-2-0.3-3.4-0.9c-0.8-0.3-1.3-0.5-1.5-0.5c-0.3,0-0.6,0.1-0.9,0.4c-0.2,0.3-0.4,0.6-0.4,0.9h-0.9
		v-6.6h0.9c0.3,1.7,1.1,3.1,2.3,4.2s2.5,1.5,4,1.5c1,0,1.8-0.3,2.4-1c0.7-0.6,1-1.4,1-2.4c0-0.9-0.3-1.7-0.9-2.4
		c-0.6-0.7-1.9-1.4-3.9-2.3c-2.3-1-3.7-1.9-4.5-2.8c-0.7-0.9-1.1-1.9-1.1-3.1c0-1.5,0.6-2.8,1.8-3.9s2.6-1.7,4.2-1.7
		c0.8,0,1.6,0.2,2.4,0.5c0.6,0.3,1.1,0.4,1.5,0.4c0.5,0,0.9-0.3,1.2-0.9H923.6z"/>
	<path class="st1" d="M949.7,1434c0,2.9-1,5.4-3,7.4c-2,2-4.6,2.9-7.6,2.9s-5.6-1-7.6-2.9c-2-2-3.1-4.4-3.1-7.4c0-3,1-5.4,3-7.4
		s4.6-2.9,7.6-2.9c3.1,0,5.6,1,7.6,2.9C948.7,1428.5,949.7,1431,949.7,1434z M945.7,1434c0-2.8-0.6-5-1.8-6.7
		c-1.2-1.7-2.8-2.6-4.8-2.6c-2,0-3.7,0.8-4.8,2.5c-1.2,1.7-1.8,3.9-1.8,6.8c0,2.8,0.6,5,1.8,6.7c1.2,1.7,2.8,2.5,4.9,2.5
		s3.7-0.8,4.9-2.5C945.1,1439,945.7,1436.7,945.7,1434z"/>
	<path class="st1" d="M959.8,1423.6v4.2c1.8-1.6,3.2-2.7,4.2-3.3c1-0.6,1.8-0.9,2.5-0.9c1.2,0,2.4,0.5,3.6,1.5l-1.5,3.5
		c-2.1-1.1-3.6-1.7-4.6-1.7c-1.1,0-2.5,0.8-4.1,2.4v10.7c0,1.1,0.2,1.8,0.7,2.2c0.4,0.4,1.3,0.6,2.6,0.6v0.9h-10.3v-0.9
		c1.4,0,2.3-0.2,2.7-0.6c0.4-0.4,0.6-1.5,0.6-3.1v-10.6c0-1.3-0.2-2.2-0.7-2.6c-0.5-0.4-1.6-0.6-3.3-0.6v-0.9l6.8-0.6H959.8z"/>
	<path class="st1" d="M979.9,1417.5h0.9v6.6h6.8v1.4h-6.8v12.6c0,1.3,0.3,2.3,0.9,3c0.6,0.7,1.5,1.1,2.6,1.1c1.3,0,2.5-0.6,3.6-1.9
		l0.6,0.7c-1.7,2.2-3.7,3.3-5.9,3.3c-1.7,0-3-0.5-4.1-1.6c-1-1.1-1.6-2.4-1.6-4.1v-13.1h-3.7v-0.9
		C976.1,1423.2,978.2,1420.9,979.9,1417.5z"/>
	<path class="st1" d="M993.4,1453.1v-0.9c1.4-0.7,2.4-1.6,3-2.5c0.6-0.9,0.9-2.1,0.9-3.7c0-0.4-0.1-0.7-0.2-0.8s-0.4-0.2-0.8-0.2
		c-0.8,0-1.5-0.3-2-0.8c-0.6-0.5-0.8-1.1-0.8-1.9c0-0.7,0.3-1.3,0.8-1.8c0.5-0.5,1.1-0.8,1.9-0.8c1.2,0,2.2,0.5,2.9,1.5
		c0.8,1,1.1,2.2,1.1,3.8c0,1.9-0.6,3.6-1.9,5.1C997,1451.7,995.4,1452.6,993.4,1453.1z"/>
</g>
<g>
	<path class="st1" d="M856.6,1507.8h0.9l-1.9,6.9h-22.8v-0.9c1.3,0,2.2-0.4,2.8-1.2c0.5-0.8,0.8-2.2,0.8-4.1v-19.9
		c0-1.7-0.3-2.9-0.8-3.6c-0.5-0.7-1.4-1-2.8-1v-0.9h11.3v0.9c-1.3,0-2.2,0.4-2.7,1.2c-0.5,0.8-0.8,2-0.8,3.8v21.1
		c0,1.2,0.2,2,0.7,2.4c0.5,0.4,1.4,0.6,2.8,0.6h6.3c1.9,0,3.3-0.3,4.1-1S855.9,1510,856.6,1507.8z"/>
	<path class="st1" d="M881.2,1505c0,2.9-1,5.4-3,7.4c-2,2-4.6,2.9-7.6,2.9s-5.6-1-7.6-2.9c-2-2-3.1-4.4-3.1-7.4c0-3,1-5.4,3-7.4
		s4.6-2.9,7.6-2.9c3.1,0,5.6,1,7.6,2.9C880.2,1499.5,881.2,1502,881.2,1505z M877.1,1505c0-2.8-0.6-5-1.8-6.7
		c-1.2-1.7-2.8-2.6-4.8-2.6c-2,0-3.7,0.8-4.8,2.5c-1.2,1.7-1.8,3.9-1.8,6.8c0,2.8,0.6,5,1.8,6.7c1.2,1.7,2.8,2.5,4.9,2.5
		s3.7-0.8,4.9-2.5C876.6,1510,877.1,1507.7,877.1,1505z"/>
	<path class="st1" d="M890.7,1494.6v3.9c2.3-2.6,4.6-3.9,7-3.9c1.9,0,3.4,0.6,4.7,1.9c1.3,1.3,1.9,3,1.9,5.1v8.8
		c0,1.3,0.2,2.2,0.7,2.7c0.4,0.4,1.3,0.6,2.6,0.6v0.9h-10.4v-0.9c1.3,0,2.2-0.2,2.6-0.5c0.5-0.3,0.7-1,0.7-1.9v-10.2
		c0-1.4-0.4-2.4-1.2-3.3c-0.8-0.8-1.9-1.2-3.1-1.2c-1.8,0-3.7,1.3-5.5,3.8v9.5c0,1.6,0.2,2.6,0.6,3.1s1.3,0.7,2.6,0.7v0.9h-10.3
		v-0.9c1.5,0,2.4-0.2,2.7-0.7c0.3-0.5,0.5-1.5,0.5-3v-11c0-1.2-0.2-1.9-0.6-2.3c-0.4-0.4-1.3-0.6-2.6-0.6v-0.9l6.1-0.6H890.7z"/>
	<path class="st1" d="M915.5,1515.3c-1.5,0-2.8-0.5-3.9-1.5s-1.6-2.2-1.6-3.7c0-1.4,0.5-2.5,1.4-3.4c0.9-0.9,2.9-1.7,5.7-2.5
		c1.8-0.5,3-0.9,3.7-1.3v-1.5c0-1.4-0.4-2.6-1.2-3.4c-0.8-0.9-1.8-1.3-3.2-1.3c-1.2,0-2.3,0.4-3.2,1.1c-0.9,0.8-1.6,1.8-2,3.1
		l-1-0.3c0.4-1.8,1.3-3.3,2.6-4.4c1.3-1.1,2.9-1.6,4.6-1.6c2.1,0,3.8,0.6,5.1,1.9c1.3,1.3,1.9,3,1.9,5.3v8.4c0,1.2,0.1,2,0.2,2.4
		s0.4,0.6,0.9,0.6c0.3,0,0.5-0.1,0.7-0.4s0.4-0.7,0.6-1.5h0.9c-0.1,1.2-0.5,2.2-1.1,2.9c-0.7,0.7-1.6,1.1-2.6,1.1
		c-1.6,0-2.7-0.9-3.3-2.8c-1,1.1-1.8,1.8-2.6,2.2C917.5,1515.1,916.6,1515.3,915.5,1515.3z M920.8,1510.7v-6.6
		c-0.6,0.2-1.4,0.5-2.4,0.9c-2,0.7-3.2,1.3-3.7,2c-0.5,0.7-0.8,1.5-0.8,2.6c0,1,0.3,1.8,0.9,2.5c0.6,0.7,1.3,1.1,2.1,1.1
		c0.7,0,1.5-0.2,2.3-0.7C919.9,1512,920.4,1511.4,920.8,1510.7z"/>
	<path class="st1" d="M937.1,1495.2v0.9c-1.3,0.1-1.9,0.7-1.9,1.6c0,0.5,0.1,1.1,0.4,1.8l4.3,10.4l3.8-9.9c0.4-1,0.6-1.7,0.6-2.2
		c0-1-0.8-1.6-2.5-1.7v-0.9h7.1v0.9c-1.2,0.1-2,0.3-2.4,0.7c-0.5,0.4-0.9,1.1-1.3,2.1l-6.3,16.1h-0.9l-6.2-15.3
		c-0.6-1.5-1.2-2.5-1.6-2.9c-0.5-0.4-1.3-0.7-2.5-0.7v-0.9H937.1z"/>
	<path class="st1" d="M956.2,1515.3c-1.5,0-2.8-0.5-3.9-1.5s-1.6-2.2-1.6-3.7c0-1.4,0.5-2.5,1.4-3.4c0.9-0.9,2.9-1.7,5.7-2.5
		c1.8-0.5,3-0.9,3.7-1.3v-1.5c0-1.4-0.4-2.6-1.2-3.4c-0.8-0.9-1.8-1.3-3.2-1.3c-1.2,0-2.3,0.4-3.2,1.1c-0.9,0.8-1.6,1.8-2,3.1
		l-1-0.3c0.4-1.8,1.3-3.3,2.6-4.4c1.3-1.1,2.9-1.6,4.6-1.6c2.1,0,3.8,0.6,5.1,1.9c1.3,1.3,1.9,3,1.9,5.3v8.4c0,1.2,0.1,2,0.2,2.4
		s0.4,0.6,0.9,0.6c0.3,0,0.5-0.1,0.7-0.4s0.4-0.7,0.6-1.5h0.9c-0.1,1.2-0.5,2.2-1.1,2.9c-0.7,0.7-1.6,1.1-2.6,1.1
		c-1.6,0-2.7-0.9-3.3-2.8c-1,1.1-1.8,1.8-2.6,2.2C958.1,1515.1,957.2,1515.3,956.2,1515.3z M961.4,1510.7v-6.6
		c-0.6,0.2-1.4,0.5-2.4,0.9c-2,0.7-3.2,1.3-3.7,2c-0.5,0.7-0.8,1.5-0.8,2.6c0,1,0.3,1.8,0.9,2.5c0.6,0.7,1.3,1.1,2.1,1.1
		c0.7,0,1.5-0.2,2.3-0.7C960.5,1512,961.1,1511.4,961.4,1510.7z"/>
	<path class="st1" d="M980.7,1513.7h0.5v0.9h-10.9v-0.9h1c1,0,1.7-0.3,2-0.8s0.5-1.5,0.5-2.9v-25.7c0-1-0.2-1.7-0.6-2.1
		c-0.4-0.4-1.1-0.6-2-0.6H970v-0.9l6.7-0.7h0.9v30.9c0,1.1,0.2,1.8,0.6,2.2C978.7,1513.5,979.5,1513.7,980.7,1513.7z"/>
	<path class="st1" d="M989.5,1515.3c-1.5,0-2.8-0.5-3.9-1.5s-1.6-2.2-1.6-3.7c0-1.4,0.5-2.5,1.4-3.4c0.9-0.9,2.9-1.7,5.7-2.5
		c1.8-0.5,3-0.9,3.7-1.3v-1.5c0-1.4-0.4-2.6-1.2-3.4c-0.8-0.9-1.8-1.3-3.2-1.3c-1.2,0-2.3,0.4-3.2,1.1c-0.9,0.8-1.6,1.8-2,3.1
		l-1-0.3c0.4-1.8,1.3-3.3,2.6-4.4c1.3-1.1,2.9-1.6,4.6-1.6c2.1,0,3.8,0.6,5.1,1.9c1.3,1.3,1.9,3,1.9,5.3v8.4c0,1.2,0.1,2,0.2,2.4
		s0.4,0.6,0.9,0.6c0.3,0,0.5-0.1,0.7-0.4s0.4-0.7,0.6-1.5h0.9c-0.1,1.2-0.5,2.2-1.1,2.9c-0.7,0.7-1.6,1.1-2.6,1.1
		c-1.6,0-2.7-0.9-3.3-2.8c-1,1.1-1.8,1.8-2.6,2.2C991.4,1515.1,990.5,1515.3,989.5,1515.3z M994.7,1510.7v-6.6
		c-0.6,0.2-1.4,0.5-2.4,0.9c-2,0.7-3.2,1.3-3.7,2c-0.5,0.7-0.8,1.5-0.8,2.6c0,1,0.3,1.8,0.9,2.5c0.6,0.7,1.3,1.1,2.1,1.1
		c0.7,0,1.5-0.2,2.3-0.7C993.8,1512,994.4,1511.4,994.7,1510.7z"/>
</g>
<g>
	<path class="st2" d="M441.2,427.4c-1.7,4-4.6,7-7.7,9.8c-8.8,8.1-18.6,14.5-28.9,20.4c-8.3,5-16.9,9.4-25.4,14
		c-1.1,0.6-1.7,1.3-1.8,2.4c-1.5,7.7-3.1,15.5-4.6,23.2c0,0.6,0,1.5,0.4,1.8c6.8,8.6,13.4,17.5,22.1,24.5
		c7.2,6.1,15.5,10.3,24.8,12.1c1.1,0.2,2.4,0.4,3.7,0.4c0.9,0,1.8-0.6,2.6-0.9c1.5-0.9,2.9-0.9,4,0c1.1,1.1,1.1,2.8,0,4.2
		c-1.3,1.7-3.3,2.4-5.3,2.6c-5.5,0.2-10.7-1.3-15.6-3.3c-11.4-4.2-20.6-11.8-28.5-20.8c-3.1-3.5-6.1-7.2-9-10.7
		c0-0.2-0.2-0.4-0.6-0.7c-0.6,3.1-7.9,42.3-8.3,43.6c-0.4,1.3-1.3,2-2.8,2c-1.5,0-2.4-0.7-2.8-2c-0.7-2.9-1.5-5.9-2-8.8
		c-0.2-2,0.9-2.9,3.9-3.3c0.4-2.2,6.6-35.2,6.8-37.4c0.2-0.6-0.4-1.3-0.7-1.7c-2.9-3.7-6.1-7.2-9.2-10.7c-0.9-1.1-1.8-2.2-2.4-3.5
		c-1.7-2.6-1.1-5.3,1.3-7.2c1.5-0.9,2.9-1.8,4.4-2.6c3.9-2,7.9-3.9,11.8-5.9c0.7-0.4,1.3-1.1,1.5-1.8c3.1-12.1,6.3-24.3,9.4-36.6
		c0.2-0.2,0.2-0.4,0.4-0.9c-5.2,2-9.8,4.2-14,7.7c0.6,0.6,0.9,0.9,1.3,1.5c0.9,1.3,0.9,2.8,0,3.7c-0.9,1.1-2.4,1.3-3.7,0.6
		c-3.9-2-4.8-7.2-1.5-9.9c2.8-2.2,5.7-4,8.6-5.7c3.3-1.8,6.8-2.9,10.3-4.6c0.6-0.4,1.3-1.1,1.5-1.7c1.8-4.6,3.5-9.2,5.2-13.8
		c0.2-0.6,0.4-0.9,0.6-1.5c0.7-1.8,2.4-2.6,3.9-2c1.5,0.7,2.2,2.4,1.5,4.2c-1.1,3.1-2.4,6.1-3.5,9.2c-0.2,0.7-0.6,1.7-0.9,2.8
		c2.2-0.7,4.2-1.3,6.1-1.7c9.9-2.6,19.9-4.4,30.2-4c2.9,0.2,6.3,0.7,9,2C441.9,418.2,443.4,422.6,441.2,427.4z M370.9,475.6
		c-4.2,2.2-8.1,4-12.3,6.3c3.1,3.7,6.1,7,9,10.5C368.6,486.6,369.7,481.3,370.9,475.6z M433.2,421.1c-2.8-0.7-5.7-1.1-8.5-0.9
		c-11.4,0.2-22.6,2.6-33.5,6.1c-1.5,0.4-2.2,1.1-2.6,2.6c-1.7,6.3-3.5,12.3-5.2,18.4c-1.5,5.7-2.9,11.6-4.4,17.7
		c0.9-0.4,1.5-0.6,2-0.9c7-3.9,14-7.5,20.8-11.6c9.6-5.7,19-11.6,27.1-19.1c2.4-2.2,4.4-4.6,6.3-7
		C437.1,423.5,436.6,421.7,433.2,421.1z"/>
	<path class="st2" d="M463,496.6c-0.6,1.1-1.7,1.8-2.4,2.6c-3.5,3.5-7.2,6.6-10.9,9.6c-4.2,3.1-8.5,6.3-13.3,8.1
		c-6.8,2.6-12.7-0.9-13.8-8.1c-0.4-1.5-0.6-2.9-0.4-4.4c0-0.9,0.2-1.7,0.2-2.6c0-0.7-0.2-1.7-0.4-2.2c-0.4-1.3-0.2-2.4,0.6-3.5
		c0.7-1.1,1.5-2.2,1.8-3.5c1.8-6.1,4-12,7.4-17.5c1.3-2.2,2.9-4.4,5-6.1c2.6-2.2,6.3-1.5,7.4,1.5c0.6,1.3,0.7,3.1,0.2,4.4
		c-0.6,2.2-1.5,4.2-2.8,6.1c-3.5,5-7.2,9.9-10.9,14.7c-1.1,1.5-2.2,2.8-2.2,4.6c-0.2,2.6-0.6,5.2-0.2,7.5c0.4,3.7,2.9,5.2,6.3,3.7
		c9.2-4.4,17.1-11.6,24.5-18.4c1.1-1.1,2.9-3.1,4.2-1.5C464.2,493.3,464,495.1,463,496.6z"/>
	<path class="st2" d="M502.8,493.1c-0.2,0.6-1.3,2-1.7,2.4c-5.5,7-11.4,13.1-18.8,18c-2.9,1.8-6.1,3.5-9.2,4.6
		c-7.4,2.4-13.6-1.5-14.9-9.2c-0.4-1.8-0.4-3.5-0.4-5c0-3.9,0.7-7.5,1.5-11.2c1.3-5.2,2.9-10.3,5.3-15.1c1.3-2.8,2.8-5.3,4.6-7.9
		c1.1-1.7,2.6-3.1,4.2-4.2c5-3.1,10.7-0.4,11.4,5.3c0.2,1.5,0,2.9-0.4,4.2c-0.4,1.8-1.7,2.8-3.1,2.6s-2.4-1.7-2.4-3.3
		c0.2-0.9,0.4-1.7,0.2-2.4s-0.6-1.7-0.9-1.8c-0.6-0.4-1.7,0-2,0.4c-1.3,1.3-2.6,2.8-3.7,4.4c-3.3,5.3-5.7,11.2-7.2,17.5
		c-1.3,5.7-2.9,11.8-1.1,17.3c0.9,2.8,2.9,4,5.7,3.3c2.4-0.7,5.2-1.8,7.4-3.1c5.5-3.1,10.1-7.5,14.4-12.1c1.1-1.1,4-4,5-5.2
		c1.5-1.5,3.1-3.1,4.6-2.9C503,489.6,503.5,491.2,502.8,493.1z"/>
	<path class="st2" d="M536.5,496.6c-0.6,1.1-1.7,1.8-2.4,2.6c-3.5,3.5-7.2,6.6-10.9,9.6c-4.2,3.1-8.5,6.3-13.3,8.1
		c-6.8,2.6-12.7-0.9-13.8-8.1c-0.4-1.5-0.6-2.9-0.4-4.4c0-0.9,0.2-1.7,0.2-2.6c0-0.7-0.2-1.7-0.4-2.2c-0.4-1.3-0.2-2.4,0.6-3.5
		c0.7-1.1,1.5-2.2,1.8-3.5c1.8-6.1,4-12,7.4-17.5c1.3-2.2,2.9-4.4,5-6.1c2.6-2.2,6.3-1.5,7.4,1.5c0.6,1.3,0.7,3.1,0.2,4.4
		c-0.6,2.2-1.5,4.2-2.8,6.1c-3.5,5-7.2,9.9-10.9,14.7c-1.1,1.5-2.2,2.8-2.2,4.6c-0.2,2.6-0.6,5.2-0.2,7.5c0.4,3.7,2.9,5.2,6.3,3.7
		c9.2-4.4,17.1-11.6,24.5-18.4c1.1-1.1,2.9-3.1,4.2-1.5C537.6,493.3,537.4,495.1,536.5,496.6z"/>
	<path class="st2" d="M541.3,521.2c-3.9,16-5.3,32.4-5.2,49c0,0.9,0,1.8-0.4,2.8c-0.2,1.3-1.1,2-2.6,2c-1.3,0-2.2-0.7-2.8-2
		c-0.2-0.7-0.2-1.7-0.2-2.4c0-21.3,1.1-42.5,2.9-63.7c0.9-12.5,2.2-24.8,4.8-37c0.6-3.5,1.7-7,2.8-10.5c0.2-0.9,0.7-1.7,1.5-2.4
		c0.9-0.9,2.2-1.1,3.5-0.4c1.1,0.7,1.5,2,0.9,3.3c-3.7,9.2-4.6,19-5.9,28.5c-0.7,5.5-1.3,11.2-1.8,16.7c0,0.9,0,1.7,0.2,2.6
		c0-0.4,0.2-0.7,0.4-1.1c3.3-9.9,7.4-19.5,13.6-28c2-2.8,4.6-5.2,7.2-7.5c0.9-1.1,2.4-1.8,3.9-2.2c4.6-1.8,8.6,0.7,9.2,5.5
		c0,2.4-0.2,4.8-0.7,7c-2.9,9-7.7,16.7-14.5,23.4c-1.5,1.5-3.3,2.8-5.2,3.7c-2.6,1.5-5.2,1.5-7.9-0.7
		C543.7,512.4,542.4,516.8,541.3,521.2z M567,474.3c-0.6-0.2-1.7,0-2.2,0.6c-1.5,0.9-2.9,2-4,3.5c-5.7,6.1-9.4,13.4-12.5,21.2
		c-0.4,1.1,0,3.1,0.9,4c0.7,0.7,3.7-1.7,4.2-2c6.4-6.1,10.9-13.4,13.6-21.7c0.4-1.1,0.6-2.2,0.7-3.5
		C567.9,475.2,567.6,474.5,567,474.3z"/>
	<path class="st2" d="M635.5,423.9c-0.4,0.2-0.7,0.2-1.1,0.4c-14,4-28,8.1-42,12.1c-1.3,0.4-1.8,1.1-2,2.2
		c-3.1,15.8-7.5,39.9-8.8,55.9c-0.7,8.5-1.1,16.7,0.7,24.8c0.4,1.3,0.9,2.6,1.3,3.9c0.2,0.6,0.4,2.4,1.1,2.6
		c1.1,0.2,3.9-3.7,4.4-4.4c3.3-5.2,3.1-4.8,6.4-10.1c5-8.1,7.2-11.8,12-19.9c0.4-0.7,0.9-1.5,1.5-1.8c0.9-0.6,1.8-0.6,2.6-0.2
		s1.1,1.7,1.1,2.8c0.2,0.6-0.9,2.9-1.3,3.7c-7.2,12-15.3,26.9-21.7,33.3c-0.9,1.1-1.8,1.7-2.9,2.2c-2.6,1.1-5,0.2-6.6-2.4
		c-2.4-3.3-3.3-7.4-3.9-11.2c-1.5-8.6-0.9-17.5-0.2-26.1c1.3-14.2,5.3-36.4,8.1-50.4c0.2-0.7,0.2-1.3,0.4-2.2
		c-4.4,1.1-8.6,2.4-13.1,3.3c-2.2,0.6-4.6,0.9-7.2,1.1c-0.7,0.2-1.5-0.2-2.2-0.4c-1.3-0.6-1.8-1.7-1.7-3.1c0.4-1.3,1.3-2,2.6-2.2
		c7.7-0.2,16-3.3,23.4-5.2c0,0,0.6-1.8,1.5-6.1c0-0.4,0.2-0.7,0-0.9c-1.3-2-0.4-4.2,0.2-6.1c1.3-4.4,2.8-8.8,4.2-13.3
		c0.7-2.2,2-3.1,3.9-2.6c1.7,0.4,2.4,2,1.8,4.2c-2.2,9.4-2.6,7.7-4.6,17.1c-0.4,1.7-0.7,3.5-1.3,5.5c0.9-0.2,1.5-0.4,2-0.6
		c12.7-3.7,25.4-7.4,38.1-11c0.7-0.2,1.3-0.4,2-0.4c1.5,0,2.6,0.9,2.9,2C637.3,421.8,636.8,423.1,635.5,423.9z"/>
	<path class="st2" d="M640.3,495.5c-1.3,1.7-7,9-15.8,17.1c-2.2,2-4.6,3.5-7.2,5.2c-1.1,0.9-2.6,1.3-4,1.7c-3.1,0.6-5.7-1.1-7.2-4.2
		c-1.1-2.6-1.5-6.3-0.9-12c0.7-6.1,2.4-13.1,5.2-19.9c0.6-1.5,1.5-3.1,2.6-4.4c1.3-1.7,3.5-1.8,4.6-0.6c1.5,1.3,1.3,3.1-0.4,4.6
		c-0.6,0.4-0.9,0.9-1.1,1.5c-3.3,7.9-5.5,16-5.3,24.7c0,1.3,0.4,2.4,0.6,3.5c0.7,3.1,6.8-1.7,7.7-2.8c3.3-3.3,6.1-5.7,9.2-9.2
		c5.3-6.1,3.5-3.5,8.8-9.8c1.3-1.7,2.8-2,4.2-1.1C642.5,490.7,641.6,494,640.3,495.5z M618,464c1.1-3.1,1.5-5,2.8-8.1
		c0.6-1.7,2.4-2,3.7-1.5c1.5,0.6,1.8,2,1.3,3.9c-0.7,2.4-0.7,3.1-1.7,5.5c-0.2,0.7-0.6,1.7-1.1,2.2c-0.7,1.1-1.8,1.5-3.1,0.9
		C618.7,466.4,617.6,465.3,618,464z"/>
	<path class="st2" d="M678,487c0,0.7-0.6,1.7-1.1,2.2c-0.6,0.4-4.6,1.1-5.5,1.1c-5.9,0.2-8.5,0.2-11.4-0.7c-0.2,3.1-0.4,6.1-0.7,9
		c-1.3,8.1-4.2,15.6-10.3,21.7c-1.5,1.5-3.5,2.6-5.3,3.5c-3.3,1.3-6.4,0.2-8.3-2.9c-1.8-3.1-2-6.6-1.8-10.1c0.4-8.1,2.6-15.6,5-23.4
		c1.1-3.7,2.6-7.4,3.9-11c0.2-0.7,0.2-1.3,0.2-2c-0.4-2.4-1.1-4.6-1.3-7c-0.4-3.9,2.6-5.9,6.1-4.2c5.2,2.2,8.5,6.3,10.3,11.6
		c0.9,2.6,1.3,5.3,1.8,8.1c0.2,0.6,0.2,1.3,0.4,2.2c4.8,1.1,12.7,0.4,13.3,0.2c1.1,0,2.4-0.2,3.5-0.2
		C677.4,485.2,678.2,486.1,678,487z M651.7,486.6c-2.2-0.9-4-2.9-6.1-4.6c-2.9,9.2-6.1,18.4-6.8,28.2c0,2.4,0.2,4.6,0.7,6.8
		c0.4,2.2,1.7,2.6,3.3,1.3c2-1.5,3.9-3.3,5.2-5.3c4.6-6.3,6.1-13.4,6.6-21C654.8,489.4,654.3,487.7,651.7,486.6z M654.1,481.8
		c-0.6-2.2-1.1-4.2-1.8-6.3c0-0.2-0.4-0.4-0.6-0.4c-0.9-0.2-1.7-0.4-2.6-0.6C648.2,476.1,650.8,480.4,654.1,481.8z"/>
	<path class="st2" d="M701.5,478.3c-9,10.1-16.6,21.2-22.1,33.7c-0.9,2-1.8,4-2.8,6.1c-0.6,0.7-0.9,1.5-1.5,2.2
		c-0.9,1.3-2.2,2.2-3.9,1.8c-1.8-0.4-2.8-1.7-2.8-3.3c-0.2-2.8-0.4-5.5,0.2-8.1c1.8-8.6,4-17.1,6.3-25.6c0.2-1.1,0.6-2.2,0.9-3.3
		c0.4-1.3,0.7-2.6-0.2-3.9c-0.4-0.6-0.2-1.7,0.2-2.4c1.1-3.5,2.4-7,3.7-10.5c0.7-1.8,2.2-2.6,3.7-2c1.5,0.4,2.6,1.8,2,3.7
		c-1.8,7.7-3.9,15.3-5.7,23c-1.3,5.2-2.8,10.3-4,15.5c-0.2,0.6-0.4,1.3-0.2,2c0.2-0.6,0.6-1.1,0.7-1.5c6.1-12.1,13.6-23.2,23-32.9
		c0.9-1.1,2.2-2.2,3.3-2.9c2.8-1.7,5.7-0.6,6.3,2.6c0.6,2.4,0.6,5,0.2,7.5c-0.6,5.9-1.7,11.8-2.2,17.7c-0.2,1.7,0,3.5,0.2,5.3
		c0.2,2,0.4,4,1.1,5.9c4.6-3.1,8.5-8.6,11.4-13.1c0.6-0.9,1.1-1.8,1.7-2.6c2-3.1,3.5-3.5,4.8-2.6c1.3,0.9,1.1,3.9,0,5.5
		c-3.1,4.6-5,7.5-8.5,11.8c-1.7,2-3.3,3.1-5.2,4.8c-3.9,3.1-7.9,2-9.8-2.6c-1.8-4.4-1.8-9-1.5-13.6c0.6-5.9,1.7-11.6,2.4-17.5
		c0-0.7,0-2-0.2-2.4C702.6,477.2,702.1,477.8,701.5,478.3z"/>
</g>
<g>
	<g>
		<path class="st1" d="M694,1421.3c0,2-0.5,3.9-1.5,5.7c-3.1,5.4-6.2,10.8-9.3,16.1c-0.4,0.8-1.2,0.8-1.7,0
			c-3.1-5.4-6.3-10.8-9.3-16.2c-4-7.1,0.5-16.1,8.6-17.1c6.5-0.9,12.4,3.8,13.1,10.3C694,1420.5,694,1420.9,694,1421.3
			 M682.3,1427.2c3.6,0,6.5-2.9,6.5-6.5c0-3.6-2.9-6.5-6.5-6.5c-3.6,0-6.5,2.9-6.5,6.5C675.8,1424.3,678.7,1427.2,682.3,1427.2"/>
	</g>
	<g>
		<polygon class="st1" points="627.5,1362 674.4,1361.5 721.3,1361.2 815,1361 908.8,1361.2 955.6,1361.5 1002.5,1362 955.6,1362.5 
			908.8,1362.8 815,1363 721.3,1362.8 674.4,1362.5 		"/>
	</g>
</g>
<g>
	<g>
		<g>
			<defs>
				<path id="SVGID_1_" d="M480.9,206.2l-5,7.2l-5-7.2c-0.2-0.4-0.6-0.5-1-0.5c-0.3,0-0.6,0.1-0.7,0.3c-0.2,0.2-0.3,0.5-0.3,0.8
					c0,0.2,0.1,0.4,0.2,0.6l5.7,8v6.1c0,0.3,0.1,0.6,0.3,0.8c0.2,0.2,0.5,0.3,0.8,0.3s0.6-0.1,0.8-0.3c0.2-0.2,0.3-0.5,0.3-0.8v-6.1
					l5.7-8c0.1-0.2,0.2-0.4,0.2-0.6c0-0.3-0.1-0.6-0.3-0.8c-0.2-0.2-0.5-0.3-0.8-0.3C481.5,205.6,481.2,205.8,480.9,206.2"/>
			</defs>
			<clipPath id="SVGID_2_">
				<use xlink:href="#SVGID_1_"  style="overflow:visible;"/>
			</clipPath>
			
				<linearGradient id="SVGID_3_" gradientUnits="userSpaceOnUse" x1="-909.7325" y1="3626.1721" x2="-908.7325" y2="3626.1721" gradientTransform="matrix(13.9467 0 0 -13.9467 13156.7656 50787.1367)">
				<stop  offset="0" style="stop-color:#D79617"/>
				<stop  offset="0" style="stop-color:#B46A11"/>
				<stop  offset="0.3198" style="stop-color:#D68D15"/>
				<stop  offset="0.6802" style="stop-color:#E7AC18"/>
				<stop  offset="1" style="stop-color:#F8C73D"/>
			</linearGradient>
			<rect x="469" y="205.6" class="st3" width="14" height="16.8"/>
		</g>
	</g>
	<g>
		<g>
			<defs>
				<path id="SVGID_4_" d="M485.7,213.3c0.3-0.5,0.8-0.9,1.3-1.2c0.5-0.2,1.1-0.4,1.6-0.4s1.1,0.1,1.6,0.4c0.5,0.2,1,0.6,1.3,1.2
					c0.4,0.5,0.6,1.2,0.6,2h-7C485.2,214.5,485.4,213.8,485.7,213.3 M485.4,210.8c-0.9,0.6-1.5,1.4-1.9,2.3c-0.4,1-0.6,2-0.6,3.1
					c0,2,0.5,3.5,1.6,4.7c1.1,1.1,2.6,1.7,4.5,1.7c1,0,1.7-0.1,2.3-0.3c0.6-0.2,1.2-0.4,1.8-0.8c0.4-0.2,0.6-0.5,0.6-0.9
					c0-0.3-0.1-0.5-0.3-0.7c-0.2-0.2-0.4-0.3-0.7-0.3c-0.2,0-0.3,0-0.4,0.1c-0.5,0.2-1,0.4-1.5,0.5s-1.1,0.2-1.7,0.2
					c-1.3,0-2.2-0.3-2.9-0.9c-0.7-0.6-1.1-1.5-1.2-2.6h8.1c0.3,0,0.6-0.1,0.8-0.3c0.2-0.2,0.3-0.5,0.3-0.8c0-1.1-0.2-2.1-0.7-3
					c-0.4-0.9-1.1-1.6-2-2.2c-0.9-0.5-1.9-0.8-3-0.8C487.4,210,486.3,210.3,485.4,210.8"/>
			</defs>
			<clipPath id="SVGID_5_">
				<use xlink:href="#SVGID_4_"  style="overflow:visible;"/>
			</clipPath>
			
				<linearGradient id="SVGID_6_" gradientUnits="userSpaceOnUse" x1="-893.6701" y1="3612.2515" x2="-892.6701" y2="3612.2515" gradientTransform="matrix(11.3518 0 0 -11.3518 10627.6846 41221.8555)">
				<stop  offset="0" style="stop-color:#D79617"/>
				<stop  offset="0" style="stop-color:#B46A11"/>
				<stop  offset="0.3198" style="stop-color:#D68D15"/>
				<stop  offset="0.6802" style="stop-color:#E7AC18"/>
				<stop  offset="1" style="stop-color:#F8C73D"/>
			</linearGradient>
			<rect x="482.9" y="210" class="st4" width="11.4" height="12.6"/>
		</g>
	</g>
	<g>
		<g>
			<defs>
				<path id="SVGID_7_" d="M497.4,205.2c-0.2,0.2-0.3,0.5-0.3,0.8v15.4c0,0.3,0.1,0.6,0.3,0.8c0.2,0.2,0.5,0.3,0.8,0.3
					s0.6-0.1,0.8-0.3c0.2-0.2,0.3-0.5,0.3-0.8v-7.1c0.6-0.7,1.1-1.3,1.8-1.7c0.6-0.4,1.3-0.6,2.1-0.6c1.7,0,2.6,1,2.6,2.9v6.5
					c0,0.3,0.1,0.6,0.3,0.8c0.2,0.2,0.5,0.3,0.8,0.3s0.6-0.1,0.8-0.3c0.2-0.2,0.3-0.5,0.3-0.8v-6.8c0-0.9-0.2-1.6-0.5-2.4
					c-0.3-0.7-0.8-1.3-1.5-1.7c-0.6-0.4-1.4-0.6-2.3-0.6c-1,0-1.8,0.2-2.5,0.6c-0.7,0.4-1.3,0.9-2,1.6v-6.2c0-0.3-0.1-0.6-0.3-0.8
					c-0.2-0.2-0.5-0.3-0.8-0.3C497.9,204.9,497.6,205,497.4,205.2"/>
			</defs>
			<clipPath id="SVGID_8_">
				<use xlink:href="#SVGID_7_"  style="overflow:visible;"/>
			</clipPath>
			
				<linearGradient id="SVGID_9_" gradientUnits="userSpaceOnUse" x1="-889.6932" y1="3608.8096" x2="-888.6931" y2="3608.8096" gradientTransform="matrix(10.8519 0 0 -10.8519 10151.9893 39376.1406)">
				<stop  offset="0" style="stop-color:#D79617"/>
				<stop  offset="0" style="stop-color:#B46A11"/>
				<stop  offset="0.3198" style="stop-color:#D68D15"/>
				<stop  offset="0.6802" style="stop-color:#E7AC18"/>
				<stop  offset="1" style="stop-color:#F8C73D"/>
			</linearGradient>
			<rect x="497.1" y="204.9" class="st5" width="10.9" height="17.6"/>
		</g>
	</g>
	<g>
		<g>
			<defs>
				<path id="SVGID_10_" d="M511.9,210.4c-0.2,0.2-0.3,0.5-0.3,0.8v10.2c0,0.3,0.1,0.6,0.3,0.8s0.5,0.3,0.8,0.3s0.6-0.1,0.8-0.3
					s0.3-0.5,0.3-0.8v-10.2c0-0.3-0.1-0.6-0.3-0.8s-0.5-0.3-0.8-0.3C512.4,210.1,512.1,210.2,511.9,210.4 M512.6,205.2
					c-0.3,0-0.6,0.1-0.9,0.4c-0.2,0.2-0.4,0.5-0.4,0.9v0.1c0,0.3,0.1,0.6,0.4,0.9c0.2,0.2,0.5,0.4,0.9,0.4h0.1
					c0.3,0,0.6-0.1,0.9-0.4s0.4-0.5,0.4-0.9v-0.1c0-0.3-0.1-0.6-0.4-0.9C513.4,205.4,513.1,205.2,512.6,205.2L512.6,205.2z"/>
			</defs>
			<clipPath id="SVGID_11_">
				<use xlink:href="#SVGID_10_"  style="overflow:visible;"/>
			</clipPath>
			
				<linearGradient id="SVGID_12_" gradientUnits="userSpaceOnUse" x1="-598.6326" y1="3356.8525" x2="-597.6325" y2="3356.8525" gradientTransform="matrix(2.5697 0 0 -2.5697 2049.7363 8839.9541)">
				<stop  offset="0" style="stop-color:#D79617"/>
				<stop  offset="0" style="stop-color:#B46A11"/>
				<stop  offset="0.3198" style="stop-color:#D68D15"/>
				<stop  offset="0.6802" style="stop-color:#E7AC18"/>
				<stop  offset="1" style="stop-color:#F8C73D"/>
			</linearGradient>
			<rect x="511.4" y="205.2" class="st6" width="2.6" height="17.3"/>
		</g>
	</g>
	<g>
		<g>
			<defs>
				<path id="SVGID_13_" d="M563.1,250.7c-0.3,0-0.6,0.1-0.8,0.3s-0.3,0.5-0.3,0.8v14.6c0,0.3,0.1,0.6,0.3,0.8
					c0.2,0.2,0.5,0.3,0.8,0.3s0.6-0.1,0.8-0.3c0.2-0.2,0.3-0.5,0.3-0.8V260h7.4c0.3,0,0.5-0.1,0.7-0.3c0.2-0.2,0.3-0.4,0.3-0.7
					s-0.1-0.5-0.3-0.7s-0.4-0.3-0.7-0.3h-7.4v-5.3h8.2c0.3,0,0.5-0.1,0.7-0.3s0.3-0.4,0.3-0.7s-0.1-0.5-0.3-0.7s-0.4-0.3-0.7-0.3
					H563.1z"/>
			</defs>
			<clipPath id="SVGID_14_">
				<use xlink:href="#SVGID_13_"  style="overflow:visible;"/>
			</clipPath>
			
				<linearGradient id="SVGID_15_" gradientUnits="userSpaceOnUse" x1="-894.0424" y1="3612.5886" x2="-893.0425" y2="3612.5886" gradientTransform="matrix(11.4011 0 0 -11.4011 10755.0664 41446.5859)">
				<stop  offset="0" style="stop-color:#D79617"/>
				<stop  offset="0" style="stop-color:#B46A11"/>
				<stop  offset="0.3198" style="stop-color:#D68D15"/>
				<stop  offset="0.6802" style="stop-color:#E7AC18"/>
				<stop  offset="1" style="stop-color:#F8C73D"/>
			</linearGradient>
			<rect x="562" y="250.7" class="st7" width="11.4" height="16.8"/>
		</g>
	</g>
	<g>
		<g>
			<defs>
				<path id="SVGID_16_" d="M578.6,265.2c-0.6-0.3-1.1-0.8-1.5-1.4c-0.4-0.7-0.6-1.5-0.6-2.5s0.2-1.8,0.6-2.5
					c0.4-0.7,0.9-1.1,1.5-1.4s1.2-0.4,1.9-0.4s1.3,0.1,1.9,0.4c0.6,0.3,1.1,0.8,1.5,1.4c0.4,0.7,0.6,1.5,0.6,2.5s-0.2,1.8-0.6,2.5
					c-0.4,0.7-0.9,1.1-1.5,1.4s-1.2,0.5-1.9,0.5C579.8,265.6,579.2,265.5,578.6,265.2 M577.3,255.7c-0.9,0.5-1.6,1.3-2.1,2.2
					c-0.5,1-0.8,2.1-0.8,3.3c0,1.2,0.3,2.3,0.8,3.3s1.2,1.7,2.1,2.2c0.9,0.5,2,0.8,3.2,0.8s2.3-0.3,3.2-0.8s1.6-1.3,2.2-2.2
					c0.5-1,0.8-2.1,0.8-3.3c0-1.2-0.3-2.3-0.8-3.3s-1.2-1.7-2.2-2.2c-0.9-0.5-2-0.8-3.2-0.8C579.3,255,578.2,255.2,577.3,255.7"/>
			</defs>
			<clipPath id="SVGID_17_">
				<use xlink:href="#SVGID_16_"  style="overflow:visible;"/>
			</clipPath>
			
				<linearGradient id="SVGID_18_" gradientUnits="userSpaceOnUse" x1="-899.9185" y1="3617.6597" x2="-898.9185" y2="3617.6597" gradientTransform="matrix(12.2376 0 0 -12.2376 11587.2422 44532.8242)">
				<stop  offset="0" style="stop-color:#D79617"/>
				<stop  offset="0" style="stop-color:#B46A11"/>
				<stop  offset="0.3198" style="stop-color:#D68D15"/>
				<stop  offset="0.6802" style="stop-color:#E7AC18"/>
				<stop  offset="1" style="stop-color:#F8C73D"/>
			</linearGradient>
			<rect x="574.4" y="255" class="st8" width="12.2" height="12.7"/>
		</g>
	</g>
	<g>
		<g>
			<defs>
				<path id="SVGID_19_" d="M595.6,255c-1.4,0-2.6,0.7-3.8,2.2v-1c0-0.3-0.1-0.6-0.3-0.8s-0.5-0.3-0.8-0.3s-0.6,0.1-0.8,0.3
					s-0.3,0.5-0.3,0.8v10.3c0,0.3,0.1,0.6,0.3,0.8c0.2,0.2,0.5,0.3,0.8,0.3s0.6-0.1,0.8-0.3c0.2-0.2,0.3-0.5,0.3-0.8v-7.3
					c0.4-0.7,1-1.2,1.6-1.5c0.6-0.4,1.3-0.6,2.1-0.6h0.1c0.3,0,0.6-0.1,0.8-0.3c0.2-0.2,0.3-0.4,0.3-0.7c0-0.3-0.1-0.6-0.3-0.8
					S596,255,595.6,255L595.6,255z"/>
			</defs>
			<clipPath id="SVGID_20_">
				<use xlink:href="#SVGID_19_"  style="overflow:visible;"/>
			</clipPath>
			
				<linearGradient id="SVGID_21_" gradientUnits="userSpaceOnUse" x1="-841.9466" y1="3567.4702" x2="-840.9464" y2="3567.4702" gradientTransform="matrix(7.0987 0 0 -7.0987 6566.3931 25585.6523)">
				<stop  offset="0" style="stop-color:#D79617"/>
				<stop  offset="0" style="stop-color:#B46A11"/>
				<stop  offset="0.3198" style="stop-color:#D68D15"/>
				<stop  offset="0.6802" style="stop-color:#E7AC18"/>
				<stop  offset="1" style="stop-color:#F8C73D"/>
			</linearGradient>
			<rect x="589.7" y="255" class="st9" width="7.1" height="12.5"/>
		</g>
	</g>
	<g>
		<g>
			<defs>
				<path id="SVGID_22_" d="M600.5,258.3c0.4-0.5,0.8-0.9,1.3-1.2c0.5-0.2,1.1-0.4,1.6-0.4s1.1,0.1,1.6,0.4c0.5,0.2,1,0.6,1.3,1.2
					c0.4,0.5,0.6,1.2,0.6,2h-7.1C600,259.5,600.2,258.9,600.5,258.3 M600.3,255.8c-0.9,0.6-1.5,1.4-1.9,2.3c-0.4,1-0.6,2-0.6,3.1
					c0,2,0.5,3.6,1.6,4.7s2.6,1.7,4.6,1.7c1,0,1.7-0.1,2.3-0.3c0.6-0.2,1.2-0.4,1.8-0.8c0.4-0.2,0.6-0.5,0.6-0.9
					c0-0.3-0.1-0.5-0.3-0.7s-0.4-0.3-0.7-0.3c-0.2,0-0.3,0-0.4,0.1c-0.5,0.2-1,0.4-1.5,0.6c-0.5,0.1-1.1,0.2-1.8,0.2
					c-1.3,0-2.2-0.3-2.9-0.9s-1.1-1.5-1.2-2.6h8.1c0.3,0,0.6-0.1,0.8-0.3c0.2-0.2,0.3-0.5,0.3-0.8c0-1.1-0.2-2.1-0.7-3
					c-0.4-0.9-1.1-1.7-2-2.2c-0.9-0.6-1.9-0.8-3.1-0.8C602.2,255,601.1,255.3,600.3,255.8"/>
			</defs>
			<clipPath id="SVGID_23_">
				<use xlink:href="#SVGID_22_"  style="overflow:visible;"/>
			</clipPath>
			
				<linearGradient id="SVGID_24_" gradientUnits="userSpaceOnUse" x1="-894.0517" y1="3612.5908" x2="-893.0519" y2="3612.5908" gradientTransform="matrix(11.4022 0 0 -11.4022 10791.877 41452.832)">
				<stop  offset="0" style="stop-color:#D79617"/>
				<stop  offset="0" style="stop-color:#B46A11"/>
				<stop  offset="0.3198" style="stop-color:#D68D15"/>
				<stop  offset="0.6802" style="stop-color:#E7AC18"/>
				<stop  offset="1" style="stop-color:#F8C73D"/>
			</linearGradient>
			<rect x="597.7" y="255" class="st10" width="11.4" height="12.7"/>
		</g>
	</g>
	<g>
		<g>
			<defs>
				<path id="SVGID_25_" d="M620.4,255.3c-0.2,0.1-0.3,0.3-0.4,0.4l-3.7,9.3l-3.7-9.3c-0.1-0.2-0.2-0.3-0.4-0.4
					c-0.2-0.1-0.4-0.2-0.6-0.2c-0.3,0-0.6,0.1-0.8,0.3s-0.3,0.5-0.3,0.8c0,0.1,0,0.3,0.1,0.5l4.2,9.9c0.1,0.3,0.3,0.5,0.5,0.6
					c0.2,0.2,0.5,0.3,0.8,0.3h0.2c0.3,0,0.5-0.1,0.8-0.3c0.2-0.2,0.4-0.4,0.5-0.6l4.2-9.9c0.1-0.2,0.1-0.4,0.1-0.5
					c0-0.3-0.1-0.6-0.3-0.8s-0.5-0.3-0.8-0.3C620.7,255.1,620.6,255.1,620.4,255.3"/>
			</defs>
			<clipPath id="SVGID_26_">
				<use xlink:href="#SVGID_25_"  style="overflow:visible;"/>
			</clipPath>
			
				<linearGradient id="SVGID_27_" gradientUnits="userSpaceOnUse" x1="-894.2266" y1="3612.7419" x2="-893.2265" y2="3612.7419" gradientTransform="matrix(11.4254 0 0 -11.4254 10827.4961 41538.3203)">
				<stop  offset="0" style="stop-color:#D79617"/>
				<stop  offset="0" style="stop-color:#B46A11"/>
				<stop  offset="0.3198" style="stop-color:#D68D15"/>
				<stop  offset="0.6802" style="stop-color:#E7AC18"/>
				<stop  offset="1" style="stop-color:#F8C73D"/>
			</linearGradient>
			<rect x="610.6" y="255.1" class="st11" width="11.4" height="12.4"/>
		</g>
	</g>
	<g>
		<g>
			<defs>
				<path id="SVGID_28_" d="M626.4,258.3c0.3-0.5,0.8-0.9,1.3-1.2c0.5-0.2,1.1-0.4,1.6-0.4s1.1,0.1,1.6,0.4c0.5,0.2,1,0.6,1.3,1.2
					c0.4,0.5,0.6,1.2,0.6,2h-7.1C625.9,259.5,626.1,258.9,626.4,258.3 M626.2,255.8c-0.9,0.6-1.5,1.4-1.9,2.3c-0.4,1-0.6,2-0.6,3.1
					c0,2,0.5,3.6,1.6,4.7s2.6,1.7,4.6,1.7c1,0,1.7-0.1,2.3-0.3c0.6-0.2,1.2-0.4,1.8-0.8c0.4-0.2,0.6-0.5,0.6-0.9
					c0-0.3-0.1-0.5-0.3-0.7s-0.4-0.3-0.7-0.3c-0.2,0-0.3,0-0.4,0.1c-0.5,0.2-1,0.4-1.5,0.6c-0.5,0.1-1.1,0.2-1.8,0.2
					c-1.3,0-2.2-0.3-2.9-0.9s-1.1-1.5-1.2-2.6h8.1c0.3,0,0.6-0.1,0.8-0.3c0.2-0.2,0.3-0.5,0.3-0.8c0-1.1-0.2-2.1-0.7-3
					c-0.4-0.9-1.1-1.7-2-2.2c-0.9-0.6-1.9-0.8-3.1-0.8C628.1,255,627,255.3,626.2,255.8"/>
			</defs>
			<clipPath id="SVGID_29_">
				<use xlink:href="#SVGID_28_"  style="overflow:visible;"/>
			</clipPath>
			
				<linearGradient id="SVGID_30_" gradientUnits="userSpaceOnUse" x1="-894.0516" y1="3612.5908" x2="-893.0518" y2="3612.5908" gradientTransform="matrix(11.4022 0 0 -11.4022 10817.7871 41452.832)">
				<stop  offset="0" style="stop-color:#D79617"/>
				<stop  offset="0" style="stop-color:#B46A11"/>
				<stop  offset="0.3198" style="stop-color:#D68D15"/>
				<stop  offset="0.6802" style="stop-color:#E7AC18"/>
				<stop  offset="1" style="stop-color:#F8C73D"/>
			</linearGradient>
			<rect x="623.6" y="255" class="st12" width="11.4" height="12.7"/>
		</g>
	</g>
	<g>
		<g>
			<defs>
				<path id="SVGID_31_" d="M643.8,255c-1.4,0-2.6,0.7-3.8,2.2v-1c0-0.3-0.1-0.6-0.3-0.8s-0.5-0.3-0.8-0.3s-0.6,0.1-0.8,0.3
					s-0.3,0.5-0.3,0.8v10.3c0,0.3,0.1,0.6,0.3,0.8c0.2,0.2,0.5,0.3,0.8,0.3s0.6-0.1,0.8-0.3c0.2-0.2,0.3-0.5,0.3-0.8v-7.3
					c0.4-0.7,1-1.2,1.6-1.5c0.6-0.4,1.3-0.6,2.1-0.6h0.1c0.3,0,0.6-0.1,0.8-0.3c0.2-0.2,0.3-0.4,0.3-0.7c0-0.3-0.1-0.6-0.3-0.8
					S644.1,255,643.8,255L643.8,255z"/>
			</defs>
			<clipPath id="SVGID_32_">
				<use xlink:href="#SVGID_31_"  style="overflow:visible;"/>
			</clipPath>
			
				<linearGradient id="SVGID_33_" gradientUnits="userSpaceOnUse" x1="-841.9467" y1="3567.4702" x2="-840.9465" y2="3567.4702" gradientTransform="matrix(7.0987 0 0 -7.0987 6614.6274 25585.6523)">
				<stop  offset="0" style="stop-color:#D79617"/>
				<stop  offset="0" style="stop-color:#B46A11"/>
				<stop  offset="0.3198" style="stop-color:#D68D15"/>
				<stop  offset="0.6802" style="stop-color:#E7AC18"/>
				<stop  offset="1" style="stop-color:#F8C73D"/>
			</linearGradient>
			<rect x="637.9" y="255" class="st13" width="7.1" height="12.5"/>
		</g>
	</g>
	
		<linearGradient id="SVGID_34_" gradientUnits="userSpaceOnUse" x1="452.8" y1="1685.4258" x2="628.4286" y2="1685.4258" gradientTransform="matrix(1 0 0 -1 0 1918.5698)">
		<stop  offset="0" style="stop-color:#B76D11"/>
		<stop  offset="1" style="stop-color:#F7C53B"/>
	</linearGradient>
	<path class="st14" d="M516.7,306.6c0,0,6.4-8.2,6.4-49.6v-71.8c0,0-1.1-29.8,25.1-44.4c26.2-14.6,64.3-6.1,76.8,28
		c12.5,34-13.2,56.3-13.2,56.3s-14.3,15-33,15h-20.1V280c0,0,0.7,32.6-28.7,46.7c-29.4,14.1-57-1.2-65.8-13.9
		c-8.7-12.7-11.4-22.6-11.4-32.6s3.4-28.9,19.1-41.3c15.7-12.5,36.2-11.9,43.7-10.5v10.5c0,0-20-1.2-32.6,7.5s-17.8,19.8-17.8,36.9
		s17,36.9,42.9,36.9c18.2,0,28.8-15.1,28.8-15.1s8.2-8,8.2-27.3s0-91.4,0-91.4s-0.7-19.8,20.1-27.3c0,0-6.7,11.3-6.7,25.9
		s0,41.5,0,41.5h19.7c0,0,36.1-3,36.1-39.3s-33.1-40.5-39.9-40.5s-16.8,2.1-24,8.7c-7.2,6.5-14.9,15.4-14.9,27.3
		c0,11.9,0,42.2,0,42.2s1.4,2.9,4.6,5.2c0,0-0.6,11.2-4.7,16.8v30.7C535.3,277.4,536.3,298.9,516.7,306.6z"/>
</g>
</svg>
