<?xml version="1.0" encoding="utf-8"?>
<!-- Generator: Adobe Illustrator 24.0.1, SVG Export Plug-In . SVG Version: 6.00 Build 0)  -->
<svg version="1.1" id="Content" xmlns="http://www.w3.org/2000/svg" xmlns:xlink="http://www.w3.org/1999/xlink" x="0px" y="0px"
	 viewBox="0 0 1080 1920" style="enable-background:new 0 0 1080 1920;" xml:space="preserve">
<style type="text/css">
	.st0{enable-background:new    ;}
	.st1{fill:#9C5164;}
	.st2{fill:#B9932F;}
	.st3{fill:#DAAC35;}
	.st4{fill:#B8932E;}
	.st5{clip-path:url(#SVGID_2_);fill:url(#SVGID_3_);}
	.st6{clip-path:url(#SVGID_5_);fill:url(#SVGID_6_);}
	.st7{clip-path:url(#SVGID_8_);fill:url(#SVGID_9_);}
	.st8{clip-path:url(#SVGID_11_);fill:url(#SVGID_12_);}
	.st9{clip-path:url(#SVGID_14_);fill:url(#SVGID_15_);}
	.st10{clip-path:url(#SVGID_17_);fill:url(#SVGID_18_);}
	.st11{clip-path:url(#SVGID_20_);fill:url(#SVGID_21_);}
	.st12{clip-path:url(#SVGID_23_);fill:url(#SVGID_24_);}
	.st13{clip-path:url(#SVGID_26_);fill:url(#SVGID_27_);}
	.st14{clip-path:url(#SVGID_29_);fill:url(#SVGID_30_);}
	.st15{clip-path:url(#SVGID_32_);fill:url(#SVGID_33_);}
	.st16{fill:url(#SVGID_34_);}
</style>
<g class="st0">
	<path class="st1" d="M118.3,658.4h1.2l-2.5,8.9H87.4v-1.2c1.7,0,2.9-0.5,3.6-1.6s1.1-2.8,1.1-5.3v-25.7c0-2.2-0.3-3.7-1-4.6
		c-0.7-0.9-1.9-1.3-3.6-1.3v-1.2H102v1.2c-1.6,0-2.8,0.5-3.5,1.5c-0.7,1-1.1,2.6-1.1,4.9v27.3c0,1.5,0.3,2.5,1,3.1
		c0.6,0.6,1.9,0.8,3.7,0.8h8.1c2.5,0,4.3-0.4,5.3-1.3C116.5,663.1,117.4,661.2,118.3,658.4z"/>
	<path class="st1" d="M129.3,668.1c-2,0-3.7-0.7-5.1-2c-1.4-1.3-2.1-2.9-2.1-4.8c0-1.8,0.6-3.2,1.8-4.4c1.2-1.1,3.7-2.2,7.4-3.3
		c2.3-0.7,3.9-1.2,4.7-1.7v-1.9c0-1.8-0.5-3.3-1.5-4.4c-1-1.1-2.4-1.7-4.1-1.7c-1.6,0-2.9,0.5-4.1,1.5c-1.2,1-2.1,2.3-2.5,4
		l-1.3-0.3c0.5-2.3,1.6-4.2,3.3-5.6c1.7-1.4,3.7-2.1,6-2.1c2.7,0,4.9,0.8,6.6,2.5s2.5,3.9,2.5,6.8v10.8c0,1.5,0.1,2.6,0.3,3.1
		c0.2,0.5,0.6,0.8,1.1,0.8c0.4,0,0.7-0.2,0.9-0.5c0.2-0.3,0.5-1,0.8-2h1.2c-0.1,1.6-0.6,2.8-1.5,3.8c-0.9,0.9-2,1.4-3.4,1.4
		c-2.1,0-3.5-1.2-4.3-3.6c-1.3,1.4-2.4,2.3-3.3,2.8C131.8,667.8,130.7,668.1,129.3,668.1z M136.1,662.2v-8.6
		c-0.7,0.3-1.8,0.7-3.1,1.1c-2.5,0.9-4.1,1.7-4.9,2.6c-0.7,0.8-1.1,2-1.1,3.4c0,1.3,0.4,2.3,1.1,3.3c0.8,0.9,1.7,1.4,2.7,1.4
		c1,0,1.9-0.3,3-0.9C135,663.8,135.7,663.1,136.1,662.2z"/>
	<path class="st1" d="M155.4,668.1c-2,0-3.7-0.7-5.1-2c-1.4-1.3-2.1-2.9-2.1-4.8c0-1.8,0.6-3.2,1.8-4.4c1.2-1.1,3.7-2.2,7.4-3.3
		c2.3-0.7,3.9-1.2,4.7-1.7v-1.9c0-1.8-0.5-3.3-1.5-4.4c-1-1.1-2.4-1.7-4.1-1.7c-1.6,0-2.9,0.5-4.1,1.5c-1.2,1-2.1,2.3-2.5,4
		l-1.3-0.3c0.5-2.3,1.6-4.2,3.3-5.6c1.7-1.4,3.7-2.1,6-2.1c2.7,0,4.9,0.8,6.6,2.5s2.5,3.9,2.5,6.8v10.8c0,1.5,0.1,2.6,0.3,3.1
		c0.2,0.5,0.6,0.8,1.1,0.8c0.4,0,0.7-0.2,0.9-0.5c0.2-0.3,0.5-1,0.8-2h1.2c-0.1,1.6-0.6,2.8-1.5,3.8c-0.9,0.9-2,1.4-3.4,1.4
		c-2.1,0-3.5-1.2-4.3-3.6c-1.3,1.4-2.4,2.3-3.3,2.8C157.9,667.8,156.7,668.1,155.4,668.1z M162.2,662.2v-8.6
		c-0.7,0.3-1.8,0.7-3.1,1.1c-2.5,0.9-4.1,1.7-4.9,2.6c-0.7,0.8-1.1,2-1.1,3.4c0,1.3,0.4,2.3,1.1,3.3c0.8,0.9,1.7,1.4,2.7,1.4
		c1,0,1.9-0.3,3-0.9C161,663.8,161.7,663.1,162.2,662.2z"/>
	<path class="st1" d="M187.2,666.1h0.7v1.2h-14.1v-1.2h1.3c1.3,0,2.2-0.3,2.6-1s0.7-1.9,0.7-3.8V628c0-1.3-0.3-2.2-0.8-2.7
		c-0.5-0.5-1.4-0.8-2.6-0.8h-1.6v-1.2l8.7-0.9h1.2v40c0,1.4,0.3,2.3,0.8,2.8C184.6,665.8,185.7,666.1,187.2,666.1z"/>
	<path class="st1" d="M215.8,641.3v5.5c2.3-2,4.1-3.4,5.4-4.2c1.3-0.8,2.4-1.2,3.2-1.2c1.6,0,3.1,0.7,4.6,2l-1.9,4.5
		c-2.7-1.5-4.7-2.2-6-2.2c-1.4,0-3.2,1-5.4,3.1v13.9c0,1.4,0.3,2.3,0.9,2.8c0.6,0.5,1.7,0.7,3.3,0.7v1.2h-13.3v-1.2
		c1.8,0,2.9-0.3,3.5-0.8c0.5-0.6,0.8-1.9,0.8-4v-13.8c0-1.7-0.3-2.9-0.9-3.4s-2-0.8-4.3-0.8v-1.2l8.8-0.8H215.8z"/>
	<path class="st1" d="M239.2,668.1c-2,0-3.7-0.7-5.1-2c-1.4-1.3-2.1-2.9-2.1-4.8c0-1.8,0.6-3.2,1.8-4.4c1.2-1.1,3.7-2.2,7.4-3.3
		c2.3-0.7,3.9-1.2,4.7-1.7v-1.9c0-1.8-0.5-3.3-1.5-4.4c-1-1.1-2.4-1.7-4.1-1.7c-1.6,0-2.9,0.5-4.1,1.5c-1.2,1-2.1,2.3-2.5,4
		l-1.3-0.3c0.5-2.3,1.6-4.2,3.3-5.6c1.7-1.4,3.7-2.1,6-2.1c2.7,0,4.9,0.8,6.6,2.5s2.5,3.9,2.5,6.8v10.8c0,1.5,0.1,2.6,0.3,3.1
		c0.2,0.5,0.6,0.8,1.1,0.8c0.4,0,0.7-0.2,0.9-0.5c0.2-0.3,0.5-1,0.8-2h1.2c-0.1,1.6-0.6,2.8-1.5,3.8c-0.9,0.9-2,1.4-3.4,1.4
		c-2.1,0-3.5-1.2-4.3-3.6c-1.3,1.4-2.4,2.3-3.3,2.8C241.6,667.8,240.5,668.1,239.2,668.1z M246,662.2v-8.6c-0.7,0.3-1.8,0.7-3.1,1.1
		c-2.5,0.9-4.1,1.7-4.9,2.6c-0.7,0.8-1.1,2-1.1,3.4c0,1.3,0.4,2.3,1.1,3.3c0.8,0.9,1.7,1.4,2.7,1.4c1,0,1.9-0.3,3-0.9
		C244.8,663.8,245.5,663.1,246,662.2z"/>
	<path class="st1" d="M265.7,641.3v5c2.9-3.4,6-5,9.1-5c2.4,0,4.5,0.8,6.1,2.5c1.6,1.7,2.4,3.9,2.4,6.6v11.4c0,1.7,0.3,2.9,0.9,3.5
		c0.6,0.6,1.7,0.8,3.4,0.8v1.2h-13.5v-1.2c1.7,0,2.8-0.2,3.4-0.6c0.6-0.4,0.9-1.3,0.9-2.5v-13.2c0-1.8-0.5-3.2-1.6-4.2
		c-1.1-1-2.4-1.6-4.1-1.6c-2.4,0-4.8,1.6-7.2,4.9v12.4c0,2.1,0.3,3.4,0.8,4c0.5,0.6,1.7,0.9,3.4,0.9v1.2h-13.3v-1.2
		c1.9,0,3.1-0.3,3.6-0.9s0.7-1.9,0.7-3.9V647c0-1.5-0.3-2.5-0.8-3c-0.5-0.5-1.7-0.7-3.4-0.7v-1.2l7.9-0.8H265.7z"/>
	<path class="st1" d="M309.3,641.6h8.1v2.9h-6.7c1.9,2.3,2.9,4.7,2.9,7.3c0,2.6-0.9,4.8-2.8,6.8c-1.8,2-4.1,3-6.6,3.2
		c-1.8,0.1-3.7,0.7-5.5,1.8c-1.8,1.1-2.7,2.1-2.7,2.9c0,0.9,0.5,1.6,1.4,2.1c1,0.5,3.2,1,6.8,1.6c3.9,0.7,6.7,1.4,8.2,1.9
		s2.7,1.4,3.6,2.5s1.3,2.3,1.3,3.7c0,3-1.5,5.5-4.5,7.5c-3,2-6.7,3.1-11,3.1c-3.7,0-6.7-0.7-9-2.1s-3.4-3.3-3.4-5.6
		c0-1.6,0.7-3,2-4.3s3.4-2.5,6.2-3.6v-0.1c-1.7-0.4-3.1-1-4-1.8c-1-0.8-1.5-1.8-1.5-2.8c0-2.8,2.6-5.1,7.8-6.9v-0.1
		c-2.5-0.7-4.5-1.8-5.9-3.5c-1.4-1.7-2.1-3.7-2.1-6c0-3,1-5.6,3-7.6c2-2,4.6-3,7.7-3c0.6,0,1.7,0,3.3,0.1
		C307.7,641.6,308.7,641.6,309.3,641.6z M314.7,680.5c0-1.6-1-2.9-3.1-3.8c-2.1-0.9-6-1.9-11.7-2.9c-4.9,1.3-7.3,3.3-7.3,6
		c0,1.8,1.2,3.3,3.6,4.5c2.4,1.2,5.4,1.8,9.1,1.8c2.8,0,5.1-0.5,6.9-1.6C313.9,683.6,314.7,682.2,314.7,680.5z M296.5,651.4
		c0,2.7,0.6,4.9,1.7,6.6c1.1,1.7,2.6,2.5,4.5,2.5c1.9,0,3.5-0.8,4.6-2.5s1.7-3.9,1.7-6.7c0-2.6-0.6-4.6-1.7-6.2s-2.6-2.4-4.5-2.4
		c-1.9,0-3.4,0.8-4.6,2.4C297.1,646.7,296.5,648.8,296.5,651.4z"/>
	<path class="st1" d="M359.9,641.3v8.9h-1.2c-0.5-2.3-1.6-4.2-3.1-5.5c-1.5-1.3-3.3-2-5.4-2c-2.5,0-4.6,1-6.1,2.9s-2.4,4.5-2.4,7.6
		c0,3.4,0.9,6.4,2.8,8.9c1.9,2.5,4.1,3.8,6.7,3.8c1.7,0,3.4-0.5,5.1-1.4c1.7-0.9,3.1-2.2,4.3-3.9v1.8c-2.7,3.7-6.5,5.6-11.1,5.6
		c-3.7,0-6.8-1.2-9.1-3.6c-2.4-2.4-3.5-5.4-3.5-9.2c0-3.9,1.3-7.2,3.8-9.9s5.6-4.1,9.2-4.1c1.6,0,3.4,0.3,5.4,1
		c0.9,0.3,1.5,0.4,1.8,0.4c0.7,0,1.3-0.5,1.7-1.4H359.9z"/>
	<path class="st1" d="M385.1,662v-12.5c0-1.7-0.5-3-1.4-4c-0.9-1-2.2-1.5-3.7-1.5c-1.4,0-2.7,0.4-3.8,1.1s-2.3,2-3.5,3.7v13.9
		c0,1.3,0.3,2.2,0.9,2.7c0.6,0.5,1.7,0.7,3.3,0.7v1.2h-13.5v-1.2c1.9,0,3.2-0.4,3.7-0.9c0.5-0.6,0.8-1.9,0.8-3.9v-32.9
		c0-1.5-0.3-2.5-0.8-3c-0.5-0.5-1.8-0.8-3.7-0.8v-1.2l8.1-0.9h1.2v23.9c1.6-1.9,3.1-3.2,4.4-3.9c1.3-0.8,2.8-1.1,4.4-1.1
		c2.5,0,4.5,0.8,6.1,2.4c1.6,1.6,2.4,3.7,2.4,6.4v11.2c0,2,0.3,3.3,0.8,3.9c0.5,0.6,1.6,0.9,3.3,0.9v1.2h-13.1v-1.2
		c1.7,0,2.8-0.3,3.4-0.8C384.8,664.8,385.1,663.7,385.1,662z"/>
	<path class="st1" d="M403.8,668.1c-2,0-3.7-0.7-5.1-2c-1.4-1.3-2.1-2.9-2.1-4.8c0-1.8,0.6-3.2,1.8-4.4c1.2-1.1,3.7-2.2,7.4-3.3
		c2.3-0.7,3.9-1.2,4.7-1.7v-1.9c0-1.8-0.5-3.3-1.5-4.4c-1-1.1-2.4-1.7-4.1-1.7c-1.6,0-2.9,0.5-4.1,1.5c-1.2,1-2.1,2.3-2.5,4
		l-1.3-0.3c0.5-2.3,1.6-4.2,3.3-5.6c1.7-1.4,3.7-2.1,6-2.1c2.7,0,4.9,0.8,6.6,2.5s2.5,3.9,2.5,6.8v10.8c0,1.5,0.1,2.6,0.3,3.1
		c0.2,0.5,0.6,0.8,1.1,0.8c0.4,0,0.7-0.2,0.9-0.5c0.2-0.3,0.5-1,0.8-2h1.2c-0.1,1.6-0.6,2.8-1.5,3.8c-0.9,0.9-2,1.4-3.4,1.4
		c-2.1,0-3.5-1.2-4.3-3.6c-1.3,1.4-2.4,2.3-3.3,2.8C406.2,667.8,405.1,668.1,403.8,668.1z M410.6,662.2v-8.6
		c-0.7,0.3-1.8,0.7-3.1,1.1c-2.5,0.9-4.1,1.7-4.9,2.6c-0.7,0.8-1.1,2-1.1,3.4c0,1.3,0.4,2.3,1.1,3.3c0.8,0.9,1.7,1.4,2.7,1.4
		c1,0,1.9-0.3,3-0.9C409.4,663.8,410.1,663.1,410.6,662.2z"/>
	<path class="st1" d="M446.6,622.5h1.2v39.9c0,1.4,0.3,2.4,0.9,2.9c0.6,0.5,1.7,0.8,3.3,0.8v1.2h-14.7c-4.5,0-8.1-1.2-10.7-3.7
		s-4-5.6-4-9.4c0-3.6,1.2-6.6,3.5-9.1c2.3-2.5,5.1-3.7,8.4-3.7c2.6,0,5.5,1,8.5,3.1v-15.5c0-1.7-0.2-2.8-0.7-3.4
		c-0.4-0.6-1.3-0.9-2.7-0.9h-1.4v-1.2L446.6,622.5z M443,662.3v-15.2c-1-1.3-2.1-2.4-3.4-3.1c-1.3-0.8-2.6-1.1-3.9-1.1
		c-2.3,0-4.2,0.9-5.6,2.8c-1.4,1.9-2.1,4.4-2.1,7.4c0,3.9,1,7.1,2.9,9.5c1.9,2.4,4.6,3.6,8.1,3.6c1.4,0,2.4-0.3,3.1-0.9
		C442.6,664.6,443,663.6,443,662.3z"/>
	<path class="st1" d="M475.1,662v-12.5c0-1.7-0.5-3-1.4-4c-0.9-1-2.2-1.5-3.7-1.5c-1.4,0-2.7,0.4-3.8,1.1s-2.3,2-3.5,3.7v13.9
		c0,1.3,0.3,2.2,0.9,2.7c0.6,0.5,1.7,0.7,3.3,0.7v1.2h-13.5v-1.2c1.9,0,3.2-0.4,3.7-0.9c0.5-0.6,0.8-1.9,0.8-3.9v-32.9
		c0-1.5-0.3-2.5-0.8-3c-0.5-0.5-1.8-0.8-3.7-0.8v-1.2l8.1-0.9h1.2v23.9c1.6-1.9,3.1-3.2,4.4-3.9c1.3-0.8,2.8-1.1,4.4-1.1
		c2.5,0,4.5,0.8,6.1,2.4c1.6,1.6,2.4,3.7,2.4,6.4v11.2c0,2,0.3,3.3,0.8,3.9c0.5,0.6,1.6,0.9,3.3,0.9v1.2h-13.1v-1.2
		c1.7,0,2.8-0.3,3.4-0.8C474.8,664.8,475.1,663.7,475.1,662z"/>
	<path class="st1" d="M511,641.3v5.5c2.3-2,4.1-3.4,5.4-4.2c1.3-0.8,2.4-1.2,3.2-1.2c1.6,0,3.1,0.7,4.6,2l-1.9,4.5
		c-2.7-1.5-4.7-2.2-6-2.2c-1.4,0-3.2,1-5.4,3.1v13.9c0,1.4,0.3,2.3,0.9,2.8c0.6,0.5,1.7,0.7,3.3,0.7v1.2h-13.3v-1.2
		c1.8,0,2.9-0.3,3.5-0.8c0.5-0.6,0.8-1.9,0.8-4v-13.8c0-1.7-0.3-2.9-0.9-3.4s-2-0.8-4.3-0.8v-1.2l8.8-0.8H511z"/>
	<path class="st1" d="M534.3,668.1c-2,0-3.7-0.7-5.1-2c-1.4-1.3-2.1-2.9-2.1-4.8c0-1.8,0.6-3.2,1.8-4.4c1.2-1.1,3.7-2.2,7.4-3.3
		c2.3-0.7,3.9-1.2,4.7-1.7v-1.9c0-1.8-0.5-3.3-1.5-4.4c-1-1.1-2.4-1.7-4.1-1.7c-1.6,0-2.9,0.5-4.1,1.5c-1.2,1-2.1,2.3-2.5,4
		l-1.3-0.3c0.5-2.3,1.6-4.2,3.3-5.6c1.7-1.4,3.7-2.1,6-2.1c2.7,0,4.9,0.8,6.6,2.5c1.7,1.6,2.5,3.9,2.5,6.8v10.8
		c0,1.5,0.1,2.6,0.3,3.1c0.2,0.5,0.6,0.8,1.1,0.8c0.4,0,0.7-0.2,0.9-0.5c0.2-0.3,0.5-1,0.8-2h1.2c-0.1,1.6-0.6,2.8-1.5,3.8
		c-0.9,0.9-2,1.4-3.4,1.4c-2.1,0-3.5-1.2-4.3-3.6c-1.3,1.4-2.4,2.3-3.3,2.8C536.8,667.8,535.6,668.1,534.3,668.1z M541.1,662.2v-8.6
		c-0.7,0.3-1.8,0.7-3.1,1.1c-2.5,0.9-4.1,1.7-4.9,2.6c-0.7,0.8-1.1,2-1.1,3.4c0,1.3,0.4,2.3,1.1,3.3c0.8,0.9,1.7,1.4,2.7,1.4
		c1,0,1.9-0.3,3-0.9C539.9,663.8,540.7,663.1,541.1,662.2z"/>
	<path class="st1" d="M572.9,662v-12.5c0-1.7-0.5-3-1.4-4c-0.9-1-2.2-1.5-3.7-1.5c-1.4,0-2.7,0.4-3.8,1.1s-2.3,2-3.5,3.7v13.9
		c0,1.3,0.3,2.2,0.9,2.7c0.6,0.5,1.7,0.7,3.3,0.7v1.2h-13.5v-1.2c1.9,0,3.2-0.4,3.7-0.9s0.8-1.9,0.8-3.9v-32.9c0-1.5-0.3-2.5-0.8-3
		c-0.5-0.5-1.8-0.8-3.7-0.8v-1.2l8.1-0.9h1.2v23.9c1.6-1.9,3.1-3.2,4.4-3.9c1.3-0.8,2.8-1.1,4.4-1.1c2.5,0,4.5,0.8,6.1,2.4
		c1.6,1.6,2.4,3.7,2.4,6.4v11.2c0,2,0.3,3.3,0.8,3.9c0.5,0.6,1.6,0.9,3.3,0.9v1.2h-13.1v-1.2c1.7,0,2.8-0.3,3.4-0.8
		C572.7,664.8,572.9,663.7,572.9,662z"/>
	<path class="st1" d="M591.6,668.1c-2,0-3.7-0.7-5.1-2c-1.4-1.3-2.1-2.9-2.1-4.8c0-1.8,0.6-3.2,1.8-4.4c1.2-1.1,3.7-2.2,7.4-3.3
		c2.3-0.7,3.9-1.2,4.7-1.7v-1.9c0-1.8-0.5-3.3-1.5-4.4c-1-1.1-2.4-1.7-4.1-1.7c-1.6,0-2.9,0.5-4.1,1.5c-1.2,1-2.1,2.3-2.5,4
		l-1.3-0.3c0.5-2.3,1.6-4.2,3.3-5.6c1.7-1.4,3.7-2.1,6-2.1c2.7,0,4.9,0.8,6.6,2.5c1.7,1.6,2.5,3.9,2.5,6.8v10.8
		c0,1.5,0.1,2.6,0.3,3.1c0.2,0.5,0.6,0.8,1.1,0.8c0.4,0,0.7-0.2,0.9-0.5c0.2-0.3,0.5-1,0.8-2h1.2c-0.1,1.6-0.6,2.8-1.5,3.8
		c-0.9,0.9-2,1.4-3.4,1.4c-2.1,0-3.5-1.2-4.3-3.6c-1.3,1.4-2.4,2.3-3.3,2.8C594.1,667.8,592.9,668.1,591.6,668.1z M598.4,662.2v-8.6
		c-0.7,0.3-1.8,0.7-3.1,1.1c-2.5,0.9-4.1,1.7-4.9,2.6c-0.7,0.8-1.1,2-1.1,3.4c0,1.3,0.4,2.3,1.1,3.3c0.8,0.9,1.7,1.4,2.7,1.4
		c1,0,2-0.3,3-0.9C597.2,663.8,598,663.1,598.4,662.2z"/>
	<path class="st1" d="M646.3,662v-12.5c0-1.7-0.5-3-1.4-4s-2.2-1.5-3.7-1.5c-1.4,0-2.7,0.4-3.8,1.1s-2.3,2-3.5,3.7v13.9
		c0,1.3,0.3,2.2,0.9,2.7c0.6,0.5,1.7,0.7,3.3,0.7v1.2h-13.5v-1.2c1.9,0,3.2-0.4,3.7-0.9s0.8-1.9,0.8-3.9v-32.9c0-1.5-0.3-2.5-0.8-3
		c-0.5-0.5-1.8-0.8-3.7-0.8v-1.2l8.1-0.9h1.2v23.9c1.6-1.9,3.1-3.2,4.4-3.9c1.3-0.8,2.8-1.1,4.4-1.1c2.5,0,4.5,0.8,6.1,2.4
		c1.6,1.6,2.4,3.7,2.4,6.4v11.2c0,2,0.3,3.3,0.8,3.9s1.6,0.9,3.3,0.9v1.2h-13.1v-1.2c1.7,0,2.8-0.3,3.4-0.8
		C646,664.8,646.3,663.7,646.3,662z"/>
	<path class="st1" d="M664.9,668.1c-2,0-3.7-0.7-5.1-2c-1.4-1.3-2.1-2.9-2.1-4.8c0-1.8,0.6-3.2,1.8-4.4c1.2-1.1,3.7-2.2,7.4-3.3
		c2.3-0.7,3.9-1.2,4.7-1.7v-1.9c0-1.8-0.5-3.3-1.5-4.4c-1-1.1-2.4-1.7-4.1-1.7c-1.6,0-2.9,0.5-4.1,1.5c-1.2,1-2.1,2.3-2.5,4
		l-1.3-0.3c0.5-2.3,1.6-4.2,3.3-5.6c1.7-1.4,3.7-2.1,6-2.1c2.7,0,4.9,0.8,6.6,2.5c1.7,1.6,2.5,3.9,2.5,6.8v10.8
		c0,1.5,0.1,2.6,0.3,3.1c0.2,0.5,0.6,0.8,1.1,0.8c0.4,0,0.7-0.2,0.9-0.5c0.2-0.3,0.5-1,0.8-2h1.2c-0.1,1.6-0.6,2.8-1.5,3.8
		c-0.9,0.9-2,1.4-3.4,1.4c-2.1,0-3.5-1.2-4.3-3.6c-1.3,1.4-2.4,2.3-3.3,2.8C667.4,667.8,666.3,668.1,664.9,668.1z M671.7,662.2v-8.6
		c-0.7,0.3-1.8,0.7-3.1,1.1c-2.5,0.9-4.1,1.7-4.9,2.6c-0.7,0.8-1.1,2-1.1,3.4c0,1.3,0.4,2.3,1.1,3.3c0.8,0.9,1.7,1.4,2.7,1.4
		c1,0,2-0.3,3-0.9C670.5,663.8,671.3,663.1,671.7,662.2z"/>
	<path class="st1" d="M691.1,641.3h1.2v21.3c0,1.4,0.3,2.3,0.9,2.8c0.6,0.5,1.7,0.7,3.3,0.7v1.2h-13.8v-1.2c2,0,3.3-0.2,3.9-0.7
		c0.6-0.5,0.9-1.4,0.9-2.8v-15.5c0-1.5-0.3-2.5-0.8-3c-0.5-0.5-1.9-0.7-4-0.7v-1.2L691.1,641.3z M689.9,628.3c0.9,0,1.6,0.3,2.2,0.9
		s0.9,1.3,0.9,2.2c0,0.9-0.3,1.6-0.9,2.2s-1.3,0.9-2.2,0.9c-0.9,0-1.6-0.3-2.2-0.9c-0.6-0.6-0.9-1.4-0.9-2.2c0-0.9,0.3-1.6,0.9-2.2
		C688.3,628.6,689.1,628.3,689.9,628.3z"/>
	<path class="st1" d="M735.9,662v-12.5c0-1.7-0.5-3-1.4-4s-2.2-1.5-3.7-1.5c-1.4,0-2.7,0.4-3.8,1.1s-2.3,2-3.5,3.7v13.9
		c0,1.3,0.3,2.2,0.9,2.7c0.6,0.5,1.7,0.7,3.3,0.7v1.2h-13.5v-1.2c1.9,0,3.2-0.4,3.7-0.9s0.8-1.9,0.8-3.9v-32.9c0-1.5-0.3-2.5-0.8-3
		c-0.5-0.5-1.8-0.8-3.7-0.8v-1.2l8.1-0.9h1.2v23.9c1.6-1.9,3.1-3.2,4.4-3.9c1.3-0.8,2.8-1.1,4.4-1.1c2.5,0,4.5,0.8,6.1,2.4
		c1.6,1.6,2.4,3.7,2.4,6.4v11.2c0,2,0.3,3.3,0.8,3.9s1.6,0.9,3.3,0.9v1.2h-13.1v-1.2c1.7,0,2.8-0.3,3.4-0.8
		C735.7,664.8,735.9,663.7,735.9,662z"/>
	<path class="st1" d="M754.6,668.1c-2,0-3.7-0.7-5.1-2c-1.4-1.3-2.1-2.9-2.1-4.8c0-1.8,0.6-3.2,1.8-4.4c1.2-1.1,3.7-2.2,7.4-3.3
		c2.3-0.7,3.9-1.2,4.7-1.7v-1.9c0-1.8-0.5-3.3-1.5-4.4c-1-1.1-2.4-1.7-4.1-1.7c-1.6,0-2.9,0.5-4.1,1.5c-1.2,1-2.1,2.3-2.5,4
		l-1.3-0.3c0.5-2.3,1.6-4.2,3.3-5.6c1.7-1.4,3.7-2.1,6-2.1c2.7,0,4.9,0.8,6.6,2.5c1.7,1.6,2.5,3.9,2.5,6.8v10.8
		c0,1.5,0.1,2.6,0.3,3.1c0.2,0.5,0.6,0.8,1.1,0.8c0.4,0,0.7-0.2,0.9-0.5c0.2-0.3,0.5-1,0.8-2h1.2c-0.1,1.6-0.6,2.8-1.5,3.8
		c-0.9,0.9-2,1.4-3.4,1.4c-2.1,0-3.5-1.2-4.3-3.6c-1.3,1.4-2.4,2.3-3.3,2.8C757.1,667.8,755.9,668.1,754.6,668.1z M761.4,662.2v-8.6
		c-0.7,0.3-1.8,0.7-3.1,1.1c-2.5,0.9-4.1,1.7-4.9,2.6c-0.7,0.8-1.1,2-1.1,3.4c0,1.3,0.4,2.3,1.1,3.3c0.8,0.9,1.7,1.4,2.7,1.4
		c1,0,2-0.3,3-0.9C760.2,663.8,761,663.1,761.4,662.2z"/>
	<path class="st1" d="M780.7,668.1c-2,0-3.7-0.7-5.1-2c-1.4-1.3-2.1-2.9-2.1-4.8c0-1.8,0.6-3.2,1.8-4.4c1.2-1.1,3.7-2.2,7.4-3.3
		c2.3-0.7,3.9-1.2,4.7-1.7v-1.9c0-1.8-0.5-3.3-1.5-4.4c-1-1.1-2.4-1.7-4.1-1.7c-1.6,0-2.9,0.5-4.1,1.5c-1.2,1-2.1,2.3-2.5,4
		l-1.3-0.3c0.5-2.3,1.6-4.2,3.3-5.6c1.7-1.4,3.7-2.1,6-2.1c2.7,0,4.9,0.8,6.6,2.5c1.7,1.6,2.5,3.9,2.5,6.8v10.8
		c0,1.5,0.1,2.6,0.3,3.1c0.2,0.5,0.6,0.8,1.1,0.8c0.4,0,0.7-0.2,0.9-0.5c0.2-0.3,0.5-1,0.8-2h1.2c-0.1,1.6-0.6,2.8-1.5,3.8
		c-0.9,0.9-2,1.4-3.4,1.4c-2.1,0-3.5-1.2-4.3-3.6c-1.3,1.4-2.4,2.3-3.3,2.8C783.1,667.8,782,668.1,780.7,668.1z M787.4,662.2v-8.6
		c-0.7,0.3-1.8,0.7-3.1,1.1c-2.5,0.9-4.1,1.7-4.9,2.6c-0.7,0.8-1.1,2-1.1,3.4c0,1.3,0.4,2.3,1.1,3.3c0.8,0.9,1.7,1.4,2.7,1.4
		c1,0,2-0.3,3-0.9C786.3,663.8,787,663.1,787.4,662.2z"/>
	<path class="st1" d="M806.2,633.5h1.2v8.5h8.8v1.8h-8.8v16.3c0,1.7,0.4,3,1.2,3.9c0.8,0.9,1.9,1.4,3.4,1.4c1.7,0,3.3-0.8,4.7-2.4
		l0.8,0.9c-2.2,2.8-4.7,4.2-7.6,4.2c-2.2,0-3.9-0.7-5.3-2.1c-1.3-1.4-2-3.1-2-5.3v-16.9h-4.8v-1.2
		C801.3,640.8,804.1,637.8,806.2,633.5z"/>
	<path class="st1" d="M847.6,654.7c0,3.8-1.3,7-4,9.5s-5.9,3.8-9.9,3.8s-7.2-1.3-9.9-3.8s-4-5.7-4-9.5c0-3.9,1.3-7.1,3.9-9.6
		c2.6-2.5,5.9-3.8,9.9-3.8s7.3,1.3,9.9,3.8C846.3,647.7,847.6,650.9,847.6,654.7z M842.4,654.8c0-3.6-0.8-6.5-2.3-8.7
		c-1.5-2.2-3.6-3.3-6.3-3.3s-4.7,1.1-6.3,3.2s-2.3,5.1-2.3,8.8c0,3.6,0.8,6.5,2.3,8.7s3.6,3.2,6.3,3.2s4.8-1.1,6.3-3.3
		C841.6,661.2,842.4,658.3,842.4,654.8z"/>
	<path class="st1" d="M859.9,641.3v5c2.9-3.4,6-5,9.1-5c2.4,0,4.5,0.8,6.1,2.5s2.4,3.9,2.4,6.6v11.4c0,1.7,0.3,2.9,0.9,3.5
		c0.6,0.6,1.7,0.8,3.4,0.8v1.2h-13.5v-1.2c1.7,0,2.8-0.2,3.4-0.6c0.6-0.4,0.9-1.3,0.9-2.5v-13.2c0-1.8-0.5-3.2-1.6-4.2
		c-1.1-1-2.4-1.6-4.1-1.6c-2.4,0-4.8,1.6-7.2,4.9v12.4c0,2.1,0.3,3.4,0.8,4c0.5,0.6,1.7,0.9,3.4,0.9v1.2h-13.3v-1.2
		c1.9,0,3.1-0.3,3.6-0.9c0.4-0.6,0.7-1.9,0.7-3.9V647c0-1.5-0.3-2.5-0.8-3c-0.5-0.5-1.7-0.7-3.4-0.7v-1.2l7.9-0.8H859.9z"/>
	<path class="st1" d="M909.4,641.3v5.3h0.1c1-1.6,2.4-2.9,4-3.8c1.6-1,3.3-1.4,5-1.4c1.8,0,3.5,0.5,4.9,1.5s2.4,2.4,3,4.2
		c2.7-3.8,5.8-5.7,9.3-5.7c2.5,0,4.5,0.8,6.1,2.3c1.6,1.5,2.4,3.6,2.4,6.2v12.7c0,1.4,0.3,2.3,0.9,2.8c0.6,0.5,1.7,0.7,3.3,0.7v1.3
		h-13.4V666c1.8,0,3-0.3,3.5-0.9s0.8-1.9,0.8-3.9v-12c0-1.6-0.5-2.9-1.5-3.8c-1-0.9-2.3-1.4-4-1.4c-2.6,0-5,1.6-7.1,4.9v13.5
		c0,1.4,0.3,2.4,0.9,2.9c0.6,0.5,1.7,0.7,3.3,0.7v1.3h-13.3V666c1.9,0,3.1-0.3,3.5-0.9c0.5-0.6,0.7-1.9,0.7-3.9v-11.7
		c0-1.7-0.5-3-1.5-4s-2.3-1.5-3.9-1.5c-1.4,0-2.7,0.4-4,1.3s-2.4,2.1-3.3,3.6v13.7c0,1.3,0.3,2.2,0.9,2.7c0.6,0.5,1.7,0.8,3.3,0.8
		v1.2h-13.4V666c1.9,0,3-0.3,3.5-0.9c0.5-0.6,0.7-1.6,0.7-3.2v-15c0-1.3-0.3-2.2-0.8-2.8c-0.5-0.6-1.4-0.9-2.7-0.9h-1.6v-1.2
		l8.7-0.8H909.4z"/>
	<path class="st1" d="M976.8,660.8v1.8c-1.5,1.9-3.1,3.3-4.7,4.2c-1.6,0.8-3.5,1.3-5.7,1.3c-3.9,0-7.2-1.2-9.8-3.7
		c-2.6-2.5-3.8-5.6-3.8-9.4c0-3.8,1.2-7.1,3.7-9.7c2.4-2.6,5.4-3.9,9-3.9c2.9,0,5.5,1,7.7,3c2.2,2,3.3,4.3,3.3,7.1v0.5h-18.6v0.3
		c0,2.8,0.4,5.2,1.3,7.3c0.8,2.1,2.1,3.7,3.7,4.8c1.6,1.2,3.3,1.7,5.1,1.7c1.6,0,3.1-0.3,4.2-1C973.3,664.3,974.8,662.9,976.8,660.8
		z M957.8,650.7h13.8v-0.5c0-2.3-0.6-4-1.9-5.4c-1.3-1.3-2.9-2-4.8-2c-2,0-3.7,0.7-4.9,2.1C958.6,646.3,957.9,648.2,957.8,650.7z"/>
	<path class="st1" d="M983.9,679.5v-1.2c1.9-1,3.2-2,3.9-3.2c0.7-1.2,1.1-2.8,1.1-4.8c0-0.5-0.1-0.9-0.2-1s-0.5-0.2-1.1-0.2
		c-1,0-1.9-0.3-2.6-1c-0.7-0.7-1.1-1.5-1.1-2.4c0-0.9,0.3-1.7,1-2.4c0.7-0.6,1.5-1,2.4-1c1.6,0,2.8,0.6,3.8,1.9
		c1,1.3,1.5,2.9,1.5,4.9c0,2.5-0.8,4.7-2.4,6.6C988.6,677.7,986.5,678.9,983.9,679.5z"/>
</g>
<g class="st0">
	<path class="st1" d="M113.5,726.9v4.2c1.6-1.6,3.1-2.7,4.4-3.3c1.3-0.6,2.8-1,4.4-1c3.3,0,6,1.2,8.2,3.7c2.2,2.5,3.2,5.6,3.2,9.4
		c0,3.9-1.2,7.1-3.6,9.7c-2.4,2.6-5.4,3.9-9,3.9c-2.5,0-5-1-7.6-3v16.6c0,1.7,0.3,2.8,0.9,3.4c0.6,0.5,1.7,0.8,3.3,0.8v1.2h-13.5
		v-1.2c1.7,0,2.9-0.2,3.5-0.7c0.6-0.5,0.9-1.4,0.9-2.8v-35.2c0-1.7-0.3-2.8-0.8-3.2c-0.5-0.5-1.7-0.7-3.7-0.7v-1.2l8.1-0.8H113.5z
		 M113.5,733v15.8c2,2.1,4.3,3.1,7,3.1c2.3,0,4.1-1.1,5.7-3.2c1.5-2.1,2.3-4.7,2.3-7.9c0-3.4-0.8-6.2-2.3-8.4
		c-1.5-2.2-3.5-3.3-5.8-3.3C117.9,729.2,115.7,730.5,113.5,733z"/>
	<path class="st1" d="M148,727.7v1.2c-1.4,0.2-2.1,0.9-2.1,2.2c0,0.5,0.1,1,0.4,1.7l6.1,14.3l4.4-13.3c0.3-1.1,0.5-2,0.5-2.6
		c0-1.4-0.8-2.1-2.5-2.2v-1.2h8.9v1.2c-1.3,0-2.5,0.5-3.3,1.4c-0.9,0.9-1.7,2.4-2.4,4.5l-10.1,29.8c-1,2.8-2.2,5.1-3.7,6.7
		s-3.1,2.5-4.6,2.5c-0.9,0-2-0.4-3.1-1.1l1.6-4.4c0.9,0.4,1.7,0.6,2.4,0.6c1.5,0,2.8-0.5,3.8-1.4c1-1,1.9-2.5,2.7-4.8l3.2-9.2
		l-9.1-20.9c-0.7-1.5-1.3-2.5-2-3c-0.7-0.5-1.7-0.7-3.1-0.8v-1.2H148z"/>
	<path class="st1" d="M173.1,753.7c-2,0-3.7-0.7-5.1-2c-1.4-1.3-2.1-2.9-2.1-4.8c0-1.8,0.6-3.2,1.8-4.4c1.2-1.1,3.7-2.2,7.4-3.3
		c2.3-0.7,3.9-1.2,4.7-1.7v-1.9c0-1.8-0.5-3.3-1.5-4.4c-1-1.1-2.4-1.7-4.1-1.7c-1.6,0-2.9,0.5-4.1,1.5c-1.2,1-2.1,2.3-2.5,4
		l-1.3-0.3c0.5-2.3,1.6-4.2,3.3-5.6c1.7-1.4,3.7-2.1,6-2.1c2.7,0,4.9,0.8,6.6,2.5s2.5,3.9,2.5,6.8V747c0,1.5,0.1,2.6,0.3,3.1
		c0.2,0.5,0.6,0.8,1.1,0.8c0.4,0,0.7-0.2,0.9-0.5c0.2-0.3,0.5-1,0.8-2h1.2c-0.1,1.6-0.6,2.8-1.5,3.8c-0.9,0.9-2,1.4-3.4,1.4
		c-2.1,0-3.5-1.2-4.3-3.6c-1.3,1.4-2.4,2.3-3.3,2.8C175.6,753.4,174.5,753.7,173.1,753.7z M179.9,747.7v-8.6
		c-0.7,0.3-1.8,0.7-3.1,1.1c-2.5,0.9-4.1,1.7-4.9,2.6c-0.7,0.8-1.1,2-1.1,3.4c0,1.3,0.4,2.3,1.1,3.3c0.8,0.9,1.7,1.4,2.7,1.4
		c1,0,1.9-0.3,3-0.9C178.8,749.4,179.5,748.6,179.9,747.7z"/>
	<path class="st1" d="M199.2,753.7c-2,0-3.7-0.7-5.1-2c-1.4-1.3-2.1-2.9-2.1-4.8c0-1.8,0.6-3.2,1.8-4.4c1.2-1.1,3.7-2.2,7.4-3.3
		c2.3-0.7,3.9-1.2,4.7-1.7v-1.9c0-1.8-0.5-3.3-1.5-4.4c-1-1.1-2.4-1.7-4.1-1.7c-1.6,0-2.9,0.5-4.1,1.5c-1.2,1-2.1,2.3-2.5,4
		l-1.3-0.3c0.5-2.3,1.6-4.2,3.3-5.6c1.7-1.4,3.7-2.1,6-2.1c2.7,0,4.9,0.8,6.6,2.5s2.5,3.9,2.5,6.8V747c0,1.5,0.1,2.6,0.3,3.1
		c0.2,0.5,0.6,0.8,1.1,0.8c0.4,0,0.7-0.2,0.9-0.5c0.2-0.3,0.5-1,0.8-2h1.2c-0.1,1.6-0.6,2.8-1.5,3.8c-0.9,0.9-2,1.4-3.4,1.4
		c-2.1,0-3.5-1.2-4.3-3.6c-1.3,1.4-2.4,2.3-3.3,2.8C201.7,753.4,200.5,753.7,199.2,753.7z M206,747.7v-8.6c-0.7,0.3-1.8,0.7-3.1,1.1
		c-2.5,0.9-4.1,1.7-4.9,2.6c-0.7,0.8-1.1,2-1.1,3.4c0,1.3,0.4,2.3,1.1,3.3c0.8,0.9,1.7,1.4,2.7,1.4c1,0,1.9-0.3,3-0.9
		C204.8,749.4,205.5,748.6,206,747.7z"/>
	<path class="st1" d="M226.5,726.9v5.5c2.3-2,4.1-3.4,5.4-4.2c1.3-0.8,2.4-1.2,3.2-1.2c1.6,0,3.1,0.7,4.6,2l-1.9,4.5
		c-2.7-1.5-4.7-2.2-6-2.2c-1.4,0-3.2,1-5.4,3.1v13.9c0,1.4,0.3,2.3,0.9,2.8c0.6,0.5,1.7,0.7,3.3,0.7v1.2h-13.3v-1.2
		c1.8,0,2.9-0.3,3.5-0.8c0.5-0.6,0.8-1.9,0.8-4V733c0-1.7-0.3-2.9-0.9-3.4s-2-0.8-4.3-0.8v-1.2l8.8-0.8H226.5z"/>
	<path class="st1" d="M277.8,731.9l-6.5,6l10.5,10.5c1.2,1.2,2.2,2,3,2.5c0.8,0.4,1.9,0.7,3.1,0.8v1.2h-8.3l-13.1-12.6
		c0,6.6,0.3,10.2,0.8,10.7c0.6,0.5,1.7,0.7,3.4,0.7v1.2h-13.6v-1.2c1.9,0,3.2-0.4,3.7-0.9c0.5-0.6,0.8-1.9,0.8-3.9v-33.2
		c0-1.5-0.3-2.4-0.8-2.8s-1.8-0.6-3.7-0.6v-1.2l8.1-0.9h1.2V740l6.8-6.2c1.3-1.2,1.9-2.2,1.9-3.2c0-1.1-1-1.7-3.1-1.7v-1.2h13.8v1.2
		h-1.2C282.2,728.9,279.9,729.9,277.8,731.9z"/>
	<path class="st1" d="M297.1,726.9h1.2v21.3c0,1.4,0.3,2.3,0.9,2.8c0.6,0.5,1.7,0.7,3.3,0.7v1.2h-13.8v-1.2c2,0,3.3-0.2,3.9-0.7
		c0.6-0.5,0.9-1.4,0.9-2.8v-15.5c0-1.5-0.3-2.5-0.8-3c-0.5-0.5-1.9-0.7-4-0.7v-1.2L297.1,726.9z M296,713.9c0.9,0,1.6,0.3,2.2,0.9
		s0.9,1.3,0.9,2.2c0,0.9-0.3,1.6-0.9,2.2s-1.3,0.9-2.2,0.9c-0.9,0-1.6-0.3-2.2-0.9c-0.6-0.6-0.9-1.4-0.9-2.2c0-0.9,0.3-1.6,0.9-2.2
		C294.4,714.1,295.2,713.9,296,713.9z"/>
	<path class="st1" d="M345.7,726.9v8.9h-1.2c-0.5-2.3-1.6-4.2-3.1-5.5c-1.5-1.3-3.3-2-5.4-2c-2.5,0-4.6,1-6.1,2.9s-2.4,4.5-2.4,7.6
		c0,3.4,0.9,6.4,2.8,8.9c1.9,2.5,4.1,3.8,6.7,3.8c1.7,0,3.4-0.5,5.1-1.4c1.7-0.9,3.1-2.2,4.3-3.9v1.8c-2.7,3.7-6.5,5.6-11.1,5.6
		c-3.7,0-6.8-1.2-9.1-3.6c-2.4-2.4-3.5-5.4-3.5-9.2c0-3.9,1.3-7.2,3.8-9.9s5.6-4.1,9.2-4.1c1.6,0,3.4,0.3,5.4,1
		c0.9,0.3,1.5,0.4,1.8,0.4c0.7,0,1.3-0.5,1.7-1.4H345.7z"/>
	<path class="st1" d="M370.9,747.6v-12.5c0-1.7-0.5-3-1.4-4c-0.9-1-2.2-1.5-3.7-1.5c-1.4,0-2.7,0.4-3.8,1.1s-2.3,2-3.5,3.7v13.9
		c0,1.3,0.3,2.2,0.9,2.7c0.6,0.5,1.7,0.7,3.3,0.7v1.2h-13.5v-1.2c1.9,0,3.2-0.4,3.7-0.9c0.5-0.6,0.8-1.9,0.8-3.9v-32.9
		c0-1.5-0.3-2.5-0.8-3c-0.5-0.5-1.8-0.8-3.7-0.8v-1.2l8.1-0.9h1.2V732c1.6-1.9,3.1-3.2,4.4-3.9c1.3-0.8,2.8-1.1,4.4-1.1
		c2.5,0,4.5,0.8,6.1,2.4c1.6,1.6,2.4,3.7,2.4,6.4v11.2c0,2,0.3,3.3,0.8,3.9c0.5,0.6,1.6,0.9,3.3,0.9v1.2h-13.1v-1.2
		c1.7,0,2.8-0.3,3.4-0.8C370.6,750.3,370.9,749.2,370.9,747.6z"/>
	<path class="st1" d="M389.6,753.7c-2,0-3.7-0.7-5.1-2c-1.4-1.3-2.1-2.9-2.1-4.8c0-1.8,0.6-3.2,1.8-4.4c1.2-1.1,3.7-2.2,7.4-3.3
		c2.3-0.7,3.9-1.2,4.7-1.7v-1.9c0-1.8-0.5-3.3-1.5-4.4c-1-1.1-2.4-1.7-4.1-1.7c-1.6,0-2.9,0.5-4.1,1.5c-1.2,1-2.1,2.3-2.5,4
		l-1.3-0.3c0.5-2.3,1.6-4.2,3.3-5.6c1.7-1.4,3.7-2.1,6-2.1c2.7,0,4.9,0.8,6.6,2.5s2.5,3.9,2.5,6.8V747c0,1.5,0.1,2.6,0.3,3.1
		c0.2,0.5,0.6,0.8,1.1,0.8c0.4,0,0.7-0.2,0.9-0.5c0.2-0.3,0.5-1,0.8-2h1.2c-0.1,1.6-0.6,2.8-1.5,3.8c-0.9,0.9-2,1.4-3.4,1.4
		c-2.1,0-3.5-1.2-4.3-3.6c-1.3,1.4-2.4,2.3-3.3,2.8C392,753.4,390.9,753.7,389.6,753.7z M396.4,747.7v-8.6c-0.7,0.3-1.8,0.7-3.1,1.1
		c-2.5,0.9-4.1,1.7-4.9,2.6c-0.7,0.8-1.1,2-1.1,3.4c0,1.3,0.4,2.3,1.1,3.3c0.8,0.9,1.7,1.4,2.7,1.4c1,0,1.9-0.3,3-0.9
		C395.2,749.4,395.9,748.6,396.4,747.7z"/>
	<path class="st1" d="M416.8,726.9v5.3h0.1c1-1.6,2.4-2.9,4-3.8c1.6-1,3.3-1.4,5-1.4c1.8,0,3.5,0.5,4.9,1.5s2.4,2.4,3,4.2
		c2.7-3.8,5.8-5.7,9.3-5.7c2.5,0,4.5,0.8,6.1,2.3c1.6,1.5,2.4,3.6,2.4,6.2v12.7c0,1.4,0.3,2.3,0.9,2.8c0.6,0.5,1.7,0.7,3.3,0.7v1.3
		h-13.4v-1.3c1.8,0,3-0.3,3.5-0.9c0.5-0.6,0.8-1.9,0.8-3.9v-12c0-1.6-0.5-2.9-1.5-3.8c-1-0.9-2.3-1.4-4-1.4c-2.6,0-5,1.6-7.1,4.9
		V748c0,1.4,0.3,2.4,0.9,2.9c0.6,0.5,1.7,0.7,3.3,0.7v1.3h-13.3v-1.3c1.9,0,3.1-0.3,3.5-0.9c0.5-0.6,0.7-1.9,0.7-3.9v-11.7
		c0-1.7-0.5-3-1.5-4c-1-1-2.3-1.5-3.9-1.5c-1.4,0-2.7,0.4-4,1.3c-1.3,0.9-2.4,2.1-3.3,3.6v13.7c0,1.3,0.3,2.2,0.9,2.7
		c0.6,0.5,1.7,0.8,3.3,0.8v1.2h-13.4v-1.3c1.9,0,3-0.3,3.5-0.9c0.5-0.6,0.7-1.6,0.7-3.2v-15c0-1.3-0.3-2.2-0.8-2.8
		c-0.5-0.6-1.4-0.9-2.7-0.9h-1.6v-1.2l8.7-0.8H416.8z"/>
	<path class="st1" d="M466.9,753.7c-2,0-3.7-0.7-5.1-2c-1.4-1.3-2.1-2.9-2.1-4.8c0-1.8,0.6-3.2,1.8-4.4c1.2-1.1,3.7-2.2,7.4-3.3
		c2.3-0.7,3.9-1.2,4.7-1.7v-1.9c0-1.8-0.5-3.3-1.5-4.4c-1-1.1-2.4-1.7-4.1-1.7c-1.6,0-2.9,0.5-4.1,1.5c-1.2,1-2.1,2.3-2.5,4
		l-1.3-0.3c0.5-2.3,1.6-4.2,3.3-5.6c1.7-1.4,3.7-2.1,6-2.1c2.7,0,4.9,0.8,6.6,2.5s2.5,3.9,2.5,6.8V747c0,1.5,0.1,2.6,0.3,3.1
		c0.2,0.5,0.6,0.8,1.1,0.8c0.4,0,0.7-0.2,0.9-0.5c0.2-0.3,0.5-1,0.8-2h1.2c-0.1,1.6-0.6,2.8-1.5,3.8c-0.9,0.9-2,1.4-3.4,1.4
		c-2.1,0-3.5-1.2-4.3-3.6c-1.3,1.4-2.4,2.3-3.3,2.8C469.4,753.4,468.2,753.7,466.9,753.7z M473.7,747.7v-8.6
		c-0.7,0.3-1.8,0.7-3.1,1.1c-2.5,0.9-4.1,1.7-4.9,2.6c-0.7,0.8-1.1,2-1.1,3.4c0,1.3,0.4,2.3,1.1,3.3c0.8,0.9,1.7,1.4,2.7,1.4
		c1,0,1.9-0.3,3-0.9C472.5,749.4,473.3,748.6,473.7,747.7z"/>
	<path class="st1" d="M504.9,731.9l-6.5,6l10.5,10.5c1.2,1.2,2.2,2,3,2.5c0.8,0.4,1.9,0.7,3.1,0.8v1.2h-8.3l-13.1-12.6
		c0,6.6,0.3,10.2,0.8,10.7c0.6,0.5,1.7,0.7,3.4,0.7v1.2h-13.6v-1.2c1.9,0,3.2-0.4,3.7-0.9c0.5-0.6,0.8-1.9,0.8-3.9v-33.2
		c0-1.5-0.3-2.4-0.8-2.8s-1.8-0.6-3.7-0.6v-1.2l8.1-0.9h1.2V740l6.8-6.2c1.3-1.2,1.9-2.2,1.9-3.2c0-1.1-1-1.7-3.1-1.7v-1.2H513v1.2
		h-1.2C509.4,728.9,507,729.9,504.9,731.9z"/>
	<path class="st1" d="M539,708.1h1.2v22.6c1.1-1.2,2.4-2.1,3.9-2.8c1.5-0.7,3.1-1,4.6-1c3.3,0,6.1,1.2,8.3,3.6
		c2.3,2.4,3.4,5.3,3.4,8.8c0,4.1-1.5,7.4-4.6,10s-7.3,3.9-12.6,3.9c-2.1,0-4.7-0.3-7.8-0.8v-37.9c0-2-0.2-3.2-0.7-3.7
		c-0.5-0.5-1.7-0.7-3.7-0.7v-1.2L539,708.1z M540.2,732.5v14.4c0,1.9,0.3,3.2,1,3.9c0.6,0.7,1.8,1,3.3,1c3.3,0,5.9-1.1,7.8-3.2
		c1.9-2.1,2.9-5.1,2.9-8.9c0-3.2-0.8-5.8-2.5-7.8c-1.7-2-3.6-3-5.9-3C544.3,729,542.1,730.1,540.2,732.5z"/>
	<path class="st1" d="M584.7,747.6v-12.5c0-1.7-0.5-3-1.4-4c-0.9-1-2.2-1.5-3.7-1.5c-1.4,0-2.7,0.4-3.8,1.1s-2.3,2-3.5,3.7v13.9
		c0,1.3,0.3,2.2,0.9,2.7c0.6,0.5,1.7,0.7,3.3,0.7v1.2H563v-1.2c1.9,0,3.2-0.4,3.7-0.9s0.8-1.9,0.8-3.9v-32.9c0-1.5-0.3-2.5-0.8-3
		c-0.5-0.5-1.8-0.8-3.7-0.8v-1.2l8.1-0.9h1.2V732c1.6-1.9,3.1-3.2,4.4-3.9c1.3-0.8,2.8-1.1,4.4-1.1c2.5,0,4.5,0.8,6.1,2.4
		c1.6,1.6,2.4,3.7,2.4,6.4v11.2c0,2,0.3,3.3,0.8,3.9c0.5,0.6,1.6,0.9,3.3,0.9v1.2h-13.1v-1.2c1.7,0,2.8-0.3,3.4-0.8
		C584.5,750.3,584.7,749.2,584.7,747.6z"/>
	<path class="st1" d="M603.5,726.9h1.2v21.3c0,1.4,0.3,2.3,0.9,2.8c0.6,0.5,1.7,0.7,3.3,0.7v1.2h-13.8v-1.2c2,0,3.3-0.2,3.9-0.7
		c0.6-0.5,0.9-1.4,0.9-2.8v-15.5c0-1.5-0.3-2.5-0.8-3c-0.5-0.5-1.9-0.7-4-0.7v-1.2L603.5,726.9z M602.4,713.9c0.9,0,1.6,0.3,2.2,0.9
		s0.9,1.3,0.9,2.2c0,0.9-0.3,1.6-0.9,2.2s-1.3,0.9-2.2,0.9c-0.9,0-1.6-0.3-2.2-0.9c-0.6-0.6-0.9-1.4-0.9-2.2c0-0.9,0.3-1.6,0.9-2.2
		C600.7,714.1,601.5,713.9,602.4,713.9z"/>
	<path class="st1" d="M648.4,747.6v-12.5c0-1.7-0.5-3-1.4-4s-2.2-1.5-3.7-1.5c-1.4,0-2.7,0.4-3.8,1.1s-2.3,2-3.5,3.7v13.9
		c0,1.3,0.3,2.2,0.9,2.7c0.6,0.5,1.7,0.7,3.3,0.7v1.2h-13.5v-1.2c1.9,0,3.2-0.4,3.7-0.9s0.8-1.9,0.8-3.9v-32.9c0-1.5-0.3-2.5-0.8-3
		c-0.5-0.5-1.8-0.8-3.7-0.8v-1.2l8.1-0.9h1.2V732c1.6-1.9,3.1-3.2,4.4-3.9c1.3-0.8,2.8-1.1,4.4-1.1c2.5,0,4.5,0.8,6.1,2.4
		c1.6,1.6,2.4,3.7,2.4,6.4v11.2c0,2,0.3,3.3,0.8,3.9s1.6,0.9,3.3,0.9v1.2h-13.1v-1.2c1.7,0,2.8-0.3,3.4-0.8
		C648.1,750.3,648.4,749.2,648.4,747.6z"/>
	<path class="st1" d="M667,753.7c-2,0-3.7-0.7-5.1-2c-1.4-1.3-2.1-2.9-2.1-4.8c0-1.8,0.6-3.2,1.8-4.4c1.2-1.1,3.7-2.2,7.4-3.3
		c2.3-0.7,3.9-1.2,4.7-1.7v-1.9c0-1.8-0.5-3.3-1.5-4.4c-1-1.1-2.4-1.7-4.1-1.7c-1.6,0-2.9,0.5-4.1,1.5c-1.2,1-2.1,2.3-2.5,4
		l-1.3-0.3c0.5-2.3,1.6-4.2,3.3-5.6c1.7-1.4,3.7-2.1,6-2.1c2.7,0,4.9,0.8,6.6,2.5c1.7,1.6,2.5,3.9,2.5,6.8V747
		c0,1.5,0.1,2.6,0.3,3.1c0.2,0.5,0.6,0.8,1.1,0.8c0.4,0,0.7-0.2,0.9-0.5c0.2-0.3,0.5-1,0.8-2h1.2c-0.1,1.6-0.6,2.8-1.5,3.8
		c-0.9,0.9-2,1.4-3.4,1.4c-2.1,0-3.5-1.2-4.3-3.6c-1.3,1.4-2.4,2.3-3.3,2.8C669.5,753.4,668.3,753.7,667,753.7z M673.8,747.7v-8.6
		c-0.7,0.3-1.8,0.7-3.1,1.1c-2.5,0.9-4.1,1.7-4.9,2.6c-0.7,0.8-1.1,2-1.1,3.4c0,1.3,0.4,2.3,1.1,3.3c0.8,0.9,1.7,1.4,2.7,1.4
		c1,0,2-0.3,3-0.9C672.6,749.4,673.4,748.6,673.8,747.7z"/>
	<path class="st1" d="M693.1,726.9h1.2v21.3c0,1.4,0.3,2.3,0.9,2.8c0.6,0.5,1.7,0.7,3.3,0.7v1.2h-13.8v-1.2c2,0,3.3-0.2,3.9-0.7
		c0.6-0.5,0.9-1.4,0.9-2.8v-15.5c0-1.5-0.3-2.5-0.8-3c-0.5-0.5-1.9-0.7-4-0.7v-1.2L693.1,726.9z M692,713.9c0.9,0,1.6,0.3,2.2,0.9
		s0.9,1.3,0.9,2.2c0,0.9-0.3,1.6-0.9,2.2s-1.3,0.9-2.2,0.9c-0.9,0-1.6-0.3-2.2-0.9c-0.6-0.6-0.9-1.4-0.9-2.2c0-0.9,0.3-1.6,0.9-2.2
		C690.4,714.1,691.1,713.9,692,713.9z"/>
	<path class="st1" d="M725.5,753.7c-2,0-3.7-0.7-5.1-2c-1.4-1.3-2.1-2.9-2.1-4.8c0-1.8,0.6-3.2,1.8-4.4c1.2-1.1,3.7-2.2,7.4-3.3
		c2.3-0.7,3.9-1.2,4.7-1.7v-1.9c0-1.8-0.5-3.3-1.5-4.4c-1-1.1-2.4-1.7-4.1-1.7c-1.6,0-2.9,0.5-4.1,1.5c-1.2,1-2.1,2.3-2.5,4
		l-1.3-0.3c0.5-2.3,1.6-4.2,3.3-5.6c1.7-1.4,3.7-2.1,6-2.1c2.7,0,4.9,0.8,6.6,2.5c1.7,1.6,2.5,3.9,2.5,6.8V747
		c0,1.5,0.1,2.6,0.3,3.1c0.2,0.5,0.6,0.8,1.1,0.8c0.4,0,0.7-0.2,0.9-0.5c0.2-0.3,0.5-1,0.8-2h1.2c-0.1,1.6-0.6,2.8-1.5,3.8
		c-0.9,0.9-2,1.4-3.4,1.4c-2.1,0-3.5-1.2-4.3-3.6c-1.3,1.4-2.4,2.3-3.3,2.8C727.9,753.4,726.8,753.7,725.5,753.7z M732.2,747.7v-8.6
		c-0.7,0.3-1.8,0.7-3.1,1.1c-2.5,0.9-4.1,1.7-4.9,2.6c-0.7,0.8-1.1,2-1.1,3.4c0,1.3,0.4,2.3,1.1,3.3c0.8,0.9,1.7,1.4,2.7,1.4
		c1,0,2-0.3,3-0.9C731.1,749.4,731.8,748.6,732.2,747.7z"/>
	<path class="st1" d="M751.5,753.7c-2,0-3.7-0.7-5.1-2c-1.4-1.3-2.1-2.9-2.1-4.8c0-1.8,0.6-3.2,1.8-4.4c1.2-1.1,3.7-2.2,7.4-3.3
		c2.3-0.7,3.9-1.2,4.7-1.7v-1.9c0-1.8-0.5-3.3-1.5-4.4c-1-1.1-2.4-1.7-4.1-1.7c-1.6,0-2.9,0.5-4.1,1.5c-1.2,1-2.1,2.3-2.5,4
		l-1.3-0.3c0.5-2.3,1.6-4.2,3.3-5.6c1.7-1.4,3.7-2.1,6-2.1c2.7,0,4.9,0.8,6.6,2.5c1.7,1.6,2.5,3.9,2.5,6.8V747
		c0,1.5,0.1,2.6,0.3,3.1c0.2,0.5,0.6,0.8,1.1,0.8c0.4,0,0.7-0.2,0.9-0.5c0.2-0.3,0.5-1,0.8-2h1.2c-0.1,1.6-0.6,2.8-1.5,3.8
		c-0.9,0.9-2,1.4-3.4,1.4c-2.1,0-3.5-1.2-4.3-3.6c-1.3,1.4-2.4,2.3-3.3,2.8C754,753.4,752.8,753.7,751.5,753.7z M758.3,747.7v-8.6
		c-0.7,0.3-1.8,0.7-3.1,1.1c-2.5,0.9-4.1,1.7-4.9,2.6c-0.7,0.8-1.1,2-1.1,3.4c0,1.3,0.4,2.3,1.1,3.3c0.8,0.9,1.7,1.4,2.7,1.4
		c1,0,2-0.3,3-0.9C757.1,749.4,757.9,748.6,758.3,747.7z"/>
	<path class="st1" d="M778,726.9v5c2.9-3.4,6-5,9.1-5c2.4,0,4.5,0.8,6.1,2.5s2.4,3.9,2.4,6.6v11.4c0,1.7,0.3,2.9,0.9,3.5
		c0.6,0.6,1.7,0.8,3.4,0.8v1.2h-13.5v-1.2c1.7,0,2.8-0.2,3.4-0.6c0.6-0.4,0.9-1.3,0.9-2.5v-13.2c0-1.8-0.5-3.2-1.6-4.2
		c-1.1-1-2.4-1.6-4.1-1.6c-2.4,0-4.8,1.6-7.2,4.9v12.4c0,2.1,0.3,3.4,0.8,4c0.5,0.6,1.7,0.9,3.4,0.9v1.2h-13.3v-1.2
		c1.9,0,3.1-0.3,3.6-0.9c0.4-0.6,0.7-1.9,0.7-3.9v-14.3c0-1.5-0.3-2.5-0.8-3c-0.5-0.5-1.7-0.7-3.4-0.7v-1.2l7.9-0.8H778z"/>
	<path class="st1" d="M822.1,731.9l-6.5,6l10.5,10.5c1.2,1.2,2.2,2,3,2.5s1.9,0.7,3.1,0.8v1.2H824l-13.1-12.6
		c0,6.6,0.3,10.2,0.8,10.7c0.6,0.5,1.7,0.7,3.4,0.7v1.2h-13.6v-1.2c2,0,3.2-0.4,3.7-0.9s0.8-1.9,0.8-3.9v-33.2
		c0-1.5-0.3-2.4-0.8-2.8c-0.5-0.4-1.8-0.6-3.7-0.6v-1.2l8.1-0.9h1.2V740l6.8-6.2c1.3-1.2,1.9-2.2,1.9-3.2c0-1.1-1-1.7-3.1-1.7v-1.2
		h13.8v1.2h-1.2C826.6,728.9,824.3,729.9,822.1,731.9z"/>
	<path class="st1" d="M861.2,740.3c0,3.8-1.3,7-4,9.5s-5.9,3.8-9.9,3.8s-7.2-1.3-9.9-3.8s-4-5.7-4-9.5c0-3.9,1.3-7.1,3.9-9.6
		c2.6-2.5,5.9-3.8,9.9-3.8s7.3,1.3,9.9,3.8C859.9,733.3,861.2,736.5,861.2,740.3z M855.9,740.3c0-3.6-0.8-6.5-2.3-8.7
		c-1.5-2.2-3.6-3.3-6.3-3.3s-4.7,1.1-6.3,3.2s-2.3,5.1-2.3,8.8c0,3.6,0.8,6.5,2.3,8.7s3.6,3.2,6.3,3.2s4.8-1.1,6.3-3.3
		C855.2,746.8,855.9,743.9,855.9,740.3z"/>
	<path class="st1" d="M890.2,726.9v5.3h0.1c1-1.6,2.4-2.9,4-3.8c1.6-1,3.3-1.4,5-1.4c1.8,0,3.5,0.5,4.9,1.5s2.4,2.4,3,4.2
		c2.7-3.8,5.8-5.7,9.3-5.7c2.5,0,4.5,0.8,6.1,2.3c1.6,1.5,2.4,3.6,2.4,6.2v12.7c0,1.4,0.3,2.3,0.9,2.8c0.6,0.5,1.7,0.7,3.3,0.7v1.3
		H916v-1.3c1.8,0,3-0.3,3.5-0.9s0.8-1.9,0.8-3.9v-12c0-1.6-0.5-2.9-1.5-3.8c-1-0.9-2.3-1.4-4-1.4c-2.6,0-5,1.6-7.1,4.9V748
		c0,1.4,0.3,2.4,0.9,2.9c0.6,0.5,1.7,0.7,3.3,0.7v1.3h-13.3v-1.3c1.9,0,3.1-0.3,3.5-0.9c0.5-0.6,0.7-1.9,0.7-3.9v-11.7
		c0-1.7-0.5-3-1.5-4s-2.3-1.5-3.9-1.5c-1.4,0-2.7,0.4-4,1.3s-2.4,2.1-3.3,3.6v13.7c0,1.3,0.3,2.2,0.9,2.7c0.6,0.5,1.7,0.8,3.3,0.8
		v1.2h-13.4v-1.3c1.9,0,3-0.3,3.5-0.9c0.5-0.6,0.7-1.6,0.7-3.2v-15c0-1.3-0.3-2.2-0.8-2.8c-0.5-0.6-1.4-0.9-2.7-0.9h-1.6v-1.2
		l8.7-0.8H890.2z"/>
	<path class="st1" d="M957.6,746.4v1.8c-1.5,1.9-3.1,3.3-4.7,4.2c-1.6,0.8-3.5,1.3-5.7,1.3c-3.9,0-7.2-1.2-9.8-3.7
		c-2.6-2.5-3.8-5.6-3.8-9.4c0-3.8,1.2-7.1,3.7-9.7c2.4-2.6,5.4-3.9,9-3.9c2.9,0,5.5,1,7.7,3c2.2,2,3.3,4.3,3.3,7.1v0.5h-18.6v0.3
		c0,2.8,0.4,5.2,1.3,7.3c0.8,2.1,2.1,3.7,3.7,4.8c1.6,1.2,3.3,1.7,5.1,1.7c1.6,0,3.1-0.3,4.2-1C954.1,749.9,955.7,748.5,957.6,746.4
		z M938.7,736.2h13.8v-0.5c0-2.3-0.6-4-1.9-5.4c-1.3-1.3-2.9-2-4.8-2c-2,0-3.7,0.7-4.9,2.1C939.5,731.9,938.8,733.8,938.7,736.2z"/>
	<path class="st1" d="M969,747.9c0.9,0,1.7,0.3,2.4,1c0.7,0.7,1,1.4,1,2.4c0,0.9-0.3,1.7-1,2.4c-0.7,0.7-1.4,1-2.3,1
		c-0.9,0-1.7-0.3-2.4-1c-0.7-0.7-1-1.5-1-2.4c0-0.9,0.3-1.7,1-2.4C967.2,748.2,968,747.9,969,747.9z"/>
</g>
<g class="st0">
	<path class="st2" d="M378.6,854.3v1c-1.4,0-2.4,0.4-2.9,1.2s-0.8,2.1-0.8,4.1v30.5c0,2.9-0.8,5.1-2.3,6.7c-1.5,1.6-3.5,2.4-6,2.4
		c-2.4,0-4.2-1-5.4-3l0.8-0.6c0.8,1,1.7,1.5,3,1.5c1.6,0,2.9-0.7,4-2.1c1-1.4,1.5-3.4,1.5-6v-29.5c0-2-0.3-3.4-0.8-4.1
		c-0.5-0.8-1.5-1.1-3-1.1v-1H378.6z"/>
	<path class="st2" d="M387.4,888.1c-1.6,0-3-0.5-4.1-1.6c-1.1-1.1-1.7-2.3-1.7-3.9c0-1.4,0.5-2.6,1.5-3.5c1-0.9,3-1.8,6-2.7
		c1.9-0.5,3.2-1,3.8-1.4v-1.5c0-1.5-0.4-2.7-1.2-3.6s-1.9-1.4-3.3-1.4c-1.3,0-2.4,0.4-3.4,1.2s-1.7,1.9-2.1,3.2l-1-0.3
		c0.4-1.9,1.3-3.4,2.7-4.6c1.4-1.1,3-1.7,4.9-1.7c2.2,0,4,0.7,5.3,2c1.4,1.3,2,3.2,2,5.5v8.8c0,1.2,0.1,2.1,0.2,2.5
		c0.2,0.4,0.5,0.7,0.9,0.7c0.3,0,0.5-0.1,0.7-0.4s0.4-0.8,0.6-1.6h1c-0.1,1.3-0.5,2.3-1.2,3s-1.6,1.1-2.8,1.1c-1.7,0-2.8-1-3.5-2.9
		c-1,1.1-1.9,1.9-2.7,2.3S388.4,888.1,387.4,888.1z M392.9,883.3v-6.9c-0.6,0.2-1.4,0.6-2.5,0.9c-2,0.7-3.4,1.4-3.9,2.1
		c-0.6,0.7-0.9,1.6-0.9,2.8c0,1,0.3,1.9,0.9,2.6s1.3,1.1,2.2,1.1c0.8,0,1.6-0.2,2.4-0.7C391.9,884.6,392.5,884,392.9,883.3z"/>
	<path class="st2" d="M408.8,866.4v4.1c2.4-2.7,4.9-4.1,7.4-4.1c2,0,3.6,0.7,4.9,2c1.3,1.3,2,3.1,2,5.3v9.2c0,1.4,0.2,2.3,0.7,2.8
		c0.5,0.5,1.4,0.7,2.8,0.7v1h-10.9v-1c1.4,0,2.3-0.2,2.8-0.5c0.5-0.3,0.7-1,0.7-2v-10.7c0-1.4-0.4-2.6-1.3-3.4
		c-0.9-0.8-2-1.3-3.3-1.3c-1.9,0-3.9,1.3-5.8,4v10c0,1.7,0.2,2.8,0.7,3.2c0.4,0.5,1.4,0.7,2.8,0.7v1h-10.8v-1c1.6,0,2.5-0.3,2.9-0.7
		c0.4-0.5,0.5-1.6,0.5-3.2V871c0-1.2-0.2-2-0.6-2.4c-0.4-0.4-1.4-0.6-2.8-0.6v-1l6.4-0.6H408.8z"/>
	<path class="st2" d="M448.6,866.4h1v17.2c0,1.1,0.2,1.9,0.7,2.3s1.4,0.6,2.8,0.6v1l-7.4,0.4v-3.8h-0.1c-2,2.7-4.4,4-7.2,4
		c-2,0-3.6-0.7-4.8-2c-1.3-1.3-1.9-3-1.9-4.9v-10.5c0-1.1-0.3-1.8-0.8-2.1c-0.5-0.4-1.5-0.6-2.8-0.6v-1l6.6-0.6h1V881
		c0,1.4,0.4,2.6,1.3,3.4c0.8,0.8,2,1.2,3.4,1.2c2,0,3.8-1.1,5.4-3.4v-11c0-1.4-0.2-2.3-0.6-2.7c-0.4-0.4-1.5-0.6-3.3-0.6v-1
		L448.6,866.4z"/>
	<path class="st2" d="M461.4,888.1c-1.6,0-3-0.5-4.1-1.6c-1.1-1.1-1.7-2.3-1.7-3.9c0-1.4,0.5-2.6,1.5-3.5c1-0.9,3-1.8,6-2.7
		c1.9-0.5,3.2-1,3.8-1.4v-1.5c0-1.5-0.4-2.7-1.2-3.6s-1.9-1.4-3.3-1.4c-1.3,0-2.4,0.4-3.4,1.2s-1.7,1.9-2.1,3.2l-1-0.3
		c0.4-1.9,1.3-3.4,2.7-4.6c1.4-1.1,3-1.7,4.9-1.7c2.2,0,4,0.7,5.3,2c1.4,1.3,2,3.2,2,5.5v8.8c0,1.2,0.1,2.1,0.2,2.5
		c0.2,0.4,0.5,0.7,0.9,0.7c0.3,0,0.5-0.1,0.7-0.4s0.4-0.8,0.6-1.6h1c-0.1,1.3-0.5,2.3-1.2,3s-1.6,1.1-2.8,1.1c-1.7,0-2.8-1-3.5-2.9
		c-1,1.1-1.9,1.9-2.7,2.3S462.4,888.1,461.4,888.1z M466.9,883.3v-6.9c-0.6,0.2-1.4,0.6-2.5,0.9c-2,0.7-3.4,1.4-3.9,2.1
		c-0.6,0.7-0.9,1.6-0.9,2.8c0,1,0.3,1.9,0.9,2.6s1.3,1.1,2.2,1.1c0.8,0,1.6-0.2,2.4-0.7C465.9,884.6,466.5,884,466.9,883.3z"/>
	<path class="st2" d="M483.4,866.4v4.4c1.9-1.6,3.3-2.8,4.4-3.4s1.9-1,2.6-1c1.3,0,2.5,0.5,3.8,1.6l-1.6,3.6
		c-2.2-1.2-3.8-1.8-4.9-1.8c-1.2,0-2.6,0.8-4.3,2.5v11.2c0,1.1,0.2,1.9,0.7,2.3c0.5,0.4,1.4,0.6,2.7,0.6v1h-10.8v-1
		c1.4,0,2.4-0.2,2.8-0.7c0.4-0.5,0.7-1.5,0.7-3.3v-11.2c0-1.4-0.2-2.3-0.7-2.7s-1.6-0.6-3.5-0.6v-1l7.2-0.6H483.4z"/>
	<path class="st2" d="M506.1,867v1c-1.2,0.2-1.7,0.8-1.7,1.8c0,0.4,0.1,0.8,0.3,1.3l4.9,11.6l3.6-10.8c0.3-0.9,0.4-1.6,0.4-2.1
		c0-1.1-0.7-1.7-2.1-1.8v-1h7.2v1c-1.1,0-2,0.4-2.7,1.1c-0.7,0.7-1.4,2-1.9,3.7l-8.1,24.1c-0.8,2.3-1.8,4.1-3,5.4
		c-1.2,1.3-2.5,2-3.8,2c-0.8,0-1.6-0.3-2.5-0.9l1.3-3.5c0.7,0.3,1.4,0.5,2,0.5c1.2,0,2.2-0.4,3-1.2c0.8-0.8,1.5-2.1,2.2-3.9l2.6-7.4
		l-7.3-16.9c-0.5-1.2-1.1-2-1.6-2.4c-0.5-0.4-1.4-0.6-2.5-0.6v-1H506.1z"/>
	<path class="st2" d="M538.4,885.1h16.3v2.4h-19v-1.2c5.2-5.3,8.8-9.6,10.9-12.9c2.1-3.3,3.2-6.3,3.2-9.1c0-2.4-0.5-4.2-1.6-5.6
		s-2.6-2-4.4-2c-1.7,0-3.1,0.5-4.2,1.6c-1.1,1.1-1.7,2.5-1.9,4.4h-1c0-1.4,0.4-2.8,1.3-4.3c0.8-1.5,1.9-2.7,3.2-3.6
		c1.3-0.8,2.7-1.3,4.3-1.3c2.3,0,4.3,0.9,5.9,2.7c1.6,1.8,2.4,4,2.4,6.6c0,3-1.2,6.2-3.5,9.6S544.1,880,538.4,885.1z"/>
	<path class="st2" d="M570.5,882.9v-22.7c0-0.8-0.2-1.2-0.5-1.2c-0.1,0-0.3,0.1-0.7,0.2c-1.4,0.6-2.7,0.9-3.8,0.9v-1
		c4.2-2.2,6.8-4.1,7.8-5.6h1v29.3c0,1.5,0.2,2.5,0.6,3s1.3,0.7,2.8,0.7v0.9h-10.6v-0.9c1.4,0,2.4-0.2,2.8-0.7
		C570.3,885.4,570.5,884.4,570.5,882.9z"/>
	<path class="st2" d="M590.4,897.4v-1c1.5-0.8,2.6-1.6,3.2-2.6s0.9-2.2,0.9-3.9c0-0.4-0.1-0.7-0.2-0.8c-0.1-0.1-0.4-0.2-0.9-0.2
		c-0.8,0-1.6-0.3-2.1-0.8c-0.6-0.5-0.9-1.2-0.9-2c0-0.8,0.3-1.4,0.8-1.9s1.2-0.8,2-0.8c1.3,0,2.3,0.5,3.1,1.6c0.8,1,1.2,2.4,1.2,4
		c0,2-0.7,3.8-2,5.4S592.5,896.9,590.4,897.4z"/>
	<path class="st2" d="M618.9,885.1h16.3v2.4h-19v-1.2c5.2-5.3,8.8-9.6,10.9-12.9s3.2-6.3,3.2-9.1c0-2.4-0.5-4.2-1.6-5.6
		c-1.1-1.4-2.6-2-4.4-2c-1.7,0-3.1,0.5-4.2,1.6c-1.1,1.1-1.7,2.5-1.9,4.4h-1c0-1.4,0.4-2.8,1.3-4.3c0.8-1.5,1.9-2.7,3.2-3.6
		c1.3-0.8,2.7-1.3,4.3-1.3c2.3,0,4.3,0.9,5.9,2.7c1.6,1.8,2.4,4,2.4,6.6c0,3-1.2,6.2-3.5,9.6C628.5,875.7,624.5,880,618.9,885.1z"/>
	<path class="st2" d="M664,870.8c0,3.4-0.5,6.4-1.5,9c-1,2.6-2.4,4.6-4.2,6.1c-1.8,1.5-3.7,2.2-5.8,2.2c-2.1,0-4-0.7-5.9-2.2
		s-3.2-3.5-4.2-6.1c-1-2.6-1.5-5.6-1.5-9c0-3.3,0.5-6.3,1.5-8.9s2.4-4.6,4.2-6.1c1.8-1.5,3.8-2.2,5.8-2.2s4,0.7,5.8,2.2
		s3.2,3.5,4.1,6.1C663.5,864.4,664,867.4,664,870.8z M659.6,870.8c0-5-0.6-8.9-1.8-11.6s-3-4.1-5.2-4.1c-2.3,0-4,1.4-5.3,4.2
		c-1.2,2.8-1.8,6.7-1.8,11.6c0,5,0.6,8.8,1.9,11.6c1.2,2.8,3,4.2,5.2,4.2s4-1.4,5.2-4.1C659,879.7,659.6,875.8,659.6,870.8z"/>
	<path class="st2" d="M671.8,885.1h16.3v2.4h-19v-1.2c5.2-5.3,8.8-9.6,10.9-12.9s3.2-6.3,3.2-9.1c0-2.4-0.5-4.2-1.6-5.6
		c-1.1-1.4-2.6-2-4.4-2c-1.7,0-3.1,0.5-4.2,1.6c-1.1,1.1-1.7,2.5-1.9,4.4h-1c0-1.4,0.4-2.8,1.3-4.3c0.8-1.5,1.9-2.7,3.2-3.6
		c1.3-0.8,2.7-1.3,4.3-1.3c2.3,0,4.3,0.9,5.9,2.7c1.6,1.8,2.4,4,2.4,6.6c0,3-1.2,6.2-3.5,9.6C681.5,875.7,677.5,880,671.8,885.1z"/>
	<path class="st2" d="M698.3,885.1h16.3v2.4h-19v-1.2c5.2-5.3,8.8-9.6,10.9-12.9c2.1-3.3,3.2-6.3,3.2-9.1c0-2.4-0.5-4.2-1.6-5.6
		s-2.6-2-4.4-2c-1.7,0-3.1,0.5-4.2,1.6c-1.1,1.1-1.7,2.5-1.9,4.4h-1c0-1.4,0.4-2.8,1.3-4.3c0.8-1.5,1.9-2.7,3.2-3.6
		c1.3-0.8,2.7-1.3,4.3-1.3c2.3,0,4.3,0.9,5.9,2.7c1.6,1.8,2.4,4,2.4,6.6c0,3-1.2,6.2-3.5,9.6S703.9,880,698.3,885.1z"/>
</g>
<g class="st0">
	<path class="st2" d="M376.9,918.2v1c-4.9,0.9-8.9,2.9-11.8,6.1c-2.9,3.2-4.6,7.2-5.1,12c2.6-2.4,5.3-3.6,8.1-3.6
		c2.6,0,4.8,0.9,6.5,2.6c1.7,1.8,2.5,4,2.5,6.8c0,2.8-1,5.1-3,7c-2,1.9-4.4,2.8-7.4,2.8c-3.2,0-5.9-1.2-8-3.7
		c-2.1-2.5-3.2-5.6-3.2-9.3c0-5.8,2-10.6,6-14.7C365.6,921.1,370.7,918.7,376.9,918.2z M373.2,944c0-2.4-0.6-4.3-1.8-5.7
		c-1.2-1.4-2.9-2.2-4.9-2.2c-2.2,0-4.4,0.9-6.4,2.8v0.4c0,3.7,0.7,6.6,2,8.7c1.4,2.1,3.1,3.2,5.4,3.2c1.7,0,3.1-0.7,4.2-2
		C372.7,947.8,373.2,946.1,373.2,944z"/>
	<path class="st2" d="M388.1,933.2c0.8,0,1.4,0.3,1.9,0.8c0.5,0.5,0.8,1.2,0.8,1.9c0,0.7-0.3,1.4-0.8,1.9c-0.5,0.5-1.2,0.8-1.9,0.8
		c-0.8,0-1.4-0.3-1.9-0.8c-0.5-0.5-0.8-1.2-0.8-1.9c0-0.7,0.3-1.4,0.8-1.9C386.7,933.4,387.3,933.2,388.1,933.2z M388.1,948.1
		c0.8,0,1.4,0.3,1.9,0.8c0.5,0.5,0.8,1.2,0.8,1.9s-0.3,1.4-0.8,1.9c-0.5,0.5-1.2,0.8-1.9,0.8c-0.8,0-1.4-0.3-1.9-0.8
		c-0.5-0.5-0.8-1.2-0.8-1.9c0-0.7,0.3-1.4,0.8-1.9C386.7,948.4,387.3,948.1,388.1,948.1z"/>
	<path class="st2" d="M421.1,935.5c0,3.4-0.5,6.4-1.5,9c-1,2.6-2.4,4.6-4.2,6.1c-1.8,1.5-3.7,2.2-5.8,2.2c-2.1,0-4-0.7-5.9-2.2
		s-3.2-3.5-4.2-6.1c-1-2.6-1.5-5.6-1.5-9c0-3.3,0.5-6.3,1.5-8.9c1-2.6,2.4-4.6,4.2-6.1c1.8-1.5,3.8-2.2,5.8-2.2c2.1,0,4,0.7,5.8,2.2
		c1.8,1.5,3.2,3.5,4.1,6.1C420.6,929.1,421.1,932.1,421.1,935.5z M416.8,935.5c0-5-0.6-8.9-1.8-11.6s-3-4.1-5.2-4.1s-4,1.4-5.3,4.2
		c-1.2,2.8-1.8,6.7-1.8,11.6c0,5,0.6,8.8,1.9,11.6c1.2,2.8,3,4.2,5.2,4.2c2.3,0,4-1.4,5.2-4.1C416.2,944.4,416.8,940.5,416.8,935.5z
		"/>
	<path class="st2" d="M447.6,935.5c0,3.4-0.5,6.4-1.5,9c-1,2.6-2.4,4.6-4.2,6.1c-1.8,1.5-3.7,2.2-5.8,2.2c-2.1,0-4-0.7-5.9-2.2
		s-3.2-3.5-4.2-6.1c-1-2.6-1.5-5.6-1.5-9c0-3.3,0.5-6.3,1.5-8.9c1-2.6,2.4-4.6,4.2-6.1c1.8-1.5,3.8-2.2,5.8-2.2c2.1,0,4,0.7,5.8,2.2
		c1.8,1.5,3.2,3.5,4.1,6.1C447.1,929.1,447.6,932.1,447.6,935.5z M443.2,935.5c0-5-0.6-8.9-1.8-11.6s-3-4.1-5.2-4.1s-4,1.4-5.3,4.2
		c-1.2,2.8-1.8,6.7-1.8,11.6c0,5,0.6,8.8,1.9,11.6c1.2,2.8,3,4.2,5.2,4.2c2.3,0,4-1.4,5.2-4.1C442.6,944.4,443.2,940.5,443.2,935.5z
		"/>
	<path class="st2" d="M464.6,919h12.1c3.9,0,7.1,0.9,9.4,2.6c2.3,1.7,3.5,4,3.5,6.8c0,2.7-1,4.9-3,6.3c-2,1.5-4.9,2.2-8.7,2.2
		c-1.4,0-3.1-0.1-5.1-0.3v9.3c0,2,0.3,3.4,0.8,4.1c0.5,0.8,1.5,1.1,2.9,1.1v1h-11.9v-1c1.4,0,2.4-0.4,2.9-1.2c0.5-0.8,0.8-2.1,0.8-4
		v-20.7c0-2-0.3-3.3-0.8-4.1c-0.5-0.8-1.5-1.2-2.9-1.2V919z M476.8,920.3h-4.1v14.8c1.1,0.4,2.5,0.6,4.1,0.6c2.5,0,4.4-0.6,5.9-1.9
		c1.4-1.3,2.2-3,2.2-5.2c0-2.4-0.7-4.4-2.1-5.9C481.3,921.1,479.3,920.3,476.8,920.3z"/>
	<path class="st2" d="M524.3,919h7.8v1c-2.5,0.1-3.7,1.5-3.7,4.4c0,0.2,0,0.5,0,0.8l1.7,20.4c0.2,2.2,0.6,3.6,1.1,4.3
		c0.6,0.7,1.6,1.1,3,1.3v1h-11.9v-1c1.3-0.2,2.2-0.6,2.7-1.2c0.5-0.6,0.8-1.6,0.8-2.9c0-0.3,0-0.6,0-0.9l-1.8-21.4l-11.3,27.3h-0.9
		l-11.2-27.3l-1.9,20.3c0,0.3,0,0.6,0,0.9c0,2.9,1.4,4.5,4.3,5.1v1h-10.3v-1c1.4-0.2,2.4-0.7,3-1.5c0.6-0.8,1-2.3,1.3-4.6l2-22.8
		c-1.2-1.3-2.6-2-4.3-2.3v-1h8.4l10.6,26L524.3,919z"/>
	<path class="st2" d="M552.2,935.4c0-4.9,1.7-9,5.1-12.3c3.4-3.3,7.6-4.9,12.7-4.9c4.9,0,9.1,1.7,12.5,5s5.1,7.4,5.1,12.2
		c0,4.9-1.7,9.1-5.1,12.4c-3.4,3.4-7.6,5.1-12.6,5.1c-4.9,0-9.1-1.7-12.5-5.1C553.9,944.5,552.2,940.3,552.2,935.4z M557.3,935.5
		c0,4.8,1.1,8.7,3.4,11.7c2.3,3,5.3,4.5,9,4.5c3.8,0,6.8-1.5,9.2-4.6s3.5-6.8,3.5-11.4c0-4.9-1.1-8.8-3.4-11.8
		c-2.3-3-5.3-4.4-8.9-4.4c-3.9,0-7,1.5-9.3,4.4C558.5,926.8,557.3,930.6,557.3,935.5z"/>
	<path class="st2" d="M598.8,931.1v4.1c2.4-2.7,4.9-4.1,7.4-4.1c2,0,3.6,0.7,4.9,2c1.3,1.3,2,3.1,2,5.3v9.2c0,1.4,0.2,2.3,0.7,2.8
		c0.5,0.5,1.4,0.7,2.8,0.7v1h-10.9v-1c1.4,0,2.3-0.2,2.8-0.5c0.5-0.3,0.7-1,0.7-2v-10.7c0-1.4-0.4-2.6-1.3-3.4
		c-0.9-0.8-2-1.3-3.3-1.3c-1.9,0-3.9,1.3-5.8,4v10c0,1.7,0.2,2.8,0.7,3.2c0.4,0.5,1.4,0.7,2.8,0.7v1h-10.8v-1c1.6,0,2.5-0.3,2.9-0.7
		c0.4-0.5,0.5-1.6,0.5-3.2v-11.5c0-1.2-0.2-2-0.6-2.4c-0.4-0.4-1.4-0.6-2.8-0.6v-1l6.4-0.6H598.8z"/>
	<path class="st2" d="M628.1,931.7v1c-1.4,0-2.2,0.4-2.2,1.2c0,0.4,0.2,1,0.5,1.8l4.6,11.5l4.8-12.3c-0.4-0.8-0.8-1.4-1.2-1.7
		c-0.4-0.3-1-0.4-1.8-0.5v-1h9.9v1c-1.8,0-2.6,0.6-2.6,1.6c0,0.4,0.1,0.8,0.3,1.3l4.6,11.5l4.2-10.7c0.3-0.9,0.5-1.6,0.5-2.1
		c0-1.1-0.9-1.7-2.6-1.7v-1h8v1c-1.4,0-2.4,0.2-3,0.7c-0.5,0.4-1.1,1.5-1.8,3.1l-6.4,16.1h-1l-6.5-16.1l-6.4,16.1h-0.9l-7.2-17.6
		c-0.6-1.5-1.9-2.3-3.8-2.3v-1H628.1z"/>
	<path class="st2" d="M662.9,952.8c-1.6,0-3-0.5-4.1-1.6c-1.1-1.1-1.7-2.3-1.7-3.9c0-1.4,0.5-2.6,1.5-3.5c1-0.9,3-1.8,6-2.7
		c1.9-0.5,3.2-1,3.8-1.4v-1.5c0-1.5-0.4-2.7-1.2-3.6s-1.9-1.4-3.3-1.4c-1.3,0-2.4,0.4-3.4,1.2s-1.7,1.9-2.1,3.2l-1-0.3
		c0.4-1.9,1.3-3.4,2.7-4.6c1.4-1.1,3-1.7,4.9-1.7c2.2,0,4,0.7,5.3,2c1.4,1.3,2,3.2,2,5.5v8.8c0,1.2,0.1,2.1,0.2,2.5
		c0.2,0.4,0.5,0.7,0.9,0.7c0.3,0,0.5-0.1,0.7-0.4c0.2-0.3,0.4-0.8,0.6-1.6h1c-0.1,1.3-0.5,2.3-1.2,3s-1.6,1.1-2.8,1.1
		c-1.7,0-2.8-1-3.5-2.9c-1,1.1-1.9,1.9-2.7,2.3C664.9,952.6,664,952.8,662.9,952.8z M668.4,948V941c-0.6,0.2-1.4,0.6-2.5,0.9
		c-2,0.7-3.4,1.4-3.9,2.1s-0.9,1.6-0.9,2.8c0,1,0.3,1.9,0.9,2.6c0.6,0.7,1.3,1.1,2.2,1.1c0.8,0,1.6-0.2,2.4-0.7
		C667.4,949.3,668,948.7,668.4,948z"/>
	<path class="st2" d="M685,931.1v4.4c1.9-1.6,3.3-2.8,4.4-3.4c1-0.7,1.9-1,2.6-1c1.3,0,2.5,0.5,3.8,1.6l-1.6,3.6
		c-2.2-1.2-3.8-1.8-4.9-1.8c-1.2,0-2.6,0.8-4.3,2.5v11.2c0,1.1,0.2,1.9,0.7,2.3c0.5,0.4,1.4,0.6,2.7,0.6v1h-10.8v-1
		c1.4,0,2.4-0.2,2.8-0.7c0.4-0.5,0.7-1.5,0.7-3.3v-11.2c0-1.4-0.2-2.3-0.7-2.7s-1.7-0.6-3.5-0.6v-1l7.2-0.6H685z"/>
	<path class="st2" d="M717.5,915.8h1v32.3c0,1.1,0.2,1.9,0.7,2.3c0.5,0.4,1.4,0.6,2.7,0.6v1h-11.9c-3.7,0-6.6-1-8.7-3
		c-2.1-2-3.2-4.5-3.2-7.6c0-2.9,0.9-5.3,2.8-7.3c1.9-2,4.1-3,6.8-3c2.1,0,4.4,0.8,6.9,2.5V921c0-1.4-0.2-2.3-0.5-2.8
		c-0.4-0.5-1.1-0.7-2.2-0.7h-1.2v-1L717.5,915.8z M714.5,948.1v-12.3c-0.8-1.1-1.7-1.9-2.8-2.5s-2.1-0.9-3.2-0.9
		c-1.9,0-3.4,0.8-4.5,2.3c-1.1,1.5-1.7,3.5-1.7,6c0,3.2,0.8,5.7,2.4,7.7c1.6,1.9,3.8,2.9,6.6,2.9c1.1,0,2-0.2,2.5-0.7
		C714.3,950,714.5,949.2,714.5,948.1z"/>
	<path class="st2" d="M737.9,931.1v6.3h-1.2c-0.2-1.6-0.8-2.8-1.7-3.8s-2.1-1.4-3.4-1.4c-1,0-1.8,0.3-2.5,0.8
		c-0.6,0.5-0.9,1.2-0.9,2c0,0.8,0.3,1.6,0.9,2.2s1.8,1.4,3.7,2.3c2.5,1.1,4.1,2.2,4.9,3.2s1.2,2.3,1.2,3.7c0,1.7-0.6,3.2-1.9,4.4
		c-1.3,1.3-2.8,1.9-4.5,1.9c-0.9,0-2.1-0.3-3.6-1c-0.8-0.4-1.3-0.5-1.6-0.5c-0.4,0-0.7,0.1-0.9,0.4c-0.2,0.3-0.4,0.6-0.4,1h-1v-7h1
		c0.4,1.8,1.1,3.3,2.4,4.4c1.2,1.1,2.6,1.6,4.2,1.6c1,0,1.9-0.3,2.6-1c0.7-0.7,1-1.5,1-2.5c0-1-0.3-1.8-0.9-2.5
		c-0.6-0.7-2-1.5-4.1-2.4c-2.4-1-3.9-2-4.7-2.9s-1.1-2-1.1-3.3c0-1.6,0.6-3,1.8-4.1c1.2-1.2,2.7-1.7,4.4-1.7c0.8,0,1.6,0.2,2.6,0.6
		c0.7,0.3,1.2,0.4,1.6,0.4c0.5,0,0.9-0.3,1.2-1H737.9z"/>
</g>
<g class="st0">
	<path class="st2" d="M448.5,1049.3v-1h10v1c-1.6,0-2.7,0.4-3.3,1.1s-0.9,2.1-0.9,4.1v26.9h-1l-23.4-28.8v23.2c0,1.6,0.3,2.8,1,3.5
		c0.7,0.7,1.8,1.1,3.3,1.1v1h-10v-1c1.6,0,2.7-0.4,3.2-1.3s0.8-2.3,0.8-4.4v-19.4c0-2.1-0.4-3.6-1.1-4.5c-0.8-0.9-2-1.5-3.8-1.6v-1
		h8.5l20.8,25.7v-19.3c0-2-0.3-3.4-0.9-4.2C451.1,1049.7,450.1,1049.3,448.5,1049.3z"/>
	<path class="st2" d="M485.2,1071.3c0,3.1-1.1,5.7-3.2,7.7s-4.8,3.1-8,3.1s-5.9-1-8-3.1s-3.2-4.6-3.2-7.7c0-3.1,1.1-5.7,3.2-7.8
		c2.1-2.1,4.8-3.1,8-3.1c3.2,0,5.9,1,8,3.1C484.1,1065.6,485.2,1068.2,485.2,1071.3z M480.9,1071.3c0-2.9-0.6-5.3-1.9-7.1
		c-1.2-1.8-2.9-2.7-5.1-2.7c-2.1,0-3.8,0.9-5.1,2.6c-1.2,1.8-1.9,4.1-1.9,7.1c0,2.9,0.6,5.3,1.8,7c1.2,1.8,2.9,2.6,5.1,2.6
		s3.9-0.9,5.1-2.7C480.3,1076.5,480.9,1074.2,480.9,1071.3z"/>
	<path class="st2" d="M511.6,1071.3c0,3.1-1.1,5.7-3.2,7.7s-4.8,3.1-8,3.1s-5.9-1-8-3.1s-3.2-4.6-3.2-7.7c0-3.1,1.1-5.7,3.2-7.8
		c2.1-2.1,4.8-3.1,8-3.1c3.2,0,5.9,1,8,3.1C510.5,1065.6,511.6,1068.2,511.6,1071.3z M507.4,1071.3c0-2.9-0.6-5.3-1.9-7.1
		c-1.2-1.8-2.9-2.7-5.1-2.7c-2.1,0-3.8,0.9-5.1,2.6c-1.2,1.8-1.9,4.1-1.9,7.1c0,2.9,0.6,5.3,1.8,7c1.2,1.8,2.9,2.6,5.1,2.6
		s3.9-0.9,5.1-2.7C506.7,1076.5,507.4,1074.2,507.4,1071.3z"/>
	<path class="st2" d="M522.2,1060.4v4.4c1.9-1.6,3.3-2.8,4.4-3.4s1.9-1,2.6-1c1.3,0,2.5,0.5,3.8,1.6l-1.6,3.6
		c-2.2-1.2-3.8-1.8-4.9-1.8c-1.2,0-2.6,0.8-4.3,2.5v11.2c0,1.1,0.2,1.9,0.7,2.3c0.5,0.4,1.4,0.6,2.7,0.6v1h-10.8v-1
		c1.4,0,2.4-0.2,2.8-0.7c0.4-0.5,0.7-1.5,0.7-3.3v-11.2c0-1.4-0.2-2.3-0.7-2.7s-1.6-0.6-3.5-0.6v-1l7.2-0.6H522.2z"/>
	<path class="st2" d="M544.8,1061.1v1c-1.2,0.2-1.7,0.8-1.7,1.8c0,0.4,0.1,0.8,0.3,1.3l4.9,11.6l3.6-10.8c0.3-0.9,0.4-1.6,0.4-2.1
		c0-1.1-0.7-1.7-2.1-1.8v-1h7.2v1c-1.1,0-2,0.4-2.7,1.1c-0.7,0.7-1.4,2-1.9,3.7l-8.1,24.1c-0.8,2.3-1.8,4.1-3,5.4s-2.5,2-3.8,2
		c-0.8,0-1.6-0.3-2.5-0.9l1.3-3.5c0.7,0.3,1.4,0.5,2,0.5c1.2,0,2.2-0.4,3-1.2c0.8-0.8,1.5-2.1,2.2-3.9l2.6-7.4l-7.3-16.9
		c-0.5-1.2-1.1-2-1.6-2.4c-0.5-0.4-1.4-0.6-2.5-0.6v-1H544.8z"/>
	<path class="st2" d="M565.2,1082.1c-1.6,0-3-0.5-4.1-1.6c-1.1-1.1-1.7-2.3-1.7-3.9c0-1.4,0.5-2.6,1.5-3.5c1-0.9,3-1.8,6-2.7
		c1.9-0.5,3.2-1,3.8-1.4v-1.5c0-1.5-0.4-2.7-1.2-3.6s-1.9-1.4-3.3-1.4c-1.3,0-2.4,0.4-3.4,1.2s-1.7,1.9-2.1,3.2l-1-0.3
		c0.4-1.9,1.3-3.4,2.7-4.6c1.4-1.1,3-1.7,4.9-1.7c2.2,0,4,0.7,5.3,2c1.4,1.3,2,3.2,2,5.5v8.8c0,1.2,0.1,2.1,0.2,2.5
		c0.2,0.4,0.5,0.7,0.9,0.7c0.3,0,0.5-0.1,0.7-0.4c0.2-0.3,0.4-0.8,0.6-1.6h1c-0.1,1.3-0.5,2.3-1.2,3s-1.6,1.1-2.8,1.1
		c-1.7,0-2.8-1-3.5-2.9c-1,1.1-1.9,1.9-2.7,2.3C567.2,1081.9,566.2,1082.1,565.2,1082.1z M570.7,1077.3v-6.9
		c-0.6,0.2-1.4,0.6-2.5,0.9c-2,0.7-3.4,1.4-3.9,2.1s-0.9,1.6-0.9,2.8c0,1,0.3,1.9,0.9,2.6c0.6,0.7,1.3,1.1,2.2,1.1
		c0.8,0,1.6-0.2,2.4-0.7C569.7,1078.6,570.3,1078,570.7,1077.3z"/>
	<path class="st2" d="M619.9,1075.2v-9.6h-18v9.6c0,2,0.3,3.3,0.8,4.1s1.6,1.2,3,1.2v1h-12v-1c1.4,0,2.4-0.4,3-1.2
		c0.5-0.8,0.8-2.1,0.8-4.1v-20.6c0-2-0.3-3.4-0.8-4.2s-1.5-1.1-2.9-1.1v-1h12v1c-1.4,0-2.4,0.4-3,1.2c-0.6,0.8-0.8,2.2-0.8,4.1v9.4
		h18v-9.4c0-2-0.3-3.4-0.8-4.2c-0.5-0.7-1.5-1.1-2.9-1.1v-1h11.8v1c-1.4,0-2.4,0.4-2.9,1.2c-0.5,0.8-0.8,2.1-0.8,4.1v20.6
		c0,2,0.3,3.3,0.8,4.1c0.5,0.8,1.5,1.1,2.9,1.1v1h-11.8v-1c1.5,0,2.4-0.4,2.9-1.1C619.7,1078.6,619.9,1077.2,619.9,1075.2z"/>
	<path class="st2" d="M654.7,1071.3c0,3.1-1.1,5.7-3.2,7.7s-4.8,3.1-8,3.1s-5.9-1-8-3.1s-3.2-4.6-3.2-7.7c0-3.1,1.1-5.7,3.2-7.8
		c2.1-2.1,4.8-3.1,8-3.1c3.2,0,5.9,1,8,3.1S654.7,1068.2,654.7,1071.3z M650.4,1071.3c0-2.9-0.6-5.3-1.9-7.1
		c-1.2-1.8-2.9-2.7-5.1-2.7c-2.1,0-3.8,0.9-5.1,2.6c-1.2,1.8-1.9,4.1-1.9,7.1c0,2.9,0.6,5.3,1.8,7c1.2,1.8,2.9,2.6,5.1,2.6
		s3.9-0.9,5.1-2.7C649.8,1076.5,650.4,1074.2,650.4,1071.3z"/>
	<path class="st2" d="M664.4,1054.1h1v6.9h7.1v1.5h-7.1v13.2c0,1.4,0.3,2.4,1,3.2c0.6,0.7,1.6,1.1,2.7,1.1c1.4,0,2.7-0.7,3.8-2
		l0.6,0.8c-1.8,2.3-3.8,3.4-6.2,3.4c-1.7,0-3.2-0.6-4.3-1.7c-1.1-1.1-1.6-2.5-1.6-4.3v-13.7h-3.9v-1
		C660.4,1060,662.7,1057.6,664.4,1054.1z"/>
	<path class="st2" d="M695.1,1076.2v1.5c-1.2,1.6-2.5,2.7-3.8,3.4c-1.3,0.7-2.8,1-4.6,1c-3.2,0-5.8-1-7.9-3c-2.1-2-3.1-4.5-3.1-7.6
		c0-3.1,1-5.7,3-7.8s4.4-3.2,7.3-3.2c2.4,0,4.4,0.8,6.2,2.4c1.8,1.6,2.7,3.5,2.7,5.7v0.4h-15v0.3c0,2.3,0.3,4.2,1,5.9s1.7,3,3,3.9
		c1.3,0.9,2.7,1.4,4.1,1.4c1.3,0,2.5-0.3,3.4-0.8C692.3,1079.1,693.5,1077.9,695.1,1076.2z M679.7,1068h11.1v-0.4
		c0-1.8-0.5-3.3-1.6-4.3c-1-1.1-2.3-1.6-3.9-1.6c-1.7,0-3,0.6-4,1.7S679.8,1066,679.7,1068z"/>
	<path class="st2" d="M709.2,1080.5h0.5v1h-11.4v-1h1c1.1,0,1.8-0.3,2.1-0.8c0.4-0.5,0.6-1.6,0.6-3v-27c0-1.1-0.2-1.8-0.6-2.2
		c-0.4-0.4-1.1-0.6-2.1-0.6H698v-1l7.1-0.7h1v32.4c0,1.1,0.2,1.9,0.7,2.3C707.1,1080.3,708,1080.5,709.2,1080.5z"/>
</g>
<g class="st0">
	<path class="st3" d="M427.3,417.4c-13.4,14.7-24.5,31.1-34,48.2c-14.7,26.7-25.4,54.5-32.6,83.7c-0.7,3.1-1.7,6.1-2.8,8.8
		c-0.9,2.8-2.6,4-4.4,3.9c-2-0.2-3.5-1.5-4-4.2c-0.6-4.6-1.5-9.4-1.3-14c0.4-11.4,0.9-23,2-34.4c3.1-32.9,9.4-63.1,16.9-95.3
		c0.4-1.5,0.2-2.9,0.2-4.4c-0.2-2,0.6-3.7,2.2-5c1.8-1.3,4.6-0.2,4.8,2c0.2,1.8-0.2,3.7-0.6,5.3c-2.6,12.1-5.3,22.1-7.9,34.2
		c-4.4,21.9-7.7,44-9.9,66.1c-0.9,11.2-2,22.3-1.7,33.5c0,0.7,0,1.5,0,2.2c0.2,0,0.4,0,0.6,0c0.6-2.4,1.1-5,1.8-7.4
		c10.3-38.6,26.7-74.9,50.4-107.8c5.3-7.2,11.4-14,17.3-20.8c1.3-1.8,3.1-3.3,5-4.8c0.7-0.7,1.8-1.3,2.9-1.7c3.5-1.7,7,0.2,7.2,3.9
		c0,3.3-0.4,6.6-1.3,9.8c-3.7,13.3-7.5,26.7-11.2,39.9c-4.4,15.8-9.2,31.5-12,47.7c-1.3,7.2-1.8,14.5-2.8,21.7c0,0.6,0,1.3,0,1.8
		c0.2,0,0.4,0,0.6,0.2c0.7-2.2,1.5-4.2,2.2-6.4c4.2-11.8,8.3-23.7,14.2-35c6.3-12.1,14.2-23.4,23.7-33.5c1.8-1.8,3.9-3.5,5.9-5.3
		c0.7-0.6,1.5-0.9,2.2-1.3c3.9-2,7.5-0.9,9.4,2.9c1.7,3.3,2,6.8,2,10.3c0.2,9.6,0.2,18.8,0.4,28.2c0.4,10.5,0.9,21,3.7,31.1
		c0.6,1.8,1.1,3.5,1.8,5.3c0.4-0.2,0.7-0.2,1.1-0.4c2.2-0.7,4.4,0.9,4,3.3c-0.4,1.5-0.6,2.9-0.9,4.4c-0.4,1.5-0.9,2.6-2.6,2.9
		s-3.1-0.4-3.9-1.7c-1.7-3.5-3.7-7-4.8-10.7c-3.3-9.8-4-20.1-4.4-30.2c-0.4-9.6-0.2-19.1-0.4-28.7c-0.2-3.3-0.7-6.6-1.1-9.9
		c0-0.7-0.4-1.5-0.7-2.4c-1.1,0.7-2,1.1-2.8,1.7c-5.7,4.8-10.3,10.5-14.7,16.4c-10.3,13.4-17.3,28.3-22.8,44
		c-2,6.1-4.4,12.3-6.6,18.4c-0.6,1.5-1.5,2.9-2.4,4.4c-1.1,1.7-2.6,2.6-4.6,2.2c-2.2-0.2-3.3-1.7-3.7-3.5c-0.4-2.4-0.9-4.8-0.9-7.2
		c-0.2-8.1,1.3-16.2,2.8-24.1c4.2-21.9,10.7-43.2,16.9-64.8c2.6-8.6,4.8-17.3,7-25.9c0.4-1.1,0.4-2,0.7-3.5
		C431.2,413.8,429,415.6,427.3,417.4z"/>
	<path class="st3" d="M526,496.6c-0.6,1.1-1.7,1.8-2.4,2.6c-3.5,3.5-7.2,6.6-10.9,9.6c-4.2,3.1-8.5,6.3-13.3,8.1
		c-6.8,2.6-12.7-0.9-13.8-8.1c-0.4-1.5-0.6-2.9-0.4-4.4c0-0.9,0.2-1.7,0.2-2.6c0-0.7-0.2-1.7-0.4-2.2c-0.4-1.3-0.2-2.4,0.6-3.5
		c0.7-1.1,1.5-2.2,1.8-3.5c1.8-6.1,4-12,7.4-17.5c1.3-2.2,2.9-4.4,5-6.1c2.6-2.2,6.3-1.5,7.4,1.5c0.6,1.3,0.7,3.1,0.2,4.4
		c-0.6,2.2-1.5,4.2-2.8,6.1c-3.5,5-7.2,9.9-10.9,14.7c-1.1,1.5-2.2,2.8-2.2,4.6c-0.2,2.6-0.6,5.2-0.2,7.5c0.4,3.7,2.9,5.2,6.3,3.7
		c9.2-4.4,17.1-11.6,24.5-18.4c1.1-1.1,2.9-3.1,4.2-1.5C527.1,493.3,526.9,495.1,526,496.6z"/>
	<path class="st3" d="M570.9,499.3c2.6-3.3,4.4-9,7.4-8.3c1.5,0.4,1.3,2.8,0.6,4.4c-1.7,4-5.2,9.4-8.5,12.5c-0.7,0.7-2,1.5-3.1,1.5
		c-3.1,0.6-5.3-1.3-7-3.7c-2.6-3.9-3.5-8.3-4.2-12.9c-0.7-5.9-1.3-11.8-2-17.7c-0.2-1.8-0.7-3.5-1.1-5.3c-0.4,0-0.6-0.2-0.7-0.2
		c-0.9,1.1-1.8,2-2.6,3.1c-4,5.3-7,11.2-9.4,17.3c-3.7,9.4-6.8,19-10.3,28.3c-0.4,1.3-0.9,2.6-1.7,3.7c-0.7,1.3-1.8,2-3.5,1.7
		s-2.4-1.5-2.4-2.9c-0.2-2.4-0.2-4.6-0.2-6.8c1.1-22.3,2.8-44.4,5.9-66.6c0-0.7,0-1.3-0.9-1.8c-1.3-0.7-1.3-2.2-1.5-3.5
		c-0.9-8.5,0.9-16.6,3.9-24.5c1.5-3.9,2.9-7.7,4.6-11.4c0.2-0.6,0.4-0.9,0.7-1.3c0.7-1.1,1.7-1.7,2.9-1.3c1.3,0.2,2.2,1.1,2.2,2.4
		c0,1.7-0.2,3.3-0.4,4.8c-5.9,30.5-9.4,61.5-11.2,92.4c0,0.2,0,0.4,0.4,0.6c0.2-0.6,0.4-1.1,0.6-1.7c3.3-9.6,7.2-18.8,12.3-27.6
		c1.5-2.4,3.3-4.8,5-7c0.4-0.7,1.1-1.3,1.7-1.8c3.7-2.9,7.9-2,9.6,2.2c1.1,3.3,1.7,6.8,2.2,10.1c0.9,6.3,1.7,12.5,2.6,18.8
		c0.4,1.5,0.7,2.9,1.5,4.2c0.4,0.6,1.1,1.8,2.2,3.1C568.1,503.2,570,500.8,570.9,499.3z"/>
	<path class="st3" d="M613.4,496.6c-0.6,1.1-1.7,1.8-2.4,2.6c-3.5,3.5-7.2,6.6-10.9,9.6c-4.2,3.1-8.5,6.3-13.3,8.1
		c-6.8,2.6-12.7-0.9-13.8-8.1c-0.4-1.5-0.6-2.9-0.4-4.4c0-0.9,0.2-1.7,0.2-2.6c0-0.7-0.2-1.7-0.4-2.2c-0.4-1.3-0.2-2.4,0.6-3.5
		c0.7-1.1,1.5-2.2,1.8-3.5c1.8-6.1,4-12,7.4-17.5c1.3-2.2,2.9-4.4,5-6.1c2.6-2.2,6.3-1.5,7.4,1.5c0.6,1.3,0.7,3.1,0.2,4.4
		c-0.6,2.2-1.5,4.2-2.8,6.1c-3.5,5-7.2,9.9-10.9,14.7c-1.1,1.5-2.2,2.8-2.2,4.6c-0.2,2.6-0.6,5.2-0.2,7.5c0.4,3.7,2.9,5.2,6.3,3.7
		c9.2-4.4,17.1-11.6,24.5-18.4c1.1-1.1,2.9-3.1,4.2-1.5C614.5,493.3,614.3,495.1,613.4,496.6z"/>
	<path class="st3" d="M639,478.3c-9,10.1-16.6,21.2-22.1,33.7c-0.9,2-1.8,4-2.8,6.1c-0.6,0.7-0.9,1.5-1.5,2.2
		c-0.9,1.3-2.2,2.2-3.9,1.8c-1.8-0.4-2.8-1.7-2.8-3.3c-0.2-2.8-0.4-5.5,0.2-8.1c1.8-8.7,4-17.1,6.3-25.6c0.2-1.1,0.6-2.2,0.9-3.3
		c0.4-1.3,0.7-2.6-0.2-3.9c-0.4-0.6-0.2-1.7,0.2-2.4c1.1-3.5,2.4-7,3.7-10.5c0.7-1.8,2.2-2.6,3.7-2c1.5,0.4,2.6,1.8,2,3.7
		c-1.8,7.7-3.9,15.3-5.7,23c-1.3,5.2-2.8,10.3-4,15.5c-0.2,0.6-0.4,1.3-0.2,2c0.2-0.6,0.6-1.1,0.7-1.5c6.1-12.1,13.6-23.2,23-32.9
		c0.9-1.1,2.2-2.2,3.3-2.9c2.8-1.7,5.7-0.6,6.3,2.6c0.6,2.4,0.6,5,0.2,7.5c-0.6,5.9-1.7,11.8-2.2,17.7c-0.2,1.7,0,3.5,0.2,5.3
		c0.2,2,0.4,4,1.1,5.9c4.6-3.1,8.5-8.6,11.4-13.1c0.6-0.9,1.1-1.8,1.7-2.6c2-3.1,3.5-3.5,4.8-2.6c1.3,0.9,1.1,3.9,0,5.5
		c-3.1,4.6-5,7.5-8.5,11.8c-1.7,2-3.3,3.1-5.2,4.8c-3.9,3.1-7.9,2-9.8-2.6c-1.8-4.4-1.8-9-1.5-13.6c0.6-5.9,1.7-11.6,2.4-17.5
		c0-0.7,0-2-0.2-2.4C640.1,477.2,639.5,477.8,639,478.3z"/>
	<path class="st3" d="M710,409.7c-0.2,2.6-0.4,5.2-1.1,7.7c-2.4,7.7-4.6,15.5-7.4,23c-2.8,7.2-4.6,14.7-5.7,22.3
		c-2.4,15.5-4.6,30.7-6.4,46c-1.5,11.4-2,22.8-1.1,34.2c0.2,1.3,0.4,2.8,0.6,4.2c0.4-0.2,0.6-0.4,0.7-0.6c0.9-0.2,2.2-0.7,2.9-0.4
		c0.7,0.4,1.7,1.5,1.7,2.4c0,2.8-0.7,5.5-2.4,7.7c-1.7,2.6-5.2,2.2-6.3-0.6c-1.3-2.8-2-5.7-2.4-8.5c-1.5-9.6-1.3-19-0.4-28.5
		c1.3-13.6,3.1-27.1,4.6-40.7c0-0.4,0-0.7-0.2-1.1c-0.4,0.6-0.6,1.3-0.9,1.8c-3.9,7.7-7.5,15.8-11.8,23.6c-1.8,3.1-4.4,6.1-7,8.8
		c-2,2-4.4,3.1-7.4,1.8c-3.7-1.7-2.4-10.3-2.4-10.3c2.2-12.1,5.7-22.5,12.1-32.9c0.9-1.5,2-2.8,3.3-4c4-4.4,7.9-4.6,12.3-0.2
		c0.4-0.6,0.6-0.9,0.7-1.5c1.8-4.6,3.9-9,5.3-13.8c1.7-5,2.6-10.1,3.9-15.3c1.8-7.4,3.9-14.7,5.9-21.9c0.4-1.8,1.3-3.7,2.2-5.3
		c1.1-1.7,2.6-2.2,4-1.8C709.1,406.4,710.2,407.9,710,409.7z M681.3,469.9c-0.9-2-2-2.4-3.5-0.7c-1.7,1.8-3.1,3.7-4.4,5.9
		c-4.4,7.5-7.4,15.8-9.4,24.5c-0.2,0.7-2,7.7-0.7,7.9c0.6,0,1.7-1.5,2-1.8c1.5-1.8,2.8-3.7,4-5.5c4.8-7.7,8.5-16,12.1-24.3
		C682.4,473.7,682.2,471.9,681.3,469.9z"/>
	<path class="st3" d="M735.8,495.5c-1.3,1.7-7,9-15.8,17.1c-2.2,2-4.6,3.5-7.2,5.2c-1.1,0.9-2.6,1.3-4,1.7c-3.1,0.6-5.7-1.1-7.2-4.2
		c-1.1-2.6-1.5-6.3-0.9-12c0.7-6.1,2.4-13.1,5.2-19.9c0.6-1.5,1.5-3.1,2.6-4.4c1.3-1.7,3.5-1.8,4.6-0.6c1.5,1.3,1.3,3.1-0.4,4.6
		c-0.6,0.4-0.9,0.9-1.1,1.5c-3.3,7.9-5.5,16-5.3,24.7c0,1.3,0.4,2.4,0.6,3.5c0.7,3.1,6.8-1.7,7.7-2.8c3.3-3.3,6.1-5.7,9.2-9.2
		c5.3-6.1,3.5-3.5,8.8-9.8c1.3-1.7,2.8-2,4.2-1.1C738,490.7,737.1,494,735.8,495.5z M713.5,464c1.1-3.1,1.5-5,2.8-8.1
		c0.6-1.7,2.4-2,3.7-1.5c1.5,0.6,1.8,2,1.3,3.9c-0.7,2.4-0.7,3.1-1.7,5.5c-0.2,0.7-0.6,1.7-1.1,2.2c-0.7,1.1-1.8,1.5-3.1,0.9
		C714.2,466.4,713.1,465.3,713.5,464z"/>
</g>
<g>
	<g>
		<path class="st2" d="M409.9,1058.6c0,2-0.5,3.9-1.5,5.7c-3.1,5.4-6.2,10.8-9.3,16.1c-0.4,0.8-1.2,0.8-1.7,0
			c-3.1-5.4-6.3-10.8-9.3-16.2c-4-7.1,0.5-16.1,8.6-17.1c6.5-0.9,12.4,3.8,13.1,10.3C409.9,1057.8,409.9,1058.2,409.9,1058.6
			 M398.3,1064.5c3.6,0,6.5-2.9,6.5-6.5s-2.9-6.5-6.5-6.5s-6.5,2.9-6.5,6.5S394.7,1064.5,398.3,1064.5"/>
	</g>
	<g>
		<polygon class="st4" points="270,1001 337.6,1000.5 405.3,1000.2 540.5,1000 675.8,1000.2 743.4,1000.5 811,1001 743.4,1001.5 
			675.8,1001.8 540.5,1002 405.3,1001.8 337.6,1001.5 		"/>
	</g>
</g>
<g>
	<g>
		<defs>
			<path id="SVGID_1_" d="M480.9,206.2l-5,7.2l-5-7.2c-0.2-0.4-0.6-0.5-1-0.5c-0.3,0-0.6,0.1-0.7,0.3c-0.2,0.2-0.3,0.5-0.3,0.8
				c0,0.2,0.1,0.4,0.2,0.6l5.7,8v6.1c0,0.3,0.1,0.6,0.3,0.8c0.2,0.2,0.5,0.3,0.8,0.3s0.6-0.1,0.8-0.3c0.2-0.2,0.3-0.5,0.3-0.8v-6.1
				l5.7-8c0.1-0.2,0.2-0.4,0.2-0.6c0-0.3-0.1-0.6-0.3-0.8c-0.2-0.2-0.5-0.3-0.8-0.3C481.5,205.6,481.2,205.8,480.9,206.2"/>
		</defs>
		<clipPath id="SVGID_2_">
			<use xlink:href="#SVGID_1_"  style="overflow:visible;"/>
		</clipPath>
		
			<linearGradient id="SVGID_3_" gradientUnits="userSpaceOnUse" x1="37.1319" y1="-492.9886" x2="38.1319" y2="-492.9886" gradientTransform="matrix(13.9467 0 0 13.9467 -48.868 7089.564)">
			<stop  offset="0" style="stop-color:#D79617"/>
			<stop  offset="0" style="stop-color:#B46A11"/>
			<stop  offset="0.3198" style="stop-color:#D68D15"/>
			<stop  offset="0.6802" style="stop-color:#E7AC18"/>
			<stop  offset="1" style="stop-color:#F8C73D"/>
		</linearGradient>
		<rect x="469" y="205.6" class="st5" width="14" height="16.8"/>
	</g>
	<g>
		<defs>
			<path id="SVGID_4_" d="M485.7,213.3c0.3-0.5,0.8-0.9,1.3-1.2c0.5-0.2,1.1-0.4,1.6-0.4s1.1,0.1,1.6,0.4c0.5,0.2,1,0.6,1.3,1.2
				c0.4,0.5,0.6,1.2,0.6,2h-7C485.2,214.5,485.4,213.8,485.7,213.3 M485.4,210.8c-0.9,0.6-1.5,1.4-1.9,2.3c-0.4,1-0.6,2-0.6,3.1
				c0,2,0.5,3.5,1.6,4.7c1.1,1.1,2.6,1.7,4.5,1.7c1,0,1.7-0.1,2.3-0.3c0.6-0.2,1.2-0.4,1.8-0.8c0.4-0.2,0.6-0.5,0.6-0.9
				c0-0.3-0.1-0.5-0.3-0.7c-0.2-0.2-0.4-0.3-0.7-0.3c-0.2,0-0.3,0-0.4,0.1c-0.5,0.2-1,0.4-1.5,0.5s-1.1,0.2-1.7,0.2
				c-1.3,0-2.2-0.3-2.9-0.9c-0.7-0.6-1.1-1.5-1.2-2.6h8.1c0.3,0,0.6-0.1,0.8-0.3c0.2-0.2,0.3-0.5,0.3-0.8c0-1.1-0.2-2.1-0.7-3
				c-0.4-0.9-1.1-1.6-2-2.2c-0.9-0.5-1.9-0.8-3-0.8C487.4,210,486.3,210.3,485.4,210.8"/>
		</defs>
		<clipPath id="SVGID_5_">
			<use xlink:href="#SVGID_4_"  style="overflow:visible;"/>
		</clipPath>
		
			<linearGradient id="SVGID_6_" gradientUnits="userSpaceOnUse" x1="36.4763" y1="-500.5134" x2="37.4763" y2="-500.5134" gradientTransform="matrix(11.3518 0 0 11.3518 68.849 5898.0283)">
			<stop  offset="0" style="stop-color:#D79617"/>
			<stop  offset="0" style="stop-color:#B46A11"/>
			<stop  offset="0.3198" style="stop-color:#D68D15"/>
			<stop  offset="0.6802" style="stop-color:#E7AC18"/>
			<stop  offset="1" style="stop-color:#F8C73D"/>
		</linearGradient>
		<rect x="482.9" y="210" class="st6" width="11.4" height="12.6"/>
	</g>
	<g>
		<defs>
			<path id="SVGID_7_" d="M497.4,205.2c-0.2,0.2-0.3,0.5-0.3,0.8v15.4c0,0.3,0.1,0.6,0.3,0.8c0.2,0.2,0.5,0.3,0.8,0.3
				s0.6-0.1,0.8-0.3c0.2-0.2,0.3-0.5,0.3-0.8v-7.1c0.6-0.7,1.1-1.3,1.8-1.7c0.6-0.4,1.3-0.6,2.1-0.6c1.7,0,2.6,1,2.6,2.9v6.5
				c0,0.3,0.1,0.6,0.3,0.8c0.2,0.2,0.5,0.3,0.8,0.3s0.6-0.1,0.8-0.3c0.2-0.2,0.3-0.5,0.3-0.8v-6.8c0-0.9-0.2-1.6-0.5-2.4
				c-0.3-0.7-0.8-1.3-1.5-1.7c-0.6-0.4-1.4-0.6-2.3-0.6c-1,0-1.8,0.2-2.5,0.6c-0.7,0.4-1.3,0.9-2,1.6v-6.2c0-0.3-0.1-0.6-0.3-0.8
				c-0.2-0.2-0.5-0.3-0.8-0.3C497.9,204.9,497.6,205,497.4,205.2"/>
		</defs>
		<clipPath id="SVGID_8_">
			<use xlink:href="#SVGID_7_"  style="overflow:visible;"/>
		</clipPath>
		
			<linearGradient id="SVGID_9_" gradientUnits="userSpaceOnUse" x1="36.314" y1="-502.3811" x2="37.3141" y2="-502.3811" gradientTransform="matrix(10.8519 0 0 10.8519 103.0515 5665.4897)">
			<stop  offset="0" style="stop-color:#D79617"/>
			<stop  offset="0" style="stop-color:#B46A11"/>
			<stop  offset="0.3198" style="stop-color:#D68D15"/>
			<stop  offset="0.6802" style="stop-color:#E7AC18"/>
			<stop  offset="1" style="stop-color:#F8C73D"/>
		</linearGradient>
		<rect x="497.1" y="204.9" class="st7" width="10.9" height="17.6"/>
	</g>
	<g>
		<defs>
			<path id="SVGID_10_" d="M511.9,210.4c-0.2,0.2-0.3,0.5-0.3,0.8v10.2c0,0.3,0.1,0.6,0.3,0.8s0.5,0.3,0.8,0.3s0.6-0.1,0.8-0.3
				s0.3-0.5,0.3-0.8v-10.2c0-0.3-0.1-0.6-0.3-0.8s-0.5-0.3-0.8-0.3C512.4,210.1,512.1,210.2,511.9,210.4 M512.6,205.2
				c-0.3,0-0.6,0.1-0.9,0.4c-0.2,0.2-0.4,0.5-0.4,0.9v0.1c0,0.3,0.1,0.6,0.4,0.9c0.2,0.2,0.5,0.4,0.9,0.4h0.1c0.3,0,0.6-0.1,0.9-0.4
				s0.4-0.5,0.4-0.9v-0.1c0-0.3-0.1-0.6-0.4-0.9C513.4,205.4,513.1,205.2,512.6,205.2L512.6,205.2z"/>
		</defs>
		<clipPath id="SVGID_11_">
			<use xlink:href="#SVGID_10_"  style="overflow:visible;"/>
		</clipPath>
		
			<linearGradient id="SVGID_12_" gradientUnits="userSpaceOnUse" x1="24.4339" y1="-639.0287" x2="25.434" y2="-639.0287" gradientTransform="matrix(2.5697 0 0 2.5697 448.6423 1855.9622)">
			<stop  offset="0" style="stop-color:#D79617"/>
			<stop  offset="0" style="stop-color:#B46A11"/>
			<stop  offset="0.3198" style="stop-color:#D68D15"/>
			<stop  offset="0.6802" style="stop-color:#E7AC18"/>
			<stop  offset="1" style="stop-color:#F8C73D"/>
		</linearGradient>
		<rect x="511.4" y="205.2" class="st8" width="2.6" height="17.3"/>
	</g>
	<g>
		<defs>
			<path id="SVGID_13_" d="M563.1,250.7c-0.3,0-0.6,0.1-0.8,0.3s-0.3,0.5-0.3,0.8v14.6c0,0.3,0.1,0.6,0.3,0.8
				c0.2,0.2,0.5,0.3,0.8,0.3s0.6-0.1,0.8-0.3c0.2-0.2,0.3-0.5,0.3-0.8V260h7.4c0.3,0,0.5-0.1,0.7-0.3c0.2-0.2,0.3-0.4,0.3-0.7
				s-0.1-0.5-0.3-0.7s-0.4-0.3-0.7-0.3h-7.4v-5.3h8.2c0.3,0,0.5-0.1,0.7-0.3s0.3-0.4,0.3-0.7s-0.1-0.5-0.3-0.7s-0.4-0.3-0.7-0.3
				H563.1z"/>
		</defs>
		<clipPath id="SVGID_14_">
			<use xlink:href="#SVGID_13_"  style="overflow:visible;"/>
		</clipPath>
		
			<linearGradient id="SVGID_15_" gradientUnits="userSpaceOnUse" x1="36.4926" y1="-500.3522" x2="37.4925" y2="-500.3522" gradientTransform="matrix(11.4011 0 0 11.4011 145.9447 5963.665)">
			<stop  offset="0" style="stop-color:#D79617"/>
			<stop  offset="0" style="stop-color:#B46A11"/>
			<stop  offset="0.3198" style="stop-color:#D68D15"/>
			<stop  offset="0.6802" style="stop-color:#E7AC18"/>
			<stop  offset="1" style="stop-color:#F8C73D"/>
		</linearGradient>
		<rect x="562" y="250.7" class="st9" width="11.4" height="16.8"/>
	</g>
	<g>
		<defs>
			<path id="SVGID_16_" d="M578.6,265.2c-0.6-0.3-1.1-0.8-1.5-1.4c-0.4-0.7-0.6-1.5-0.6-2.5s0.2-1.8,0.6-2.5
				c0.4-0.7,0.9-1.1,1.5-1.4s1.2-0.4,1.9-0.4s1.3,0.1,1.9,0.4c0.6,0.3,1.1,0.8,1.5,1.4c0.4,0.7,0.6,1.5,0.6,2.5s-0.2,1.8-0.6,2.5
				c-0.4,0.7-0.9,1.1-1.5,1.4s-1.2,0.5-1.9,0.5C579.8,265.6,579.2,265.5,578.6,265.2 M577.3,255.7c-0.9,0.5-1.6,1.3-2.1,2.2
				c-0.5,1-0.8,2.1-0.8,3.3c0,1.2,0.3,2.3,0.8,3.3s1.2,1.7,2.1,2.2c0.9,0.5,2,0.8,3.2,0.8s2.3-0.3,3.2-0.8s1.6-1.3,2.2-2.2
				c0.5-1,0.8-2.1,0.8-3.3c0-1.2-0.3-2.3-0.8-3.3s-1.2-1.7-2.2-2.2c-0.9-0.5-2-0.8-3.2-0.8C579.3,255,578.2,255.2,577.3,255.7"/>
		</defs>
		<clipPath id="SVGID_17_">
			<use xlink:href="#SVGID_16_"  style="overflow:visible;"/>
		</clipPath>
		
			<linearGradient id="SVGID_18_" gradientUnits="userSpaceOnUse" x1="36.7319" y1="-497.5786" x2="37.7319" y2="-497.5786" gradientTransform="matrix(12.2376 0 0 12.2376 124.89 6350.5176)">
			<stop  offset="0" style="stop-color:#D79617"/>
			<stop  offset="0" style="stop-color:#B46A11"/>
			<stop  offset="0.3198" style="stop-color:#D68D15"/>
			<stop  offset="0.6802" style="stop-color:#E7AC18"/>
			<stop  offset="1" style="stop-color:#F8C73D"/>
		</linearGradient>
		<rect x="574.4" y="255" class="st10" width="12.2" height="12.7"/>
	</g>
	<g>
		<defs>
			<path id="SVGID_19_" d="M595.6,255c-1.4,0-2.6,0.7-3.8,2.2v-1c0-0.3-0.1-0.6-0.3-0.8s-0.5-0.3-0.8-0.3s-0.6,0.1-0.8,0.3
				s-0.3,0.5-0.3,0.8v10.3c0,0.3,0.1,0.6,0.3,0.8c0.2,0.2,0.5,0.3,0.8,0.3s0.6-0.1,0.8-0.3c0.2-0.2,0.3-0.5,0.3-0.8v-7.3
				c0.4-0.7,1-1.2,1.6-1.5c0.6-0.4,1.3-0.6,2.1-0.6h0.1c0.3,0,0.6-0.1,0.8-0.3c0.2-0.2,0.3-0.4,0.3-0.7c0-0.3-0.1-0.6-0.3-0.8
				S596,255,595.6,255L595.6,255z"/>
		</defs>
		<clipPath id="SVGID_20_">
			<use xlink:href="#SVGID_19_"  style="overflow:visible;"/>
		</clipPath>
		
			<linearGradient id="SVGID_21_" gradientUnits="userSpaceOnUse" x1="34.3651" y1="-524.79" x2="35.3653" y2="-524.79" gradientTransform="matrix(7.0987 0 0 7.0987 345.7192 3986.5767)">
			<stop  offset="0" style="stop-color:#D79617"/>
			<stop  offset="0" style="stop-color:#B46A11"/>
			<stop  offset="0.3198" style="stop-color:#D68D15"/>
			<stop  offset="0.6802" style="stop-color:#E7AC18"/>
			<stop  offset="1" style="stop-color:#F8C73D"/>
		</linearGradient>
		<rect x="589.7" y="255" class="st11" width="7.1" height="12.5"/>
	</g>
	<g>
		<defs>
			<path id="SVGID_22_" d="M600.5,258.3c0.4-0.5,0.8-0.9,1.3-1.2c0.5-0.2,1.1-0.4,1.6-0.4s1.1,0.1,1.6,0.4c0.5,0.2,1,0.6,1.3,1.2
				c0.4,0.5,0.6,1.2,0.6,2h-7.1C600,259.5,600.2,258.9,600.5,258.3 M600.3,255.8c-0.9,0.6-1.5,1.4-1.9,2.3c-0.4,1-0.6,2-0.6,3.1
				c0,2,0.5,3.6,1.6,4.7s2.6,1.7,4.6,1.7c1,0,1.7-0.1,2.3-0.3c0.6-0.2,1.2-0.4,1.8-0.8c0.4-0.2,0.6-0.5,0.6-0.9
				c0-0.3-0.1-0.5-0.3-0.7s-0.4-0.3-0.7-0.3c-0.2,0-0.3,0-0.4,0.1c-0.5,0.2-1,0.4-1.5,0.6c-0.5,0.1-1.1,0.2-1.8,0.2
				c-1.3,0-2.2-0.3-2.9-0.9s-1.1-1.5-1.2-2.6h8.1c0.3,0,0.6-0.1,0.8-0.3c0.2-0.2,0.3-0.5,0.3-0.8c0-1.1-0.2-2.1-0.7-3
				c-0.4-0.9-1.1-1.7-2-2.2c-0.9-0.6-1.9-0.8-3.1-0.8C602.2,255,601.1,255.3,600.3,255.8"/>
		</defs>
		<clipPath id="SVGID_23_">
			<use xlink:href="#SVGID_22_"  style="overflow:visible;"/>
		</clipPath>
		
			<linearGradient id="SVGID_24_" gradientUnits="userSpaceOnUse" x1="36.4919" y1="-500.3433" x2="37.4917" y2="-500.3433" gradientTransform="matrix(11.4022 0 0 11.4022 181.6335 5966.3647)">
			<stop  offset="0" style="stop-color:#D79617"/>
			<stop  offset="0" style="stop-color:#B46A11"/>
			<stop  offset="0.3198" style="stop-color:#D68D15"/>
			<stop  offset="0.6802" style="stop-color:#E7AC18"/>
			<stop  offset="1" style="stop-color:#F8C73D"/>
		</linearGradient>
		<rect x="597.7" y="255" class="st12" width="11.4" height="12.7"/>
	</g>
	<g>
		<defs>
			<path id="SVGID_25_" d="M620.4,255.3c-0.2,0.1-0.3,0.3-0.4,0.4l-3.7,9.3l-3.7-9.3c-0.1-0.2-0.2-0.3-0.4-0.4
				c-0.2-0.1-0.4-0.2-0.6-0.2c-0.3,0-0.6,0.1-0.8,0.3s-0.3,0.5-0.3,0.8c0,0.1,0,0.3,0.1,0.5l4.2,9.9c0.1,0.3,0.3,0.5,0.5,0.6
				c0.2,0.2,0.5,0.3,0.8,0.3h0.2c0.3,0,0.5-0.1,0.8-0.3c0.2-0.2,0.4-0.4,0.5-0.6l4.2-9.9c0.1-0.2,0.1-0.4,0.1-0.5
				c0-0.3-0.1-0.6-0.3-0.8s-0.5-0.3-0.8-0.3C620.7,255.1,620.6,255.1,620.4,255.3"/>
		</defs>
		<clipPath id="SVGID_26_">
			<use xlink:href="#SVGID_25_"  style="overflow:visible;"/>
		</clipPath>
		
			<linearGradient id="SVGID_27_" gradientUnits="userSpaceOnUse" x1="36.4986" y1="-500.2614" x2="37.4987" y2="-500.2614" gradientTransform="matrix(11.4254 0 0 11.4254 193.5886 5976.9868)">
			<stop  offset="0" style="stop-color:#D79617"/>
			<stop  offset="0" style="stop-color:#B46A11"/>
			<stop  offset="0.3198" style="stop-color:#D68D15"/>
			<stop  offset="0.6802" style="stop-color:#E7AC18"/>
			<stop  offset="1" style="stop-color:#F8C73D"/>
		</linearGradient>
		<rect x="610.6" y="255.1" class="st13" width="11.4" height="12.4"/>
	</g>
	<g>
		<defs>
			<path id="SVGID_28_" d="M626.4,258.3c0.3-0.5,0.8-0.9,1.3-1.2c0.5-0.2,1.1-0.4,1.6-0.4s1.1,0.1,1.6,0.4c0.5,0.2,1,0.6,1.3,1.2
				c0.4,0.5,0.6,1.2,0.6,2h-7.1C625.9,259.5,626.1,258.9,626.4,258.3 M626.2,255.8c-0.9,0.6-1.5,1.4-1.9,2.3c-0.4,1-0.6,2-0.6,3.1
				c0,2,0.5,3.6,1.6,4.7s2.6,1.7,4.6,1.7c1,0,1.7-0.1,2.3-0.3c0.6-0.2,1.2-0.4,1.8-0.8c0.4-0.2,0.6-0.5,0.6-0.9
				c0-0.3-0.1-0.5-0.3-0.7s-0.4-0.3-0.7-0.3c-0.2,0-0.3,0-0.4,0.1c-0.5,0.2-1,0.4-1.5,0.6c-0.5,0.1-1.1,0.2-1.8,0.2
				c-1.3,0-2.2-0.3-2.9-0.9s-1.1-1.5-1.2-2.6h8.1c0.3,0,0.6-0.1,0.8-0.3c0.2-0.2,0.3-0.5,0.3-0.8c0-1.1-0.2-2.1-0.7-3
				c-0.4-0.9-1.1-1.7-2-2.2c-0.9-0.6-1.9-0.8-3.1-0.8C628.1,255,627,255.3,626.2,255.8"/>
		</defs>
		<clipPath id="SVGID_29_">
			<use xlink:href="#SVGID_28_"  style="overflow:visible;"/>
		</clipPath>
		
			<linearGradient id="SVGID_30_" gradientUnits="userSpaceOnUse" x1="36.492" y1="-500.3433" x2="37.4918" y2="-500.3433" gradientTransform="matrix(11.4022 0 0 11.4022 207.5432 5966.3647)">
			<stop  offset="0" style="stop-color:#D79617"/>
			<stop  offset="0" style="stop-color:#B46A11"/>
			<stop  offset="0.3198" style="stop-color:#D68D15"/>
			<stop  offset="0.6802" style="stop-color:#E7AC18"/>
			<stop  offset="1" style="stop-color:#F8C73D"/>
		</linearGradient>
		<rect x="623.6" y="255" class="st14" width="11.4" height="12.7"/>
	</g>
	<g>
		<defs>
			<path id="SVGID_31_" d="M643.8,255c-1.4,0-2.6,0.7-3.8,2.2v-1c0-0.3-0.1-0.6-0.3-0.8s-0.5-0.3-0.8-0.3s-0.6,0.1-0.8,0.3
				s-0.3,0.5-0.3,0.8v10.3c0,0.3,0.1,0.6,0.3,0.8c0.2,0.2,0.5,0.3,0.8,0.3s0.6-0.1,0.8-0.3c0.2-0.2,0.3-0.5,0.3-0.8v-7.3
				c0.4-0.7,1-1.2,1.6-1.5c0.6-0.4,1.3-0.6,2.1-0.6h0.1c0.3,0,0.6-0.1,0.8-0.3c0.2-0.2,0.3-0.4,0.3-0.7c0-0.3-0.1-0.6-0.3-0.8
				S644.1,255,643.8,255L643.8,255z"/>
		</defs>
		<clipPath id="SVGID_32_">
			<use xlink:href="#SVGID_31_"  style="overflow:visible;"/>
		</clipPath>
		
			<linearGradient id="SVGID_33_" gradientUnits="userSpaceOnUse" x1="34.365" y1="-524.79" x2="35.3652" y2="-524.79" gradientTransform="matrix(7.0987 0 0 7.0987 393.9533 3986.5767)">
			<stop  offset="0" style="stop-color:#D79617"/>
			<stop  offset="0" style="stop-color:#B46A11"/>
			<stop  offset="0.3198" style="stop-color:#D68D15"/>
			<stop  offset="0.6802" style="stop-color:#E7AC18"/>
			<stop  offset="1" style="stop-color:#F8C73D"/>
		</linearGradient>
		<rect x="637.9" y="255" class="st15" width="7.1" height="12.5"/>
	</g>
	<linearGradient id="SVGID_34_" gradientUnits="userSpaceOnUse" x1="452.8119" y1="233.1982" x2="628.3907" y2="233.1982">
		<stop  offset="0" style="stop-color:#B76D11"/>
		<stop  offset="1" style="stop-color:#F7C53B"/>
	</linearGradient>
	<path class="st16" d="M516.7,306.6c0,0,6.4-8.2,6.4-49.6v-71.8c0,0-1.1-29.8,25.1-44.4c26.2-14.6,64.3-6.1,76.8,28
		c12.5,34-13.2,56.3-13.2,56.3s-14.3,15-33,15h-20.1v39.9c0,0,0.7,32.6-28.7,46.7c-29.4,14.1-57-1.2-65.8-13.9
		c-8.7-12.7-11.4-22.6-11.4-32.6c0-10,3.4-28.9,19.1-41.3c15.7-12.5,36.2-11.9,43.7-10.5v10.5c0,0-20-1.2-32.6,7.5
		c-12.6,8.7-17.8,19.8-17.8,36.9s17,36.9,42.9,36.9c18.2,0,28.8-15.1,28.8-15.1s8.2-8,8.2-27.3s0-91.4,0-91.4s-0.7-19.8,20.1-27.3
		c0,0-6.7,11.3-6.7,25.9s0,41.5,0,41.5h19.7c0,0,36.1-3,36.1-39.3s-33.1-40.5-39.9-40.5s-16.8,2.1-24,8.7
		c-7.2,6.5-14.9,15.4-14.9,27.3c0,11.9,0,42.2,0,42.2s1.4,2.9,4.6,5.2c0,0-0.6,11.2-4.7,16.8v30.7
		C535.3,277.4,536.3,298.9,516.7,306.6z"/>
</g>
</svg>
