<?xml version="1.0" encoding="utf-8"?>
<!-- Generator: Adobe Illustrator 24.0.1, SVG Export Plug-In . SVG Version: 6.00 Build 0)  -->
<svg version="1.1" xmlns="http://www.w3.org/2000/svg" xmlns:xlink="http://www.w3.org/1999/xlink" x="0px" y="0px"
	 viewBox="0 0 1080 1920" style="enable-background:new 0 0 1080 1920;" xml:space="preserve">
<style type="text/css">
	.st0{fill:#B9932F;}
	.st1{fill:#DAAC35;}
	.st2{fill:#9C5164;}
	.st3{clip-path:url(#SVGID_2_);fill:url(#SVGID_3_);}
	.st4{clip-path:url(#SVGID_5_);fill:url(#SVGID_6_);}
	.st5{clip-path:url(#SVGID_8_);fill:url(#SVGID_9_);}
	.st6{clip-path:url(#SVGID_11_);fill:url(#SVGID_12_);}
	.st7{clip-path:url(#SVGID_14_);fill:url(#SVGID_15_);}
	.st8{clip-path:url(#SVGID_17_);fill:url(#SVGID_18_);}
	.st9{clip-path:url(#SVGID_20_);fill:url(#SVGID_21_);}
	.st10{clip-path:url(#SVGID_23_);fill:url(#SVGID_24_);}
	.st11{clip-path:url(#SVGID_26_);fill:url(#SVGID_27_);}
	.st12{clip-path:url(#SVGID_29_);fill:url(#SVGID_30_);}
	.st13{clip-path:url(#SVGID_32_);fill:url(#SVGID_33_);}
	.st14{fill:url(#SVGID_34_);}
</style>
<g id="Content">
	<g>
		<path class="st0" d="M196.7,1068.7v0.8c-1.2,0-2.1,0.3-2.6,1s-0.7,1.9-0.7,3.6v26.5c0,2.5-0.7,4.4-2,5.8c-1.3,1.4-3,2.1-5.2,2.1
			c-2.1,0-3.6-0.9-4.7-2.6l0.7-0.5c0.7,0.9,1.5,1.3,2.6,1.3c1.4,0,2.5-0.6,3.4-1.9c0.9-1.2,1.3-3,1.3-5.2v-25.6
			c0-1.7-0.2-2.9-0.7-3.6c-0.5-0.7-1.3-1-2.6-1v-0.8H196.7z"/>
		<path class="st0" d="M204.4,1098c-1.4,0-2.6-0.5-3.6-1.4c-1-0.9-1.5-2-1.5-3.3c0-1.2,0.4-2.3,1.3-3.1c0.9-0.8,2.6-1.6,5.2-2.3
			c1.6-0.5,2.8-0.8,3.3-1.2v-1.3c0-1.3-0.4-2.3-1.1-3.1c-0.7-0.8-1.7-1.2-2.9-1.2c-1.1,0-2.1,0.3-2.9,1c-0.8,0.7-1.4,1.6-1.8,2.8
			l-0.9-0.2c0.4-1.6,1.1-3,2.3-4c1.2-1,2.6-1.5,4.2-1.5c1.9,0,3.5,0.6,4.6,1.7s1.8,2.7,1.8,4.8v7.6c0,1.1,0.1,1.8,0.2,2.2
			c0.1,0.4,0.4,0.6,0.8,0.6c0.3,0,0.5-0.1,0.6-0.3s0.4-0.7,0.6-1.4h0.9c-0.1,1.1-0.4,2-1,2.6c-0.6,0.7-1.4,1-2.4,1
			c-1.5,0-2.5-0.8-3-2.5c-0.9,1-1.7,1.6-2.4,2C206.1,1097.8,205.3,1098,204.4,1098z M209.1,1093.8v-6c-0.5,0.2-1.2,0.5-2.2,0.8
			c-1.8,0.6-2.9,1.2-3.4,1.8c-0.5,0.6-0.7,1.4-0.7,2.4c0,0.9,0.3,1.6,0.8,2.3c0.5,0.6,1.2,1,1.9,1c0.7,0,1.4-0.2,2.1-0.6
			C208.3,1095,208.8,1094.5,209.1,1093.8z"/>
		<path class="st0" d="M223,1079.2v3.5c2.1-2.4,4.2-3.5,6.4-3.5c1.7,0,3.1,0.6,4.3,1.8c1.1,1.2,1.7,2.7,1.7,4.6v8
			c0,1.2,0.2,2,0.6,2.4c0.4,0.4,1.2,0.6,2.4,0.6v0.8h-9.5v-0.8c1.2,0,2-0.2,2.4-0.5c0.4-0.3,0.6-0.9,0.6-1.8v-9.3
			c0-1.2-0.4-2.2-1.1-3c-0.7-0.7-1.7-1.1-2.9-1.1c-1.7,0-3.3,1.2-5,3.5v8.7c0,1.5,0.2,2.4,0.6,2.8c0.4,0.4,1.2,0.6,2.4,0.6v0.8h-9.4
			v-0.8c1.4,0,2.2-0.2,2.5-0.7c0.3-0.4,0.5-1.4,0.5-2.8v-10c0-1.1-0.2-1.8-0.6-2.1s-1.2-0.5-2.4-0.5v-0.8l5.5-0.5H223z"/>
		<path class="st0" d="M257.5,1079.2h0.8v14.9c0,1,0.2,1.6,0.6,2c0.4,0.3,1.2,0.5,2.4,0.5v0.8l-6.5,0.3v-3.3h-0.1
			c-1.8,2.3-3.9,3.5-6.2,3.5c-1.7,0-3.1-0.6-4.2-1.7c-1.1-1.1-1.6-2.6-1.6-4.3v-9.1c0-0.9-0.2-1.5-0.7-1.9c-0.5-0.3-1.3-0.5-2.5-0.5
			v-0.8l5.7-0.5h0.9v12.7c0,1.2,0.4,2.2,1.1,2.9c0.7,0.7,1.7,1.1,2.9,1.1c1.7,0,3.3-1,4.7-2.9v-9.6c0-1.2-0.2-2-0.6-2.3
			c-0.4-0.3-1.3-0.5-2.9-0.5v-0.8L257.5,1079.2z"/>
		<path class="st0" d="M268.6,1098c-1.4,0-2.6-0.5-3.6-1.4c-1-0.9-1.5-2-1.5-3.3c0-1.2,0.4-2.3,1.3-3.1c0.9-0.8,2.6-1.6,5.2-2.3
			c1.6-0.5,2.8-0.8,3.3-1.2v-1.3c0-1.3-0.4-2.3-1.1-3.1c-0.7-0.8-1.7-1.2-2.9-1.2c-1.1,0-2.1,0.3-2.9,1c-0.8,0.7-1.4,1.6-1.8,2.8
			l-0.9-0.2c0.4-1.6,1.1-3,2.3-4c1.2-1,2.6-1.5,4.2-1.5c1.9,0,3.5,0.6,4.6,1.7s1.8,2.7,1.8,4.8v7.6c0,1.1,0.1,1.8,0.2,2.2
			c0.1,0.4,0.4,0.6,0.8,0.6c0.3,0,0.5-0.1,0.6-0.3s0.4-0.7,0.6-1.4h0.9c-0.1,1.1-0.4,2-1,2.6c-0.6,0.7-1.4,1-2.4,1
			c-1.5,0-2.5-0.8-3-2.5c-0.9,1-1.7,1.6-2.4,2C270.3,1097.8,269.5,1098,268.6,1098z M273.4,1093.8v-6c-0.5,0.2-1.2,0.5-2.2,0.8
			c-1.8,0.6-2.9,1.2-3.4,1.8c-0.5,0.6-0.7,1.4-0.7,2.4c0,0.9,0.3,1.6,0.8,2.3c0.5,0.6,1.2,1,1.9,1c0.7,0,1.4-0.2,2.1-0.6
			C272.5,1095,273,1094.5,273.4,1093.8z"/>
		<path class="st0" d="M287.8,1079.2v3.8c1.6-1.4,2.9-2.4,3.8-3c0.9-0.6,1.7-0.9,2.3-0.9c1.1,0,2.2,0.5,3.3,1.4l-1.3,3.2
			c-1.9-1-3.3-1.6-4.2-1.6c-1,0-2.3,0.7-3.8,2.2v9.8c0,1,0.2,1.6,0.6,2c0.4,0.3,1.2,0.5,2.4,0.5v0.8h-9.4v-0.8
			c1.2,0,2.1-0.2,2.4-0.6c0.4-0.4,0.6-1.3,0.6-2.8v-9.7c0-1.2-0.2-2-0.6-2.4s-1.4-0.5-3-0.5v-0.8l6.2-0.5H287.8z"/>
		<path class="st0" d="M307.4,1079.7v0.8c-1,0.1-1.5,0.7-1.5,1.6c0,0.3,0.1,0.7,0.3,1.2l4.3,10l3.1-9.4c0.2-0.8,0.4-1.4,0.4-1.8
			c0-1-0.6-1.5-1.8-1.5v-0.8h6.3v0.8c-0.9,0-1.7,0.3-2.4,1s-1.2,1.7-1.7,3.2l-7.1,20.9c-0.7,2-1.6,3.6-2.6,4.7
			c-1.1,1.2-2.2,1.7-3.3,1.7c-0.7,0-1.4-0.3-2.2-0.8l1.2-3.1c0.6,0.3,1.2,0.4,1.7,0.4c1.1,0,1.9-0.3,2.6-1c0.7-0.7,1.3-1.8,1.9-3.4
			l2.3-6.4l-6.4-14.7c-0.5-1.1-0.9-1.8-1.4-2.1c-0.5-0.3-1.2-0.5-2.2-0.5v-0.8H307.4z"/>
		<path class="st0" d="M335.4,1095.4h14.1v2.1h-16.4v-1c4.5-4.6,7.6-8.3,9.5-11.2c1.9-2.8,2.8-5.5,2.8-7.9c0-2.1-0.5-3.7-1.4-4.9
			c-0.9-1.2-2.2-1.8-3.9-1.8c-1.5,0-2.7,0.5-3.6,1.4s-1.5,2.2-1.7,3.8H334c0-1.2,0.4-2.4,1.1-3.8s1.7-2.4,2.8-3.1s2.4-1.1,3.7-1.1
			c2,0,3.7,0.8,5.2,2.3c1.4,1.5,2.1,3.4,2.1,5.7c0,2.6-1,5.4-3.1,8.3C343.8,1087.3,340.3,1091,335.4,1095.4z"/>
		<path class="st0" d="M358.4,1095.4h14.1v2.1h-16.4v-1c4.5-4.6,7.6-8.3,9.5-11.2c1.9-2.8,2.8-5.5,2.8-7.9c0-2.1-0.5-3.7-1.4-4.9
			c-0.9-1.2-2.2-1.8-3.9-1.8c-1.5,0-2.7,0.5-3.6,1.4s-1.5,2.2-1.7,3.8H357c0-1.2,0.4-2.4,1.1-3.8s1.7-2.4,2.8-3.1s2.4-1.1,3.7-1.1
			c2,0,3.7,0.8,5.2,2.3c1.4,1.5,2.1,3.4,2.1,5.7c0,2.6-1,5.4-3.1,8.3C366.8,1087.3,363.3,1091,358.4,1095.4z"/>
		<path class="st0" d="M380.6,1106v-0.9c1.3-0.7,2.2-1.4,2.7-2.3c0.5-0.8,0.8-2,0.8-3.4c0-0.4-0.1-0.6-0.2-0.7
			c-0.1-0.1-0.4-0.2-0.7-0.2c-0.7,0-1.4-0.2-1.9-0.7s-0.8-1-0.8-1.7c0-0.7,0.2-1.2,0.7-1.7c0.5-0.5,1-0.7,1.7-0.7
			c1.1,0,2,0.4,2.7,1.3c0.7,0.9,1,2,1,3.5c0,1.7-0.6,3.3-1.7,4.7C383.8,1104.7,382.4,1105.6,380.6,1106z"/>
		<path class="st0" d="M405.3,1095.4h14.1v2.1H403v-1c4.5-4.6,7.6-8.3,9.5-11.2c1.9-2.8,2.8-5.5,2.8-7.9c0-2.1-0.5-3.7-1.4-4.9
			c-0.9-1.2-2.2-1.8-3.9-1.8c-1.5,0-2.7,0.5-3.6,1.4s-1.5,2.2-1.7,3.8h-0.8c0-1.2,0.4-2.4,1.1-3.8s1.7-2.4,2.8-3.1s2.4-1.1,3.7-1.1
			c2,0,3.7,0.8,5.2,2.3c1.4,1.5,2.1,3.4,2.1,5.7c0,2.6-1,5.4-3.1,8.3C413.7,1087.3,410.2,1091,405.3,1095.4z"/>
		<path class="st0" d="M444.5,1083c0,2.9-0.4,5.5-1.3,7.8c-0.8,2.2-2.1,4-3.6,5.3c-1.6,1.3-3.2,1.9-5,1.9c-1.8,0-3.5-0.6-5.1-1.9
			c-1.6-1.3-2.8-3.1-3.6-5.3c-0.8-2.3-1.3-4.9-1.3-7.8c0-2.9,0.4-5.5,1.3-7.7c0.9-2.2,2.1-4,3.6-5.3s3.3-1.9,5.1-1.9
			c1.8,0,3.5,0.6,5,1.9c1.6,1.3,2.7,3.1,3.6,5.3C444,1077.5,444.5,1080.1,444.5,1083z M440.7,1083c0-4.3-0.5-7.7-1.6-10.1
			c-1.1-2.4-2.6-3.6-4.5-3.6c-2,0-3.5,1.2-4.6,3.6c-1.1,2.4-1.6,5.8-1.6,10c0,4.3,0.5,7.7,1.6,10.1c1.1,2.4,2.6,3.6,4.6,3.6
			c2,0,3.5-1.2,4.5-3.5C440.1,1090.8,440.7,1087.4,440.7,1083z"/>
		<path class="st0" d="M451.2,1095.4h14.1v2.1h-16.4v-1c4.5-4.6,7.6-8.3,9.5-11.2c1.9-2.8,2.8-5.5,2.8-7.9c0-2.1-0.5-3.7-1.4-4.9
			c-0.9-1.2-2.2-1.8-3.9-1.8c-1.5,0-2.7,0.5-3.6,1.4s-1.5,2.2-1.7,3.8h-0.8c0-1.2,0.4-2.4,1.1-3.8s1.7-2.4,2.8-3.1s2.4-1.1,3.7-1.1
			c2,0,3.7,0.8,5.2,2.3c1.4,1.5,2.1,3.4,2.1,5.7c0,2.6-1,5.4-3.1,8.3C459.6,1087.3,456.1,1091,451.2,1095.4z"/>
		<path class="st0" d="M474.2,1095.4h14.1v2.1h-16.4v-1c4.5-4.6,7.6-8.3,9.5-11.2c1.9-2.8,2.8-5.5,2.8-7.9c0-2.1-0.5-3.7-1.4-4.9
			c-0.9-1.2-2.2-1.8-3.9-1.8c-1.5,0-2.7,0.5-3.6,1.4s-1.5,2.2-1.7,3.8h-0.8c0-1.2,0.4-2.4,1.1-3.8s1.7-2.4,2.8-3.1s2.4-1.1,3.7-1.1
			c2,0,3.7,0.8,5.2,2.3c1.4,1.5,2.1,3.4,2.1,5.7c0,2.6-1,5.4-3.1,8.3C482.6,1087.3,479.1,1091,474.2,1095.4z"/>
		<path class="st0" d="M525.9,1109.2v-41.7h2.2v41.7H525.9z"/>
		<path class="st0" d="M564.5,1075.1h-0.9l1.5-7.4h0.9c0.2,0.4,0.4,0.7,0.6,0.8c0.2,0.1,0.6,0.1,1,0.1h15.9v1l-9.9,28.1H570
			l11.1-26.3h-12.6c-0.9,0-1.5,0.2-2,0.6C566,1072.6,565.3,1073.6,564.5,1075.1z"/>
		<path class="st0" d="M592.2,1081c0.7,0,1.2,0.2,1.7,0.7c0.5,0.5,0.7,1,0.7,1.7s-0.2,1.2-0.7,1.7s-1,0.7-1.7,0.7
			c-0.7,0-1.2-0.2-1.7-0.7c-0.5-0.5-0.7-1-0.7-1.7s0.2-1.2,0.7-1.7C591,1081.2,591.6,1081,592.2,1081z M592.2,1093.9
			c0.7,0,1.2,0.2,1.7,0.7c0.5,0.5,0.7,1,0.7,1.7s-0.2,1.2-0.7,1.7c-0.5,0.5-1,0.7-1.7,0.7c-0.7,0-1.2-0.2-1.7-0.7
			c-0.5-0.5-0.7-1-0.7-1.7c0-0.6,0.2-1.2,0.7-1.7C591,1094.2,591.6,1093.9,592.2,1093.9z"/>
		<path class="st0" d="M620.9,1083c0,2.9-0.4,5.5-1.3,7.8c-0.8,2.2-2.1,4-3.6,5.3c-1.6,1.3-3.2,1.9-5,1.9c-1.8,0-3.5-0.6-5.1-1.9
			c-1.6-1.3-2.8-3.1-3.6-5.3s-1.3-4.9-1.3-7.8c0-2.9,0.4-5.5,1.3-7.7c0.9-2.2,2.1-4,3.6-5.3s3.3-1.9,5.1-1.9c1.8,0,3.5,0.6,5,1.9
			c1.5,1.3,2.7,3.1,3.6,5.3C620.5,1077.5,620.9,1080.1,620.9,1083z M617.2,1083c0-4.3-0.5-7.7-1.6-10.1c-1.1-2.4-2.6-3.6-4.5-3.6
			s-3.5,1.2-4.6,3.6c-1.1,2.4-1.6,5.8-1.6,10c0,4.3,0.5,7.7,1.6,10.1s2.6,3.6,4.6,3.6s3.5-1.2,4.5-3.5S617.2,1087.4,617.2,1083z"/>
		<path class="st0" d="M643.9,1083c0,2.9-0.4,5.5-1.3,7.8c-0.8,2.2-2.1,4-3.6,5.3c-1.6,1.3-3.2,1.9-5,1.9c-1.8,0-3.5-0.6-5.1-1.9
			c-1.6-1.3-2.8-3.1-3.6-5.3s-1.3-4.9-1.3-7.8c0-2.9,0.4-5.5,1.3-7.7c0.9-2.2,2.1-4,3.6-5.3s3.3-1.9,5.1-1.9c1.8,0,3.5,0.6,5,1.9
			c1.5,1.3,2.7,3.1,3.6,5.3C643.5,1077.5,643.9,1080.1,643.9,1083z M640.1,1083c0-4.3-0.5-7.7-1.6-10.1c-1.1-2.4-2.6-3.6-4.5-3.6
			s-3.5,1.2-4.6,3.6c-1.1,2.4-1.6,5.8-1.6,10c0,4.3,0.5,7.7,1.6,10.1s2.6,3.6,4.6,3.6s3.5-1.2,4.5-3.5S640.1,1087.4,640.1,1083z"/>
		<path class="st0" d="M658.7,1068.7h10.5c3.4,0,6.1,0.8,8.1,2.3c2,1.5,3,3.5,3,5.9c0,2.4-0.9,4.2-2.6,5.5s-4.3,1.9-7.5,1.9
			c-1.3,0-2.7-0.1-4.4-0.3v8c0,1.7,0.2,2.9,0.7,3.6c0.5,0.7,1.3,1,2.6,1v0.8h-10.3v-0.8c1.2,0,2.1-0.3,2.6-1
			c0.5-0.7,0.7-1.8,0.7-3.4v-18c0-1.7-0.2-2.9-0.7-3.6c-0.5-0.7-1.3-1-2.6-1V1068.7z M669.3,1069.8h-3.5v12.9c1,0.3,2.1,0.5,3.5,0.5
			c2.2,0,3.9-0.6,5.1-1.7c1.2-1.1,1.9-2.6,1.9-4.6c0-2.1-0.6-3.8-1.9-5.1C673.2,1070.5,671.5,1069.8,669.3,1069.8z"/>
		<path class="st0" d="M710.5,1068.7h6.8v0.8c-2.2,0-3.2,1.3-3.2,3.8c0,0.2,0,0.4,0,0.7l1.4,17.7c0.2,1.9,0.5,3.1,1,3.8
			c0.5,0.6,1.4,1,2.6,1.1v0.8h-10.3v-0.8c1.1-0.2,1.9-0.5,2.3-1.1c0.4-0.5,0.7-1.4,0.7-2.5c0-0.2,0-0.5,0-0.8l-1.5-18.6l-9.8,23.7
			h-0.8l-9.7-23.7l-1.6,17.7c0,0.3,0,0.5,0,0.8c0,2.5,1.2,3.9,3.7,4.4v0.8h-8.9v-0.8c1.2-0.2,2.1-0.6,2.6-1.3c0.5-0.7,0.9-2,1.1-4
			l1.7-19.8c-1-1.1-2.3-1.8-3.7-2v-0.8h7.3l9.2,22.6L710.5,1068.7z"/>
		<path class="st0" d="M734.7,1082.9c0-4.3,1.5-7.8,4.4-10.7c2.9-2.8,6.6-4.3,11-4.3c4.3,0,7.9,1.4,10.8,4.3
			c2.9,2.9,4.4,6.4,4.4,10.6c0,4.3-1.5,7.9-4.5,10.8c-3,2.9-6.6,4.4-10.9,4.4c-4.3,0-7.9-1.5-10.8-4.4
			C736.2,1090.8,734.7,1087.2,734.7,1082.9z M739.1,1083c0,4.2,1,7.6,3,10.2c2,2.6,4.6,3.9,7.8,3.9c3.3,0,5.9-1.3,7.9-4
			c2-2.6,3-5.9,3-9.9c0-4.2-1-7.6-3-10.2s-4.6-3.9-7.7-3.9c-3.4,0-6.1,1.3-8.1,3.8C740.1,1075.4,739.1,1078.8,739.1,1083z"/>
		<path class="st0" d="M775.2,1079.2v3.5c2.1-2.4,4.2-3.5,6.4-3.5c1.7,0,3.1,0.6,4.3,1.8c1.1,1.2,1.7,2.7,1.7,4.6v8
			c0,1.2,0.2,2,0.6,2.4c0.4,0.4,1.2,0.6,2.4,0.6v0.8h-9.5v-0.8c1.2,0,2-0.2,2.4-0.5c0.4-0.3,0.6-0.9,0.6-1.8v-9.3
			c0-1.2-0.4-2.2-1.1-3c-0.7-0.7-1.7-1.1-2.9-1.1c-1.7,0-3.3,1.2-5,3.5v8.7c0,1.5,0.2,2.4,0.6,2.8s1.2,0.6,2.4,0.6v0.8h-9.4v-0.8
			c1.4,0,2.2-0.2,2.5-0.7c0.3-0.4,0.5-1.4,0.5-2.8v-10c0-1.1-0.2-1.8-0.6-2.1c-0.4-0.3-1.2-0.5-2.4-0.5v-0.8l5.5-0.5H775.2z"/>
		<path class="st0" d="M800.6,1079.7v0.8c-1.2,0-1.9,0.4-1.9,1.1c0,0.3,0.1,0.9,0.4,1.5l4,9.9l4.2-10.7c-0.4-0.7-0.7-1.2-1.1-1.5
			c-0.3-0.2-0.8-0.4-1.5-0.4v-0.8h8.6v0.8c-1.5,0-2.3,0.5-2.3,1.4c0,0.3,0.1,0.7,0.3,1.2l4,10l3.7-9.3c0.3-0.8,0.4-1.4,0.4-1.8
			c0-1-0.7-1.4-2.2-1.5v-0.8h6.9v0.8c-1.2,0-2.1,0.2-2.6,0.6s-1,1.3-1.6,2.7l-5.5,14h-0.8l-5.6-14l-5.6,14h-0.8l-6.3-15.3
			c-0.5-1.3-1.6-2-3.3-2v-0.8H800.6z"/>
		<path class="st0" d="M830.8,1098c-1.4,0-2.6-0.5-3.6-1.4c-1-0.9-1.5-2-1.5-3.3c0-1.2,0.4-2.3,1.3-3.1c0.9-0.8,2.6-1.6,5.2-2.3
			c1.6-0.5,2.8-0.8,3.3-1.2v-1.3c0-1.3-0.4-2.3-1.1-3.1c-0.7-0.8-1.7-1.2-2.9-1.2c-1.1,0-2.1,0.3-2.9,1c-0.8,0.7-1.4,1.6-1.8,2.8
			l-0.9-0.2c0.4-1.6,1.1-3,2.3-4s2.6-1.5,4.2-1.5c1.9,0,3.5,0.6,4.6,1.7c1.2,1.2,1.8,2.7,1.8,4.8v7.6c0,1.1,0.1,1.8,0.2,2.2
			c0.1,0.4,0.4,0.6,0.8,0.6c0.3,0,0.5-0.1,0.6-0.3s0.4-0.7,0.6-1.4h0.9c-0.1,1.1-0.4,2-1,2.6c-0.6,0.7-1.4,1-2.4,1
			c-1.5,0-2.5-0.8-3-2.5c-0.9,1-1.7,1.6-2.3,2S831.7,1098,830.8,1098z M835.6,1093.8v-6c-0.5,0.2-1.2,0.5-2.2,0.8
			c-1.8,0.6-2.9,1.2-3.4,1.8c-0.5,0.6-0.7,1.4-0.7,2.4c0,0.9,0.3,1.6,0.8,2.3c0.5,0.6,1.2,1,1.9,1c0.7,0,1.4-0.2,2.1-0.6
			C834.7,1095,835.3,1094.5,835.6,1093.8z"/>
		<path class="st0" d="M850,1079.2v3.8c1.6-1.4,2.9-2.4,3.8-3c0.9-0.6,1.7-0.9,2.3-0.9c1.1,0,2.2,0.5,3.3,1.4l-1.3,3.2
			c-1.9-1-3.3-1.6-4.2-1.6c-1,0-2.3,0.7-3.8,2.2v9.8c0,1,0.2,1.6,0.6,2c0.4,0.3,1.2,0.5,2.3,0.5v0.8h-9.4v-0.8
			c1.2,0,2.1-0.2,2.4-0.6c0.4-0.4,0.6-1.3,0.6-2.8v-9.7c0-1.2-0.2-2-0.6-2.4c-0.4-0.4-1.4-0.5-3-0.5v-0.8l6.2-0.5H850z"/>
		<path class="st0" d="M878.2,1065.9h0.8v28c0,1,0.2,1.7,0.6,2c0.4,0.4,1.2,0.6,2.3,0.6v0.8h-10.3c-3.2,0-5.7-0.9-7.6-2.6
			c-1.9-1.7-2.8-3.9-2.8-6.6c0-2.5,0.8-4.6,2.4-6.4c1.6-1.8,3.6-2.6,5.9-2.6c1.8,0,3.8,0.7,6,2.2v-10.9c0-1.2-0.2-2-0.5-2.4
			c-0.3-0.4-0.9-0.6-1.9-0.6h-1v-0.8L878.2,1065.9z M875.6,1093.9v-10.7c-0.7-0.9-1.5-1.7-2.4-2.2s-1.8-0.8-2.8-0.8
			c-1.6,0-2.9,0.7-3.9,2c-1,1.3-1.5,3.1-1.5,5.2c0,2.8,0.7,5,2,6.7c1.4,1.7,3.3,2.5,5.7,2.5c1,0,1.7-0.2,2.2-0.6
			C875.4,1095.6,875.6,1094.9,875.6,1093.9z"/>
		<path class="st0" d="M895.9,1079.2v5.5h-1c-0.2-1.4-0.7-2.5-1.5-3.3s-1.8-1.2-3-1.2c-0.9,0-1.6,0.2-2.1,0.7
			c-0.5,0.4-0.8,1-0.8,1.8c0,0.7,0.2,1.4,0.7,1.9c0.5,0.5,1.6,1.2,3.2,2c2.2,1,3.6,1.9,4.3,2.8c0.7,0.9,1,2,1,3.2
			c0,1.5-0.6,2.8-1.7,3.9c-1.1,1.1-2.4,1.6-3.9,1.6c-0.8,0-1.8-0.3-3.1-0.9c-0.7-0.3-1.2-0.5-1.4-0.5c-0.3,0-0.6,0.1-0.8,0.3
			s-0.3,0.5-0.4,0.9h-0.9v-6h0.9c0.3,1.6,1,2.9,2.1,3.8c1.1,0.9,2.3,1.4,3.6,1.4c0.9,0,1.6-0.3,2.2-0.9c0.6-0.6,0.9-1.3,0.9-2.2
			c0-0.8-0.3-1.6-0.8-2.2c-0.5-0.6-1.7-1.3-3.6-2.1c-2.1-0.9-3.4-1.7-4.1-2.5c-0.7-0.8-1-1.7-1-2.8c0-1.4,0.5-2.6,1.6-3.6
			c1.1-1,2.3-1.5,3.8-1.5c0.7,0,1.4,0.2,2.2,0.5c0.6,0.2,1,0.3,1.4,0.3c0.5,0,0.8-0.3,1.1-0.8H895.9z"/>
	</g>
	<g>
		<path class="st0" d="M377.8,1212.9h-7.6v8.5c0,1.7,0.2,2.9,0.7,3.6s1.3,1,2.6,1v0.8h-10.3v-0.8c1.2,0,2.1-0.3,2.6-1
			c0.5-0.7,0.7-1.8,0.7-3.6v-17.9c0-1.7-0.2-2.9-0.7-3.6c-0.5-0.7-1.3-1-2.6-1v-0.8h19.7v5.1h-0.7c-0.3-1.5-0.7-2.5-1.2-3
			s-1.7-0.7-3.5-0.7h-7.3v12h7.5c1,0,1.8-0.3,2.3-0.8s0.8-1.4,1-2.6h0.8v8.1h-0.8C380.8,1214,379.7,1212.9,377.8,1212.9z"/>
		<path class="st0" d="M404.1,1217.9c0,2.7-0.9,4.9-2.8,6.7s-4.2,2.7-6.9,2.7c-2.8,0-5.1-0.9-6.9-2.7s-2.8-4-2.8-6.7
			c0-2.7,0.9-5,2.8-6.7c1.8-1.8,4.2-2.7,7-2.7c2.8,0,5.1,0.9,7,2.7C403.1,1213,404.1,1215.2,404.1,1217.9z M400.4,1218
			c0-2.5-0.5-4.6-1.6-6.1s-2.5-2.3-4.4-2.3c-1.9,0-3.3,0.8-4.4,2.3c-1.1,1.5-1.6,3.6-1.6,6.2c0,2.5,0.5,4.6,1.6,6.1
			c1.1,1.5,2.5,2.3,4.4,2.3c1.9,0,3.3-0.8,4.4-2.3C399.8,1222.5,400.4,1220.5,400.4,1218z"/>
		<path class="st0" d="M416.4,1225.9h0.5v0.8H407v-0.8h0.9c0.9,0,1.5-0.2,1.9-0.7c0.3-0.5,0.5-1.4,0.5-2.6v-23.4
			c0-0.9-0.2-1.5-0.5-1.9c-0.4-0.4-1-0.5-1.9-0.5h-1.2v-0.8l6.1-0.6h0.8v28.1c0,1,0.2,1.6,0.6,2
			C414.6,1225.8,415.3,1225.9,416.4,1225.9z"/>
		<path class="st0" d="M428.5,1225.9h0.5v0.8H419v-0.8h0.9c0.9,0,1.5-0.2,1.9-0.7c0.3-0.5,0.5-1.4,0.5-2.6v-23.4
			c0-0.9-0.2-1.5-0.5-1.9c-0.4-0.4-1-0.5-1.9-0.5h-1.2v-0.8l6.1-0.6h0.8v28.1c0,1,0.2,1.6,0.6,2
			C426.7,1225.8,427.4,1225.9,428.5,1225.9z"/>
		<path class="st0" d="M451.1,1217.9c0,2.7-0.9,4.9-2.8,6.7s-4.2,2.7-6.9,2.7c-2.8,0-5.1-0.9-6.9-2.7s-2.8-4-2.8-6.7
			c0-2.7,0.9-5,2.8-6.7c1.8-1.8,4.2-2.7,7-2.7c2.8,0,5.1,0.9,7,2.7C450.2,1213,451.1,1215.2,451.1,1217.9z M447.4,1218
			c0-2.5-0.5-4.6-1.6-6.1s-2.5-2.3-4.4-2.3c-1.9,0-3.3,0.8-4.4,2.3c-1.1,1.5-1.6,3.6-1.6,6.2c0,2.5,0.5,4.6,1.6,6.1
			c1.1,1.5,2.5,2.3,4.4,2.3c1.9,0,3.3-0.8,4.4-2.3C446.9,1222.5,447.4,1220.5,447.4,1218z"/>
		<path class="st0" d="M460.7,1209.1v0.8c-1.2,0-1.9,0.4-1.9,1.1c0,0.3,0.1,0.9,0.4,1.5l4,9.9l4.2-10.7c-0.4-0.7-0.7-1.2-1.1-1.5
			c-0.3-0.2-0.8-0.4-1.5-0.4v-0.8h8.6v0.8c-1.5,0-2.3,0.5-2.3,1.4c0,0.3,0.1,0.7,0.3,1.2l4,10l3.7-9.3c0.3-0.8,0.4-1.4,0.4-1.8
			c0-1-0.7-1.4-2.2-1.5v-0.8h6.9v0.8c-1.2,0-2.1,0.2-2.6,0.6s-1,1.3-1.6,2.7l-5.5,14h-0.8l-5.6-14l-5.6,14h-0.8l-6.3-15.3
			c-0.5-1.3-1.6-2-3.3-2v-0.8H460.7z"/>
		<path class="st0" d="M501.8,1222.2v1.3c-1.1,1.4-2.2,2.4-3.3,2.9c-1.1,0.6-2.5,0.9-4,0.9c-2.8,0-5.1-0.9-6.9-2.6
			c-1.8-1.7-2.7-3.9-2.7-6.6c0-2.7,0.9-5,2.6-6.8c1.7-1.8,3.8-2.8,6.3-2.8c2.1,0,3.9,0.7,5.4,2.1c1.5,1.4,2.3,3,2.3,5v0.4h-13v0.2
			c0,2,0.3,3.7,0.9,5.1s1.5,2.6,2.6,3.4c1.1,0.8,2.3,1.2,3.6,1.2c1.2,0,2.1-0.2,3-0.7C499.3,1224.7,500.4,1223.7,501.8,1222.2z
			 M488.5,1215.1h9.7v-0.3c0-1.6-0.5-2.8-1.4-3.8c-0.9-0.9-2-1.4-3.4-1.4c-1.4,0-2.6,0.5-3.5,1.5
			C489,1212,488.6,1213.4,488.5,1215.1z"/>
		<path class="st0" d="M521.8,1195.3h0.8v28c0,1,0.2,1.7,0.6,2c0.4,0.4,1.2,0.6,2.3,0.6v0.8h-10.3c-3.2,0-5.7-0.9-7.6-2.6
			c-1.9-1.7-2.8-3.9-2.8-6.6c0-2.5,0.8-4.6,2.4-6.4c1.6-1.8,3.6-2.6,5.9-2.6c1.8,0,3.8,0.7,6,2.2v-10.9c0-1.2-0.2-2-0.5-2.4
			c-0.3-0.4-0.9-0.6-1.9-0.6h-1v-0.8L521.8,1195.3z M519.2,1223.3v-10.7c-0.7-0.9-1.5-1.7-2.4-2.2c-0.9-0.5-1.8-0.8-2.8-0.8
			c-1.6,0-2.9,0.7-3.9,2c-1,1.3-1.5,3.1-1.5,5.2c0,2.8,0.7,5,2,6.7s3.3,2.5,5.7,2.5c1,0,1.7-0.2,2.2-0.6
			C519,1224.9,519.2,1224.2,519.2,1223.3z"/>
		<path class="st0" d="M543.3,1195.3h0.9v15.9c0.8-0.8,1.7-1.5,2.7-1.9s2.2-0.7,3.3-0.7c2.3,0,4.3,0.8,5.8,2.5
			c1.6,1.7,2.4,3.7,2.4,6.2c0,2.9-1.1,5.2-3.2,7c-2.1,1.8-5.1,2.7-8.9,2.7c-1.5,0-3.3-0.2-5.5-0.5v-26.6c0-1.4-0.2-2.2-0.5-2.6
			c-0.4-0.3-1.2-0.5-2.6-0.5v-0.8L543.3,1195.3z M544.2,1212.5v10.1c0,1.3,0.2,2.2,0.7,2.7c0.4,0.5,1.2,0.7,2.3,0.7
			c2.3,0,4.1-0.7,5.5-2.2c1.3-1.5,2-3.6,2-6.2c0-2.2-0.6-4.1-1.7-5.5c-1.2-1.4-2.6-2.1-4.2-2.1
			C547.1,1210,545.5,1210.8,544.2,1212.5z"/>
		<path class="st0" d="M568.5,1209.1v0.8c-1,0.1-1.5,0.7-1.5,1.6c0,0.3,0.1,0.7,0.3,1.2l4.3,10l3.1-9.4c0.2-0.8,0.4-1.4,0.4-1.8
			c0-1-0.6-1.5-1.8-1.5v-0.8h6.3v0.8c-0.9,0-1.7,0.3-2.4,1s-1.2,1.7-1.7,3.2l-7.1,20.9c-0.7,2-1.6,3.6-2.6,4.7
			c-1.1,1.2-2.2,1.7-3.3,1.7c-0.7,0-1.4-0.3-2.2-0.8l1.2-3.1c0.6,0.3,1.2,0.4,1.7,0.4c1.1,0,1.9-0.3,2.6-1c0.7-0.7,1.3-1.8,1.9-3.4
			l2.3-6.4l-6.4-14.7c-0.5-1.1-0.9-1.8-1.4-2.1c-0.5-0.3-1.2-0.5-2.2-0.5v-0.8H568.5z"/>
		<path class="st0" d="M592.9,1226.8v-0.8c1.2,0,2.1-0.3,2.6-1s0.7-1.9,0.7-3.5v-17.9c0-1.7-0.2-2.9-0.7-3.6s-1.3-1-2.6-1v-0.8h13.3
			c4.9,0,8.8,1.4,11.8,4.2c2.9,2.8,4.4,6.3,4.4,10.6c0,4.2-1.4,7.6-4.2,10.1s-6.7,3.8-11.6,3.8H592.9z M605.4,1199.2H600v21.2
			c0,2,0.2,3.4,0.7,4.2c0.5,0.8,1.5,1.1,2.9,1.1h3c3.5,0,6.3-1.1,8.3-3.4s3-5.4,3-9.3c0-4.2-1.1-7.5-3.3-10
			C612.4,1200.4,609.4,1199.2,605.4,1199.2z"/>
		<path class="st0" d="M631.4,1208.5h0.9v15c0,1,0.2,1.6,0.6,2c0.4,0.3,1.2,0.5,2.3,0.5v0.8h-9.7v-0.8c1.4,0,2.3-0.2,2.7-0.5
			c0.4-0.3,0.6-1,0.6-2v-10.9c0-1.1-0.2-1.8-0.6-2.1c-0.4-0.3-1.3-0.5-2.8-0.5v-0.8L631.4,1208.5z M630.6,1199.3
			c0.6,0,1.1,0.2,1.5,0.6s0.6,0.9,0.6,1.5c0,0.6-0.2,1.1-0.6,1.6c-0.4,0.4-0.9,0.6-1.5,0.6c-0.6,0-1.1-0.2-1.6-0.6s-0.7-1-0.7-1.6
			c0-0.6,0.2-1.1,0.6-1.5C629.5,1199.6,630,1199.3,630.6,1199.3z"/>
		<path class="st0" d="M643.2,1208.5v3.5c2.1-2.4,4.2-3.5,6.4-3.5c1.7,0,3.1,0.6,4.3,1.8c1.1,1.2,1.7,2.7,1.7,4.6v8
			c0,1.2,0.2,2,0.6,2.4c0.4,0.4,1.2,0.6,2.4,0.6v0.8h-9.5v-0.8c1.2,0,2-0.2,2.4-0.5c0.4-0.3,0.6-0.9,0.6-1.8v-9.3
			c0-1.2-0.4-2.2-1.1-3c-0.7-0.7-1.7-1.1-2.9-1.1c-1.7,0-3.3,1.2-5,3.5v8.7c0,1.5,0.2,2.4,0.6,2.8s1.2,0.6,2.4,0.6v0.8h-9.4v-0.8
			c1.4,0,2.2-0.2,2.5-0.7c0.3-0.4,0.5-1.4,0.5-2.8v-10c0-1.1-0.2-1.8-0.6-2.1c-0.4-0.3-1.2-0.5-2.4-0.5v-0.8l5.5-0.5H643.2z"/>
		<path class="st0" d="M666.1,1208.5v3.5c2.1-2.4,4.2-3.5,6.4-3.5c1.7,0,3.1,0.6,4.3,1.8c1.1,1.2,1.7,2.7,1.7,4.6v8
			c0,1.2,0.2,2,0.6,2.4c0.4,0.4,1.2,0.6,2.4,0.6v0.8h-9.5v-0.8c1.2,0,2-0.2,2.4-0.5c0.4-0.3,0.6-0.9,0.6-1.8v-9.3
			c0-1.2-0.4-2.2-1.1-3c-0.7-0.7-1.7-1.1-2.9-1.1c-1.7,0-3.3,1.2-5,3.5v8.7c0,1.5,0.2,2.4,0.6,2.8s1.2,0.6,2.4,0.6v0.8h-9.4v-0.8
			c1.4,0,2.2-0.2,2.5-0.7c0.3-0.4,0.5-1.4,0.5-2.8v-10c0-1.1-0.2-1.8-0.6-2.1c-0.4-0.3-1.2-0.5-2.4-0.5v-0.8l5.5-0.5H666.1z"/>
		<path class="st0" d="M700.9,1222.2v1.3c-1.1,1.4-2.2,2.4-3.3,2.9c-1.1,0.6-2.5,0.9-4,0.9c-2.8,0-5.1-0.9-6.9-2.6
			c-1.8-1.7-2.7-3.9-2.7-6.6c0-2.7,0.9-5,2.6-6.8c1.7-1.8,3.8-2.8,6.3-2.8c2.1,0,3.9,0.7,5.4,2.1c1.5,1.4,2.3,3,2.3,5v0.4h-13v0.2
			c0,2,0.3,3.7,0.9,5.1s1.5,2.6,2.6,3.4c1.1,0.8,2.3,1.2,3.6,1.2c1.2,0,2.1-0.2,3-0.7C698.4,1224.7,699.5,1223.7,700.9,1222.2z
			 M687.6,1215.1h9.7v-0.3c0-1.6-0.5-2.8-1.4-3.8c-0.9-0.9-2-1.4-3.4-1.4c-1.4,0-2.6,0.5-3.5,1.5
			C688.1,1212,687.7,1213.4,687.6,1215.1z"/>
		<path class="st0" d="M710,1208.5v3.8c1.6-1.4,2.9-2.4,3.8-3c0.9-0.6,1.7-0.9,2.3-0.9c1.1,0,2.2,0.5,3.3,1.4l-1.3,3.2
			c-1.9-1-3.3-1.6-4.2-1.6c-1,0-2.3,0.7-3.8,2.2v9.8c0,1,0.2,1.6,0.6,2c0.4,0.3,1.2,0.5,2.3,0.5v0.8h-9.4v-0.8
			c1.2,0,2.1-0.2,2.4-0.6c0.4-0.4,0.6-1.3,0.6-2.8v-9.7c0-1.2-0.2-2-0.6-2.4c-0.4-0.4-1.4-0.5-3-0.5v-0.8l6.2-0.5H710z"/>
	</g>
	<g>
		<path class="st0" d="M277.4,1262.7v0.9c-2.1,0-3.8,1.9-5.2,5.6l-8.5,22.6h-0.8l-8.9-23.3c-0.8-2.2-1.6-3.5-2.2-4.1
			c-0.6-0.6-1.5-0.9-2.6-0.9v-0.8h10.4v0.8c-1.7,0-2.5,0.6-2.5,1.9c0,0.4,0.1,0.9,0.3,1.4l7,18.5l6.7-17.9c0.3-0.8,0.4-1.4,0.4-2
			c0-1.4-0.9-2-2.6-2v-0.8H277.4z"/>
		<path class="st0" d="M291.3,1286.9v1.3c-1.1,1.4-2.2,2.4-3.3,2.9c-1.1,0.6-2.5,0.9-4,0.9c-2.8,0-5.1-0.9-6.9-2.6
			c-1.8-1.7-2.7-3.9-2.7-6.6c0-2.7,0.9-5,2.6-6.8c1.7-1.8,3.8-2.8,6.3-2.8c2.1,0,3.9,0.7,5.4,2.1c1.5,1.4,2.3,3,2.3,5v0.4h-13v0.2
			c0,2,0.3,3.7,0.9,5.1s1.5,2.6,2.6,3.4c1.1,0.8,2.3,1.2,3.6,1.2c1.2,0,2.1-0.2,3-0.7C288.8,1289.4,289.9,1288.4,291.3,1286.9z
			 M278,1279.8h9.7v-0.3c0-1.6-0.5-2.8-1.4-3.8c-0.9-0.9-2-1.4-3.4-1.4c-1.4,0-2.6,0.5-3.5,1.5C278.5,1276.7,278,1278,278,1279.8z"
			/>
		<path class="st0" d="M299.8,1273.2v3.5c2.1-2.4,4.2-3.5,6.4-3.5c1.7,0,3.1,0.6,4.3,1.8c1.1,1.2,1.7,2.7,1.7,4.6v8
			c0,1.2,0.2,2,0.6,2.4c0.4,0.4,1.2,0.6,2.4,0.6v0.8h-9.5v-0.8c1.2,0,2-0.2,2.4-0.5c0.4-0.3,0.6-0.9,0.6-1.8v-9.3
			c0-1.2-0.4-2.2-1.1-3c-0.7-0.7-1.7-1.1-2.9-1.1c-1.7,0-3.3,1.2-5,3.5v8.7c0,1.5,0.2,2.4,0.6,2.8c0.4,0.4,1.2,0.6,2.4,0.6v0.8h-9.4
			v-0.8c1.4,0,2.2-0.2,2.5-0.7c0.3-0.4,0.5-1.4,0.5-2.8v-10c0-1.1-0.2-1.8-0.6-2.1s-1.2-0.5-2.4-0.5v-0.8l5.5-0.5H299.8z"/>
		<path class="st0" d="M334.3,1273.2h0.8v14.9c0,1,0.2,1.6,0.6,2c0.4,0.3,1.2,0.5,2.4,0.5v0.8l-6.5,0.3v-3.3h-0.1
			c-1.8,2.3-3.9,3.5-6.2,3.5c-1.7,0-3.1-0.6-4.2-1.7c-1.1-1.1-1.6-2.6-1.6-4.3v-9.1c0-0.9-0.2-1.5-0.7-1.9c-0.5-0.3-1.3-0.5-2.5-0.5
			v-0.8l5.7-0.5h0.9v12.7c0,1.2,0.4,2.2,1.1,2.9c0.7,0.7,1.7,1.1,2.9,1.1c1.7,0,3.3-1,4.7-2.9v-9.6c0-1.2-0.2-2-0.6-2.3
			c-0.4-0.3-1.3-0.5-2.9-0.5v-0.8L334.3,1273.2z"/>
		<path class="st0" d="M357.6,1286.9v1.3c-1.1,1.4-2.2,2.4-3.3,2.9c-1.1,0.6-2.5,0.9-4,0.9c-2.8,0-5.1-0.9-6.9-2.6
			c-1.8-1.7-2.7-3.9-2.7-6.6c0-2.7,0.9-5,2.6-6.8c1.7-1.8,3.8-2.8,6.3-2.8c2.1,0,3.9,0.7,5.4,2.1c1.5,1.4,2.3,3,2.3,5v0.4h-13v0.2
			c0,2,0.3,3.7,0.9,5.1s1.5,2.6,2.6,3.4c1.1,0.8,2.3,1.2,3.6,1.2c1.2,0,2.1-0.2,3-0.7C355.1,1289.4,356.2,1288.4,357.6,1286.9z
			 M344.2,1279.8h9.7v-0.3c0-1.6-0.5-2.8-1.4-3.8c-0.9-0.9-2-1.4-3.4-1.4c-1.4,0-2.6,0.5-3.5,1.5
			C344.8,1276.7,344.3,1278,344.2,1279.8z"/>
		<path class="st0" d="M377.8,1275c0.7,0,1.2,0.2,1.7,0.7s0.7,1,0.7,1.7s-0.2,1.2-0.7,1.7c-0.5,0.5-1,0.7-1.7,0.7
			c-0.7,0-1.2-0.2-1.7-0.7c-0.5-0.5-0.7-1-0.7-1.7s0.2-1.2,0.7-1.7C376.6,1275.2,377.1,1275,377.8,1275z M377.8,1287.9
			c0.7,0,1.2,0.2,1.7,0.7s0.7,1,0.7,1.7s-0.2,1.2-0.7,1.7c-0.5,0.5-1,0.7-1.7,0.7c-0.7,0-1.2-0.2-1.7-0.7c-0.5-0.5-0.7-1-0.7-1.7
			c0-0.6,0.2-1.2,0.7-1.7C376.6,1288.2,377.1,1287.9,377.8,1287.9z"/>
		<path class="st0" d="M410.8,1277.5h-7.6v8.5c0,1.7,0.2,2.9,0.7,3.6s1.3,1,2.6,1v0.8h-10.3v-0.8c1.2,0,2.1-0.3,2.6-1
			c0.5-0.7,0.7-1.8,0.7-3.6v-17.9c0-1.7-0.2-2.9-0.7-3.6c-0.5-0.7-1.3-1-2.6-1v-0.8h19.7v5.1h-0.7c-0.3-1.5-0.7-2.5-1.2-3
			s-1.7-0.7-3.5-0.7h-7.3v12h7.5c1,0,1.8-0.3,2.3-0.8s0.8-1.4,1-2.6h0.8v8.1h-0.8C413.9,1278.6,412.8,1277.5,410.8,1277.5z"/>
		<path class="st0" d="M422.8,1292c-1.4,0-2.6-0.5-3.6-1.4c-1-0.9-1.5-2-1.5-3.3c0-1.2,0.4-2.3,1.3-3.1c0.9-0.8,2.6-1.6,5.2-2.3
			c1.6-0.5,2.8-0.8,3.3-1.2v-1.3c0-1.3-0.4-2.3-1.1-3.1c-0.7-0.8-1.7-1.2-2.9-1.2c-1.1,0-2.1,0.3-2.9,1c-0.8,0.7-1.4,1.6-1.8,2.8
			l-0.9-0.2c0.4-1.6,1.1-3,2.3-4c1.2-1,2.6-1.5,4.2-1.5c1.9,0,3.5,0.6,4.6,1.7s1.8,2.7,1.8,4.8v7.6c0,1.1,0.1,1.8,0.2,2.2
			c0.1,0.4,0.4,0.6,0.8,0.6c0.3,0,0.5-0.1,0.6-0.3s0.4-0.7,0.6-1.4h0.9c-0.1,1.1-0.4,2-1,2.6c-0.6,0.7-1.4,1-2.4,1
			c-1.5,0-2.5-0.8-3-2.5c-0.9,1-1.7,1.6-2.4,2C424.5,1291.8,423.7,1292,422.8,1292z M427.5,1287.8v-6c-0.5,0.2-1.2,0.5-2.2,0.8
			c-1.8,0.6-2.9,1.2-3.4,1.8c-0.5,0.6-0.7,1.4-0.7,2.4c0,0.9,0.3,1.6,0.8,2.3c0.5,0.6,1.2,1,1.9,1c0.7,0,1.4-0.2,2.1-0.6
			C426.7,1289,427.2,1288.5,427.5,1287.8z"/>
		<path class="st0" d="M441.9,1273.2v3.8c1.6-1.4,2.9-2.4,3.8-3c0.9-0.6,1.7-0.9,2.3-0.9c1.1,0,2.2,0.5,3.3,1.4l-1.3,3.2
			c-1.9-1-3.3-1.6-4.2-1.6c-1,0-2.3,0.7-3.8,2.2v9.8c0,1,0.2,1.6,0.6,2c0.4,0.3,1.2,0.5,2.4,0.5v0.8h-9.4v-0.8
			c1.2,0,2.1-0.2,2.4-0.6c0.4-0.4,0.6-1.3,0.6-2.8v-9.7c0-1.2-0.2-2-0.6-2.4s-1.4-0.5-3-0.5v-0.8l6.2-0.5H441.9z"/>
		<path class="st0" d="M459.3,1273.2h0.9v15c0,1,0.2,1.6,0.6,2c0.4,0.3,1.2,0.5,2.3,0.5v0.8h-9.7v-0.8c1.4,0,2.3-0.2,2.7-0.5
			c0.4-0.3,0.6-1,0.6-2v-10.9c0-1.1-0.2-1.8-0.6-2.1c-0.4-0.3-1.3-0.5-2.8-0.5v-0.8L459.3,1273.2z M458.5,1264
			c0.6,0,1.1,0.2,1.5,0.6s0.6,0.9,0.6,1.5c0,0.6-0.2,1.1-0.6,1.6c-0.4,0.4-0.9,0.6-1.5,0.6c-0.6,0-1.1-0.2-1.6-0.6
			c-0.4-0.4-0.7-1-0.7-1.6c0-0.6,0.2-1.1,0.6-1.5C457.4,1264.2,457.9,1264,458.5,1264z"/>
		<path class="st0" d="M473.5,1273.7v0.8c-1,0.1-1.5,0.7-1.5,1.6c0,0.3,0.1,0.7,0.3,1.2l4.3,10l3.1-9.4c0.2-0.8,0.4-1.4,0.4-1.8
			c0-1-0.6-1.5-1.8-1.5v-0.8h6.3v0.8c-0.9,0-1.7,0.3-2.4,1s-1.2,1.7-1.7,3.2l-7.1,20.9c-0.7,2-1.6,3.6-2.6,4.7
			c-1.1,1.2-2.2,1.7-3.3,1.7c-0.7,0-1.4-0.3-2.2-0.8l1.2-3.1c0.6,0.3,1.2,0.4,1.7,0.4c1.1,0,1.9-0.3,2.6-1c0.7-0.7,1.3-1.8,1.9-3.4
			l2.3-6.4l-6.4-14.7c-0.5-1.1-0.9-1.8-1.4-2.1c-0.5-0.3-1.2-0.5-2.2-0.5v-0.8H473.5z"/>
		<path class="st0" d="M491.2,1292c-1.4,0-2.6-0.5-3.6-1.4c-1-0.9-1.5-2-1.5-3.3c0-1.2,0.4-2.3,1.3-3.1c0.9-0.8,2.6-1.6,5.2-2.3
			c1.6-0.5,2.8-0.8,3.3-1.2v-1.3c0-1.3-0.4-2.3-1.1-3.1c-0.7-0.8-1.7-1.2-2.9-1.2c-1.1,0-2.1,0.3-2.9,1c-0.8,0.7-1.4,1.6-1.8,2.8
			l-0.9-0.2c0.4-1.6,1.1-3,2.3-4c1.2-1,2.6-1.5,4.2-1.5c1.9,0,3.5,0.6,4.6,1.7s1.8,2.7,1.8,4.8v7.6c0,1.1,0.1,1.8,0.2,2.2
			c0.1,0.4,0.4,0.6,0.8,0.6c0.3,0,0.5-0.1,0.6-0.3s0.4-0.7,0.6-1.4h0.9c-0.1,1.1-0.4,2-1,2.6c-0.6,0.7-1.4,1-2.4,1
			c-1.5,0-2.5-0.8-3-2.5c-0.9,1-1.7,1.6-2.4,2C492.9,1291.8,492.1,1292,491.2,1292z M496,1287.8v-6c-0.5,0.2-1.2,0.5-2.2,0.8
			c-1.8,0.6-2.9,1.2-3.4,1.8c-0.5,0.6-0.7,1.4-0.7,2.4c0,0.9,0.3,1.6,0.8,2.3c0.5,0.6,1.2,1,1.9,1c0.7,0,1.4-0.2,2.1-0.6
			C495.1,1289,495.7,1288.5,496,1287.8z"/>
		<path class="st0" d="M516.1,1273.2v5.5h-1c-0.2-1.4-0.7-2.5-1.5-3.3s-1.8-1.2-3-1.2c-0.9,0-1.6,0.2-2.1,0.7
			c-0.5,0.4-0.8,1-0.8,1.8c0,0.7,0.2,1.4,0.7,1.9c0.5,0.5,1.6,1.2,3.2,2c2.2,1,3.6,1.9,4.3,2.8c0.7,0.9,1,2,1,3.2
			c0,1.5-0.6,2.8-1.7,3.9c-1.1,1.1-2.4,1.6-3.9,1.6c-0.8,0-1.8-0.3-3.1-0.9c-0.7-0.3-1.2-0.5-1.4-0.5c-0.3,0-0.6,0.1-0.8,0.3
			c-0.2,0.2-0.3,0.5-0.4,0.9h-0.9v-6h0.9c0.3,1.6,1,2.9,2.1,3.8c1.1,0.9,2.3,1.4,3.6,1.4c0.9,0,1.6-0.3,2.2-0.9
			c0.6-0.6,0.9-1.3,0.9-2.2c0-0.8-0.3-1.6-0.8-2.2c-0.5-0.6-1.7-1.3-3.6-2.1c-2.1-0.9-3.4-1.7-4.1-2.5c-0.7-0.8-1-1.7-1-2.8
			c0-1.4,0.5-2.6,1.6-3.6c1.1-1,2.3-1.5,3.8-1.5c0.7,0,1.4,0.2,2.2,0.5c0.6,0.2,1,0.3,1.4,0.3c0.5,0,0.8-0.3,1.1-0.8H516.1z"/>
		<path class="st0" d="M541,1278.1h-2.3v7.9c0,1.7,0.2,2.9,0.7,3.6c0.5,0.7,1.3,1,2.6,1v0.8h-10.3v-0.8c1.3,0,2.1-0.3,2.6-1
			c0.4-0.7,0.7-1.9,0.7-3.6v-18c0-1.7-0.2-2.9-0.7-3.5c-0.4-0.6-1.3-1-2.6-1v-0.8h11.8c2.9,0,5.2,0.7,7,2.1c1.7,1.4,2.6,3.2,2.6,5.4
			c0,3.5-2,5.9-5.9,7c0.9,0.6,1.7,1.3,2.5,2.3s1.9,2.6,3.2,4.8c1.5,2.5,2.7,4.1,3.5,4.9c0.8,0.8,1.7,1.2,2.6,1.3v0.8h-5.9
			c-1.2-1.5-2.7-3.6-4.4-6.4c-1.8-3-3.3-4.8-4.3-5.7S542.3,1278.1,541,1278.1z M541.7,1263.8h-3v13.1h3.5c2.1,0,3.8-0.6,5-1.8
			c1.2-1.2,1.8-2.8,1.8-4.8c0-1.9-0.7-3.5-2-4.7C545.6,1264.4,543.9,1263.8,541.7,1263.8z"/>
		<path class="st0" d="M578.4,1286.9v1.3c-1.1,1.4-2.2,2.4-3.3,2.9c-1.1,0.6-2.5,0.9-4,0.9c-2.8,0-5.1-0.9-6.9-2.6
			c-1.8-1.7-2.7-3.9-2.7-6.6c0-2.7,0.9-5,2.6-6.8c1.7-1.8,3.8-2.8,6.3-2.8c2.1,0,3.9,0.7,5.4,2.1c1.5,1.4,2.3,3,2.3,5v0.4h-13v0.2
			c0,2,0.3,3.7,0.9,5.1s1.5,2.6,2.6,3.4c1.1,0.8,2.3,1.2,3.6,1.2c1.2,0,2.1-0.2,3-0.7C576,1289.4,577,1288.4,578.4,1286.9z
			 M565.1,1279.8h9.7v-0.3c0-1.6-0.5-2.8-1.4-3.8c-0.9-0.9-2-1.4-3.4-1.4c-1.4,0-2.6,0.5-3.5,1.5
			C565.7,1276.7,565.2,1278,565.1,1279.8z"/>
		<path class="st0" d="M593.2,1273.2v5.5h-1c-0.2-1.4-0.7-2.5-1.5-3.3s-1.8-1.2-3-1.2c-0.9,0-1.6,0.2-2.1,0.7
			c-0.5,0.4-0.8,1-0.8,1.8c0,0.7,0.2,1.4,0.7,1.9c0.5,0.5,1.6,1.2,3.2,2c2.2,1,3.6,1.9,4.3,2.8c0.7,0.9,1,2,1,3.2
			c0,1.5-0.6,2.8-1.7,3.9c-1.1,1.1-2.4,1.6-3.9,1.6c-0.8,0-1.8-0.3-3.1-0.9c-0.7-0.3-1.2-0.5-1.4-0.5c-0.3,0-0.6,0.1-0.8,0.3
			s-0.3,0.5-0.4,0.9H582v-6h0.9c0.3,1.6,1,2.9,2.1,3.8c1.1,0.9,2.3,1.4,3.6,1.4c0.9,0,1.6-0.3,2.2-0.9c0.6-0.6,0.9-1.3,0.9-2.2
			c0-0.8-0.3-1.6-0.8-2.2c-0.5-0.6-1.7-1.3-3.6-2.1c-2.1-0.9-3.4-1.7-4.1-2.5c-0.7-0.8-1-1.7-1-2.8c0-1.4,0.5-2.6,1.6-3.6
			c1.1-1,2.3-1.5,3.8-1.5c0.7,0,1.4,0.2,2.2,0.5c0.6,0.2,1,0.3,1.4,0.3c0.5,0,0.8-0.3,1.1-0.8H593.2z"/>
		<path class="st0" d="M616.9,1282.6c0,2.7-0.9,4.9-2.8,6.7c-1.9,1.8-4.2,2.7-6.9,2.7s-5.1-0.9-6.9-2.7c-1.9-1.8-2.8-4-2.8-6.7
			c0-2.7,0.9-5,2.8-6.7c1.8-1.8,4.2-2.7,7-2.7c2.8,0,5.1,0.9,7,2.7C616,1277.7,616.9,1279.9,616.9,1282.6z M613.3,1282.6
			c0-2.5-0.5-4.6-1.6-6.1s-2.5-2.3-4.4-2.3s-3.3,0.8-4.4,2.3s-1.6,3.6-1.6,6.2c0,2.5,0.5,4.6,1.6,6.1c1.1,1.5,2.5,2.3,4.4,2.3
			c1.9,0,3.3-0.8,4.4-2.3C612.7,1287.2,613.3,1285.1,613.3,1282.6z"/>
		<path class="st0" d="M626.1,1273.2v3.8c1.6-1.4,2.9-2.4,3.8-3c0.9-0.6,1.7-0.9,2.3-0.9c1.1,0,2.2,0.5,3.3,1.4l-1.3,3.2
			c-1.9-1-3.3-1.6-4.2-1.6c-1,0-2.3,0.7-3.8,2.2v9.8c0,1,0.2,1.6,0.6,2c0.4,0.3,1.2,0.5,2.3,0.5v0.8h-9.4v-0.8
			c1.2,0,2.1-0.2,2.4-0.6c0.4-0.4,0.6-1.3,0.6-2.8v-9.7c0-1.2-0.2-2-0.6-2.4c-0.4-0.4-1.4-0.5-3-0.5v-0.8l6.2-0.5H626.1z"/>
		<path class="st0" d="M644.4,1267.7h0.9v6h6.2v1.3h-6.2v11.4c0,1.2,0.3,2.1,0.8,2.8c0.6,0.6,1.3,1,2.4,1c1.2,0,2.3-0.6,3.3-1.7
			l0.6,0.7c-1.6,2-3.3,3-5.4,3c-1.5,0-2.8-0.5-3.7-1.4c-0.9-1-1.4-2.2-1.4-3.7v-11.9h-3.4v-0.9
			C641,1272.8,642.9,1270.7,644.4,1267.7z"/>
		<path class="st0" d="M656.8,1300v-0.9c1.3-0.7,2.2-1.4,2.7-2.3c0.5-0.8,0.8-2,0.8-3.4c0-0.4-0.1-0.6-0.2-0.7
			c-0.1-0.1-0.4-0.2-0.7-0.2c-0.7,0-1.4-0.2-1.9-0.7c-0.5-0.5-0.8-1-0.8-1.7c0-0.7,0.2-1.2,0.7-1.7c0.5-0.5,1-0.7,1.7-0.7
			c1.1,0,2,0.4,2.7,1.3c0.7,0.9,1,2,1,3.5c0,1.7-0.6,3.3-1.7,4.7C660,1298.7,658.6,1299.6,656.8,1300z"/>
		<path class="st0" d="M700.1,1285.2h0.9l-1.8,6.3h-20.8v-0.8c1.2,0,2-0.4,2.5-1.1c0.5-0.7,0.7-2,0.7-3.7v-18.1
			c0-1.6-0.2-2.6-0.7-3.2s-1.3-0.9-2.6-0.9v-0.8h10.3v0.8c-1.1,0-2,0.4-2.5,1.1c-0.5,0.7-0.7,1.9-0.7,3.5v19.2
			c0,1.1,0.2,1.8,0.7,2.2c0.4,0.4,1.3,0.6,2.6,0.6h5.7c1.8,0,3-0.3,3.7-0.9C698.9,1288.5,699.5,1287.2,700.1,1285.2z"/>
		<path class="st0" d="M722.5,1282.6c0,2.7-0.9,4.9-2.8,6.7c-1.9,1.8-4.2,2.7-6.9,2.7s-5.1-0.9-6.9-2.7c-1.9-1.8-2.8-4-2.8-6.7
			c0-2.7,0.9-5,2.8-6.7c1.8-1.8,4.2-2.7,7-2.7c2.8,0,5.1,0.9,7,2.7C721.6,1277.7,722.5,1279.9,722.5,1282.6z M718.8,1282.6
			c0-2.5-0.5-4.6-1.6-6.1s-2.5-2.3-4.4-2.3s-3.3,0.8-4.4,2.3s-1.6,3.6-1.6,6.2c0,2.5,0.5,4.6,1.6,6.1c1.1,1.5,2.5,2.3,4.4,2.3
			c1.9,0,3.3-0.8,4.4-2.3C718.3,1287.2,718.8,1285.1,718.8,1282.6z"/>
		<path class="st0" d="M731.2,1273.2v3.5c2.1-2.4,4.2-3.5,6.4-3.5c1.7,0,3.1,0.6,4.3,1.8c1.1,1.2,1.7,2.7,1.7,4.6v8
			c0,1.2,0.2,2,0.6,2.4c0.4,0.4,1.2,0.6,2.4,0.6v0.8h-9.5v-0.8c1.2,0,2-0.2,2.4-0.5c0.4-0.3,0.6-0.9,0.6-1.8v-9.3
			c0-1.2-0.4-2.2-1.1-3c-0.7-0.7-1.7-1.1-2.9-1.1c-1.7,0-3.3,1.2-5,3.5v8.7c0,1.5,0.2,2.4,0.6,2.8s1.2,0.6,2.4,0.6v0.8h-9.4v-0.8
			c1.4,0,2.2-0.2,2.5-0.7c0.3-0.4,0.5-1.4,0.5-2.8v-10c0-1.1-0.2-1.8-0.6-2.1c-0.4-0.3-1.2-0.5-2.4-0.5v-0.8l5.5-0.5H731.2z"/>
		<path class="st0" d="M753.8,1292c-1.4,0-2.6-0.5-3.6-1.4c-1-0.9-1.5-2-1.5-3.3c0-1.2,0.4-2.3,1.3-3.1c0.9-0.8,2.6-1.6,5.2-2.3
			c1.6-0.5,2.8-0.8,3.3-1.2v-1.3c0-1.3-0.4-2.3-1.1-3.1c-0.7-0.8-1.7-1.2-2.9-1.2c-1.1,0-2.1,0.3-2.9,1c-0.8,0.7-1.4,1.6-1.8,2.8
			l-0.9-0.2c0.4-1.6,1.1-3,2.3-4s2.6-1.5,4.2-1.5c1.9,0,3.5,0.6,4.6,1.7c1.2,1.2,1.8,2.7,1.8,4.8v7.6c0,1.1,0.1,1.8,0.2,2.2
			c0.1,0.4,0.4,0.6,0.8,0.6c0.3,0,0.5-0.1,0.6-0.3s0.4-0.7,0.6-1.4h0.9c-0.1,1.1-0.4,2-1,2.6c-0.6,0.7-1.4,1-2.4,1
			c-1.5,0-2.5-0.8-3-2.5c-0.9,1-1.7,1.6-2.3,2S754.7,1292,753.8,1292z M758.6,1287.8v-6c-0.5,0.2-1.2,0.5-2.2,0.8
			c-1.8,0.6-2.9,1.2-3.4,1.8c-0.5,0.6-0.7,1.4-0.7,2.4c0,0.9,0.3,1.6,0.8,2.3c0.5,0.6,1.2,1,1.9,1c0.7,0,1.4-0.2,2.1-0.6
			C757.8,1289,758.3,1288.5,758.6,1287.8z"/>
		<path class="st0" d="M773.5,1273.7v0.8c-1.2,0.1-1.7,0.6-1.7,1.5c0,0.4,0.1,1,0.4,1.6l4,9.5l3.5-9c0.4-0.9,0.5-1.6,0.5-2
			c0-0.9-0.8-1.4-2.3-1.5v-0.8h6.5v0.8c-1.1,0.1-1.8,0.3-2.2,0.6c-0.4,0.3-0.8,1-1.2,1.9l-5.7,14.7h-0.8l-5.7-13.9
			c-0.6-1.4-1.1-2.3-1.5-2.7c-0.4-0.4-1.2-0.6-2.3-0.7v-0.8H773.5z"/>
		<path class="st0" d="M790.8,1292c-1.4,0-2.6-0.5-3.6-1.4c-1-0.9-1.5-2-1.5-3.3c0-1.2,0.4-2.3,1.3-3.1c0.9-0.8,2.6-1.6,5.2-2.3
			c1.6-0.5,2.8-0.8,3.3-1.2v-1.3c0-1.3-0.4-2.3-1.1-3.1c-0.7-0.8-1.7-1.2-2.9-1.2c-1.1,0-2.1,0.3-2.9,1c-0.8,0.7-1.4,1.6-1.8,2.8
			l-0.9-0.2c0.4-1.6,1.1-3,2.3-4s2.6-1.5,4.2-1.5c1.9,0,3.5,0.6,4.6,1.7c1.2,1.2,1.8,2.7,1.8,4.8v7.6c0,1.1,0.1,1.8,0.2,2.2
			c0.1,0.4,0.4,0.6,0.8,0.6c0.3,0,0.5-0.1,0.6-0.3s0.4-0.7,0.6-1.4h0.9c-0.1,1.1-0.4,2-1,2.6c-0.6,0.7-1.4,1-2.4,1
			c-1.5,0-2.5-0.8-3-2.5c-0.9,1-1.7,1.6-2.3,2S791.8,1292,790.8,1292z M795.6,1287.8v-6c-0.5,0.2-1.2,0.5-2.2,0.8
			c-1.8,0.6-2.9,1.2-3.4,1.8c-0.5,0.6-0.7,1.4-0.7,2.4c0,0.9,0.3,1.6,0.8,2.3c0.5,0.6,1.2,1,1.9,1c0.7,0,1.4-0.2,2.1-0.6
			C794.8,1289,795.3,1288.5,795.6,1287.8z"/>
		<path class="st0" d="M813.2,1290.6h0.5v0.8h-9.9v-0.8h0.9c0.9,0,1.5-0.2,1.9-0.7c0.3-0.5,0.5-1.4,0.5-2.6v-23.4
			c0-0.9-0.2-1.5-0.5-1.9c-0.4-0.4-1-0.5-1.9-0.5h-1.2v-0.8l6.1-0.6h0.8v28.1c0,1,0.2,1.6,0.6,2
			C811.4,1290.4,812.1,1290.6,813.2,1290.6z"/>
		<path class="st0" d="M821.2,1292c-1.4,0-2.6-0.5-3.6-1.4c-1-0.9-1.5-2-1.5-3.3c0-1.2,0.4-2.3,1.3-3.1c0.9-0.8,2.6-1.6,5.2-2.3
			c1.6-0.5,2.8-0.8,3.3-1.2v-1.3c0-1.3-0.4-2.3-1.1-3.1c-0.7-0.8-1.7-1.2-2.9-1.2c-1.1,0-2.1,0.3-2.9,1c-0.8,0.7-1.4,1.6-1.8,2.8
			l-0.9-0.2c0.4-1.6,1.1-3,2.3-4s2.6-1.5,4.2-1.5c1.9,0,3.5,0.6,4.6,1.7c1.2,1.2,1.8,2.7,1.8,4.8v7.6c0,1.1,0.1,1.8,0.2,2.2
			c0.1,0.4,0.4,0.6,0.8,0.6c0.3,0,0.5-0.1,0.6-0.3s0.4-0.7,0.6-1.4h0.9c-0.1,1.1-0.4,2-1,2.6c-0.6,0.7-1.4,1-2.4,1
			c-1.5,0-2.5-0.8-3-2.5c-0.9,1-1.7,1.6-2.3,2S822.1,1292,821.2,1292z M825.9,1287.8v-6c-0.5,0.2-1.2,0.5-2.2,0.8
			c-1.8,0.6-2.9,1.2-3.4,1.8c-0.5,0.6-0.7,1.4-0.7,2.4c0,0.9,0.3,1.6,0.8,2.3c0.5,0.6,1.2,1,1.9,1c0.7,0,1.4-0.2,2.1-0.6
			C825.1,1289,825.6,1288.5,825.9,1287.8z"/>
	</g>
	<g>
		<path class="st1" d="M472.3,482.6c-5.7,0.9-11.4,2-17.1,3.1c-1.3,0.2-1.7,0.6-1.8,1.8c-2.9,15.1-5.7,30.4-8.6,45.5
			c-0.2,1.1-0.6,2.2-0.9,3.1c-0.6,1.5-1.8,2.2-3.1,1.8c-1.7-0.2-2.4-1.1-2.6-2.6c0-1.5,0-2.9,0.2-4.4c0.7-7.9,1.7-15.6,2.2-23.6
			c0.4-3.3,0-6.8-0.6-10.1c-0.7-5-6.3-8.5-10.9-7.7c-1.8,0.4-3.9,0.2-5.7,0.2c-0.7,0-1.3-0.2-1.8-0.4c-2-0.6-2.9-1.7-2.9-3.3
			c0-1.5,1.3-2.8,3.5-2.8c2.4-0.2,5-0.4,7.4,0c3.5,0.7,6.6,0,9.9-0.6c2.6-0.2,5.2-0.7,7.9-1.3c0.9,0,1.5-0.4,1.7-1.5
			c3.9-22.8,5-27.2,9.9-49.9c0.7-3.5,1.3-7.2,1.7-10.7c0.4-2.6,1.5-4,3.3-3.9c2,0.2,3.1,1.8,2.6,4.6c-1.5,7.9-3.1,15.8-4.6,23.9
			c-3.7,17.5-3.3,16.9-6.8,34.4c-0.2,0.6-0.2,0.9-0.2,1.7c2.6-0.6,5-0.9,7.4-1.3c6.4-1.3,12.9-2.6,19.3-3.9c1.7-0.2,2-1.1,2.2-2.4
			c3.7-18.4,5.7-32.6,11-50.4c1.3-4.2,2.6-8.5,3.9-12.7c0.6-1.7,1.5-3.1,2.4-4.6s2.6-1.7,3.7-0.9c1.3,0.7,1.5,2,1.1,3.5
			c-6.3,18-10.3,32-13.6,50.8c-0.7,4.8-1.7,9.4-2.6,14.2c0,0.2,0,0.6,0,0.9c3.5-0.7,7.2-1.5,12.5-2.6c0.6,0,1.3-0.2,1.7-0.6
			c1.7-1.3,3.9-1.7,5.5-0.4c0.7,0.7,1.5,1.8,1.3,2.8c0,0.9-1.1,2-1.8,2.4c-1.7,0.7-3.7,0.9-5.3,1.3c-9.2,1.8-4.8,0.9-14,2.8
			c-0.9,0.2-1.3,0.6-1.5,1.5c-4,21.9-7.7,44-8.3,66.3c-0.2,4.4,0.2,8.8,0.4,13.4c0,1.5-0.7,2.8-2,3.1c-1.3,0.4-2.9-0.4-3.3-1.8
			c-0.6-1.1-0.7-2.4-0.7-3.7c-0.6-12.9,0.4-25.6,2-38.1c1.8-12.5,3.9-24.8,5.9-37.4c0-0.6,0.2-1.1,0.4-1.8
			C478.8,481.3,475.7,481.8,472.3,482.6z M446,496.2c0.6-2.9,1.1-5.9,1.7-9.2c-2.4,0.6-4.2,0.7-6.1,1.1
			C443.1,490.9,444.6,493.4,446,496.2z"/>
		<path class="st1" d="M527.7,468.8c0.9-1.7,2.4-2.4,3.9-1.7c1.5,0.6,2,2,1.5,3.9c-2.4,8.5-3.9,16.9-4.8,25.6
			c-0.2,2.2-0.2,4.6-0.2,6.8c0,1.1-0.6,7.4,1.1,7.4c1.5,0.2,10.9-12,16.9-19.9c0.6-0.7,1.3-1.5,2-2c1.3-1.1,2.9-0.9,3.9,0.2
			c0.9,1.1-0.4,3.5-1.1,4.8c-1.1,1.5-6.8,8.5-9.9,12.7c-2,2.8-4.4,5-6.6,7.5c-0.9,0.9-2,1.7-3.1,2.4c-2.8,1.7-5.7,0.9-7.2-2
			c-0.9-1.7-1.3-3.9-1.7-5.9c-0.7-5.5,0.2-11.2,0.7-16.7c0-0.4,0-0.6-0.2-0.9c-0.2,0.6-0.6,0.9-0.7,1.5c-2.8,5.3-5.5,10.7-9.4,15.3
			c-1.3,1.7-2.9,3.1-4.8,4.4c-3.5,2.4-7.4,0.6-7.7-3.9c-0.2-2.2,0.2-4.6,0.7-6.8c2.2-8.8,5.5-17.5,11.2-24.8c0.9-1.1,2-2.2,3.1-3.1
			c3.3-2.6,6.4-2.8,10.3-0.6C526.4,471.4,527.2,470.1,527.7,468.8z M508,504.5c6.1-7.4,9.8-16,13.8-24.5c0.9-1.7-1.1-3.9-2.8-2.2
			c-1.5,1.5-3.1,3.1-4.4,5c-3.9,6.1-6.3,12.7-8.1,19.5c-0.2,0.9-0.6,2-0.6,2.9c0,0.4,0,0.6,0.2,0.7
			C506.6,506.5,507.5,505.2,508,504.5z"/>
		<path class="st1" d="M587.7,496c-0.2,0.4-0.2,0.7-0.4,0.9c-6.4,15.5-11.2,23.9-20.1,38.3c-1.5,2-2.9,4-4.4,6.1
			c-1.1,1.1-2.2,2.4-3.5,3.3c-3.9,2.6-7.7,2-9.8-2.2c-1.3-2.4-2.2-5.3-2.8-7.9c-1.5-8.8-1.3-17.7-0.7-26.3c0.2-2.9,0.6-5.9,0.7-8.6
			c0.4-4.8,2.4-17.5,4.4-28.3c0.2-1.1,0.2-2.6-0.6-3.3c-0.4-0.6-0.4-1.1-0.6-1.8c0-1.1,0-1.8,0.6-2.9c2-4,4-11,5.7-17.3
			c2.2-9,4-16.9,7.5-26.5c1.3-3.5,2.9-7,4.6-10.3c0.7-1.5,2-2.9,3.1-4.2c1.3-1.1,2.9-1.7,4.6-0.9c1.7,0.7,2.6,2.2,2.4,3.9
			c0,2.2-0.4,4.2-0.9,6.4c-2.9,11.4-7.4,22.5-11.6,33.5c-1.8,4.8-3.7,9.6-5.9,14.4c-2.6,5.9-4,12.1-5,18.4
			c-2.8,18.8-3.1,23.2-3.7,32.4c-0.6,7.5-0.4,12.1,1.3,22.6c0,0.9,0.4,1.8,0.7,2.8c0.9,2.6,1.8,2.8,3.9,0.6c1.3-1.5,2.6-2.9,3.7-4.6
			c7.5-12.3,15.6-26.5,21.2-39.9c0.4-0.9,0.9-1.7,1.5-2.6c0.7-1.1,2-1.7,3.3-0.9C588.6,491.2,588.3,494,587.7,496z M562.3,442.3
			c0.2,0.2,5.2-12.3,6.3-15.5c1.5-3.3,4-11.6,4.6-16.6C572.1,413.6,563.4,439,562.3,442.3z"/>
		<path class="st1" d="M634.1,409.7c-0.2,2.6-0.4,5.2-1.1,7.7c-2.4,7.7-4.6,15.5-7.4,23c-2.8,7.2-4.6,14.7-5.7,22.3
			c-2.4,15.5-4.6,30.7-6.4,46c-1.5,11.4-2,22.8-1.1,34.2c0.2,1.3,0.4,2.8,0.6,4.2c0.4-0.2,0.6-0.4,0.7-0.6c0.9-0.2,2.2-0.7,2.9-0.4
			c0.7,0.4,1.7,1.5,1.7,2.4c0,2.8-0.7,5.5-2.4,7.7c-1.7,2.6-5.2,2.2-6.3-0.6c-1.3-2.8-2-5.7-2.4-8.5c-1.5-9.6-1.3-19-0.4-28.5
			c1.3-13.6,3.1-27.1,4.6-40.7c0-0.4,0-0.7-0.2-1.1c-0.4,0.6-0.6,1.3-0.9,1.8c-3.9,7.7-7.5,15.8-11.8,23.6c-1.8,3.1-4.4,6.1-7,8.8
			c-2,2-4.4,3.1-7.4,1.8c-3.7-1.7-2.4-10.3-2.4-10.3c2.2-12.1,5.7-22.5,12.1-32.9c0.9-1.5,2-2.8,3.3-4c4-4.4,7.9-4.6,12.3-0.2
			c0.4-0.6,0.6-0.9,0.7-1.5c1.8-4.6,3.9-9,5.3-13.8c1.7-5,2.6-10.1,3.9-15.3c1.8-7.4,3.9-14.7,5.9-21.9c0.4-1.8,1.3-3.7,2.2-5.3
			c1.1-1.7,2.6-2.2,4-1.8C633.2,406.4,634.3,407.9,634.1,409.7z M605.4,469.9c-0.9-2-2-2.4-3.5-0.7c-1.7,1.8-3.1,3.7-4.4,5.9
			c-4.4,7.5-7.4,15.8-9.4,24.5c-0.2,0.7-2,7.7-0.7,7.9c0.6,0,1.7-1.5,2-1.8c1.5-1.8,2.8-3.7,4-5.5c4.8-7.7,8.5-16,12.1-24.3
			C606.5,473.7,606.3,471.9,605.4,469.9z"/>
		<path class="st1" d="M659.9,495.5c-1.3,1.7-7,9-15.8,17.1c-2.2,2-4.6,3.5-7.2,5.2c-1.1,0.9-2.6,1.3-4,1.7
			c-3.1,0.6-5.7-1.1-7.2-4.2c-1.1-2.6-1.5-6.3-0.9-12c0.7-6.1,2.4-13.1,5.2-19.9c0.6-1.5,1.5-3.1,2.6-4.4c1.3-1.7,3.5-1.8,4.6-0.6
			c1.5,1.3,1.3,3.1-0.4,4.6c-0.6,0.4-0.9,0.9-1.1,1.5c-3.3,7.9-5.5,16-5.3,24.7c0,1.3,0.4,2.4,0.6,3.5c0.7,3.1,6.8-1.7,7.7-2.8
			c3.3-3.3,6.1-5.7,9.2-9.2c5.3-6.1,3.5-3.5,8.8-9.8c1.3-1.7,2.8-2,4.2-1.1C662.1,490.7,661.2,494,659.9,495.5z M637.6,464
			c1.1-3.1,1.5-5,2.8-8.1c0.6-1.7,2.4-2,3.7-1.5c1.5,0.6,1.8,2,1.3,3.9c-0.7,2.4-0.7,3.1-1.7,5.5c-0.2,0.7-0.6,1.7-1.1,2.2
			c-0.7,1.1-1.8,1.5-3.1,0.9C638.3,466.4,637.2,465.3,637.6,464z"/>
	</g>
	<g>
		<path class="st2" d="M190.6,697.3v-1.2c1.8,0,3-0.5,3.7-1.4c0.6-1,1-2.6,1-5v-25.5c0-2.5-0.3-4.2-1-5.1c-0.6-0.9-1.9-1.4-3.7-1.4
			v-1.2h14.6v1.2c-1.7,0-2.9,0.5-3.6,1.5c-0.7,1-1,2.7-1,5v12.3l13.3-13.1c1.4-1.4,2.1-2.6,2.1-3.4c0-1.2-0.9-2-2.6-2.3v-1.2H229
			v1.2h-2c-1.2,0-2.6,0.4-4.2,1.2c-1.6,0.8-3,1.9-4.4,3.3l-12.7,12.6l16.9,17.1c1.7,1.7,3,2.9,3.9,3.4s2.2,0.8,3.8,0.9v1.2h-9.7
			l-19.8-20v12.3c0,2.4,0.3,4.1,1,5c0.6,1,1.8,1.4,3.6,1.4v1.2H190.6z"/>
		<path class="st2" d="M253.6,692v-12.5c0-1.7-0.5-3-1.4-4c-0.9-1-2.2-1.5-3.7-1.5c-1.4,0-2.7,0.4-3.8,1.1s-2.3,2-3.5,3.7v13.9
			c0,1.3,0.3,2.2,0.9,2.7c0.6,0.5,1.7,0.7,3.3,0.7v1.2h-13.5v-1.2c1.9,0,3.2-0.4,3.7-0.9c0.5-0.6,0.8-1.9,0.8-3.9v-32.9
			c0-1.5-0.3-2.6-0.8-3c-0.5-0.5-1.8-0.7-3.7-0.7v-1.2l8.1-0.9h1.2v23.9c1.6-1.9,3.1-3.2,4.4-3.9c1.3-0.8,2.8-1.1,4.4-1.1
			c2.5,0,4.5,0.8,6.1,2.4c1.6,1.6,2.4,3.7,2.4,6.4v11.2c0,2,0.3,3.3,0.8,3.9c0.5,0.6,1.6,0.9,3.3,0.9v1.2h-13.1v-1.2
			c1.7,0,2.8-0.3,3.4-0.8C253.3,694.8,253.6,693.7,253.6,692z"/>
		<path class="st2" d="M289.2,671.3h1.2v21.2c0,1.4,0.3,2.3,0.9,2.8c0.6,0.5,1.7,0.7,3.5,0.7v1.2l-9.2,0.5v-4.6h-0.1
			c-2.5,3.3-5.5,4.9-8.8,4.9c-2.4,0-4.4-0.8-5.9-2.4c-1.5-1.6-2.3-3.6-2.3-6.1v-12.9c0-1.3-0.3-2.2-1-2.6c-0.7-0.5-1.8-0.7-3.5-0.7
			v-1.2l8.1-0.8h1.2v18c0,1.8,0.5,3.2,1.5,4.2c1,1,2.4,1.5,4.2,1.5c2.4,0,4.6-1.4,6.7-4.1v-13.6c0-1.7-0.3-2.8-0.8-3.3
			c-0.5-0.4-1.9-0.7-4.1-0.7v-1.2L289.2,671.3z"/>
		<path class="st2" d="M314.3,671.3v7.8h-1.4c-0.2-2-0.9-3.5-2.1-4.6c-1.2-1.1-2.6-1.7-4.2-1.7c-1.3,0-2.3,0.3-3,0.9
			c-0.8,0.6-1.1,1.5-1.1,2.5c0,1,0.4,1.9,1.1,2.7c0.7,0.8,2.2,1.7,4.6,2.8c3.1,1.4,5.1,2.7,6.1,4c1,1.3,1.5,2.8,1.5,4.6
			c0,2.1-0.8,3.9-2.4,5.5c-1.6,1.5-3.4,2.3-5.6,2.3c-1.1,0-2.6-0.4-4.4-1.2c-1-0.4-1.7-0.7-2-0.7c-0.4,0-0.8,0.2-1.1,0.5
			c-0.3,0.3-0.5,0.7-0.5,1.2h-1.2v-8.6h1.2c0.4,2.3,1.4,4.1,2.9,5.4c1.5,1.3,3.2,2,5.2,2c1.3,0,2.3-0.4,3.2-1.3
			c0.8-0.8,1.3-1.9,1.3-3.1c0-1.2-0.4-2.2-1.2-3.1c-0.8-0.9-2.5-1.9-5.1-3c-2.9-1.3-4.8-2.5-5.8-3.6c-0.9-1.1-1.4-2.5-1.4-4
			c0-2,0.8-3.7,2.3-5.1c1.5-1.4,3.3-2.1,5.4-2.1c1,0,2,0.2,3.2,0.7c0.8,0.3,1.5,0.5,2,0.5c0.7,0,1.2-0.4,1.5-1.2H314.3z"/>
		<path class="st2" d="M339.8,692v-12.5c0-1.7-0.5-3-1.4-4c-0.9-1-2.2-1.5-3.7-1.5c-1.4,0-2.7,0.4-3.8,1.1s-2.3,2-3.5,3.7v13.9
			c0,1.3,0.3,2.2,0.9,2.7c0.6,0.5,1.7,0.7,3.3,0.7v1.2H318v-1.2c1.9,0,3.2-0.4,3.7-0.9c0.5-0.6,0.8-1.9,0.8-3.9v-32.9
			c0-1.5-0.3-2.6-0.8-3c-0.5-0.5-1.8-0.7-3.7-0.7v-1.2l8.1-0.9h1.2v23.9c1.6-1.9,3.1-3.2,4.4-3.9c1.3-0.8,2.8-1.1,4.4-1.1
			c2.5,0,4.5,0.8,6.1,2.4c1.6,1.6,2.4,3.7,2.4,6.4v11.2c0,2,0.3,3.3,0.8,3.9c0.5,0.6,1.6,0.9,3.3,0.9v1.2h-13.1v-1.2
			c1.7,0,2.8-0.3,3.4-0.8C339.5,694.8,339.8,693.7,339.8,692z"/>
		<path class="st2" d="M358.5,671.3h1.2v21.3c0,1.4,0.3,2.3,0.9,2.8c0.6,0.5,1.7,0.7,3.3,0.7v1.2h-13.8v-1.2c2,0,3.3-0.2,3.9-0.7
			c0.6-0.5,0.9-1.4,0.9-2.8v-15.5c0-1.5-0.3-2.5-0.8-3c-0.5-0.5-1.9-0.7-4-0.7v-1.2L358.5,671.3z M357.4,658.3
			c0.9,0,1.6,0.3,2.2,0.9c0.6,0.6,0.9,1.3,0.9,2.2c0,0.9-0.3,1.6-0.9,2.2s-1.3,0.9-2.2,0.9c-0.9,0-1.6-0.3-2.2-0.9
			c-0.6-0.6-0.9-1.4-0.9-2.2c0-0.9,0.3-1.6,0.9-2.2C355.8,658.6,356.5,658.3,357.4,658.3z"/>
		<path class="st2" d="M378.7,672.1v1.2c-1.4,0.2-2.1,0.9-2.1,2.2c0,0.5,0.1,1,0.4,1.7l6.1,14.3l4.4-13.3c0.3-1.1,0.5-2,0.5-2.6
			c0-1.4-0.8-2.1-2.5-2.2v-1.2h8.9v1.2c-1.3,0-2.5,0.5-3.3,1.4c-0.9,0.9-1.7,2.4-2.4,4.5L378.5,709c-1,2.8-2.2,5.1-3.7,6.7
			c-1.5,1.6-3.1,2.5-4.6,2.5c-0.9,0-2-0.4-3.1-1.1l1.6-4.4c0.9,0.4,1.7,0.6,2.4,0.6c1.5,0,2.8-0.5,3.8-1.4c1-1,1.9-2.5,2.7-4.8
			l3.2-9.2l-9.1-20.9c-0.7-1.5-1.3-2.5-2-3c-0.7-0.5-1.7-0.7-3.1-0.8v-1.2H378.7z"/>
		<path class="st2" d="M403.9,698.1c-2,0-3.7-0.7-5.1-2c-1.4-1.3-2.1-2.9-2.1-4.8c0-1.8,0.6-3.2,1.8-4.4c1.2-1.1,3.7-2.2,7.4-3.3
			c2.3-0.6,3.9-1.2,4.7-1.7v-1.9c0-1.8-0.5-3.3-1.5-4.4c-1-1.1-2.4-1.7-4.1-1.7c-1.6,0-2.9,0.5-4.1,1.5s-2.1,2.3-2.5,4l-1.3-0.3
			c0.5-2.3,1.6-4.2,3.3-5.6c1.7-1.4,3.7-2.1,6-2.1c2.7,0,4.9,0.8,6.6,2.5s2.5,3.9,2.5,6.8v10.8c0,1.5,0.1,2.6,0.3,3.1
			c0.2,0.5,0.6,0.8,1.1,0.8c0.4,0,0.7-0.2,0.9-0.5c0.2-0.3,0.5-1,0.8-2h1.2c-0.1,1.6-0.6,2.8-1.5,3.8s-2,1.4-3.4,1.4
			c-2.1,0-3.5-1.2-4.3-3.6c-1.3,1.4-2.4,2.3-3.3,2.8C406.4,697.8,405.2,698.1,403.9,698.1z M410.7,692.2v-8.6
			c-0.7,0.3-1.8,0.7-3.1,1.1c-2.5,0.9-4.1,1.7-4.9,2.6c-0.7,0.8-1.1,2-1.1,3.4c0,1.3,0.4,2.3,1.1,3.3c0.8,0.9,1.7,1.4,2.7,1.4
			c1,0,1.9-0.3,3-0.9C409.5,693.8,410.2,693.1,410.7,692.2z"/>
		<path class="st2" d="M430.4,671.3v5c2.9-3.4,6-5,9.1-5c2.4,0,4.5,0.8,6.1,2.5c1.6,1.7,2.4,3.9,2.4,6.6v11.4c0,1.7,0.3,2.9,0.9,3.5
			c0.6,0.6,1.7,0.8,3.4,0.8v1.2h-13.5v-1.2c1.7,0,2.8-0.2,3.4-0.6c0.6-0.4,0.9-1.3,0.9-2.5v-13.2c0-1.8-0.5-3.2-1.6-4.2
			c-1.1-1-2.4-1.6-4.1-1.6c-2.4,0-4.8,1.6-7.2,4.9v12.4c0,2.1,0.3,3.4,0.8,4c0.5,0.6,1.7,0.9,3.4,0.9v1.2h-13.3v-1.2
			c1.9,0,3.1-0.3,3.6-0.9c0.4-0.6,0.7-1.9,0.7-3.9V677c0-1.5-0.3-2.5-0.8-3c-0.5-0.5-1.7-0.7-3.4-0.7v-1.2l7.9-0.8H430.4z"/>
		<path class="st2" d="M495.4,652.5h1.2v39.9c0,1.4,0.3,2.4,0.9,2.9c0.6,0.5,1.7,0.8,3.3,0.8v1.2h-14.7c-4.5,0-8.1-1.2-10.7-3.7
			c-2.6-2.5-4-5.6-4-9.4c0-3.6,1.2-6.6,3.5-9.1c2.3-2.5,5.1-3.7,8.4-3.7c2.6,0,5.5,1,8.5,3.1v-15.5c0-1.7-0.2-2.8-0.7-3.4
			c-0.4-0.6-1.3-0.9-2.7-0.9H487v-1.2L495.4,652.5z M491.8,692.3v-15.2c-1-1.3-2.1-2.4-3.4-3.1c-1.3-0.8-2.6-1.1-3.9-1.1
			c-2.3,0-4.2,0.9-5.6,2.8c-1.4,1.9-2.1,4.4-2.1,7.4c0,3.9,1,7.1,2.9,9.5c1.9,2.4,4.6,3.6,8.1,3.6c1.4,0,2.4-0.3,3.1-0.9
			C491.5,694.6,491.8,693.6,491.8,692.3z"/>
		<path class="st2" d="M528.2,671.3h1.2v21.2c0,1.4,0.3,2.3,0.9,2.8c0.6,0.5,1.7,0.7,3.5,0.7v1.2l-9.2,0.5v-4.6h-0.1
			c-2.5,3.3-5.5,4.9-8.8,4.9c-2.4,0-4.4-0.8-5.9-2.4c-1.5-1.6-2.3-3.6-2.3-6.1v-12.9c0-1.3-0.3-2.2-1-2.6c-0.7-0.5-1.8-0.7-3.5-0.7
			v-1.2l8.1-0.8h1.2v18c0,1.8,0.5,3.2,1.5,4.2c1,1,2.4,1.5,4.2,1.5c2.4,0,4.6-1.4,6.7-4.1v-13.6c0-1.7-0.3-2.8-0.8-3.3
			c-0.5-0.4-1.9-0.7-4.1-0.7v-1.2L528.2,671.3z"/>
		<path class="st2" d="M555.4,671.6h8.1v2.9h-6.7c1.9,2.3,2.9,4.7,2.9,7.3c0,2.6-0.9,4.8-2.8,6.8s-4.1,3-6.6,3.2
			c-1.8,0.1-3.7,0.7-5.5,1.8s-2.7,2.1-2.7,2.9c0,0.9,0.5,1.6,1.4,2.1c1,0.5,3.2,1,6.8,1.6c3.9,0.7,6.7,1.4,8.2,1.9s2.7,1.4,3.6,2.5
			c0.9,1.1,1.3,2.3,1.3,3.7c0,3-1.5,5.5-4.5,7.5c-3,2-6.7,3.1-11,3.1c-3.7,0-6.7-0.7-9-2.1s-3.4-3.3-3.4-5.6c0-1.6,0.7-3,2-4.3
			c1.3-1.2,3.4-2.5,6.2-3.6v-0.1c-1.7-0.4-3.1-1-4-1.8c-1-0.8-1.5-1.8-1.5-2.8c0-2.8,2.6-5.1,7.8-6.9v-0.1c-2.5-0.7-4.5-1.8-5.9-3.5
			c-1.4-1.7-2.1-3.7-2.1-6c0-3,1-5.6,3-7.6c2-2,4.6-3,7.7-3c0.6,0,1.7,0,3.3,0.1S554.8,671.6,555.4,671.6z M560.8,710.5
			c0-1.6-1-2.9-3.1-3.8c-2.1-0.9-6-1.9-11.7-2.9c-4.9,1.3-7.3,3.3-7.3,6c0,1.8,1.2,3.3,3.6,4.5c2.4,1.2,5.4,1.8,9.1,1.8
			c2.8,0,5.1-0.5,6.9-1.6C559.9,713.6,560.8,712.2,560.8,710.5z M542.6,681.4c0,2.7,0.6,4.9,1.7,6.6c1.1,1.7,2.6,2.5,4.5,2.5
			c1.9,0,3.5-0.8,4.6-2.5s1.7-3.9,1.7-6.7c0-2.6-0.6-4.6-1.7-6.2c-1.1-1.6-2.6-2.4-4.5-2.4c-1.9,0-3.4,0.8-4.6,2.4
			C543.2,676.7,542.6,678.8,542.6,681.4z"/>
		<path class="st2" d="M574.2,671.3v5c2.9-3.4,6-5,9.1-5c2.4,0,4.5,0.8,6.1,2.5s2.4,3.9,2.4,6.6v11.4c0,1.7,0.3,2.9,0.9,3.5
			c0.6,0.6,1.7,0.8,3.4,0.8v1.2h-13.5v-1.2c1.7,0,2.8-0.2,3.4-0.6c0.6-0.4,0.9-1.3,0.9-2.5v-13.2c0-1.8-0.5-3.2-1.6-4.2
			s-2.4-1.6-4.1-1.6c-2.4,0-4.8,1.6-7.2,4.9v12.4c0,2.1,0.3,3.4,0.8,4c0.5,0.6,1.7,0.9,3.4,0.9v1.2h-13.3v-1.2
			c1.9,0,3.1-0.3,3.6-0.9c0.4-0.6,0.7-1.9,0.7-3.9V677c0-1.5-0.3-2.5-0.8-3c-0.5-0.5-1.7-0.7-3.4-0.7v-1.2l7.9-0.8H574.2z"/>
		<path class="st2" d="M606.4,671.3h1.2v21.3c0,1.4,0.3,2.3,0.9,2.8c0.6,0.5,1.7,0.7,3.3,0.7v1.2H598v-1.2c2,0,3.3-0.2,3.9-0.7
			c0.6-0.5,0.9-1.4,0.9-2.8v-15.5c0-1.5-0.3-2.5-0.8-3c-0.5-0.5-1.9-0.7-4-0.7v-1.2L606.4,671.3z M605.3,658.3
			c0.9,0,1.6,0.3,2.2,0.9c0.6,0.6,0.9,1.3,0.9,2.2c0,0.9-0.3,1.6-0.9,2.2s-1.3,0.9-2.2,0.9c-0.9,0-1.6-0.3-2.2-0.9
			c-0.6-0.6-0.9-1.4-0.9-2.2c0-0.9,0.3-1.6,0.9-2.2C603.7,658.6,604.4,658.3,605.3,658.3z"/>
		<path class="st2" d="M650.7,676.4l-6.5,6l10.5,10.5c1.2,1.2,2.2,2,3,2.5c0.8,0.4,1.9,0.7,3.1,0.8v1.2h-8.3l-13.1-12.6
			c0,6.6,0.3,10.2,0.8,10.7c0.6,0.5,1.7,0.7,3.4,0.7v1.2h-13.6v-1.2c2,0,3.2-0.4,3.7-0.9c0.5-0.6,0.8-1.9,0.8-3.9V658
			c0-1.5-0.3-2.4-0.8-2.8c-0.5-0.4-1.8-0.6-3.7-0.6v-1.2l8.1-0.9h1.2v31.9l6.8-6.2c1.3-1.2,1.9-2.3,1.9-3.2c0-1.1-1-1.7-3.1-1.7
			v-1.2h13.8v1.2h-1.2C655.2,673.3,652.8,674.3,650.7,676.4z"/>
		<path class="st2" d="M670,698.1c-2,0-3.7-0.7-5.1-2c-1.4-1.3-2.1-2.9-2.1-4.8c0-1.8,0.6-3.2,1.8-4.4c1.2-1.1,3.7-2.2,7.4-3.3
			c2.3-0.6,3.9-1.2,4.7-1.7v-1.9c0-1.8-0.5-3.3-1.5-4.4c-1-1.1-2.4-1.7-4.1-1.7c-1.6,0-2.9,0.5-4.1,1.5c-1.2,1-2.1,2.3-2.5,4
			l-1.3-0.3c0.5-2.3,1.6-4.2,3.3-5.6c1.7-1.4,3.7-2.1,6-2.1c2.7,0,4.9,0.8,6.6,2.5c1.7,1.6,2.5,3.9,2.5,6.8v10.8
			c0,1.5,0.1,2.6,0.3,3.1s0.6,0.8,1.1,0.8c0.4,0,0.7-0.2,0.9-0.5c0.2-0.3,0.5-1,0.8-2h1.2c-0.1,1.6-0.6,2.8-1.5,3.8
			c-0.9,0.9-2,1.4-3.4,1.4c-2.1,0-3.5-1.2-4.3-3.6c-1.3,1.4-2.4,2.3-3.3,2.8C672.5,697.8,671.3,698.1,670,698.1z M676.8,692.2v-8.6
			c-0.7,0.3-1.8,0.7-3.1,1.1c-2.5,0.9-4.1,1.7-4.9,2.6c-0.7,0.8-1.1,2-1.1,3.4c0,1.3,0.4,2.3,1.1,3.3c0.8,0.9,1.7,1.4,2.7,1.4
			c1,0,2-0.3,3-0.9C675.6,693.8,676.3,693.1,676.8,692.2z"/>
		<path class="st2" d="M697.3,671.3v5.5c2.3-2,4.1-3.4,5.4-4.2c1.3-0.8,2.4-1.2,3.2-1.2c1.6,0,3.1,0.7,4.6,2l-1.9,4.5
			c-2.7-1.5-4.7-2.2-6-2.2c-1.4,0-3.2,1-5.4,3.1v13.9c0,1.4,0.3,2.3,0.9,2.8c0.6,0.5,1.7,0.7,3.3,0.7v1.2h-13.3v-1.2
			c1.8,0,2.9-0.3,3.5-0.8c0.5-0.6,0.8-1.9,0.8-4v-13.8c0-1.7-0.3-2.9-0.9-3.4c-0.6-0.5-2-0.8-4.3-0.8v-1.2l8.8-0.8H697.3z"/>
		<path class="st2" d="M737.4,652.5h1.2v39.9c0,1.4,0.3,2.4,0.9,2.9c0.6,0.5,1.7,0.8,3.3,0.8v1.2h-14.7c-4.5,0-8.1-1.2-10.7-3.7
			c-2.6-2.5-4-5.6-4-9.4c0-3.6,1.2-6.6,3.5-9.1c2.3-2.5,5.1-3.7,8.4-3.7c2.6,0,5.5,1,8.5,3.1v-15.5c0-1.7-0.2-2.8-0.7-3.4
			c-0.4-0.6-1.3-0.9-2.7-0.9h-1.4v-1.2L737.4,652.5z M733.7,692.3v-15.2c-1-1.3-2.1-2.4-3.4-3.1s-2.6-1.1-3.9-1.1
			c-2.3,0-4.2,0.9-5.6,2.8c-1.4,1.9-2.1,4.4-2.1,7.4c0,3.9,1,7.1,2.9,9.5c1.9,2.4,4.6,3.6,8.1,3.6c1.4,0,2.4-0.3,3.1-0.9
			C733.4,694.6,733.7,693.6,733.7,692.3z"/>
		<path class="st2" d="M753.3,671.3h1.2v21.3c0,1.4,0.3,2.3,0.9,2.8c0.6,0.5,1.7,0.7,3.3,0.7v1.2h-13.8v-1.2c2,0,3.3-0.2,3.9-0.7
			c0.6-0.5,0.9-1.4,0.9-2.8v-15.5c0-1.5-0.3-2.5-0.8-3c-0.5-0.5-1.9-0.7-4-0.7v-1.2L753.3,671.3z M752.2,658.3
			c0.9,0,1.6,0.3,2.2,0.9c0.6,0.6,0.9,1.3,0.9,2.2c0,0.9-0.3,1.6-0.9,2.2s-1.3,0.9-2.2,0.9c-0.9,0-1.6-0.3-2.2-0.9
			c-0.6-0.6-0.9-1.4-0.9-2.2c0-0.9,0.3-1.6,0.9-2.2C750.6,658.6,751.3,658.3,752.2,658.3z"/>
		<path class="st2" d="M789.6,672.1v1.2c-1.8,0-2.7,0.5-2.7,1.5c0,0.5,0.2,1.2,0.6,2.2l5.7,14.2l5.9-15.2c-0.5-1-1-1.7-1.5-2.1
			c-0.5-0.3-1.2-0.5-2.2-0.6v-1.2h12.2v1.2c-2.2,0-3.2,0.7-3.2,2c0,0.4,0.1,1,0.4,1.6l5.6,14.2l5.2-13.2c0.4-1.1,0.6-1.9,0.6-2.6
			c0-1.4-1.1-2.1-3.2-2.1v-1.2h9.8v1.2c-1.8,0-3,0.3-3.6,0.8c-0.7,0.5-1.4,1.8-2.2,3.8l-7.9,19.9H808l-8-19.9l-7.9,19.9h-1.2
			l-8.9-21.8c-0.7-1.9-2.3-2.8-4.6-2.8v-1.2H789.6z"/>
		<path class="st2" d="M833.3,671.3h1.2v21.3c0,1.4,0.3,2.3,0.9,2.8c0.6,0.5,1.7,0.7,3.3,0.7v1.2h-13.8v-1.2c2,0,3.3-0.2,3.9-0.7
			c0.6-0.5,0.9-1.4,0.9-2.8v-15.5c0-1.5-0.3-2.5-0.8-3c-0.5-0.5-1.9-0.7-4-0.7v-1.2L833.3,671.3z M832.2,658.3
			c0.9,0,1.6,0.3,2.2,0.9c0.6,0.6,0.9,1.3,0.9,2.2c0,0.9-0.3,1.6-0.9,2.2s-1.3,0.9-2.2,0.9c-0.9,0-1.6-0.3-2.2-0.9
			c-0.6-0.6-0.9-1.4-0.9-2.2c0-0.9,0.3-1.6,0.9-2.2C830.5,658.6,831.3,658.3,832.2,658.3z"/>
		<path class="st2" d="M849.7,663.5h1.2v8.5h8.8v1.8H851v16.3c0,1.7,0.4,3,1.2,3.9c0.8,0.9,1.9,1.4,3.4,1.4c1.7,0,3.3-0.8,4.7-2.4
			l0.8,0.9c-2.2,2.8-4.7,4.2-7.6,4.2c-2.2,0-3.9-0.7-5.3-2.1c-1.3-1.4-2-3.1-2-5.3v-16.9h-4.8v-1.2
			C844.8,670.8,847.6,667.8,849.7,663.5z"/>
		<path class="st2" d="M882.9,692v-12.5c0-1.7-0.5-3-1.4-4s-2.2-1.5-3.7-1.5c-1.4,0-2.7,0.4-3.8,1.1s-2.3,2-3.5,3.7v13.9
			c0,1.3,0.3,2.2,0.9,2.7c0.6,0.5,1.7,0.7,3.3,0.7v1.2h-13.5v-1.2c1.9,0,3.2-0.4,3.7-0.9s0.8-1.9,0.8-3.9v-32.9c0-1.5-0.3-2.6-0.8-3
			c-0.5-0.5-1.8-0.7-3.7-0.7v-1.2l8.1-0.9h1.2v23.9c1.6-1.9,3.1-3.2,4.4-3.9c1.3-0.8,2.8-1.1,4.4-1.1c2.5,0,4.5,0.8,6.1,2.4
			c1.6,1.6,2.4,3.7,2.4,6.4v11.2c0,2,0.3,3.3,0.8,3.9c0.5,0.6,1.6,0.9,3.3,0.9v1.2h-13.1v-1.2c1.7,0,2.8-0.3,3.4-0.8
			C882.7,694.8,882.9,693.7,882.9,692z"/>
	</g>
	<g>
		<path class="st2" d="M325.1,751.4v-3.1h11.6l3.1-14.5h3.1l-3.1,14.5h15.9l3.1-14.5h3.1l-3.1,14.5h7.3v3.1h-8l-3,14h11v3.1h-11.6
			l-3.1,14.5h-3.1l3.1-14.5h-15.9l-3.1,14.5h-3.1l3.1-14.5h-7.3v-3.1h8l3-14H325.1z M355.1,751.4h-15.9l-3,14h15.9L355.1,751.4z"/>
		<path class="st2" d="M401.3,746.3l-9.2,14.5v12.9c0,2.5,0.3,4.2,1,5.1c0.6,0.9,1.8,1.4,3.5,1.4v1.2h-14.9v-1.2c2,0,3.4-0.5,4-1.5
			c0.7-1,1-2.7,1-5v-12.9l-8.7-13.5c-1.4-2.3-2.6-3.7-3.5-4.4c-0.9-0.7-2.2-1.1-3.8-1.1v-1.2h16v1.2c-2.8,0-4.2,0.6-4.2,1.9
			c0,0.6,0.3,1.3,0.8,2.2l8.1,12.4l6.5-10.3c1-1.5,1.4-2.8,1.4-3.9c0-1.5-0.9-2.3-2.7-2.3v-1.2h11.2v1.2c-1.5,0.1-2.7,0.4-3.5,1
			C403.5,743.3,402.5,744.5,401.3,746.3z"/>
		<path class="st2" d="M428.4,774.9v1.8c-1.5,2-3.1,3.3-4.7,4.2c-1.6,0.8-3.5,1.3-5.7,1.3c-3.9,0-7.2-1.2-9.8-3.7
			c-2.6-2.5-3.8-5.6-3.8-9.4c0-3.8,1.2-7.1,3.7-9.7c2.4-2.6,5.4-3.9,9-3.9c2.9,0,5.5,1,7.7,3c2.2,2,3.3,4.3,3.3,7.1v0.5h-18.6v0.3
			c0,2.8,0.4,5.2,1.3,7.3c0.8,2.1,2.1,3.7,3.7,4.8c1.6,1.2,3.3,1.7,5.1,1.7c1.6,0,3.1-0.3,4.2-1C424.9,778.4,426.5,777,428.4,774.9z
			 M409.4,764.7h13.8v-0.5c0-2.3-0.6-4-1.9-5.4c-1.3-1.3-2.9-2-4.8-2c-2,0-3.7,0.7-4.9,2.1C410.3,760.4,409.6,762.3,409.4,764.7z"/>
		<path class="st2" d="M452.6,776.1v-12.5c0-1.7-0.5-3-1.4-4c-0.9-1-2.2-1.5-3.7-1.5c-1.4,0-2.7,0.4-3.8,1.1s-2.3,2-3.5,3.7v13.9
			c0,1.3,0.3,2.2,0.9,2.7c0.6,0.5,1.7,0.7,3.3,0.7v1.2h-13.5v-1.2c1.9,0,3.2-0.4,3.7-0.9c0.5-0.6,0.8-1.9,0.8-3.9v-32.9
			c0-1.5-0.3-2.6-0.8-3c-0.5-0.5-1.8-0.7-3.7-0.7v-1.2l8.1-0.9h1.2v23.9c1.6-1.9,3.1-3.2,4.4-3.9c1.3-0.8,2.8-1.1,4.4-1.1
			c2.5,0,4.5,0.8,6.1,2.4c1.6,1.6,2.4,3.7,2.4,6.4v11.2c0,2,0.3,3.3,0.8,3.9c0.5,0.6,1.6,0.9,3.3,0.9v1.2h-13.1v-1.2
			c1.7,0,2.8-0.3,3.4-0.8C452.4,778.8,452.6,777.7,452.6,776.1z"/>
		<path class="st2" d="M471.4,755.4h1.2v21.3c0,1.4,0.3,2.3,0.9,2.8c0.6,0.5,1.7,0.7,3.3,0.7v1.2H463v-1.2c2,0,3.3-0.2,3.9-0.7
			c0.6-0.5,0.9-1.4,0.9-2.8v-15.5c0-1.5-0.3-2.5-0.8-3c-0.5-0.5-1.9-0.7-4-0.7v-1.2L471.4,755.4z M470.3,742.4
			c0.9,0,1.6,0.3,2.2,0.9c0.6,0.6,0.9,1.3,0.9,2.2c0,0.9-0.3,1.6-0.9,2.2s-1.3,0.9-2.2,0.9c-0.9,0-1.6-0.3-2.2-0.9
			c-0.6-0.6-0.9-1.4-0.9-2.2c0-0.9,0.3-1.6,0.9-2.2C468.6,742.7,469.4,742.4,470.3,742.4z"/>
		<path class="st2" d="M480.5,781.4v-1.2c1.8,0,3-0.5,3.6-1.4c0.7-1,1-2.6,1-5v-25.5c0-2.4-0.3-4.1-1-5.1c-0.7-1-1.9-1.4-3.6-1.4
			v-1.2h18.9c7,0,12.6,2,16.8,6c4.2,4,6.3,9,6.3,15.1c0,6-2,10.8-5.9,14.4c-4,3.6-9.5,5.4-16.6,5.4H480.5z M498.3,742.1h-7.8v30.2
			c0,2.9,0.3,4.9,1,6c0.7,1.1,2.1,1.6,4.2,1.6h4.2c5,0,9-1.6,11.8-4.9c2.9-3.2,4.3-7.7,4.3-13.2c0-5.9-1.6-10.7-4.7-14.3
			C508.3,743.9,503.9,742.1,498.3,742.1z"/>
		<path class="st2" d="M528.6,740.5h14.9c4.9,0,8.7,1.1,11.6,3.2c2.8,2.2,4.3,4.9,4.3,8.4c0,3.4-1.2,6-3.7,7.8
			c-2.5,1.8-6,2.7-10.7,2.7c-1.8,0-3.9-0.1-6.3-0.4v11.4c0,2.5,0.3,4.2,1,5.1c0.7,0.9,1.9,1.4,3.6,1.4v1.2h-14.7v-1.2
			c1.8,0,3-0.5,3.6-1.5s1-2.6,1-4.9v-25.6c0-2.4-0.3-4.1-1-5.1c-0.7-1-1.9-1.4-3.6-1.4V740.5z M543.7,742.1h-5v18.3
			c1.4,0.5,3.1,0.7,5,0.7c3.1,0,5.5-0.8,7.3-2.4c1.8-1.6,2.7-3.7,2.7-6.5c0-2.9-0.9-5.4-2.6-7.3C549.2,743,546.8,742.1,543.7,742.1z
			"/>
		<path class="st2" d="M584.9,761.6h-10.8v12.1c0,2.4,0.3,4.1,1,5.1c0.7,0.9,1.9,1.4,3.7,1.4v1.2H564v-1.2c1.8,0,3-0.5,3.6-1.4
			c0.7-0.9,1-2.6,1-5.1v-25.5c0-2.5-0.3-4.2-1-5.1c-0.6-0.9-1.9-1.4-3.7-1.4v-1.2h28v7.2h-0.9c-0.4-2.2-1-3.6-1.7-4.2s-2.4-1-4.9-1
			h-10.4v17.1h10.7c1.4,0,2.5-0.4,3.2-1.1c0.7-0.7,1.1-2,1.4-3.7h1.1v11.5h-1.1C589.1,763.2,587.7,761.6,584.9,761.6z"/>
		<path class="st2" d="M622.3,768.8c0,3.8-1.3,7-4,9.5s-5.9,3.8-9.9,3.8s-7.2-1.3-9.9-3.8s-4-5.7-4-9.5c0-3.9,1.3-7.1,3.9-9.6
			c2.6-2.5,5.9-3.8,9.9-3.8s7.3,1.3,9.9,3.8C621,761.8,622.3,765,622.3,768.8z M617,768.8c0-3.6-0.8-6.5-2.3-8.7
			c-1.5-2.2-3.6-3.3-6.3-3.3s-4.7,1.1-6.3,3.2c-1.5,2.2-2.3,5.1-2.3,8.8c0,3.6,0.8,6.5,2.3,8.7c1.5,2.2,3.6,3.2,6.3,3.2
			s4.8-1.1,6.3-3.3C616.3,775.3,617,772.4,617,768.8z"/>
		<path class="st2" d="M635.3,755.4v5.5c2.3-2,4.1-3.4,5.4-4.2c1.3-0.8,2.4-1.2,3.2-1.2c1.6,0,3.1,0.7,4.6,2l-1.9,4.5
			c-2.7-1.5-4.7-2.2-6-2.2c-1.4,0-3.2,1-5.4,3.1v13.9c0,1.4,0.3,2.3,0.9,2.8c0.6,0.5,1.7,0.7,3.3,0.7v1.2h-13.3v-1.2
			c1.8,0,2.9-0.3,3.5-0.8c0.5-0.6,0.8-1.9,0.8-4v-13.8c0-1.7-0.3-2.9-0.9-3.4c-0.6-0.5-2-0.8-4.3-0.8v-1.2l8.8-0.8H635.3z"/>
		<path class="st2" d="M675.3,774.9v1.8c-1.5,2-3.1,3.3-4.7,4.2c-1.6,0.8-3.5,1.3-5.7,1.3c-3.9,0-7.2-1.2-9.8-3.7
			c-2.6-2.5-3.8-5.6-3.8-9.4c0-3.8,1.2-7.1,3.7-9.7c2.4-2.6,5.4-3.9,9-3.9c2.9,0,5.5,1,7.7,3c2.2,2,3.3,4.3,3.3,7.1v0.5h-18.6v0.3
			c0,2.8,0.4,5.2,1.3,7.3c0.8,2.1,2.1,3.7,3.7,4.8c1.6,1.2,3.3,1.7,5.1,1.7c1.6,0,3.1-0.3,4.2-1C671.8,778.4,673.4,777,675.3,774.9z
			 M656.3,764.7h13.8v-0.5c0-2.3-0.6-4-1.9-5.4c-1.3-1.3-2.9-2-4.8-2c-2,0-3.7,0.7-4.9,2.1C657.2,760.4,656.5,762.3,656.3,764.7z"/>
		<path class="st2" d="M689.9,756.2v1.2c-1.6,0.1-2.5,0.8-2.5,2.1c0,0.6,0.2,1.4,0.6,2.3l5.6,13.5l5-12.8c0.5-1.3,0.8-2.3,0.8-2.9
			c0-1.3-1.1-2-3.3-2.2v-1.2h9.3v1.2c-1.5,0.1-2.6,0.4-3.2,0.9c-0.6,0.5-1.2,1.4-1.7,2.7l-8.2,20.9h-1.2l-8.1-19.8
			c-0.8-2-1.5-3.3-2.1-3.8c-0.6-0.5-1.7-0.9-3.2-0.9v-1.2H689.9z"/>
		<path class="st2" d="M731.5,774.9v1.8c-1.5,2-3.1,3.3-4.7,4.2c-1.6,0.8-3.5,1.3-5.7,1.3c-3.9,0-7.2-1.2-9.8-3.7
			c-2.6-2.5-3.8-5.6-3.8-9.4c0-3.8,1.2-7.1,3.7-9.7c2.4-2.6,5.4-3.9,9-3.9c2.9,0,5.5,1,7.7,3c2.2,2,3.3,4.3,3.3,7.1v0.5h-18.6v0.3
			c0,2.8,0.4,5.2,1.3,7.3c0.8,2.1,2.1,3.7,3.7,4.8c1.6,1.2,3.3,1.7,5.1,1.7c1.6,0,3.1-0.3,4.2-1C728,778.4,729.5,777,731.5,774.9z
			 M712.5,764.7h13.8v-0.5c0-2.3-0.6-4-1.9-5.4c-1.3-1.3-2.9-2-4.8-2c-2,0-3.7,0.7-4.9,2.1C713.3,760.4,712.6,762.3,712.5,764.7z"/>
		<path class="st2" d="M744.4,755.4v5.5c2.3-2,4.1-3.4,5.4-4.2c1.3-0.8,2.4-1.2,3.2-1.2c1.6,0,3.1,0.7,4.6,2l-1.9,4.5
			c-2.7-1.5-4.7-2.2-6-2.2c-1.4,0-3.2,1-5.4,3.1v13.9c0,1.4,0.3,2.3,0.9,2.8c0.6,0.5,1.7,0.7,3.3,0.7v1.2h-13.3v-1.2
			c1.8,0,2.9-0.3,3.5-0.8c0.5-0.6,0.8-1.9,0.8-4v-13.8c0-1.7-0.3-2.9-0.9-3.4c-0.6-0.5-2-0.8-4.3-0.8v-1.2l8.8-0.8H744.4z"/>
	</g>
	<g>
		<path class="st2" d="M449.2,844.5l-6.5,6l10.5,10.5c1.2,1.2,2.2,2,3,2.5c0.8,0.4,1.9,0.7,3.1,0.8v1.2H451l-13.1-12.6
			c0,6.6,0.3,10.2,0.8,10.7c0.6,0.5,1.7,0.7,3.4,0.7v1.2h-13.6v-1.2c1.9,0,3.2-0.4,3.7-0.9c0.5-0.6,0.8-1.9,0.8-3.9v-33.2
			c0-1.5-0.3-2.4-0.8-2.8c-0.5-0.4-1.8-0.6-3.7-0.6v-1.2l8.1-0.9h1.2v31.9l6.8-6.2c1.3-1.2,1.9-2.3,1.9-3.2c0-1.1-1-1.7-3.1-1.7
			v-1.2h13.8v1.2h-1.2C453.6,841.4,451.3,842.5,449.2,844.5z"/>
		<path class="st2" d="M468.5,839.5h1.2v21.3c0,1.4,0.3,2.3,0.9,2.8c0.6,0.5,1.7,0.7,3.3,0.7v1.2h-13.8v-1.2c2,0,3.3-0.2,3.9-0.7
			c0.6-0.5,0.9-1.4,0.9-2.8v-15.5c0-1.5-0.3-2.5-0.8-3c-0.5-0.5-1.9-0.7-4-0.7v-1.2L468.5,839.5z M467.4,826.4
			c0.9,0,1.6,0.3,2.2,0.9c0.6,0.6,0.9,1.3,0.9,2.2c0,0.9-0.3,1.6-0.9,2.2s-1.3,0.9-2.2,0.9c-0.9,0-1.6-0.3-2.2-0.9
			c-0.6-0.6-0.9-1.4-0.9-2.2c0-0.9,0.3-1.6,0.9-2.2C465.8,826.7,466.6,826.4,467.4,826.4z"/>
		<path class="st2" d="M526.4,857.8v-11.9h-22.3v11.9c0,2.4,0.3,4.1,1,5.1c0.7,1,1.9,1.4,3.7,1.4v1.2h-14.8v-1.2
			c1.8,0,3-0.5,3.7-1.4c0.6-1,1-2.6,1-5v-25.5c0-2.5-0.3-4.2-1-5.1c-0.7-0.9-1.9-1.4-3.6-1.4v-1.2h14.8v1.2c-1.8,0-3,0.5-3.7,1.5
			c-0.7,1-1,2.7-1,5v11.6h22.3v-11.6c0-2.5-0.3-4.2-1-5.1c-0.6-0.9-1.8-1.4-3.6-1.4v-1.2h14.6v1.2c-1.7,0-2.9,0.5-3.6,1.4
			c-0.7,1-1,2.6-1,5.1v25.5c0,2.4,0.3,4.1,1,5.1s1.9,1.4,3.6,1.4v1.2h-14.6v-1.2c1.8,0,3-0.5,3.6-1.4
			C526.1,861.9,526.4,860.2,526.4,857.8z"/>
		<path class="st2" d="M548.4,866.2c-2,0-3.7-0.7-5.1-2c-1.4-1.3-2.1-2.9-2.1-4.8c0-1.8,0.6-3.2,1.8-4.4c1.2-1.1,3.7-2.2,7.4-3.3
			c2.3-0.6,3.9-1.2,4.7-1.7v-1.9c0-1.8-0.5-3.3-1.5-4.4c-1-1.1-2.4-1.7-4.1-1.7c-1.6,0-2.9,0.5-4.1,1.5c-1.2,1-2.1,2.3-2.5,4
			l-1.3-0.3c0.5-2.3,1.6-4.2,3.3-5.6s3.7-2.1,6-2.1c2.7,0,4.9,0.8,6.6,2.5s2.5,3.9,2.5,6.8v10.8c0,1.5,0.1,2.6,0.3,3.1
			s0.6,0.8,1.1,0.8c0.4,0,0.7-0.2,0.9-0.5s0.5-1,0.8-2h1.2c-0.1,1.6-0.6,2.8-1.5,3.8c-0.9,0.9-2,1.4-3.4,1.4c-2.1,0-3.5-1.2-4.3-3.6
			c-1.3,1.4-2.4,2.3-3.3,2.8C550.9,866,549.8,866.2,548.4,866.2z M555.2,860.3v-8.6c-0.7,0.3-1.8,0.7-3.1,1.1
			c-2.5,0.9-4.2,1.7-4.9,2.6c-0.7,0.8-1.1,2-1.1,3.4c0,1.3,0.4,2.3,1.1,3.3c0.8,0.9,1.7,1.4,2.7,1.4c1,0,2-0.3,3-0.9
			C554,862,554.8,861.2,555.2,860.3z"/>
		<path class="st2" d="M580.2,864.3h0.7v1.2h-14.1v-1.2h1.3c1.3,0,2.2-0.3,2.6-1c0.5-0.7,0.7-1.9,0.7-3.8v-33.3
			c0-1.3-0.3-2.2-0.8-2.7c-0.5-0.5-1.4-0.7-2.6-0.7h-1.6v-1.2l8.7-0.9h1.2v40c0,1.4,0.3,2.3,0.8,2.8S578.7,864.3,580.2,864.3z"/>
		<path class="st2" d="M608.4,820.7h1.2v39.9c0,1.4,0.3,2.4,0.9,2.9c0.6,0.5,1.7,0.8,3.3,0.8v1.2h-14.7c-4.5,0-8.1-1.2-10.7-3.7
			c-2.6-2.5-4-5.6-4-9.4c0-3.6,1.2-6.6,3.5-9.1c2.3-2.5,5.1-3.7,8.4-3.7c2.6,0,5.5,1,8.5,3.1v-15.5c0-1.7-0.2-2.8-0.7-3.4
			c-0.4-0.6-1.3-0.9-2.7-0.9H600v-1.2L608.4,820.7z M604.7,860.5v-15.2c-1-1.3-2.1-2.4-3.4-3.1s-2.6-1.1-3.9-1.1
			c-2.3,0-4.2,0.9-5.6,2.8c-1.4,1.9-2.1,4.4-2.1,7.4c0,3.9,1,7.1,2.9,9.5c1.9,2.4,4.6,3.6,8.1,3.6c1.4,0,2.4-0.3,3.1-0.9
			C604.4,862.8,604.7,861.8,604.7,860.5z"/>
		<path class="st2" d="M624.3,839.5h1.2v21.3c0,1.4,0.3,2.3,0.9,2.8c0.6,0.5,1.7,0.7,3.3,0.7v1.2h-13.8v-1.2c2,0,3.3-0.2,3.9-0.7
			c0.6-0.5,0.9-1.4,0.9-2.8v-15.5c0-1.5-0.3-2.5-0.8-3c-0.5-0.5-1.9-0.7-4-0.7v-1.2L624.3,839.5z M623.2,826.4
			c0.9,0,1.6,0.3,2.2,0.9c0.6,0.6,0.9,1.3,0.9,2.2c0,0.9-0.3,1.6-0.9,2.2s-1.3,0.9-2.2,0.9c-0.9,0-1.6-0.3-2.2-0.9
			c-0.6-0.6-0.9-1.4-0.9-2.2c0-0.9,0.3-1.6,0.9-2.2C621.6,826.7,622.3,826.4,623.2,826.4z"/>
		<path class="st2" d="M641.7,859.6c0.9,0,1.7,0.3,2.4,1s1,1.4,1,2.4c0,0.9-0.3,1.8-1,2.4c-0.7,0.7-1.4,1-2.4,1
			c-0.9,0-1.7-0.3-2.4-1c-0.7-0.7-1-1.5-1-2.4c0-0.9,0.3-1.7,1-2.3C640,859.9,640.8,859.6,641.7,859.6z M644.5,830.1l-2.2,25.6h-1.1
			l-1.9-25.6c-0.1-2.2-0.2-3.5-0.2-4.1c0-1.1,0.3-1.9,0.8-2.6c0.5-0.7,1.2-1,2-1c0.9,0,1.6,0.3,2.1,1c0.5,0.7,0.8,1.5,0.8,2.6
			c0,0.6-0.1,1.6-0.2,3L644.5,830.1z"/>
	</g>
</g>
<g id="Logo">
	<g>
		<g>
			<defs>
				<path id="SVGID_1_" d="M480.9,206.2l-5,7.2l-5-7.2c-0.2-0.4-0.6-0.5-1-0.5c-0.3,0-0.6,0.1-0.7,0.3c-0.2,0.2-0.3,0.5-0.3,0.8
					c0,0.2,0.1,0.4,0.2,0.6l5.7,8v6.1c0,0.3,0.1,0.6,0.3,0.8c0.2,0.2,0.5,0.3,0.8,0.3s0.6-0.1,0.8-0.3c0.2-0.2,0.3-0.5,0.3-0.8v-6.1
					l5.7-8c0.1-0.2,0.2-0.4,0.2-0.6c0-0.3-0.1-0.6-0.3-0.8c-0.2-0.2-0.5-0.3-0.8-0.3C481.5,205.6,481.2,205.8,480.9,206.2"/>
			</defs>
			<clipPath id="SVGID_2_">
				<use xlink:href="#SVGID_1_"  style="overflow:visible;"/>
			</clipPath>
			
				<linearGradient id="SVGID_3_" gradientUnits="userSpaceOnUse" x1="37.1319" y1="-492.9886" x2="38.1319" y2="-492.9886" gradientTransform="matrix(13.9467 0 0 13.9467 -48.868 7089.564)">
				<stop  offset="0" style="stop-color:#D79617"/>
				<stop  offset="0" style="stop-color:#B46A11"/>
				<stop  offset="0.3198" style="stop-color:#D68D15"/>
				<stop  offset="0.6802" style="stop-color:#E7AC18"/>
				<stop  offset="1" style="stop-color:#F8C73D"/>
			</linearGradient>
			<rect x="469" y="205.6" class="st3" width="14" height="16.8"/>
		</g>
		<g>
			<defs>
				<path id="SVGID_4_" d="M485.7,213.3c0.3-0.5,0.8-0.9,1.3-1.2c0.5-0.2,1.1-0.4,1.6-0.4s1.1,0.1,1.6,0.4c0.5,0.2,1,0.6,1.3,1.2
					c0.4,0.5,0.6,1.2,0.6,2h-7C485.2,214.5,485.4,213.8,485.7,213.3 M485.4,210.8c-0.9,0.6-1.5,1.4-1.9,2.3c-0.4,1-0.6,2-0.6,3.1
					c0,2,0.5,3.5,1.6,4.7c1.1,1.1,2.6,1.7,4.5,1.7c1,0,1.7-0.1,2.3-0.3c0.6-0.2,1.2-0.4,1.8-0.8c0.4-0.2,0.6-0.5,0.6-0.9
					c0-0.3-0.1-0.5-0.3-0.7c-0.2-0.2-0.4-0.3-0.7-0.3c-0.2,0-0.3,0-0.4,0.1c-0.5,0.2-1,0.4-1.5,0.5s-1.1,0.2-1.7,0.2
					c-1.3,0-2.2-0.3-2.9-0.9c-0.7-0.6-1.1-1.5-1.2-2.6h8.1c0.3,0,0.6-0.1,0.8-0.3c0.2-0.2,0.3-0.5,0.3-0.8c0-1.1-0.2-2.1-0.7-3
					c-0.4-0.9-1.1-1.6-2-2.2c-0.9-0.5-1.9-0.8-3-0.8C487.4,210,486.3,210.3,485.4,210.8"/>
			</defs>
			<clipPath id="SVGID_5_">
				<use xlink:href="#SVGID_4_"  style="overflow:visible;"/>
			</clipPath>
			
				<linearGradient id="SVGID_6_" gradientUnits="userSpaceOnUse" x1="36.4763" y1="-500.5134" x2="37.4763" y2="-500.5134" gradientTransform="matrix(11.3518 0 0 11.3518 68.849 5898.0283)">
				<stop  offset="0" style="stop-color:#D79617"/>
				<stop  offset="0" style="stop-color:#B46A11"/>
				<stop  offset="0.3198" style="stop-color:#D68D15"/>
				<stop  offset="0.6802" style="stop-color:#E7AC18"/>
				<stop  offset="1" style="stop-color:#F8C73D"/>
			</linearGradient>
			<rect x="482.9" y="210" class="st4" width="11.4" height="12.6"/>
		</g>
		<g>
			<defs>
				<path id="SVGID_7_" d="M497.4,205.2c-0.2,0.2-0.3,0.5-0.3,0.8v15.4c0,0.3,0.1,0.6,0.3,0.8c0.2,0.2,0.5,0.3,0.8,0.3
					s0.6-0.1,0.8-0.3c0.2-0.2,0.3-0.5,0.3-0.8v-7.1c0.6-0.7,1.1-1.3,1.8-1.7c0.6-0.4,1.3-0.6,2.1-0.6c1.7,0,2.6,1,2.6,2.9v6.5
					c0,0.3,0.1,0.6,0.3,0.8c0.2,0.2,0.5,0.3,0.8,0.3s0.6-0.1,0.8-0.3c0.2-0.2,0.3-0.5,0.3-0.8v-6.8c0-0.9-0.2-1.6-0.5-2.4
					c-0.3-0.7-0.8-1.3-1.5-1.7c-0.6-0.4-1.4-0.6-2.3-0.6c-1,0-1.8,0.2-2.5,0.6c-0.7,0.4-1.3,0.9-2,1.6v-6.2c0-0.3-0.1-0.6-0.3-0.8
					c-0.2-0.2-0.5-0.3-0.8-0.3C497.9,204.9,497.6,205,497.4,205.2"/>
			</defs>
			<clipPath id="SVGID_8_">
				<use xlink:href="#SVGID_7_"  style="overflow:visible;"/>
			</clipPath>
			
				<linearGradient id="SVGID_9_" gradientUnits="userSpaceOnUse" x1="36.314" y1="-502.3811" x2="37.3141" y2="-502.3811" gradientTransform="matrix(10.8519 0 0 10.8519 103.0515 5665.4897)">
				<stop  offset="0" style="stop-color:#D79617"/>
				<stop  offset="0" style="stop-color:#B46A11"/>
				<stop  offset="0.3198" style="stop-color:#D68D15"/>
				<stop  offset="0.6802" style="stop-color:#E7AC18"/>
				<stop  offset="1" style="stop-color:#F8C73D"/>
			</linearGradient>
			<rect x="497.1" y="204.9" class="st5" width="10.9" height="17.6"/>
		</g>
		<g>
			<defs>
				<path id="SVGID_10_" d="M511.9,210.4c-0.2,0.2-0.3,0.5-0.3,0.8v10.2c0,0.3,0.1,0.6,0.3,0.8s0.5,0.3,0.8,0.3s0.6-0.1,0.8-0.3
					s0.3-0.5,0.3-0.8v-10.2c0-0.3-0.1-0.6-0.3-0.8s-0.5-0.3-0.8-0.3C512.4,210.1,512.1,210.2,511.9,210.4 M512.6,205.2
					c-0.3,0-0.6,0.1-0.9,0.4c-0.2,0.2-0.4,0.5-0.4,0.9v0.1c0,0.3,0.1,0.6,0.4,0.9c0.2,0.2,0.5,0.4,0.9,0.4h0.1
					c0.3,0,0.6-0.1,0.9-0.4s0.4-0.5,0.4-0.9v-0.1c0-0.3-0.1-0.6-0.4-0.9C513.4,205.4,513.1,205.2,512.6,205.2L512.6,205.2z"/>
			</defs>
			<clipPath id="SVGID_11_">
				<use xlink:href="#SVGID_10_"  style="overflow:visible;"/>
			</clipPath>
			
				<linearGradient id="SVGID_12_" gradientUnits="userSpaceOnUse" x1="24.4339" y1="-639.0287" x2="25.434" y2="-639.0287" gradientTransform="matrix(2.5697 0 0 2.5697 448.6423 1855.9622)">
				<stop  offset="0" style="stop-color:#D79617"/>
				<stop  offset="0" style="stop-color:#B46A11"/>
				<stop  offset="0.3198" style="stop-color:#D68D15"/>
				<stop  offset="0.6802" style="stop-color:#E7AC18"/>
				<stop  offset="1" style="stop-color:#F8C73D"/>
			</linearGradient>
			<rect x="511.4" y="205.2" class="st6" width="2.6" height="17.3"/>
		</g>
		<g>
			<defs>
				<path id="SVGID_13_" d="M563.1,250.7c-0.3,0-0.6,0.1-0.8,0.3s-0.3,0.5-0.3,0.8v14.6c0,0.3,0.1,0.6,0.3,0.8
					c0.2,0.2,0.5,0.3,0.8,0.3s0.6-0.1,0.8-0.3c0.2-0.2,0.3-0.5,0.3-0.8V260h7.4c0.3,0,0.5-0.1,0.7-0.3c0.2-0.2,0.3-0.4,0.3-0.7
					s-0.1-0.5-0.3-0.7s-0.4-0.3-0.7-0.3h-7.4v-5.3h8.2c0.3,0,0.5-0.1,0.7-0.3s0.3-0.4,0.3-0.7s-0.1-0.5-0.3-0.7s-0.4-0.3-0.7-0.3
					H563.1z"/>
			</defs>
			<clipPath id="SVGID_14_">
				<use xlink:href="#SVGID_13_"  style="overflow:visible;"/>
			</clipPath>
			
				<linearGradient id="SVGID_15_" gradientUnits="userSpaceOnUse" x1="36.4926" y1="-500.3522" x2="37.4925" y2="-500.3522" gradientTransform="matrix(11.4011 0 0 11.4011 145.9447 5963.665)">
				<stop  offset="0" style="stop-color:#D79617"/>
				<stop  offset="0" style="stop-color:#B46A11"/>
				<stop  offset="0.3198" style="stop-color:#D68D15"/>
				<stop  offset="0.6802" style="stop-color:#E7AC18"/>
				<stop  offset="1" style="stop-color:#F8C73D"/>
			</linearGradient>
			<rect x="562" y="250.7" class="st7" width="11.4" height="16.8"/>
		</g>
		<g>
			<defs>
				<path id="SVGID_16_" d="M578.6,265.2c-0.6-0.3-1.1-0.8-1.5-1.4c-0.4-0.7-0.6-1.5-0.6-2.5s0.2-1.8,0.6-2.5
					c0.4-0.7,0.9-1.1,1.5-1.4s1.2-0.4,1.9-0.4s1.3,0.1,1.9,0.4c0.6,0.3,1.1,0.8,1.5,1.4c0.4,0.7,0.6,1.5,0.6,2.5s-0.2,1.8-0.6,2.5
					c-0.4,0.7-0.9,1.1-1.5,1.4s-1.2,0.5-1.9,0.5C579.8,265.6,579.2,265.5,578.6,265.2 M577.3,255.7c-0.9,0.5-1.6,1.3-2.1,2.2
					c-0.5,1-0.8,2.1-0.8,3.3c0,1.2,0.3,2.3,0.8,3.3s1.2,1.7,2.1,2.2c0.9,0.5,2,0.8,3.2,0.8s2.3-0.3,3.2-0.8s1.6-1.3,2.2-2.2
					c0.5-1,0.8-2.1,0.8-3.3c0-1.2-0.3-2.3-0.8-3.3s-1.2-1.7-2.2-2.2c-0.9-0.5-2-0.8-3.2-0.8C579.3,255,578.2,255.2,577.3,255.7"/>
			</defs>
			<clipPath id="SVGID_17_">
				<use xlink:href="#SVGID_16_"  style="overflow:visible;"/>
			</clipPath>
			
				<linearGradient id="SVGID_18_" gradientUnits="userSpaceOnUse" x1="36.7319" y1="-497.5786" x2="37.7319" y2="-497.5786" gradientTransform="matrix(12.2376 0 0 12.2376 124.89 6350.5176)">
				<stop  offset="0" style="stop-color:#D79617"/>
				<stop  offset="0" style="stop-color:#B46A11"/>
				<stop  offset="0.3198" style="stop-color:#D68D15"/>
				<stop  offset="0.6802" style="stop-color:#E7AC18"/>
				<stop  offset="1" style="stop-color:#F8C73D"/>
			</linearGradient>
			<rect x="574.4" y="255" class="st8" width="12.2" height="12.7"/>
		</g>
		<g>
			<defs>
				<path id="SVGID_19_" d="M595.6,255c-1.4,0-2.6,0.7-3.8,2.2v-1c0-0.3-0.1-0.6-0.3-0.8s-0.5-0.3-0.8-0.3s-0.6,0.1-0.8,0.3
					s-0.3,0.5-0.3,0.8v10.3c0,0.3,0.1,0.6,0.3,0.8c0.2,0.2,0.5,0.3,0.8,0.3s0.6-0.1,0.8-0.3c0.2-0.2,0.3-0.5,0.3-0.8v-7.3
					c0.4-0.7,1-1.2,1.6-1.5c0.6-0.4,1.3-0.6,2.1-0.6h0.1c0.3,0,0.6-0.1,0.8-0.3c0.2-0.2,0.3-0.4,0.3-0.7c0-0.3-0.1-0.6-0.3-0.8
					S596,255,595.6,255L595.6,255z"/>
			</defs>
			<clipPath id="SVGID_20_">
				<use xlink:href="#SVGID_19_"  style="overflow:visible;"/>
			</clipPath>
			
				<linearGradient id="SVGID_21_" gradientUnits="userSpaceOnUse" x1="34.3651" y1="-524.79" x2="35.3653" y2="-524.79" gradientTransform="matrix(7.0987 0 0 7.0987 345.7192 3986.5767)">
				<stop  offset="0" style="stop-color:#D79617"/>
				<stop  offset="0" style="stop-color:#B46A11"/>
				<stop  offset="0.3198" style="stop-color:#D68D15"/>
				<stop  offset="0.6802" style="stop-color:#E7AC18"/>
				<stop  offset="1" style="stop-color:#F8C73D"/>
			</linearGradient>
			<rect x="589.7" y="255" class="st9" width="7.1" height="12.5"/>
		</g>
		<g>
			<defs>
				<path id="SVGID_22_" d="M600.5,258.3c0.4-0.5,0.8-0.9,1.3-1.2c0.5-0.2,1.1-0.4,1.6-0.4s1.1,0.1,1.6,0.4c0.5,0.2,1,0.6,1.3,1.2
					c0.4,0.5,0.6,1.2,0.6,2h-7.1C600,259.5,600.2,258.9,600.5,258.3 M600.3,255.8c-0.9,0.6-1.5,1.4-1.9,2.3c-0.4,1-0.6,2-0.6,3.1
					c0,2,0.5,3.6,1.6,4.7s2.6,1.7,4.6,1.7c1,0,1.7-0.1,2.3-0.3c0.6-0.2,1.2-0.4,1.8-0.8c0.4-0.2,0.6-0.5,0.6-0.9
					c0-0.3-0.1-0.5-0.3-0.7s-0.4-0.3-0.7-0.3c-0.2,0-0.3,0-0.4,0.1c-0.5,0.2-1,0.4-1.5,0.6c-0.5,0.1-1.1,0.2-1.8,0.2
					c-1.3,0-2.2-0.3-2.9-0.9s-1.1-1.5-1.2-2.6h8.1c0.3,0,0.6-0.1,0.8-0.3c0.2-0.2,0.3-0.5,0.3-0.8c0-1.1-0.2-2.1-0.7-3
					c-0.4-0.9-1.1-1.7-2-2.2c-0.9-0.6-1.9-0.8-3.1-0.8C602.2,255,601.1,255.3,600.3,255.8"/>
			</defs>
			<clipPath id="SVGID_23_">
				<use xlink:href="#SVGID_22_"  style="overflow:visible;"/>
			</clipPath>
			
				<linearGradient id="SVGID_24_" gradientUnits="userSpaceOnUse" x1="36.4919" y1="-500.3433" x2="37.4917" y2="-500.3433" gradientTransform="matrix(11.4022 0 0 11.4022 181.6335 5966.3647)">
				<stop  offset="0" style="stop-color:#D79617"/>
				<stop  offset="0" style="stop-color:#B46A11"/>
				<stop  offset="0.3198" style="stop-color:#D68D15"/>
				<stop  offset="0.6802" style="stop-color:#E7AC18"/>
				<stop  offset="1" style="stop-color:#F8C73D"/>
			</linearGradient>
			<rect x="597.7" y="255" class="st10" width="11.4" height="12.7"/>
		</g>
		<g>
			<defs>
				<path id="SVGID_25_" d="M620.4,255.3c-0.2,0.1-0.3,0.3-0.4,0.4l-3.7,9.3l-3.7-9.3c-0.1-0.2-0.2-0.3-0.4-0.4
					c-0.2-0.1-0.4-0.2-0.6-0.2c-0.3,0-0.6,0.1-0.8,0.3s-0.3,0.5-0.3,0.8c0,0.1,0,0.3,0.1,0.5l4.2,9.9c0.1,0.3,0.3,0.5,0.5,0.6
					c0.2,0.2,0.5,0.3,0.8,0.3h0.2c0.3,0,0.5-0.1,0.8-0.3c0.2-0.2,0.4-0.4,0.5-0.6l4.2-9.9c0.1-0.2,0.1-0.4,0.1-0.5
					c0-0.3-0.1-0.6-0.3-0.8s-0.5-0.3-0.8-0.3C620.7,255.1,620.6,255.1,620.4,255.3"/>
			</defs>
			<clipPath id="SVGID_26_">
				<use xlink:href="#SVGID_25_"  style="overflow:visible;"/>
			</clipPath>
			
				<linearGradient id="SVGID_27_" gradientUnits="userSpaceOnUse" x1="36.4986" y1="-500.2614" x2="37.4987" y2="-500.2614" gradientTransform="matrix(11.4254 0 0 11.4254 193.5886 5976.9868)">
				<stop  offset="0" style="stop-color:#D79617"/>
				<stop  offset="0" style="stop-color:#B46A11"/>
				<stop  offset="0.3198" style="stop-color:#D68D15"/>
				<stop  offset="0.6802" style="stop-color:#E7AC18"/>
				<stop  offset="1" style="stop-color:#F8C73D"/>
			</linearGradient>
			<rect x="610.6" y="255.1" class="st11" width="11.4" height="12.4"/>
		</g>
		<g>
			<defs>
				<path id="SVGID_28_" d="M626.4,258.3c0.3-0.5,0.8-0.9,1.3-1.2c0.5-0.2,1.1-0.4,1.6-0.4s1.1,0.1,1.6,0.4c0.5,0.2,1,0.6,1.3,1.2
					c0.4,0.5,0.6,1.2,0.6,2h-7.1C625.9,259.5,626.1,258.9,626.4,258.3 M626.2,255.8c-0.9,0.6-1.5,1.4-1.9,2.3c-0.4,1-0.6,2-0.6,3.1
					c0,2,0.5,3.6,1.6,4.7s2.6,1.7,4.6,1.7c1,0,1.7-0.1,2.3-0.3c0.6-0.2,1.2-0.4,1.8-0.8c0.4-0.2,0.6-0.5,0.6-0.9
					c0-0.3-0.1-0.5-0.3-0.7s-0.4-0.3-0.7-0.3c-0.2,0-0.3,0-0.4,0.1c-0.5,0.2-1,0.4-1.5,0.6c-0.5,0.1-1.1,0.2-1.8,0.2
					c-1.3,0-2.2-0.3-2.9-0.9s-1.1-1.5-1.2-2.6h8.1c0.3,0,0.6-0.1,0.8-0.3c0.2-0.2,0.3-0.5,0.3-0.8c0-1.1-0.2-2.1-0.7-3
					c-0.4-0.9-1.1-1.7-2-2.2c-0.9-0.6-1.9-0.8-3.1-0.8C628.1,255,627,255.3,626.2,255.8"/>
			</defs>
			<clipPath id="SVGID_29_">
				<use xlink:href="#SVGID_28_"  style="overflow:visible;"/>
			</clipPath>
			
				<linearGradient id="SVGID_30_" gradientUnits="userSpaceOnUse" x1="36.492" y1="-500.3433" x2="37.4918" y2="-500.3433" gradientTransform="matrix(11.4022 0 0 11.4022 207.5432 5966.3647)">
				<stop  offset="0" style="stop-color:#D79617"/>
				<stop  offset="0" style="stop-color:#B46A11"/>
				<stop  offset="0.3198" style="stop-color:#D68D15"/>
				<stop  offset="0.6802" style="stop-color:#E7AC18"/>
				<stop  offset="1" style="stop-color:#F8C73D"/>
			</linearGradient>
			<rect x="623.6" y="255" class="st12" width="11.4" height="12.7"/>
		</g>
		<g>
			<defs>
				<path id="SVGID_31_" d="M643.8,255c-1.4,0-2.6,0.7-3.8,2.2v-1c0-0.3-0.1-0.6-0.3-0.8s-0.5-0.3-0.8-0.3s-0.6,0.1-0.8,0.3
					s-0.3,0.5-0.3,0.8v10.3c0,0.3,0.1,0.6,0.3,0.8c0.2,0.2,0.5,0.3,0.8,0.3s0.6-0.1,0.8-0.3c0.2-0.2,0.3-0.5,0.3-0.8v-7.3
					c0.4-0.7,1-1.2,1.6-1.5c0.6-0.4,1.3-0.6,2.1-0.6h0.1c0.3,0,0.6-0.1,0.8-0.3c0.2-0.2,0.3-0.4,0.3-0.7c0-0.3-0.1-0.6-0.3-0.8
					S644.1,255,643.8,255L643.8,255z"/>
			</defs>
			<clipPath id="SVGID_32_">
				<use xlink:href="#SVGID_31_"  style="overflow:visible;"/>
			</clipPath>
			
				<linearGradient id="SVGID_33_" gradientUnits="userSpaceOnUse" x1="34.365" y1="-524.79" x2="35.3652" y2="-524.79" gradientTransform="matrix(7.0987 0 0 7.0987 393.9533 3986.5767)">
				<stop  offset="0" style="stop-color:#D79617"/>
				<stop  offset="0" style="stop-color:#B46A11"/>
				<stop  offset="0.3198" style="stop-color:#D68D15"/>
				<stop  offset="0.6802" style="stop-color:#E7AC18"/>
				<stop  offset="1" style="stop-color:#F8C73D"/>
			</linearGradient>
			<rect x="637.9" y="255" class="st13" width="7.1" height="12.5"/>
		</g>
		<linearGradient id="SVGID_34_" gradientUnits="userSpaceOnUse" x1="452.8119" y1="233.1982" x2="628.3907" y2="233.1982">
			<stop  offset="0" style="stop-color:#B76D11"/>
			<stop  offset="1" style="stop-color:#F7C53B"/>
		</linearGradient>
		<path class="st14" d="M516.7,306.6c0,0,6.4-8.2,6.4-49.6v-71.8c0,0-1.1-29.8,25.1-44.4c26.2-14.6,64.3-6.1,76.8,28
			c12.5,34-13.2,56.3-13.2,56.3s-14.3,15-33,15h-20.1v39.9c0,0,0.7,32.6-28.7,46.7c-29.4,14.1-57-1.2-65.8-13.9
			c-8.7-12.7-11.4-22.6-11.4-32.6c0-10,3.4-28.9,19.1-41.3c15.7-12.5,36.2-11.9,43.7-10.5v10.5c0,0-20-1.2-32.6,7.5
			c-12.6,8.7-17.8,19.8-17.8,36.9s17,36.9,42.9,36.9c18.2,0,28.8-15.1,28.8-15.1s8.2-8,8.2-27.3s0-91.4,0-91.4s-0.7-19.8,20.1-27.3
			c0,0-6.7,11.3-6.7,25.9s0,41.5,0,41.5h19.7c0,0,36.1-3,36.1-39.3s-33.1-40.5-39.9-40.5s-16.8,2.1-24,8.7
			c-7.2,6.5-14.9,15.4-14.9,27.3c0,11.9,0,42.2,0,42.2s1.4,2.9,4.6,5.2c0,0-0.6,11.2-4.7,16.8v30.7
			C535.3,277.4,536.3,298.9,516.7,306.6z"/>
	</g>
</g>
</svg>
